<svg width="560" height="357" viewBox="0 0 560 357" fill="none" xmlns="http://www.w3.org/2000/svg">
<g clip-path="url(#clip0_173_1874)">
<ellipse opacity="0.1" cx="292.5" cy="204.5" rx="205.5" ry="142.5" fill="url(#paint0_radial_173_1874)"/>
<ellipse opacity="0.1" cx="292.5" cy="204.5" rx="205.5" ry="142.5" fill="url(#paint1_radial_173_1874)"/>
<ellipse opacity="0.05" cx="292.5" cy="204.5" rx="227.5" ry="158.5" fill="url(#paint2_radial_173_1874)"/>
<ellipse opacity="0.05" cx="292.5" cy="204.5" rx="227.5" ry="158.5" fill="url(#paint3_radial_173_1874)"/>
<ellipse opacity="0.1" cx="379.314" cy="127.826" rx="180.686" ry="107.23" fill="url(#paint4_radial_173_1874)"/>
<ellipse opacity="0.1" cx="379.314" cy="127.826" rx="180.686" ry="107.23" fill="url(#paint5_radial_173_1874)"/>
<ellipse opacity="0.05" cx="163.5" cy="178.5" rx="153.5" ry="107.5" fill="url(#paint6_radial_173_1874)"/>
<ellipse opacity="0.05" cx="100.686" cy="178.485" rx="180.686" ry="107.23" fill="url(#paint7_radial_173_1874)"/>
<path d="M231.456 77.5H228.264L234.6 59.956H237.744L244.08 77.5H240.84L239.424 73.444H232.872L231.456 77.5ZM235.776 65.188L233.784 70.852H238.536L236.52 65.188C236.376 64.732 236.208 64.204 236.16 63.844C236.088 64.18 235.944 64.708 235.776 65.188Z" fill="#FA9E5B"/>
<path d="M244.936 73.9H247.72C247.744 74.932 248.512 75.58 249.856 75.58C251.224 75.58 251.968 75.028 251.968 74.164C251.968 73.564 251.656 73.132 250.6 72.892L248.464 72.388C246.328 71.908 245.296 70.9 245.296 69.004C245.296 66.676 247.264 65.284 250 65.284C252.664 65.284 254.464 66.82 254.488 69.124H251.704C251.68 68.116 251.008 67.468 249.88 67.468C248.728 67.468 248.056 67.996 248.056 68.884C248.056 69.556 248.584 69.988 249.592 70.228L251.728 70.732C253.72 71.188 254.728 72.1 254.728 73.924C254.728 76.324 252.688 77.812 249.76 77.812C246.808 77.812 244.936 76.228 244.936 73.9Z" fill="#FA9E5B"/>
<path d="M266.378 77.5H263.474V59.644H266.378V77.5Z" fill="#FA9E5B"/>
<path d="M268.754 71.548C268.754 67.852 271.418 65.308 275.09 65.308C278.762 65.308 281.426 67.852 281.426 71.548C281.426 75.244 278.762 77.788 275.09 77.788C271.418 77.788 268.754 75.244 268.754 71.548ZM271.682 71.548C271.682 73.708 273.074 75.172 275.09 75.172C277.106 75.172 278.498 73.708 278.498 71.548C278.498 69.388 277.106 67.924 275.09 67.924C273.074 67.924 271.682 69.388 271.682 71.548Z" fill="#FA9E5B"/>
<path d="M285.776 77.5L281.936 65.644H284.984L286.544 70.732C286.808 71.668 287.048 72.7 287.264 73.804C287.48 72.652 287.696 71.908 288.08 70.732L289.712 65.644H292.688L294.272 70.732C294.416 71.212 294.896 72.988 295.04 73.78C295.232 72.892 295.616 71.476 295.832 70.732L297.416 65.644H300.512L296.408 77.5H293.672L292.04 72.364C291.56 70.804 291.296 69.676 291.2 69.076C291.08 69.628 290.864 70.468 290.264 72.412L288.632 77.5H285.776Z" fill="#FA9E5B"/>
<path d="M312.282 77.812C309.762 77.812 308.226 76.348 308.226 74.116C308.226 71.932 309.81 70.564 312.618 70.348L316.17 70.084V69.82C316.17 68.212 315.21 67.564 313.722 67.564C311.994 67.564 311.034 68.284 311.034 69.532H308.538C308.538 66.964 310.65 65.284 313.866 65.284C317.058 65.284 319.026 67.012 319.026 70.3V77.5H316.458L316.242 75.748C315.738 76.972 314.13 77.812 312.282 77.812ZM313.242 75.604C315.042 75.604 316.194 74.524 316.194 72.7V72.076L313.722 72.268C311.898 72.436 311.202 73.036 311.202 73.996C311.202 75.076 311.922 75.604 313.242 75.604Z" fill="#FA9E5B"/>
<path d="M320.991 73.9H323.775C323.799 74.932 324.567 75.58 325.911 75.58C327.279 75.58 328.023 75.028 328.023 74.164C328.023 73.564 327.711 73.132 326.655 72.892L324.519 72.388C322.383 71.908 321.351 70.9 321.351 69.004C321.351 66.676 323.319 65.284 326.055 65.284C328.719 65.284 330.519 66.82 330.543 69.124H327.759C327.735 68.116 327.063 67.468 325.935 67.468C324.783 67.468 324.111 67.996 324.111 68.884C324.111 69.556 324.639 69.988 325.647 70.228L327.783 70.732C329.775 71.188 330.783 72.1 330.783 73.924C330.783 76.324 328.743 77.812 325.815 77.812C322.863 77.812 320.991 76.228 320.991 73.9Z" fill="#FA9E5B"/>
<g opacity="0.3">
<path d="M441.712 368.957C432.661 368.957 423.499 368.295 414.558 366.86H234.853C226.574 368.184 218.075 368.957 209.685 368.957C198.316 368.957 186.946 367.743 175.908 365.204C163.324 367.632 150.409 368.957 137.274 368.957C78.8806 368.957 28.7664 345.776 -7.66023 302.064C-37.5742 266.079 -53.4695 220.049 -53.4695 168.942C-53.4695 117.392 -36.1392 68.9339 -4.67986 32.6176C31.3052 -8.88665 81.6402 -31.7361 137.274 -31.7361C159.461 -31.7361 181.869 -27.7623 202.621 -20.2562C223.263 -27.6519 245.56 -31.6257 267.747 -31.6257C282.98 -31.6257 297.992 -29.8596 312.453 -26.3273C326.582 -29.9699 341.042 -31.7361 355.723 -31.7361C365.768 -31.7361 375.923 -30.853 385.747 -29.1973H736.216L604.197 144.105C609.827 161.325 612.586 179.318 612.586 197.752C612.586 244.003 594.925 287.052 563.024 319.063C531.013 351.185 487.963 368.957 441.712 368.957Z" stroke="url(#paint8_radial_173_1874)" stroke-miterlimit="10"/>
<path d="M441.712 342.465C433.323 342.465 424.934 341.803 416.765 340.368H232.645C225.139 341.692 217.412 342.465 209.796 342.465C198.426 342.465 187.277 341.03 176.35 338.049C163.766 341.03 150.74 342.465 137.384 342.465C87.049 342.465 43.9994 322.596 12.8712 285.176C-13.069 253.937 -26.7566 213.757 -26.7566 169.052C-26.7566 123.795 -11.7444 81.5177 15.6308 50.0583C46.4278 14.4043 89.8086 -5.24397 137.494 -5.24397C160.123 -5.24397 182.421 -0.607842 202.731 8.22286C222.931 -0.497458 245.229 -5.13359 267.858 -5.13359C283.311 -5.13359 298.324 -3.0363 312.784 1.0479C326.692 -3.14668 341.152 -5.24397 355.833 -5.24397C365.216 -5.24397 374.488 -4.36091 383.54 -2.70515H682.901L574.504 139.69C582.23 157.903 586.315 177.662 586.315 197.752C586.315 236.938 571.413 273.365 544.479 300.409C517.325 327.453 480.788 342.465 441.712 342.465Z" stroke="url(#paint9_radial_173_1874)" stroke-miterlimit="10"/>
<path d="M441.712 318.18C431.115 318.18 420.85 316.856 410.915 314.317L409.59 316.083H230.217C223.483 317.408 216.64 318.18 209.685 318.18C198.426 318.18 187.388 316.414 176.791 312.772C164.207 316.304 150.961 318.18 137.274 318.18C94.4447 318.18 57.7974 301.402 31.4156 269.612C9.11811 242.788 -2.58258 208.017 -2.58258 168.942C-2.58258 129.535 10.3323 92.8872 33.8441 65.8432C60.005 35.598 96.7628 19.0405 137.384 19.0405C160.565 19.0405 182.862 24.5597 202.621 35.2669C222.269 24.7804 244.456 19.2612 267.747 19.2612C283.422 19.2612 298.544 21.8001 313.005 26.6569C326.582 21.6897 341.152 19.0405 355.833 19.0405C366.43 19.0405 376.696 20.3651 386.741 22.9039L387.734 21.5793H633.89L546.025 136.93C556.401 155.144 562.03 176.227 562.03 197.752C562.03 230.425 549.667 260.781 527.259 283.299C504.741 305.707 474.386 318.18 441.712 318.18Z" stroke="url(#paint10_radial_173_1874)" stroke-miterlimit="10"/>
<path d="M441.712 296.104C428.135 296.104 414.999 293.454 402.857 288.487L398.662 294.006H227.899C221.938 295.331 215.867 296.104 209.796 296.104C198.647 296.104 187.719 293.786 177.564 289.481C164.98 293.896 151.513 296.104 137.384 296.104C101.289 296.104 70.6019 282.085 48.5251 255.482C29.5391 232.743 19.6046 202.829 19.6046 168.942C19.6046 134.833 30.6429 103.374 50.6224 80.3035C72.4784 55.0256 103.386 41.1172 137.494 41.1172C161.227 41.1172 183.856 48.0714 202.731 61.0967C221.386 48.2921 243.904 41.338 267.858 41.338C283.753 41.338 299.317 44.4287 313.446 50.3894C326.582 44.3183 341.042 41.1172 355.944 41.1172C369.521 41.1172 382.767 43.7664 394.799 48.7337L398.662 43.656H589.295L518.87 136.047C532.337 153.157 539.843 174.792 539.843 197.752C539.843 224.575 529.798 249.411 511.475 267.625C493.261 285.948 468.425 296.104 441.712 296.104Z" stroke="url(#paint11_radial_173_1874)" stroke-miterlimit="10"/>
<path d="M441.712 276.235C425.375 276.235 410.032 271.598 397.227 262.989L388.728 274.137H225.47C220.393 275.462 215.094 276.235 209.796 276.235C198.647 276.235 187.94 273.254 178.557 267.735C166.084 273.365 152.286 276.235 137.384 276.235C107.36 276.235 81.9714 264.644 63.7581 242.788C47.8628 223.582 39.3633 198.083 39.3633 168.942C39.3633 139.69 48.6355 112.756 65.5242 93.2183C83.6271 72.3558 109.126 60.8759 137.274 60.8759C162.331 60.8759 185.18 69.9274 202.621 86.4849C202.621 86.4849 202.621 86.4849 202.731 86.3746C219.62 70.0378 242.69 60.9863 267.747 60.9863C284.305 60.9863 299.979 64.9601 313.777 72.4662C326.03 64.9601 340.601 60.8759 355.833 60.8759C372.17 60.8759 387.514 65.512 400.318 74.1219L408.487 63.4147H549.115L492.709 137.482C509.819 151.942 519.974 173.578 519.974 197.752C519.974 219.277 512.026 239.035 497.456 253.606C482.885 268.177 463.126 276.235 441.712 276.235Z" stroke="url(#paint12_radial_173_1874)" stroke-miterlimit="10"/>
<path d="M441.712 258.573C422.505 258.573 405.727 250.515 394.689 237.269L380.008 256.586H222.931C218.626 257.911 214.211 258.684 209.796 258.684C198.426 258.684 187.94 254.379 179.992 246.983C167.74 254.71 153.279 258.684 137.384 258.684C112.768 258.684 92.0163 249.301 77.3353 231.64C64.0892 215.634 57.0247 194.109 57.0247 169.162C57.0247 144.105 64.7515 121.366 78.8806 105.029C93.5617 88.1407 114.314 78.7581 137.274 78.7581C160.233 78.7581 181.096 88.0303 195.667 105.029C198.316 108.12 200.744 111.432 202.952 114.854C206.153 109.114 210.237 103.926 214.984 99.2895C228.561 86.1538 247.216 78.8685 267.637 78.8685C285.188 78.8685 301.414 84.2773 314.329 94.1014C325.147 84.2773 339.607 78.6477 355.723 78.6477C374.93 78.6477 391.708 86.7057 402.747 100.062L417.097 81.1865H513.461L467.1 142.118C488.294 151.391 502.313 172.253 502.313 197.752C502.313 232.412 476.262 258.573 441.712 258.573Z" stroke="url(#paint13_radial_173_1874)" stroke-miterlimit="10"/>
<path d="M441.712 243.119C419.083 243.119 401.753 228.88 397.559 208.017L372.391 241.022H314.992L357.82 184.726C357.158 184.726 356.606 184.726 355.944 184.726C342.808 184.726 331.439 179.98 323.491 171.812C319.959 181.856 313.667 191.57 304.836 203.712L277.682 240.912H220.282C217.081 242.236 213.549 243.009 209.796 243.009C197.433 243.009 186.946 235.061 183.304 224.133C171.824 236.496 155.928 243.009 137.384 243.009C117.515 243.009 100.957 235.613 89.2567 221.484C78.3287 208.349 72.5888 190.135 72.5888 168.831C72.5888 124.678 99.3016 93.8806 137.494 93.8806C175.687 93.8806 202.4 124.678 202.4 168.831C202.4 176.006 201.738 182.85 200.413 189.142C203.393 188.038 206.595 187.486 209.906 187.486C223.483 187.486 235.184 197.752 237.502 210.667L244.125 201.726C223.263 194.33 209.465 175.123 209.465 150.618C209.465 117.724 234.08 93.8806 267.968 93.8806C288.279 93.8806 305.498 102.711 316.095 116.84C323.491 102.711 338.062 93.6599 356.054 93.6599C378.683 93.6599 396.013 107.899 400.208 128.872L425.044 96.3091H482.444L439.946 152.163C440.608 152.163 441.16 152.163 441.822 152.163C467.983 152.163 487.08 171.26 487.08 197.531C486.859 224.023 467.873 243.119 441.712 243.119Z" stroke="url(#paint14_radial_173_1874)" stroke-miterlimit="10"/>
</g>
<path d="M137.384 107.237C168.181 107.237 189.044 132.294 189.044 168.942C189.044 205.589 169.837 229.874 137.384 229.874C104.931 229.874 85.7246 205.589 85.7246 168.942C85.7246 132.294 106.477 107.237 137.384 107.237ZM137.384 207.135C153.831 207.135 163.435 194.33 163.435 168.942C163.435 142.781 153.831 129.976 137.384 129.976C120.937 129.976 111.334 142.781 111.334 168.942C111.334 194.33 120.937 207.135 137.384 207.135ZM195.005 215.413C195.005 207.466 201.517 200.843 209.686 200.843C217.523 200.843 224.367 207.355 224.367 215.413C224.367 223.251 217.523 229.763 209.686 229.763C201.628 229.874 195.005 223.251 195.005 215.413ZM270.838 227.776H241.255L268.299 191.46C266.754 191.791 265.098 191.902 263.553 191.902C239.268 191.902 222.6 175.123 222.6 150.839C222.6 124.899 241.586 107.348 267.858 107.348C294.35 107.348 313.777 126.223 313.777 150.949C313.777 165.52 308.479 176.227 294.129 195.875L270.838 227.776ZM267.747 130.308C256.599 130.308 248.761 138.586 248.761 150.728C248.761 162.871 256.378 171.039 267.747 171.039C279.448 171.039 287.065 162.871 287.065 150.728C287.065 138.586 279.227 130.308 267.747 130.308ZM355.834 171.481C337.179 171.481 323.822 158.235 323.822 139.359C323.822 120.483 337.068 107.237 355.834 107.237C374.599 107.237 387.845 120.483 387.845 139.359C387.845 158.235 374.489 171.481 355.834 171.481ZM365.768 227.776H341.594L431.447 109.776H455.621L365.768 227.776ZM355.834 125.782C348.107 125.782 343.029 131.411 343.029 139.359C343.029 147.307 348.107 152.936 355.834 152.936C363.561 152.936 368.638 147.307 368.638 139.359C368.638 131.411 363.561 125.782 355.834 125.782ZM441.712 229.874C423.057 229.874 409.701 216.628 409.701 197.752C409.701 178.876 422.947 165.63 441.712 165.63C460.477 165.63 473.724 178.876 473.724 197.752C473.613 216.517 460.367 229.874 441.712 229.874ZM441.712 184.064C433.985 184.064 428.908 189.694 428.908 197.642C428.908 205.589 433.985 211.219 441.712 211.219C449.329 211.219 454.517 205.589 454.517 197.642C454.406 189.694 449.329 184.064 441.712 184.064Z" fill="url(#paint15_linear_173_1874)"/>
<path d="M270.838 230.776H272.362L273.261 229.545L296.552 197.645C296.552 197.645 296.552 197.645 296.552 197.644C310.971 177.901 316.777 166.529 316.777 150.949C316.777 124.441 295.878 104.348 267.858 104.348C254.048 104.348 241.964 108.969 233.311 117.191C224.644 125.426 219.6 137.105 219.6 150.839C219.6 163.684 224.021 174.741 231.845 182.594C239.355 190.133 249.819 194.538 262.012 194.88L238.849 225.985L235.281 230.776H241.255H270.838ZM365.768 230.776H367.255L368.155 229.594L458.007 111.594L461.676 106.776H455.621H431.447H429.96L429.06 107.959L339.207 225.959L335.539 230.776H341.594H365.768ZM476.723 197.77L476.724 197.761V197.752C476.724 187.594 473.147 178.778 466.879 172.494C460.61 166.21 451.82 162.63 441.712 162.63C431.604 162.63 422.814 166.21 416.546 172.494C410.277 178.778 406.701 187.594 406.701 197.752C406.701 207.917 410.31 216.732 416.59 223.013C422.869 229.292 431.656 232.874 441.712 232.874C462.047 232.874 476.604 218.154 476.723 197.77ZM192.044 168.942C192.044 150.066 186.67 133.914 177.065 122.423C167.423 110.888 153.662 104.237 137.384 104.237C121.054 104.237 107.291 110.886 97.6609 122.425C88.0692 133.917 82.7246 150.07 82.7246 168.942C82.7246 187.76 87.6552 203.738 97.078 215.069C106.555 226.465 120.346 232.874 137.384 232.874C154.423 232.874 168.213 226.465 177.69 215.069C187.113 203.738 192.044 187.76 192.044 168.942ZM160.435 168.942C160.435 181.332 158.079 190.175 154.118 195.84C150.271 201.343 144.716 204.135 137.384 204.135C130.053 204.135 124.497 201.343 120.65 195.84C116.689 190.175 114.334 181.332 114.334 168.942C114.334 156.15 116.695 147.111 120.662 141.35C124.51 135.763 130.058 132.976 137.384 132.976C144.711 132.976 150.259 135.763 154.106 141.35C158.073 147.111 160.435 156.15 160.435 168.942ZM209.686 197.843C199.86 197.843 192.005 205.809 192.005 215.413C192.005 224.922 199.99 232.885 209.706 232.763C219.103 232.752 227.367 224.988 227.367 215.413C227.367 205.64 219.121 197.843 209.686 197.843ZM251.761 150.729C251.761 145.307 253.503 140.969 256.265 138.013C259.015 135.072 262.949 133.308 267.747 133.308C272.736 133.308 276.752 135.089 279.532 138.027C282.324 140.978 284.065 145.308 284.065 150.729C284.065 156.171 282.366 160.466 279.614 163.376C276.878 166.269 272.871 168.039 267.747 168.039C262.814 168.039 258.889 166.286 256.183 163.389C253.461 160.475 251.761 156.172 251.761 150.729ZM320.822 139.359C320.822 149.524 324.431 158.339 330.711 164.62C336.99 170.899 345.778 174.481 355.834 174.481C365.89 174.481 374.677 170.899 380.956 164.62C387.236 158.339 390.845 149.524 390.845 139.359C390.845 129.201 387.269 120.385 381 114.101C374.731 107.817 365.941 104.237 355.834 104.237C345.726 104.237 336.936 107.817 330.667 114.101C324.399 120.385 320.822 129.201 320.822 139.359ZM346.029 139.359C346.029 136.024 347.087 133.398 348.73 131.634C350.353 129.891 352.735 128.782 355.834 128.782C358.932 128.782 361.315 129.891 362.938 131.634C364.58 133.398 365.638 136.024 365.638 139.359C365.638 142.694 364.58 145.32 362.938 147.084C361.315 148.827 358.932 149.936 355.834 149.936C352.735 149.936 350.353 148.827 348.73 147.084C347.087 145.32 346.029 142.694 346.029 139.359ZM431.908 197.642C431.908 194.307 432.966 191.681 434.608 189.917C436.231 188.174 438.614 187.064 441.712 187.064C444.741 187.064 447.101 188.164 448.734 189.917C450.383 191.689 451.466 194.325 451.517 197.662C451.512 200.97 450.438 203.591 448.781 205.36C447.136 207.116 444.746 208.219 441.712 208.219C438.614 208.219 436.231 207.11 434.608 205.366C432.966 203.602 431.908 200.976 431.908 197.642Z" stroke="url(#paint16_linear_173_1874)" stroke-opacity="0.04" stroke-width="6"/>
</g>
<defs>
<radialGradient id="paint0_radial_173_1874" cx="0" cy="0" r="1" gradientUnits="userSpaceOnUse" gradientTransform="translate(292.5 204.5) rotate(90) scale(142.5 205.5)">
<stop stop-color="#EAA674"/>
<stop offset="1" stop-color="#845E41" stop-opacity="0"/>
</radialGradient>
<radialGradient id="paint1_radial_173_1874" cx="0" cy="0" r="1" gradientUnits="userSpaceOnUse" gradientTransform="translate(292.5 204.5) rotate(90) scale(142.5 205.5)">
<stop stop-color="#EAA674"/>
<stop offset="1" stop-color="#845E41" stop-opacity="0"/>
</radialGradient>
<radialGradient id="paint2_radial_173_1874" cx="0" cy="0" r="1" gradientUnits="userSpaceOnUse" gradientTransform="translate(292.5 204.5) rotate(90) scale(158.5 227.5)">
<stop stop-color="#F8744F"/>
<stop offset="1" stop-color="#F8744F" stop-opacity="0"/>
</radialGradient>
<radialGradient id="paint3_radial_173_1874" cx="0" cy="0" r="1" gradientUnits="userSpaceOnUse" gradientTransform="translate(292.5 204.5) rotate(90) scale(158.5 227.5)">
<stop stop-color="#F8744F"/>
<stop offset="1" stop-color="#F8744F" stop-opacity="0"/>
</radialGradient>
<radialGradient id="paint4_radial_173_1874" cx="0" cy="0" r="1" gradientUnits="userSpaceOnUse" gradientTransform="translate(379.314 127.826) rotate(90) scale(107.23 180.686)">
<stop stop-color="#BC3DAF"/>
<stop offset="1" stop-color="#F8744F" stop-opacity="0"/>
</radialGradient>
<radialGradient id="paint5_radial_173_1874" cx="0" cy="0" r="1" gradientUnits="userSpaceOnUse" gradientTransform="translate(379.314 127.826) rotate(90) scale(107.23 180.686)">
<stop stop-color="#BC3DAF"/>
<stop offset="1" stop-color="#F8744F" stop-opacity="0"/>
</radialGradient>
<radialGradient id="paint6_radial_173_1874" cx="0" cy="0" r="1" gradientUnits="userSpaceOnUse" gradientTransform="translate(163.5 178.5) rotate(90) scale(107.5 153.5)">
<stop stop-color="#BC3DAF"/>
<stop offset="1" stop-color="#F8744F" stop-opacity="0"/>
</radialGradient>
<radialGradient id="paint7_radial_173_1874" cx="0" cy="0" r="1" gradientUnits="userSpaceOnUse" gradientTransform="translate(100.686 178.485) rotate(90) scale(107.23 180.686)">
<stop stop-color="#BC3DAF"/>
<stop offset="1" stop-color="#F8744F" stop-opacity="0"/>
</radialGradient>
<radialGradient id="paint8_radial_173_1874" cx="0" cy="0" r="1" gradientUnits="userSpaceOnUse" gradientTransform="translate(283 169) rotate(90.2343) scale(244.502 437.697)">
<stop stop-color="#FFD2B5"/>
<stop offset="0.16" stop-color="#FE9EE3" stop-opacity="0.748452"/>
<stop offset="0.68" stop-color="#FA9858" stop-opacity="0"/>
</radialGradient>
<radialGradient id="paint9_radial_173_1874" cx="0" cy="0" r="1" gradientUnits="userSpaceOnUse" gradientTransform="translate(283 169) rotate(90.2343) scale(244.502 437.697)">
<stop stop-color="#FFD2B5"/>
<stop offset="0.16" stop-color="#FE9EE3" stop-opacity="0.748452"/>
<stop offset="0.68" stop-color="#FA9858" stop-opacity="0"/>
</radialGradient>
<radialGradient id="paint10_radial_173_1874" cx="0" cy="0" r="1" gradientUnits="userSpaceOnUse" gradientTransform="translate(283 169) rotate(90.2343) scale(244.502 437.697)">
<stop stop-color="#FFD2B5"/>
<stop offset="0.16" stop-color="#FE9EE3" stop-opacity="0.748452"/>
<stop offset="0.68" stop-color="#FA9858" stop-opacity="0"/>
</radialGradient>
<radialGradient id="paint11_radial_173_1874" cx="0" cy="0" r="1" gradientUnits="userSpaceOnUse" gradientTransform="translate(283 169) rotate(90.2343) scale(244.502 437.697)">
<stop stop-color="#FFD2B5"/>
<stop offset="0.16" stop-color="#FE9EE3" stop-opacity="0.748452"/>
<stop offset="0.68" stop-color="#FA9858" stop-opacity="0"/>
</radialGradient>
<radialGradient id="paint12_radial_173_1874" cx="0" cy="0" r="1" gradientUnits="userSpaceOnUse" gradientTransform="translate(283 169) rotate(90.2343) scale(244.502 437.697)">
<stop stop-color="#FFD2B5"/>
<stop offset="0.16" stop-color="#FE9EE3" stop-opacity="0.748452"/>
<stop offset="0.68" stop-color="#FA9858" stop-opacity="0"/>
</radialGradient>
<radialGradient id="paint13_radial_173_1874" cx="0" cy="0" r="1" gradientUnits="userSpaceOnUse" gradientTransform="translate(283 169) rotate(90.2343) scale(244.502 437.697)">
<stop stop-color="#FFD2B5"/>
<stop offset="0.16" stop-color="#FE9EE3" stop-opacity="0.748452"/>
<stop offset="0.68" stop-color="#FA9858" stop-opacity="0"/>
</radialGradient>
<radialGradient id="paint14_radial_173_1874" cx="0" cy="0" r="1" gradientUnits="userSpaceOnUse" gradientTransform="translate(283 169) rotate(90.2343) scale(244.502 437.697)">
<stop stop-color="#FFD2B5"/>
<stop offset="0.16" stop-color="#FE9EE3" stop-opacity="0.748452"/>
<stop offset="0.68" stop-color="#FA9858" stop-opacity="0"/>
</radialGradient>
<linearGradient id="paint15_linear_173_1874" x1="92.2067" y1="168.555" x2="473.724" y2="168.555" gradientUnits="userSpaceOnUse">
<stop offset="0.445" stop-color="#F4663E"/>
<stop offset="1" stop-color="#FFD276"/>
</linearGradient>
<linearGradient id="paint16_linear_173_1874" x1="92.2067" y1="168.555" x2="453" y2="107" gradientUnits="userSpaceOnUse">
<stop stop-color="#F4663E"/>
<stop offset="1" stop-color="#FFD276"/>
</linearGradient>
<clipPath id="clip0_173_1874">
<rect width="560" height="357" rx="30" fill="white"/>
</clipPath>
</defs>
</svg>
