<svg width="284" height="171" viewBox="0 0 284 171" fill="none" xmlns="http://www.w3.org/2000/svg">
<g clip-path="url(#clip0_61_15875)">
<g filter="url(#filter0_b_61_15875)">
<rect x="4.83398" y="-29" width="273" height="191" rx="11.7287" fill="url(#paint0_linear_61_15875)"/>
<rect x="5.20051" y="-28.6335" width="272.267" height="190.267" rx="11.3622" stroke="white" stroke-opacity="0.06" stroke-width="0.733046"/>
<path d="M28.2653 43.1269C25.8881 43.1269 24.3071 41.419 24.3071 38.8341C24.3071 36.2606 25.9343 34.5181 28.323 34.5181C30.2041 34.5181 31.6466 35.6375 31.9581 37.3454H30.7464C30.4349 36.2606 29.5001 35.6029 28.2884 35.6029C26.6036 35.6029 25.4957 36.8723 25.4957 38.8225C25.4957 40.7728 26.6036 42.0422 28.2884 42.0422C29.5117 42.0422 30.481 41.3844 30.7926 40.3573H31.9928C31.635 42.0191 30.1464 43.1269 28.2653 43.1269ZM34.7323 43.1385C33.5206 43.1385 32.8052 42.4576 32.8052 41.4306C32.8052 40.392 33.5783 39.7457 34.9054 39.6419L36.6826 39.5034V39.3418C36.6826 38.3955 36.1171 38.0609 35.3555 38.0609C34.4438 38.0609 33.9245 38.4648 33.9245 39.1456H32.9783C32.9783 37.9686 33.9476 37.1954 35.4017 37.1954C36.798 37.1954 37.7443 37.9339 37.7443 39.4572V43H36.8211L36.7057 42.0883C36.4172 42.7346 35.644 43.1385 34.7323 43.1385ZM35.0439 42.2961C36.071 42.2961 36.6941 41.6267 36.6941 40.5651V40.265L35.2516 40.3804C34.2938 40.4727 33.9015 40.842 33.9015 41.3959C33.9015 41.996 34.34 42.2961 35.0439 42.2961ZM38.785 41.3613H39.8236C39.8236 41.9383 40.2621 42.2845 40.9776 42.2845C41.7392 42.2845 42.1777 41.9729 42.1777 41.4536C42.1777 41.0728 41.9931 40.842 41.4045 40.692L40.4121 40.4612C39.4081 40.2189 38.935 39.7226 38.935 38.8918C38.935 37.8532 39.812 37.1954 41.0583 37.1954C42.2931 37.1954 43.1009 37.8878 43.124 38.961H42.0854C42.0623 38.3955 41.6815 38.0378 41.0237 38.0378C40.3429 38.0378 39.962 38.3378 39.962 38.8571C39.962 39.238 40.239 39.4918 40.7929 39.6303L41.7854 39.8727C42.7432 40.1035 43.2163 40.542 43.2163 41.3844C43.2163 42.4576 42.2931 43.1385 40.9545 43.1385C39.6274 43.1385 38.785 42.4345 38.785 41.3613ZM45.504 42.9885H44.4193V34.5066H45.504V38.2224C45.8618 37.6108 46.5426 37.1954 47.4197 37.1954C48.8622 37.1954 49.5546 38.107 49.5546 39.5495V43H48.4698V39.7919C48.4698 38.6494 47.9274 38.1878 47.1196 38.1878C46.0695 38.1878 45.504 38.9495 45.504 39.9188V42.9885ZM55.8577 43H54.7844V38.2686H52.3726V43H51.2878V38.2686H50.4569V37.3569H51.2878V36.4568C51.2878 35.072 52.0264 34.5066 53.0073 34.5066C53.215 34.5066 53.4573 34.5181 53.6766 34.5527V35.4875H53.1919C52.5341 35.4875 52.3726 35.8452 52.3726 36.4568V37.3569H54.7844V34.5066H55.8577V43ZM57.0776 40.1727C57.0776 38.4302 58.3239 37.2069 60.0203 37.2069C61.7051 37.2069 62.9514 38.4302 62.9514 40.1727C62.9514 41.9152 61.7051 43.1385 60.0203 43.1385C58.3239 43.1385 57.0776 41.9152 57.0776 40.1727ZM58.1739 40.1727C58.1739 41.3498 58.924 42.1691 60.0203 42.1691C61.105 42.1691 61.8667 41.3498 61.8667 40.1727C61.8667 38.9956 61.105 38.1763 60.0203 38.1763C58.924 38.1763 58.1739 38.9956 58.1739 40.1727ZM65.1047 43L63.2583 37.3569H64.3777L65.3124 40.2881C65.4394 40.7035 65.5548 41.1305 65.6586 41.6267C65.751 41.1305 65.901 40.6574 66.0279 40.2881L66.9742 37.3569H68.082L69.0168 40.2881C69.1091 40.5651 69.2937 41.2228 69.3861 41.6267C69.4784 41.1767 69.5822 40.7843 69.7438 40.2881L70.6901 37.3569H71.821L69.8938 43H68.8668L67.8859 39.9765C67.7012 39.4111 67.5858 38.9725 67.5281 38.661C67.4704 38.9379 67.3666 39.3072 67.1588 39.9881L66.1779 43H65.1047Z" fill="white"/>
<path opacity="0.5" d="M200.399 38.8341C200.399 36.2491 201.738 34.495 203.838 34.495C205.927 34.495 207.266 36.2491 207.266 38.8341C207.266 41.4306 205.985 43.15 203.838 43.15C201.68 43.15 200.399 41.4306 200.399 38.8341ZM201.519 38.8341C201.519 40.8882 202.373 42.1345 203.838 42.1345C205.304 42.1345 206.146 40.8882 206.146 38.8341C206.146 36.7569 205.304 35.5105 203.838 35.5105C202.373 35.5105 201.519 36.7569 201.519 38.8341ZM209.993 35.6721H208.239V34.6566H211.078V43H209.993V35.6721ZM215.921 40.4266V39.4572H219.441V40.4266H215.921ZM226.274 38.684H225.443V37.9339L227.809 35.6606H224.058V34.6566H229.24V35.5682L226.955 37.7493C228.374 37.9224 229.447 38.8802 229.447 40.3804C229.447 42.0653 228.178 43.1385 226.482 43.1385C224.843 43.1385 223.666 42.1345 223.666 40.4035H224.785C224.785 41.4883 225.455 42.123 226.505 42.123C227.589 42.123 228.293 41.4306 228.293 40.3573C228.293 39.3534 227.601 38.684 226.274 38.684ZM231.924 35.6721H230.17V34.6566H233.009V43H231.924V35.6721ZM239.202 43H238.094V34.6566H239.202L242.076 41.6729L244.949 34.6566H246.08V43H244.972V39.6996C244.972 38.1417 244.984 37.5762 245.041 36.9877L242.606 43H241.545L239.121 37.0107C239.179 37.4146 239.202 38.2686 239.202 39.4341V43ZM249.488 43.1385C248.277 43.1385 247.561 42.4576 247.561 41.4306C247.561 40.392 248.334 39.7457 249.661 39.6419L251.439 39.5034V39.3418C251.439 38.3955 250.873 38.0609 250.111 38.0609C249.2 38.0609 248.68 38.4648 248.68 39.1456H247.734C247.734 37.9686 248.704 37.1954 250.158 37.1954C251.554 37.1954 252.5 37.9339 252.5 39.4572V43H251.577L251.462 42.0883C251.173 42.7346 250.4 43.1385 249.488 43.1385ZM249.8 42.2961C250.827 42.2961 251.45 41.6267 251.45 40.5651V40.265L250.008 40.3804C249.05 40.4727 248.657 40.842 248.657 41.3959C248.657 41.996 249.096 42.2961 249.8 42.2961ZM253.325 45.5273V44.6387H254.052C254.571 44.6387 254.987 44.5579 255.252 43.8424L255.448 43.3L253.175 37.3569H254.317L255.956 41.9037L257.629 37.3569H258.749L256.083 44.2694C255.702 45.2388 255.137 45.6427 254.271 45.6427C253.913 45.6427 253.613 45.5965 253.325 45.5273Z" fill="white"/>
<line opacity="0.1" x1="23.834" y1="63.5" x2="258.834" y2="63.5" stroke="white"/>
<line opacity="0.1" x1="23.834" y1="89.5" x2="258.834" y2="89.5" stroke="white"/>
<line opacity="0.1" x1="23.834" y1="115.5" x2="258.834" y2="115.5" stroke="white"/>
<line opacity="0.1" x1="23.834" y1="141.5" x2="258.834" y2="141.5" stroke="white"/>
<line opacity="0.1" x1="16.834" y1="63.5" x2="20.834" y2="63.5" stroke="white"/>
<line opacity="0.1" x1="16.834" y1="89.5" x2="20.834" y2="89.5" stroke="white"/>
<line opacity="0.1" x1="16.834" y1="115.5" x2="20.834" y2="115.5" stroke="white"/>
<line opacity="0.1" x1="16.834" y1="141.5" x2="20.834" y2="141.5" stroke="white"/>
<line opacity="0.1" x1="261.834" y1="63.5" x2="265.834" y2="63.5" stroke="white"/>
<line opacity="0.1" x1="261.834" y1="89.5" x2="265.834" y2="89.5" stroke="white"/>
<line opacity="0.1" x1="261.834" y1="115.5" x2="265.834" y2="115.5" stroke="white"/>
<line opacity="0.1" x1="261.834" y1="141.5" x2="265.834" y2="141.5" stroke="white"/>
<mask id="mask0_61_15875" style="mask-type:alpha" maskUnits="userSpaceOnUse" x="1" y="14" width="278" height="227">
<rect x="1.83398" y="14" width="277" height="227" fill="url(#paint1_radial_61_15875)"/>
</mask>
<g mask="url(#mask0_61_15875)">
<path opacity="0.23" d="M40.459 94H6.83398V174H275.834V105.511L242.209 117.022H208.584H174.959L141.334 105.511L107.709 117.022L74.084 128.532L40.459 94Z" fill="url(#paint2_linear_61_15875)"/>
<path d="M7.83398 94H40.3495L74.011 129L107.672 117.333L141.334 105.667L174.995 117.333H208.657H242.318L274.834 104.5" stroke="#F4C13E" stroke-width="2" stroke-linecap="round"/>
<path opacity="0.23" d="M242.209 71H275.834V151H6.83398V82.5108L40.459 71L74.084 94.0216H107.709L141.334 82.5108L174.959 94.0216L208.584 105.532L242.209 71Z" fill="url(#paint3_linear_61_15875)"/>
<path d="M274.834 71H242.318L208.657 106L174.995 94.3333L141.334 82.6667L107.673 94.3333H74.011L40.3495 71L7.83398 81.5" stroke="#F4663E" stroke-width="2" stroke-linecap="round"/>
<circle cx="141.834" cy="83" r="3.5" fill="white" stroke="#F4663E" stroke-width="3"/>
<circle opacity="0.7" cx="141.834" cy="83" r="8.5" stroke="#F4663E"/>
<circle opacity="0.3" cx="141.834" cy="83" r="11.5" stroke="#F4663E"/>
<circle cx="74.834" cy="94" r="3.5" fill="white" stroke="#F4663E" stroke-width="3"/>
<circle opacity="0.7" cx="74.834" cy="94" r="8.5" stroke="#F4663E"/>
<circle opacity="0.3" cx="74.834" cy="94" r="11.5" stroke="#F4663E"/>
</g>
<path opacity="0.1" d="M141.334 141C141.334 141.276 141.558 141.5 141.834 141.5C142.11 141.5 142.334 141.276 142.334 141L141.334 141ZM141.834 54.6667C143.307 54.6667 144.501 53.4728 144.501 52C144.501 50.5272 143.307 49.3333 141.834 49.3333C140.361 49.3333 139.167 50.5272 139.167 52C139.167 53.4728 140.361 54.6667 141.834 54.6667ZM142.334 139.989C142.334 139.712 142.11 139.489 141.834 139.489C141.558 139.489 141.334 139.712 141.334 139.989L142.334 139.989ZM141.334 137.966C141.334 138.242 141.558 138.466 141.834 138.466C142.11 138.466 142.334 138.242 142.334 137.966L141.334 137.966ZM142.334 135.943C142.334 135.667 142.11 135.443 141.834 135.443C141.558 135.443 141.334 135.667 141.334 135.943L142.334 135.943ZM141.334 133.92C141.334 134.197 141.558 134.42 141.834 134.42C142.11 134.42 142.334 134.197 142.334 133.92L141.334 133.92ZM142.334 131.898C142.334 131.622 142.11 131.398 141.834 131.398C141.558 131.398 141.334 131.622 141.334 131.898L142.334 131.898ZM141.334 129.875C141.334 130.151 141.558 130.375 141.834 130.375C142.11 130.375 142.334 130.151 142.334 129.875L141.334 129.875ZM142.334 127.852C142.334 127.576 142.11 127.352 141.834 127.352C141.558 127.352 141.334 127.576 141.334 127.852L142.334 127.852ZM141.334 125.83C141.334 126.106 141.558 126.33 141.834 126.33C142.11 126.33 142.334 126.106 142.334 125.83L141.334 125.83ZM142.334 123.807C142.334 123.531 142.11 123.307 141.834 123.307C141.558 123.307 141.334 123.531 141.334 123.807L142.334 123.807ZM141.334 121.784C141.334 122.06 141.558 122.284 141.834 122.284C142.11 122.284 142.334 122.06 142.334 121.784L141.334 121.784ZM142.334 119.761C142.334 119.485 142.11 119.261 141.834 119.261C141.558 119.261 141.334 119.485 141.334 119.761L142.334 119.761ZM141.334 117.739C141.334 118.015 141.558 118.239 141.834 118.239C142.11 118.239 142.334 118.015 142.334 117.739L141.334 117.739ZM142.334 115.716C142.334 115.44 142.11 115.216 141.834 115.216C141.558 115.216 141.334 115.44 141.334 115.716L142.334 115.716ZM141.334 113.693C141.334 113.969 141.558 114.193 141.834 114.193C142.11 114.193 142.334 113.969 142.334 113.693L141.334 113.693ZM142.334 111.67C142.334 111.394 142.11 111.17 141.834 111.17C141.558 111.17 141.334 111.394 141.334 111.67L142.334 111.67ZM141.334 109.648C141.334 109.924 141.558 110.148 141.834 110.148C142.11 110.148 142.334 109.924 142.334 109.648L141.334 109.648ZM142.334 107.625C142.334 107.349 142.11 107.125 141.834 107.125C141.558 107.125 141.334 107.349 141.334 107.625L142.334 107.625ZM141.334 105.602C141.334 105.878 141.558 106.102 141.834 106.102C142.11 106.102 142.334 105.878 142.334 105.602L141.334 105.602ZM142.334 103.58C142.334 103.303 142.11 103.08 141.834 103.08C141.558 103.08 141.334 103.303 141.334 103.58L142.334 103.58ZM141.334 101.557C141.334 101.833 141.558 102.057 141.834 102.057C142.11 102.057 142.334 101.833 142.334 101.557L141.334 101.557ZM142.334 99.5341C142.334 99.2579 142.11 99.0341 141.834 99.0341C141.558 99.0341 141.334 99.2579 141.334 99.5341L142.334 99.5341ZM141.334 97.5114C141.334 97.7875 141.558 98.0114 141.834 98.0114C142.11 98.0114 142.334 97.7875 142.334 97.5114L141.334 97.5114ZM142.334 95.4886C142.334 95.2125 142.11 94.9886 141.834 94.9886C141.558 94.9886 141.334 95.2125 141.334 95.4886L142.334 95.4886ZM141.334 93.4659C141.334 93.742 141.558 93.9659 141.834 93.9659C142.11 93.9659 142.334 93.742 142.334 93.4659L141.334 93.4659ZM142.334 91.4432C142.334 91.167 142.11 90.9432 141.834 90.9432C141.558 90.9432 141.334 91.167 141.334 91.4432L142.334 91.4432ZM141.334 89.4204C141.334 89.6966 141.558 89.9204 141.834 89.9204C142.11 89.9204 142.334 89.6966 142.334 89.4204L141.334 89.4204ZM142.334 87.3977C142.334 87.1216 142.11 86.8977 141.834 86.8977C141.558 86.8977 141.334 87.1216 141.334 87.3977L142.334 87.3977ZM141.334 85.375C141.334 85.6511 141.558 85.875 141.834 85.875C142.11 85.875 142.334 85.6511 142.334 85.375L141.334 85.375ZM142.334 83.3523C142.334 83.0761 142.11 82.8523 141.834 82.8523C141.558 82.8523 141.334 83.0761 141.334 83.3523L142.334 83.3523ZM141.334 81.3295C141.334 81.6057 141.558 81.8295 141.834 81.8295C142.11 81.8295 142.334 81.6057 142.334 81.3295L141.334 81.3295ZM142.334 79.3068C142.334 79.0307 142.11 78.8068 141.834 78.8068C141.558 78.8068 141.334 79.0307 141.334 79.3068L142.334 79.3068ZM141.334 77.2841C141.334 77.5602 141.558 77.7841 141.834 77.7841C142.11 77.7841 142.334 77.5602 142.334 77.2841L141.334 77.2841ZM142.334 75.2614C142.334 74.9852 142.11 74.7614 141.834 74.7614C141.558 74.7614 141.334 74.9852 141.334 75.2613L142.334 75.2614ZM141.334 73.2386C141.334 73.5148 141.558 73.7386 141.834 73.7386C142.11 73.7386 142.334 73.5148 142.334 73.2386L141.334 73.2386ZM142.334 71.2159C142.334 70.9398 142.11 70.7159 141.834 70.7159C141.558 70.7159 141.334 70.9398 141.334 71.2159L142.334 71.2159ZM141.334 69.1932C141.334 69.4693 141.558 69.6932 141.834 69.6932C142.11 69.6932 142.334 69.4693 142.334 69.1932L141.334 69.1932ZM142.334 67.1704C142.334 66.8943 142.11 66.6704 141.834 66.6704C141.558 66.6704 141.334 66.8943 141.334 67.1704L142.334 67.1704ZM141.334 65.1477C141.334 65.4239 141.558 65.6477 141.834 65.6477C142.11 65.6477 142.334 65.4239 142.334 65.1477L141.334 65.1477ZM142.334 63.125C142.334 62.8488 142.11 62.625 141.834 62.625C141.558 62.625 141.334 62.8488 141.334 63.125L142.334 63.125ZM141.334 61.1023C141.334 61.3784 141.558 61.6023 141.834 61.6023C142.11 61.6023 142.334 61.3784 142.334 61.1023L141.334 61.1023ZM142.334 59.0795C142.334 58.8034 142.11 58.5795 141.834 58.5795C141.558 58.5795 141.334 58.8034 141.334 59.0795L142.334 59.0795ZM141.334 57.0568C141.334 57.3329 141.558 57.5568 141.834 57.5568C142.11 57.5568 142.334 57.3329 142.334 57.0568L141.334 57.0568ZM142.334 55.0341C142.334 54.7579 142.11 54.5341 141.834 54.5341C141.558 54.5341 141.334 54.7579 141.334 55.0341L142.334 55.0341ZM141.334 53.0113C141.334 53.2875 141.558 53.5113 141.834 53.5113C142.11 53.5113 142.334 53.2875 142.334 53.0113L141.334 53.0113ZM142.334 141L142.334 139.989L141.334 139.989L141.334 141L142.334 141ZM142.334 137.966L142.334 135.943L141.334 135.943L141.334 137.966L142.334 137.966ZM142.334 133.92L142.334 131.898L141.334 131.898L141.334 133.92L142.334 133.92ZM142.334 129.875L142.334 127.852L141.334 127.852L141.334 129.875L142.334 129.875ZM142.334 125.83L142.334 123.807L141.334 123.807L141.334 125.83L142.334 125.83ZM142.334 121.784L142.334 119.761L141.334 119.761L141.334 121.784L142.334 121.784ZM142.334 117.739L142.334 115.716L141.334 115.716L141.334 117.739L142.334 117.739ZM142.334 113.693L142.334 111.67L141.334 111.67L141.334 113.693L142.334 113.693ZM142.334 109.648L142.334 107.625L141.334 107.625L141.334 109.648L142.334 109.648ZM142.334 105.602L142.334 103.58L141.334 103.58L141.334 105.602L142.334 105.602ZM142.334 101.557L142.334 99.5341L141.334 99.5341L141.334 101.557L142.334 101.557ZM142.334 97.5114L142.334 95.4886L141.334 95.4886L141.334 97.5114L142.334 97.5114ZM142.334 93.4659L142.334 91.4432L141.334 91.4432L141.334 93.4659L142.334 93.4659ZM142.334 89.4204L142.334 87.3977L141.334 87.3977L141.334 89.4204L142.334 89.4204ZM142.334 85.375L142.334 83.3523L141.334 83.3523L141.334 85.375L142.334 85.375ZM142.334 81.3295L142.334 79.3068L141.334 79.3068L141.334 81.3295L142.334 81.3295ZM142.334 77.2841L142.334 75.2614L141.334 75.2613L141.334 77.2841L142.334 77.2841ZM142.334 73.2386L142.334 71.2159L141.334 71.2159L141.334 73.2386L142.334 73.2386ZM142.334 69.1932L142.334 67.1704L141.334 67.1704L141.334 69.1932L142.334 69.1932ZM142.334 65.1477L142.334 63.125L141.334 63.125L141.334 65.1477L142.334 65.1477ZM142.334 61.1023L142.334 59.0795L141.334 59.0795L141.334 61.1023L142.334 61.1023ZM142.334 57.0568L142.334 55.0341L141.334 55.0341L141.334 57.0568L142.334 57.0568ZM142.334 53.0113L142.334 52L141.334 52L141.334 53.0113L142.334 53.0113Z" fill="white"/>
</g>
</g>
<defs>
<filter id="filter0_b_61_15875" x="-14.9583" y="-48.7922" width="312.584" height="242.584" filterUnits="userSpaceOnUse" color-interpolation-filters="sRGB">
<feFlood flood-opacity="0" result="BackgroundImageFix"/>
<feGaussianBlur in="BackgroundImageFix" stdDeviation="9.89612"/>
<feComposite in2="SourceAlpha" operator="in" result="effect1_backgroundBlur_61_15875"/>
<feBlend mode="normal" in="SourceGraphic" in2="effect1_backgroundBlur_61_15875" result="shape"/>
</filter>
<linearGradient id="paint0_linear_61_15875" x1="141.334" y1="-29" x2="141.334" y2="162" gradientUnits="userSpaceOnUse">
<stop stop-color="#292A30" stop-opacity="0.11"/>
<stop offset="1" stop-color="#292A30"/>
</linearGradient>
<radialGradient id="paint1_radial_61_15875" cx="0" cy="0" r="1" gradientUnits="userSpaceOnUse" gradientTransform="translate(140.928 90.4632) rotate(90) scale(172.042 209.937)">
<stop offset="0.191193" stop-color="#D9D9D9"/>
<stop offset="0.661793" stop-color="#737373" stop-opacity="0"/>
</radialGradient>
<linearGradient id="paint2_linear_61_15875" x1="140.762" y1="102.633" x2="140.762" y2="174" gradientUnits="userSpaceOnUse">
<stop stop-color="#F4C13E"/>
<stop offset="0.117896" stop-color="#F4C13E" stop-opacity="0.991615"/>
<stop offset="0.213837" stop-color="#F4C13E" stop-opacity="0.967585"/>
<stop offset="0.2912" stop-color="#F4C13E" stop-opacity="0.9296"/>
<stop offset="0.353363" stop-color="#F4C13E" stop-opacity="0.879348"/>
<stop offset="0.403704" stop-color="#F4C13E" stop-opacity="0.818519"/>
<stop offset="0.4456" stop-color="#F4C13E" stop-opacity="0.7488"/>
<stop offset="0.48243" stop-color="#F4C13E" stop-opacity="0.671881"/>
<stop offset="0.51757" stop-color="#F4C13E" stop-opacity="0.589452"/>
<stop offset="0.5544" stop-color="#F4C13E" stop-opacity="0.5032"/>
<stop offset="0.596296" stop-color="#F4C13E" stop-opacity="0.414815"/>
<stop offset="0.646637" stop-color="#F4C13E" stop-opacity="0.325985"/>
<stop offset="0.7088" stop-color="#F4C13E" stop-opacity="0.2384"/>
<stop offset="0.786163" stop-color="#F4C13E" stop-opacity="0.153748"/>
<stop offset="0.882104" stop-color="#F4C13E" stop-opacity="0.0737185"/>
<stop offset="1" stop-color="#F4C13E" stop-opacity="0"/>
</linearGradient>
<linearGradient id="paint3_linear_61_15875" x1="141.906" y1="79.6331" x2="141.906" y2="151" gradientUnits="userSpaceOnUse">
<stop stop-color="#F4663E"/>
<stop offset="0.117896" stop-color="#F4663E" stop-opacity="0.991615"/>
<stop offset="0.213837" stop-color="#F4663E" stop-opacity="0.967585"/>
<stop offset="0.2912" stop-color="#F4663E" stop-opacity="0.9296"/>
<stop offset="0.353363" stop-color="#F4663E" stop-opacity="0.879348"/>
<stop offset="0.403704" stop-color="#F4663E" stop-opacity="0.818519"/>
<stop offset="0.4456" stop-color="#F4663E" stop-opacity="0.7488"/>
<stop offset="0.48243" stop-color="#F4663E" stop-opacity="0.671881"/>
<stop offset="0.51757" stop-color="#F4663E" stop-opacity="0.589452"/>
<stop offset="0.5544" stop-color="#F4663E" stop-opacity="0.5032"/>
<stop offset="0.596296" stop-color="#F4663E" stop-opacity="0.414815"/>
<stop offset="0.646637" stop-color="#F4663E" stop-opacity="0.325985"/>
<stop offset="0.7088" stop-color="#F4663E" stop-opacity="0.2384"/>
<stop offset="0.786163" stop-color="#F4663E" stop-opacity="0.153748"/>
<stop offset="0.882104" stop-color="#F4663E" stop-opacity="0.0737185"/>
<stop offset="1" stop-color="#F4663E" stop-opacity="0"/>
</linearGradient>
<clipPath id="clip0_61_15875">
<rect width="284" height="171" rx="7.97205" fill="white"/>
</clipPath>
</defs>
</svg>
