<svg width="76" height="32" viewBox="0 0 76 32" fill="none" xmlns="http://www.w3.org/2000/svg">
<rect x="1.78125" y="1.78125" width="28.4375" height="28.4375" rx="14.2188" fill="#FFDC79"/>
<rect x="1.78125" y="1.78125" width="28.4375" height="28.4375" rx="14.2188" stroke="#101115" stroke-width="2.4375"/>
<path fill-rule="evenodd" clip-rule="evenodd" d="M12.1552 6.62695C14.6805 6.62695 17.2057 6.62695 19.7309 6.62695C19.7309 6.72933 19.7309 6.8317 19.7309 6.93408C19.8333 6.93408 19.9357 6.93408 20.038 6.93408C20.038 7.03645 20.038 7.13883 20.038 7.2412C20.1404 7.2412 20.2428 7.2412 20.3452 7.2412C20.3452 7.34358 20.3452 7.44595 20.3452 7.54833C20.4475 7.54833 20.5499 7.54833 20.6523 7.54833C20.6523 7.68482 20.6523 7.82133 20.6523 7.95783C20.7888 7.95783 20.9253 7.95783 21.0618 7.95783C21.0618 8.0602 21.0618 8.16258 21.0618 8.26495C21.1642 8.26495 21.2665 8.26495 21.3689 8.26495C21.3689 8.36733 21.3689 8.4697 21.3689 8.57208C21.4713 8.57208 21.5737 8.57208 21.676 8.57208C21.676 8.67445 21.676 8.77683 21.676 8.8792C21.7784 8.8792 21.8808 8.8792 21.9832 8.8792C21.9832 8.98158 21.9832 9.08395 21.9832 9.18633C22.0855 9.18633 22.1879 9.18633 22.2903 9.18633C22.2903 9.32282 22.2903 9.45933 22.2903 9.59583C22.4268 9.59583 22.5633 9.59583 22.6998 9.59583C22.6998 9.6982 22.6998 9.80058 22.6998 9.90295C22.8022 9.90295 22.9045 9.90295 23.0069 9.90295C23.0069 10.0053 23.0069 10.1077 23.0069 10.2101C23.1093 10.2101 23.2117 10.2101 23.314 10.2101C23.314 10.3125 23.314 10.4148 23.314 10.5172C23.4164 10.5172 23.5188 10.5172 23.6212 10.5172C23.6212 10.6196 23.6212 10.722 23.6212 10.8243C23.7235 10.8243 23.8259 10.8243 23.9283 10.8243C23.9283 10.9608 23.9283 11.0973 23.9283 11.2338C24.0648 11.2338 24.2013 11.2338 24.3378 11.2338C24.3378 11.3362 24.3378 11.4386 24.3378 11.541C24.4402 11.541 24.5425 11.541 24.6449 11.541C24.6449 11.6433 24.6449 11.7457 24.6449 11.848C24.7473 11.848 24.8497 11.848 24.952 11.848C24.952 11.9504 24.952 12.0528 24.952 12.1552C25.0544 12.1552 25.1568 12.1552 25.2592 12.1552C25.2592 14.6805 25.2592 17.2057 25.2592 19.7309C25.1568 19.7309 25.0544 19.7309 24.952 19.7309C24.952 19.8333 24.952 19.9357 24.952 20.038C24.8497 20.038 24.7473 20.038 24.6449 20.038C24.6449 20.1404 24.6449 20.2428 24.6449 20.3452C24.5425 20.3452 24.4402 20.3452 24.3378 20.3452C24.3378 20.4475 24.3378 20.5499 24.3378 20.6523C24.2013 20.6523 24.0648 20.6523 23.9283 20.6523C23.9283 20.7888 23.9283 20.9253 23.9283 21.0618C23.8259 21.0618 23.7235 21.0618 23.6212 21.0618C23.6212 21.1642 23.6212 21.2665 23.6212 21.3689C23.5188 21.3689 23.4164 21.3689 23.314 21.3689C23.314 21.4713 23.314 21.5737 23.314 21.676C23.2117 21.676 23.1093 21.676 23.0069 21.676C23.0069 21.7784 23.0069 21.8808 23.0069 21.9832C22.9045 21.9832 22.8022 21.9832 22.6998 21.9832C22.6998 22.0855 22.6998 22.1879 22.6998 22.2903C22.5633 22.2903 22.4268 22.2903 22.2903 22.2903C22.2903 22.4268 22.2903 22.5633 22.2903 22.6998C22.1879 22.6998 22.0855 22.6998 21.9832 22.6998C21.9832 22.8022 21.9832 22.9045 21.9832 23.0069C21.8808 23.0069 21.7784 23.0069 21.676 23.0069C21.676 23.1093 21.676 23.2117 21.676 23.314C21.5737 23.314 21.4713 23.314 21.3689 23.314C21.3689 23.4164 21.3689 23.5188 21.3689 23.6212C21.2665 23.6212 21.1642 23.6212 21.0618 23.6212C21.0618 23.7235 21.0618 23.8259 21.0618 23.9283C20.9253 23.9283 20.7888 23.9283 20.6523 23.9283C20.6523 24.0648 20.6523 24.2013 20.6523 24.3378C20.5499 24.3378 20.4475 24.3378 20.3452 24.3378C20.3452 24.4402 20.3452 24.5425 20.3452 24.6449C20.2428 24.6449 20.1404 24.6449 20.038 24.6449C20.038 24.7473 20.038 24.8497 20.038 24.952C19.9357 24.952 19.8333 24.952 19.7309 24.952C19.7309 25.0544 19.7309 25.1568 19.7309 25.2592C17.2057 25.2592 14.6805 25.2592 12.1552 25.2592C12.1552 25.1568 12.1552 25.0544 12.1552 24.952C12.0528 24.952 11.9504 24.952 11.848 24.952C11.848 24.8497 11.848 24.7473 11.848 24.6449C11.7457 24.6449 11.6433 24.6449 11.541 24.6449C11.541 24.5425 11.541 24.4402 11.541 24.3378C11.4386 24.3378 11.3362 24.3378 11.2338 24.3378C11.2338 24.2013 11.2338 24.0648 11.2338 23.9283C11.0973 23.9283 10.9608 23.9283 10.8243 23.9283C10.8243 23.8259 10.8243 23.7235 10.8243 23.6212C10.722 23.6212 10.6196 23.6212 10.5172 23.6212C10.5172 23.5188 10.5172 23.4164 10.5172 23.314C10.4148 23.314 10.3125 23.314 10.2101 23.314C10.2101 23.2117 10.2101 23.1093 10.2101 23.0069C10.1077 23.0069 10.0053 23.0069 9.90295 23.0069C9.90295 22.9045 9.90295 22.8022 9.90295 22.6998C9.80058 22.6998 9.6982 22.6998 9.59583 22.6998C9.59583 22.5633 9.59583 22.4268 9.59583 22.2903C9.45933 22.2903 9.32282 22.2903 9.18633 22.2903C9.18633 22.1879 9.18633 22.0855 9.18633 21.9832C9.08395 21.9832 8.98158 21.9832 8.8792 21.9832C8.8792 21.8808 8.8792 21.7784 8.8792 21.676C8.77683 21.676 8.67445 21.676 8.57208 21.676C8.57208 21.5737 8.57208 21.4713 8.57208 21.3689C8.4697 21.3689 8.36733 21.3689 8.26495 21.3689C8.26495 21.2665 8.26495 21.1642 8.26495 21.0618C8.16258 21.0618 8.0602 21.0618 7.95783 21.0618C7.95783 20.9253 7.95783 20.7888 7.95783 20.6523C7.82133 20.6523 7.68482 20.6523 7.54833 20.6523C7.54833 20.5499 7.54833 20.4475 7.54833 20.3452C7.44595 20.3452 7.34358 20.3452 7.2412 20.3452C7.2412 20.2428 7.2412 20.1404 7.2412 20.038C7.13883 20.038 7.03645 20.038 6.93408 20.038C6.93408 19.9357 6.93408 19.8333 6.93408 19.7309C6.8317 19.7309 6.72933 19.7309 6.62695 19.7309C6.62695 17.2057 6.62695 14.6805 6.62695 12.1552C6.72933 12.1552 6.8317 12.1552 6.93408 12.1552C6.93408 12.0528 6.93408 11.9504 6.93408 11.848C7.03645 11.848 7.13883 11.848 7.2412 11.848C7.2412 11.7457 7.2412 11.6433 7.2412 11.541C7.34358 11.541 7.44595 11.541 7.54833 11.541C7.54833 11.4386 7.54833 11.3362 7.54833 11.2338C7.68482 11.2338 7.82133 11.2338 7.95783 11.2338C7.95783 11.0973 7.95783 10.9608 7.95783 10.8243C8.0602 10.8243 8.16258 10.8243 8.26495 10.8243C8.26495 10.722 8.26495 10.6196 8.26495 10.5172C8.36733 10.5172 8.4697 10.5172 8.57208 10.5172C8.57208 10.4148 8.57208 10.3125 8.57208 10.2101C8.67445 10.2101 8.77683 10.2101 8.8792 10.2101C8.8792 10.1077 8.8792 10.0053 8.8792 9.90295C8.98158 9.90295 9.08395 9.90295 9.18633 9.90295C9.18633 9.80058 9.18633 9.6982 9.18633 9.59583C9.32282 9.59583 9.45933 9.59583 9.59583 9.59583C9.59583 9.45933 9.59583 9.32282 9.59583 9.18633C9.6982 9.18633 9.80058 9.18633 9.90295 9.18633C9.90295 9.08395 9.90295 8.98158 9.90295 8.8792C10.0053 8.8792 10.1077 8.8792 10.2101 8.8792C10.2101 8.77683 10.2101 8.67445 10.2101 8.57208C10.3125 8.57208 10.4148 8.57208 10.5172 8.57208C10.5172 8.4697 10.5172 8.36733 10.5172 8.26495C10.6196 8.26495 10.722 8.26495 10.8243 8.26495C10.8243 8.16258 10.8243 8.0602 10.8243 7.95783C10.9608 7.95783 11.0973 7.95783 11.2338 7.95783C11.2338 7.82133 11.2338 7.68482 11.2338 7.54833C11.3362 7.54833 11.4386 7.54833 11.541 7.54833C11.541 7.44595 11.541 7.34358 11.541 7.2412C11.6433 7.2412 11.7457 7.2412 11.848 7.2412C11.848 7.13883 11.848 7.03645 11.848 6.93408C11.9504 6.93408 12.0528 6.93408 12.1552 6.93408C12.1552 6.8317 12.1552 6.72933 12.1552 6.62695Z" fill="#481305"/>
<path fill-rule="evenodd" clip-rule="evenodd" d="M19.4239 7.54809C19.2875 7.54809 19.1509 7.54809 19.0144 7.54809C19.0144 7.68459 19.0144 7.82109 19.0144 7.95759C18.8097 7.95759 18.6049 7.95759 18.4002 7.95759C16.7622 7.95759 15.1242 7.95759 13.4862 7.95759C13.2814 7.95759 13.0767 7.95759 12.8719 7.95759C12.8719 8.05997 12.8719 8.16234 12.8719 8.26472C12.7355 8.26472 12.599 8.26472 12.4624 8.26472C12.4624 8.36709 12.4624 8.46947 12.4624 8.57184C12.3601 8.57184 12.2577 8.57184 12.1553 8.57184C12.1553 8.67422 12.1553 8.77659 12.1553 8.87897C12.0529 8.87897 11.9506 8.87897 11.8482 8.87897C11.8482 8.98134 11.8482 9.08372 11.8482 9.18609C11.7458 9.18609 11.6434 9.18609 11.5411 9.18609C11.5411 9.32259 11.5411 9.45909 11.5411 9.59559C11.4387 9.59559 11.3363 9.59559 11.234 9.59559C11.234 9.69797 11.234 9.80034 11.234 9.90272C11.0975 9.90272 10.961 9.90272 10.8245 9.90272C10.8245 10.0051 10.8245 10.1075 10.8245 10.2098C10.7221 10.2098 10.6197 10.2098 10.5173 10.2098C10.5173 10.3122 10.5173 10.4146 10.5173 10.517C10.415 10.517 10.3126 10.517 10.2102 10.517C10.2102 10.6193 10.2102 10.7217 10.2102 10.8241C10.1078 10.8241 10.0055 10.8241 9.90308 10.8241C9.90308 10.9606 9.90308 11.0971 9.90308 11.2336C9.80071 11.2336 9.69833 11.2336 9.59596 11.2336C9.59596 11.336 9.59596 11.4383 9.59596 11.5407C9.45946 11.5407 9.32295 11.5407 9.18646 11.5407C9.18646 11.6431 9.18646 11.7455 9.18646 11.8478C9.08408 11.8478 8.98171 11.8478 8.87933 11.8478C8.87933 11.9502 8.87933 12.0526 8.87933 12.155C8.77696 12.155 8.67458 12.155 8.57221 12.155C8.57221 12.2573 8.57221 12.3597 8.57221 12.4621C8.46983 12.4621 8.36746 12.4621 8.26508 12.4621C8.26508 12.5986 8.26508 12.7351 8.26508 12.8716C8.16271 12.8716 8.06033 12.8716 7.95796 12.8716C7.95796 12.974 7.95796 13.0763 7.95796 13.1787C7.82146 13.1787 7.68495 13.1787 7.54846 13.1787C7.54846 13.0763 7.54846 12.974 7.54846 12.8716C7.44608 12.8716 7.34371 12.8716 7.24133 12.8716C7.24133 12.7351 7.24133 12.5986 7.24133 12.4621C7.34371 12.4621 7.44608 12.4621 7.54846 12.4621C7.54846 12.3597 7.54846 12.2573 7.54846 12.155C7.68495 12.155 7.82146 12.155 7.95796 12.155C7.95796 12.0526 7.95796 11.9502 7.95796 11.8478C8.06033 11.8478 8.16271 11.8478 8.26508 11.8478C8.26508 11.7455 8.26508 11.6431 8.26508 11.5407C8.36746 11.5407 8.46983 11.5407 8.57221 11.5407C8.57221 11.4383 8.57221 11.336 8.57221 11.2336C8.67458 11.2336 8.77696 11.2336 8.87933 11.2336C8.87933 11.0971 8.87933 10.9606 8.87933 10.8241C8.98171 10.8241 9.08408 10.8241 9.18646 10.8241C9.18646 10.7217 9.18646 10.6193 9.18646 10.517C9.32295 10.517 9.45946 10.517 9.59596 10.517C9.59596 10.4146 9.59596 10.3122 9.59596 10.2098C9.69833 10.2098 9.80071 10.2098 9.90308 10.2098C9.90308 10.1075 9.90308 10.0051 9.90308 9.90272C10.0055 9.90272 10.1078 9.90272 10.2102 9.90272C10.2102 9.80034 10.2102 9.69797 10.2102 9.59559C10.3126 9.59559 10.415 9.59559 10.5173 9.59559C10.5173 9.45909 10.5173 9.32259 10.5173 9.18609C10.6197 9.18609 10.7221 9.18609 10.8245 9.18609C10.8245 9.08372 10.8245 8.98134 10.8245 8.87897C10.961 8.87897 11.0975 8.87897 11.234 8.87897C11.234 8.77659 11.234 8.67422 11.234 8.57184C11.3363 8.57184 11.4387 8.57184 11.5411 8.57184C11.5411 8.46947 11.5411 8.36709 11.5411 8.26472C11.6434 8.26472 11.7458 8.26472 11.8482 8.26472C11.8482 8.16234 11.8482 8.05997 11.8482 7.95759C11.9506 7.95759 12.0529 7.95759 12.1553 7.95759C12.1553 7.82109 12.1553 7.68459 12.1553 7.54809C12.2577 7.54809 12.3601 7.54809 12.4624 7.54809C12.4624 7.44572 12.4624 7.34334 12.4624 7.24097C14.783 7.24097 17.1034 7.24097 19.4239 7.24097C19.4239 7.34334 19.4239 7.44572 19.4239 7.54809Z" fill="#FFE384"/>
<path fill-rule="evenodd" clip-rule="evenodd" d="M19.4238 7.54858C19.5262 7.54858 19.6285 7.54858 19.7309 7.54858C19.7309 7.68508 19.7309 7.82158 19.7309 7.95808C19.8333 7.95808 19.9357 7.95808 20.038 7.95808C20.038 8.06046 20.038 8.16283 20.038 8.26521C20.1404 8.26521 20.2428 8.26521 20.3452 8.26521C20.3452 8.36758 20.3452 8.46996 20.3452 8.57233C20.4475 8.57233 20.5499 8.57233 20.6523 8.57233C20.6523 8.67471 20.6523 8.77708 20.6523 8.87946C20.7887 8.87946 20.9253 8.87946 21.0618 8.87946C21.0618 8.98183 21.0618 9.08421 21.0618 9.18658C21.1642 9.18658 21.2665 9.18658 21.3689 9.18658C21.3689 9.32308 21.3689 9.45958 21.3689 9.59608C21.4713 9.59608 21.5737 9.59608 21.676 9.59608C21.676 9.69846 21.676 9.80083 21.676 9.90321C21.7784 9.90321 21.8808 9.90321 21.9832 9.90321C21.9832 10.0056 21.9832 10.108 21.9832 10.2103C22.0855 10.2103 22.1879 10.2103 22.2903 10.2103C22.2903 10.3127 22.2903 10.4151 22.2903 10.5175C22.4267 10.5175 22.5633 10.5175 22.6998 10.5175C22.6998 10.6198 22.6998 10.7222 22.6998 10.8246C22.8022 10.8246 22.9045 10.8246 23.0069 10.8246C23.0069 10.9611 23.0069 11.0976 23.0069 11.2341C23.1093 11.2341 23.2117 11.2341 23.314 11.2341C23.314 11.3365 23.314 11.4388 23.314 11.5412C23.4164 11.5412 23.5188 11.5412 23.6212 11.5412C23.6212 11.6436 23.6212 11.746 23.6212 11.8483C23.7235 11.8483 23.8259 11.8483 23.9283 11.8483C23.9283 11.9507 23.9283 12.0531 23.9283 12.1555C24.0647 12.1555 24.2013 12.1555 24.3378 12.1555C24.3378 12.2578 24.3378 12.3602 24.3378 12.4626C24.4402 12.4626 24.5425 12.4626 24.6449 12.4626C24.6449 12.5991 24.6449 12.7356 24.6449 12.8721C24.5425 12.8721 24.4402 12.8721 24.3378 12.8721C24.099 12.8721 23.86 12.8721 23.6212 12.8721C23.6212 12.7356 23.6212 12.5991 23.6212 12.4626C23.5188 12.4626 23.4164 12.4626 23.314 12.4626C23.314 12.3602 23.314 12.2578 23.314 12.1555C23.2117 12.1555 23.1093 12.1555 23.0069 12.1555C23.0069 12.0531 23.0069 11.9507 23.0069 11.8483C22.9045 11.8483 22.8022 11.8483 22.6998 11.8483C22.6998 11.746 22.6998 11.6436 22.6998 11.5412C22.5633 11.5412 22.4267 11.5412 22.2903 11.5412C22.2903 11.4388 22.2903 11.3365 22.2903 11.2341C22.1879 11.2341 22.0855 11.2341 21.9832 11.2341C21.9832 11.0976 21.9832 10.9611 21.9832 10.8246C21.8808 10.8246 21.7784 10.8246 21.676 10.8246C21.676 10.7222 21.676 10.6198 21.676 10.5175C21.5737 10.5175 21.4713 10.5175 21.3689 10.5175C21.3689 10.4151 21.3689 10.3127 21.3689 10.2103C21.2665 10.2103 21.1642 10.2103 21.0618 10.2103C21.0618 10.108 21.0618 10.0056 21.0618 9.90321C20.9253 9.90321 20.7887 9.90321 20.6523 9.90321C20.6523 9.80083 20.6523 9.69846 20.6523 9.59608C20.5499 9.59608 20.4475 9.59608 20.3452 9.59608C20.3452 9.45958 20.3452 9.32308 20.3452 9.18658C20.2428 9.18658 20.1404 9.18658 20.038 9.18658C20.038 9.08421 20.038 8.98183 20.038 8.87946C19.9357 8.87946 19.8333 8.87946 19.7309 8.87946C19.7309 8.77708 19.7309 8.67471 19.7309 8.57233C19.6285 8.57233 19.5262 8.57233 19.4238 8.57233C19.4238 8.46996 19.4238 8.36758 19.4238 8.26521C19.2873 8.26521 19.1507 8.26521 19.0143 8.26521C19.0143 8.16283 19.0143 8.06046 19.0143 7.95808C19.0143 7.82158 19.0143 7.68508 19.0143 7.54858C19.1507 7.54858 19.2873 7.54858 19.4238 7.54858Z" fill="#FEC95A"/>
<path fill-rule="evenodd" clip-rule="evenodd" d="M13.4861 7.95776C13.4861 8.06014 13.4861 8.16251 13.4861 8.26489C13.2813 8.26489 13.0766 8.26489 12.8718 8.26489C12.8718 8.16251 12.8718 8.06014 12.8718 7.95776C13.0766 7.95776 13.2813 7.95776 13.4861 7.95776Z" fill="#FEFFF8"/>
<path fill-rule="evenodd" clip-rule="evenodd" d="M13.4862 7.95776C15.1242 7.95776 16.7622 7.95776 18.4002 7.95776C18.4002 8.06014 18.4002 8.16251 18.4002 8.26489C16.7622 8.26489 15.1242 8.26489 13.4862 8.26489C13.4862 8.16251 13.4862 8.06014 13.4862 7.95776Z" fill="#FEFFCA"/>
<path fill-rule="evenodd" clip-rule="evenodd" d="M18.4 7.95776C18.6048 7.95776 18.8095 7.95776 19.0143 7.95776C19.0143 8.06014 19.0143 8.16251 19.0143 8.26489C18.8095 8.26489 18.6048 8.26489 18.4 8.26489C18.4 8.16251 18.4 8.06014 18.4 7.95776Z" fill="#FEFFF8"/>
<path fill-rule="evenodd" clip-rule="evenodd" d="M12.8719 8.26514C13.0766 8.26514 13.2814 8.26514 13.4861 8.26514C15.1241 8.26514 16.7621 8.26514 18.4001 8.26514C18.6049 8.26514 18.8096 8.26514 19.0144 8.26514C19.1509 8.26514 19.2874 8.26514 19.4239 8.26514C19.4239 8.36751 19.4239 8.46989 19.4239 8.57226C19.5262 8.57226 19.6286 8.57226 19.731 8.57226C19.731 8.67464 19.731 8.77701 19.731 8.87939C19.8334 8.87939 19.9357 8.87939 20.0381 8.87939C20.0381 8.98176 20.0381 9.08414 20.0381 9.18651C20.1405 9.18651 20.2429 9.18651 20.3452 9.18651C20.3452 9.32301 20.3452 9.45951 20.3452 9.59601C20.4476 9.59601 20.55 9.59601 20.6524 9.59601C20.6524 9.69839 20.6524 9.80076 20.6524 9.90314C20.7889 9.90314 20.9254 9.90314 21.0619 9.90314C21.0619 10.0055 21.0619 10.1079 21.0619 10.2103C21.1642 10.2103 21.2666 10.2103 21.369 10.2103C21.369 10.3126 21.369 10.415 21.369 10.5174C21.4714 10.5174 21.5737 10.5174 21.6761 10.5174C21.6761 10.6198 21.6761 10.7221 21.6761 10.8245C21.7785 10.8245 21.8809 10.8245 21.9832 10.8245C21.9832 10.961 21.9832 11.0975 21.9832 11.234C22.0856 11.234 22.188 11.234 22.2904 11.234C22.2904 11.3364 22.2904 11.4388 22.2904 11.5411C22.4269 11.5411 22.5634 11.5411 22.6999 11.5411C22.6999 11.6435 22.6999 11.7459 22.6999 11.8483C22.8022 11.8483 22.9046 11.8483 23.007 11.8483C23.007 11.9507 23.007 12.053 23.007 12.1554C23.1094 12.1554 23.2117 12.1554 23.3141 12.1554C23.3141 12.2578 23.3141 12.3602 23.3141 12.4625C23.4165 12.4625 23.5189 12.4625 23.6212 12.4625C23.6212 12.599 23.6212 12.7355 23.6212 12.872C23.8601 12.872 24.099 12.872 24.3379 12.872C24.3379 12.9744 24.3379 13.0768 24.3379 13.1792C24.2014 13.1792 24.0649 13.1792 23.9284 13.1792C23.9284 14.1688 23.9284 15.1584 23.9284 16.148C23.826 16.148 23.7236 16.148 23.6212 16.148C23.6212 15.9091 23.6212 15.6702 23.6212 15.4314C23.5189 15.4314 23.4165 15.4314 23.3141 15.4314C23.3141 15.2267 23.3141 15.0219 23.3141 14.8172C23.2117 14.8172 23.1094 14.8172 23.007 14.8172C23.007 14.1688 23.007 13.5204 23.007 12.872C22.9046 12.872 22.8022 12.872 22.6999 12.872C22.6999 12.7355 22.6999 12.599 22.6999 12.4625C22.5634 12.4625 22.4269 12.4625 22.2904 12.4625C22.2904 12.3602 22.2904 12.2578 22.2904 12.1554C22.188 12.1554 22.0856 12.1554 21.9832 12.1554C21.9832 12.053 21.9832 11.9507 21.9832 11.8483C21.8809 11.8483 21.7785 11.8483 21.6761 11.8483C21.6761 11.7459 21.6761 11.6435 21.6761 11.5411C21.3349 11.5411 20.9936 11.5411 20.6524 11.5411C20.6524 11.4388 20.6524 11.3364 20.6524 11.234C20.55 11.234 20.4476 11.234 20.3452 11.234C20.3452 10.8928 20.3452 10.5515 20.3452 10.2103C20.2429 10.2103 20.1405 10.2103 20.0381 10.2103C20.0381 10.1079 20.0381 10.0055 20.0381 9.90314C19.9357 9.90314 19.8334 9.90314 19.731 9.90314C19.731 9.80076 19.731 9.69839 19.731 9.59601C19.6286 9.59601 19.5262 9.59601 19.4239 9.59601C19.4239 9.45951 19.4239 9.32301 19.4239 9.18651C19.2874 9.18651 19.1509 9.18651 19.0144 9.18651C19.0144 9.08414 19.0144 8.98176 19.0144 8.87939C16.9669 8.87939 14.9194 8.87939 12.8719 8.87939C12.8719 8.98176 12.8719 9.08414 12.8719 9.18651C12.7354 9.18651 12.5989 9.18651 12.4624 9.18651C12.4624 9.32301 12.4624 9.45951 12.4624 9.59601C12.36 9.59601 12.2576 9.59601 12.1552 9.59601C12.1552 9.69839 12.1552 9.80076 12.1552 9.90314C12.0529 9.90314 11.9505 9.90314 11.8481 9.90314C11.8481 10.0055 11.8481 10.1079 11.8481 10.2103C11.7457 10.2103 11.6434 10.2103 11.541 10.2103C11.541 10.5515 11.541 10.8928 11.541 11.234C11.4386 11.234 11.3363 11.234 11.2339 11.234C11.2339 11.3364 11.2339 11.4388 11.2339 11.5411C10.8926 11.5411 10.5514 11.5411 10.2101 11.5411C10.2101 11.6435 10.2101 11.7459 10.2101 11.8483C10.1078 11.8483 10.0054 11.8483 9.90301 11.8483C9.90301 11.9507 9.90301 12.053 9.90301 12.1554C9.80064 12.1554 9.69826 12.1554 9.59589 12.1554C9.59589 12.2578 9.59589 12.3602 9.59589 12.4625C9.45939 12.4625 9.32288 12.4625 9.18639 12.4625C9.18639 12.599 9.18639 12.7355 9.18639 12.872C9.08401 12.872 8.98164 12.872 8.87926 12.872C8.87926 14.9195 8.87926 16.967 8.87926 19.0145C8.98164 19.0145 9.08401 19.0145 9.18639 19.0145C9.18639 19.151 9.18639 19.2876 9.18639 19.424C9.32288 19.424 9.45939 19.424 9.59589 19.424C9.59589 19.5264 9.59589 19.6288 9.59589 19.7312C9.69826 19.7312 9.80064 19.7312 9.90301 19.7312C9.90301 19.8335 9.90301 19.9359 9.90301 20.0383C10.0054 20.0383 10.1078 20.0383 10.2101 20.0383C10.2101 20.1407 10.2101 20.243 10.2101 20.3454C10.2101 20.4478 10.2101 20.5502 10.2101 20.6525C10.3125 20.6525 10.4149 20.6525 10.5173 20.6525C10.5173 20.8914 10.5173 21.1303 10.5173 21.3692C10.4149 21.3692 10.3125 21.3692 10.2101 21.3692C10.2101 21.2668 10.2101 21.1644 10.2101 21.062C10.1078 21.062 10.0054 21.062 9.90301 21.062C9.90301 20.9256 9.90301 20.789 9.90301 20.6525C9.80064 20.6525 9.69826 20.6525 9.59589 20.6525C9.59589 20.5502 9.59589 20.4478 9.59589 20.3454C9.45939 20.3454 9.32288 20.3454 9.18639 20.3454C9.18639 20.243 9.18639 20.1407 9.18639 20.0383C9.08401 20.0383 8.98164 20.0383 8.87926 20.0383C8.87926 19.9359 8.87926 19.8335 8.87926 19.7312C8.77689 19.7312 8.67451 19.7312 8.57214 19.7312C8.57214 19.6288 8.57214 19.5264 8.57214 19.424C8.46976 19.424 8.36739 19.424 8.26501 19.424C8.26501 19.2876 8.26501 19.151 8.26501 19.0145C8.26501 16.967 8.26501 14.9195 8.26501 12.872C8.26501 12.7355 8.26501 12.599 8.26501 12.4625C8.36739 12.4625 8.46976 12.4625 8.57214 12.4625C8.57214 12.3602 8.57214 12.2578 8.57214 12.1554C8.67451 12.1554 8.77689 12.1554 8.87926 12.1554C8.87926 12.053 8.87926 11.9507 8.87926 11.8483C8.98164 11.8483 9.08401 11.8483 9.18639 11.8483C9.18639 11.7459 9.18639 11.6435 9.18639 11.5411C9.32288 11.5411 9.45939 11.5411 9.59589 11.5411C9.59589 11.4388 9.59589 11.3364 9.59589 11.234C9.69826 11.234 9.80064 11.234 9.90301 11.234C9.90301 11.0975 9.90301 10.961 9.90301 10.8245C10.0054 10.8245 10.1078 10.8245 10.2101 10.8245C10.2101 10.7221 10.2101 10.6198 10.2101 10.5174C10.3125 10.5174 10.4149 10.5174 10.5173 10.5174C10.5173 10.415 10.5173 10.3126 10.5173 10.2103C10.6196 10.2103 10.722 10.2103 10.8244 10.2103C10.8244 10.1079 10.8244 10.0055 10.8244 9.90314C10.9609 9.90314 11.0974 9.90314 11.2339 9.90314C11.2339 9.80076 11.2339 9.69839 11.2339 9.59601C11.3363 9.59601 11.4386 9.59601 11.541 9.59601C11.541 9.45951 11.541 9.32301 11.541 9.18651C11.6434 9.18651 11.7457 9.18651 11.8481 9.18651C11.8481 9.08414 11.8481 8.98176 11.8481 8.87939C11.9505 8.87939 12.0529 8.87939 12.1552 8.87939C12.1552 8.77701 12.1552 8.67464 12.1552 8.57226C12.2576 8.57226 12.36 8.57226 12.4624 8.57226C12.4624 8.46989 12.4624 8.36751 12.4624 8.26514C12.5989 8.26514 12.7354 8.26514 12.8719 8.26514Z" fill="#FFFBAA"/>
<path fill-rule="evenodd" clip-rule="evenodd" d="M19.0143 9.18652C16.9668 9.18652 14.9193 9.18652 12.8718 9.18652C12.8718 9.08414 12.8718 8.98177 12.8718 8.87939C14.9193 8.87939 16.9668 8.87939 19.0143 8.87939C19.0143 8.98177 19.0143 9.08414 19.0143 9.18652Z" fill="#E4A548"/>
<path fill-rule="evenodd" clip-rule="evenodd" d="M12.8718 9.18628C12.8718 9.32277 12.8718 9.45928 12.8718 9.59578C12.7353 9.59578 12.5988 9.59578 12.4623 9.59578C12.4623 9.45928 12.4623 9.32277 12.4623 9.18628C12.5988 9.18628 12.7353 9.18628 12.8718 9.18628Z" fill="#E7A94A"/>
<path fill-rule="evenodd" clip-rule="evenodd" d="M12.8718 9.18628C14.9193 9.18628 16.9668 9.18628 19.0143 9.18628C19.1508 9.18628 19.2873 9.18628 19.4237 9.18628C19.4237 9.32277 19.4237 9.45928 19.4237 9.59578C19.5261 9.59578 19.6285 9.59578 19.7309 9.59578C19.7309 9.69815 19.7309 9.80053 19.7309 9.9029C19.8332 9.9029 19.9356 9.9029 20.038 9.9029C20.038 10.0053 20.038 10.1077 20.038 10.21C20.038 10.5513 20.038 10.8925 20.038 11.2338C20.1404 11.2338 20.2427 11.2338 20.3451 11.2338C20.4475 11.2338 20.5499 11.2338 20.6523 11.2338C20.6523 11.3362 20.6523 11.4385 20.6523 11.5409C20.6523 11.6432 20.6523 11.7456 20.6523 11.848C20.9935 11.848 21.3348 11.848 21.676 11.848C21.7784 11.848 21.8807 11.848 21.9831 11.848C21.9831 11.9504 21.9831 12.0527 21.9831 12.1551C22.0855 12.1551 22.1879 12.1551 22.2902 12.1551C22.2902 12.2575 22.2902 12.3599 22.2902 12.4622C22.4268 12.4622 22.5633 12.4622 22.6998 12.4622C22.6998 12.5988 22.6998 12.7353 22.6998 12.8718C22.6998 13.2813 22.6998 13.6907 22.6998 14.1002C22.5633 14.1002 22.4268 14.1002 22.2902 14.1002C22.2902 13.7931 22.2902 13.486 22.2902 13.1789C22.1879 13.1789 22.0855 13.1789 21.9831 13.1789C21.9831 13.0765 21.9831 12.9741 21.9831 12.8718C21.8807 12.8718 21.7784 12.8718 21.676 12.8718C21.676 12.7353 21.676 12.5988 21.676 12.4622C21.5736 12.4622 21.4712 12.4622 21.3689 12.4622C21.3689 12.3599 21.3689 12.2575 21.3689 12.1551C21.0277 12.1551 20.6864 12.1551 20.3451 12.1551C20.2427 12.1551 20.1404 12.1551 20.038 12.1551C20.038 11.9504 20.038 11.7456 20.038 11.5409C19.9356 11.5409 19.8332 11.5409 19.7309 11.5409C19.7309 11.1997 19.7309 10.8584 19.7309 10.5172C19.6285 10.5172 19.5261 10.5172 19.4237 10.5172C19.4237 10.4148 19.4237 10.3124 19.4237 10.21C19.2873 10.21 19.1508 10.21 19.0143 10.21C19.0143 10.1077 19.0143 10.0053 19.0143 9.9029C18.9119 9.9029 18.8095 9.9029 18.7071 9.9029C18.7071 9.80053 18.7071 9.69815 18.7071 9.59578C18.6048 9.59578 18.5024 9.59578 18.4 9.59578C16.762 9.59578 15.124 9.59578 13.486 9.59578C13.3836 9.59578 13.2813 9.59578 13.1789 9.59578C13.1789 9.69815 13.1789 9.80053 13.1789 9.9029C13.0765 9.9029 12.9741 9.9029 12.8718 9.9029C12.8718 10.0053 12.8718 10.1077 12.8718 10.21C12.7353 10.21 12.5988 10.21 12.4622 10.21C12.4622 10.3124 12.4622 10.4148 12.4622 10.5172C12.3599 10.5172 12.2575 10.5172 12.1551 10.5172C12.1551 10.8584 12.1551 11.1997 12.1551 11.5409C12.2575 11.5409 12.3599 11.5409 12.4622 11.5409C12.4622 11.7456 12.4622 11.9504 12.4622 12.1551C12.5988 12.1551 12.7353 12.1551 12.8718 12.1551C12.8718 12.394 12.8718 12.6329 12.8718 12.8718C12.7353 12.8718 12.5988 12.8718 12.4622 12.8718C12.3599 12.8718 12.2575 12.8718 12.1551 12.8718C12.1551 12.7353 12.1551 12.5988 12.1551 12.4622C11.9504 12.4622 11.7456 12.4622 11.5409 12.4622C11.5409 12.3599 11.5409 12.2575 11.5409 12.1551C11.1997 12.1551 10.8584 12.1551 10.5172 12.1551C10.5172 12.2575 10.5172 12.3599 10.5172 12.4622C10.4148 12.4622 10.3124 12.4622 10.21 12.4622C10.21 12.5988 10.21 12.7353 10.21 12.8718C10.1077 12.8718 10.0053 12.8718 9.9029 12.8718C9.9029 12.9741 9.9029 13.0765 9.9029 13.1789C9.80053 13.1789 9.69815 13.1789 9.59578 13.1789C9.59578 14.9193 9.59578 16.6596 9.59578 18.4C9.59578 18.5024 9.59578 18.6048 9.59578 18.7071C9.69815 18.7071 9.80053 18.7071 9.9029 18.7071C9.9029 18.8095 9.9029 18.9119 9.9029 19.0143C9.9029 19.1508 9.9029 19.2873 9.9029 19.4237C9.80053 19.4237 9.69815 19.4237 9.59578 19.4237C9.45928 19.4237 9.32277 19.4237 9.18628 19.4237C9.18628 19.2873 9.18628 19.1508 9.18628 19.0143C9.18628 16.9668 9.18628 14.9193 9.18628 12.8718C9.32277 12.8718 9.45928 12.8718 9.59578 12.8718C9.59578 12.7353 9.59578 12.5988 9.59578 12.4622C9.69815 12.4622 9.80053 12.4622 9.9029 12.4622C9.9029 12.3599 9.9029 12.2575 9.9029 12.1551C10.0053 12.1551 10.1077 12.1551 10.21 12.1551C10.21 12.0527 10.21 11.9504 10.21 11.848C10.5513 11.848 10.8925 11.848 11.2338 11.848C11.2338 11.7456 11.2338 11.6432 11.2338 11.5409C11.3362 11.5409 11.4385 11.5409 11.5409 11.5409C11.5409 11.4385 11.5409 11.3362 11.5409 11.2338C11.6432 11.2338 11.7456 11.2338 11.848 11.2338C11.848 10.8925 11.848 10.5513 11.848 10.21C11.9504 10.21 12.0527 10.21 12.1551 10.21C12.1551 10.1077 12.1551 10.0053 12.1551 9.9029C12.2575 9.9029 12.3599 9.9029 12.4622 9.9029C12.4622 9.80053 12.4622 9.69815 12.4622 9.59578C12.5988 9.59578 12.7353 9.59578 12.8718 9.59578C12.8718 9.45928 12.8718 9.32277 12.8718 9.18628Z" fill="#FEFBA4"/>
<path fill-rule="evenodd" clip-rule="evenodd" d="M19.0143 9.18628C19.1507 9.18628 19.2873 9.18628 19.4238 9.18628C19.4238 9.32277 19.4238 9.45928 19.4238 9.59578C19.2873 9.59578 19.1507 9.59578 19.0143 9.59578C19.0143 9.45928 19.0143 9.32277 19.0143 9.18628Z" fill="#E7A94A"/>
<path fill-rule="evenodd" clip-rule="evenodd" d="M12.4624 9.59595C12.4624 9.69832 12.4624 9.8007 12.4624 9.90307C12.36 9.90307 12.2576 9.90307 12.1553 9.90307C12.1553 9.8007 12.1553 9.69832 12.1553 9.59595C12.2576 9.59595 12.36 9.59595 12.4624 9.59595Z" fill="#E7A94A"/>
<path fill-rule="evenodd" clip-rule="evenodd" d="M13.4862 9.59595C15.1242 9.59595 16.7622 9.59595 18.4002 9.59595C18.4002 9.69832 18.4002 9.8007 18.4002 9.90307C16.7622 9.90307 15.1242 9.90307 13.4862 9.90307C13.4862 9.8007 13.4862 9.69832 13.4862 9.59595Z" fill="#B4F758"/>
<path fill-rule="evenodd" clip-rule="evenodd" d="M19.4238 9.59595C19.5262 9.59595 19.6286 9.59595 19.731 9.59595C19.731 9.69832 19.731 9.8007 19.731 9.90307C19.6286 9.90307 19.5262 9.90307 19.4238 9.90307C19.4238 9.8007 19.4238 9.69832 19.4238 9.59595Z" fill="#E7A94A"/>
<path fill-rule="evenodd" clip-rule="evenodd" d="M12.1553 9.90283C12.1553 10.0052 12.1553 10.1076 12.1553 10.21C12.0529 10.21 11.9505 10.21 11.8481 10.21C11.8481 10.1076 11.8481 10.0052 11.8481 9.90283C11.9505 9.90283 12.0529 9.90283 12.1553 9.90283Z" fill="#E7A94A"/>
<path fill-rule="evenodd" clip-rule="evenodd" d="M13.4861 9.59595C13.4861 9.69832 13.4861 9.8007 13.4861 9.90307C13.4861 10.0054 13.4861 10.1078 13.4861 10.2102C13.5885 10.2102 13.6909 10.2102 13.7933 10.2102C13.7933 10.3126 13.7933 10.4149 13.7933 10.5173C13.7933 10.7562 13.7933 10.9951 13.7933 11.2339C13.8956 11.2339 13.998 11.2339 14.1004 11.2339C14.1004 11.4387 14.1004 11.6434 14.1004 11.8482C14.2369 11.8482 14.3734 11.8482 14.5099 11.8482C14.5099 11.9506 14.5099 12.0529 14.5099 12.1553C14.5099 12.3942 14.5099 12.633 14.5099 12.8719C14.3734 12.8719 14.2369 12.8719 14.1004 12.8719C14.1004 12.9743 14.1004 13.0767 14.1004 13.1791C13.998 13.1791 13.8956 13.1791 13.7933 13.1791C13.7933 13.0767 13.7933 12.9743 13.7933 12.8719C13.4861 12.8719 13.179 12.8719 12.8719 12.8719C12.8719 12.633 12.8719 12.3942 12.8719 12.1553C12.7354 12.1553 12.5989 12.1553 12.4624 12.1553C12.4624 11.9506 12.4624 11.7458 12.4624 11.5411C12.36 11.5411 12.2576 11.5411 12.1553 11.5411C12.1553 11.1998 12.1553 10.8586 12.1553 10.5173C12.2576 10.5173 12.36 10.5173 12.4624 10.5173C12.4624 10.4149 12.4624 10.3126 12.4624 10.2102C12.5989 10.2102 12.7354 10.2102 12.8719 10.2102C12.8719 10.1078 12.8719 10.0054 12.8719 9.90307C12.9743 9.90307 13.0766 9.90307 13.179 9.90307C13.179 9.8007 13.179 9.69832 13.179 9.59595C13.2814 9.59595 13.3838 9.59595 13.4861 9.59595Z" fill="#8CD754"/>
<path fill-rule="evenodd" clip-rule="evenodd" d="M13.4862 9.90283C15.1242 9.90283 16.7622 9.90283 18.4002 9.90283C18.4002 10.0052 18.4002 10.1076 18.4002 10.21C18.2978 10.21 18.1955 10.21 18.0931 10.21C18.0931 10.3123 18.0931 10.4147 18.0931 10.5171C17.9907 10.5171 17.8883 10.5171 17.786 10.5171C17.786 10.756 17.786 10.9948 17.786 11.2337C17.6494 11.2337 17.5129 11.2337 17.3765 11.2337C17.3765 11.4385 17.3765 11.6432 17.3765 11.8479C17.3765 11.9503 17.3765 12.0527 17.3765 12.1551C17.2741 12.1551 17.1717 12.1551 17.0693 12.1551C17.0693 12.2574 17.0693 12.3598 17.0693 12.4622C16.3186 12.4622 15.5678 12.4622 14.8171 12.4622C14.8171 12.3598 14.8171 12.2574 14.8171 12.1551C14.7147 12.1551 14.6123 12.1551 14.51 12.1551C14.51 12.0527 14.51 11.9503 14.51 11.8479C14.51 11.6432 14.51 11.4385 14.51 11.2337C14.3734 11.2337 14.2369 11.2337 14.1005 11.2337C14.1005 10.9948 14.1005 10.756 14.1005 10.5171C13.9981 10.5171 13.8957 10.5171 13.7933 10.5171C13.7933 10.4147 13.7933 10.3123 13.7933 10.21C13.691 10.21 13.5886 10.21 13.4862 10.21C13.4862 10.1076 13.4862 10.0052 13.4862 9.90283Z" fill="#E6FF9E"/>
<path fill-rule="evenodd" clip-rule="evenodd" d="M18.4 9.59595C18.5023 9.59595 18.6047 9.59595 18.7071 9.59595C18.7071 9.69832 18.7071 9.8007 18.7071 9.90307C18.8095 9.90307 18.9118 9.90307 19.0142 9.90307C19.0142 10.0054 19.0142 10.1078 19.0142 10.2102C19.1507 10.2102 19.2873 10.2102 19.4237 10.2102C19.4237 10.3126 19.4237 10.4149 19.4237 10.5173C19.4237 10.8586 19.4237 11.1998 19.4237 11.5411C19.4237 11.7458 19.4237 11.9506 19.4237 12.1553C19.2873 12.1553 19.1507 12.1553 19.0142 12.1553C19.0142 12.3942 19.0142 12.633 19.0142 12.8719C18.7071 12.8719 18.4 12.8719 18.0928 12.8719C18.0928 12.9743 18.0928 13.0767 18.0928 13.1791C17.9905 13.1791 17.8881 13.1791 17.7857 13.1791C17.7857 13.0767 17.7857 12.9743 17.7857 12.8719C17.6493 12.8719 17.5127 12.8719 17.3762 12.8719C17.3762 12.633 17.3762 12.3942 17.3762 12.1553C17.3762 12.0529 17.3762 11.9506 17.3762 11.8482C17.5127 11.8482 17.6493 11.8482 17.7857 11.8482C17.7857 11.6434 17.7857 11.4387 17.7857 11.2339C17.8881 11.2339 17.9905 11.2339 18.0928 11.2339C18.0928 10.9951 18.0928 10.7562 18.0928 10.5173C18.0928 10.4149 18.0928 10.3126 18.0928 10.2102C18.1952 10.2102 18.2976 10.2102 18.4 10.2102C18.4 10.1078 18.4 10.0054 18.4 9.90307C18.4 9.8007 18.4 9.69832 18.4 9.59595Z" fill="#60BA36"/>
<path fill-rule="evenodd" clip-rule="evenodd" d="M19.7311 9.90283C19.8335 9.90283 19.9358 9.90283 20.0382 9.90283C20.0382 10.0052 20.0382 10.1076 20.0382 10.21C19.9358 10.21 19.8335 10.21 19.7311 10.21C19.7311 10.1076 19.7311 10.0052 19.7311 9.90283Z" fill="#E7A94A"/>
<path fill-rule="evenodd" clip-rule="evenodd" d="M11.848 10.21C11.848 10.5512 11.848 10.8925 11.848 11.2337C11.7456 11.2337 11.6433 11.2337 11.5409 11.2337C11.5409 10.8925 11.5409 10.5512 11.5409 10.21C11.6433 10.21 11.7456 10.21 11.848 10.21Z" fill="#DEA045"/>
<path fill-rule="evenodd" clip-rule="evenodd" d="M13.7932 10.5171C13.8956 10.5171 13.998 10.5171 14.1003 10.5171C14.1003 10.756 14.1003 10.9948 14.1003 11.2337C13.998 11.2337 13.8956 11.2337 13.7932 11.2337C13.7932 10.9948 13.7932 10.756 13.7932 10.5171Z" fill="#FEFFCA"/>
<path fill-rule="evenodd" clip-rule="evenodd" d="M18.093 10.5171C18.093 10.756 18.093 10.9948 18.093 11.2337C17.9906 11.2337 17.8883 11.2337 17.7859 11.2337C17.7859 10.9948 17.7859 10.756 17.7859 10.5171C17.8883 10.5171 17.9906 10.5171 18.093 10.5171Z" fill="#FEFFCA"/>
<path fill-rule="evenodd" clip-rule="evenodd" d="M20.0382 10.21C20.1406 10.21 20.243 10.21 20.3453 10.21C20.3453 10.5512 20.3453 10.8925 20.3453 11.2337C20.243 11.2337 20.1406 11.2337 20.0382 11.2337C20.0382 10.8925 20.0382 10.5512 20.0382 10.21Z" fill="#DEA045"/>
<path fill-rule="evenodd" clip-rule="evenodd" d="M19.4238 10.5171C19.5262 10.5171 19.6286 10.5171 19.731 10.5171C19.731 10.8583 19.731 11.1996 19.731 11.5408C19.6286 11.5408 19.5262 11.5408 19.4238 11.5408C19.4238 11.1996 19.4238 10.8583 19.4238 10.5171Z" fill="#468E2B"/>
<path fill-rule="evenodd" clip-rule="evenodd" d="M11.5409 11.2339C11.5409 11.3363 11.5409 11.4386 11.5409 11.541C11.4385 11.541 11.3361 11.541 11.2338 11.541C11.2338 11.4386 11.2338 11.3363 11.2338 11.2339C11.3361 11.2339 11.4385 11.2339 11.5409 11.2339Z" fill="#E7A94A"/>
<path fill-rule="evenodd" clip-rule="evenodd" d="M14.1002 11.2339C14.2367 11.2339 14.3733 11.2339 14.5097 11.2339C14.5097 11.4386 14.5097 11.6434 14.5097 11.8481C14.3733 11.8481 14.2367 11.8481 14.1002 11.8481C14.1002 11.6434 14.1002 11.4386 14.1002 11.2339Z" fill="#FEFFCA"/>
<path fill-rule="evenodd" clip-rule="evenodd" d="M17.7857 11.2339C17.7857 11.4386 17.7857 11.6434 17.7857 11.8481C17.6493 11.8481 17.5127 11.8481 17.3762 11.8481C17.3762 11.6434 17.3762 11.4386 17.3762 11.2339C17.5127 11.2339 17.6493 11.2339 17.7857 11.2339Z" fill="#FEFFCA"/>
<path fill-rule="evenodd" clip-rule="evenodd" d="M20.3452 11.2339C20.4476 11.2339 20.55 11.2339 20.6523 11.2339C20.6523 11.3363 20.6523 11.4386 20.6523 11.541C20.55 11.541 20.4476 11.541 20.3452 11.541C20.3452 11.4386 20.3452 11.3363 20.3452 11.2339Z" fill="#E7A94A"/>
<path fill-rule="evenodd" clip-rule="evenodd" d="M11.234 11.541C11.234 11.6434 11.234 11.7458 11.234 11.8482C10.8927 11.8482 10.5515 11.8482 10.2102 11.8482C10.2102 11.7458 10.2102 11.6434 10.2102 11.541C10.5515 11.541 10.8927 11.541 11.234 11.541Z" fill="#DEA045"/>
<path fill-rule="evenodd" clip-rule="evenodd" d="M19.4238 11.541C19.5262 11.541 19.6285 11.541 19.7309 11.541C19.8333 11.541 19.9357 11.541 20.038 11.541C20.038 11.7458 20.038 11.9505 20.038 12.1553C20.1404 12.1553 20.2428 12.1553 20.3452 12.1553C20.3452 12.2577 20.3452 12.36 20.3452 12.4624C20.1404 12.4624 19.9357 12.4624 19.7309 12.4624C19.7309 12.5989 19.7309 12.7354 19.7309 12.8719C19.6285 12.8719 19.5262 12.8719 19.4238 12.8719C19.2873 12.8719 19.1507 12.8719 19.0143 12.8719C19.0143 12.633 19.0143 12.3941 19.0143 12.1553C19.1507 12.1553 19.2873 12.1553 19.4238 12.1553C19.4238 11.9505 19.4238 11.7458 19.4238 11.541Z" fill="#FDC659"/>
<path fill-rule="evenodd" clip-rule="evenodd" d="M20.6523 11.541C20.9935 11.541 21.3349 11.541 21.6761 11.541C21.6761 11.6434 21.6761 11.7458 21.6761 11.8482C21.3349 11.8482 20.9935 11.8482 20.6523 11.8482C20.6523 11.7458 20.6523 11.6434 20.6523 11.541Z" fill="#DEA045"/>
<path fill-rule="evenodd" clip-rule="evenodd" d="M10.2101 11.8484C10.2101 11.9508 10.2101 12.0531 10.2101 12.1555C10.1077 12.1555 10.0053 12.1555 9.90295 12.1555C9.90295 12.0531 9.90295 11.9508 9.90295 11.8484C10.0053 11.8484 10.1077 11.8484 10.2101 11.8484Z" fill="#E7A94A"/>
<path fill-rule="evenodd" clip-rule="evenodd" d="M11.8481 11.8484C11.9505 11.8484 12.0529 11.8484 12.1553 11.8484C12.1553 11.9508 12.1553 12.0531 12.1553 12.1555C12.0529 12.1555 11.9505 12.1555 11.8481 12.1555C11.8481 12.0531 11.8481 11.9508 11.8481 11.8484Z" fill="#FEC95A"/>
<path fill-rule="evenodd" clip-rule="evenodd" d="M21.6761 11.8484C21.7785 11.8484 21.8809 11.8484 21.9833 11.8484C21.9833 11.9508 21.9833 12.0531 21.9833 12.1555C21.8809 12.1555 21.7785 12.1555 21.6761 12.1555C21.6761 12.0531 21.6761 11.9508 21.6761 11.8484Z" fill="#E7A94A"/>
<path fill-rule="evenodd" clip-rule="evenodd" d="M9.90295 12.1553C9.90295 12.2576 9.90295 12.36 9.90295 12.4624C9.80058 12.4624 9.6982 12.4624 9.59583 12.4624C9.59583 12.36 9.59583 12.2576 9.59583 12.1553C9.6982 12.1553 9.80058 12.1553 9.90295 12.1553Z" fill="#E7A94A"/>
<path fill-rule="evenodd" clip-rule="evenodd" d="M11.5411 12.4624C11.1998 12.4624 10.8586 12.4624 10.5173 12.4624C10.5173 12.36 10.5173 12.2576 10.5173 12.1553C10.8586 12.1553 11.1998 12.1553 11.5411 12.1553C11.5411 12.2576 11.5411 12.36 11.5411 12.4624Z" fill="#8BD753"/>
<path fill-rule="evenodd" clip-rule="evenodd" d="M14.5099 12.1553C14.6123 12.1553 14.7146 12.1553 14.817 12.1553C14.817 12.2576 14.817 12.36 14.817 12.4624C14.817 12.5989 14.817 12.7354 14.817 12.8719C14.7146 12.8719 14.6123 12.8719 14.5099 12.8719C14.5099 12.633 14.5099 12.3942 14.5099 12.1553Z" fill="#FEFFF8"/>
<path fill-rule="evenodd" clip-rule="evenodd" d="M17.3763 12.1553C17.3763 12.3942 17.3763 12.633 17.3763 12.8719C17.274 12.8719 17.1716 12.8719 17.0692 12.8719C17.0692 12.7354 17.0692 12.5989 17.0692 12.4624C17.0692 12.36 17.0692 12.2576 17.0692 12.1553C17.1716 12.1553 17.274 12.1553 17.3763 12.1553Z" fill="#FEFFF8"/>
<path fill-rule="evenodd" clip-rule="evenodd" d="M21.9832 12.1553C22.0855 12.1553 22.1879 12.1553 22.2903 12.1553C22.2903 12.2576 22.2903 12.36 22.2903 12.4624C22.1879 12.4624 22.0855 12.4624 21.9832 12.4624C21.9832 12.36 21.9832 12.2576 21.9832 12.1553Z" fill="#E7A94A"/>
<path fill-rule="evenodd" clip-rule="evenodd" d="M9.59578 12.4622C9.59578 12.5987 9.59578 12.7352 9.59578 12.8717C9.45928 12.8717 9.32277 12.8717 9.18628 12.8717C9.18628 12.7352 9.18628 12.5987 9.18628 12.4622C9.32277 12.4622 9.45928 12.4622 9.59578 12.4622Z" fill="#E7A94A"/>
<path fill-rule="evenodd" clip-rule="evenodd" d="M10.5172 12.4622C10.8584 12.4622 11.1997 12.4622 11.541 12.4622C11.541 12.5987 11.541 12.7352 11.541 12.8717C11.7457 12.8717 11.9504 12.8717 12.1552 12.8717C12.2576 12.8717 12.3599 12.8717 12.4623 12.8717C12.4623 13.1788 12.4623 13.4859 12.4623 13.793C12.4623 14.0319 12.4623 14.2708 12.4623 14.5097C12.3599 14.5097 12.2576 14.5097 12.1552 14.5097C12.0528 14.5097 11.9504 14.5097 11.8481 14.5097C11.8481 14.3732 11.8481 14.2367 11.8481 14.1002C11.6433 14.1002 11.4386 14.1002 11.2338 14.1002C11.2338 13.9978 11.2338 13.8954 11.2338 13.793C10.995 13.793 10.7561 13.793 10.5172 13.793C10.3125 13.793 10.1077 13.793 9.90295 13.793C9.90295 13.5883 9.90295 13.3835 9.90295 13.1788C9.90295 13.0764 9.90295 12.974 9.90295 12.8717C10.0053 12.8717 10.1077 12.8717 10.2101 12.8717C10.2101 12.7352 10.2101 12.5987 10.2101 12.4622C10.3125 12.4622 10.4148 12.4622 10.5172 12.4622Z" fill="#E2FD9B"/>
<path fill-rule="evenodd" clip-rule="evenodd" d="M11.5409 12.4622C11.7456 12.4622 11.9504 12.4622 12.1551 12.4622C12.1551 12.5987 12.1551 12.7352 12.1551 12.8717C11.9504 12.8717 11.7456 12.8717 11.5409 12.8717C11.5409 12.7352 11.5409 12.5987 11.5409 12.4622Z" fill="#96DE5B"/>
<path fill-rule="evenodd" clip-rule="evenodd" d="M14.8169 12.4622C15.5677 12.4622 16.3184 12.4622 17.0691 12.4622C17.0691 12.5987 17.0691 12.7352 17.0691 12.8717C16.3184 12.8717 15.5677 12.8717 14.8169 12.8717C14.8169 12.7352 14.8169 12.5987 14.8169 12.4622Z" fill="#FEFFCA"/>
<path fill-rule="evenodd" clip-rule="evenodd" d="M20.3453 12.1553C20.6865 12.1553 21.0278 12.1553 21.369 12.1553C21.369 12.2576 21.369 12.36 21.369 12.4624C21.4714 12.4624 21.5738 12.4624 21.6761 12.4624C21.6761 12.5989 21.6761 12.7354 21.6761 12.8719C21.7785 12.8719 21.8809 12.8719 21.9833 12.8719C21.9833 12.9743 21.9833 13.0766 21.9833 13.179C21.9833 13.3838 21.9833 13.5885 21.9833 13.7933C21.7785 13.7933 21.5738 13.7933 21.369 13.7933C21.369 13.8956 21.369 13.998 21.369 14.1004C21.1302 14.1004 20.8912 14.1004 20.6524 14.1004C20.6524 14.2369 20.6524 14.3734 20.6524 14.5099C20.3453 14.5099 20.0381 14.5099 19.731 14.5099C19.4922 14.5099 19.2532 14.5099 19.0144 14.5099C19.0144 14.3734 19.0144 14.2369 19.0144 14.1004C18.912 14.1004 18.8096 14.1004 18.7073 14.1004C18.7073 13.998 18.7073 13.8956 18.7073 13.7933C18.6049 13.7933 18.5025 13.7933 18.4001 13.7933C18.4001 13.6909 18.4001 13.5885 18.4001 13.4861C18.2978 13.4861 18.1954 13.4861 18.093 13.4861C18.093 13.3838 18.093 13.2814 18.093 13.179C18.093 13.0766 18.093 12.9743 18.093 12.8719C18.4001 12.8719 18.7073 12.8719 19.0144 12.8719C19.0144 13.179 19.0144 13.4861 19.0144 13.7933C19.1508 13.7933 19.2874 13.7933 19.4239 13.7933C19.4239 13.4861 19.4239 13.179 19.4239 12.8719C19.5263 12.8719 19.6286 12.8719 19.731 12.8719C19.731 12.7354 19.731 12.5989 19.731 12.4624C19.9358 12.4624 20.1405 12.4624 20.3453 12.4624C20.3453 12.36 20.3453 12.2576 20.3453 12.1553Z" fill="#91DB55"/>
<path fill-rule="evenodd" clip-rule="evenodd" d="M22.2904 12.4622C22.4269 12.4622 22.5635 12.4622 22.6999 12.4622C22.6999 12.5987 22.6999 12.7352 22.6999 12.8717C22.5635 12.8717 22.4269 12.8717 22.2904 12.8717C22.2904 12.7352 22.2904 12.5987 22.2904 12.4622Z" fill="#E7A94A"/>
<path fill-rule="evenodd" clip-rule="evenodd" d="M7.24133 12.8718C7.34371 12.8718 7.44608 12.8718 7.54846 12.8718C7.54846 12.9742 7.54846 13.0766 7.54846 13.179C7.68495 13.179 7.82146 13.179 7.95796 13.179C7.95796 15.1241 7.95796 17.0692 7.95796 19.0143C7.82146 19.0143 7.68495 19.0143 7.54846 19.0143C7.54846 19.1508 7.54846 19.2874 7.54846 19.4238C7.44608 19.4238 7.34371 19.4238 7.24133 19.4238C7.24133 17.2399 7.24133 15.0558 7.24133 12.8718Z" fill="#FFC95C"/>
<path fill-rule="evenodd" clip-rule="evenodd" d="M12.8718 12.8718C13.1789 12.8718 13.486 12.8718 13.7932 12.8718C13.7932 12.9742 13.7932 13.0766 13.7932 13.179C13.7932 13.2813 13.7932 13.3837 13.7932 13.4861C13.6908 13.4861 13.5884 13.4861 13.486 13.4861C13.486 13.5885 13.486 13.6908 13.486 13.7932C13.3837 13.7932 13.2813 13.7932 13.1789 13.7932C13.1789 13.8956 13.1789 13.998 13.1789 14.1003C13.0765 14.1003 12.9742 14.1003 12.8718 14.1003C12.8718 14.2368 12.8718 14.3733 12.8718 14.5098C12.7353 14.5098 12.5988 14.5098 12.4623 14.5098C12.4623 14.2709 12.4623 14.032 12.4623 13.7932C12.5988 13.7932 12.7353 13.7932 12.8718 13.7932C12.8718 13.4861 12.8718 13.179 12.8718 12.8718Z" fill="#C6F778"/>
<path fill-rule="evenodd" clip-rule="evenodd" d="M14.5098 12.8718C14.6122 12.8718 14.7146 12.8718 14.817 12.8718C15.5677 12.8718 16.3185 12.8718 17.0692 12.8718C17.1716 12.8718 17.274 12.8718 17.3763 12.8718C17.5128 12.8718 17.6494 12.8718 17.7858 12.8718C17.7858 12.9742 17.7858 13.0766 17.7858 13.179C17.8882 13.179 17.9906 13.179 18.093 13.179C18.093 13.2813 18.093 13.3837 18.093 13.4861C18.1953 13.4861 18.2977 13.4861 18.4001 13.4861C18.4001 13.5885 18.4001 13.6908 18.4001 13.7932C18.5025 13.7932 18.6048 13.7932 18.7072 13.7932C18.7072 13.8956 18.7072 13.998 18.7072 14.1003C18.8096 14.1003 18.912 14.1003 19.0143 14.1003C19.0143 14.2368 19.0143 14.3733 19.0143 14.5098C18.912 14.5098 18.8096 14.5098 18.7072 14.5098C18.7072 14.6122 18.7072 14.7146 18.7072 14.817C18.6048 14.817 18.5025 14.817 18.4001 14.817C18.4001 14.9193 18.4001 15.0217 18.4001 15.1241C18.2977 15.1241 18.1953 15.1241 18.093 15.1241C18.093 15.2265 18.093 15.3288 18.093 15.4312C17.9906 15.4312 17.8882 15.4312 17.7858 15.4312C17.7858 15.5336 17.7858 15.636 17.7858 15.7383C17.6494 15.7383 17.5128 15.7383 17.3763 15.7383C17.3763 15.8748 17.3763 16.0114 17.3763 16.1478C17.274 16.1478 17.1716 16.1478 17.0692 16.1478C17.0692 16.2502 17.0692 16.3526 17.0692 16.455C16.9668 16.455 16.8645 16.455 16.7621 16.455C16.7621 16.6597 16.7621 16.8645 16.7621 17.0692C16.6597 17.0692 16.5573 17.0692 16.455 17.0692C16.455 17.1716 16.455 17.274 16.455 17.3763C16.3526 17.3763 16.2502 17.3763 16.1478 17.3763C16.1478 17.5128 16.1478 17.6494 16.1478 17.7858C16.0114 17.7858 15.8748 17.7858 15.7383 17.7858C15.7383 17.8882 15.7383 17.9906 15.7383 18.093C15.636 18.093 15.5336 18.093 15.4312 18.093C15.4312 18.1953 15.4312 18.2977 15.4312 18.4001C15.3288 18.4001 15.2265 18.4001 15.1241 18.4001C15.1241 18.5025 15.1241 18.6048 15.1241 18.7072C15.0217 18.7072 14.9193 18.7072 14.817 18.7072C14.817 18.8096 14.817 18.912 14.817 19.0143C14.7146 19.0143 14.6122 19.0143 14.5098 19.0143C14.3733 19.0143 14.2368 19.0143 14.1003 19.0143C14.1003 18.912 14.1003 18.8096 14.1003 18.7072C13.998 18.7072 13.8956 18.7072 13.7932 18.7072C13.7932 18.6048 13.7932 18.5025 13.7932 18.4001C13.6908 18.4001 13.5885 18.4001 13.4861 18.4001C13.4861 18.2977 13.4861 18.1953 13.4861 18.093C13.3837 18.093 13.2813 18.093 13.179 18.093C13.179 17.9906 13.179 17.8882 13.179 17.7858C13.0766 17.7858 12.9742 17.7858 12.8718 17.7858C12.8718 17.6494 12.8718 17.5128 12.8718 17.3763C12.8718 17.274 12.8718 17.1716 12.8718 17.0692C12.8718 16.3185 12.8718 15.5677 12.8718 14.817C12.8718 14.7146 12.8718 14.6122 12.8718 14.5098C12.8718 14.3733 12.8718 14.2368 12.8718 14.1003C12.9742 14.1003 13.0766 14.1003 13.179 14.1003C13.179 13.998 13.179 13.8956 13.179 13.7932C13.2813 13.7932 13.3837 13.7932 13.4861 13.7932C13.4861 13.6908 13.4861 13.5885 13.4861 13.4861C13.5885 13.4861 13.6908 13.4861 13.7932 13.4861C13.7932 13.3837 13.7932 13.2813 13.7932 13.179C13.8956 13.179 13.998 13.179 14.1003 13.179C14.1003 13.0766 14.1003 12.9742 14.1003 12.8718C14.2368 12.8718 14.3733 12.8718 14.5098 12.8718Z" fill="#E7FFA0"/>
<path fill-rule="evenodd" clip-rule="evenodd" d="M24.3378 12.8718C24.4402 12.8718 24.5426 12.8718 24.645 12.8718C24.645 15.0558 24.645 17.2399 24.645 19.4238C24.5426 19.4238 24.4402 19.4238 24.3378 19.4238C24.3378 19.2874 24.3378 19.1508 24.3378 19.0143C24.3378 18.912 24.3378 18.8096 24.3378 18.7072C24.2014 18.7072 24.0648 18.7072 23.9283 18.7072C23.9283 17.8541 23.9283 17.0009 23.9283 16.1478C23.9283 15.1582 23.9283 14.1686 23.9283 13.179C24.0648 13.179 24.2014 13.179 24.3378 13.179C24.3378 13.0766 24.3378 12.9742 24.3378 12.8718Z" fill="#96641F"/>
<path fill-rule="evenodd" clip-rule="evenodd" d="M8.26501 12.8718C8.26501 14.9193 8.26501 16.9668 8.26501 19.0143C8.16264 19.0143 8.06026 19.0143 7.95789 19.0143C7.95789 17.0692 7.95789 15.1241 7.95789 13.179C7.95789 13.0766 7.95789 12.9742 7.95789 12.8718C8.06026 12.8718 8.16264 12.8718 8.26501 12.8718Z" fill="#FFFECD"/>
<path fill-rule="evenodd" clip-rule="evenodd" d="M9.1864 12.8718C9.1864 14.9193 9.1864 16.9668 9.1864 19.0143C9.08402 19.0143 8.98165 19.0143 8.87927 19.0143C8.87927 16.9668 8.87927 14.9193 8.87927 12.8718C8.98165 12.8718 9.08402 12.8718 9.1864 12.8718Z" fill="#E2A347"/>
<path fill-rule="evenodd" clip-rule="evenodd" d="M12.4623 12.8718C12.5988 12.8718 12.7353 12.8718 12.8718 12.8718C12.8718 13.179 12.8718 13.4861 12.8718 13.7932C12.7353 13.7932 12.5988 13.7932 12.4623 13.7932C12.4623 13.4861 12.4623 13.179 12.4623 12.8718Z" fill="#A1E950"/>
<path fill-rule="evenodd" clip-rule="evenodd" d="M19.0143 12.8718C19.1507 12.8718 19.2873 12.8718 19.4238 12.8718C19.4238 13.179 19.4238 13.4861 19.4238 13.7932C19.2873 13.7932 19.1507 13.7932 19.0143 13.7932C19.0143 13.4861 19.0143 13.179 19.0143 12.8718Z" fill="#5CB535"/>
<path fill-rule="evenodd" clip-rule="evenodd" d="M9.90295 13.179C9.90295 13.3837 9.90295 13.5885 9.90295 13.7932C9.90295 15.2265 9.90295 16.6597 9.90295 18.093C9.90295 18.1953 9.90295 18.2977 9.90295 18.4001C9.80058 18.4001 9.6982 18.4001 9.59583 18.4001C9.59583 16.6597 9.59583 14.9193 9.59583 13.179C9.6982 13.179 9.80058 13.179 9.90295 13.179Z" fill="#63BD36"/>
<path fill-rule="evenodd" clip-rule="evenodd" d="M21.9832 13.179C22.0855 13.179 22.1879 13.179 22.2903 13.179C22.2903 13.4861 22.2903 13.7932 22.2903 14.1003C22.2903 15.5336 22.2903 16.9668 22.2903 18.4001C22.1879 18.4001 22.0855 18.4001 21.9832 18.4001C21.9832 16.8645 21.9832 15.3288 21.9832 13.7932C21.9832 13.5885 21.9832 13.3837 21.9832 13.179Z" fill="#45952E"/>
<path fill-rule="evenodd" clip-rule="evenodd" d="M9.90295 13.7932C10.1077 13.7932 10.3125 13.7932 10.5172 13.7932C10.5172 13.8956 10.5172 13.998 10.5172 14.1003C10.4148 14.1003 10.3125 14.1003 10.2101 14.1003C10.2101 15.3288 10.2101 16.5573 10.2101 17.7858C10.3125 17.7858 10.4148 17.7858 10.5172 17.7858C10.5172 17.8882 10.5172 17.9906 10.5172 18.093C10.4148 18.093 10.3125 18.093 10.2101 18.093C10.1077 18.093 10.0053 18.093 9.90295 18.093C9.90295 16.6597 9.90295 15.2265 9.90295 13.7932Z" fill="#B4F758"/>
<path fill-rule="evenodd" clip-rule="evenodd" d="M10.5173 13.7932C10.7562 13.7932 10.9951 13.7932 11.234 13.7932C11.234 13.8956 11.234 13.998 11.234 14.1003C10.9951 14.1003 10.7562 14.1003 10.5173 14.1003C10.5173 13.998 10.5173 13.8956 10.5173 13.7932Z" fill="#FEFFCA"/>
<path fill-rule="evenodd" clip-rule="evenodd" d="M17.7857 13.7932C17.8881 13.7932 17.9905 13.7932 18.0928 13.7932C18.0928 14.0321 18.0928 14.271 18.0928 14.5098C17.9905 14.5098 17.8881 14.5098 17.7857 14.5098C17.7857 14.6122 17.7857 14.7146 17.7857 14.817C17.6493 14.817 17.5127 14.817 17.3762 14.817C17.3762 14.9193 17.3762 15.0217 17.3762 15.1241C17.2738 15.1241 17.1715 15.1241 17.0691 15.1241C17.0691 15.2265 17.0691 15.3288 17.0691 15.4312C16.9667 15.4312 16.8643 15.4312 16.762 15.4312C16.762 15.5336 16.762 15.636 16.762 15.7383C16.6596 15.7383 16.5572 15.7383 16.4548 15.7383C16.4548 15.9772 16.4548 16.2161 16.4548 16.455C16.3525 16.455 16.2501 16.455 16.1477 16.455C16.1477 16.5573 16.1477 16.6597 16.1477 16.7621C16.0113 16.7621 15.8747 16.7621 15.7382 16.7621C15.7382 16.8645 15.7382 16.9668 15.7382 17.0692C15.6358 17.0692 15.5335 17.0692 15.4311 17.0692C15.4311 17.1716 15.4311 17.274 15.4311 17.3763C15.3287 17.3763 15.2263 17.3763 15.124 17.3763C15.124 17.5129 15.124 17.6494 15.124 17.7858C15.0216 17.7858 14.9192 17.7858 14.8168 17.7858C14.8168 17.8882 14.8168 17.9906 14.8168 18.093C14.7145 18.093 14.6121 18.093 14.5097 18.093C14.5097 18.1953 14.5097 18.2977 14.5097 18.4001C14.3733 18.4001 14.2367 18.4001 14.1002 18.4001C14.1002 18.1953 14.1002 17.9906 14.1002 17.7858C14.2367 17.7858 14.3733 17.7858 14.5097 17.7858C14.5097 17.6494 14.5097 17.5129 14.5097 17.3763C14.6121 17.3763 14.7145 17.3763 14.8168 17.3763C14.8168 17.274 14.8168 17.1716 14.8168 17.0692C14.9192 17.0692 15.0216 17.0692 15.124 17.0692C15.124 16.9668 15.124 16.8645 15.124 16.7621C15.2263 16.7621 15.3287 16.7621 15.4311 16.7621C15.4311 16.6597 15.4311 16.5573 15.4311 16.455C15.5335 16.455 15.6358 16.455 15.7382 16.455C15.7382 16.3526 15.7382 16.2502 15.7382 16.1478C15.8747 16.1478 16.0113 16.1478 16.1477 16.1478C16.1477 15.909 16.1477 15.6701 16.1477 15.4312C16.2501 15.4312 16.3525 15.4312 16.4548 15.4312C16.4548 15.3288 16.4548 15.2265 16.4548 15.1241C16.5572 15.1241 16.6596 15.1241 16.762 15.1241C16.762 15.0217 16.762 14.9193 16.762 14.817C16.8643 14.817 16.9667 14.817 17.0691 14.817C17.0691 14.7146 17.0691 14.6122 17.0691 14.5098C17.1715 14.5098 17.2738 14.5098 17.3762 14.5098C17.3762 14.3734 17.3762 14.2369 17.3762 14.1003C17.5127 14.1003 17.6493 14.1003 17.7857 14.1003C17.7857 13.998 17.7857 13.8956 17.7857 13.7932Z" fill="#A3E95A"/>
<path fill-rule="evenodd" clip-rule="evenodd" d="M21.9832 13.7932C21.9832 15.3288 21.9832 16.8645 21.9832 18.4001C21.8808 18.4001 21.7785 18.4001 21.6761 18.4001C21.6761 18.2977 21.6761 18.1953 21.6761 18.093C21.3349 18.093 20.9935 18.093 20.6523 18.093C20.6523 17.9906 20.6523 17.8882 20.6523 17.7858C20.9935 17.7858 21.3349 17.7858 21.6761 17.7858C21.6761 16.5573 21.6761 15.3288 21.6761 14.1003C21.5737 14.1003 21.4713 14.1003 21.369 14.1003C21.369 13.998 21.369 13.8956 21.369 13.7932C21.5737 13.7932 21.7785 13.7932 21.9832 13.7932Z" fill="#6DC43D"/>
<path fill-rule="evenodd" clip-rule="evenodd" d="M22.6998 12.8718C22.8022 12.8718 22.9046 12.8718 23.007 12.8718C23.007 13.5202 23.007 14.1686 23.007 14.817C23.007 16.2161 23.007 17.6152 23.007 19.0143C22.9046 19.0143 22.8022 19.0143 22.6998 19.0143C22.6998 17.3763 22.6998 15.7383 22.6998 14.1003C22.6998 13.6908 22.6998 13.2813 22.6998 12.8718Z" fill="#C28534"/>
<path fill-rule="evenodd" clip-rule="evenodd" d="M10.5173 14.1006C10.7562 14.1006 10.9951 14.1006 11.234 14.1006C11.234 14.237 11.234 14.3736 11.234 14.5101C11.4387 14.5101 11.6435 14.5101 11.8482 14.5101C11.9506 14.5101 12.053 14.5101 12.1553 14.5101C12.1553 14.6125 12.1553 14.7148 12.1553 14.8172C12.2577 14.8172 12.3601 14.8172 12.4625 14.8172C12.4625 15.5679 12.4625 16.3187 12.4625 17.0695C12.3601 17.0695 12.2577 17.0695 12.1553 17.0695C12.1553 17.1718 12.1553 17.2742 12.1553 17.3766C12.053 17.3766 11.9506 17.3766 11.8482 17.3766C11.6435 17.3766 11.4387 17.3766 11.234 17.3766C11.234 17.513 11.234 17.6496 11.234 17.7861C10.9951 17.7861 10.7562 17.7861 10.5173 17.7861C10.415 17.7861 10.3126 17.7861 10.2102 17.7861C10.2102 16.5576 10.2102 15.3291 10.2102 14.1006C10.3126 14.1006 10.415 14.1006 10.5173 14.1006Z" fill="#96DE5B"/>
<path fill-rule="evenodd" clip-rule="evenodd" d="M11.2338 14.1006C11.4385 14.1006 11.6433 14.1006 11.848 14.1006C11.848 14.237 11.848 14.3736 11.848 14.5101C11.6433 14.5101 11.4385 14.5101 11.2338 14.5101C11.2338 14.3736 11.2338 14.237 11.2338 14.1006Z" fill="#FEFFCA"/>
<path fill-rule="evenodd" clip-rule="evenodd" d="M21.369 14.1006C21.4713 14.1006 21.5737 14.1006 21.6761 14.1006C21.6761 15.3291 21.6761 16.5576 21.6761 17.7861C21.3349 17.7861 20.9936 17.7861 20.6523 17.7861C20.6523 17.6496 20.6523 17.513 20.6523 17.3766C20.4476 17.3766 20.2428 17.3766 20.0381 17.3766C19.9357 17.3766 19.8333 17.3766 19.731 17.3766C19.731 17.2742 19.731 17.1718 19.731 17.0695C19.6286 17.0695 19.5262 17.0695 19.4238 17.0695C19.4238 16.3187 19.4238 15.5679 19.4238 14.8172C19.5262 14.8172 19.6286 14.8172 19.731 14.8172C19.731 14.7148 19.731 14.6125 19.731 14.5101C20.0381 14.5101 20.3452 14.5101 20.6523 14.5101C20.6523 14.3736 20.6523 14.237 20.6523 14.1006C20.8912 14.1006 21.1301 14.1006 21.369 14.1006Z" fill="#25AE26"/>
<path fill-rule="evenodd" clip-rule="evenodd" d="M12.1553 14.51C12.2576 14.51 12.36 14.51 12.4624 14.51C12.5989 14.51 12.7354 14.51 12.8719 14.51C12.8719 14.6124 12.8719 14.7148 12.8719 14.8171C12.7354 14.8171 12.5989 14.8171 12.4624 14.8171C12.36 14.8171 12.2576 14.8171 12.1553 14.8171C12.1553 14.7148 12.1553 14.6124 12.1553 14.51Z" fill="#FEFFF8"/>
<path fill-rule="evenodd" clip-rule="evenodd" d="M19.0143 14.51C19.0143 14.6124 19.0143 14.7148 19.0143 14.8171C19.0143 15.6703 19.0143 16.5234 19.0143 17.3765C19.0143 17.513 19.0143 17.6496 19.0143 17.786C18.9119 17.786 18.8095 17.786 18.7071 17.786C18.7071 17.8884 18.7071 17.9908 18.7071 18.0931C18.6048 18.0931 18.5024 18.0931 18.4 18.0931C18.4 18.1955 18.4 18.2979 18.4 18.4003C18.2976 18.4003 18.1953 18.4003 18.0929 18.4003C18.0929 18.5026 18.0929 18.605 18.0929 18.7074C17.9905 18.7074 17.8881 18.7074 17.7858 18.7074C17.7858 18.8098 17.7858 18.9121 17.7858 19.0145C17.6493 19.0145 17.5127 19.0145 17.3763 19.0145C17.3763 19.2533 17.3763 19.4923 17.3763 19.7311C17.2739 19.7311 17.1715 19.7311 17.0691 19.7311C17.0691 19.6288 17.0691 19.5264 17.0691 19.424C16.3184 19.424 15.5677 19.424 14.8169 19.424C14.8169 19.2876 14.8169 19.151 14.8169 19.0145C14.8169 18.9121 14.8169 18.8098 14.8169 18.7074C14.9193 18.7074 15.0216 18.7074 15.124 18.7074C15.124 18.605 15.124 18.5026 15.124 18.4003C15.2264 18.4003 15.3288 18.4003 15.4311 18.4003C15.4311 18.2979 15.4311 18.1955 15.4311 18.0931C15.5335 18.0931 15.6359 18.0931 15.7383 18.0931C15.7383 17.9908 15.7383 17.8884 15.7383 17.786C15.8748 17.786 16.0113 17.786 16.1478 17.786C16.1478 17.6496 16.1478 17.513 16.1478 17.3765C16.2501 17.3765 16.3525 17.3765 16.4549 17.3765C16.4549 17.2741 16.4549 17.1718 16.4549 17.0694C16.5573 17.0694 16.6596 17.0694 16.762 17.0694C16.762 16.8646 16.762 16.6599 16.762 16.4551C16.8644 16.4551 16.9668 16.4551 17.0691 16.4551C17.0691 16.3528 17.0691 16.2504 17.0691 16.148C17.1715 16.148 17.2739 16.148 17.3763 16.148C17.3763 16.0116 17.3763 15.875 17.3763 15.7385C17.5127 15.7385 17.6493 15.7385 17.7858 15.7385C17.7858 15.6361 17.7858 15.5338 17.7858 15.4314C17.8881 15.4314 17.9905 15.4314 18.0929 15.4314C18.0929 15.329 18.0929 15.2266 18.0929 15.1243C18.1953 15.1243 18.2976 15.1243 18.4 15.1243C18.4 15.0219 18.4 14.9195 18.4 14.8171C18.5024 14.8171 18.6048 14.8171 18.7071 14.8171C18.7071 14.7148 18.7071 14.6124 18.7071 14.51C18.8095 14.51 18.9119 14.51 19.0143 14.51Z" fill="#A7EB5B"/>
<path fill-rule="evenodd" clip-rule="evenodd" d="M19.0143 14.51C19.2531 14.51 19.4921 14.51 19.7309 14.51C19.7309 14.6124 19.7309 14.7148 19.7309 14.8171C19.6285 14.8171 19.5262 14.8171 19.4238 14.8171C19.2873 14.8171 19.1507 14.8171 19.0143 14.8171C19.0143 14.7148 19.0143 14.6124 19.0143 14.51Z" fill="#FEFFCA"/>
<path fill-rule="evenodd" clip-rule="evenodd" d="M12.4623 14.8171C12.5988 14.8171 12.7353 14.8171 12.8718 14.8171C12.8718 15.5679 12.8718 16.3187 12.8718 17.0694C12.7353 17.0694 12.5988 17.0694 12.4623 17.0694C12.4623 16.3187 12.4623 15.5679 12.4623 14.8171Z" fill="#FEFFCA"/>
<path fill-rule="evenodd" clip-rule="evenodd" d="M19.0143 14.8171C19.1507 14.8171 19.2873 14.8171 19.4238 14.8171C19.4238 15.5679 19.4238 16.3187 19.4238 17.0694C19.5262 17.0694 19.6285 17.0694 19.7309 17.0694C19.7309 17.1718 19.7309 17.2741 19.7309 17.3765C19.4921 17.3765 19.2531 17.3765 19.0143 17.3765C19.0143 16.5234 19.0143 15.6703 19.0143 14.8171Z" fill="#D1F988"/>
<path fill-rule="evenodd" clip-rule="evenodd" d="M22.2903 14.1006C22.4268 14.1006 22.5634 14.1006 22.6998 14.1006C22.6998 15.7386 22.6998 17.3766 22.6998 19.0146C22.8022 19.0146 22.9046 19.0146 23.007 19.0146C23.007 17.6154 23.007 16.2163 23.007 14.8172C23.1093 14.8172 23.2117 14.8172 23.3141 14.8172C23.3141 15.022 23.3141 15.2267 23.3141 15.4315C23.4165 15.4315 23.5188 15.4315 23.6212 15.4315C23.6212 15.6703 23.6212 15.9092 23.6212 16.1481C23.7236 16.1481 23.826 16.1481 23.9283 16.1481C23.9283 17.0012 23.9283 17.8543 23.9283 18.7075C24.0648 18.7075 24.2014 18.7075 24.3378 18.7075C24.3378 18.8098 24.3378 18.9122 24.3378 19.0146C24.099 19.0146 23.86 19.0146 23.6212 19.0146C23.6212 19.151 23.6212 19.2876 23.6212 19.4241C23.5188 19.4241 23.4165 19.4241 23.3141 19.4241C23.3141 19.5265 23.3141 19.6288 23.3141 19.7312C23.2117 19.7312 23.1093 19.7312 23.007 19.7312C23.007 19.8336 23.007 19.936 23.007 20.0383C22.9046 20.0383 22.8022 20.0383 22.6998 20.0383C22.6998 20.1407 22.6998 20.2431 22.6998 20.3455C22.5634 20.3455 22.4268 20.3455 22.2903 20.3455C22.2903 20.4478 22.2903 20.5502 22.2903 20.6526C22.188 20.6526 22.0856 20.6526 21.9832 20.6526C21.9832 20.789 21.9832 20.9256 21.9832 21.0621C21.8808 21.0621 21.7785 21.0621 21.6761 21.0621C21.6761 21.1645 21.6761 21.2668 21.6761 21.3692C21.5737 21.3692 21.4713 21.3692 21.369 21.3692C21.369 21.4716 21.369 21.574 21.369 21.6763C21.2666 21.6763 21.1642 21.6763 21.0618 21.6763C21.0618 21.7787 21.0618 21.8811 21.0618 21.9835C20.9254 21.9835 20.7888 21.9835 20.6523 21.9835C20.6523 22.0858 20.6523 22.1882 20.6523 22.2906C20.55 22.2906 20.4476 22.2906 20.3452 22.2906C20.3452 22.427 20.3452 22.5636 20.3452 22.7001C20.2428 22.7001 20.1405 22.7001 20.0381 22.7001C20.0381 22.8025 20.0381 22.9048 20.0381 23.0072C19.9357 23.0072 19.8333 23.0072 19.731 23.0072C19.731 23.1096 19.731 23.212 19.731 23.3143C19.6286 23.3143 19.5262 23.3143 19.4238 23.3143C19.4238 23.4167 19.4238 23.5191 19.4238 23.6215C19.2874 23.6215 19.1508 23.6215 19.0143 23.6215C19.0143 23.8603 19.0143 24.0992 19.0143 24.3381C18.9119 24.3381 18.8096 24.3381 18.7072 24.3381C18.7072 24.2016 18.7072 24.065 18.7072 23.9286C16.8644 23.9286 15.0217 23.9286 13.1789 23.9286C13.1789 24.065 13.1789 24.2016 13.1789 24.3381C13.0766 24.3381 12.9742 24.3381 12.8718 24.3381C12.8718 24.0992 12.8718 23.8603 12.8718 23.6215C12.7353 23.6215 12.5988 23.6215 12.4623 23.6215C12.4623 23.5191 12.4623 23.4167 12.4623 23.3143C12.36 23.3143 12.2576 23.3143 12.1552 23.3143C12.1552 23.212 12.1552 23.1096 12.1552 23.0072C12.0528 23.0072 11.9505 23.0072 11.8481 23.0072C11.8481 22.9048 11.8481 22.8025 11.8481 22.7001C11.7457 22.7001 11.6433 22.7001 11.541 22.7001C11.541 22.5636 11.541 22.427 11.541 22.2906C11.4386 22.2906 11.3362 22.2906 11.2338 22.2906C11.2338 22.1882 11.2338 22.0858 11.2338 21.9835C11.0973 21.9835 10.9608 21.9835 10.8243 21.9835C10.8243 21.8811 10.8243 21.7787 10.8243 21.6763C10.722 21.6763 10.6196 21.6763 10.5172 21.6763C10.5172 21.574 10.5172 21.4716 10.5172 21.3692C10.5172 21.1303 10.5172 20.8914 10.5172 20.6526C10.4148 20.6526 10.3125 20.6526 10.2101 20.6526C10.2101 20.5502 10.2101 20.4478 10.2101 20.3455C10.5513 20.3455 10.8926 20.3455 11.2338 20.3455C11.2338 20.2431 11.2338 20.1407 11.2338 20.0383C10.8926 20.0383 10.5513 20.0383 10.2101 20.0383C10.1077 20.0383 10.0053 20.0383 9.90295 20.0383C9.90295 19.936 9.90295 19.8336 9.90295 19.7312C9.80058 19.7312 9.6982 19.7312 9.59583 19.7312C9.59583 19.6288 9.59583 19.5265 9.59583 19.4241C9.6982 19.4241 9.80058 19.4241 9.90295 19.4241C9.90295 19.2876 9.90295 19.151 9.90295 19.0146C10.0053 19.0146 10.1077 19.0146 10.2101 19.0146C10.2101 19.151 10.2101 19.2876 10.2101 19.4241C10.3125 19.4241 10.4148 19.4241 10.5172 19.4241C10.5172 19.5265 10.5172 19.6288 10.5172 19.7312C10.8584 19.7312 11.1997 19.7312 11.541 19.7312C11.541 19.6288 11.541 19.5265 11.541 19.4241C11.7457 19.4241 11.9505 19.4241 12.1552 19.4241C12.1552 19.2876 12.1552 19.151 12.1552 19.0146C12.3941 19.0146 12.6329 19.0146 12.8718 19.0146C12.8718 19.151 12.8718 19.2876 12.8718 19.4241C12.8718 19.5265 12.8718 19.6288 12.8718 19.7312C12.7353 19.7312 12.5988 19.7312 12.4623 19.7312C12.4623 19.936 12.4623 20.1407 12.4623 20.3455C12.36 20.3455 12.2576 20.3455 12.1552 20.3455C12.1552 20.6867 12.1552 21.0279 12.1552 21.3692C12.2576 21.3692 12.36 21.3692 12.4623 21.3692C12.4623 21.4716 12.4623 21.574 12.4623 21.6763C12.5988 21.6763 12.7353 21.6763 12.8718 21.6763C12.8718 21.7787 12.8718 21.8811 12.8718 21.9835C12.9742 21.9835 13.0766 21.9835 13.1789 21.9835C13.1789 22.0858 13.1789 22.1882 13.1789 22.2906C15.0217 22.2906 16.8644 22.2906 18.7072 22.2906C18.7072 22.1882 18.7072 22.0858 18.7072 21.9835C18.8096 21.9835 18.9119 21.9835 19.0143 21.9835C19.0143 21.8811 19.0143 21.7787 19.0143 21.6763C19.1508 21.6763 19.2874 21.6763 19.4238 21.6763C19.4238 21.574 19.4238 21.4716 19.4238 21.3692C19.5262 21.3692 19.6286 21.3692 19.731 21.3692C19.731 21.0279 19.731 20.6867 19.731 20.3455C19.6286 20.3455 19.5262 20.3455 19.4238 20.3455C19.4238 20.1407 19.4238 19.936 19.4238 19.7312C19.2874 19.7312 19.1508 19.7312 19.0143 19.7312C19.0143 19.6288 19.0143 19.5265 19.0143 19.4241C19.0143 19.2876 19.0143 19.151 19.0143 19.0146C19.2532 19.0146 19.4921 19.0146 19.731 19.0146C19.731 19.151 19.731 19.2876 19.731 19.4241C19.9357 19.4241 20.1405 19.4241 20.3452 19.4241C20.3452 19.5265 20.3452 19.6288 20.3452 19.7312C20.6864 19.7312 21.0277 19.7312 21.369 19.7312C21.369 19.6288 21.369 19.5265 21.369 19.4241C21.4713 19.4241 21.5737 19.4241 21.6761 19.4241C21.6761 19.2876 21.6761 19.151 21.6761 19.0146C21.7785 19.0146 21.8808 19.0146 21.9832 19.0146C21.9832 18.9122 21.9832 18.8098 21.9832 18.7075C22.0856 18.7075 22.188 18.7075 22.2903 18.7075C22.2903 18.6051 22.2903 18.5027 22.2903 18.4003C22.2903 16.9671 22.2903 15.5338 22.2903 14.1006Z" fill="#FCC659"/>
<path fill-rule="evenodd" clip-rule="evenodd" d="M12.4624 17.0693C12.5989 17.0693 12.7354 17.0693 12.8719 17.0693C12.8719 17.1717 12.8719 17.2741 12.8719 17.3765C12.633 17.3765 12.3942 17.3765 12.1553 17.3765C12.1553 17.2741 12.1553 17.1717 12.1553 17.0693C12.2576 17.0693 12.36 17.0693 12.4624 17.0693Z" fill="#FEFFF8"/>
<path fill-rule="evenodd" clip-rule="evenodd" d="M11.848 17.3765C11.848 17.513 11.848 17.6495 11.848 17.786C11.7456 17.786 11.6433 17.786 11.5409 17.786C11.4385 17.786 11.3361 17.786 11.2338 17.786C11.2338 17.6495 11.2338 17.513 11.2338 17.3765C11.4385 17.3765 11.6433 17.3765 11.848 17.3765Z" fill="#E5FF9D"/>
<path fill-rule="evenodd" clip-rule="evenodd" d="M11.848 17.3765C11.9504 17.3765 12.0528 17.3765 12.1551 17.3765C12.394 17.3765 12.6329 17.3765 12.8718 17.3765C12.8718 17.513 12.8718 17.6495 12.8718 17.786C12.9741 17.786 13.0765 17.786 13.1789 17.786C13.1789 17.8883 13.1789 17.9907 13.1789 18.0931C13.0765 18.0931 12.9741 18.0931 12.8718 18.0931C12.8718 18.1955 12.8718 18.2978 12.8718 18.4002C12.7353 18.4002 12.5988 18.4002 12.4623 18.4002C12.4623 18.2978 12.4623 18.1955 12.4623 18.0931C12.1551 18.0931 11.848 18.0931 11.5409 18.0931C11.5409 17.9907 11.5409 17.8883 11.5409 17.786C11.6433 17.786 11.7456 17.786 11.848 17.786C11.848 17.6495 11.848 17.513 11.848 17.3765Z" fill="#486E1D"/>
<path fill-rule="evenodd" clip-rule="evenodd" d="M19.0144 17.3765C19.2532 17.3765 19.4921 17.3765 19.731 17.3765C19.8334 17.3765 19.9358 17.3765 20.0382 17.3765C20.0382 17.513 20.0382 17.6495 20.0382 17.786C20.1405 17.786 20.2429 17.786 20.3453 17.786C20.3453 17.8883 20.3453 17.9907 20.3453 18.0931C20.0382 18.0931 19.731 18.0931 19.4239 18.0931C19.4239 18.1955 19.4239 18.2978 19.4239 18.4002C19.2874 18.4002 19.1509 18.4002 19.0144 18.4002C19.0144 18.2978 19.0144 18.1955 19.0144 18.0931C18.912 18.0931 18.8097 18.0931 18.7073 18.0931C18.7073 17.9907 18.7073 17.8883 18.7073 17.786C18.8097 17.786 18.912 17.786 19.0144 17.786C19.0144 17.6495 19.0144 17.513 19.0144 17.3765Z" fill="#205E2D"/>
<path fill-rule="evenodd" clip-rule="evenodd" d="M20.0382 17.3765C20.243 17.3765 20.4477 17.3765 20.6525 17.3765C20.6525 17.513 20.6525 17.6495 20.6525 17.786C20.5501 17.786 20.4477 17.786 20.3453 17.786C20.243 17.786 20.1406 17.786 20.0382 17.786C20.0382 17.6495 20.0382 17.513 20.0382 17.3765Z" fill="#96DE5B"/>
<path fill-rule="evenodd" clip-rule="evenodd" d="M10.5173 17.7859C10.7562 17.7859 10.9951 17.7859 11.234 17.7859C11.234 17.8883 11.234 17.9906 11.234 18.093C10.9951 18.093 10.7562 18.093 10.5173 18.093C10.5173 17.9906 10.5173 17.8883 10.5173 17.7859Z" fill="#E5FF9D"/>
<path fill-rule="evenodd" clip-rule="evenodd" d="M11.2338 17.7859C11.3362 17.7859 11.4386 17.7859 11.541 17.7859C11.541 17.8883 11.541 17.9906 11.541 18.093C11.8481 18.093 12.1552 18.093 12.4623 18.093C12.4623 18.1954 12.4623 18.2978 12.4623 18.4001C12.5988 18.4001 12.7353 18.4001 12.8718 18.4001C12.8718 18.6049 12.8718 18.8096 12.8718 19.0144C12.6329 19.0144 12.3941 19.0144 12.1552 19.0144C11.9505 19.0144 11.7457 19.0144 11.541 19.0144C11.541 19.1508 11.541 19.2874 11.541 19.4239C11.4386 19.4239 11.3362 19.4239 11.2338 19.4239C11.2338 19.2874 11.2338 19.1508 11.2338 19.0144C10.995 19.0144 10.7561 19.0144 10.5172 19.0144C10.5172 19.1508 10.5172 19.2874 10.5172 19.4239C10.4148 19.4239 10.3125 19.4239 10.2101 19.4239C10.2101 19.2874 10.2101 19.1508 10.2101 19.0144C10.1077 19.0144 10.0053 19.0144 9.90295 19.0144C9.90295 18.912 9.90295 18.8096 9.90295 18.7073C9.80058 18.7073 9.6982 18.7073 9.59583 18.7073C9.59583 18.6049 9.59583 18.5025 9.59583 18.4001C9.6982 18.4001 9.80058 18.4001 9.90295 18.4001C10.0053 18.4001 10.1077 18.4001 10.2101 18.4001C10.2101 18.2978 10.2101 18.1954 10.2101 18.093C10.3125 18.093 10.4148 18.093 10.5172 18.093C10.7561 18.093 10.995 18.093 11.2338 18.093C11.2338 17.9906 11.2338 17.8883 11.2338 17.7859Z" fill="#48942D"/>
<path fill-rule="evenodd" clip-rule="evenodd" d="M20.3451 17.7859C20.4475 17.7859 20.5498 17.7859 20.6522 17.7859C20.6522 17.8883 20.6522 17.9906 20.6522 18.093C20.9934 18.093 21.3348 18.093 21.676 18.093C21.676 18.1954 21.676 18.2978 21.676 18.4001C21.7783 18.4001 21.8807 18.4001 21.9831 18.4001C22.0855 18.4001 22.1878 18.4001 22.2902 18.4001C22.2902 18.5025 22.2902 18.6049 22.2902 18.7073C22.1878 18.7073 22.0855 18.7073 21.9831 18.7073C21.9831 18.8096 21.9831 18.912 21.9831 19.0144C21.8807 19.0144 21.7783 19.0144 21.676 19.0144C21.676 19.1508 21.676 19.2874 21.676 19.4239C21.5736 19.4239 21.4712 19.4239 21.3688 19.4239C21.3688 19.5263 21.3688 19.6286 21.3688 19.731C21.0276 19.731 20.6863 19.731 20.3451 19.731C20.3451 19.6286 20.3451 19.5263 20.3451 19.4239C20.1403 19.4239 19.9356 19.4239 19.7308 19.4239C19.7308 19.2874 19.7308 19.1508 19.7308 19.0144C19.492 19.0144 19.253 19.0144 19.0142 19.0144C19.0142 19.1508 19.0142 19.2874 19.0142 19.4239C18.7071 19.4239 18.4 19.4239 18.0928 19.4239C18.0928 19.731 18.0928 20.0381 18.0928 20.3453C17.9905 20.3453 17.8881 20.3453 17.7857 20.3453C17.7857 20.2429 17.7857 20.1405 17.7857 20.0381C17.6493 20.0381 17.5127 20.0381 17.3762 20.0381C17.3762 19.9358 17.3762 19.8334 17.3762 19.731C17.3762 19.4922 17.3762 19.2532 17.3762 19.0144C17.5127 19.0144 17.6493 19.0144 17.7857 19.0144C17.7857 18.912 17.7857 18.8096 17.7857 18.7073C17.8881 18.7073 17.9905 18.7073 18.0928 18.7073C18.0928 18.6049 18.0928 18.5025 18.0928 18.4001C18.1952 18.4001 18.2976 18.4001 18.4 18.4001C18.4 18.2978 18.4 18.1954 18.4 18.093C18.5023 18.093 18.6047 18.093 18.7071 18.093C18.8095 18.093 18.9118 18.093 19.0142 18.093C19.0142 18.1954 19.0142 18.2978 19.0142 18.4001C19.1507 18.4001 19.2873 18.4001 19.4237 18.4001C19.4237 18.2978 19.4237 18.1954 19.4237 18.093C19.7308 18.093 20.038 18.093 20.3451 18.093C20.3451 17.9906 20.3451 17.8883 20.3451 17.7859Z" fill="#3E6A23"/>
<path fill-rule="evenodd" clip-rule="evenodd" d="M9.90295 18.093C10.0053 18.093 10.1077 18.093 10.2101 18.093C10.2101 18.1954 10.2101 18.2978 10.2101 18.4001C10.1077 18.4001 10.0053 18.4001 9.90295 18.4001C9.90295 18.2978 9.90295 18.1954 9.90295 18.093Z" fill="#E5FF9D"/>
<path fill-rule="evenodd" clip-rule="evenodd" d="M13.179 18.093C13.2813 18.093 13.3837 18.093 13.4861 18.093C13.4861 18.1954 13.4861 18.2978 13.4861 18.4001C13.5885 18.4001 13.6908 18.4001 13.7932 18.4001C13.7932 18.5025 13.7932 18.6049 13.7932 18.7073C13.7932 18.8096 13.7932 18.912 13.7932 19.0144C13.6908 19.0144 13.5885 19.0144 13.4861 19.0144C13.4861 19.1508 13.4861 19.2874 13.4861 19.4239C13.3837 19.4239 13.2813 19.4239 13.179 19.4239C13.179 19.2874 13.179 19.1508 13.179 19.0144C13.0766 19.0144 12.9742 19.0144 12.8718 19.0144C12.8718 18.8096 12.8718 18.6049 12.8718 18.4001C12.8718 18.2978 12.8718 18.1954 12.8718 18.093C12.9742 18.093 13.0766 18.093 13.179 18.093Z" fill="#2AAB28"/>
<path fill-rule="evenodd" clip-rule="evenodd" d="M13.179 18.093C13.2813 18.093 13.3837 18.093 13.4861 18.093C13.4861 18.1954 13.4861 18.2978 13.4861 18.4001C13.3837 18.4001 13.2813 18.4001 13.179 18.4001C13.179 18.2978 13.179 18.1954 13.179 18.093Z" fill="#486E1D"/>
<path fill-rule="evenodd" clip-rule="evenodd" d="M13.7933 18.7073C13.8957 18.7073 13.9981 18.7073 14.1005 18.7073C14.1005 18.8097 14.1005 18.912 14.1005 19.0144C14.2369 19.0144 14.3734 19.0144 14.51 19.0144C14.51 19.2532 14.51 19.4921 14.51 19.731C14.51 19.8334 14.51 19.9358 14.51 20.0382C14.3734 20.0382 14.2369 20.0382 14.1005 20.0382C14.1005 20.1405 14.1005 20.2429 14.1005 20.3453C13.9981 20.3453 13.8957 20.3453 13.7933 20.3453C13.7933 20.0382 13.7933 19.731 13.7933 19.4239C13.691 19.4239 13.5886 19.4239 13.4862 19.4239C13.4862 19.2874 13.4862 19.1509 13.4862 19.0144C13.5886 19.0144 13.691 19.0144 13.7933 19.0144C13.7933 18.912 13.7933 18.8097 13.7933 18.7073Z" fill="#45982F"/>
<path fill-rule="evenodd" clip-rule="evenodd" d="M7.95784 19.0142C8.06021 19.0142 8.16259 19.0142 8.26496 19.0142C8.26496 19.1506 8.26496 19.2872 8.26496 19.4237C8.36734 19.4237 8.46971 19.4237 8.57209 19.4237C8.57209 19.526 8.57209 19.6284 8.57209 19.7308C8.67446 19.7308 8.77684 19.7308 8.87921 19.7308C8.87921 19.8332 8.87921 19.9355 8.87921 20.0379C8.98159 20.0379 9.08396 20.0379 9.18634 20.0379C9.18634 20.1403 9.18634 20.2427 9.18634 20.345C9.32283 20.345 9.45934 20.345 9.59584 20.345C9.59584 20.4474 9.59584 20.5498 9.59584 20.6522C9.69821 20.6522 9.80059 20.6522 9.90296 20.6522C9.90296 20.7886 9.90296 20.9252 9.90296 21.0617C10.0053 21.0617 10.1077 21.0617 10.2101 21.0617C10.2101 21.164 10.2101 21.2664 10.2101 21.3688C10.3125 21.3688 10.4148 21.3688 10.5172 21.3688C10.5172 21.4712 10.5172 21.5735 10.5172 21.6759C10.6196 21.6759 10.722 21.6759 10.8243 21.6759C10.8243 21.7783 10.8243 21.8807 10.8243 21.983C10.9608 21.983 11.0973 21.983 11.2338 21.983C11.2338 22.0854 11.2338 22.1878 11.2338 22.2902C11.3362 22.2902 11.4386 22.2902 11.541 22.2902C11.541 22.4266 11.541 22.5632 11.541 22.6997C11.6434 22.6997 11.7458 22.6997 11.8481 22.6997C11.8481 22.802 11.8481 22.9044 11.8481 23.0068C11.9505 23.0068 12.0529 23.0068 12.1553 23.0068C12.1553 23.1092 12.1553 23.2115 12.1553 23.3139C12.2576 23.3139 12.36 23.3139 12.4624 23.3139C12.4624 23.4163 12.4624 23.5187 12.4624 23.621C12.5988 23.621 12.7354 23.621 12.8719 23.621C12.8719 23.8599 12.8719 24.0988 12.8719 24.3377C12.8719 24.44 12.8719 24.5424 12.8719 24.6448C12.7354 24.6448 12.5988 24.6448 12.4624 24.6448C12.4624 24.5424 12.4624 24.44 12.4624 24.3377C12.36 24.3377 12.2576 24.3377 12.1553 24.3377C12.1553 24.2012 12.1553 24.0646 12.1553 23.9282C12.0529 23.9282 11.9505 23.9282 11.8481 23.9282C11.8481 23.8258 11.8481 23.7234 11.8481 23.621C11.7458 23.621 11.6434 23.621 11.541 23.621C11.541 23.5187 11.541 23.4163 11.541 23.3139C11.4386 23.3139 11.3362 23.3139 11.2338 23.3139C11.2338 23.2115 11.2338 23.1092 11.2338 23.0068C11.0973 23.0068 10.9608 23.0068 10.8243 23.0068C10.8243 22.9044 10.8243 22.802 10.8243 22.6997C10.722 22.6997 10.6196 22.6997 10.5172 22.6997C10.5172 22.5632 10.5172 22.4266 10.5172 22.2902C10.4148 22.2902 10.3125 22.2902 10.2101 22.2902C10.2101 22.1878 10.2101 22.0854 10.2101 21.983C10.1077 21.983 10.0053 21.983 9.90296 21.983C9.90296 21.8807 9.90296 21.7783 9.90296 21.6759C9.80059 21.6759 9.69821 21.6759 9.59584 21.6759C9.59584 21.5735 9.59584 21.4712 9.59584 21.3688C9.45934 21.3688 9.32283 21.3688 9.18634 21.3688C9.18634 21.2664 9.18634 21.164 9.18634 21.0617C9.08396 21.0617 8.98159 21.0617 8.87921 21.0617C8.87921 20.9252 8.87921 20.7886 8.87921 20.6522C8.77684 20.6522 8.67446 20.6522 8.57209 20.6522C8.57209 20.5498 8.57209 20.4474 8.57209 20.345C8.46971 20.345 8.36734 20.345 8.26496 20.345C8.26496 20.2427 8.26496 20.1403 8.26496 20.0379C8.16259 20.0379 8.06021 20.0379 7.95784 20.0379C7.95784 19.9355 7.95784 19.8332 7.95784 19.7308C7.82134 19.7308 7.68483 19.7308 7.54834 19.7308C7.54834 19.6284 7.54834 19.526 7.54834 19.4237C7.54834 19.2872 7.54834 19.1506 7.54834 19.0142C7.68483 19.0142 7.82134 19.0142 7.95784 19.0142Z" fill="#C08432"/>
<path fill-rule="evenodd" clip-rule="evenodd" d="M11.234 19.4237C10.9951 19.4237 10.7562 19.4237 10.5173 19.4237C10.5173 19.2872 10.5173 19.1506 10.5173 19.0142C10.7562 19.0142 10.9951 19.0142 11.234 19.0142C11.234 19.1506 11.234 19.2872 11.234 19.4237Z" fill="#64C036"/>
<path fill-rule="evenodd" clip-rule="evenodd" d="M12.1551 19.0142C12.1551 19.1506 12.1551 19.2872 12.1551 19.4237C11.9504 19.4237 11.7456 19.4237 11.5409 19.4237C11.5409 19.2872 11.5409 19.1506 11.5409 19.0142C11.7456 19.0142 11.9504 19.0142 12.1551 19.0142Z" fill="#486E1D"/>
<path fill-rule="evenodd" clip-rule="evenodd" d="M12.8718 19.0142C12.9742 19.0142 13.0766 19.0142 13.179 19.0142C13.179 19.1506 13.179 19.2872 13.179 19.4237C13.0766 19.4237 12.9742 19.4237 12.8718 19.4237C12.8718 19.2872 12.8718 19.1506 12.8718 19.0142Z" fill="#486E1D"/>
<path fill-rule="evenodd" clip-rule="evenodd" d="M14.5099 19.0142C14.6123 19.0142 14.7146 19.0142 14.817 19.0142C14.817 19.1506 14.817 19.2872 14.817 19.4237C14.817 19.526 14.817 19.6284 14.817 19.7308C14.7146 19.7308 14.6123 19.7308 14.5099 19.7308C14.5099 19.492 14.5099 19.253 14.5099 19.0142Z" fill="#FEFFCA"/>
<path fill-rule="evenodd" clip-rule="evenodd" d="M21.369 19.4237C21.1301 19.4237 20.8912 19.4237 20.6523 19.4237C20.6523 19.2872 20.6523 19.1506 20.6523 19.0142C20.8912 19.0142 21.1301 19.0142 21.369 19.0142C21.369 19.1506 21.369 19.2872 21.369 19.4237Z" fill="#45982F"/>
<path fill-rule="evenodd" clip-rule="evenodd" d="M22.6999 19.0142C22.6999 19.1506 22.6999 19.2872 22.6999 19.4237C22.5635 19.4237 22.4269 19.4237 22.2904 19.4237C22.2904 19.2872 22.2904 19.1506 22.2904 19.0142C22.4269 19.0142 22.5635 19.0142 22.6999 19.0142Z" fill="#C08432"/>
<path fill-rule="evenodd" clip-rule="evenodd" d="M24.3378 19.0142C24.3378 19.1506 24.3378 19.2872 24.3378 19.4237C24.3378 19.526 24.3378 19.6284 24.3378 19.7308C24.2014 19.7308 24.0648 19.7308 23.9283 19.7308C23.9283 19.8332 23.9283 19.9355 23.9283 20.0379C23.826 20.0379 23.7236 20.0379 23.6212 20.0379C23.6212 20.1403 23.6212 20.2427 23.6212 20.345C23.5188 20.345 23.4165 20.345 23.3141 20.345C23.3141 20.4474 23.3141 20.5498 23.3141 20.6522C23.2117 20.6522 23.1093 20.6522 23.007 20.6522C23.007 20.7886 23.007 20.9252 23.007 21.0617C22.9046 21.0617 22.8022 21.0617 22.6998 21.0617C22.6998 21.164 22.6998 21.2664 22.6998 21.3688C22.5634 21.3688 22.4268 21.3688 22.2903 21.3688C22.2903 21.4712 22.2903 21.5735 22.2903 21.6759C22.188 21.6759 22.0856 21.6759 21.9832 21.6759C21.9832 21.7783 21.9832 21.8807 21.9832 21.983C21.8808 21.983 21.7785 21.983 21.6761 21.983C21.6761 22.0854 21.6761 22.1878 21.6761 22.2902C21.5737 22.2902 21.4713 22.2902 21.369 22.2902C21.369 22.4266 21.369 22.5632 21.369 22.6997C21.2666 22.6997 21.1642 22.6997 21.0618 22.6997C21.0618 22.802 21.0618 22.9044 21.0618 23.0068C20.9254 23.0068 20.7888 23.0068 20.6523 23.0068C20.6523 23.1092 20.6523 23.2115 20.6523 23.3139C20.55 23.3139 20.4476 23.3139 20.3452 23.3139C20.3452 23.4163 20.3452 23.5187 20.3452 23.621C20.2428 23.621 20.1405 23.621 20.0381 23.621C20.0381 23.7234 20.0381 23.8258 20.0381 23.9282C19.9357 23.9282 19.8333 23.9282 19.731 23.9282C19.731 24.0646 19.731 24.2012 19.731 24.3377C19.6286 24.3377 19.5262 24.3377 19.4238 24.3377C19.4238 24.44 19.4238 24.5424 19.4238 24.6448C17.2399 24.6448 15.0558 24.6448 12.8718 24.6448C12.8718 24.5424 12.8718 24.44 12.8718 24.3377C12.9742 24.3377 13.0766 24.3377 13.179 24.3377C13.179 24.2012 13.179 24.0646 13.179 23.9282C15.0217 23.9282 16.8645 23.9282 18.7072 23.9282C18.7072 24.0646 18.7072 24.2012 18.7072 24.3377C18.8096 24.3377 18.912 24.3377 19.0143 24.3377C19.0143 24.0988 19.0143 23.8599 19.0143 23.621C19.1508 23.621 19.2874 23.621 19.4238 23.621C19.4238 23.5187 19.4238 23.4163 19.4238 23.3139C19.5262 23.3139 19.6286 23.3139 19.731 23.3139C19.731 23.2115 19.731 23.1092 19.731 23.0068C19.8333 23.0068 19.9357 23.0068 20.0381 23.0068C20.0381 22.9044 20.0381 22.802 20.0381 22.6997C20.1405 22.6997 20.2428 22.6997 20.3452 22.6997C20.3452 22.5632 20.3452 22.4266 20.3452 22.2902C20.4476 22.2902 20.55 22.2902 20.6523 22.2902C20.6523 22.1878 20.6523 22.0854 20.6523 21.983C20.7888 21.983 20.9254 21.983 21.0618 21.983C21.0618 21.8807 21.0618 21.7783 21.0618 21.6759C21.1642 21.6759 21.2666 21.6759 21.369 21.6759C21.369 21.5735 21.369 21.4712 21.369 21.3688C21.4713 21.3688 21.5737 21.3688 21.6761 21.3688C21.6761 21.2664 21.6761 21.164 21.6761 21.0617C21.7785 21.0617 21.8808 21.0617 21.9832 21.0617C21.9832 20.9252 21.9832 20.7886 21.9832 20.6522C22.0856 20.6522 22.188 20.6522 22.2903 20.6522C22.2903 20.5498 22.2903 20.4474 22.2903 20.345C22.4268 20.345 22.5634 20.345 22.6998 20.345C22.6998 20.2427 22.6998 20.1403 22.6998 20.0379C22.8022 20.0379 22.9046 20.0379 23.007 20.0379C23.007 19.9355 23.007 19.8332 23.007 19.7308C23.1093 19.7308 23.2117 19.7308 23.3141 19.7308C23.3141 19.6284 23.3141 19.526 23.3141 19.4237C23.4165 19.4237 23.5188 19.4237 23.6212 19.4237C23.6212 19.2872 23.6212 19.1506 23.6212 19.0142C23.86 19.0142 24.099 19.0142 24.3378 19.0142Z" fill="#7A4F21"/>
<path fill-rule="evenodd" clip-rule="evenodd" d="M10.5173 19.4238C10.7562 19.4238 10.9951 19.4238 11.234 19.4238C11.3363 19.4238 11.4387 19.4238 11.5411 19.4238C11.5411 19.5262 11.5411 19.6286 11.5411 19.731C11.1998 19.731 10.8586 19.731 10.5173 19.731C10.5173 19.6286 10.5173 19.5262 10.5173 19.4238Z" fill="#406A22"/>
<path fill-rule="evenodd" clip-rule="evenodd" d="M12.8718 19.4238C12.9742 19.4238 13.0765 19.4238 13.1789 19.4238C13.2813 19.4238 13.3837 19.4238 13.486 19.4238C13.5884 19.4238 13.6908 19.4238 13.7932 19.4238C13.7932 19.731 13.7932 20.0381 13.7932 20.3452C13.8955 20.3452 13.9979 20.3452 14.1003 20.3452C14.1003 20.2428 14.1003 20.1405 14.1003 20.0381C14.2368 20.0381 14.3733 20.0381 14.5098 20.0381C14.5098 20.2428 14.5098 20.4476 14.5098 20.6523C14.3733 20.6523 14.2368 20.6523 14.1003 20.6523C14.1003 20.9936 14.1003 21.3349 14.1003 21.6761C15.1923 21.6761 16.2842 21.6761 17.3763 21.6761C17.7175 21.6761 18.0588 21.6761 18.4 21.6761C18.4 21.7785 18.4 21.8808 18.4 21.9832C16.6597 21.9832 14.9193 21.9832 13.1789 21.9832C13.0765 21.9832 12.9742 21.9832 12.8718 21.9832C12.8718 21.8808 12.8718 21.7785 12.8718 21.6761C12.8718 21.5737 12.8718 21.4713 12.8718 21.369C12.7353 21.369 12.5988 21.369 12.4623 21.369C12.4623 21.0278 12.4623 20.6865 12.4623 20.3452C12.4623 20.1405 12.4623 19.9357 12.4623 19.731C12.5988 19.731 12.7353 19.731 12.8718 19.731C12.8718 19.6286 12.8718 19.5262 12.8718 19.4238Z" fill="#6BC23C"/>
<path fill-rule="evenodd" clip-rule="evenodd" d="M14.8168 19.4238C15.5676 19.4238 16.3184 19.4238 17.0691 19.4238C17.0691 19.5262 17.0691 19.6286 17.0691 19.731C17.1715 19.731 17.2738 19.731 17.3762 19.731C17.3762 19.8333 17.3762 19.9357 17.3762 20.0381C17.3762 20.2428 17.3762 20.4476 17.3762 20.6523C17.3762 20.9936 17.3762 21.3349 17.3762 21.6761C16.2842 21.6761 15.1923 21.6761 14.1002 21.6761C14.1002 21.3349 14.1002 20.9936 14.1002 20.6523C14.2367 20.6523 14.3733 20.6523 14.5097 20.6523C14.5097 20.4476 14.5097 20.2428 14.5097 20.0381C14.5097 19.9357 14.5097 19.8333 14.5097 19.731C14.6121 19.731 14.7145 19.731 14.8168 19.731C14.8168 19.6286 14.8168 19.5262 14.8168 19.4238Z" fill="#26AD27"/>
<path fill-rule="evenodd" clip-rule="evenodd" d="M19.0142 19.4238C19.0142 19.5262 19.0142 19.6286 19.0142 19.731C19.0142 19.9357 19.0142 20.1405 19.0142 20.3452C19.1507 20.3452 19.2873 20.3452 19.4237 20.3452C19.4237 20.6865 19.4237 21.0278 19.4237 21.369C19.2873 21.369 19.1507 21.369 19.0142 21.369C19.0142 21.4713 19.0142 21.5737 19.0142 21.6761C18.9118 21.6761 18.8095 21.6761 18.7071 21.6761C18.7071 21.7785 18.7071 21.8808 18.7071 21.9832C18.6047 21.9832 18.5023 21.9832 18.4 21.9832C18.4 21.8808 18.4 21.7785 18.4 21.6761C18.0588 21.6761 17.7174 21.6761 17.3762 21.6761C17.3762 21.3349 17.3762 20.9936 17.3762 20.6523C17.5127 20.6523 17.6493 20.6523 17.7857 20.6523C17.7857 20.55 17.7857 20.4476 17.7857 20.3452C17.8881 20.3452 17.9905 20.3452 18.0928 20.3452C18.0928 20.0381 18.0928 19.731 18.0928 19.4238C18.4 19.4238 18.7071 19.4238 19.0142 19.4238Z" fill="#47982F"/>
<path fill-rule="evenodd" clip-rule="evenodd" d="M19.0143 19.731C19.1507 19.731 19.2873 19.731 19.4238 19.731C19.4238 19.9357 19.4238 20.1405 19.4238 20.3452C19.2873 20.3452 19.1507 20.3452 19.0143 20.3452C19.0143 20.1405 19.0143 19.9357 19.0143 19.731Z" fill="#205E2D"/>
<path fill-rule="evenodd" clip-rule="evenodd" d="M10.2102 20.0378C10.5515 20.0378 10.8927 20.0378 11.234 20.0378C11.234 20.1402 11.234 20.2426 11.234 20.345C10.8927 20.345 10.5515 20.345 10.2102 20.345C10.2102 20.2426 10.2102 20.1402 10.2102 20.0378Z" fill="#B77C2E"/>
<path fill-rule="evenodd" clip-rule="evenodd" d="M17.3762 20.0378C17.5127 20.0378 17.6493 20.0378 17.7857 20.0378C17.7857 20.1402 17.7857 20.2426 17.7857 20.345C17.7857 20.4473 17.7857 20.5497 17.7857 20.6521C17.6493 20.6521 17.5127 20.6521 17.3762 20.6521C17.3762 20.4473 17.3762 20.2426 17.3762 20.0378Z" fill="#96DE5B"/>
<path fill-rule="evenodd" clip-rule="evenodd" d="M20.6523 20.0378C20.9935 20.0378 21.3349 20.0378 21.6761 20.0378C21.6761 20.1402 21.6761 20.2426 21.6761 20.345C21.3349 20.345 20.9935 20.345 20.6523 20.345C20.6523 20.2426 20.6523 20.1402 20.6523 20.0378Z" fill="#B77C2E"/>
<path fill-rule="evenodd" clip-rule="evenodd" d="M12.4624 20.3455C12.4624 20.6867 12.4624 21.028 12.4624 21.3692C12.36 21.3692 12.2576 21.3692 12.1553 21.3692C12.1553 21.028 12.1553 20.6867 12.1553 20.3455C12.2576 20.3455 12.36 20.3455 12.4624 20.3455Z" fill="#468E2B"/>
<path fill-rule="evenodd" clip-rule="evenodd" d="M19.4238 20.3455C19.5262 20.3455 19.6286 20.3455 19.731 20.3455C19.731 20.6867 19.731 21.028 19.731 21.3692C19.6286 21.3692 19.5262 21.3692 19.4238 21.3692C19.4238 21.028 19.4238 20.6867 19.4238 20.3455Z" fill="#1D5529"/>
<path fill-rule="evenodd" clip-rule="evenodd" d="M11.5409 20.6526C11.6433 20.6526 11.7456 20.6526 11.848 20.6526C11.848 20.9938 11.848 21.3351 11.848 21.6763C11.7456 21.6763 11.6433 21.6763 11.5409 21.6763C11.5409 21.3351 11.5409 20.9938 11.5409 20.6526Z" fill="#B77C2E"/>
<path fill-rule="evenodd" clip-rule="evenodd" d="M17.7859 20.6526C17.8883 20.6526 17.9906 20.6526 18.093 20.6526C18.093 20.8914 18.093 21.1304 18.093 21.3692C17.9906 21.3692 17.8883 21.3692 17.7859 21.3692C17.7859 21.1304 17.7859 20.8914 17.7859 20.6526Z" fill="#96DE5B"/>
<path fill-rule="evenodd" clip-rule="evenodd" d="M20.0382 20.6526C20.1406 20.6526 20.243 20.6526 20.3453 20.6526C20.3453 20.9938 20.3453 21.3351 20.3453 21.6763C20.243 21.6763 20.1406 21.6763 20.0382 21.6763C20.0382 21.3351 20.0382 20.9938 20.0382 20.6526Z" fill="#B77C2E"/>
<path fill-rule="evenodd" clip-rule="evenodd" d="M12.4623 21.3691C12.5988 21.3691 12.7353 21.3691 12.8718 21.3691C12.8718 21.4715 12.8718 21.5739 12.8718 21.6763C12.7353 21.6763 12.5988 21.6763 12.4623 21.6763C12.4623 21.5739 12.4623 21.4715 12.4623 21.3691Z" fill="#486E1D"/>
<path fill-rule="evenodd" clip-rule="evenodd" d="M19.4238 21.3691C19.4238 21.4715 19.4238 21.5739 19.4238 21.6763C19.2873 21.6763 19.1507 21.6763 19.0143 21.6763C19.0143 21.5739 19.0143 21.4715 19.0143 21.3691C19.1507 21.3691 19.2873 21.3691 19.4238 21.3691Z" fill="#205E2D"/>
<path fill-rule="evenodd" clip-rule="evenodd" d="M19.0144 21.6763C19.0144 21.7786 19.0144 21.881 19.0144 21.9834C18.912 21.9834 18.8097 21.9834 18.7073 21.9834C18.7073 21.881 18.7073 21.7786 18.7073 21.6763C18.8097 21.6763 18.912 21.6763 19.0144 21.6763Z" fill="#205E2D"/>
<path fill-rule="evenodd" clip-rule="evenodd" d="M13.179 21.9832C14.9193 21.9832 16.6597 21.9832 18.4001 21.9832C18.5025 21.9832 18.6048 21.9832 18.7072 21.9832C18.7072 22.0855 18.7072 22.1879 18.7072 22.2903C16.8645 22.2903 15.0217 22.2903 13.179 22.2903C13.179 22.1879 13.179 22.0855 13.179 21.9832Z" fill="#456C20"/>
<path fill-rule="evenodd" clip-rule="evenodd" d="M12.8718 22.6998C12.7353 22.6998 12.5988 22.6998 12.4623 22.6998C12.4623 22.5633 12.4623 22.4267 12.4623 22.2903C12.5988 22.2903 12.7353 22.2903 12.8718 22.2903C12.8718 22.4267 12.8718 22.5633 12.8718 22.6998Z" fill="#C08432"/>
<path fill-rule="evenodd" clip-rule="evenodd" d="M19.0143 22.6998C19.0143 22.5633 19.0143 22.4267 19.0143 22.2903C19.1507 22.2903 19.2873 22.2903 19.4238 22.2903C19.4238 22.4267 19.4238 22.5633 19.4238 22.6998C19.2873 22.6998 19.1507 22.6998 19.0143 22.6998Z" fill="#C08432"/>
<path fill-rule="evenodd" clip-rule="evenodd" d="M12.8718 22.6997C14.9193 22.6997 16.9668 22.6997 19.0143 22.6997C19.0143 22.8021 19.0143 22.9045 19.0143 23.0068C16.9668 23.0068 14.9193 23.0068 12.8718 23.0068C12.8718 22.9045 12.8718 22.8021 12.8718 22.6997Z" fill="#BC8031"/>
<rect x="23.7812" y="1.78125" width="28.4375" height="28.4375" rx="14.2188" fill="white"/>
<rect x="23.7812" y="1.78125" width="28.4375" height="28.4375" rx="14.2188" stroke="#101115" stroke-width="2.4375"/>
<path d="M43 21C41.935 22.065 40.5781 22.7903 39.1009 23.0841C37.6237 23.378 36.0925 23.2272 34.701 22.6508C33.3095 22.0744 32.1202 21.0983 31.2834 19.846C30.4466 18.5937 30 17.1214 30 15.6152C30 14.1091 30.4466 12.6368 31.2834 11.3844C32.1202 10.1321 33.3095 9.15606 34.701 8.57968C36.0925 8.0033 37.6237 7.85249 39.1009 8.14633C40.5781 8.44016 41.935 9.16544 43 10.2305" stroke="url(#paint0_linear_1090_2056)" stroke-width="3" stroke-linecap="round"/>
<path d="M39.1009 8.14624C40.5781 8.44008 41.935 9.16536 43 10.2304L31 22.2304L30.5 22.7304" stroke="url(#paint1_linear_1090_2056)" stroke-width="3" stroke-linecap="round"/>
<rect x="45.7812" y="1.78125" width="28.4375" height="28.4375" rx="14.2188" fill="#317EF6"/>
<rect x="45.7812" y="1.78125" width="28.4375" height="28.4375" rx="14.2188" stroke="#101115" stroke-width="2.4375"/>
<path fill-rule="evenodd" clip-rule="evenodd" d="M52.7353 10.8235L53.8824 12.4118L51.5 20.1765H64.3515C65.2652 20.1765 66.0759 19.5904 66.3623 18.7228L68.5114 12.2143C68.7376 11.5293 68.2274 10.8235 67.5059 10.8235H52.7353ZM63.8529 13.1176H57.8529L56.3529 17.7941H62.3529L63.8529 13.1176Z" fill="white"/>
<path d="M61.2941 9.5H59.7941L58.795 12.5882H60.295L61.2941 9.5Z" fill="white"/>
<path d="M58.5822 17.8824H57.0822L55.9118 21.5H57.4118L58.5822 17.8824Z" fill="white"/>
<path d="M60.0822 17.8824H61.5822L60.4118 21.5H58.9118L60.0822 17.8824Z" fill="white"/>
<path d="M63.295 12.5882H61.795L62.7941 9.5H64.2941L63.295 12.5882Z" fill="white"/>
<path d="M56.0882 14.7059H59.5294L59.0556 16.249H56.0882V14.7059Z" fill="white"/>
<defs>
<linearGradient id="paint0_linear_1090_2056" x1="38" y1="8" x2="40.5" y2="21.5" gradientUnits="userSpaceOnUse">
<stop stop-color="#2685DF"/>
<stop offset="1" stop-color="#2245DF"/>
</linearGradient>
<linearGradient id="paint1_linear_1090_2056" x1="39" y1="8" x2="30" y2="23.5" gradientUnits="userSpaceOnUse">
<stop stop-color="#2685DF"/>
<stop offset="1" stop-color="#29ABE2"/>
</linearGradient>
</defs>
</svg>
