<svg width="366" height="63" viewBox="0 0 366 63" fill="none" xmlns="http://www.w3.org/2000/svg">
<g clip-path="url(#clip0_134_9338)">
<path d="M14.8335 44.2258H0.117188V6.91678H14.326C25.3378 6.91678 33.0004 14.5802 33.0004 25.6721C33.0004 36.5623 25.5408 44.2258 14.8335 44.2258ZM13.5141 14.4794H8.338V36.6631H14.0215C20.517 36.6631 24.3229 32.5793 24.3229 25.6721C24.3229 18.6136 20.314 14.4794 13.5141 14.4794Z" fill="white"/>
<path d="M49.5305 44.8812C41.8678 44.8812 36.3873 39.3353 36.3873 31.571C36.3873 23.7058 41.7156 18.2103 49.3782 18.2103C57.3453 18.2103 62.3184 23.4033 62.3184 31.6214V33.5877L43.8977 33.6885C44.3544 37.016 46.232 38.579 49.6827 38.579C52.6259 38.579 54.7065 37.5202 55.2647 35.7052H62.4199C61.5065 41.3015 56.4826 44.8812 49.5305 44.8812ZM49.429 24.5125C46.3335 24.5125 44.6081 25.8738 43.9992 28.8988H54.5543C54.5543 26.2267 52.5752 24.5125 49.429 24.5125Z" fill="white"/>
<path d="M89.325 29.6551H76.1311V44.2258H67.9103V6.91678H91.8116V14.4794H76.1311V22.2941H89.325V29.6551Z" fill="white"/>
<path d="M100.338 15.0844C97.8519 15.0844 95.8728 13.1181 95.8728 10.6477C95.8728 8.17722 97.8519 6.26135 100.338 6.26135C102.774 6.26135 104.753 8.17722 104.753 10.6477C104.753 13.1181 102.774 15.0844 100.338 15.0844ZM96.4818 44.2258V19.017H104.297V44.2258H96.4818Z" fill="white"/>
<path d="M132.774 6.91678V24.7646L146.323 6.91678H156.016L143.735 22.8487L156.117 44.2258H146.628L138.356 29.8063L132.774 37.0665V44.2258H124.553V6.91678H132.774Z" fill="white"/>
<path d="M163.424 15.0844C160.937 15.0844 158.958 13.1181 158.958 10.6477C158.958 8.17722 160.937 6.26135 163.424 6.26135C165.86 6.26135 167.839 8.17722 167.839 10.6477C167.839 13.1181 165.86 15.0844 163.424 15.0844ZM159.567 44.2258V19.017H167.382V44.2258H159.567Z" fill="white"/>
<path d="M181.059 44.2258H173.245V19.017H180.603L181.11 21.6387C182.683 19.4707 185.576 18.2103 188.874 18.2103C194.913 18.2103 198.414 22.042 198.414 28.6467V44.2258H190.6V30.5122C190.6 27.3359 188.824 25.2688 186.134 25.2688C183.039 25.2688 181.059 27.2855 181.059 30.4114V44.2258Z" fill="white"/>
<path d="M202.75 31.1676C202.75 23.5041 207.774 18.1599 214.929 18.1599C218.38 18.1599 221.12 19.4707 222.491 21.5379L222.897 19.017H230.255V42.6124C230.255 51.6371 225.028 57.0822 216.35 57.0822C208.586 57.0822 203.359 52.6959 202.649 45.5366H210.565C210.718 48.36 212.849 50.0238 216.3 50.0238C220.055 50.0238 222.44 47.8054 222.44 44.2258V40.9486C220.917 42.7636 218.076 43.9232 214.777 43.9232C207.673 43.9232 202.75 38.7302 202.75 31.1676ZM210.616 30.9659C210.616 34.596 213.052 37.1673 216.503 37.1673C220.055 37.1673 222.44 34.6968 222.44 30.9659C222.44 27.2855 220.055 24.9158 216.452 24.9158C213.001 24.9158 210.616 27.3863 210.616 30.9659Z" fill="white"/>
<path d="M246.788 44.8812C239.481 44.8812 234.762 39.7386 234.762 31.7726C234.762 23.7562 239.582 18.2103 247.296 18.2103C250.442 18.2103 253.436 19.4707 254.908 21.3362V6.21094H262.722V44.2258H255.364L254.958 40.999C253.588 43.3182 250.442 44.8812 246.788 44.8812ZM248.666 37.7723C252.32 37.7723 254.857 35.2514 254.857 31.4701C254.857 27.6888 252.32 25.1679 248.666 25.1679C244.961 25.1679 242.627 27.7392 242.627 31.4701C242.627 35.201 244.961 37.7723 248.666 37.7723Z" fill="white"/>
<path d="M267.221 31.571C267.221 23.605 273.107 18.2607 281.227 18.2607C289.295 18.2607 295.182 23.605 295.182 31.571C295.182 39.5369 289.295 44.8308 281.227 44.8308C273.107 44.8308 267.221 39.5369 267.221 31.571ZM275.087 31.5205C275.087 35.3523 277.573 37.8731 281.227 37.8731C284.83 37.8731 287.316 35.3523 287.316 31.5205C287.316 27.7392 284.83 25.2183 281.227 25.2183C277.573 25.2183 275.087 27.7392 275.087 31.5205Z" fill="white"/>
<path d="M307.527 44.2258H299.712V19.017H307.02L307.527 21.6387C308.796 19.8741 311.283 18.2103 314.936 18.2103C318.742 18.2103 321.178 19.9749 322.65 22.647C323.969 19.9749 326.963 18.2103 330.617 18.2103C337.163 18.2103 340.411 21.9916 340.411 27.7392V44.2258H332.596V29.9072C332.596 26.7309 330.921 25.2183 328.435 25.2183C326.202 25.2183 323.969 26.4284 323.969 30.7139V44.2258H316.154V29.9072C316.154 26.7813 314.53 25.2688 312.044 25.2688C309.811 25.2688 307.527 26.4788 307.527 30.7139V44.2258Z" fill="white"/>
<path d="M343.874 36.2598H351.283C351.384 38.0244 352.704 39.0832 355.089 39.0832C357.525 39.0832 358.641 38.2261 358.641 36.9152C358.641 36.1589 358.235 35.3523 356.357 34.9489L351.689 33.9406C347.02 32.9322 344.737 30.9155 344.737 26.4788C344.737 21.2354 349.253 18.2103 355.343 18.2103C361.229 18.2103 365.339 21.6387 365.339 26.7309H357.931C357.931 25.0167 356.865 23.8571 354.987 23.8571C353.211 23.8571 352.095 24.7646 352.095 26.1259C352.095 27.2855 353.059 27.9409 354.835 28.3442L359.554 29.3526C363.716 30.2601 365.999 32.176 365.999 36.2094C365.999 41.604 361.381 44.8812 354.784 44.8812C348.086 44.8812 343.874 41.352 343.874 36.2598Z" fill="white"/>
</g>
<defs>
<clipPath id="clip0_134_9338">
<rect width="365.882" height="62.6108" fill="white" transform="translate(0.117188 0.339844)"/>
</clipPath>
</defs>
</svg>
