<svg width="25" height="24" viewBox="0 0 25 24" fill="none" xmlns="http://www.w3.org/2000/svg">
<path d="M12.9414 1.38086C11.0176 1.38086 9.44141 2.94469 9.44141 4.88086C9.44141 6.81703 11.0052 8.38086 12.9414 8.38086C14.8776 8.38086 16.4414 6.81703 16.4414 4.88086C16.4414 2.94469 14.8776 1.38086 12.9414 1.38086Z" fill="#E1E6EF" fill-opacity="0.73"/>
<path d="M5.71289 13.6094C3.78913 13.6094 2.21289 15.1732 2.21289 17.1094C2.21289 19.0455 3.77672 20.6094 5.71289 20.6094C7.64906 20.6094 9.21289 19.0455 9.21289 17.1094C9.21289 15.1732 7.63665 13.6094 5.71289 13.6094Z" fill="#E1E6EF" fill-opacity="0.73"/>
<path d="M20.0527 13.6094C18.129 13.6094 16.5527 15.1732 16.5527 17.1094C16.5527 19.0455 18.1166 20.6094 20.0527 20.6094C21.9889 20.6094 23.5527 19.0455 23.5527 17.1094C23.5527 15.1732 21.9889 13.6094 20.0527 13.6094Z" fill="#E1E6EF" fill-opacity="0.73"/>
<path d="M21.5318 13.0703C21.1518 13.0703 20.8318 12.7803 20.7818 12.4003C20.5418 10.1403 19.3218 8.09035 17.4418 6.79035C17.1018 6.55035 17.0218 6.09035 17.2518 5.75035C17.4918 5.41035 17.9618 5.33035 18.2918 5.56035C20.5318 7.11035 21.9718 9.55035 22.2618 12.2403C22.3018 12.6503 22.0118 13.0203 21.5918 13.0703C21.5818 13.0703 21.5518 13.0703 21.5318 13.0703Z" fill="#A8ACB4"/>
<path d="M4.40202 13.1193C4.37202 13.1193 4.35202 13.1193 4.32202 13.1193C3.91202 13.0693 3.61202 12.6993 3.65202 12.2893C3.92202 9.59928 5.35202 7.16928 7.56202 5.59928C7.90202 5.35928 8.37201 5.43928 8.61201 5.77928C8.85201 6.11928 8.77201 6.58928 8.43201 6.82928C6.57201 8.13928 5.37202 10.1893 5.14202 12.4493C5.11202 12.8293 4.78202 13.1193 4.40202 13.1193Z" fill="#A8ACB4"/>
<path d="M12.9721 22.61C11.4921 22.61 10.0821 22.27 8.76207 21.61C8.39207 21.42 8.24207 20.97 8.43207 20.6C8.62207 20.23 9.07207 20.08 9.44207 20.27C11.6021 21.36 14.2021 21.38 16.3821 20.33C16.7521 20.15 17.2021 20.31 17.3821 20.68C17.5621 21.05 17.4021 21.5 17.0321 21.68C15.7521 22.3 14.3921 22.61 12.9721 22.61Z" fill="#A8ACB4"/>
</svg>
