<svg width="68" height="81" viewBox="0 0 68 81" fill="none" xmlns="http://www.w3.org/2000/svg">
<path d="M3.47571 65.6669L23.4467 77.0964C29.144 80.357 36.1797 80.357 41.8769 77.0964L61.5299 65.8489C63.1807 64.9041 64.005 63.2568 64.0028 61.6105V53.1847V53.1715C64.0006 51.5296 63.1763 49.8885 61.5299 48.9463L41.5589 37.5167C35.8616 34.2561 28.826 34.2561 23.1287 37.5167L3.47571 48.7643C1.82489 49.7091 1.00059 51.3564 1.00281 53.0027V61.4284V61.4417C1.00503 63.0836 1.82933 64.7246 3.47571 65.6669Z" fill="url(#paint0_linear_74_2577)"/>
<path d="M3.47571 65.6669L23.4467 77.0964C29.144 80.357 36.1797 80.357 41.8769 77.0964L61.5299 65.8489C63.1807 64.9041 64.005 63.2568 64.0028 61.6105V53.1847V53.1715C64.0006 51.5296 63.1763 49.8885 61.5299 48.9463L41.5589 37.5167C35.8616 34.2561 28.826 34.2561 23.1287 37.5167L3.47571 48.7643C1.82489 49.7091 1.00059 51.3564 1.00281 53.0027V61.4284V61.4417C1.00503 63.0836 1.82933 64.7246 3.47571 65.6669Z" fill="url(#paint1_radial_74_2577)" fill-opacity="0.09"/>
<path d="M3.47571 65.6669L23.4467 77.0964C29.144 80.357 36.1797 80.357 41.8769 77.0964L61.5299 65.8489C63.1807 64.9041 64.005 63.2568 64.0028 61.6105V53.1847V53.1715C64.0006 51.5296 63.1763 49.8885 61.5299 48.9463L41.5589 37.5167C35.8616 34.2561 28.826 34.2561 23.1287 37.5167L3.47571 48.7643C1.82489 49.7091 1.00059 51.3564 1.00281 53.0027V61.4284V61.4417C1.00503 63.0836 1.82933 64.7246 3.47571 65.6669Z" fill="#0E1014" fill-opacity="0.3"/>
<path d="M41.5589 37.5361C35.8616 34.2497 28.826 34.2497 23.1287 37.5361L3.47571 48.873C0.178505 50.775 0.17851 55.5018 3.47571 57.4038L23.4467 68.9241C29.144 72.2105 36.1797 72.2105 41.8769 68.9241L61.5299 57.5872C64.8271 55.6853 64.8271 50.9584 61.5299 49.0564L41.5589 37.5361Z" fill="url(#paint2_linear_74_2577)"/>
<path d="M41.5589 37.5361C35.8616 34.2497 28.826 34.2497 23.1287 37.5361L3.47571 48.873C0.178505 50.775 0.17851 55.5018 3.47571 57.4038L23.4467 68.9241C29.144 72.2105 36.1797 72.2105 41.8769 68.9241L61.5299 57.5872C64.8271 55.6853 64.8271 50.9584 61.5299 49.0564L41.5589 37.5361Z" fill="#0E1014" fill-opacity="0.3"/>
<path d="M41.5589 37.5361C35.8616 34.2497 28.826 34.2497 23.1287 37.5361L3.47571 48.873C0.178505 50.775 0.17851 55.5018 3.47571 57.4038L23.4467 68.9241C29.144 72.2105 36.1797 72.2105 41.8769 68.9241L61.5299 57.5872C64.8271 55.6853 64.8271 50.9584 61.5299 49.0564L41.5589 37.5361Z" fill="url(#paint3_radial_74_2577)" fill-opacity="0.65"/>
<mask id="mask0_74_2577" style="mask-type:alpha" maskUnits="userSpaceOnUse" x="12" y="4" width="55" height="55">
<rect x="10.8114" y="38.1255" width="49.3851" height="31.3686" rx="4" transform="rotate(-45 10.8114 38.1255)" fill="url(#paint4_linear_74_2577)"/>
</mask>
<g mask="url(#mask0_74_2577)">
<rect x="10.8114" y="38.1255" width="49.3851" height="31.3686" rx="4" transform="rotate(-45 10.8114 38.1255)" fill="url(#paint5_linear_74_2577)"/>
<rect opacity="0.1" x="3.22839" y="30.3418" width="25" height="53" rx="5.25409" transform="rotate(-45 3.22839 30.3418)" fill="url(#paint6_linear_74_2577)"/>
<rect opacity="0.4" x="44.1288" y="21.9683" width="8" height="6" rx="2" transform="rotate(-45 44.1288 21.9683)" fill="white"/>
<circle opacity="0.4" cx="32.8147" cy="48.8383" r="3" transform="rotate(-45 32.8147 48.8383)" fill="white"/>
<circle opacity="0.4" cx="35.6432" cy="46.0099" r="3" transform="rotate(-45 35.6432 46.0099)" fill="white"/>
</g>
<path opacity="0.3" d="M29.8616 9.80315L30.9838 16.9443C31.0644 17.457 31.5337 17.8166 32.0516 17.7625L37.3443 17.2093L32.0898 18.0715C31.5773 18.1556 31.2196 18.6242 31.2752 19.1389L31.9355 25.2593L30.9592 19.1821C30.877 18.6706 30.408 18.3128 29.8911 18.3673L24.4013 18.946L29.8463 18.0576C30.3606 17.9737 30.719 17.5029 30.6615 16.9868L29.8616 9.80315Z" fill="url(#paint7_radial_74_2577)"/>
<path d="M35.2643 11.027L31.6985 17.3152C31.4425 17.7666 31.5861 18.3402 32.0251 18.6201L36.5123 21.481L31.8628 18.8857C31.4093 18.6326 30.8377 18.7768 30.5608 19.2142L27.2687 24.416L30.2866 19.0514C30.5406 18.6 30.3961 18.0279 29.9576 17.7489L25.3004 14.7854L30.1153 17.4787C30.57 17.733 31.1436 17.5875 31.4198 17.1478L35.2643 11.027Z" fill="url(#paint8_radial_74_2577)"/>
<defs>
<linearGradient id="paint0_linear_74_2577" x1="60.783" y1="60.0282" x2="25.5226" y2="81.7556" gradientUnits="userSpaceOnUse">
<stop stop-color="#2C1518"/>
<stop offset="1" stop-color="#563034"/>
</linearGradient>
<radialGradient id="paint1_radial_74_2577" cx="0" cy="0" r="1" gradientUnits="userSpaceOnUse" gradientTransform="translate(67.5028 75.8968) rotate(145.239) scale(42.7076 63.4637)">
<stop offset="0.596439" stop-color="#FE8E6E" stop-opacity="0"/>
<stop offset="0.819481" stop-color="#FE8E6E"/>
</radialGradient>
<linearGradient id="paint2_linear_74_2577" x1="32.5028" y1="35.0713" x2="32.5028" y2="71.3889" gradientUnits="userSpaceOnUse">
<stop stop-color="#3A262B"/>
<stop offset="1" stop-color="#602D30"/>
</linearGradient>
<radialGradient id="paint3_radial_74_2577" cx="0" cy="0" r="1" gradientUnits="userSpaceOnUse" gradientTransform="translate(32.6694 58.0713) rotate(90.7168) scale(13.3187 23.1038)">
<stop offset="0.15389" stop-color="#A32F2B"/>
<stop offset="0.667188" stop-color="#A32F2B" stop-opacity="0"/>
</radialGradient>
<linearGradient id="paint4_linear_74_2577" x1="52.0621" y1="40.0814" x2="29.7552" y2="74.2444" gradientUnits="userSpaceOnUse">
<stop stop-color="#FFBA6B"/>
<stop offset="1" stop-color="#FF4E48"/>
</linearGradient>
<linearGradient id="paint5_linear_74_2577" x1="52.0621" y1="40.0814" x2="29.7552" y2="74.2444" gradientUnits="userSpaceOnUse">
<stop stop-color="#FFBA6B"/>
<stop offset="1" stop-color="#FF4E48"/>
</linearGradient>
<linearGradient id="paint6_linear_74_2577" x1="15.7284" y1="30.3418" x2="12.9242" y2="70.0606" gradientUnits="userSpaceOnUse">
<stop offset="0.465725" stop-color="#0E1014"/>
<stop offset="1" stop-color="#55627A" stop-opacity="0"/>
</linearGradient>
<radialGradient id="paint7_radial_74_2577" cx="0" cy="0" r="1" gradientUnits="userSpaceOnUse" gradientTransform="translate(30.9568 18.227) rotate(82.8691) scale(7.1003 5.94578)">
<stop stop-color="white"/>
<stop offset="1" stop-color="white" stop-opacity="0"/>
</radialGradient>
<radialGradient id="paint8_radial_74_2577" cx="0" cy="0" r="1" gradientUnits="userSpaceOnUse" gradientTransform="translate(30.8791 18.3023) rotate(121.356) scale(7.1003 5.94578)">
<stop stop-color="white"/>
<stop offset="1" stop-color="white" stop-opacity="0"/>
</radialGradient>
</defs>
</svg>
