<svg width="30" height="30" viewBox="0 0 30 30" fill="none" xmlns="http://www.w3.org/2000/svg">
<rect width="30" height="30" rx="10.3314" fill="url(#paint0_linear_238_3401)"/>
<rect x="0.516569" y="0.516569" width="28.9669" height="28.9669" rx="9.81481" stroke="white" stroke-opacity="0.12" stroke-width="1.03314"/>
<path d="M23.8887 13.8008V18.256C23.8887 20.9206 22.3661 22.0711 20.0736 22.0711H12.478C11.8292 22.0711 11.2496 21.976 10.7478 21.7857C10.3412 21.6386 9.98653 21.4223 9.70104 21.1455C9.54532 20.9984 9.66644 20.7648 9.88271 20.7648H17.4783C20.6792 20.7648 22.5824 18.8616 22.5824 15.6694V11.2055C22.5824 10.9978 22.816 10.8681 22.9631 11.0238C23.5513 11.6467 23.8887 12.555 23.8887 13.8008Z" fill="white"/>
<path fill-rule="evenodd" clip-rule="evenodd" d="M17.4782 7.39966C19.416 7.39966 20.8089 8.22151 21.1809 10.0988C21.2587 10.4362 21.2933 10.7995 21.2933 11.2061V15.6614C21.2933 18.3259 19.7707 19.4678 17.4869 19.4678H9.88262C9.49333 19.4678 9.12133 19.4332 8.77529 19.3554C8.55902 19.3208 8.35139 19.2602 8.16107 19.191C6.86341 18.7065 6.07617 17.5819 6.07617 15.6614V11.2061C6.07617 8.54159 7.59875 7.39966 9.88262 7.39966H17.4782ZM12.5764 11.5742C12.8296 11.3217 12.8296 10.9124 12.5764 10.66C12.3233 10.4075 11.9129 10.4075 11.6598 10.66L8.87909 13.4334L11.6598 16.2069C11.9129 16.4593 12.3233 16.4593 12.5764 16.2069C12.8296 15.9544 12.8296 15.5451 12.5764 15.2926L10.7124 13.4334L12.5764 11.5742ZM14.793 11.5745C14.5399 11.3221 14.5399 10.9128 14.793 10.6603C15.0462 10.4078 15.4565 10.4078 15.7097 10.6603L18.4904 13.4337L15.7097 16.2072C15.4565 16.4597 15.0462 16.4597 14.793 16.2072C14.5399 15.9547 14.5399 15.5454 14.793 15.2929L16.6571 13.4337L14.793 11.5745Z" fill="white"/>
<defs>
<linearGradient id="paint0_linear_238_3401" x1="31.5107" y1="-0.14123" x2="-2.06627" y2="20.005" gradientUnits="userSpaceOnUse">
<stop stop-color="#BFC6C8"/>
<stop offset="1" stop-color="#55595B"/>
</linearGradient>
</defs>
</svg>
