<svg width="243" height="78" viewBox="0 0 243 78" fill="none" xmlns="http://www.w3.org/2000/svg">
<g clip-path="url(#clip0_262_2719)">
<path d="M145.106 60.3862C141.163 64.9908 137.483 69.2777 133.855 73.6175C132.015 75.8404 129.755 77.3224 126.758 76.8459C123.866 76.4226 121.763 74.8348 120.659 72.0297C119.608 69.3835 120.344 67.0549 122.131 64.9908C126.022 60.4922 129.965 56.0465 133.855 51.5478C134.486 50.8069 135.065 50.0659 135.801 49.1663C131.437 44.1912 127.231 39.3221 123.025 34.5059C119.503 30.4837 119.45 26.5144 122.92 23.4975C126.285 20.4809 130.701 21.0631 134.118 25.0324C137.693 29.2664 141.268 33.5004 145.159 38.1048C146.684 36.3583 148.051 34.7706 149.418 33.1828C151.731 30.4308 154.044 27.6257 156.41 24.9266C159.722 21.116 164.086 20.5338 167.399 23.3917C170.868 26.4084 170.921 30.4308 167.451 34.453C163.245 39.2692 158.986 44.1383 154.517 49.2192C157.619 52.818 160.668 56.3111 163.718 59.8042C165.242 61.5507 166.873 63.2971 168.344 65.0966C170.972 68.3251 170.763 72.0297 167.871 74.7819C165.032 77.5339 160.721 77.7986 157.882 74.9406C154.254 71.1831 150.942 67.0549 147.525 63.0855C146.736 62.2387 146.053 61.4449 145.106 60.3862ZM184.853 38.687C184.853 48.7427 184.853 58.7985 184.906 68.8544C184.906 72.3473 186.64 74.8348 189.69 76.2637C192.687 77.6399 195.578 77.2693 198.207 75.2582C200.678 73.4059 201.467 70.7595 201.467 67.7958C201.467 57.6342 201.519 47.4725 201.414 37.311C201.414 35.2999 201.992 34.453 204.042 34.6119C205.672 34.7706 207.355 34.7177 208.985 34.5059C212.402 34.0297 214.61 31.3835 214.557 28.1021C214.504 24.7677 212.244 22.2273 208.828 21.8569C207.565 21.6982 206.303 21.6453 205.042 21.7511C203.675 21.8569 201.939 22.0157 201.835 21.5393C201.572 20.1104 201.572 17.7817 202.202 16.4586C203.359 13.9182 205.883 13.8652 208.249 14.1828C210.142 14.4474 212.086 15.0825 213.979 15.0825C218.815 15.1354 221.602 10.3722 219.027 6.29696C217.87 4.44459 215.871 2.80391 213.874 1.90419C209.563 -0.10696 204.883 -0.371585 200.205 0.369365C190.269 2.01004 185.432 7.99057 184.957 18.1522C184.8 21.2218 185.116 21.804 181.488 21.9098C177.755 21.9628 175.547 24.5561 175.495 28.1021C175.442 31.6481 177.651 34.0826 181.331 34.559C182.382 34.7177 183.433 34.7177 184.957 34.8235C184.853 36.3583 184.853 37.5228 184.853 38.687ZM226.334 68.2191C226.386 73.3529 229.805 77.0048 234.483 77.0577C238.953 77.1106 242.79 73.6175 242.896 68.6955C243.053 55.8347 243.053 42.9741 242.896 30.1132C242.843 24.9795 239.11 21.5393 234.379 21.6453C229.699 21.7511 226.386 25.297 226.334 30.4837C226.282 36.7288 226.334 42.9741 226.334 49.2192C226.334 55.5172 226.282 61.8682 226.334 68.2191ZM93.7935 67.8487C93.8463 73.2471 97.2109 76.9517 101.943 77.0048C106.78 77.0577 110.355 73.2471 110.407 67.7958C110.46 55.4643 110.46 43.1856 110.407 30.8541C110.407 25.297 106.937 21.5922 102.048 21.5922C97.1058 21.5922 93.8463 25.2441 93.7935 30.907C93.741 36.9405 93.7935 43.027 93.7935 49.0603C93.7935 55.3585 93.741 61.6036 93.7935 67.8487ZM243 8.51981C243 4.2329 239.163 0.475214 234.693 0.42229C230.068 0.369365 226.229 4.02119 226.229 8.57274C226.229 12.9655 229.909 16.6173 234.43 16.6173C239.057 16.6702 243 12.9126 243 8.51981ZM110.197 8.51981C110.197 4.2329 106.359 0.475214 101.89 0.42229C97.2635 0.369365 93.4256 4.02119 93.4256 8.57274C93.4256 12.9655 97.1058 16.6173 101.627 16.6173C106.254 16.6702 110.197 12.9126 110.197 8.51981ZM20.7149 15.453C21.8715 15.7705 22.9756 15.8235 23.9745 15.6118C25.2889 15.4001 26.6558 15.8235 27.6022 16.7762L29.7052 18.8931C30.7041 19.8986 31.1772 21.3806 30.8618 22.8095C30.599 24.0797 30.599 25.5088 31.1247 26.9906C32.0185 29.531 34.2266 31.5421 36.8553 32.0186C41.7448 32.9182 46.0032 29.1606 46.0032 24.3973C46.0032 23.8151 45.9507 23.233 45.7929 22.7037C45.4775 21.3277 45.9506 19.8457 46.9496 18.8402L49.0001 16.7762C49.999 15.7705 51.3659 15.3471 52.7328 15.6118C53.942 15.8235 55.2564 15.7705 56.6759 15.2942C59.2522 14.3416 61.2499 12.0129 61.6706 9.26076C62.5117 3.91534 57.8851 -0.63621 52.5226 0.42229C49.8939 0.898614 47.5806 3.06854 46.7919 5.82064C46.3714 7.30253 46.4239 8.73152 46.7919 10.0546C47.2124 11.5365 46.7919 13.1243 45.6878 14.1828L44.1106 15.7705C43.1117 16.7762 41.6396 17.3053 40.2201 16.9349C39.6417 16.7762 39.0109 16.6702 38.38 16.6702C37.6964 16.6702 37.0656 16.7762 36.4872 16.9349C35.1203 17.3053 33.5957 16.8291 32.5967 15.7705L31.1772 14.3416C30.0732 13.2301 29.7052 11.6424 30.1257 10.1605C30.4937 8.83736 30.5463 7.40839 30.1783 5.92649C29.4424 3.17439 27.1816 1.00446 24.3951 0.475214C18.98 -0.74206 14.3008 3.86241 15.1946 9.26076C15.6677 12.2246 17.8759 14.6591 20.7149 15.453ZM56.781 62.662C55.4141 62.1858 54.0472 62.08 52.838 62.3445C51.471 62.6091 50.1041 62.1329 49.1052 61.1802L47.0547 59.116C46.0558 58.1105 45.5827 56.6287 45.8981 55.2525C46.0032 54.7234 46.1085 54.1411 46.1085 53.5589C46.1085 48.7956 41.8499 45.0381 36.9605 45.9378C34.3318 46.4141 32.1236 48.4252 31.2298 50.9656C30.7041 52.4476 30.6516 53.8236 30.967 55.1467C31.2824 56.5758 30.8618 58.0047 29.8103 59.0631L27.7073 61.1802C26.7609 62.1329 25.394 62.6091 24.0797 62.3445C23.0281 62.1858 21.9241 62.1858 20.82 62.5033C17.981 63.2971 15.7203 65.7317 15.2471 68.6426C14.3534 74.0409 19.0851 78.6455 24.4476 77.5339C27.1816 76.9517 29.4949 74.7819 30.2309 72.0826C30.599 70.6008 30.599 69.1189 30.1783 67.8487C29.7578 66.3669 30.1783 64.7791 31.2298 63.6676L32.6493 62.2387C33.6482 61.2331 35.1203 60.7038 36.5398 61.0742C37.1707 61.2331 37.8017 61.3389 38.4325 61.3389C39.0635 61.3389 39.6943 61.2331 40.2727 61.0742C41.6396 60.7038 43.1117 61.1802 44.1632 62.2387L45.7404 63.8264C46.7919 64.8849 47.2124 66.4727 46.8445 67.9546C46.4765 69.2248 46.4765 70.7066 46.8445 72.1886C47.5806 74.9406 49.9464 77.0577 52.6803 77.5868C58.0428 78.6455 62.6694 74.0939 61.8283 68.7484C61.355 65.9433 59.3573 63.6147 56.781 62.662ZM15.2471 53.506C15.0368 52.1829 15.4574 50.8069 16.4038 49.8543L18.5067 47.7372C19.5056 46.7316 20.9777 46.2554 22.3973 46.5729C23.6591 46.8374 25.0786 46.8374 26.5507 46.3083C29.0742 45.4085 31.0721 43.1856 31.5452 40.5394C32.439 35.6174 28.7062 31.3306 23.9745 31.3306C23.3961 31.3306 22.8179 31.3835 22.2922 31.5421C20.9251 31.8597 19.4531 31.3835 18.4541 30.3779L16.4038 28.3137C15.4049 27.3082 14.9842 25.9322 15.2471 24.5561C15.4574 23.3388 15.4049 22.0157 14.9317 20.5866C13.9853 17.9933 11.672 15.9822 8.93818 15.5588C3.62813 14.6591 -0.893287 19.3164 0.158206 24.6619C0.683952 27.467 2.83951 29.7957 5.52082 30.5366C6.9929 30.9599 8.41242 30.907 9.72679 30.5366C11.1989 30.1132 12.7761 30.5366 13.8276 31.6481L15.4049 33.2357C16.4038 34.2414 16.9295 35.7232 16.5615 37.1523C16.4038 37.7343 16.2986 38.3695 16.2986 39.0046C16.2986 39.6926 16.4038 40.3277 16.5615 40.9099C16.9295 42.2859 16.4563 43.8208 15.4049 44.8263L13.9853 46.2554C12.8813 47.3667 11.304 47.7372 9.83194 47.3138C8.51757 46.9434 7.09806 46.8905 5.62597 47.2609C2.89209 48.0018 0.736527 50.2776 0.210781 53.0827C-0.893287 58.534 3.6807 63.2442 9.04331 62.3445C11.9349 61.8682 14.4059 59.5924 15.142 56.7345C15.4049 55.676 15.4574 54.5645 15.2471 53.506ZM76.7594 53.1356C76.1812 50.3834 74.0256 48.0547 71.3443 47.3138C69.8721 46.9434 68.4 46.9434 67.1383 47.3667C65.6662 47.7901 64.089 47.3667 62.9849 46.3083L61.5653 44.8792C60.5665 43.8737 60.0407 42.3918 60.4088 40.9628C60.5665 40.3277 60.6717 39.6926 60.6717 39.0575C60.6717 38.4224 60.5665 37.7874 60.4088 37.2052C60.0407 35.829 60.514 34.3472 61.5653 33.2888L63.1427 31.701C64.1942 30.6424 65.7713 30.219 67.2434 30.5895C68.5052 30.9599 69.9772 30.9599 71.4494 30.5895C74.1833 29.8486 76.2863 27.467 76.812 24.7148C77.8635 19.3164 73.342 14.6591 68.0321 15.5059C65.2982 15.9293 62.985 17.9404 62.0386 20.5338C61.5653 21.9098 61.4602 23.2859 61.7232 24.5031C61.986 25.8793 61.5127 27.2553 60.5665 28.2608L58.5161 30.3248C57.5171 31.3306 56.0451 31.8068 54.6781 31.4892C54.1523 31.3835 53.5741 31.2775 52.9957 31.2775C48.2639 31.2775 44.5312 35.5645 45.425 40.4865C45.8981 43.1327 47.896 45.3556 50.4195 46.2554C51.8916 46.7845 53.2585 46.8374 54.573 46.5199C55.9925 46.2023 57.412 46.6258 58.4635 47.6843L60.5665 49.8014C61.5127 50.754 61.986 52.13 61.7232 53.4531C61.5653 54.5116 61.5653 55.6231 61.8809 56.7345C62.6694 59.5924 65.0878 61.8682 67.9795 62.3445C73.342 63.2971 77.9161 58.5869 76.7594 53.1356Z" fill="white"/>
</g>
<defs>
<clipPath id="clip0_262_2719">
<rect width="243" height="77.6939" fill="white"/>
</clipPath>
</defs>
</svg>
