<svg width="350" height="79" viewBox="0 0 350 79" fill="none" xmlns="http://www.w3.org/2000/svg">
<g clip-path="url(#clip0_263_2753)">
<path d="M14.5176 37.6619C13.6521 39.0638 12.1864 39.8764 10.142 40.0675V41.2994L8.49577 41.4694V40.0993C6.27609 39.9825 4.70956 39.133 3.8493 37.5611C0.85962 32.1074 8.28337 19.6337 8.59667 19.1079L9.34011 17.8706L10.0251 19.1398C13.2166 25.0501 17.1356 33.4085 14.5176 37.6619Z" fill="#24BC48"/>
<path d="M24.6024 39.9915C24.0767 40.8411 23.2058 41.3509 22.0004 41.489V44.0114L21.018 44.1122V42.7421C20.9064 42.737 20.7949 42.7316 20.6834 42.7156V41.5155C19.3719 41.4147 18.4425 40.8835 17.9168 39.9277C16.1113 36.6247 20.2904 29.4932 20.7684 28.6859L21.3684 27.6982L21.9154 28.7177C23.8378 32.297 26.2167 37.3628 24.6024 39.9915Z" fill="#239942"/>
<path d="M72.7431 45.5282C72.7113 45.8096 72.6688 46.0963 72.6263 46.3777C72.467 47.4292 72.2599 48.4754 71.9996 49.4949C71.9253 49.803 71.8457 50.1056 71.7554 50.403C71.6918 50.6686 71.6121 50.9235 71.5325 51.1889C71.1394 52.5058 70.6669 53.7909 70.1306 55.0442L68.3463 55.0123L64.5442 54.938L60.2534 54.8582L46.1865 54.5928L41.8905 54.5078L38.9646 54.4547L33.9571 51.2739L32.4754 50.3233L31.7161 49.8402L27.9458 47.3389L28.4396 46.7123L34.3499 39.2992L37.6424 34.69L42.9154 30.0806L46.2078 28.7637L47.5248 29.4221L51.4755 34.0315L53.451 37.3238L54.768 39.2992L56.7433 36.6653L59.3771 34.0315L61.3527 33.373L63.3281 34.0315L65.9619 37.9822L69.2544 41.2747L71.2722 43.7386L72.7431 45.5282Z" fill="#0B6C96"/>
<path d="M35.9347 49.9272L23.9071 72.8676L23.137 74.3385C22.4785 74.0677 21.8307 73.7863 21.1988 73.4729C20.8324 73.3029 20.4607 73.1172 20.1049 72.9259C19.9455 72.8409 19.7862 72.7613 19.6376 72.6763C10.1056 67.5201 3.13326 58.2112 1.16316 47.1924L0.913574 45.5569C1.40743 45.4295 1.94908 45.302 2.52259 45.1745C4.24311 44.7975 6.26632 44.4364 8.50726 44.1975V42.9974L10.1534 42.9654V44.0381C13.4086 43.7885 17.0196 43.8258 20.6889 44.4418V42.7425L22.006 42.7158V44.6914C23.9707 45.0949 25.9409 45.6684 27.8685 46.465C28.2242 45.9126 28.7554 45.0896 29.435 44.0859L30.6776 45.201C30.1944 45.9073 29.7642 46.5658 29.3872 47.1446C30.7997 47.819 32.1804 48.621 33.5185 49.5608C33.8956 49.2952 34.2779 49.0352 34.6657 48.7856L35.9347 49.9272Z" fill="#239942"/>
<path d="M71.7569 50.3995C71.6933 50.6651 71.6137 50.92 71.534 51.1854C70.8436 53.506 69.9197 55.7257 68.7939 57.818C68.6504 58.0994 68.4965 58.3755 68.3319 58.6571C68.2204 58.8693 68.093 59.0713 67.9708 59.2784C66.7865 61.2802 65.4006 63.1602 63.8606 64.8859C63.4996 65.2948 63.1225 65.6983 62.7401 66.0861C56.4475 72.538 47.7706 76.6535 38.1536 76.9934C37.7129 77.0146 37.2721 77.0199 36.8314 77.0199C36.7252 77.0199 36.6136 77.0199 36.5075 77.0146C34.1444 77.0039 31.8291 76.749 29.5882 76.2976C29.2429 76.2233 28.9032 76.1544 28.5687 76.0747C28.3669 76.0269 28.1598 75.9737 27.9578 75.9206C25.6054 75.326 23.338 74.5029 21.198 73.4674C20.8316 73.2974 20.4599 73.1115 20.104 72.9204L20.4121 71.2158L21.182 66.9729L24.4745 61.0413L26.4498 57.749L31.7228 51.8174L32.9018 51.143L34.4576 50.2563L36.3375 49.1834L40.2883 46.5496L46.2199 45.2327L50.8293 44.5742L59.3947 45.2327L65.9848 47.208L69.9355 49.1834L70.3179 49.4383L71.7569 50.3995Z" fill="#24BC48"/>
<path d="M68.3306 58.6557C68.2191 58.8681 68.0917 59.0699 67.9695 59.277C66.7852 61.2791 65.3994 63.159 63.8593 64.8847C63.4983 65.2936 63.1212 65.6971 62.7389 66.0849C56.4462 72.5368 47.7693 76.6523 38.1523 76.9921C37.7116 77.0134 37.271 77.0187 36.8301 77.0187C36.724 77.0187 36.6123 77.0187 36.5062 77.0134C34.1431 77.0027 31.8278 76.7478 29.5869 76.2964C29.2418 76.2221 28.9019 76.1532 28.5674 76.0735L29.0877 74.8786L29.1673 74.5175L30.4046 68.9525L33.0386 62.3624L38.3116 57.753L41.6041 55.7776L46.8771 53.8023L52.8087 52.4854L57.4181 53.1438L62.691 54.4607L65.9835 57.0945L66.9659 57.7477L68.3306 58.6557Z" fill="#239942"/>
<path d="M37.6484 76.1932L38.3069 71.5838L41.6045 66.3108L46.8723 62.3599L53.4624 61.043L58.7301 63.0183L61.3694 64.3353L62.6863 64.9937L58.7301 68.95L52.1455 72.9007L44.897 75.5347L39.6238 76.1932H37.6484Z" fill="#24BC48"/>
<path d="M60.4735 13.3565C60.4681 13.3512 60.4628 13.3459 60.4628 13.3352C59.9743 12.921 59.4751 12.5121 58.9654 12.1192H58.9601C58.9388 12.0979 58.8858 12.0554 58.806 11.9917C58.7317 11.9386 58.6627 11.8855 58.5884 11.8271C58.4291 11.7422 58.2645 11.6678 58.0946 11.5988C57.4891 11.3492 56.8306 11.1899 56.1457 11.1527C56.0182 11.1474 55.8961 11.1421 55.7686 11.1421C55.4234 11.1421 55.0942 11.1686 54.7649 11.2271C55.8004 11.8537 56.7881 12.5334 57.744 13.2556C58.3281 13.5476 58.838 13.9618 59.2469 14.4663C59.438 14.6309 59.6239 14.7902 59.8043 14.9602C60.516 15.5868 61.1957 16.2453 61.8542 16.9303C67.7698 23.1432 71.4127 31.5494 71.4127 40.784C71.4127 41.3788 71.402 41.9683 71.3648 42.5629V42.5682C71.3437 42.9613 71.317 43.3542 71.2852 43.7419C71.2534 44.0976 71.2214 44.4533 71.1789 44.8039C71.0249 46.0676 70.8178 47.3051 70.5311 48.5263C70.4675 48.8344 70.3878 49.137 70.3082 49.4397C70.2444 49.6946 70.1701 49.9549 70.0957 50.2045C69.6337 51.856 69.0389 53.4649 68.338 55.0048C68.0726 55.6103 67.7858 56.2051 67.4724 56.7839C67.3025 57.1078 67.1272 57.4317 66.9521 57.7396C66.8618 57.9042 66.7661 58.0688 66.6705 58.2334C65.497 60.2355 64.1323 62.11 62.5923 63.8252C62.2312 64.2342 61.8489 64.6377 61.4611 65.0306C55.4872 71.1004 47.2988 74.9768 38.2129 75.3325C37.7508 75.3592 37.2888 75.3645 36.8216 75.3645C36.7367 75.3645 36.6517 75.3645 36.5667 75.3592C34.209 75.3485 31.9095 75.0936 29.6846 74.6211C29.5146 74.5891 29.3342 74.5466 29.1642 74.5094C28.7979 74.4244 28.4313 74.3395 28.0702 74.2387C26.6419 73.8616 25.2505 73.3996 23.9017 72.8526C23.0627 72.5181 22.2343 72.141 21.4323 71.7375C21.0873 71.5675 20.7474 71.3871 20.4128 71.2065C20.2376 71.1162 20.0625 71.0207 19.8925 70.9251C11.0403 65.9333 4.58828 57.1503 2.77216 46.7952C2.67127 46.2536 2.59693 45.7172 2.52259 45.1702C1.94908 45.2977 1.40743 45.4252 0.913574 45.5526L1.16316 47.1881C3.13326 58.2016 10.1056 67.5105 19.6376 72.6722C19.7915 72.7572 19.9455 72.8368 20.1049 72.9218C20.4607 73.1129 20.827 73.2986 21.1988 73.4686C21.8307 73.7767 22.4785 74.0634 23.137 74.3341C24.693 74.9714 26.3073 75.5078 27.9588 75.922C28.1606 75.9751 28.3677 76.0283 28.5694 76.0759C28.904 76.1556 29.2492 76.2301 29.5889 76.299C31.8299 76.7557 34.1398 77.0053 36.5082 77.016C36.6145 77.0213 36.726 77.0213 36.8321 77.0213C37.273 77.0213 37.7137 77.016 38.1544 76.9946C47.7713 76.6496 56.4482 72.5341 62.7409 66.0874C63.1233 65.6997 63.5003 65.2962 63.8614 64.8873C65.4014 63.1614 66.7875 61.2816 67.9716 59.2796C68.099 59.0778 68.2212 58.8707 68.3326 58.6583C68.4972 58.3822 68.6514 58.1061 68.7947 57.8192C69.2832 56.9165 69.7294 55.9873 70.1329 55.0368C70.6746 53.7835 71.1417 52.4984 71.5348 51.1815C71.6144 50.9159 71.6941 50.661 71.7579 50.3956C71.848 50.0982 71.9277 49.7954 72.0021 49.4875C72.2569 48.4679 72.4693 47.4272 72.6286 46.3704C72.6764 46.089 72.7136 45.8022 72.7456 45.5208C72.8092 45.0906 72.857 44.6657 72.8995 44.2304C73.011 43.0886 73.0641 41.9469 73.0641 40.7786C73.0641 29.8343 68.1787 19.9996 60.4735 13.3565Z" fill="white"/>
<path d="M59.8801 15.613C59.8694 15.3899 59.8481 15.1722 59.8056 14.9598C59.6463 13.9243 59.2216 12.9791 58.6055 12.1878C58.5737 12.14 58.5312 12.0869 58.494 12.0445C58.4887 12.0391 58.4834 12.0338 58.4834 12.0232C58.3559 11.8798 58.2338 11.7312 58.0958 11.6037C57.6816 11.1895 57.2089 10.839 56.6886 10.5629C56.6833 10.5576 56.6779 10.5576 56.6779 10.5576C56.6673 10.5363 56.6408 10.531 56.6194 10.5204C55.7752 10.0797 54.814 9.83008 53.7999 9.83008C53.4546 9.83008 53.1254 9.85664 52.7962 9.91505C49.9126 10.3877 47.7036 12.9047 47.7036 15.9209C47.7036 19.2823 50.4384 22.0171 53.7999 22.0171C57.1611 22.0171 59.8959 19.2823 59.8959 15.9209C59.8852 15.8147 59.8852 15.7139 59.8801 15.613ZM53.7945 20.3603C51.3411 20.3603 49.3498 18.3637 49.3498 15.9156C49.3498 13.4623 51.3465 11.471 53.7945 11.471C54.5059 11.471 55.1804 11.6356 55.7699 11.9383C56.354 12.2303 56.8637 12.6445 57.2727 13.149C57.8781 13.9084 58.2391 14.8695 58.2391 15.9156C58.2391 18.3637 56.2424 20.3603 53.7945 20.3603Z" fill="white"/>
<path d="M34.8973 50.6078C34.4299 50.9319 33.9679 51.2664 33.5112 51.6168C33.0545 51.2611 32.5873 50.9265 32.12 50.6078C25.1157 45.8765 16.8477 45.1542 10.1408 45.6852C9.58321 45.733 9.02564 45.7861 8.49461 45.8446C6.34927 46.0889 4.40571 46.4393 2.76485 46.8056C2.19133 46.9384 1.64969 47.0712 1.15584 47.1934L0.90625 45.5577C1.4001 45.4304 1.94175 45.303 2.51526 45.1755C4.2358 44.7985 6.259 44.4374 8.49992 44.1983C9.03096 44.1347 9.58853 44.0815 10.1461 44.039C13.4013 43.7894 17.0123 43.8266 20.6816 44.4426C20.9207 44.4799 21.1543 44.5275 21.3932 44.5754C21.595 44.6125 21.7967 44.655 21.9987 44.6922C23.9634 45.0959 25.9334 45.6694 27.8612 46.4659C28.371 46.6782 28.8807 46.9013 29.3852 47.1455C30.7977 47.82 32.1785 48.6217 33.5165 49.5618C33.9786 49.8963 34.4406 50.2414 34.8973 50.6078Z" fill="white"/>
<path d="M72.8978 44.2356C72.8607 44.6709 72.8129 45.1011 72.7439 45.526C72.7121 45.8074 72.6696 46.0942 72.6271 46.3756C72.2394 45.9456 71.7455 45.4144 71.1827 44.8037C68.4373 41.8194 64.136 37.0774 62.3677 34.8736C61.9268 34.3214 61.5233 34.0452 61.1676 34.0452C60.7587 34.0452 60.286 34.3797 59.7815 34.8842C59.2823 35.3781 58.7513 36.0419 58.231 36.695C57.6309 37.4437 57.0202 38.2243 56.3404 38.8935C56.0908 39.143 55.3316 39.9078 54.3704 39.7643C53.2446 39.5997 52.6233 38.4314 51.6887 36.6738C50.7647 34.932 49.4956 32.5583 47.2758 30.328C46.8404 29.8978 46.3359 29.728 45.6828 29.8023C41.6044 30.2695 34.5737 39.4458 30.6708 45.1968C30.1874 45.9031 29.7574 46.5615 29.3803 47.1403C29.205 47.4164 29.0351 47.682 28.8865 47.9263L27.9518 47.3421L27.4897 47.05C27.5696 46.9172 27.6917 46.7208 27.8563 46.4659C28.212 45.9135 28.743 45.0905 29.4228 44.087C32.986 38.8298 40.4256 28.7455 45.4969 28.172C46.6387 28.0392 47.6582 28.3898 48.4334 29.1757C50.839 31.5759 52.1666 34.077 53.1438 35.9091C53.6323 36.8224 54.3014 38.0915 54.6146 38.1447C54.6146 38.1447 54.7793 38.1394 55.1828 37.7412C55.7883 37.1305 56.3776 36.3924 56.9406 35.6808C58.2788 33.9922 59.5426 32.4043 61.1569 32.4043H61.1622C62.0385 32.4043 62.8827 32.8929 63.6528 33.8541C65.1555 35.7391 68.6708 39.6315 71.3632 42.5681V42.5735C71.9208 43.1736 72.4411 43.7364 72.8978 44.2356Z" fill="white"/>
<path d="M34.7251 46.6488L33.3232 45.7832C33.541 45.4275 38.7397 37.0213 42.1649 34.9663L43.0145 36.3787C40.4497 37.9187 36.1644 44.3123 34.7251 46.6488Z" fill="white"/>
<path d="M39.8366 14.4399L39.8291 16.0861L46.4192 16.1159L46.4265 14.4697L39.8366 14.4399Z" fill="white"/>
<path d="M46.8799 18.0591L40.6089 20.0836L41.1145 21.6501L47.3857 19.6256L46.8799 18.0591Z" fill="white"/>
<path d="M41.4207 8.32861L40.623 9.76854L46.3873 12.9621L47.185 11.5222L41.4207 8.32861Z" fill="white"/>
<path d="M45.7694 4.28076L44.4922 5.31934L48.6498 10.4325L49.927 9.39397L45.7694 4.28076Z" fill="white"/>
<path d="M52.1722 2.00098L50.5415 2.22716L51.447 8.75459L53.0777 8.5284L52.1722 2.00098Z" fill="white"/>
<path d="M56.4509 1.979L54.8198 8.36409L56.4148 8.77152L58.0459 2.38643L56.4509 1.979Z" fill="white"/>
<path d="M61.6526 4.20264L57.769 9.52673L59.099 10.4968L62.9826 5.17274L61.6526 4.20264Z" fill="white"/>
<path d="M67.4843 56.7907C66.5549 56.1055 65.5725 55.4842 64.5477 54.9372C61.0483 53.0522 57.0496 51.9849 52.8067 51.9849C48.893 51.9849 45.1918 52.8929 41.8994 54.5072C34.3801 58.1872 28.9848 65.5632 28.0768 74.2455C28.0184 74.7978 27.976 75.3606 27.96 75.9183C28.1617 75.9712 28.3688 76.0244 28.5706 76.0722C28.9052 76.1519 29.2504 76.2262 29.5903 76.2951C29.6008 75.7377 29.6379 75.18 29.6911 74.6278C30.5991 65.1012 37.2848 57.242 46.1953 54.5922C48.293 53.9656 50.5126 53.631 52.8121 53.631C55.4194 53.631 57.9258 54.0612 60.2624 54.8576C62.5935 55.6489 64.7548 56.796 66.6877 58.235C67.1285 58.5643 67.5639 58.9147 67.9781 59.2759C68.1056 59.0741 68.2277 58.867 68.3391 58.6546C68.5038 58.3783 68.6579 58.1023 68.8012 57.8155C68.3711 57.4598 67.9303 57.1199 67.4843 56.7907Z" fill="white"/>
<path d="M62.6008 63.8363C59.8714 61.776 56.4729 60.5547 52.8034 60.5547C44.3123 60.5547 37.324 67.0756 36.5699 75.3703C36.5169 75.8642 36.4956 76.358 36.4956 76.8572C36.4956 76.9102 36.4956 76.9633 36.5009 77.0165C36.6073 77.0218 36.7187 77.0218 36.8248 77.0218C37.2657 77.0218 37.7064 77.0165 38.1471 76.9951C38.1417 76.9475 38.1419 76.905 38.1419 76.8572C38.1419 76.342 38.1684 75.8375 38.2162 75.3436C38.9808 67.973 45.231 62.2008 52.8034 62.2008C56.0427 62.2008 59.0378 63.2575 61.4645 65.0418C61.9052 65.3657 62.3354 65.7162 62.7336 66.0879C63.116 65.7002 63.493 65.2967 63.8541 64.8878C63.4559 64.5161 63.031 64.1655 62.6008 63.8363Z" fill="white"/>
<path d="M70.5389 48.5303C65.3932 45.2963 59.313 43.4272 52.8027 43.4272C46.1223 43.4272 39.8881 45.3973 34.6575 48.7905C34.2697 49.0401 33.8875 49.3055 33.5105 49.5658C33.1599 49.8154 32.8096 50.0703 32.475 50.3306C32.3582 50.4209 32.2359 50.5163 32.1191 50.6066C25.8264 55.5717 21.3605 62.7406 19.8843 70.9397C19.7833 71.5132 19.6984 72.092 19.6294 72.6815C19.7833 72.7664 19.9375 72.8461 20.0968 72.931C20.4525 73.1221 20.8188 73.3081 21.1906 73.4779C21.2491 72.9044 21.3287 72.3256 21.4297 71.7574C22.7466 63.5797 27.2018 56.4479 33.5105 51.6156C33.6644 51.504 33.8077 51.3925 33.9565 51.2811C34.2644 51.0526 34.5778 50.8244 34.891 50.6066C35.2363 50.3784 35.5762 50.1446 35.9266 49.9268C40.8227 46.8523 46.6055 45.0734 52.7974 45.0734C59.175 45.0734 65.1171 46.9584 70.0982 50.2138C70.5867 50.5217 71.0592 50.8509 71.5266 51.1961C71.6062 50.9305 71.6859 50.6756 71.7497 50.4102C71.84 50.1128 71.9196 49.81 71.994 49.5021C71.5159 49.1623 71.0381 48.8384 70.5389 48.5303Z" fill="white"/>
<path d="M10.1467 34.0298V45.6751C9.58909 45.7229 9.03152 45.7761 8.50049 45.8345V34.0298H10.1467Z" fill="white"/>
<path d="M10.0342 19.149L9.34918 17.8799L8.60573 19.1172C8.28711 19.643 0.863367 32.1167 3.85835 37.5703C4.71331 39.1369 6.28515 39.9865 8.50484 40.1086C8.59512 40.114 8.6907 40.1193 8.78629 40.1193C8.8978 40.1246 9.004 40.1246 9.1102 40.1246C9.4713 40.1246 9.82177 40.114 10.151 40.0715C12.1955 39.8804 13.6611 39.0678 14.5267 37.6659C17.134 33.4124 13.215 25.0541 10.0342 19.149ZM13.1141 36.8003C12.5459 37.7137 11.5742 38.2554 10.1404 38.4147C9.73682 38.4625 9.29606 38.4783 8.81814 38.4678C8.70663 38.4678 8.60043 38.4625 8.49421 38.4572C6.90645 38.351 5.86033 37.804 5.29744 36.7792C3.41229 33.3486 7.03921 25.3301 9.27481 21.2466C13.3478 29.0951 14.6382 34.3258 13.1141 36.8003Z" fill="white"/>
<path d="M21.9956 37.7217H20.6787V45.2305H21.9956V37.7217Z" fill="white"/>
<path d="M21.9089 28.7187L21.3619 27.6992L20.762 28.6869C20.2788 29.4888 16.1048 36.6257 17.9103 39.9287C18.436 40.8845 19.3654 41.4155 20.677 41.5165C20.7831 41.5376 20.8947 41.543 21.0062 41.543H21.2026C21.4789 41.543 21.7443 41.5325 21.9939 41.49C23.1993 41.3519 24.0702 40.842 24.5959 39.9925C26.2156 37.3638 23.8366 32.2979 21.9089 28.7187ZM23.4701 39.302C23.1782 39.7641 22.7002 40.0615 21.9939 40.1729C21.7125 40.2207 21.3939 40.2367 21.038 40.2261C20.9106 40.2207 20.7884 40.2154 20.677 40.2049C19.8857 40.1199 19.3601 39.8172 19.068 39.2969C18.0059 37.3745 19.9707 32.8979 21.3089 30.4074C23.6135 34.9053 24.341 37.8897 23.4701 39.302Z" fill="white"/>
<path d="M58.9626 12.1201C58.9626 12.1201 57.3218 10.8138 56.7059 10.5642C56.0952 10.3146 56.0952 11.6315 56.0952 11.6315L58.0706 12.29L58.9626 12.1201Z" fill="white"/>
<path d="M53.7915 20.8561C56.5191 20.8561 58.7301 18.645 58.7301 15.9176C58.7301 13.1901 56.5191 10.979 53.7915 10.979C51.064 10.979 48.853 13.1901 48.853 15.9176C48.853 18.645 51.064 20.8561 53.7915 20.8561Z" fill="#E07103"/>
</g>
<path d="M109.836 24.1894V47.1106H121.18V52.938H103.542V24.1894H109.836Z" fill="white"/>
<path d="M129.812 52.938H123.247L133.503 24.1894H139.641L149.859 52.938H143.177L141.156 46.8775H131.871L129.812 52.938ZM135.756 35.4558L133.697 41.594H139.369L137.31 35.4558C137 34.4845 136.65 33.3579 136.533 32.6586C136.417 33.319 136.106 34.4068 135.756 35.4558Z" fill="white"/>
<path d="M159.421 52.938H153.205V24.1894H159.421L171.542 42.4875V24.1894H177.758V52.938H171.542L159.421 34.6788V52.938Z" fill="white"/>
<path d="M195.012 52.938H183.746V24.1894H194.623C203.054 24.1894 208.92 30.0945 208.92 38.6414C208.92 47.0329 203.209 52.938 195.012 52.938ZM194.002 30.0168H190.039V47.1106H194.39C199.363 47.1106 202.277 43.9638 202.277 38.6414C202.277 33.2025 199.208 30.0168 194.002 30.0168Z" fill="white"/>
<path d="M211.707 32.542C211.707 27.3362 216.097 23.6455 222.274 23.6455C228.451 23.6455 232.336 27.0643 232.336 32.5032H226.081C226.081 30.483 224.566 29.2398 222.197 29.2398C219.632 29.2398 218.001 30.4053 218.001 32.309C218.001 34.0572 218.894 34.9119 220.914 35.3392L225.227 36.2328C230.355 37.2817 232.802 39.7292 232.802 44.2746C232.802 49.8301 228.451 53.4431 221.847 53.4431C215.437 53.4431 211.28 49.9855 211.28 44.5854H217.535C217.535 46.6833 219.089 47.8488 221.886 47.8488C224.722 47.8488 226.509 46.7221 226.509 44.8962C226.509 43.3034 225.771 42.4875 223.867 42.099L219.477 41.2055C214.349 40.1566 211.707 37.2428 211.707 32.542Z" fill="white"/>
<path d="M243.268 52.938H236.974V24.1894H243.268V35.5335H254.378V24.1894H260.672V52.938H254.378V41.3609H243.268V52.938Z" fill="white"/>
<path d="M270.566 52.938H264L274.257 24.1894H280.395L290.612 52.938H283.93L281.91 46.8775H272.625L270.566 52.938ZM276.51 35.4558L274.451 41.594H280.123L278.064 35.4558C277.753 34.4845 277.404 33.3579 277.287 32.6586C277.17 33.319 276.86 34.4068 276.51 35.4558Z" fill="white"/>
<path d="M300.252 52.938H293.958V24.1894H305.069C312.062 24.1894 316.025 27.5693 316.025 33.5133C316.025 37.2428 314.432 39.8846 311.246 41.5163L316.297 52.938H309.42L305.108 42.876H300.252V52.938ZM300.252 29.7837V37.3594H305.03C307.789 37.3594 309.382 35.9608 309.382 33.5133C309.382 31.1046 307.866 29.7837 305.069 29.7837H300.252Z" fill="white"/>
<path d="M338.965 52.938H320.705V24.1894H338.965V30.0168H326.999V35.65H337.605V41.1666H326.999V47.1106H338.965V52.938Z" fill="white"/>
<defs>
<clipPath id="clip0_263_2753">
<rect width="73.5705" height="77.249" fill="white" transform="translate(0.540039 0.875488)"/>
</clipPath>
</defs>
</svg>
