<svg width="415" height="543" viewBox="0 0 415 543" fill="none" xmlns="http://www.w3.org/2000/svg">
<mask id="mask0_219_2161" style="mask-type:alpha" maskUnits="userSpaceOnUse" x="-70" y="-22" width="674" height="718">
<rect x="-69.3081" y="-21.6274" width="673.047" height="717.254" fill="url(#paint0_linear_219_2161)"/>
</mask>
<g mask="url(#mask0_219_2161)">
<g clip-path="url(#clip0_219_2161)">
<rect x="18" y="12.6324" width="379.435" height="503.229" rx="16.3238" fill="white" fill-opacity="0.04"/>
<path d="M83.2604 136.927V151.498H90.5341V154.303H80.2179V136.927H83.2604ZM96.0745 154.612C93.5787 154.612 92.0574 153.162 92.0574 150.952C92.0574 148.789 93.6262 147.434 96.4073 147.22L99.9253 146.958V146.697C99.9253 145.104 98.9745 144.463 97.5007 144.463C95.7893 144.463 94.8385 145.176 94.8385 146.412H92.3664C92.3664 143.868 94.4582 142.204 97.6433 142.204C100.805 142.204 102.754 143.916 102.754 147.172V154.303H100.21L99.9966 152.568C99.4974 153.78 97.9048 154.612 96.0745 154.612ZM97.0253 152.426C98.8081 152.426 99.949 151.356 99.949 149.549V148.931L97.5007 149.121C95.6942 149.288 95.0049 149.882 95.0049 150.833C95.0049 151.903 95.718 152.426 97.0253 152.426ZM108.503 154.303H105.603V142.561H108.289L108.526 144.082C109.263 142.894 110.69 142.204 112.282 142.204C115.23 142.204 116.751 144.035 116.751 147.077V154.303H113.851V147.767C113.851 145.794 112.876 144.843 111.379 144.843C109.596 144.843 108.503 146.079 108.503 147.981V154.303ZM124.425 154.612C121.026 154.612 118.911 152.117 118.911 148.48C118.911 144.819 121.05 142.204 124.592 142.204C126.232 142.204 127.682 142.894 128.419 144.058V136.618H131.295V154.303H128.633L128.443 152.473C127.729 153.828 126.208 154.612 124.425 154.612ZM125.067 151.95C127.088 151.95 128.395 150.5 128.395 148.385C128.395 146.269 127.088 144.795 125.067 144.795C123.047 144.795 121.811 146.293 121.811 148.385C121.811 150.476 123.047 151.95 125.067 151.95ZM133.414 150.738H136.171C136.195 151.76 136.956 152.402 138.287 152.402C139.642 152.402 140.378 151.855 140.378 150.999C140.378 150.405 140.069 149.977 139.024 149.74L136.908 149.24C134.793 148.765 133.77 147.767 133.77 145.889C133.77 143.583 135.72 142.204 138.429 142.204C141.068 142.204 142.851 143.726 142.874 146.008H140.117C140.093 145.009 139.428 144.367 138.31 144.367C137.17 144.367 136.504 144.89 136.504 145.77C136.504 146.435 137.027 146.863 138.025 147.101L140.141 147.6C142.114 148.052 143.112 148.955 143.112 150.762C143.112 153.139 141.092 154.612 138.192 154.612C135.268 154.612 133.414 153.044 133.414 150.738ZM148.22 154.303H145.32V136.618H148.244V144.082C148.981 142.941 150.359 142.204 152.047 142.204C154.947 142.204 156.468 144.035 156.468 147.077V154.303H153.568V147.767C153.568 145.794 152.594 144.843 151.12 144.843C149.29 144.843 148.22 146.126 148.22 147.885V154.303ZM162.812 154.612C160.316 154.612 158.794 153.162 158.794 150.952C158.794 148.789 160.363 147.434 163.144 147.22L166.662 146.958V146.697C166.662 145.104 165.712 144.463 164.238 144.463C162.526 144.463 161.576 145.176 161.576 146.412H159.103C159.103 143.868 161.195 142.204 164.38 142.204C167.542 142.204 169.491 143.916 169.491 147.172V154.303H166.948L166.734 152.568C166.234 153.78 164.642 154.612 162.812 154.612ZM163.762 152.426C165.545 152.426 166.686 151.356 166.686 149.549V148.931L164.238 149.121C162.431 149.288 161.742 149.882 161.742 150.833C161.742 151.903 162.455 152.426 163.762 152.426ZM179.709 142.513V145.199H178.639C176.547 145.199 175.24 146.317 175.24 148.599V154.303H172.34V142.585H175.073L175.24 144.296C175.739 143.131 176.856 142.347 178.425 142.347C178.829 142.347 179.233 142.395 179.709 142.513ZM186.53 154.612C183.036 154.612 180.587 152.069 180.587 148.432C180.587 144.748 182.988 142.204 186.435 142.204C189.953 142.204 192.187 144.558 192.187 148.218V149.098L183.345 149.121C183.559 151.189 184.652 152.235 186.577 152.235C188.17 152.235 189.216 151.617 189.549 150.5H192.235C191.736 153.067 189.596 154.612 186.53 154.612ZM186.459 144.581C184.747 144.581 183.701 145.508 183.416 147.267H189.311C189.311 145.651 188.194 144.581 186.459 144.581ZM203.506 154.303L199.703 142.561H202.721L204.266 147.6C204.528 148.527 204.766 149.549 204.98 150.643C205.193 149.502 205.407 148.765 205.788 147.6L207.404 142.561H210.352L211.92 147.6C212.063 148.076 212.538 149.835 212.681 150.619C212.871 149.74 213.252 148.337 213.465 147.6L215.034 142.561H218.101L214.036 154.303H211.326L209.71 149.217C209.234 147.672 208.973 146.554 208.878 145.96C208.759 146.507 208.545 147.339 207.951 149.264L206.334 154.303H203.506ZM218.587 148.408C218.587 144.748 221.225 142.228 224.862 142.228C228.499 142.228 231.138 144.748 231.138 148.408C231.138 152.069 228.499 154.589 224.862 154.589C221.225 154.589 218.587 152.069 218.587 148.408ZM221.487 148.408C221.487 150.548 222.866 151.998 224.862 151.998C226.859 151.998 228.238 150.548 228.238 148.408C228.238 146.269 226.859 144.819 224.862 144.819C222.866 144.819 221.487 146.269 221.487 148.408ZM241.121 142.561H244.02V154.303H241.334L241.121 152.735C240.407 153.852 238.886 154.612 237.317 154.612C234.608 154.612 233.015 152.782 233.015 149.906V142.561H235.915V148.884C235.915 151.118 236.794 152.021 238.411 152.021C240.241 152.021 241.121 150.952 241.121 148.717V142.561ZM249.939 154.303H247.063V136.618H249.939V154.303ZM257.807 154.612C254.408 154.612 252.292 152.117 252.292 148.48C252.292 144.819 254.431 142.204 257.973 142.204C259.613 142.204 261.063 142.894 261.8 144.058V136.618H264.676V154.303H262.014L261.824 152.473C261.111 153.828 259.589 154.612 257.807 154.612ZM258.448 151.95C260.469 151.95 261.776 150.5 261.776 148.385C261.776 146.269 260.469 144.795 258.448 144.795C256.428 144.795 255.192 146.293 255.192 148.385C255.192 150.476 256.428 151.95 258.448 151.95ZM277.029 154.303H274.153V136.618H277.029V154.303ZM281.521 140.208C280.522 140.208 279.738 139.423 279.738 138.449C279.738 137.474 280.522 136.714 281.521 136.714C282.472 136.714 283.256 137.474 283.256 138.449C283.256 139.423 282.472 140.208 281.521 140.208ZM280.071 154.303V142.561H282.971V154.303H280.071ZM288.891 154.303H286.014V136.618H288.891V147.481L293.454 142.561H297.091L292.623 147.22L296.996 154.303H293.668L290.602 149.359L288.891 151.142V154.303ZM303.476 154.612C299.982 154.612 297.534 152.069 297.534 148.432C297.534 144.748 299.935 142.204 303.381 142.204C306.899 142.204 309.134 144.558 309.134 148.218V149.098L300.291 149.121C300.505 151.189 301.599 152.235 303.524 152.235C305.117 152.235 306.163 151.617 306.495 150.5H309.181C308.682 153.067 306.543 154.612 303.476 154.612ZM303.405 144.581C301.694 144.581 300.648 145.508 300.363 147.267H306.258C306.258 145.651 305.14 144.581 303.405 144.581ZM321.855 154.303H318.955V144.986H316.697V142.561H318.955V138.9H321.855V142.561H324.137V144.986H321.855V154.303ZM325.134 148.408C325.134 144.748 327.773 142.228 331.409 142.228C335.046 142.228 337.685 144.748 337.685 148.408C337.685 152.069 335.046 154.589 331.409 154.589C327.773 154.589 325.134 152.069 325.134 148.408ZM328.034 148.408C328.034 150.548 329.413 151.998 331.409 151.998C333.406 151.998 334.785 150.548 334.785 148.408C334.785 146.269 333.406 144.819 331.409 144.819C329.413 144.819 328.034 146.269 328.034 148.408Z" fill="white"/>
<g clip-path="url(#clip1_219_2161)">
<rect x="151.725" y="49.2875" width="64.3973" height="64.3973" rx="32.1987" fill="#F4663E"/>
<path fill-rule="evenodd" clip-rule="evenodd" d="M151.725 61.9232C151.725 54.843 157.465 49.1033 164.545 49.1033H203.005C210.085 49.1033 215.825 54.843 215.825 61.9232V100.383C215.825 107.463 210.085 113.203 203.005 113.203H164.545C157.465 113.203 151.725 107.463 151.725 100.383V61.9232Z" fill="url(#paint1_linear_219_2161)"/>
<g style="mix-blend-mode:soft-light">
<path d="M189.118 65.5481H199.801V87.6778H189.118V65.5481Z" fill="white"/>
<path d="M167.751 65.5481H178.435V87.6778H167.751V65.5481Z" fill="white"/>
<path d="M178.435 87.6778H189.118V98.3611H178.435V87.6778Z" fill="white"/>
</g>
</g>
<rect x="198.01" y="47.2751" width="68.4222" height="68.4222" rx="34.2111" fill="white"/>
<rect x="198.01" y="47.2751" width="68.4222" height="68.4222" rx="34.2111" stroke="#23252B" stroke-width="4.02483"/>
<g clip-path="url(#clip2_219_2161)">
<path d="M219.599 81.0007C219.129 81.7629 218.332 82.2047 217.22 82.3086V82.9784L216.325 83.0708V82.3259C215.119 82.2624 214.267 81.8005 213.799 80.9459C212.174 77.9807 216.21 71.1988 216.38 70.9129L216.784 70.2402L217.157 70.9303C218.892 74.1437 221.023 78.6881 219.599 81.0007Z" fill="#24BC48"/>
<path d="M225.083 82.2673C224.797 82.7292 224.323 83.0064 223.668 83.0815V84.4529L223.134 84.5077V83.7628C223.073 83.76 223.013 83.7571 222.952 83.7484V83.0959C222.239 83.0411 221.734 82.7523 221.448 82.2326C220.466 80.4368 222.738 76.5594 222.998 76.1205L223.324 75.5835L223.622 76.1378C224.667 78.0838 225.96 80.8381 225.083 82.2673Z" fill="#239942"/>
<path d="M251.256 85.2774C251.239 85.4304 251.216 85.5863 251.193 85.7393C251.106 86.311 250.994 86.8798 250.852 87.4341C250.812 87.6016 250.769 87.7661 250.719 87.9278C250.685 88.0722 250.642 88.2108 250.598 88.3551C250.385 89.0711 250.128 89.7698 249.836 90.4512L248.866 90.4339L246.799 90.3935L244.466 90.3501L236.818 90.2058L234.482 90.1596L232.891 90.1307L230.169 88.4013L229.363 87.8845L228.95 87.6218L226.9 86.2619L227.169 85.9212L230.382 81.8907L232.172 79.3847L235.039 76.8786L236.829 76.1626L237.545 76.5206L239.693 79.0267L240.767 80.8167L241.483 81.8907L242.557 80.4587L243.989 79.0267L245.064 78.6687L246.138 79.0267L247.57 81.1747L249.36 82.9648L250.457 84.3044L251.256 85.2774Z" fill="#0B6C96"/>
<path d="M231.244 87.6693L224.705 100.142L224.286 100.942C223.928 100.794 223.576 100.641 223.232 100.471C223.033 100.379 222.831 100.278 222.637 100.174C222.551 100.127 222.464 100.084 222.383 100.038C217.201 97.2345 213.41 92.1733 212.339 86.1824L212.203 85.2932C212.472 85.2239 212.766 85.1546 213.078 85.0853C214.013 84.8803 215.113 84.684 216.332 84.5541V83.9016L217.227 83.8842V84.4674C218.997 84.3317 220.96 84.352 222.955 84.6869V83.763L223.671 83.7485V84.8226C224.739 85.042 225.81 85.3538 226.858 85.7869C227.052 85.4866 227.341 85.0391 227.71 84.4934L228.386 85.0997C228.123 85.4837 227.889 85.8417 227.684 86.1564C228.452 86.5231 229.203 86.9591 229.93 87.4701C230.135 87.3257 230.343 87.1843 230.554 87.0486L231.244 87.6693Z" fill="#239942"/>
<path d="M250.72 87.926C250.686 88.0704 250.642 88.209 250.599 88.3533C250.224 89.615 249.721 90.8218 249.109 91.9594C249.031 92.1124 248.948 92.2625 248.858 92.4156C248.797 92.531 248.728 92.6408 248.662 92.7534C248.018 93.8418 247.264 94.8639 246.427 95.8022C246.231 96.0245 246.026 96.2439 245.818 96.4547C242.397 99.9626 237.679 102.2 232.45 102.385C232.211 102.396 231.971 102.399 231.731 102.399C231.674 102.399 231.613 102.399 231.555 102.396C230.27 102.391 229.012 102.252 227.793 102.007C227.606 101.966 227.421 101.929 227.239 101.885C227.129 101.859 227.017 101.831 226.907 101.802C225.628 101.478 224.395 101.031 223.232 100.468C223.032 100.375 222.83 100.274 222.637 100.17L222.804 99.2437L223.223 96.9369L225.013 93.7119L226.087 91.9219L228.954 88.6969L229.595 88.3302L230.441 87.8481L231.463 87.2648L233.611 85.8328L236.836 85.1168L239.342 84.7588L243.999 85.1168L247.582 86.1908L249.73 87.2648L249.938 87.4034L250.72 87.926Z" fill="#24BC48"/>
<path d="M248.857 92.4149C248.797 92.5304 248.727 92.6401 248.661 92.7527C248.017 93.8412 247.264 94.8633 246.426 95.8016C246.23 96.0239 246.025 96.2433 245.817 96.4541C242.396 99.962 237.678 102.2 232.45 102.384C232.21 102.396 231.97 102.399 231.731 102.399C231.673 102.399 231.612 102.399 231.555 102.396C230.27 102.39 229.011 102.251 227.793 102.006C227.605 101.966 227.42 101.928 227.238 101.885L227.521 101.235L227.564 101.039L228.237 98.0132L229.669 94.4302L232.536 91.9241L234.326 90.8501L237.193 89.7761L240.418 89.0601L242.924 89.4181L245.791 90.1341L247.581 91.5661L248.115 91.9212L248.857 92.4149Z" fill="#239942"/>
<path d="M232.176 101.95L232.534 99.4439L234.327 96.577L237.191 94.4289L240.774 93.7129L243.638 94.7869L245.073 95.5029L245.789 95.8609L243.638 98.0119L240.058 100.16L236.117 101.592L233.25 101.95H232.176Z" fill="#24BC48"/>
<path d="M244.586 67.786C244.583 67.7831 244.58 67.7802 244.58 67.7744C244.314 67.5492 244.043 67.3269 243.766 67.1133H243.763C243.751 67.1017 243.722 67.0786 243.679 67.044C243.639 67.0151 243.601 66.9862 243.561 66.9545C243.474 66.9083 243.385 66.8679 243.292 66.8303C242.963 66.6946 242.605 66.608 242.233 66.5878C242.163 66.5849 242.097 66.582 242.028 66.582C241.84 66.582 241.661 66.5965 241.482 66.6282C242.045 66.9689 242.582 67.3385 243.102 67.7311C243.419 67.8899 243.696 68.1151 243.919 68.3894C244.023 68.4789 244.124 68.5655 244.222 68.6579C244.609 68.9986 244.978 69.3566 245.336 69.7291C248.553 73.107 250.533 77.6774 250.533 82.6982C250.533 83.0216 250.527 83.3421 250.507 83.6654V83.6683C250.496 83.882 250.481 84.0956 250.464 84.3064C250.447 84.4998 250.429 84.6932 250.406 84.8838C250.322 85.5709 250.21 86.2437 250.054 86.9077C250.019 87.0752 249.976 87.2397 249.933 87.4043C249.898 87.5429 249.858 87.6844 249.817 87.8201C249.566 88.718 249.243 89.5928 248.861 90.43C248.717 90.7592 248.561 91.0826 248.391 91.3973C248.298 91.5734 248.203 91.7495 248.108 91.9169C248.059 92.0064 248.007 92.0959 247.955 92.1854C247.317 93.2739 246.575 94.2931 245.738 95.2256C245.541 95.448 245.333 95.6674 245.123 95.881C241.875 99.1811 237.423 101.289 232.483 101.482C232.231 101.497 231.98 101.5 231.726 101.5C231.68 101.5 231.634 101.5 231.588 101.497C230.306 101.491 229.056 101.352 227.846 101.095C227.753 101.078 227.655 101.055 227.563 101.035C227.364 100.988 227.164 100.942 226.968 100.887C226.191 100.682 225.435 100.431 224.702 100.134C224.246 99.9519 223.795 99.7469 223.359 99.5275C223.172 99.4351 222.987 99.337 222.805 99.2388C222.71 99.1897 222.614 99.1378 222.522 99.0858C217.709 96.3718 214.201 91.5965 213.214 85.9665C213.159 85.672 213.118 85.3804 213.078 85.083C212.766 85.1523 212.472 85.2216 212.203 85.2909L212.339 86.1801C213.41 92.1681 217.201 97.2293 222.383 100.036C222.467 100.082 222.551 100.125 222.637 100.171C222.831 100.275 223.03 100.376 223.232 100.469C223.576 100.636 223.928 100.792 224.286 100.939C225.132 101.286 226.01 101.577 226.908 101.803C227.017 101.832 227.13 101.86 227.24 101.886C227.421 101.93 227.609 101.97 227.794 102.008C229.012 102.256 230.268 102.392 231.556 102.397C231.614 102.4 231.674 102.4 231.732 102.4C231.972 102.4 232.211 102.397 232.451 102.386C237.68 102.198 242.397 99.9606 245.818 96.4556C246.026 96.2448 246.231 96.0254 246.428 95.8031C247.265 94.8647 248.019 93.8427 248.662 92.7542C248.732 92.6445 248.798 92.5319 248.859 92.4164C248.948 92.2663 249.032 92.1162 249.11 91.9602C249.375 91.4694 249.618 90.9642 249.837 90.4474C250.132 89.766 250.386 89.0673 250.6 88.3513C250.643 88.2069 250.686 88.0683 250.721 87.924C250.77 87.7623 250.813 87.5977 250.854 87.4303C250.992 86.8759 251.108 86.3101 251.194 85.7355C251.22 85.5825 251.241 85.4266 251.258 85.2736C251.293 85.0397 251.318 84.8087 251.342 84.572C251.402 83.9512 251.431 83.3305 251.431 82.6953C251.431 76.7449 248.775 71.3978 244.586 67.786Z" fill="#131414"/>
<path d="M244.263 69.0128C244.257 68.8915 244.245 68.7731 244.222 68.6577C244.136 68.0947 243.905 67.5807 243.57 67.1506C243.553 67.1246 243.529 67.0957 243.509 67.0726C243.506 67.0697 243.503 67.0668 243.503 67.0611C243.434 66.9831 243.368 66.9023 243.293 66.833C243.068 66.6078 242.811 66.4172 242.528 66.2671C242.525 66.2642 242.522 66.2642 242.522 66.2642C242.516 66.2526 242.502 66.2498 242.49 66.244C242.031 66.0044 241.508 65.8687 240.957 65.8687C240.769 65.8687 240.59 65.8831 240.411 65.9149C238.844 66.1718 237.643 67.5403 237.643 69.1802C237.643 71.0078 239.129 72.4947 240.957 72.4947C242.785 72.4947 244.271 71.0078 244.271 69.1802C244.266 69.1225 244.266 69.0676 244.263 69.0128ZM240.954 71.5939C239.62 71.5939 238.538 70.5083 238.538 69.1774C238.538 67.8435 239.623 66.7608 240.954 66.7608C241.341 66.7608 241.708 66.8503 242.028 67.0149C242.346 67.1737 242.623 67.3989 242.845 67.6731C243.174 68.086 243.371 68.6086 243.371 69.1774C243.371 70.5083 242.285 71.5939 240.954 71.5939Z" fill="#131414"/>
<path d="M230.68 88.0391C230.426 88.2153 230.175 88.3972 229.926 88.5877C229.678 88.3943 229.424 88.2124 229.17 88.0391C225.362 85.4667 220.866 85.074 217.22 85.3627C216.917 85.3887 216.614 85.4176 216.325 85.4494C215.159 85.5822 214.102 85.7727 213.21 85.9719C212.898 86.0441 212.603 86.1163 212.335 86.1827L212.199 85.2934C212.468 85.2242 212.762 85.1549 213.074 85.0856C214.009 84.8806 215.109 84.6843 216.328 84.5543C216.617 84.5197 216.92 84.4908 217.223 84.4677C218.993 84.332 220.956 84.3522 222.951 84.6871C223.081 84.7074 223.208 84.7333 223.338 84.7593C223.448 84.7795 223.557 84.8026 223.667 84.8228C224.735 85.0423 225.806 85.3541 226.854 85.7872C227.132 85.9026 227.409 86.0239 227.683 86.1567C228.451 86.5234 229.202 86.9593 229.929 87.4704C230.181 87.6523 230.432 87.8399 230.68 88.0391Z" fill="#131414"/>
<path d="M251.341 84.5748C251.32 84.8115 251.294 85.0454 251.257 85.2764C251.24 85.4294 251.216 85.5853 251.193 85.7383C250.983 85.5045 250.714 85.2157 250.408 84.8837C248.915 83.2611 246.577 80.6829 245.615 79.4847C245.376 79.1845 245.156 79.0343 244.963 79.0343C244.741 79.0343 244.484 79.2162 244.209 79.4905C243.938 79.759 243.649 80.1199 243.366 80.475C243.04 80.8821 242.708 81.3065 242.338 81.6703C242.203 81.806 241.79 82.2218 241.267 82.1438C240.655 82.0543 240.317 81.4191 239.809 80.4635C239.307 79.5165 238.617 78.2259 237.41 77.0133C237.173 76.7794 236.899 76.6871 236.544 76.7275C234.326 76.9815 230.504 81.9706 228.382 85.0974C228.119 85.4814 227.885 85.8394 227.68 86.1541C227.585 86.3042 227.493 86.4486 227.412 86.5814L226.904 86.2638L226.652 86.105C226.696 86.0328 226.762 85.926 226.852 85.7874C227.045 85.4871 227.334 85.0396 227.703 84.494C229.641 81.6357 233.686 76.1529 236.443 75.8411C237.064 75.7689 237.618 75.9595 238.039 76.3868C239.347 77.6918 240.069 79.0516 240.6 80.0477C240.866 80.5443 241.23 81.2343 241.4 81.2632C241.4 81.2632 241.49 81.2603 241.709 81.0438C242.038 80.7118 242.359 80.3105 242.665 79.9236C243.392 79.0055 244.079 78.1422 244.957 78.1422H244.96C245.436 78.1422 245.895 78.4078 246.314 78.9304C247.131 79.9553 249.042 82.0716 250.506 83.6682V83.6711C250.809 83.9974 251.092 84.3034 251.341 84.5748Z" fill="#131414"/>
<path d="M230.586 85.8869L229.824 85.4163C229.943 85.2229 232.769 80.6525 234.631 79.5352L235.093 80.3031C233.699 81.1404 231.369 84.6166 230.586 85.8869Z" fill="#131414"/>
<path d="M233.365 68.375L233.361 69.27L236.944 69.2862L236.948 68.3912L233.365 68.375Z" fill="#131414"/>
<path d="M237.195 70.3427L233.785 71.4434L234.06 72.2951L237.47 71.1944L237.195 70.3427Z" fill="#131414"/>
<path d="M234.227 65.0521L233.793 65.835L236.927 67.5713L237.361 66.7884L234.227 65.0521Z" fill="#131414"/>
<path d="M236.591 62.8513L235.896 63.416L238.157 66.196L238.851 65.6313L236.591 62.8513Z" fill="#131414"/>
<path d="M240.072 61.6119L239.186 61.7349L239.678 65.2839L240.564 65.1609L240.072 61.6119Z" fill="#131414"/>
<path d="M242.399 61.6002L241.512 65.0718L242.379 65.2933L243.266 61.8217L242.399 61.6002Z" fill="#131414"/>
<path d="M245.227 62.809L243.115 65.7036L243.838 66.2311L245.95 63.3364L245.227 62.809Z" fill="#131414"/>
<path d="M248.397 91.401C247.892 91.0285 247.358 90.6907 246.801 90.3933C244.898 89.3684 242.724 88.7881 240.417 88.7881C238.289 88.7881 236.277 89.2818 234.487 90.1595C230.399 92.1603 227.465 96.1706 226.972 100.891C226.94 101.191 226.917 101.497 226.908 101.801C227.018 101.829 227.131 101.858 227.24 101.884C227.422 101.928 227.61 101.968 227.795 102.005C227.8 101.702 227.821 101.399 227.849 101.099C228.343 95.9194 231.978 91.6464 236.823 90.2057C237.963 89.865 239.17 89.6831 240.42 89.6831C241.838 89.6831 243.201 89.917 244.471 90.35C245.738 90.7802 246.913 91.4039 247.964 92.1863C248.204 92.3653 248.441 92.5558 248.666 92.7522C248.735 92.6425 248.802 92.5299 248.862 92.4144C248.952 92.2642 249.036 92.1141 249.113 91.9582C248.88 91.7648 248.64 91.58 248.397 91.401Z" fill="#131414"/>
<path d="M245.742 95.2315C244.258 94.1113 242.41 93.4473 240.415 93.4473C235.799 93.4473 231.999 96.9927 231.589 101.502C231.56 101.771 231.549 102.039 231.549 102.311C231.549 102.34 231.549 102.369 231.552 102.397C231.61 102.4 231.67 102.4 231.728 102.4C231.968 102.4 232.207 102.397 232.447 102.386C232.444 102.36 232.444 102.337 232.444 102.311C232.444 102.031 232.458 101.756 232.484 101.488C232.9 97.4806 236.298 94.3423 240.415 94.3423C242.177 94.3423 243.805 94.9168 245.124 95.8869C245.364 96.063 245.598 96.2536 245.814 96.4557C246.022 96.2449 246.227 96.0255 246.424 95.8032C246.207 95.6011 245.976 95.4105 245.742 95.2315Z" fill="#131414"/>
<path d="M250.058 86.9098C247.261 85.1515 243.955 84.1353 240.415 84.1353C236.783 84.1353 233.394 85.2064 230.55 87.0513C230.339 87.187 230.131 87.3313 229.926 87.4728C229.735 87.6085 229.545 87.7471 229.363 87.8886C229.3 87.9377 229.233 87.9896 229.17 88.0387C225.748 90.7382 223.32 94.6359 222.518 99.0937C222.463 99.4055 222.416 99.7202 222.379 100.041C222.463 100.087 222.546 100.13 222.633 100.176C222.826 100.28 223.026 100.381 223.228 100.474C223.26 100.162 223.303 99.8472 223.358 99.5383C224.074 95.0921 226.496 91.2146 229.926 88.5873C230.01 88.5266 230.088 88.466 230.169 88.4054C230.336 88.2812 230.506 88.1571 230.677 88.0387C230.864 87.9146 231.049 87.7875 231.24 87.6691C233.902 85.9975 237.046 85.0303 240.412 85.0303C243.88 85.0303 247.11 86.0552 249.819 87.8251C250.084 87.9925 250.341 88.1715 250.595 88.3592C250.639 88.2148 250.682 88.0762 250.717 87.9319C250.766 87.7702 250.809 87.6056 250.849 87.4382C250.589 87.2534 250.33 87.0773 250.058 86.9098Z" fill="#131414"/>
<path d="M217.223 79.0259V85.3574C216.92 85.3834 216.617 85.4123 216.328 85.4441V79.0259H217.223Z" fill="#131414"/>
<path d="M217.162 70.9351L216.79 70.2451L216.385 70.9178C216.212 71.2037 212.176 77.9856 213.804 80.9507C214.269 81.8025 215.124 82.2644 216.33 82.3308C216.38 82.3337 216.432 82.3366 216.484 82.3366C216.544 82.3395 216.602 82.3395 216.66 82.3395C216.856 82.3395 217.047 82.3337 217.226 82.3106C218.337 82.2067 219.134 81.7649 219.605 81.0027C221.022 78.6901 218.891 74.1457 217.162 70.9351ZM218.837 80.5321C218.528 81.0287 217.999 81.3232 217.22 81.4098C217 81.4358 216.761 81.4444 216.501 81.4387C216.44 81.4387 216.382 81.4358 216.325 81.4329C215.461 81.3752 214.893 81.0778 214.587 80.5206C213.562 78.6554 215.534 74.2958 216.749 72.0756C218.964 76.3428 219.665 79.1867 218.837 80.5321Z" fill="#131414"/>
<path d="M223.665 81.0332H222.949V85.1157H223.665V81.0332Z" fill="#131414"/>
<path d="M223.618 76.1383L223.321 75.584L222.994 76.121C222.732 76.557 220.462 80.4373 221.444 82.2331C221.73 82.7528 222.235 83.0415 222.948 83.0964C223.006 83.1079 223.067 83.1108 223.127 83.1108H223.234C223.384 83.1108 223.529 83.1051 223.664 83.082C224.32 83.0069 224.793 82.7297 225.079 82.2678C225.96 80.8386 224.666 78.0843 223.618 76.1383ZM224.467 81.8924C224.308 82.1436 224.048 82.3053 223.664 82.3659C223.511 82.3919 223.338 82.4006 223.145 82.3948C223.075 82.3919 223.009 82.389 222.948 82.3833C222.518 82.3371 222.232 82.1725 222.073 81.8896C221.496 80.8444 222.564 78.4105 223.292 77.0564C224.545 79.5019 224.94 81.1245 224.467 81.8924Z" fill="#131414"/>
<path d="M243.764 67.1135C243.764 67.1135 242.872 66.4033 242.537 66.2676C242.205 66.1319 242.205 66.8479 242.205 66.8479L243.279 67.2059L243.764 67.1135Z" fill="#131414"/>
<path d="M240.953 71.8633C242.436 71.8633 243.638 70.6612 243.638 69.1782C243.638 67.6953 242.436 66.4932 240.953 66.4932C239.47 66.4932 238.268 67.6953 238.268 69.1782C238.268 70.6612 239.47 71.8633 240.953 71.8633Z" fill="#E07103"/>
</g>
<path d="M48.5673 187.981V186.854H57.3287V187.981H53.5543V199.082H52.3246V187.981H48.5673ZM59.9436 199.065H58.7652V186.632H59.9436V192.251C60.473 191.26 61.4807 190.594 62.8641 190.594C65.0331 190.594 66.0066 191.943 66.0066 194.027V199.082H64.8281V194.283C64.8281 192.353 63.9229 191.67 62.642 191.67C60.8658 191.67 59.9436 192.985 59.9436 194.573V199.065ZM68.936 188.545C68.4578 188.545 68.065 188.152 68.065 187.674C68.065 187.195 68.4578 186.786 68.936 186.786C69.4142 186.786 69.8241 187.195 69.8241 187.674C69.8241 188.152 69.4142 188.545 68.936 188.545ZM68.3553 199.082V190.816H69.5337V199.082H68.3553ZM71.291 196.76H72.4182C72.4182 197.716 73.1355 198.314 74.2968 198.314C75.5778 198.314 76.3292 197.767 76.3292 196.879C76.3292 196.196 75.9876 195.803 75.0142 195.564L73.5966 195.205C72.162 194.847 71.4618 194.095 71.4618 192.968C71.4618 191.516 72.6744 190.594 74.4506 190.594C76.1926 190.594 77.3198 191.551 77.371 193.088H76.2267C76.1926 192.131 75.5265 191.568 74.4164 191.568C73.255 191.568 72.606 192.063 72.606 192.951C72.606 193.583 73.0501 194.027 73.9553 194.249L75.3728 194.608C76.8074 194.966 77.4564 195.632 77.4564 196.828C77.4564 198.314 76.1926 199.287 74.3139 199.287C72.4523 199.287 71.291 198.297 71.291 196.76ZM86.5071 199.287C84.748 199.287 83.7062 198.297 83.7062 196.845C83.7062 195.325 84.8675 194.369 86.7974 194.215L89.5301 193.993V193.72C89.5301 192.097 88.5566 191.585 87.344 191.585C85.9094 191.585 85.0554 192.234 85.0554 193.344H83.9794C83.9794 191.67 85.3458 190.594 87.3781 190.594C89.291 190.594 90.6914 191.551 90.6914 193.737V199.082H89.7008L89.5471 197.631C89.0348 198.672 87.9076 199.287 86.5071 199.287ZM86.7804 198.331C88.5224 198.331 89.5301 197.118 89.5301 195.325V194.881L87.0878 195.069C85.5336 195.205 84.9017 195.889 84.9017 196.811C84.9017 197.818 85.6532 198.331 86.7804 198.331ZM93.0562 202.686V190.816H94.0809L94.2004 192.49C94.7811 191.209 95.9425 190.594 97.3259 190.594C99.7169 190.594 101.152 192.422 101.152 194.915C101.152 197.409 99.7681 199.287 97.3259 199.287C95.9254 199.287 94.8153 198.689 94.2346 197.494V202.686H93.0562ZM94.2517 194.949C94.2517 196.845 95.3106 198.228 97.1209 198.228C98.9142 198.228 99.956 196.845 99.956 194.949C99.956 193.036 98.9142 191.67 97.1209 191.67C95.3106 191.67 94.2517 193.036 94.2517 194.949ZM103.03 202.686V190.816H104.055L104.174 192.49C104.755 191.209 105.916 190.594 107.3 190.594C109.691 190.594 111.125 192.422 111.125 194.915C111.125 197.409 109.742 199.287 107.3 199.287C105.899 199.287 104.789 198.689 104.208 197.494V202.686H103.03ZM104.225 194.949C104.225 196.845 105.284 198.228 107.095 198.228C108.888 198.228 109.93 196.845 109.93 194.949C109.93 193.036 108.888 191.67 107.095 191.67C105.284 191.67 104.225 193.036 104.225 194.949ZM119.482 199.082L116.75 190.816H117.962L119.585 195.803C119.773 196.35 119.926 196.913 120.097 197.579C120.234 196.913 120.507 196.076 120.592 195.803L122.232 190.816H123.445L125.067 195.803C125.221 196.247 125.426 196.965 125.58 197.579C125.75 196.896 125.784 196.691 126.075 195.803L127.714 190.816H128.944L126.143 199.082H124.999L123.291 193.89C123.086 193.275 122.949 192.763 122.847 192.268C122.727 192.712 122.591 193.207 122.369 193.89L120.661 199.082H119.482ZM130.997 188.545C130.518 188.545 130.126 188.152 130.126 187.674C130.126 187.195 130.518 186.786 130.997 186.786C131.475 186.786 131.885 187.195 131.885 187.674C131.885 188.152 131.475 188.545 130.997 188.545ZM130.416 199.082V190.816H131.594V199.082H130.416ZM135.282 199.082H134.103V186.632H135.282V199.082ZM139.018 199.082H137.839V186.632H139.018V199.082ZM147.285 199.082H146.261V186.632H147.439V192.422C148.02 191.209 149.147 190.594 150.547 190.594C152.955 190.594 154.356 192.473 154.356 194.966C154.356 197.443 152.921 199.287 150.513 199.287C149.13 199.287 147.986 198.672 147.405 197.391L147.285 199.082ZM147.456 194.932C147.456 196.845 148.515 198.211 150.325 198.211C152.119 198.211 153.16 196.845 153.16 194.932C153.16 193.036 152.119 191.653 150.325 191.653C148.515 191.653 147.456 193.036 147.456 194.932ZM159.701 199.287C157.276 199.287 155.654 197.545 155.654 194.949C155.654 192.37 157.259 190.594 159.616 190.594C161.853 190.594 163.373 192.182 163.373 194.522V195.103H156.798C156.883 197.118 157.942 198.28 159.718 198.28C161.068 198.28 161.939 197.699 162.246 196.606H163.373C162.929 198.348 161.648 199.287 159.701 199.287ZM159.616 191.602C158.062 191.602 157.037 192.626 156.832 194.249H162.195C162.195 192.661 161.17 191.602 159.616 191.602ZM172.368 199.287C170.609 199.287 169.567 198.297 169.567 196.845C169.567 195.325 170.728 194.369 172.658 194.215L175.391 193.993V193.72C175.391 192.097 174.417 191.585 173.205 191.585C171.77 191.585 170.916 192.234 170.916 193.344H169.84C169.84 191.67 171.207 190.594 173.239 190.594C175.152 190.594 176.552 191.551 176.552 193.737V199.082H175.562L175.408 197.631C174.896 198.672 173.769 199.287 172.368 199.287ZM172.641 198.331C174.383 198.331 175.391 197.118 175.391 195.325V194.881L172.949 195.069C171.395 195.205 170.763 195.889 170.763 196.811C170.763 197.818 171.514 198.331 172.641 198.331ZM179.942 199.082H178.917V186.632H180.096V192.422C180.676 191.209 181.803 190.594 183.204 190.594C185.612 190.594 187.012 192.473 187.012 194.966C187.012 197.443 185.578 199.287 183.17 199.287C181.786 199.287 180.642 198.672 180.061 197.391L179.942 199.082ZM180.113 194.932C180.113 196.845 181.171 198.211 182.982 198.211C184.775 198.211 185.817 196.845 185.817 194.932C185.817 193.036 184.775 191.653 182.982 191.653C181.171 191.653 180.113 193.036 180.113 194.932ZM190.121 199.082H188.942V186.632H190.121V199.082ZM196.094 199.287C193.669 199.287 192.046 197.545 192.046 194.949C192.046 192.37 193.652 190.594 196.008 190.594C198.246 190.594 199.766 192.182 199.766 194.522V195.103H193.19C193.276 197.118 194.335 198.28 196.111 198.28C197.46 198.28 198.331 197.699 198.639 196.606H199.766C199.322 198.348 198.041 199.287 196.094 199.287ZM196.008 191.602C194.454 191.602 193.43 192.626 193.225 194.249H198.587C198.587 192.661 197.563 191.602 196.008 191.602ZM208.282 199.082H207.121V191.807H205.464V190.816H207.121V188.203H208.282V190.816H209.939V191.807H208.282V199.082ZM210.809 194.949C210.809 192.422 212.586 190.594 215.011 190.594C217.436 190.594 219.212 192.422 219.212 194.949C219.212 197.46 217.436 199.287 215.011 199.287C212.586 199.287 210.809 197.46 210.809 194.949ZM212.005 194.932C212.005 196.879 213.235 198.228 215.011 198.228C216.77 198.228 218.017 196.879 218.017 194.932C218.017 193.019 216.77 191.653 215.011 191.653C213.235 191.653 212.005 193.019 212.005 194.932ZM228.139 199.082L224.758 190.816H226.022L228.156 196.145C228.378 196.742 228.6 197.306 228.754 197.853C228.908 197.289 229.13 196.742 229.369 196.145L231.538 190.816H232.751L229.318 199.082H228.139ZM234.72 188.545C234.242 188.545 233.849 188.152 233.849 187.674C233.849 187.195 234.242 186.786 234.72 186.786C235.199 186.786 235.608 187.195 235.608 187.674C235.608 188.152 235.199 188.545 234.72 188.545ZM234.14 199.082V190.816H235.318V199.082H234.14ZM241.243 199.287C238.817 199.287 237.195 197.545 237.195 194.949C237.195 192.37 238.8 190.594 241.157 190.594C243.394 190.594 244.914 192.182 244.914 194.522V195.103H238.339C238.425 197.118 239.483 198.28 241.26 198.28C242.609 198.28 243.48 197.699 243.787 196.606H244.914C244.47 198.348 243.19 199.287 241.243 199.287ZM241.157 191.602C239.603 191.602 238.578 192.626 238.373 194.249H243.736C243.736 192.661 242.711 191.602 241.157 191.602ZM248.324 199.082L245.591 190.816H246.804L248.426 195.803C248.614 196.35 248.768 196.913 248.939 197.579C249.075 196.913 249.349 196.076 249.434 195.803L251.073 190.816H252.286L253.909 195.803C254.062 196.247 254.267 196.965 254.421 197.579C254.592 196.896 254.626 196.691 254.916 195.803L256.556 190.816H257.785L254.985 199.082H253.84L252.132 193.89C251.927 193.275 251.791 192.763 251.688 192.268C251.569 192.712 251.432 193.207 251.21 193.89L249.502 199.082H248.324ZM260.436 192.729C259.855 192.729 259.36 192.234 259.36 191.67C259.36 191.089 259.855 190.611 260.436 190.611C261.017 190.611 261.512 191.089 261.512 191.67C261.512 192.234 261.017 192.729 260.436 192.729ZM260.436 199.27C259.855 199.27 259.36 198.792 259.36 198.228C259.36 197.648 259.855 197.152 260.436 197.152C261.017 197.152 261.512 197.648 261.512 198.228C261.512 198.792 261.017 199.27 260.436 199.27Z" fill="#B1B8C1"/>
<g clip-path="url(#clip3_219_2161)">
<rect x="48.3623" y="215.704" width="19.893" height="19.893" rx="9.94651" fill="#78CBBB"/>
<path d="M54.5374 225.713L57.1898 228.365L61.9641 223.591" stroke="#2F2F33" stroke-width="1.59144"/>
</g>
<rect x="48.7053" y="216.047" width="19.2071" height="19.2071" rx="9.60353" stroke="black" stroke-opacity="0.2" stroke-width="0.685966"/>
<path d="M80.3149 232.151H78.582V219.366H80.3149L86.8575 229.251V219.366H88.5904V232.151H86.8575L80.3149 222.266V232.151ZM93.8135 232.363C91.9568 232.363 90.8604 231.32 90.8604 229.746C90.8604 228.154 92.0452 227.164 94.0787 227.005L96.8018 226.793V226.545C96.8018 225.095 95.9354 224.583 94.7683 224.583C93.3714 224.583 92.5757 225.201 92.5757 226.245H91.1257C91.1257 224.441 92.611 223.256 94.8391 223.256C96.9787 223.256 98.4286 224.388 98.4286 226.722V232.151H97.014L96.8372 230.754C96.3951 231.744 95.2104 232.363 93.8135 232.363ZM94.2909 231.072C95.8646 231.072 96.8195 230.047 96.8195 228.42V227.96L94.6092 228.137C93.1415 228.278 92.5403 228.844 92.5403 229.693C92.5403 230.612 93.2122 231.072 94.2909 231.072ZM102.393 232.151H100.731V223.504H102.216L102.375 224.636C102.817 223.822 103.737 223.256 104.957 223.256C106.301 223.256 107.255 223.928 107.698 225.007C108.104 223.928 109.148 223.256 110.491 223.256C112.472 223.256 113.674 224.494 113.674 226.492V232.151H112.047V226.899C112.047 225.537 111.287 224.759 110.12 224.759C108.865 224.759 108.034 225.644 108.034 227.023V232.151H106.389V226.881C106.389 225.52 105.646 224.777 104.479 224.777C103.224 224.777 102.393 225.644 102.393 227.023V232.151ZM119.709 232.363C117.163 232.363 115.413 230.524 115.413 227.836C115.413 225.131 117.128 223.256 119.639 223.256C122.097 223.256 123.706 224.954 123.706 227.518V228.137L117.022 228.154C117.145 229.976 118.1 230.984 119.745 230.984C121.036 230.984 121.884 230.453 122.167 229.463H123.723C123.299 231.32 121.849 232.363 119.709 232.363ZM119.639 224.653C118.189 224.653 117.269 225.52 117.057 227.04H122.044C122.044 225.608 121.106 224.653 119.639 224.653ZM132.926 232.363C131.069 232.363 129.973 231.32 129.973 229.746C129.973 228.154 131.158 227.164 133.191 227.005L135.914 226.793V226.545C135.914 225.095 135.048 224.583 133.881 224.583C132.484 224.583 131.688 225.201 131.688 226.245H130.238C130.238 224.441 131.724 223.256 133.952 223.256C136.091 223.256 137.541 224.388 137.541 226.722V232.151H136.127L135.95 230.754C135.508 231.744 134.323 232.363 132.926 232.363ZM133.403 231.072C134.977 231.072 135.932 230.047 135.932 228.42V227.96L133.722 228.137C132.254 228.278 131.653 228.844 131.653 229.693C131.653 230.612 132.325 231.072 133.403 231.072ZM141.505 232.151H139.843V223.504H141.346L141.523 224.83C142.071 223.84 143.168 223.256 144.388 223.256C146.669 223.256 147.712 224.653 147.712 226.864V232.151H146.05V227.235C146.05 225.484 145.236 224.777 143.963 224.777C142.407 224.777 141.505 225.891 141.505 227.571V232.151ZM153.48 232.363C150.969 232.363 149.448 230.489 149.448 227.854C149.448 225.201 150.987 223.256 153.551 223.256C154.877 223.256 155.991 223.84 156.574 224.901V219.136H158.219V232.151H156.734L156.592 230.577C156.026 231.762 154.859 232.363 153.48 232.363ZM153.816 230.86C155.513 230.86 156.557 229.604 156.557 227.801C156.557 226.033 155.513 224.759 153.816 224.759C152.118 224.759 151.128 226.033 151.128 227.801C151.128 229.587 152.118 230.86 153.816 230.86ZM164.745 229.64H166.336C166.336 230.524 167.008 231.054 168.104 231.054C169.271 231.054 169.943 230.577 169.943 229.781C169.943 229.198 169.66 228.844 168.759 228.614L167.238 228.261C165.7 227.889 164.975 227.129 164.975 225.856C164.975 224.264 166.318 223.256 168.228 223.256C170.12 223.256 171.358 224.317 171.393 225.962H169.802C169.767 225.095 169.183 224.547 168.175 224.547C167.132 224.547 166.548 225.007 166.548 225.803C166.548 226.386 166.973 226.775 167.821 226.987L169.342 227.359C170.81 227.712 171.535 228.384 171.535 229.675C171.535 231.32 170.12 232.363 168.069 232.363C166.036 232.363 164.745 231.284 164.745 229.64ZM179.355 223.504H180.999V232.151H179.514L179.337 230.842C178.842 231.744 177.693 232.363 176.42 232.363C174.404 232.363 173.272 231.001 173.272 228.879V223.504H174.934V228.331C174.934 230.188 175.73 230.895 177.003 230.895C178.524 230.895 179.355 229.923 179.355 228.066V223.504ZM188.362 223.433V224.954H187.619C186.046 224.954 185.073 225.909 185.073 227.571V232.151H183.411V223.522H184.967L185.073 224.83C185.427 223.928 186.293 223.327 187.478 223.327C187.779 223.327 188.026 223.362 188.362 223.433ZM191.583 232.151H189.921V223.504H191.424L191.601 224.83C192.149 223.84 193.245 223.256 194.466 223.256C196.747 223.256 197.79 224.653 197.79 226.864V232.151H196.128V227.235C196.128 225.484 195.314 224.777 194.041 224.777C192.485 224.777 191.583 225.891 191.583 227.571V232.151ZM202.621 232.363C200.764 232.363 199.668 231.32 199.668 229.746C199.668 228.154 200.852 227.164 202.886 227.005L205.609 226.793V226.545C205.609 225.095 204.743 224.583 203.576 224.583C202.179 224.583 201.383 225.201 201.383 226.245H199.933C199.933 224.441 201.418 223.256 203.646 223.256C205.786 223.256 207.236 224.388 207.236 226.722V232.151H205.821L205.644 230.754C205.202 231.744 204.018 232.363 202.621 232.363ZM203.098 231.072C204.672 231.072 205.627 230.047 205.627 228.42V227.96L203.416 228.137C201.949 228.278 201.348 228.844 201.348 229.693C201.348 230.612 202.02 231.072 203.098 231.072ZM211.2 232.151H209.538V223.504H211.023L211.182 224.636C211.624 223.822 212.544 223.256 213.764 223.256C215.108 223.256 216.063 223.928 216.505 225.007C216.912 223.928 217.955 223.256 219.299 223.256C221.279 223.256 222.482 224.494 222.482 226.492V232.151H220.855V226.899C220.855 225.537 220.094 224.759 218.927 224.759C217.672 224.759 216.841 225.644 216.841 227.023V232.151H215.196V226.881C215.196 225.52 214.454 224.777 213.287 224.777C212.031 224.777 211.2 225.644 211.2 227.023V232.151ZM228.517 232.363C225.97 232.363 224.22 230.524 224.22 227.836C224.22 225.131 225.935 223.256 228.446 223.256C230.904 223.256 232.513 224.954 232.513 227.518V228.137L225.829 228.154C225.953 229.976 226.908 230.984 228.552 230.984C229.843 230.984 230.692 230.453 230.975 229.463H232.531C232.106 231.32 230.656 232.363 228.517 232.363ZM228.446 224.653C226.996 224.653 226.077 225.52 225.864 227.04H230.851C230.851 225.608 229.914 224.653 228.446 224.653Z" fill="white"/>
<g clip-path="url(#clip4_219_2161)">
<rect x="48.3623" y="250.704" width="19.893" height="19.893" rx="9.94651" fill="#78CBBB"/>
<path d="M54.5374 260.713L57.1898 263.366L61.9641 258.592" stroke="#2F2F33" stroke-width="1.59144"/>
</g>
<rect x="48.7053" y="251.047" width="19.2071" height="19.2071" rx="9.60353" stroke="black" stroke-opacity="0.2" stroke-width="0.685966"/>
<path d="M82.8082 267.151H78.582V254.366H82.7375C86.5569 254.366 89.1386 256.948 89.1386 260.767C89.1386 264.569 86.5923 267.151 82.8082 267.151ZM82.6137 255.958H80.3149V265.542H82.6844C85.5313 265.542 87.335 263.703 87.335 260.767C87.335 257.797 85.5313 255.958 82.6137 255.958ZM93.589 267.363C91.7323 267.363 90.636 266.32 90.636 264.746C90.636 263.154 91.8207 262.164 93.8542 262.005L96.5773 261.793V261.545C96.5773 260.095 95.7109 259.583 94.5438 259.583C93.1469 259.583 92.3512 260.201 92.3512 261.245H90.9012C90.9012 259.441 92.3865 258.256 94.6146 258.256C96.7542 258.256 98.2041 259.388 98.2041 261.722V267.151H96.7895L96.6127 265.754C96.1706 266.744 94.9859 267.363 93.589 267.363ZM94.0664 266.072C95.6402 266.072 96.595 265.047 96.595 263.42V262.96L94.3847 263.137C92.917 263.278 92.3158 263.844 92.3158 264.693C92.3158 265.612 92.9878 266.072 94.0664 266.072ZM102.808 267.151H101.146V259.901H99.4484V258.504H101.146V255.798H102.808V258.504H104.506V259.901H102.808V267.151ZM109.642 267.363C107.096 267.363 105.345 265.524 105.345 262.836C105.345 260.131 107.06 258.256 109.571 258.256C112.029 258.256 113.638 259.954 113.638 262.518V263.137L106.954 263.154C107.078 264.976 108.033 265.984 109.677 265.984C110.968 265.984 111.817 265.453 112.1 264.463H113.656C113.232 266.32 111.782 267.363 109.642 267.363ZM109.571 259.653C108.121 259.653 107.202 260.52 106.99 262.04H111.976C111.976 260.608 111.039 259.653 109.571 259.653ZM119.764 262.818C119.764 260.148 121.674 258.274 124.273 258.274C126.855 258.274 128.765 260.148 128.765 262.818C128.765 265.489 126.855 267.363 124.273 267.363C121.674 267.363 119.764 265.489 119.764 262.818ZM121.444 262.818C121.444 264.622 122.593 265.878 124.273 265.878C125.935 265.878 127.103 264.622 127.103 262.818C127.103 261.015 125.935 259.759 124.273 259.759C122.593 259.759 121.444 261.015 121.444 262.818ZM129.633 258.504H130.906V257.125C130.906 255.003 132.074 254.136 133.647 254.136C133.966 254.136 134.337 254.154 134.673 254.207V255.639H133.93C132.852 255.639 132.569 256.187 132.569 257.125V258.504H134.62V259.901H132.569V267.151H130.906V259.901H129.633V258.504ZM142.503 267.151H141V254.136H142.662V259.989C143.228 258.858 144.395 258.256 145.81 258.256C148.285 258.256 149.771 260.201 149.771 262.872C149.771 265.489 148.215 267.363 145.704 267.363C144.342 267.363 143.193 266.762 142.627 265.577L142.503 267.151ZM142.68 262.801C142.68 264.604 143.706 265.86 145.403 265.86C147.101 265.86 148.109 264.587 148.109 262.801C148.109 261.033 147.101 259.759 145.403 259.759C143.706 259.759 142.68 261.033 142.68 262.801ZM152.416 256.453C151.815 256.453 151.32 255.958 151.32 255.356C151.32 254.738 151.815 254.26 152.416 254.26C153.017 254.26 153.513 254.738 153.513 255.356C153.513 255.958 153.017 256.453 152.416 256.453ZM151.603 267.151V258.504H153.265V267.151H151.603ZM160.629 258.433V259.954H159.887C158.313 259.954 157.34 260.909 157.34 262.571V267.151H155.678V258.522H157.234L157.34 259.83C157.694 258.928 158.56 258.327 159.745 258.327C160.046 258.327 160.293 258.362 160.629 258.433ZM164.974 267.151H163.312V259.901H161.614V258.504H163.312V255.798H164.974V258.504H166.671V259.901H164.974V267.151ZM169.825 267.133H168.163V254.136H169.825V259.83C170.373 258.893 171.417 258.256 172.761 258.256C174.971 258.256 176.032 259.653 176.032 261.864V267.151H174.37V262.235C174.37 260.484 173.539 259.777 172.301 259.777C170.692 259.777 169.825 260.944 169.825 262.429V267.133Z" fill="white"/>
<rect x="48.3623" y="291.413" width="319" height="0.948822" fill="#E7EBF0" fill-opacity="0.1"/>
<path d="M51.0778 314.711V326.939H49.8482V314.711H51.0778ZM55.6907 326.939H54.5293V319.664H52.8727V318.673H54.5293V316.06H55.6907V318.673H57.3473V319.664H55.6907V326.939ZM65.3606 326.939L62.628 318.673H63.8406L65.4631 323.66C65.651 324.206 65.8047 324.77 65.9755 325.436C66.1121 324.77 66.3854 323.933 66.4708 323.66L68.1103 318.673H69.3229L70.9454 323.66C71.0991 324.104 71.3041 324.821 71.4578 325.436C71.6285 324.753 71.6627 324.548 71.953 323.66L73.5926 318.673H74.8223L72.0214 326.939H70.8771L69.1692 321.747C68.9643 321.132 68.8276 320.62 68.7252 320.125C68.6056 320.569 68.469 321.064 68.2469 321.747L66.5391 326.939H65.3606ZM76.8749 316.401C76.3967 316.401 76.0039 316.009 76.0039 315.53C76.0039 315.052 76.3967 314.642 76.8749 314.642C77.3531 314.642 77.763 315.052 77.763 315.53C77.763 316.009 77.3531 316.401 76.8749 316.401ZM76.2943 326.939V318.673H77.4727V326.939H76.2943ZM81.1598 326.939H79.9814V314.489H81.1598V326.939ZM84.8958 326.939H83.7174V314.489H84.8958V326.939ZM93.3173 326.939H92.1388V318.673H93.1636L93.3344 320.108C93.8809 319.049 94.9739 318.451 96.1694 318.451C98.4409 318.451 99.3802 319.8 99.3802 321.884V326.939H98.2018V322.14C98.2018 320.21 97.3308 319.527 95.9645 319.527C94.2737 319.527 93.3173 320.757 93.3173 322.618V326.939ZM101.148 322.806C101.148 320.278 102.924 318.451 105.35 318.451C107.775 318.451 109.551 320.278 109.551 322.806C109.551 325.317 107.775 327.144 105.35 327.144C102.924 327.144 101.148 325.317 101.148 322.806ZM102.344 322.789C102.344 324.736 103.573 326.085 105.35 326.085C107.109 326.085 108.356 324.736 108.356 322.789C108.356 320.876 107.109 319.51 105.35 319.51C103.573 319.51 102.344 320.876 102.344 322.789ZM113.248 326.939H112.087V319.664H110.43V318.673H112.087V316.06H113.248V318.673H114.905V319.664H113.248V326.939ZM122.201 326.939H121.176V314.489H122.355V320.278C122.935 319.066 124.062 318.451 125.463 318.451C127.871 318.451 129.271 320.33 129.271 322.823C129.271 325.3 127.837 327.144 125.429 327.144C124.045 327.144 122.901 326.529 122.32 325.248L122.201 326.939ZM122.372 322.789C122.372 324.702 123.431 326.068 125.241 326.068C127.034 326.068 128.076 324.702 128.076 322.789C128.076 320.893 127.034 319.51 125.241 319.51C123.431 319.51 122.372 320.893 122.372 322.789ZM134.617 327.144C132.192 327.144 130.569 325.402 130.569 322.806C130.569 320.227 132.175 318.451 134.531 318.451C136.769 318.451 138.289 320.039 138.289 322.379V322.96H131.713C131.799 324.975 132.858 326.136 134.634 326.136C135.983 326.136 136.854 325.556 137.162 324.463H138.289C137.845 326.205 136.564 327.144 134.617 327.144ZM134.531 319.459C132.977 319.459 131.953 320.483 131.748 322.106H137.11C137.11 320.517 136.086 319.459 134.531 319.459ZM147.284 327.144C145.524 327.144 144.483 326.153 144.483 324.702C144.483 323.182 145.644 322.225 147.574 322.072L150.307 321.85V321.576C150.307 319.954 149.333 319.441 148.12 319.441C146.686 319.441 145.832 320.09 145.832 321.201H144.756C144.756 319.527 146.122 318.451 148.155 318.451C150.067 318.451 151.468 319.407 151.468 321.593V326.939H150.477L150.324 325.487C149.811 326.529 148.684 327.144 147.284 327.144ZM147.557 326.188C149.299 326.188 150.307 324.975 150.307 323.182V322.738L147.864 322.926C146.31 323.062 145.678 323.745 145.678 324.668C145.678 325.675 146.43 326.188 147.557 326.188ZM154.857 326.939H153.833V314.489H155.011V320.278C155.592 319.066 156.719 318.451 158.119 318.451C160.528 318.451 161.928 320.33 161.928 322.823C161.928 325.3 160.493 327.144 158.085 327.144C156.702 327.144 155.558 326.529 154.977 325.248L154.857 326.939ZM155.028 322.789C155.028 324.702 156.087 326.068 157.897 326.068C159.691 326.068 160.732 324.702 160.732 322.789C160.732 320.893 159.691 319.51 157.897 319.51C156.087 319.51 155.028 320.893 155.028 322.789ZM165.036 326.939H163.858V314.489H165.036V326.939ZM171.009 327.144C168.584 327.144 166.962 325.402 166.962 322.806C166.962 320.227 168.567 318.451 170.924 318.451C173.161 318.451 174.681 320.039 174.681 322.379V322.96H168.106C168.191 324.975 169.25 326.136 171.026 326.136C172.376 326.136 173.247 325.556 173.554 324.463H174.681C174.237 326.205 172.956 327.144 171.009 327.144ZM170.924 319.459C169.37 319.459 168.345 320.483 168.14 322.106H173.503C173.503 320.517 172.478 319.459 170.924 319.459ZM183.198 326.939H182.037V319.664H180.38V318.673H182.037V316.06H183.198V318.673H184.855V319.664H183.198V326.939ZM185.725 322.806C185.725 320.278 187.501 318.451 189.926 318.451C192.352 318.451 194.128 320.278 194.128 322.806C194.128 325.317 192.352 327.144 189.926 327.144C187.501 327.144 185.725 325.317 185.725 322.806ZM186.92 322.789C186.92 324.736 188.15 326.085 189.926 326.085C191.685 326.085 192.932 324.736 192.932 322.789C192.932 320.876 191.685 319.51 189.926 319.51C188.15 319.51 186.92 320.876 186.92 322.789ZM203.055 326.939L199.673 318.673H200.937L203.072 324.002C203.294 324.599 203.516 325.163 203.67 325.709C203.823 325.146 204.045 324.599 204.285 324.002L206.454 318.673H207.666L204.233 326.939H203.055ZM209.636 316.401C209.158 316.401 208.765 316.009 208.765 315.53C208.765 315.052 209.158 314.642 209.636 314.642C210.114 314.642 210.524 315.052 210.524 315.53C210.524 316.009 210.114 316.401 209.636 316.401ZM209.055 326.939V318.673H210.234V326.939H209.055ZM216.158 327.144C213.733 327.144 212.11 325.402 212.11 322.806C212.11 320.227 213.716 318.451 216.073 318.451C218.31 318.451 219.83 320.039 219.83 322.379V322.96H213.255C213.34 324.975 214.399 326.136 216.175 326.136C217.524 326.136 218.395 325.556 218.703 324.463H219.83C219.386 326.205 218.105 327.144 216.158 327.144ZM216.073 319.459C214.518 319.459 213.494 320.483 213.289 322.106H218.652C218.652 320.517 217.627 319.459 216.073 319.459ZM223.239 326.939L220.507 318.673H221.719L223.342 323.66C223.53 324.206 223.683 324.77 223.854 325.436C223.991 324.77 224.264 323.933 224.349 323.66L225.989 318.673H227.202L228.824 323.66C228.978 324.104 229.183 324.821 229.336 325.436C229.507 324.753 229.541 324.548 229.832 323.66L231.471 318.673H232.701L229.9 326.939H228.756L227.048 321.747C226.843 321.132 226.706 320.62 226.604 320.125C226.484 320.569 226.348 321.064 226.126 321.747L224.418 326.939H223.239ZM235.351 320.586C234.771 320.586 234.275 320.09 234.275 319.527C234.275 318.946 234.771 318.468 235.351 318.468C235.932 318.468 236.427 318.946 236.427 319.527C236.427 320.09 235.932 320.586 235.351 320.586ZM235.351 327.127C234.771 327.127 234.275 326.649 234.275 326.085C234.275 325.504 234.771 325.009 235.351 325.009C235.932 325.009 236.427 325.504 236.427 326.085C236.427 326.649 235.932 327.127 235.351 327.127Z" fill="#B1B8C1"/>
<g opacity="0.5">
<g clip-path="url(#clip5_219_2161)">
<rect x="48.3623" y="343.561" width="19.893" height="19.893" rx="9.94651" fill="#B1B8C1"/>
<path d="M54.9944 356.667L61.625 350.037M61.6254 356.667L54.9948 350.036" stroke="#2F2F33" stroke-width="1.59144"/>
</g>
<rect x="48.7053" y="343.904" width="19.2071" height="19.2071" rx="9.60353" stroke="black" stroke-opacity="0.2" stroke-width="0.685966"/>
</g>
<path d="M83.5509 355.445H80.3149V360.008H78.582V347.223H83.5509C86.0618 347.223 87.6709 348.867 87.6709 351.325C87.6709 353.713 86.0441 355.445 83.5509 355.445ZM83.2503 348.779H80.3149V353.889H83.1795C84.8947 353.889 85.8496 352.881 85.8496 351.308C85.8496 349.699 84.8771 348.779 83.2503 348.779ZM91.534 360.22C89.6774 360.22 88.581 359.176 88.581 357.603C88.581 356.011 89.7658 355.021 91.7993 354.862L94.5224 354.65V354.402C94.5224 352.952 93.656 352.439 92.4889 352.439C91.092 352.439 90.2963 353.058 90.2963 354.102H88.8463C88.8463 352.298 90.3316 351.113 92.5596 351.113C94.6992 351.113 96.1492 352.245 96.1492 354.579V360.008H94.7346L94.5578 358.611C94.1157 359.601 92.931 360.22 91.534 360.22ZM92.0115 358.929C93.5852 358.929 94.5401 357.903 94.5401 356.277V355.817L92.3298 355.994C90.8621 356.135 90.2609 356.701 90.2609 357.55C90.2609 358.469 90.9328 358.929 92.0115 358.929ZM97.7438 357.497H99.3353C99.3353 358.381 100.007 358.911 101.104 358.911C102.271 358.911 102.943 358.434 102.943 357.638C102.943 357.055 102.66 356.701 101.758 356.471L100.237 356.117C98.6987 355.746 97.9737 354.986 97.9737 353.713C97.9737 352.121 99.3176 351.113 101.227 351.113C103.119 351.113 104.357 352.174 104.393 353.819H102.801C102.766 352.952 102.182 352.404 101.174 352.404C100.131 352.404 99.5475 352.864 99.5475 353.659C99.5475 354.243 99.9719 354.632 100.821 354.844L102.341 355.216C103.809 355.569 104.534 356.241 104.534 357.532C104.534 359.176 103.119 360.22 101.068 360.22C99.0347 360.22 97.7438 359.141 97.7438 357.497ZM105.67 357.497H107.261C107.261 358.381 107.933 358.911 109.03 358.911C110.197 358.911 110.869 358.434 110.869 357.638C110.869 357.055 110.586 356.701 109.684 356.471L108.163 356.117C106.625 355.746 105.9 354.986 105.9 353.713C105.9 352.121 107.244 351.113 109.153 351.113C111.046 351.113 112.283 352.174 112.319 353.819H110.727C110.692 352.952 110.108 352.404 109.1 352.404C108.057 352.404 107.474 352.864 107.474 353.659C107.474 354.243 107.898 354.632 108.747 354.844L110.267 355.216C111.735 355.569 112.46 356.241 112.46 357.532C112.46 359.176 111.046 360.22 108.994 360.22C106.961 360.22 105.67 359.141 105.67 357.497ZM114.303 363.88V351.361H115.806L115.93 352.917C116.514 351.732 117.681 351.113 119.06 351.113C121.536 351.113 123.074 352.97 123.074 355.622C123.074 358.257 121.624 360.237 119.06 360.237C117.681 360.237 116.531 359.654 115.966 358.593V363.88H114.303ZM115.983 355.693C115.983 357.461 117.009 358.734 118.706 358.734C120.404 358.734 121.412 357.461 121.412 355.693C121.412 353.907 120.404 352.634 118.706 352.634C117.009 352.634 115.983 353.889 115.983 355.693ZM124.34 355.675C124.34 353.005 126.25 351.131 128.849 351.131C131.431 351.131 133.341 353.005 133.341 355.675C133.341 358.345 131.431 360.22 128.849 360.22C126.25 360.22 124.34 358.345 124.34 355.675ZM126.02 355.675C126.02 357.479 127.17 358.734 128.849 358.734C130.512 358.734 131.679 357.479 131.679 355.675C131.679 353.872 130.512 352.616 128.849 352.616C127.17 352.616 126.02 353.872 126.02 355.675ZM140.132 351.29V352.811H139.389C137.815 352.811 136.843 353.766 136.843 355.428V360.008H135.181V351.378H136.737L136.843 352.687C137.197 351.785 138.063 351.184 139.248 351.184C139.548 351.184 139.796 351.219 140.132 351.29ZM144.476 360.008H142.814V352.758H141.117V351.361H142.814V348.655H144.476V351.361H146.174V352.758H144.476V360.008ZM154.163 360.008H152.501V351.361H154.004L154.181 352.687C154.729 351.697 155.825 351.113 157.045 351.113C159.326 351.113 160.37 352.51 160.37 354.72V360.008H158.707V355.092C158.707 353.341 157.894 352.634 156.621 352.634C155.065 352.634 154.163 353.748 154.163 355.428V360.008ZM168.649 351.361H170.293V360.008H168.808L168.631 358.699C168.136 359.601 166.986 360.22 165.713 360.22C163.697 360.22 162.566 358.858 162.566 356.736V351.361H164.228V356.188C164.228 358.045 165.024 358.752 166.297 358.752C167.817 358.752 168.649 357.78 168.649 355.923V351.361ZM174.367 360.008H172.705V351.361H174.19L174.349 352.492C174.791 351.679 175.711 351.113 176.931 351.113C178.275 351.113 179.23 351.785 179.672 352.864C180.078 351.785 181.122 351.113 182.465 351.113C184.446 351.113 185.648 352.351 185.648 354.349V360.008H184.022V354.756C184.022 353.394 183.261 352.616 182.094 352.616C180.839 352.616 180.008 353.5 180.008 354.88V360.008H178.363V354.738C178.363 353.377 177.62 352.634 176.453 352.634C175.198 352.634 174.367 353.5 174.367 354.88V360.008ZM189.456 360.008H187.953V346.993H189.615V352.846C190.181 351.714 191.348 351.113 192.762 351.113C195.238 351.113 196.723 353.058 196.723 355.728C196.723 358.345 195.167 360.22 192.656 360.22C191.295 360.22 190.145 359.619 189.579 358.434L189.456 360.008ZM189.632 355.658C189.632 357.461 190.658 358.717 192.356 358.717C194.053 358.717 195.061 357.444 195.061 355.658C195.061 353.889 194.053 352.616 192.356 352.616C190.658 352.616 189.632 353.889 189.632 355.658ZM202.286 360.22C199.74 360.22 197.989 358.381 197.989 355.693C197.989 352.988 199.705 351.113 202.216 351.113C204.673 351.113 206.283 352.811 206.283 355.375V355.994L199.599 356.011C199.722 357.833 200.677 358.841 202.322 358.841C203.612 358.841 204.461 358.31 204.744 357.32H206.3C205.876 359.176 204.426 360.22 202.286 360.22ZM202.216 352.51C200.766 352.51 199.846 353.377 199.634 354.897H204.62C204.62 353.465 203.683 352.51 202.216 352.51ZM213.09 351.29V352.811H212.348C210.774 352.811 209.801 353.766 209.801 355.428V360.008H208.139V351.378H209.695L209.801 352.687C210.155 351.785 211.021 351.184 212.206 351.184C212.507 351.184 212.754 351.219 213.09 351.29Z" fill="white"/>
<path d="M235.641 490.645H233.557V493.582H232.441V485.35H235.641C237.257 485.35 238.294 486.409 238.294 487.992C238.294 489.529 237.246 490.645 235.641 490.645ZM235.447 486.352H233.557V489.643H235.402C236.506 489.643 237.121 488.994 237.121 487.98C237.121 486.944 236.495 486.352 235.447 486.352ZM238.755 490.793C238.755 489.073 239.985 487.866 241.659 487.866C243.321 487.866 244.551 489.073 244.551 490.793C244.551 492.512 243.321 493.719 241.659 493.719C239.985 493.719 238.755 492.512 238.755 490.793ZM239.837 490.793C239.837 491.954 240.577 492.762 241.659 492.762C242.729 492.762 243.48 491.954 243.48 490.793C243.48 489.631 242.729 488.823 241.659 488.823C240.577 488.823 239.837 489.631 239.837 490.793ZM246.675 493.582L244.853 488.014H245.958L246.88 490.906C247.005 491.316 247.119 491.738 247.222 492.227C247.313 491.738 247.461 491.271 247.586 490.906L248.52 488.014H249.613L250.535 490.906C250.626 491.18 250.808 491.829 250.899 492.227C250.99 491.783 251.093 491.396 251.252 490.906L252.186 488.014H253.302L251.4 493.582H250.387L249.419 490.599C249.237 490.041 249.123 489.608 249.066 489.301C249.009 489.574 248.907 489.939 248.702 490.61L247.734 493.582H246.675ZM256.366 493.719C254.726 493.719 253.599 492.535 253.599 490.804C253.599 489.062 254.703 487.855 256.32 487.855C257.903 487.855 258.939 488.948 258.939 490.599V490.998L254.635 491.009C254.715 492.182 255.33 492.831 256.389 492.831C257.22 492.831 257.766 492.489 257.948 491.852H258.95C258.677 493.047 257.743 493.719 256.366 493.719ZM256.32 488.755C255.387 488.755 254.795 489.312 254.658 490.292H257.869C257.869 489.369 257.265 488.755 256.32 488.755ZM263.322 487.969V488.948H262.844C261.831 488.948 261.205 489.563 261.205 490.633V493.582H260.134V488.026H261.136L261.205 488.868C261.432 488.288 261.99 487.901 262.753 487.901C262.947 487.901 263.106 487.923 263.322 487.969ZM266.529 493.719C264.889 493.719 263.762 492.535 263.762 490.804C263.762 489.062 264.866 487.855 266.483 487.855C268.066 487.855 269.102 488.948 269.102 490.599V490.998L264.798 491.009C264.878 492.182 265.492 492.831 266.551 492.831C267.383 492.831 267.929 492.489 268.111 491.852H269.113C268.84 493.047 267.906 493.719 266.529 493.719ZM266.483 488.755C265.549 488.755 264.957 489.312 264.821 490.292H268.032C268.032 489.369 267.428 488.755 266.483 488.755ZM272.529 493.719C270.912 493.719 269.933 492.512 269.933 490.815C269.933 489.108 270.923 487.855 272.574 487.855C273.428 487.855 274.146 488.231 274.521 488.914V485.202H275.58V493.582H274.624L274.533 492.569C274.168 493.332 273.417 493.719 272.529 493.719ZM272.745 492.751C273.838 492.751 274.51 491.943 274.51 490.781C274.51 489.643 273.838 488.823 272.745 488.823C271.652 488.823 271.015 489.643 271.015 490.781C271.015 491.931 271.652 492.751 272.745 492.751ZM281.205 493.582H280.238V485.202H281.308V488.971C281.672 488.242 282.424 487.855 283.335 487.855C284.929 487.855 285.885 489.108 285.885 490.827C285.885 492.512 284.883 493.719 283.266 493.719C282.39 493.719 281.649 493.332 281.285 492.569L281.205 493.582ZM281.319 490.781C281.319 491.943 281.98 492.751 283.073 492.751C284.166 492.751 284.815 491.931 284.815 490.781C284.815 489.643 284.166 488.823 283.073 488.823C281.98 488.823 281.319 489.643 281.319 490.781ZM286.341 496.076V495.199H287.058C287.57 495.199 287.98 495.119 288.242 494.413L288.436 493.878L286.192 488.014H287.32L288.936 492.5L290.587 488.014H291.692L289.062 494.835C288.686 495.791 288.128 496.19 287.274 496.19C286.921 496.19 286.625 496.144 286.341 496.076Z" fill="white" fill-opacity="0.6"/>
<g clip-path="url(#clip6_219_2161)">
<path d="M317.154 490.716C317.154 491.873 318.08 492.675 319.552 492.675C321.002 492.675 322.017 491.93 322.017 490.705C322.017 489.788 321.515 489.353 320.601 489.147L319.563 488.918C319.173 488.826 318.961 488.677 318.961 488.414C318.961 488.104 319.207 487.898 319.597 487.898C320.01 487.898 320.244 488.162 320.244 488.551H321.872C321.872 487.394 320.969 486.615 319.675 486.615C318.337 486.615 317.344 487.303 317.344 488.494C317.344 489.502 317.846 489.96 318.872 490.189L319.898 490.418C320.311 490.51 320.4 490.693 320.4 490.865C320.4 491.163 320.155 491.358 319.619 491.358C319.095 491.358 318.805 491.117 318.783 490.716H317.154Z" fill="white" fill-opacity="0.6"/>
<path d="M324.012 492.526H325.685L326.22 490.739C326.577 489.536 326.678 489.09 326.722 488.849C326.756 489.09 326.901 489.765 327.179 490.705L327.715 492.526H329.31L331.262 486.799H329.444L328.908 488.666C328.852 488.872 328.585 489.88 328.518 490.292C328.462 489.926 328.194 488.86 328.139 488.666L327.614 486.799H325.852L325.283 488.666C325.038 489.468 324.982 489.685 324.882 490.292C324.793 489.72 324.67 489.158 324.536 488.666L324.023 486.799H322.216L324.012 492.526Z" fill="white" fill-opacity="0.6"/>
<path d="M332.868 485.905C333.404 485.905 333.839 485.458 333.839 484.897C333.839 484.336 333.404 483.901 332.868 483.901C332.322 483.901 331.887 484.336 331.887 484.897C331.887 485.458 332.322 485.905 332.868 485.905ZM332.021 492.526H333.738V486.799H332.021V492.526Z" fill="white" fill-opacity="0.6"/>
<path d="M335.027 495.275H336.745V491.953C337.068 492.388 337.782 492.686 338.552 492.686C340.213 492.686 341.173 491.38 341.173 489.571C341.173 487.726 340.091 486.615 338.54 486.615C337.748 486.615 337.046 486.97 336.733 487.497L336.644 486.799H335.027V495.275ZM336.756 489.662C336.756 488.803 337.313 488.23 338.117 488.23C338.931 488.23 339.444 488.815 339.444 489.662C339.444 490.51 338.931 491.094 338.117 491.094C337.313 491.094 336.756 490.521 336.756 489.662Z" fill="white" fill-opacity="0.6"/>
<path d="M344.749 492.675C346.277 492.675 347.381 491.862 347.582 490.59H346.009C345.887 491.002 345.429 491.243 344.783 491.243C344.024 491.243 343.611 490.888 343.511 490.132L347.56 490.109V489.662C347.56 487.795 346.467 486.615 344.716 486.615C343.031 486.615 341.86 487.864 341.86 489.651C341.86 491.415 343.065 492.675 344.749 492.675ZM344.727 488.047C345.418 488.047 345.853 488.437 345.853 489.044H343.533C343.667 488.356 344.046 488.047 344.727 488.047Z" fill="white" fill-opacity="0.6"/>
<path d="M350.295 492.526V483.889H348.577V492.526H350.295Z" fill="white" fill-opacity="0.6"/>
<path d="M355.286 486.799V489.777C355.286 490.716 354.985 491.106 354.249 491.106C353.546 491.106 353.234 490.693 353.234 489.754V486.799H351.516V490.395C351.516 491.804 352.297 492.675 353.569 492.675C354.238 492.675 354.929 492.354 355.275 491.884L355.387 492.526H357.004V486.799H355.286Z" fill="white" fill-opacity="0.6"/>
<path d="M359.709 492.526L360.646 490.876L361.605 492.526H363.58L361.806 489.72L363.647 486.799H361.728L360.769 488.54L359.743 486.799H357.757L359.631 489.754L357.757 492.526H359.709Z" fill="white" fill-opacity="0.6"/>
<g opacity="0.6">
<g clip-path="url(#clip7_219_2161)">
<path d="M296.703 490.307C296.342 489.946 296.342 489.36 296.703 488.998L301.449 484.253C301.811 483.891 302.397 483.891 302.758 484.253L307.504 488.998C307.865 489.36 307.865 489.946 307.504 490.307L302.758 495.053C302.397 495.414 301.811 495.414 301.449 495.053L296.703 490.307Z" fill="white" fill-opacity="0.6"/>
<path d="M304.462 493.676C304.281 493.857 304.281 494.15 304.462 494.33L305.185 495.053C305.546 495.414 306.132 495.414 306.494 495.053L311.239 490.307C311.601 489.946 311.601 489.36 311.239 488.998L306.494 484.253C306.132 483.891 305.546 483.891 305.185 484.253L304.462 484.975C304.281 485.156 304.281 485.449 304.462 485.629L307.831 488.998C308.192 489.36 308.192 489.946 307.831 490.307L304.462 493.676Z" fill="white" fill-opacity="0.6"/>
<path d="M308.198 493.676C308.017 493.857 308.017 494.15 308.198 494.33L308.92 495.053C309.282 495.414 309.868 495.414 310.229 495.053L314.975 490.307C315.336 489.946 315.336 489.36 314.975 488.998L310.229 484.253C309.868 483.891 309.282 483.891 308.92 484.253L308.198 484.975C308.017 485.156 308.017 485.449 308.198 485.629L311.566 488.998C311.928 489.36 311.928 489.946 311.566 490.307L308.198 493.676Z" fill="white" fill-opacity="0.6"/>
</g>
</g>
</g>
<path d="M48.8405 487.57C48.8405 486.159 49.9791 485.202 51.6756 485.202C53.2468 485.202 54.2602 486.079 54.3513 487.502H53.2241C53.1671 486.682 52.5865 486.204 51.6642 486.204C50.6281 486.204 49.9563 486.728 49.9563 487.536C49.9563 488.197 50.3321 488.595 51.1063 488.777L52.4612 489.096C53.8047 489.404 54.4879 490.132 54.4879 491.294C54.4879 492.774 53.3379 493.719 51.5845 493.719C49.9108 493.719 48.795 492.842 48.7267 491.43H49.8652C49.888 492.216 50.5484 492.717 51.5845 492.717C52.6775 492.717 53.3721 492.204 53.3721 491.385C53.3721 490.736 53.0191 490.326 52.2335 490.144L50.8786 489.836C49.535 489.529 48.8405 488.755 48.8405 487.57ZM59.5563 488.014H60.6152V493.582H59.6588L59.5449 492.74C59.2261 493.32 58.486 493.719 57.6662 493.719C56.3683 493.719 55.6396 492.842 55.6396 491.476V488.014H56.7098V491.123C56.7098 492.318 57.2222 492.774 58.042 492.774C59.0212 492.774 59.5563 492.148 59.5563 490.952V488.014ZM62.168 496.076V488.014H63.1358L63.2155 489.016C63.5912 488.254 64.3427 487.855 65.2308 487.855C66.8248 487.855 67.8154 489.051 67.8154 490.758C67.8154 492.455 66.8818 493.73 65.2308 493.73C64.3427 493.73 63.6026 493.354 63.2383 492.671V496.076H62.168ZM63.2497 490.804C63.2497 491.943 63.9101 492.762 65.0031 492.762C66.0961 492.762 66.7451 491.943 66.7451 490.804C66.7451 489.654 66.0961 488.834 65.0031 488.834C63.9101 488.834 63.2497 489.643 63.2497 490.804ZM68.9951 496.076V488.014H69.9629L70.0426 489.016C70.4183 488.254 71.1698 487.855 72.0579 487.855C73.6519 487.855 74.6425 489.051 74.6425 490.758C74.6425 492.455 73.7088 493.73 72.0579 493.73C71.1698 493.73 70.4297 493.354 70.0654 492.671V496.076H68.9951ZM70.0767 490.804C70.0767 491.943 70.7371 492.762 71.8302 492.762C72.9232 492.762 73.5722 491.943 73.5722 490.804C73.5722 489.654 72.9232 488.834 71.8302 488.834C70.7371 488.834 70.0767 489.643 70.0767 490.804ZM75.4578 490.793C75.4578 489.073 76.6875 487.866 78.3612 487.866C80.0235 487.866 81.2532 489.073 81.2532 490.793C81.2532 492.512 80.0235 493.719 78.3612 493.719C76.6875 493.719 75.4578 492.512 75.4578 490.793ZM76.5395 490.793C76.5395 491.954 77.2795 492.762 78.3612 492.762C79.4315 492.762 80.1829 491.954 80.1829 490.793C80.1829 489.631 79.4315 488.823 78.3612 488.823C77.2795 488.823 76.5395 489.631 76.5395 490.793ZM85.626 487.969V488.948H85.1478C84.1344 488.948 83.5082 489.563 83.5082 490.633V493.582H82.438V488.026H83.4399L83.5082 488.868C83.7359 488.288 84.2938 487.901 85.0567 487.901C85.2503 487.901 85.4097 487.923 85.626 487.969ZM88.4234 493.582H87.3532V488.914H86.2601V488.014H87.3532V486.272H88.4234V488.014H89.5165V488.914H88.4234V493.582ZM92.8238 493.719C91.1843 493.719 90.0571 492.535 90.0571 490.804C90.0571 489.062 91.1615 487.855 92.7783 487.855C94.3609 487.855 95.397 488.948 95.397 490.599V490.998L91.0932 491.009C91.1729 492.182 91.7877 492.831 92.8466 492.831C93.6778 492.831 94.2243 492.489 94.4064 491.852H95.4084C95.1351 493.047 94.2015 493.719 92.8238 493.719ZM92.7783 488.755C91.8446 488.755 91.2526 489.312 91.1159 490.292H94.3267C94.3267 489.369 93.7233 488.755 92.7783 488.755ZM98.8241 493.719C97.2073 493.719 96.2281 492.512 96.2281 490.815C96.2281 489.108 97.2187 487.855 98.8696 487.855C99.7236 487.855 100.441 488.231 100.817 488.914V485.202H101.875V493.582H100.919L100.828 492.569C100.464 493.332 99.7122 493.719 98.8241 493.719ZM99.0404 492.751C100.133 492.751 100.805 491.943 100.805 490.781C100.805 489.643 100.133 488.823 99.0404 488.823C97.9474 488.823 97.3098 489.643 97.3098 490.781C97.3098 491.931 97.9474 492.751 99.0404 492.751ZM107.501 493.582H106.533V485.202H107.603V488.971C107.967 488.242 108.719 487.855 109.63 487.855C111.224 487.855 112.18 489.108 112.18 490.827C112.18 492.512 111.178 493.719 109.561 493.719C108.685 493.719 107.945 493.332 107.58 492.569L107.501 493.582ZM107.614 490.781C107.614 491.943 108.275 492.751 109.368 492.751C110.461 492.751 111.11 491.931 111.11 490.781C111.11 489.643 110.461 488.823 109.368 488.823C108.275 488.823 107.614 489.643 107.614 490.781ZM112.636 496.076V495.199H113.353C113.865 495.199 114.275 495.119 114.537 494.413L114.731 493.878L112.488 488.014H113.615L115.232 492.5L116.883 488.014H117.987L115.357 494.835C114.981 495.791 114.423 496.19 113.569 496.19C113.216 496.19 112.92 496.144 112.636 496.076Z" fill="white" fill-opacity="0.6"/>
<g opacity="0.6">
<path fill-rule="evenodd" clip-rule="evenodd" d="M130.327 493.309C129.461 494.038 128.339 494.478 127.113 494.478C124.376 494.478 122.158 492.286 122.158 489.582C122.158 486.878 124.376 484.686 127.113 484.686C128.339 484.686 129.461 485.126 130.327 485.856C131.192 485.126 132.314 484.686 133.541 484.686C136.277 484.686 138.496 486.878 138.496 489.582C138.496 492.286 136.277 494.478 133.541 494.478C132.314 494.478 131.192 494.038 130.327 493.309Z" fill="#B1B8C1"/>
<path fill-rule="evenodd" clip-rule="evenodd" d="M130.327 493.309C131.392 492.411 132.068 491.074 132.068 489.582C132.068 488.09 131.392 486.754 130.327 485.856C131.192 485.126 132.314 484.686 133.541 484.686C136.277 484.686 138.496 486.878 138.496 489.582C138.496 492.286 136.277 494.478 133.541 494.478C132.314 494.478 131.192 494.038 130.327 493.309Z" fill="black" fill-opacity="0.2"/>
<path fill-rule="evenodd" clip-rule="evenodd" d="M130.327 493.309C131.392 492.411 132.068 491.074 132.068 489.582C132.068 488.09 131.392 486.754 130.327 485.856C129.261 486.754 128.586 488.09 128.586 489.582C128.586 491.074 129.261 492.411 130.327 493.309Z" fill="black" fill-opacity="0.08"/>
</g>
<path fill-rule="evenodd" clip-rule="evenodd" d="M147.747 494.275H145.202L143.293 486.778C143.202 486.433 143.01 486.128 142.727 485.984C142.021 485.623 141.242 485.336 140.393 485.191V484.902H144.494C145.06 484.902 145.485 485.336 145.555 485.839L146.546 491.247L149.09 484.902H151.565L147.747 494.275ZM152.98 494.275H150.576L152.556 484.902H154.96L152.98 494.275ZM158.07 487.499C158.141 486.994 158.566 486.705 159.061 486.705C159.839 486.633 160.687 486.778 161.394 487.138L161.819 485.12C161.111 484.831 160.333 484.686 159.627 484.686C157.293 484.686 155.595 485.984 155.595 487.786C155.595 489.157 156.798 489.877 157.647 490.31C158.566 490.742 158.919 491.031 158.849 491.463C158.849 492.112 158.141 492.4 157.435 492.4C156.586 492.4 155.737 492.184 154.96 491.823L154.536 493.842C155.384 494.202 156.303 494.347 157.152 494.347C159.768 494.418 161.394 493.121 161.394 491.175C161.394 488.723 158.07 488.58 158.07 487.499V487.499ZM169.808 494.275L167.899 484.902H165.849C165.424 484.902 165 485.191 164.858 485.623L161.323 494.275H163.798L164.292 492.905H167.333L167.616 494.275H169.808ZM166.203 487.426L166.909 490.958H164.929L166.203 487.426Z" fill="white" fill-opacity="0.6"/>
<rect x="47.8389" y="409.388" width="155.829" height="60.7842" rx="7.59251" fill="#27282C"/>
<path d="M103.021 446.28H100.713V433.102H105.743C108.736 433.102 110.484 434.616 110.484 437.212C110.484 438.979 109.655 440.241 108.105 440.872L110.611 446.28H108.087L105.851 441.358H103.021V446.28ZM103.021 435.157V439.321H105.743C107.203 439.321 108.069 438.546 108.069 437.212C108.069 435.896 107.203 435.157 105.743 435.157H103.021ZM115.816 446.514C113.166 446.514 111.309 444.585 111.309 441.827C111.309 439.033 113.13 437.104 115.744 437.104C118.412 437.104 120.107 438.888 120.107 441.665V442.332L113.401 442.35C113.563 443.918 114.392 444.711 115.852 444.711C117.06 444.711 117.853 444.243 118.106 443.395H120.143C119.764 445.342 118.142 446.514 115.816 446.514ZM115.762 438.906C114.464 438.906 113.671 439.61 113.455 440.944H117.926C117.926 439.718 117.078 438.906 115.762 438.906ZM122.967 435.589C122.228 435.589 121.633 434.995 121.633 434.255C121.633 433.516 122.228 432.939 122.967 432.939C123.688 432.939 124.301 433.516 124.301 434.255C124.301 434.995 123.688 435.589 122.967 435.589ZM119.74 450.462L120.1 448.515C120.407 448.605 120.587 448.623 120.858 448.623C121.615 448.623 121.867 448.191 121.867 447.289V437.374H124.066V447.542C124.066 449.435 122.985 450.66 121.056 450.66C120.641 450.66 120.317 450.624 119.74 450.462ZM130.323 446.514C127.673 446.514 125.816 444.585 125.816 441.827C125.816 439.033 127.637 437.104 130.251 437.104C132.919 437.104 134.613 438.888 134.613 441.665V442.332L127.907 442.35C128.069 443.918 128.899 444.711 130.359 444.711C131.567 444.711 132.36 444.243 132.612 443.395H134.65C134.271 445.342 132.648 446.514 130.323 446.514ZM130.269 438.906C128.971 438.906 128.178 439.61 127.961 440.944H132.432C132.432 439.718 131.585 438.906 130.269 438.906ZM135.851 441.809C135.851 439.051 137.672 437.104 140.304 437.104C142.737 437.104 144.396 438.456 144.63 440.601H142.431C142.179 439.592 141.439 439.069 140.394 439.069C138.988 439.069 138.05 440.132 138.05 441.809C138.05 443.486 138.916 444.531 140.322 444.531C141.421 444.531 142.197 443.99 142.431 443.017H144.648C144.378 445.09 142.647 446.514 140.322 446.514C137.618 446.514 135.851 444.639 135.851 441.809ZM149.314 446.28H147.115V439.213H145.402V437.374H147.115V434.598H149.314V437.374H151.045V439.213H149.314V446.28Z" fill="#F2EFEE"/>
<rect x="210.299" y="409.388" width="155.829" height="60.7842" rx="7.59251" fill="#4E4F52"/>
<path d="M255.309 446.28H252.911L257.67 433.102H260.032L264.791 446.28H262.358L261.294 443.233H256.372L255.309 446.28ZM258.554 437.032L257.058 441.286H260.627L259.113 437.032C259.005 436.689 258.878 436.292 258.842 436.022C258.788 436.274 258.68 436.671 258.554 437.032ZM266.119 450.408V437.374H268.156L268.301 438.726C268.842 437.699 270.013 437.104 271.365 437.104C273.871 437.104 275.53 438.925 275.53 441.719C275.53 444.495 274.015 446.514 271.365 446.514C270.031 446.514 268.878 445.991 268.319 445.09V450.408H266.119ZM268.337 441.827C268.337 443.431 269.328 444.531 270.843 444.531C272.393 444.531 273.312 443.413 273.312 441.827C273.312 440.241 272.393 439.105 270.843 439.105C269.328 439.105 268.337 440.223 268.337 441.827ZM277.281 450.408V437.374H279.318L279.462 438.726C280.003 437.699 281.175 437.104 282.527 437.104C285.033 437.104 286.691 438.925 286.691 441.719C286.691 444.495 285.177 446.514 282.527 446.514C281.193 446.514 280.039 445.991 279.48 445.09V450.408H277.281ZM279.498 441.827C279.498 443.431 280.49 444.531 282.004 444.531C283.555 444.531 284.474 443.413 284.474 441.827C284.474 440.241 283.555 439.105 282.004 439.105C280.49 439.105 279.498 440.223 279.498 441.827ZM294.031 437.338V439.375H293.22C291.634 439.375 290.642 440.223 290.642 441.953V446.28H288.443V437.392H290.516L290.642 438.69C291.021 437.807 291.868 437.212 293.058 437.212C293.364 437.212 293.671 437.248 294.031 437.338ZM294.698 441.809C294.698 439.033 296.699 437.122 299.457 437.122C302.215 437.122 304.216 439.033 304.216 441.809C304.216 444.585 302.215 446.496 299.457 446.496C296.699 446.496 294.698 444.585 294.698 441.809ZM296.897 441.809C296.897 443.431 297.943 444.531 299.457 444.531C300.971 444.531 302.017 443.431 302.017 441.809C302.017 440.186 300.971 439.087 299.457 439.087C297.943 439.087 296.897 440.186 296.897 441.809ZM308.043 446.28L304.51 437.374H306.854L308.404 441.466C308.783 442.53 309.089 443.449 309.197 443.936C309.323 443.377 309.648 442.44 310.026 441.466L311.649 437.374H313.92L310.207 446.28H308.043ZM318.729 446.514C316.079 446.514 314.222 444.585 314.222 441.827C314.222 439.033 316.043 437.104 318.657 437.104C321.325 437.104 323.019 438.888 323.019 441.665V442.332L316.313 442.35C316.475 443.918 317.305 444.711 318.765 444.711C319.973 444.711 320.766 444.243 321.018 443.395H323.055C322.677 445.342 321.054 446.514 318.729 446.514ZM318.675 438.906C317.377 438.906 316.583 439.61 316.367 440.944H320.838C320.838 439.718 319.991 438.906 318.675 438.906Z" fill="#F2EFEE"/>
</g>
<rect x="18.5101" y="13.1426" width="378.414" height="502.209" rx="15.8137" stroke="white" stroke-opacity="0.06" stroke-width="1.02024"/>
</g>
<defs>
<linearGradient id="paint0_linear_219_2161" x1="314.43" y1="-219.782" x2="264.704" y2="695.49" gradientUnits="userSpaceOnUse">
<stop stop-color="#D9D9D9"/>
<stop offset="0.117896" stop-color="#D8D8D8" stop-opacity="0.991615"/>
<stop offset="0.213837" stop-color="#D6D6D6" stop-opacity="0.967585"/>
<stop offset="0.2912" stop-color="#D2D2D2" stop-opacity="0.9296"/>
<stop offset="0.353363" stop-color="#CDCDCD" stop-opacity="0.879348"/>
<stop offset="0.403704" stop-color="#C6C6C6" stop-opacity="0.818519"/>
<stop offset="0.4456" stop-color="#BFBFBF" stop-opacity="0.7488"/>
<stop offset="0.48243" stop-color="#B8B8B8" stop-opacity="0.671881"/>
<stop offset="0.51757" stop-color="#AFAFAF" stop-opacity="0.589452"/>
<stop offset="0.5544" stop-color="#A6A6A6" stop-opacity="0.5032"/>
<stop offset="0.596296" stop-color="#9D9D9D" stop-opacity="0.414815"/>
<stop offset="0.646637" stop-color="#949494" stop-opacity="0.325985"/>
<stop offset="0.7088" stop-color="#8B8B8B" stop-opacity="0.2384"/>
<stop offset="0.786163" stop-color="#838383" stop-opacity="0.153748"/>
<stop offset="0.882104" stop-color="#7B7B7B" stop-opacity="0.0737185"/>
<stop offset="1" stop-color="#737373" stop-opacity="0"/>
</linearGradient>
<linearGradient id="paint1_linear_219_2161" x1="149.302" y1="60.1204" x2="216.406" y2="107.194" gradientUnits="userSpaceOnUse">
<stop stop-color="#FF8A3F"/>
<stop offset="1" stop-color="#FFC969"/>
</linearGradient>
<clipPath id="clip0_219_2161">
<rect x="18" y="12.6324" width="379.435" height="503.229" rx="16.3238" fill="white"/>
</clipPath>
<clipPath id="clip1_219_2161">
<rect x="151.725" y="49.2875" width="64.3973" height="64.3973" rx="32.1987" fill="white"/>
</clipPath>
<clipPath id="clip2_219_2161">
<rect width="40" height="42" fill="white" transform="translate(212 61)"/>
</clipPath>
<clipPath id="clip3_219_2161">
<rect x="48.3623" y="215.704" width="19.893" height="19.893" rx="9.94651" fill="white"/>
</clipPath>
<clipPath id="clip4_219_2161">
<rect x="48.3623" y="250.704" width="19.893" height="19.893" rx="9.94651" fill="white"/>
</clipPath>
<clipPath id="clip5_219_2161">
<rect x="48.3623" y="343.561" width="19.893" height="19.893" rx="9.94651" fill="white"/>
</clipPath>
<clipPath id="clip6_219_2161">
<rect width="67.3663" height="15.1811" fill="white" transform="translate(296.28 481.992)"/>
</clipPath>
<clipPath id="clip7_219_2161">
<rect width="18.9764" height="15.1811" fill="white" transform="translate(296.28 482.94)"/>
</clipPath>
</defs>
</svg>
