<svg width="64" height="81" viewBox="0 0 64 81" fill="none" xmlns="http://www.w3.org/2000/svg">
<g clip-path="url(#clip0_74_2482)">
<path d="M3.47571 65.6669L23.4467 77.0964C29.144 80.357 36.1797 80.357 41.8769 77.0964L61.5299 65.8489C63.1807 64.9041 64.005 63.2568 64.0028 61.6105V53.1847V53.1715C64.0006 51.5296 63.1763 49.8885 61.5299 48.9463L41.5589 37.5167C35.8616 34.2561 28.826 34.2561 23.1287 37.5167L3.47571 48.7643C1.82489 49.7091 1.00059 51.3564 1.00281 53.0027V61.4284V61.4417C1.00503 63.0836 1.82933 64.7246 3.47571 65.6669Z" fill="url(#paint0_linear_74_2482)"/>
<path d="M3.47571 65.6669L23.4467 77.0964C29.144 80.357 36.1797 80.357 41.8769 77.0964L61.5299 65.8489C63.1807 64.9041 64.005 63.2568 64.0028 61.6105V53.1847V53.1715C64.0006 51.5296 63.1763 49.8885 61.5299 48.9463L41.5589 37.5167C35.8616 34.2561 28.826 34.2561 23.1287 37.5167L3.47571 48.7643C1.82489 49.7091 1.00059 51.3564 1.00281 53.0027V61.4284V61.4417C1.00503 63.0836 1.82933 64.7246 3.47571 65.6669Z" fill="url(#paint1_radial_74_2482)" fill-opacity="0.09"/>
<path d="M3.47571 65.6669L23.4467 77.0964C29.144 80.357 36.1797 80.357 41.8769 77.0964L61.5299 65.8489C63.1807 64.9041 64.005 63.2568 64.0028 61.6105V53.1847V53.1715C64.0006 51.5296 63.1763 49.8885 61.5299 48.9463L41.5589 37.5167C35.8616 34.2561 28.826 34.2561 23.1287 37.5167L3.47571 48.7643C1.82489 49.7091 1.00059 51.3564 1.00281 53.0027V61.4284V61.4417C1.00503 63.0836 1.82933 64.7246 3.47571 65.6669Z" fill="#0E1014" fill-opacity="0.3"/>
<path d="M41.5589 37.5361C35.8616 34.2497 28.826 34.2497 23.1287 37.5361L3.47571 48.873C0.178505 50.775 0.17851 55.5018 3.47571 57.4038L23.4467 68.9241C29.144 72.2105 36.1797 72.2105 41.8769 68.9241L61.5299 57.5872C64.8271 55.6853 64.8271 50.9584 61.5299 49.0564L41.5589 37.5361Z" fill="url(#paint2_linear_74_2482)"/>
<path d="M41.5589 37.5361C35.8616 34.2497 28.826 34.2497 23.1287 37.5361L3.47571 48.873C0.178505 50.775 0.17851 55.5018 3.47571 57.4038L23.4467 68.9241C29.144 72.2105 36.1797 72.2105 41.8769 68.9241L61.5299 57.5872C64.8271 55.6853 64.8271 50.9584 61.5299 49.0564L41.5589 37.5361Z" fill="#0E1014" fill-opacity="0.3"/>
<path d="M41.5589 37.5361C35.8616 34.2497 28.826 34.2497 23.1287 37.5361L3.47571 48.873C0.178505 50.775 0.17851 55.5018 3.47571 57.4038L23.4467 68.9241C29.144 72.2105 36.1797 72.2105 41.8769 68.9241L61.5299 57.5872C64.8271 55.6853 64.8271 50.9584 61.5299 49.0564L41.5589 37.5361Z" fill="url(#paint3_radial_74_2482)" fill-opacity="0.65"/>
<path d="M41.5589 37.5361C35.8616 34.2497 28.826 34.2497 23.1287 37.5361L3.47571 48.873C0.178505 50.775 0.17851 55.5018 3.47571 57.4038L23.4467 68.9241C29.144 72.2105 36.1797 72.2105 41.8769 68.9241L61.5299 57.5872C64.8271 55.6853 64.8271 50.9584 61.5299 49.0564L41.5589 37.5361Z" fill="url(#paint4_linear_74_2482)"/>
<path d="M41.5589 37.5361C35.8616 34.2497 28.826 34.2497 23.1287 37.5361L3.47571 48.873C0.178505 50.775 0.17851 55.5018 3.47571 57.4038L23.4467 68.9241C29.144 72.2105 36.1797 72.2105 41.8769 68.9241L61.5299 57.5872C64.8271 55.6853 64.8271 50.9584 61.5299 49.0564L41.5589 37.5361Z" fill="#0E1014" fill-opacity="0.3"/>
<path d="M41.5589 37.5361C35.8616 34.2497 28.826 34.2497 23.1287 37.5361L3.47571 48.873C0.178505 50.775 0.17851 55.5018 3.47571 57.4038L23.4467 68.9241C29.144 72.2105 36.1797 72.2105 41.8769 68.9241L61.5299 57.5872C64.8271 55.6853 64.8271 50.9584 61.5299 49.0564L41.5589 37.5361Z" fill="url(#paint5_radial_74_2482)" fill-opacity="0.65"/>
<path d="M10.4754 53.0694L13.2758 54.6721C14.0747 55.1294 15.0613 55.1294 15.8602 54.6721L18.6161 53.0949C18.8476 52.9624 18.9632 52.7315 18.9629 52.5006V50.7509V50.7491C18.9626 50.5188 18.847 50.2887 18.6161 50.1566L15.8156 48.5539C15.0167 48.0966 14.0301 48.0966 13.2312 48.5539L10.4754 50.1311C10.2439 50.2635 10.1283 50.4945 10.1286 50.7254V52.4751V52.4769C10.1289 52.7072 10.2445 52.9373 10.4754 53.0694Z" fill="url(#paint6_linear_74_2482)"/>
<path d="M10.4754 53.0694L13.2758 54.6721C14.0747 55.1294 15.0613 55.1294 15.8602 54.6721L18.6161 53.0949C18.8476 52.9624 18.9632 52.7315 18.9629 52.5006V50.7509V50.7491C18.9626 50.5188 18.847 50.2887 18.6161 50.1566L15.8156 48.5539C15.0167 48.0966 14.0301 48.0966 13.2312 48.5539L10.4754 50.1311C10.2439 50.2635 10.1283 50.4945 10.1286 50.7254V52.4751V52.4769C10.1289 52.7072 10.2445 52.9373 10.4754 53.0694Z" fill="url(#paint7_radial_74_2482)"/>
<path d="M10.4754 53.0694L13.2758 54.6721C14.0747 55.1294 15.0613 55.1294 15.8602 54.6721L18.6161 53.0949C18.8476 52.9624 18.9632 52.7315 18.9629 52.5006V50.7509V50.7491C18.9626 50.5188 18.847 50.2887 18.6161 50.1566L15.8156 48.5539C15.0167 48.0966 14.0301 48.0966 13.2312 48.5539L10.4754 50.1311C10.2439 50.2635 10.1283 50.4945 10.1286 50.7254V52.4751V52.4769C10.1289 52.7072 10.2445 52.9373 10.4754 53.0694Z" fill="black" fill-opacity="0.2"/>
<path d="M15.3358 25.9883H50.058V49.5994L32.6969 59.3216L15.3358 49.5994V25.9883Z" fill="#A32F2B"/>
<path d="M37.5269 58.2071L40.3273 59.8098C41.1263 60.2671 42.1128 60.2671 42.9118 59.8098L45.6676 58.2326C45.8991 58.1001 46.0147 57.8691 46.0144 57.6383V55.8886V55.8868C46.0141 55.6565 45.8985 55.4264 45.6676 55.2943L42.8672 53.6915C42.0683 53.2343 41.0817 53.2343 40.2828 53.6915L37.5269 55.2688C37.2954 55.4012 37.1798 55.6322 37.1801 55.8631V57.6128V57.6146C37.1804 57.8449 37.296 58.075 37.5269 58.2071Z" fill="url(#paint8_linear_74_2482)"/>
<path d="M37.5269 58.2071L40.3273 59.8098C41.1263 60.2671 42.1128 60.2671 42.9118 59.8098L45.6676 58.2326C45.8991 58.1001 46.0147 57.8691 46.0144 57.6383V55.8886V55.8868C46.0141 55.6565 45.8985 55.4264 45.6676 55.2943L42.8672 53.6915C42.0683 53.2343 41.0817 53.2343 40.2828 53.6915L37.5269 55.2688C37.2954 55.4012 37.1798 55.6322 37.1801 55.8631V57.6128V57.6146C37.1804 57.8449 37.296 58.075 37.5269 58.2071Z" fill="url(#paint9_radial_74_2482)"/>
<path d="M37.5269 58.2071L40.3273 59.8098C41.1263 60.2671 42.1128 60.2671 42.9118 59.8098L45.6676 58.2326C45.8991 58.1001 46.0147 57.8691 46.0144 57.6383V55.8886V55.8868C46.0141 55.6565 45.8985 55.4264 45.6676 55.2943L42.8672 53.6915C42.0683 53.2343 41.0817 53.2343 40.2828 53.6915L37.5269 55.2688C37.2954 55.4012 37.1798 55.6322 37.1801 55.8631V57.6128V57.6146C37.1804 57.8449 37.296 58.075 37.5269 58.2071Z" fill="black" fill-opacity="0.2"/>
<path d="M46.4391 53.0694L49.2396 54.6721C50.0385 55.1294 51.0251 55.1294 51.824 54.6721L54.5799 53.0949C54.8114 52.9624 54.9269 52.7315 54.9266 52.5006V50.7509V50.7491C54.9263 50.5188 54.8107 50.2887 54.5799 50.1566L51.7794 48.5539C50.9805 48.0966 49.9939 48.0966 49.195 48.5539L46.4391 50.1311C46.2076 50.2635 46.092 50.4945 46.0923 50.7254V52.4751V52.4769C46.0926 52.7072 46.2082 52.9373 46.4391 53.0694Z" fill="url(#paint10_linear_74_2482)"/>
<path d="M46.4391 53.0694L49.2396 54.6721C50.0385 55.1294 51.0251 55.1294 51.824 54.6721L54.5799 53.0949C54.8114 52.9624 54.9269 52.7315 54.9266 52.5006V50.7509V50.7491C54.9263 50.5188 54.8107 50.2887 54.5799 50.1566L51.7794 48.5539C50.9805 48.0966 49.9939 48.0966 49.195 48.5539L46.4391 50.1311C46.2076 50.2635 46.092 50.4945 46.0923 50.7254V52.4751V52.4769C46.0926 52.7072 46.2082 52.9373 46.4391 53.0694Z" fill="url(#paint11_radial_74_2482)"/>
<path d="M46.4391 53.0694L49.2396 54.6721C50.0385 55.1294 51.0251 55.1294 51.824 54.6721L54.5799 53.0949C54.8114 52.9624 54.9269 52.7315 54.9266 52.5006V50.7509V50.7491C54.9263 50.5188 54.8107 50.2887 54.5799 50.1566L51.7794 48.5539C50.9805 48.0966 49.9939 48.0966 49.195 48.5539L46.4391 50.1311C46.2076 50.2635 46.092 50.4945 46.0923 50.7254V52.4751V52.4769C46.0926 52.7072 46.2082 52.9373 46.4391 53.0694Z" fill="black" fill-opacity="0.2"/>
<path d="M19.5437 58.2086L22.3442 59.8113C23.1431 60.2685 24.1297 60.2685 24.9286 59.8113L27.6845 58.2341C27.916 58.1016 28.0316 57.8706 28.0312 57.6398V55.8901V55.8882C28.0309 55.658 27.9154 55.4279 27.6845 55.2957L24.884 53.693C24.0851 53.2358 23.0985 53.2358 22.2996 53.693L19.5437 55.2702C19.3122 55.4027 19.1966 55.6337 19.197 55.8646V57.6142V57.6161C19.1973 57.8463 19.3129 58.0764 19.5437 58.2086Z" fill="url(#paint12_linear_74_2482)"/>
<path d="M19.5437 58.2086L22.3442 59.8113C23.1431 60.2685 24.1297 60.2685 24.9286 59.8113L27.6845 58.2341C27.916 58.1016 28.0316 57.8706 28.0312 57.6398V55.8901V55.8882C28.0309 55.658 27.9154 55.4279 27.6845 55.2957L24.884 53.693C24.0851 53.2358 23.0985 53.2358 22.2996 53.693L19.5437 55.2702C19.3122 55.4027 19.1966 55.6337 19.197 55.8646V57.6142V57.6161C19.1973 57.8463 19.3129 58.0764 19.5437 58.2086Z" fill="url(#paint13_radial_74_2482)"/>
<path d="M19.5437 58.2086L22.3442 59.8113C23.1431 60.2685 24.1297 60.2685 24.9286 59.8113L27.6845 58.2341C27.916 58.1016 28.0316 57.8706 28.0312 57.6398V55.8901V55.8882C28.0309 55.658 27.9154 55.4279 27.6845 55.2957L24.884 53.693C24.0851 53.2358 23.0985 53.2358 22.2996 53.693L19.5437 55.2702C19.3122 55.4027 19.1966 55.6337 19.197 55.8646V57.6142V57.6161C19.1973 57.8463 19.3129 58.0764 19.5437 58.2086Z" fill="black" fill-opacity="0.2"/>
<path d="M24.884 53.6957C24.0851 53.2349 23.0985 53.2349 22.2996 53.6957L19.5437 55.2855C19.0814 55.5522 19.0814 56.215 19.5437 56.4817L22.3442 58.0972C23.1431 58.558 24.1297 58.558 24.9286 58.0972L27.6845 56.5074C28.1468 56.2407 28.1468 55.5779 27.6845 55.3112L24.884 53.6957Z" fill="url(#paint14_linear_74_2482)"/>
<path d="M24.884 53.6957C24.0851 53.2349 23.0985 53.2349 22.2996 53.6957L19.5437 55.2855C19.0814 55.5522 19.0814 56.215 19.5437 56.4817L22.3442 58.0972C23.1431 58.558 24.1297 58.558 24.9286 58.0972L27.6845 56.5074C28.1468 56.2407 28.1468 55.5779 27.6845 55.3112L24.884 53.6957Z" fill="black" fill-opacity="0.2"/>
<path d="M20.8495 39.602C20.8495 38.0679 22.0931 36.8242 23.6273 36.8242V36.8242C25.1614 36.8242 26.405 38.0679 26.405 39.602V55.3443C26.405 55.9042 26.0692 56.412 25.5363 56.5839C24.9668 56.7675 24.2208 56.9631 23.6273 56.9631C23.0338 56.9631 22.2877 56.7675 21.7183 56.5839C21.1853 56.412 20.8495 55.9042 20.8495 55.3443V39.602Z" fill="url(#paint15_linear_74_2482)"/>
<path d="M19.5437 38.7637L22.3442 40.3665C23.1431 40.8237 24.1297 40.8237 24.9286 40.3665L27.6845 38.7893C27.916 38.6568 28.0316 38.4258 28.0312 38.1949V36.4453V36.4434C28.0309 36.2132 27.9154 35.9831 27.6845 35.8509L24.884 34.2482C24.0851 33.791 23.0985 33.791 22.2996 34.2482L19.5437 35.8254C19.3122 35.9579 19.1966 36.1889 19.197 36.4197V38.1694V38.1713C19.1973 38.4015 19.3129 38.6316 19.5437 38.7637Z" fill="url(#paint16_linear_74_2482)"/>
<path d="M19.5437 38.7637L22.3442 40.3665C23.1431 40.8237 24.1297 40.8237 24.9286 40.3665L27.6845 38.7893C27.916 38.6568 28.0316 38.4258 28.0312 38.1949V36.4453V36.4434C28.0309 36.2132 27.9154 35.9831 27.6845 35.8509L24.884 34.2482C24.0851 33.791 23.0985 33.791 22.2996 34.2482L19.5437 35.8254C19.3122 35.9579 19.1966 36.1889 19.197 36.4197V38.1694V38.1713C19.1973 38.4015 19.3129 38.6316 19.5437 38.7637Z" fill="url(#paint17_radial_74_2482)"/>
<path d="M19.5437 38.7637L22.3442 40.3665C23.1431 40.8237 24.1297 40.8237 24.9286 40.3665L27.6845 38.7893C27.916 38.6568 28.0316 38.4258 28.0312 38.1949V36.4453V36.4434C28.0309 36.2132 27.9154 35.9831 27.6845 35.8509L24.884 34.2482C24.0851 33.791 23.0985 33.791 22.2996 34.2482L19.5437 35.8254C19.3122 35.9579 19.1966 36.1889 19.197 36.4197V38.1694V38.1713C19.1973 38.4015 19.3129 38.6316 19.5437 38.7637Z" fill="black" fill-opacity="0.2"/>
<path d="M24.884 34.2509C24.0851 33.7901 23.0985 33.7901 22.2996 34.2509L19.5437 35.8406C19.0814 36.1074 19.0814 36.7702 19.5437 37.0369L22.3442 38.6523C23.1431 39.1132 24.1297 39.1132 24.9286 38.6523L27.6845 37.0626C28.1468 36.7959 28.1468 36.1331 27.6845 35.8664L24.884 34.2509Z" fill="url(#paint18_linear_74_2482)"/>
<path d="M24.884 34.2509C24.0851 33.7901 23.0985 33.7901 22.2996 34.2509L19.5437 35.8406C19.0814 36.1074 19.0814 36.7702 19.5437 37.0369L22.3442 38.6523C23.1431 39.1132 24.1297 39.1132 24.9286 38.6523L27.6845 37.0626C28.1468 36.7959 28.1468 36.1331 27.6845 35.8664L24.884 34.2509Z" fill="black" fill-opacity="0.2"/>
<path d="M37.5993 58.2086L40.3997 59.8113C41.1986 60.2685 42.1852 60.2685 42.9841 59.8113L45.74 58.2341C45.9715 58.1016 46.0871 57.8706 46.0868 57.6398V55.8901V55.8882C46.0865 55.658 45.9709 55.4279 45.74 55.2957L42.9395 53.693C42.1406 53.2358 41.154 53.2358 40.3551 53.693L37.5993 55.2702C37.3678 55.4027 37.2522 55.6337 37.2525 55.8646V57.6142V57.6161C37.2528 57.8463 37.3684 58.0764 37.5993 58.2086Z" fill="url(#paint19_linear_74_2482)"/>
<path d="M37.5993 58.2086L40.3997 59.8113C41.1986 60.2685 42.1852 60.2685 42.9841 59.8113L45.74 58.2341C45.9715 58.1016 46.0871 57.8706 46.0868 57.6398V55.8901V55.8882C46.0865 55.658 45.9709 55.4279 45.74 55.2957L42.9395 53.693C42.1406 53.2358 41.154 53.2358 40.3551 53.693L37.5993 55.2702C37.3678 55.4027 37.2522 55.6337 37.2525 55.8646V57.6142V57.6161C37.2528 57.8463 37.3684 58.0764 37.5993 58.2086Z" fill="url(#paint20_radial_74_2482)"/>
<path d="M37.5993 58.2086L40.3997 59.8113C41.1986 60.2685 42.1852 60.2685 42.9841 59.8113L45.74 58.2341C45.9715 58.1016 46.0871 57.8706 46.0868 57.6398V55.8901V55.8882C46.0865 55.658 45.9709 55.4279 45.74 55.2957L42.9395 53.693C42.1406 53.2358 41.154 53.2358 40.3551 53.693L37.5993 55.2702C37.3678 55.4027 37.2522 55.6337 37.2525 55.8646V57.6142V57.6161C37.2528 57.8463 37.3684 58.0764 37.5993 58.2086Z" fill="black" fill-opacity="0.2"/>
<path d="M42.9395 53.6957C42.1406 53.2349 41.154 53.2349 40.3551 53.6957L37.5993 55.2855C37.1369 55.5522 37.1369 56.215 37.5993 56.4817L40.3997 58.0972C41.1986 58.558 42.1852 58.558 42.9841 58.0972L45.74 56.5074C46.2024 56.2407 46.2024 55.5779 45.74 55.3112L42.9395 53.6957Z" fill="url(#paint21_linear_74_2482)"/>
<path d="M42.9395 53.6957C42.1406 53.2349 41.154 53.2349 40.3551 53.6957L37.5993 55.2855C37.1369 55.5522 37.1369 56.215 37.5993 56.4817L40.3997 58.0972C41.1986 58.558 42.1852 58.558 42.9841 58.0972L45.74 56.5074C46.2024 56.2407 46.2024 55.5779 45.74 55.3112L42.9395 53.6957Z" fill="black" fill-opacity="0.2"/>
<path d="M38.9051 39.602C38.9051 38.0679 40.1487 36.8242 41.6829 36.8242V36.8242C43.217 36.8242 44.4606 38.0679 44.4606 39.602V55.3443C44.4606 55.9042 44.1248 56.412 43.5919 56.5839C43.0224 56.7675 42.2764 56.9631 41.6829 56.9631C41.0894 56.9631 40.3433 56.7675 39.7739 56.5839C39.2409 56.412 38.9051 55.9042 38.9051 55.3443V39.602Z" fill="url(#paint22_linear_74_2482)"/>
<path d="M37.5993 38.7637L40.3997 40.3665C41.1986 40.8237 42.1852 40.8237 42.9841 40.3665L45.74 38.7893C45.9715 38.6568 46.0871 38.4258 46.0868 38.1949V36.4453V36.4434C46.0865 36.2132 45.9709 35.9831 45.74 35.8509L42.9395 34.2482C42.1406 33.791 41.154 33.791 40.3551 34.2482L37.5993 35.8254C37.3678 35.9579 37.2522 36.1889 37.2525 36.4197V38.1694V38.1713C37.2528 38.4015 37.3684 38.6316 37.5993 38.7637Z" fill="url(#paint23_linear_74_2482)"/>
<path d="M37.5993 38.7637L40.3997 40.3665C41.1986 40.8237 42.1852 40.8237 42.9841 40.3665L45.74 38.7893C45.9715 38.6568 46.0871 38.4258 46.0868 38.1949V36.4453V36.4434C46.0865 36.2132 45.9709 35.9831 45.74 35.8509L42.9395 34.2482C42.1406 33.791 41.154 33.791 40.3551 34.2482L37.5993 35.8254C37.3678 35.9579 37.2522 36.1889 37.2525 36.4197V38.1694V38.1713C37.2528 38.4015 37.3684 38.6316 37.5993 38.7637Z" fill="url(#paint24_radial_74_2482)"/>
<path d="M37.5993 38.7637L40.3997 40.3665C41.1986 40.8237 42.1852 40.8237 42.9841 40.3665L45.74 38.7893C45.9715 38.6568 46.0871 38.4258 46.0868 38.1949V36.4453V36.4434C46.0865 36.2132 45.9709 35.9831 45.74 35.8509L42.9395 34.2482C42.1406 33.791 41.154 33.791 40.3551 34.2482L37.5993 35.8254C37.3678 35.9579 37.2522 36.1889 37.2525 36.4197V38.1694V38.1713C37.2528 38.4015 37.3684 38.6316 37.5993 38.7637Z" fill="black" fill-opacity="0.2"/>
<path d="M42.9395 34.2509C42.1406 33.7901 41.154 33.7901 40.3551 34.2509L37.5993 35.8406C37.1369 36.1074 37.1369 36.7702 37.5993 37.0369L40.3997 38.6523C41.1986 39.1132 42.1852 39.1132 42.9841 38.6523L45.74 37.0626C46.2024 36.7959 46.2024 36.1331 45.74 35.8664L42.9395 34.2509Z" fill="url(#paint25_linear_74_2482)"/>
<path d="M42.9395 34.2509C42.1406 33.7901 41.154 33.7901 40.3551 34.2509L37.5993 35.8406C37.1369 36.1074 37.1369 36.7702 37.5993 37.0369L40.3997 38.6523C41.1986 39.1132 42.1852 39.1132 42.9841 38.6523L45.74 37.0626C46.2024 36.7959 46.2024 36.1331 45.74 35.8664L42.9395 34.2509Z" fill="black" fill-opacity="0.2"/>
<path d="M15.8156 48.5566C15.0167 48.0957 14.0301 48.0957 13.2312 48.5566L10.4754 50.1463C10.013 50.413 10.013 51.0758 10.4754 51.3426L13.2758 52.958C14.0747 53.4189 15.0613 53.4189 15.8602 52.958L18.6161 51.3683C19.0785 51.1016 19.0785 50.4387 18.6161 50.172L15.8156 48.5566Z" fill="url(#paint26_linear_74_2482)"/>
<path d="M15.8156 48.5566C15.0167 48.0957 14.0301 48.0957 13.2312 48.5566L10.4754 50.1463C10.013 50.413 10.013 51.0758 10.4754 51.3426L13.2758 52.958C14.0747 53.4189 15.0613 53.4189 15.8602 52.958L18.6161 51.3683C19.0785 51.1016 19.0785 50.4387 18.6161 50.172L15.8156 48.5566Z" fill="black" fill-opacity="0.2"/>
<path d="M51.7794 48.5566C50.9805 48.0957 49.9939 48.0957 49.195 48.5566L46.4391 50.1463C45.9767 50.413 45.9767 51.0758 46.4391 51.3426L49.2396 52.958C50.0385 53.4189 51.0251 53.4189 51.824 52.958L54.5799 51.3683C55.0422 51.1016 55.0422 50.4387 54.5799 50.172L51.7794 48.5566Z" fill="url(#paint27_linear_74_2482)"/>
<path d="M51.7794 48.5566C50.9805 48.0957 49.9939 48.0957 49.195 48.5566L46.4391 50.1463C45.9767 50.413 45.9767 51.0758 46.4391 51.3426L49.2396 52.958C50.0385 53.4189 51.0251 53.4189 51.824 52.958L54.5799 51.3683C55.0422 51.1016 55.0422 50.4387 54.5799 50.172L51.7794 48.5566Z" fill="black" fill-opacity="0.2"/>
<path d="M28.6139 63.3448L31.4144 64.9475C32.2133 65.4048 33.1999 65.4048 33.9988 64.9475L36.7547 63.3703C36.9862 63.2378 37.1017 63.0068 37.1014 62.776V61.0263V61.0245C37.1011 60.7942 36.9855 60.5641 36.7547 60.432L33.9542 58.8292C33.1553 58.372 32.1687 58.372 31.3698 58.8292L28.6139 60.4065C28.3824 60.5389 28.2668 60.7699 28.2671 61.0008V62.7505V62.7523C28.2675 62.9826 28.383 63.2127 28.6139 63.3448Z" fill="url(#paint28_linear_74_2482)"/>
<path d="M28.6139 63.3448L31.4144 64.9475C32.2133 65.4048 33.1999 65.4048 33.9988 64.9475L36.7547 63.3703C36.9862 63.2378 37.1017 63.0068 37.1014 62.776V61.0263V61.0245C37.1011 60.7942 36.9855 60.5641 36.7547 60.432L33.9542 58.8292C33.1553 58.372 32.1687 58.372 31.3698 58.8292L28.6139 60.4065C28.3824 60.5389 28.2668 60.7699 28.2671 61.0008V62.7505V62.7523C28.2675 62.9826 28.383 63.2127 28.6139 63.3448Z" fill="url(#paint29_radial_74_2482)"/>
<path d="M28.6139 63.3448L31.4144 64.9475C32.2133 65.4048 33.1999 65.4048 33.9988 64.9475L36.7547 63.3703C36.9862 63.2378 37.1017 63.0068 37.1014 62.776V61.0263V61.0245C37.1011 60.7942 36.9855 60.5641 36.7547 60.432L33.9542 58.8292C33.1553 58.372 32.1687 58.372 31.3698 58.8292L28.6139 60.4065C28.3824 60.5389 28.2668 60.7699 28.2671 61.0008V62.7505V62.7523C28.2675 62.9826 28.383 63.2127 28.6139 63.3448Z" fill="black" fill-opacity="0.2"/>
<path d="M33.9542 58.832C33.1553 58.3711 32.1687 58.3711 31.3698 58.832L28.6139 60.4217C28.1516 60.6884 28.1516 61.3512 28.6139 61.6179L31.4144 63.2334C32.2133 63.6943 33.1999 63.6943 33.9988 63.2334L36.7547 61.6437C37.217 61.377 37.217 60.7141 36.7547 60.4474L33.9542 58.832Z" fill="url(#paint30_linear_74_2482)"/>
<path d="M33.9542 58.832C33.1553 58.3711 32.1687 58.3711 31.3698 58.832L28.6139 60.4217C28.1516 60.6884 28.1516 61.3512 28.6139 61.6179L31.4144 63.2334C32.2133 63.6943 33.1999 63.6943 33.9988 63.2334L36.7547 61.6437C37.217 61.377 37.217 60.7141 36.7547 60.4474L33.9542 58.832Z" fill="black" fill-opacity="0.2"/>
<path d="M29.9198 44.7385C29.9198 43.2043 31.1635 41.9607 32.6976 41.9607V41.9607C34.2317 41.9607 35.4754 43.2043 35.4754 44.7385V60.4807C35.4754 61.0407 35.1395 61.5485 34.6066 61.7203C34.0371 61.9039 33.2911 62.0996 32.6976 62.0996C32.1041 62.0996 31.358 61.9039 30.7886 61.7203C30.2556 61.5485 29.9198 61.0407 29.9198 60.4807V44.7385Z" fill="url(#paint31_linear_74_2482)"/>
<path d="M28.6139 43.9005L31.4144 45.5032C32.2133 45.9604 33.1999 45.9604 33.9988 45.5032L36.7547 43.926C36.9862 43.7935 37.1017 43.5625 37.1014 43.3316V41.582V41.5801C37.1011 41.3499 36.9855 41.1198 36.7547 40.9876L33.9542 39.3849C33.1553 38.9277 32.1687 38.9277 31.3698 39.3849L28.6139 40.9621C28.3824 41.0946 28.2668 41.3256 28.2671 41.5565V43.3061V43.308C28.2675 43.5382 28.383 43.7683 28.6139 43.9005Z" fill="url(#paint32_linear_74_2482)"/>
<path d="M28.6139 43.9005L31.4144 45.5032C32.2133 45.9604 33.1999 45.9604 33.9988 45.5032L36.7547 43.926C36.9862 43.7935 37.1017 43.5625 37.1014 43.3316V41.582V41.5801C37.1011 41.3499 36.9855 41.1198 36.7547 40.9876L33.9542 39.3849C33.1553 38.9277 32.1687 38.9277 31.3698 39.3849L28.6139 40.9621C28.3824 41.0946 28.2668 41.3256 28.2671 41.5565V43.3061V43.308C28.2675 43.5382 28.383 43.7683 28.6139 43.9005Z" fill="url(#paint33_radial_74_2482)"/>
<path d="M28.6139 43.9005L31.4144 45.5032C32.2133 45.9604 33.1999 45.9604 33.9988 45.5032L36.7547 43.926C36.9862 43.7935 37.1017 43.5625 37.1014 43.3316V41.582V41.5801C37.1011 41.3499 36.9855 41.1198 36.7547 40.9876L33.9542 39.3849C33.1553 38.9277 32.1687 38.9277 31.3698 39.3849L28.6139 40.9621C28.3824 41.0946 28.2668 41.3256 28.2671 41.5565V43.3061V43.308C28.2675 43.5382 28.383 43.7683 28.6139 43.9005Z" fill="black" fill-opacity="0.2"/>
<path d="M33.9542 39.3876C33.1553 38.9268 32.1687 38.9268 31.3698 39.3876L28.6139 40.9774C28.1516 41.2441 28.1516 41.9069 28.6139 42.1736L31.4144 43.7891C32.2133 44.2499 33.1999 44.2499 33.9988 43.7891L36.7547 42.1993C37.217 41.9326 37.217 41.2698 36.7547 41.0031L33.9542 39.3876Z" fill="url(#paint34_linear_74_2482)"/>
<path d="M33.9542 39.3876C33.1553 38.9268 32.1687 38.9268 31.3698 39.3876L28.6139 40.9774C28.1516 41.2441 28.1516 41.9069 28.6139 42.1736L31.4144 43.7891C32.2133 44.2499 33.1999 44.2499 33.9988 43.7891L36.7547 42.1993C37.217 41.9326 37.217 41.2698 36.7547 41.0031L33.9542 39.3876Z" fill="black" fill-opacity="0.2"/>
<path d="M10.4743 53.0694L13.2747 54.6721C14.0736 55.1294 15.0602 55.1294 15.8591 54.6721L18.615 53.0949C18.8465 52.9624 18.9621 52.7315 18.9618 52.5006V50.7509V50.7491C18.9615 50.5188 18.8459 50.2887 18.615 50.1566L15.8145 48.5539C15.0156 48.0966 14.029 48.0966 13.2301 48.5539L10.4743 50.1311C10.2428 50.2635 10.1272 50.4945 10.1275 50.7254V52.4751V52.4769C10.1278 52.7072 10.2434 52.9373 10.4743 53.0694Z" fill="url(#paint35_linear_74_2482)"/>
<path d="M10.4743 53.0694L13.2747 54.6721C14.0736 55.1294 15.0602 55.1294 15.8591 54.6721L18.615 53.0949C18.8465 52.9624 18.9621 52.7315 18.9618 52.5006V50.7509V50.7491C18.9615 50.5188 18.8459 50.2887 18.615 50.1566L15.8145 48.5539C15.0156 48.0966 14.029 48.0966 13.2301 48.5539L10.4743 50.1311C10.2428 50.2635 10.1272 50.4945 10.1275 50.7254V52.4751V52.4769C10.1278 52.7072 10.2434 52.9373 10.4743 53.0694Z" fill="url(#paint36_radial_74_2482)"/>
<path d="M10.4743 53.0694L13.2747 54.6721C14.0736 55.1294 15.0602 55.1294 15.8591 54.6721L18.615 53.0949C18.8465 52.9624 18.9621 52.7315 18.9618 52.5006V50.7509V50.7491C18.9615 50.5188 18.8459 50.2887 18.615 50.1566L15.8145 48.5539C15.0156 48.0966 14.029 48.0966 13.2301 48.5539L10.4743 50.1311C10.2428 50.2635 10.1272 50.4945 10.1275 50.7254V52.4751V52.4769C10.1278 52.7072 10.2434 52.9373 10.4743 53.0694Z" fill="black" fill-opacity="0.2"/>
<path d="M15.8145 48.5566C15.0156 48.0957 14.029 48.0957 13.2301 48.5566L10.4743 50.1463C10.0119 50.413 10.0119 51.0758 10.4743 51.3426L13.2747 52.958C14.0736 53.4189 15.0602 53.4189 15.8591 52.958L18.615 51.3683C19.0774 51.1016 19.0774 50.4387 18.615 50.172L15.8145 48.5566Z" fill="url(#paint37_linear_74_2482)"/>
<path d="M15.8145 48.5566C15.0156 48.0957 14.029 48.0957 13.2301 48.5566L10.4743 50.1463C10.0119 50.413 10.0119 51.0758 10.4743 51.3426L13.2747 52.958C14.0736 53.4189 15.0602 53.4189 15.8591 52.958L18.615 51.3683C19.0774 51.1016 19.0774 50.4387 18.615 50.172L15.8145 48.5566Z" fill="black" fill-opacity="0.2"/>
<path d="M11.78 34.4628C11.78 32.9287 13.0237 31.6851 14.5578 31.6851V31.6851C16.0919 31.6851 17.3356 32.9287 17.3356 34.4628V50.2051C17.3356 50.765 16.9997 51.2729 16.4668 51.4447C15.8974 51.6283 15.1513 51.824 14.5578 51.824C13.9643 51.824 13.2182 51.6283 12.6488 51.4447C12.1159 51.2729 11.78 50.765 11.78 50.2051V34.4628Z" fill="url(#paint38_linear_74_2482)"/>
<path d="M10.4743 33.6246L13.2747 35.2273C14.0736 35.6845 15.0602 35.6845 15.8591 35.2273L18.615 33.6501C18.8465 33.5176 18.9621 33.2866 18.9618 33.0558V31.3061V31.3043C18.9615 31.074 18.8459 30.8439 18.615 30.7118L15.8145 29.109C15.0156 28.6518 14.029 28.6518 13.2301 29.109L10.4743 30.6862C10.2428 30.8187 10.1272 31.0497 10.1275 31.2806V33.0302V33.0321C10.1278 33.2623 10.2434 33.4925 10.4743 33.6246Z" fill="url(#paint39_linear_74_2482)"/>
<path d="M10.4743 33.6246L13.2747 35.2273C14.0736 35.6845 15.0602 35.6845 15.8591 35.2273L18.615 33.6501C18.8465 33.5176 18.9621 33.2866 18.9618 33.0558V31.3061V31.3043C18.9615 31.074 18.8459 30.8439 18.615 30.7118L15.8145 29.109C15.0156 28.6518 14.029 28.6518 13.2301 29.109L10.4743 30.6862C10.2428 30.8187 10.1272 31.0497 10.1275 31.2806V33.0302V33.0321C10.1278 33.2623 10.2434 33.4925 10.4743 33.6246Z" fill="url(#paint40_radial_74_2482)"/>
<path d="M10.4743 33.6246L13.2747 35.2273C14.0736 35.6845 15.0602 35.6845 15.8591 35.2273L18.615 33.6501C18.8465 33.5176 18.9621 33.2866 18.9618 33.0558V31.3061V31.3043C18.9615 31.074 18.8459 30.8439 18.615 30.7118L15.8145 29.109C15.0156 28.6518 14.029 28.6518 13.2301 29.109L10.4743 30.6862C10.2428 30.8187 10.1272 31.0497 10.1275 31.2806V33.0302V33.0321C10.1278 33.2623 10.2434 33.4925 10.4743 33.6246Z" fill="black" fill-opacity="0.2"/>
<path d="M15.8145 29.1118C15.0156 28.6509 14.029 28.6509 13.2301 29.1118L10.4743 30.7015C10.0119 30.9682 10.0119 31.631 10.4743 31.8977L13.2747 33.5132C14.0736 33.974 15.0602 33.974 15.8591 33.5132L18.615 31.9235C19.0774 31.6567 19.0774 30.9939 18.615 30.7272L15.8145 29.1118Z" fill="url(#paint41_linear_74_2482)"/>
<path d="M15.8145 29.1118C15.0156 28.6509 14.029 28.6509 13.2301 29.1118L10.4743 30.7015C10.0119 30.9682 10.0119 31.631 10.4743 31.8977L13.2747 33.5132C14.0736 33.974 15.0602 33.974 15.8591 33.5132L18.615 31.9235C19.0774 31.6567 19.0774 30.9939 18.615 30.7272L15.8145 29.1118Z" fill="black" fill-opacity="0.2"/>
<path d="M46.4323 53.0694L49.2327 54.6721C50.0317 55.1294 51.0182 55.1294 51.8172 54.6721L54.573 53.0949C54.8045 52.9624 54.9201 52.7315 54.9198 52.5006V50.7509V50.7491C54.9195 50.5188 54.8039 50.2887 54.573 50.1566L51.7726 48.5539C50.9736 48.0966 49.9871 48.0966 49.1881 48.5539L46.4323 50.1311C46.2008 50.2635 46.0852 50.4945 46.0855 50.7254V52.4751V52.4769C46.0858 52.7072 46.2014 52.9373 46.4323 53.0694Z" fill="url(#paint42_linear_74_2482)"/>
<path d="M46.4323 53.0694L49.2327 54.6721C50.0317 55.1294 51.0182 55.1294 51.8172 54.6721L54.573 53.0949C54.8045 52.9624 54.9201 52.7315 54.9198 52.5006V50.7509V50.7491C54.9195 50.5188 54.8039 50.2887 54.573 50.1566L51.7726 48.5539C50.9736 48.0966 49.9871 48.0966 49.1881 48.5539L46.4323 50.1311C46.2008 50.2635 46.0852 50.4945 46.0855 50.7254V52.4751V52.4769C46.0858 52.7072 46.2014 52.9373 46.4323 53.0694Z" fill="url(#paint43_radial_74_2482)"/>
<path d="M46.4323 53.0694L49.2327 54.6721C50.0317 55.1294 51.0182 55.1294 51.8172 54.6721L54.573 53.0949C54.8045 52.9624 54.9201 52.7315 54.9198 52.5006V50.7509V50.7491C54.9195 50.5188 54.8039 50.2887 54.573 50.1566L51.7726 48.5539C50.9736 48.0966 49.9871 48.0966 49.1881 48.5539L46.4323 50.1311C46.2008 50.2635 46.0852 50.4945 46.0855 50.7254V52.4751V52.4769C46.0858 52.7072 46.2014 52.9373 46.4323 53.0694Z" fill="black" fill-opacity="0.2"/>
<path d="M51.7726 48.5566C50.9736 48.0957 49.9871 48.0957 49.1881 48.5566L46.4323 50.1463C45.9699 50.413 45.9699 51.0758 46.4323 51.3426L49.2327 52.958C50.0317 53.4189 51.0182 53.4189 51.8172 52.958L54.573 51.3683C55.0354 51.1016 55.0354 50.4387 54.573 50.172L51.7726 48.5566Z" fill="url(#paint44_linear_74_2482)"/>
<path d="M51.7726 48.5566C50.9736 48.0957 49.9871 48.0957 49.1881 48.5566L46.4323 50.1463C45.9699 50.413 45.9699 51.0758 46.4323 51.3426L49.2327 52.958C50.0317 53.4189 51.0182 53.4189 51.8172 52.958L54.573 51.3683C55.0354 51.1016 55.0354 50.4387 54.573 50.172L51.7726 48.5566Z" fill="black" fill-opacity="0.2"/>
<path d="M47.738 34.4628C47.738 32.9287 48.9816 31.6851 50.5158 31.6851V31.6851C52.0499 31.6851 53.2935 32.9287 53.2935 34.4628V50.2051C53.2935 50.765 52.9577 51.2729 52.4248 51.4447C51.8553 51.6283 51.1093 51.824 50.5158 51.824C49.9222 51.824 49.1762 51.6283 48.6067 51.4447C48.0738 51.2729 47.738 50.765 47.738 50.2051V34.4628Z" fill="url(#paint45_linear_74_2482)"/>
<path d="M46.4323 33.6246L49.2327 35.2273C50.0317 35.6845 51.0182 35.6845 51.8172 35.2273L54.573 33.6501C54.8045 33.5176 54.9201 33.2866 54.9198 33.0558V31.3061V31.3043C54.9195 31.074 54.8039 30.8439 54.573 30.7118L51.7726 29.109C50.9736 28.6518 49.9871 28.6518 49.1881 29.109L46.4323 30.6862C46.2008 30.8187 46.0852 31.0497 46.0855 31.2806V33.0302V33.0321C46.0858 33.2623 46.2014 33.4925 46.4323 33.6246Z" fill="url(#paint46_linear_74_2482)"/>
<path d="M46.4323 33.6246L49.2327 35.2273C50.0317 35.6845 51.0182 35.6845 51.8172 35.2273L54.573 33.6501C54.8045 33.5176 54.9201 33.2866 54.9198 33.0558V31.3061V31.3043C54.9195 31.074 54.8039 30.8439 54.573 30.7118L51.7726 29.109C50.9736 28.6518 49.9871 28.6518 49.1881 29.109L46.4323 30.6862C46.2008 30.8187 46.0852 31.0497 46.0855 31.2806V33.0302V33.0321C46.0858 33.2623 46.2014 33.4925 46.4323 33.6246Z" fill="url(#paint47_radial_74_2482)"/>
<path d="M46.4323 33.6246L49.2327 35.2273C50.0317 35.6845 51.0182 35.6845 51.8172 35.2273L54.573 33.6501C54.8045 33.5176 54.9201 33.2866 54.9198 33.0558V31.3061V31.3043C54.9195 31.074 54.8039 30.8439 54.573 30.7118L51.7726 29.109C50.9736 28.6518 49.9871 28.6518 49.1881 29.109L46.4323 30.6862C46.2008 30.8187 46.0852 31.0497 46.0855 31.2806V33.0302V33.0321C46.0858 33.2623 46.2014 33.4925 46.4323 33.6246Z" fill="black" fill-opacity="0.2"/>
<path d="M51.7726 29.1118C50.9736 28.6509 49.9871 28.6509 49.1881 29.1118L46.4323 30.7015C45.9699 30.9682 45.9699 31.631 46.4323 31.8977L49.2327 33.5132C50.0317 33.974 51.0182 33.974 51.8172 33.5132L54.573 31.9235C55.0354 31.6567 55.0354 30.9939 54.573 30.7272L51.7726 29.1118Z" fill="url(#paint48_linear_74_2482)"/>
<path d="M51.7726 29.1118C50.9736 28.6509 49.9871 28.6509 49.1881 29.1118L46.4323 30.7015C45.9699 30.9682 45.9699 31.631 46.4323 31.8977L49.2327 33.5132C50.0317 33.974 51.0182 33.974 51.8172 33.5132L54.573 31.9235C55.0354 31.6567 55.0354 30.9939 54.573 30.7272L51.7726 29.1118Z" fill="black" fill-opacity="0.2"/>
<path fill-rule="evenodd" clip-rule="evenodd" d="M29.7528 20.3295C30.6434 20.3295 31.5344 20.3295 32.4251 20.3295C32.4251 21.6656 32.4251 23.0018 32.4251 24.3379C32.4251 24.5161 32.4251 24.6942 32.4251 24.8724C29.6365 23.5673 26.786 22.4093 23.8737 21.3984C23.8737 21.3093 23.8737 21.2202 23.8737 21.1312C25.7566 20.4167 27.7162 20.1495 29.7528 20.3295Z" fill="#FFC4A0"/>
<path fill-rule="evenodd" clip-rule="evenodd" d="M34.8302 17.9234C37.3996 19.5883 40.2501 20.4345 43.3815 20.4621C45.243 22.1933 47.2026 23.7967 49.2605 25.2722C51.4 26.1638 53.4488 27.1882 55.4068 28.3454C54.3005 28.3531 53.2316 28.5313 52.2001 28.8798C50.458 27.6966 48.5874 26.7168 46.5883 25.9403C44.6957 24.3223 42.7361 22.7635 40.7092 21.2638C38.6959 20.6384 36.6473 20.2376 34.5629 20.0612C33.1378 18.636 31.7124 18.636 30.2873 20.0612C30.0222 20.0154 29.8442 20.1045 29.7528 20.3285C27.7163 20.1484 25.7567 20.4157 23.8738 21.1302C23.148 21.1606 22.6135 20.8933 22.2704 20.3285C23.7698 20.0442 25.2842 19.8216 26.8133 19.6604C28.6839 18.7251 30.5545 17.7898 32.4251 16.8545C33.2011 17.2874 34.0028 17.6437 34.8302 17.9234Z" fill="#FFC4A0"/>
<path fill-rule="evenodd" clip-rule="evenodd" d="M41.5111 29.9507C41.3329 29.9507 41.1549 29.9507 40.9766 29.9507C39.8187 29.1039 38.5716 28.3912 37.2354 27.8129C35.6417 26.8369 34.0381 25.8561 32.4251 24.8724C32.4251 24.6942 32.4251 24.5161 32.4251 24.3379C33.9656 24.162 35.5693 23.584 37.2354 22.6019C38.4382 22.0507 39.6851 21.7835 40.9766 21.8002C41.9747 22.7304 42.7764 23.7993 43.3817 25.007C42.9352 25.8423 42.7123 26.7776 42.7136 27.8129C42.5931 27.1638 42.3702 27.1193 42.0456 27.6793C42.7003 28.1105 42.6556 28.5113 41.9119 28.8818C41.5346 28.5016 41.2228 28.5461 40.9766 29.0154C41.3703 29.205 41.5485 29.5168 41.5111 29.9507Z" fill="#FFC4A0"/>
<path fill-rule="evenodd" clip-rule="evenodd" d="M29.7528 20.3285C29.8442 20.1045 30.0222 20.0154 30.2873 20.0612C31.7124 20.0612 33.1378 20.0612 34.5629 20.0612C36.6473 20.2376 38.6959 20.6384 40.7092 21.2638C42.7361 22.7635 44.6957 24.3223 46.5883 25.9403C47.1428 26.5332 47.7667 27.0681 48.4591 27.5441C48.4032 27.7007 48.314 27.8343 48.1918 27.9449C46.0144 28.5972 43.8766 29.2653 41.7783 29.9491C41.6893 29.9491 41.6001 29.9491 41.5111 29.9491C41.5485 29.5152 41.3703 29.2035 40.9766 29.0138C41.2228 28.5446 41.5346 28.5 41.9119 28.8802C42.6556 28.5097 42.7003 28.1089 42.0456 27.6777C42.3702 27.1177 42.5931 27.1623 42.7136 27.8113C42.7123 26.7761 42.9352 25.8408 43.3817 25.0054C42.7764 23.7978 41.9747 22.7289 40.9766 21.7987C39.6851 21.7819 38.4382 22.0491 37.2354 22.6003C35.5693 23.5824 33.9656 24.162 32.4251 24.3379C32.4251 23.0018 32.4251 21.6656 32.4251 20.3295C31.5344 20.3295 30.6435 20.3285 29.7528 20.3285Z" fill="#FFC4A0"/>
<path fill-rule="evenodd" clip-rule="evenodd" d="M23.8736 21.3987C26.7858 22.4096 29.6364 23.5676 32.4249 24.8727C34.0379 25.8563 35.6413 26.8362 37.235 27.8122C36.5365 27.7526 36.091 28.0644 35.8989 28.7475C36.3443 29.0593 36.7895 29.371 37.235 29.6828C36.6653 29.9763 36.0865 30.2435 35.498 30.4845C35.409 30.0391 35.3198 29.5937 35.2308 29.1483C35.0309 29.638 34.7637 30.0834 34.4291 30.4845C34.3401 30.3955 34.2509 30.3063 34.1619 30.2172C33.4593 30.3316 32.8359 30.5989 32.2913 31.0189C32.0265 30.6344 31.6702 30.3672 31.2224 30.2172C30.9952 30.4642 30.728 30.4642 30.4207 30.2172C29.2149 30.5622 28.1014 31.0077 27.0803 31.5534C25.889 31.0914 24.7311 30.5569 23.6063 29.95C22.1833 28.169 21.3373 26.1202 21.0676 23.8037C20.7659 24.2423 20.3651 24.5096 19.8651 24.6054C21.0455 23.3353 22.3816 22.2663 23.8736 21.3987Z" fill="#FBA397"/>
<path fill-rule="evenodd" clip-rule="evenodd" d="M37.235 27.8122C38.5712 28.3905 39.818 29.1034 40.9759 29.9502C38.1267 31.6405 35.2765 33.3331 32.4246 35.0276C30.5422 33.999 28.7609 32.8409 27.0803 31.5534C28.1014 31.0077 29.2149 30.5622 30.4207 30.2172C30.728 30.4642 30.9952 30.4642 31.2224 30.2172C31.6702 30.3672 32.0265 30.6344 32.2913 31.0189C32.8359 30.5989 33.4593 30.3316 34.1619 30.2172C34.2509 30.3063 34.3401 30.3955 34.4291 30.4845C34.7637 30.0834 35.0309 29.638 35.2308 29.1483C35.3198 29.5937 35.409 30.0391 35.498 30.4845C36.0865 30.2435 36.6653 29.9763 37.235 29.6828C36.7895 29.371 36.3443 29.0593 35.8989 28.7475C36.091 28.0644 36.5365 27.7526 37.235 27.8122Z" fill="#FBA397"/>
<path fill-rule="evenodd" clip-rule="evenodd" d="M17.1932 27.2778C19.1749 27.9975 21.1345 28.7992 23.0722 29.6829C20.7299 29.4316 18.5029 28.8081 16.3915 27.8123C16.5264 27.4332 16.7936 27.255 17.1932 27.2778Z" fill="#FBA397"/>
<path fill-rule="evenodd" clip-rule="evenodd" d="M23.0721 29.9492C23.2503 29.9492 23.4283 29.9492 23.6065 29.9492C24.7313 30.5561 25.8892 31.0906 27.0805 31.5526C28.7611 32.8401 30.5427 33.998 32.4251 35.0266C32.4532 36.1083 32.3642 37.1772 32.1579 38.2333C28.6307 35.9541 25.335 33.3708 22.2704 30.4837C22.5937 30.3682 22.861 30.1901 23.0721 29.9492Z" fill="#FFC4A0"/>
<path fill-rule="evenodd" clip-rule="evenodd" d="M34.5627 20.0621C33.1376 20.0621 31.7122 20.0621 30.287 20.0621C31.7122 18.6369 33.1376 18.6369 34.5627 20.0621Z" fill="#FD9F95"/>
<path fill-rule="evenodd" clip-rule="evenodd" d="M23.6068 29.9512C23.4286 29.9512 23.2506 29.9512 23.0723 29.9512C23.0723 29.8621 23.0723 29.773 23.0723 29.684C21.1347 28.8003 19.1751 27.9986 17.1933 27.2789C18.166 26.4845 19.0567 25.5937 19.8656 24.6066C20.3656 24.5107 20.7664 24.2435 21.0681 23.8049C21.3378 26.1214 22.1838 28.1702 23.6068 29.9512Z" fill="#FD9F95"/>
<path fill-rule="evenodd" clip-rule="evenodd" d="M46.5883 25.9411C48.5875 26.7175 50.4581 27.6974 52.2002 28.8806C49.2144 29.4913 46.1859 30.0258 43.1144 30.484C42.9361 30.573 42.7581 30.6622 42.5799 30.7512C42.3645 30.4231 42.0973 30.1558 41.7782 29.9495C43.8765 29.2656 46.0143 28.5976 48.1917 27.9453C48.3138 27.8347 48.4031 27.7011 48.459 27.5445C47.7666 27.0685 47.1428 26.534 46.5883 25.9411Z" fill="#FD9F95"/>
<path fill-rule="evenodd" clip-rule="evenodd" d="M19.8655 24.6046C19.0566 25.5917 18.1659 26.4825 17.1932 27.2769C16.7936 27.2541 16.5263 27.4323 16.3915 27.8114C18.5029 28.8072 20.7299 29.4307 23.0722 29.682C23.0722 29.771 23.0722 29.8601 23.0722 29.9492C22.8611 30.19 22.5939 30.3682 22.2705 30.4837C21.8251 30.4837 21.3798 30.4837 20.9344 30.4837C18.1961 30.0013 15.4348 29.4669 12.6503 28.8803C13.8748 27.9563 15.2109 27.2437 16.6587 26.7424C17.8051 26.1277 18.874 25.4151 19.8655 24.6046Z" fill="#FD9F95"/>
<path fill-rule="evenodd" clip-rule="evenodd" d="M40.9768 29.9492C41.155 29.9492 41.333 29.9492 41.5112 29.9492C41.6002 29.9492 41.6892 29.9495 41.7782 29.9495C42.0973 30.1558 42.3645 30.4231 42.5799 30.7512C39.5562 33.0633 36.6169 35.468 33.7616 37.9661C33.2918 38.0668 32.8463 38.2451 32.4254 38.5005C32.2632 38.4674 32.1743 38.3784 32.1582 38.2333C32.3645 37.1772 32.4535 36.1083 32.4254 35.0266C35.2773 33.3321 38.1276 31.6394 40.9768 29.9492Z" fill="#FD9F95"/>
<path fill-rule="evenodd" clip-rule="evenodd" d="M53.5028 30.071C53.859 30.3383 54.6466 30.8038 55.0028 31.071C54.3794 31.2493 52.2888 31.642 51.6653 31.8203C49.3399 32.0445 47.0238 32.3563 44.7174 32.7556C44.5688 32.8579 44.4798 32.9915 44.4501 33.1564C43.0547 34.1641 41.7185 35.2331 40.4417 36.3632C38.7977 37.5884 37.1943 38.8799 35.6316 40.238C34.5888 40.8043 33.5199 41.2941 32.4248 41.7078C32.4248 41.3515 32.4248 40.9951 32.4248 40.6388C33.4937 40.1044 34.5626 39.5699 35.6316 39.0355C38.7445 36.6341 41.773 34.1401 44.7174 31.553C47.2849 31.0972 50.9037 30.3279 53.5028 30.071Z" fill="#FF9D62"/>
<path d="M22.27 20.3294C22.6131 20.8942 23.1476 21.1615 23.8734 21.131V21.3983C22.3814 22.2659 21.0453 23.3349 19.8649 24.605C18.8735 25.4155 17.8046 26.1281 16.6582 26.7429C15.2104 27.2441 13.8743 27.956 12.6498 28.88C15.4343 29.4666 18.1956 30.0011 20.9339 30.4834C19.9767 30.4051 19.6202 30.7613 19.865 31.5523C17.092 31.2388 14.3305 30.838 11.5809 30.3498C10.3757 29.9708 9.3068 29.3918 8.37415 28.6128C10.9286 27.3799 13.5118 26.2219 16.1238 25.1388C17.9327 23.6436 19.7144 22.0852 21.4683 20.463C21.7217 20.3339 21.9889 20.2894 22.27 20.3294Z" fill="#FDC5BF"/>
<path d="M56.2082 28.614C55.9701 28.451 55.7029 28.362 55.4065 28.3468C54.3002 28.3545 53.2313 28.5327 52.1998 28.8812C49.2141 29.4919 46.1857 30.0264 43.1143 30.4846L42.8469 30.6179L42.5796 30.7515C39.5561 33.0634 36.6167 35.4684 33.7615 37.9663C33.7614 37.9663 33.7615 37.9663 33.7615 37.9663C33.2917 38.0671 32.846 38.2453 32.4251 38.5007C32.2629 38.4676 32.1739 38.3786 32.1579 38.2335C28.6307 35.9543 25.335 33.371 22.2704 30.4839L20.9339 30.4834C19.9767 30.4051 19.6202 30.7613 19.865 31.5523C22.9272 33.9451 25.956 36.395 28.9511 38.9016C29.3366 39.0943 29.7213 39.2867 30.1051 39.4786C30.8816 39.8669 31.6549 40.2536 32.4251 40.6386L35.6315 39.0354C35.6315 39.0355 35.6314 39.0353 35.6315 39.0354C38.7443 36.6342 41.7729 34.1404 44.7171 31.5534C47.2847 31.0976 49.8679 30.7414 52.467 30.4846C53.6246 30.1322 54.7825 29.6868 55.941 29.1485C56.1542 29.0264 56.2432 28.8482 56.2082 28.614Z" fill="#FDC5BF"/>
<path fill-rule="evenodd" clip-rule="evenodd" d="M8.37355 28.6133C9.3062 29.3923 10.3751 29.9713 11.5803 30.3503C14.3299 30.8385 17.0914 31.2393 19.8644 31.5528C22.9266 33.9456 25.9551 36.395 28.9502 38.9016C30.1153 39.4842 31.2732 40.0633 32.4242 40.6386C32.4242 40.9948 32.4242 41.3513 32.4242 41.7075C32.3352 41.7075 32.2459 41.7075 32.157 41.7075C30.8817 41.1143 29.6348 40.4462 28.4157 39.7033C25.6462 37.4297 22.8849 35.1583 20.1316 32.889C17.6817 32.4814 15.1875 32.1252 12.6492 31.82C11.7837 31.5555 10.893 31.2882 9.97692 31.0183C9.43736 30.6354 8.85838 30.279 8.23993 29.9494C8.0316 29.4452 8.07615 28.9998 8.37355 28.6133Z" fill="#A32F2B"/>
<path fill-rule="evenodd" clip-rule="evenodd" d="M12.6497 31.8207C15.188 32.1258 17.6822 32.4821 20.1321 32.8896C17.2984 33.3853 14.5371 33.0734 11.848 31.9543C12.1013 31.8252 12.3686 31.7808 12.6497 31.8207Z" fill="#EB7553"/>
<path fill-rule="evenodd" clip-rule="evenodd" d="M9.1755 31.2864C9.36496 31.0448 9.63219 30.9558 9.97718 31.0191C10.8932 31.289 11.7842 31.5561 12.6497 31.8207C12.3686 31.7808 12.1013 31.8252 11.848 31.9543C14.5371 33.0734 17.2984 33.3853 20.1321 32.8896C22.8854 35.1589 25.6464 37.4305 28.416 39.7041C29.6351 40.447 30.882 41.1151 32.1572 41.7083C32.5925 42.1615 32.5035 42.4288 31.89 42.51C31.7117 42.51 31.5338 42.51 31.3555 42.51C28.8858 41.0525 26.3025 39.8056 23.6059 38.7688C22.7959 38.1448 21.905 37.6103 20.9336 37.1654C21.8491 36.6951 21.9381 36.1163 21.2008 35.4284C21.3791 35.2502 21.557 35.0722 21.7353 34.894C21.2583 34.2991 20.6348 33.9875 19.8647 33.9587C19.3454 35.0599 19.5683 35.9506 20.5327 36.631C20.711 36.8092 20.711 36.9872 20.5327 37.1654C17.1568 35.3662 13.7274 33.6735 10.2444 32.0881C10.0077 31.8676 9.91866 31.6004 9.97718 31.2864C9.70996 31.2864 9.44273 31.2864 9.1755 31.2864Z" fill="#EB7553"/>
<path fill-rule="evenodd" clip-rule="evenodd" d="M9.1755 31.2864C9.44273 31.2864 9.70996 31.2864 9.97718 31.2864C9.91866 31.6004 10.0077 31.8676 10.2444 32.0881C13.7274 33.6735 17.1568 35.3662 20.5327 37.1654C20.711 36.9872 20.711 36.8092 20.5327 36.631C19.5683 35.9506 19.3454 35.0599 19.8647 33.9587C20.6348 33.9875 21.2583 34.2991 21.7353 34.894C21.557 35.0722 21.3791 35.2502 21.2008 35.4284C21.9381 36.1163 21.8491 36.6951 20.9336 37.1654C21.905 37.6103 22.7959 38.1448 23.6059 38.7688C18.6146 36.4514 13.6266 34.1345 8.64124 31.82C8.64124 31.4638 8.8192 31.2864 9.1755 31.2864Z" fill="#EB7553"/>
<path fill-rule="evenodd" clip-rule="evenodd" d="M8.64111 31.8203C13.6265 34.1348 18.6146 36.4509 23.6059 38.7683C26.0674 40.2215 28.6507 41.4684 31.3556 42.5095C31.5338 42.5095 31.7118 42.5095 31.8901 42.5095C31.9814 42.7334 32.1594 42.8227 32.4245 42.7767C32.4245 43.3112 32.4245 43.8456 32.4245 44.3801C24.9985 40.8898 17.6053 37.3268 10.2445 33.6909C9.15443 33.5103 8.61997 32.8868 8.64111 31.8203Z" fill="#E6925B"/>
<path fill-rule="evenodd" clip-rule="evenodd" d="M23.6059 38.7683C26.3026 39.8051 28.8859 41.052 31.3556 42.5095C28.6507 41.4684 26.0674 40.2215 23.6059 38.7683Z" fill="#E6925B"/>
<path fill-rule="evenodd" clip-rule="evenodd" d="M51.6652 31.8208C51.9463 31.781 52.2136 31.8253 52.4669 31.9544C49.8745 32.7467 47.2022 33.1476 44.45 33.1569C44.4797 32.992 44.5687 32.8584 44.7173 32.7561C47.0237 32.3568 49.3398 32.045 51.6652 31.8208Z" fill="#FFC4A0"/>
<path fill-rule="evenodd" clip-rule="evenodd" d="M53.0013 32.6226C49.1572 34.7227 45.238 36.6823 41.2432 38.5016C41.0273 37.3229 41.4281 36.343 42.4458 35.5621C42.5481 35.7107 42.6817 35.7997 42.8466 35.8293C43.1277 35.7895 43.395 35.8339 43.6483 35.963C42.609 36.5322 42.6983 36.7994 43.9155 36.7646C44.7383 36.1428 44.8273 35.4747 44.1827 34.7604C44.4799 34.556 44.6581 34.2888 44.7172 33.9587C46.1453 33.8743 47.5707 33.7407 48.9929 33.5579C50.3523 33.2436 51.6884 32.932 53.0013 32.6226Z" fill="#FFC4A0"/>
<path fill-rule="evenodd" clip-rule="evenodd" d="M44.7172 33.9587C44.6581 34.2888 44.4799 34.556 44.1827 34.7604C44.8273 35.4747 44.7383 36.1428 43.9155 36.7646C42.6983 36.7994 42.609 36.5322 43.6483 35.963C43.395 35.8339 43.1277 35.7895 42.8466 35.8293C42.9436 34.6415 43.5673 34.0178 44.7172 33.9587Z" fill="#FFC4A0"/>
<path fill-rule="evenodd" clip-rule="evenodd" d="M53.0017 32.6213C51.6888 32.9308 50.3527 33.2424 48.9933 33.5566C47.5711 33.7394 46.1457 33.873 44.7176 33.9575C43.5677 34.0165 42.944 34.6402 42.847 35.8281C42.6821 35.7984 42.5485 35.7094 42.4462 35.5608C41.4285 36.3417 41.0277 37.3216 41.2436 38.5004C41.0654 38.5004 40.9764 38.5894 40.9764 38.7676C39.9636 39.1404 38.9837 39.5859 38.0369 40.1037C37.8958 39.7438 37.8512 39.3873 37.9033 39.0348C38.9185 38.2874 39.8538 37.4411 40.7092 36.4961C40.6482 36.3895 40.559 36.3452 40.4419 36.3625C41.7188 35.2324 43.0549 34.1635 44.4504 33.1558C47.2026 33.1464 49.8749 32.7456 52.4673 31.9532C52.2139 31.8242 51.9467 31.7798 51.6656 31.8196C52.289 31.6414 52.9127 31.4634 53.5362 31.2852C53.9683 31.1414 54.4138 31.0524 54.8723 31.0179C54.6676 31.976 54.0442 32.5104 53.0017 32.6213Z" fill="#FFC4A0"/>
<path fill-rule="evenodd" clip-rule="evenodd" d="M40.4419 36.3625C40.559 36.3452 40.6482 36.3895 40.7092 36.4961C39.8538 37.4411 38.9185 38.2874 37.9033 39.0348C37.8512 39.3873 37.8958 39.7438 38.0369 40.1037C36.1999 41.0668 34.3292 41.9577 32.4249 42.7762C32.1598 42.8222 31.9818 42.7329 31.8904 42.509C32.504 42.4277 32.593 42.1605 32.1577 41.7073C32.2467 41.7073 32.3359 41.7073 32.4249 41.7073C33.52 41.2936 34.5889 40.8038 35.6317 40.2375C37.1944 38.8795 38.7979 37.5878 40.4419 36.3625Z" fill="#FFC4A0"/>
<path fill-rule="evenodd" clip-rule="evenodd" d="M54.9195 31.5715C54.6445 32.1105 55.179 31.7087 54.9195 32.2386C52.3875 33.6386 35.0592 43.1076 32.4248 44.3799C32.4248 43.8454 32.4248 43.311 32.4248 42.7765C34.3291 41.958 36.1997 41.0673 38.0366 40.1043C38.9834 39.5864 53.9067 31.9443 54.9195 31.5715Z" fill="#FFC4A0"/>
<path d="M59.2672 62.0759C59.1443 61.649 59.232 61.2672 59.5304 60.9305L58.7727 60.8167C53.6327 63.9708 48.4499 67.0208 43.2245 69.9659C43.4656 70.7137 43.8948 71.2948 44.5122 71.7089C49.1474 68.1511 54.0657 64.9403 59.2672 62.0759Z" fill="#462A2B"/>
<path fill-rule="evenodd" clip-rule="evenodd" d="M59.268 62.0777C59.3912 62.0658 59.5148 62.0539 59.638 62.0421C59.701 62.2664 59.842 62.4395 60.0613 62.5614C56.7028 64.5993 53.4217 66.7193 50.2187 68.9218C48.5634 69.8277 46.9084 70.7336 45.253 71.6395C45.0062 71.6632 44.7598 71.6869 44.5131 71.7107C49.1483 68.1529 54.0666 64.942 59.268 62.0777Z" fill="#632728"/>
<path fill-rule="evenodd" clip-rule="evenodd" d="M43.2254 69.9673C42.8645 70.0663 42.6598 69.369 42.5034 69.0712C47.2839 66.0774 52.0429 63.6604 56.8883 60.6261C57.5316 60.3701 58.1601 60.4339 58.7736 60.8181C53.6336 63.9723 48.4508 67.0223 43.2254 69.9673Z" fill="#632728"/>
<path fill-rule="evenodd" clip-rule="evenodd" d="M59.6378 62.0419C60.3248 62.3686 60.6309 62.9615 60.5555 63.8204C57.1697 65.7246 53.883 67.7828 50.6952 69.9958C50.7369 69.5098 50.5782 69.1517 50.2185 68.9215C53.4215 66.7191 56.7026 64.599 60.0611 62.5612C59.8418 62.4393 59.7008 62.2662 59.6378 62.0419Z" fill="#462A2B"/>
<path fill-rule="evenodd" clip-rule="evenodd" d="M61.7007 64.0829C62.0842 64.4448 62.2552 64.926 62.2129 65.5271C60.0133 66.9311 57.7772 68.2663 55.5042 69.5325C55.4686 69.1626 55.433 68.7926 55.3975 68.4227C57.4985 66.9762 59.5996 65.5294 61.7007 64.0829Z" fill="#462A2B"/>
<path fill-rule="evenodd" clip-rule="evenodd" d="M60.5552 63.8186C60.9675 63.8003 61.3493 63.8879 61.7006 64.0819C59.5995 65.5283 57.4985 66.9752 55.3974 68.4217C52.5029 69.9221 49.6738 71.5633 46.9101 73.3449C46.4978 73.3633 46.116 73.2756 45.7647 73.0817C47.3959 72.0601 49.0394 71.0306 50.6949 69.994C53.8827 67.781 57.1693 65.7228 60.5552 63.8186Z" fill="#632728"/>
<path fill-rule="evenodd" clip-rule="evenodd" d="M63.3586 65.7911C63.7421 66.1529 63.9131 66.6342 63.8709 67.2353C62.2832 68.0335 60.7513 68.9275 59.275 69.9174C58.9507 69.6122 58.5571 69.401 58.0941 69.2843C59.7923 68.0247 61.5472 66.8602 63.3586 65.7911Z" fill="#462A2B"/>
<path fill-rule="evenodd" clip-rule="evenodd" d="M50.219 68.9196C50.5787 69.1498 50.7375 69.5079 50.6957 69.9939C49.0402 71.0305 47.3967 72.06 45.7655 73.0816C45.382 72.7197 45.211 72.2384 45.2533 71.6374C46.9087 70.7315 48.5637 69.8256 50.219 68.9196Z" fill="#462A2B"/>
<path d="M42.5031 69.0711C42.38 69.0829 42.2027 69.0594 42.0796 69.0713L42.4638 75.639C44.8812 76.2944 47.2572 77.0617 49.5923 77.9404L50.3322 77.8692L50.2255 76.7594C49.8132 76.7778 49.4314 76.6902 49.0801 76.4962C48.6966 76.1343 48.5256 75.6531 48.5678 75.052C48.1555 75.0704 47.7738 74.9827 47.4224 74.7888C47.0389 74.4269 46.8679 73.9457 46.9102 73.3446C46.4979 73.3629 46.1161 73.2753 45.7648 73.0814C45.3813 72.7195 45.2103 72.2382 45.2525 71.6372L44.5126 71.7083C43.8952 71.2943 43.466 70.7132 43.2249 69.9653C42.8641 70.0643 42.6595 69.3689 42.5031 69.0711Z" fill="#241518"/>
<path fill-rule="evenodd" clip-rule="evenodd" d="M62.2132 65.5269C62.6255 65.5085 63.0072 65.5961 63.3586 65.7901C61.5471 66.8593 59.7923 68.0238 58.094 69.2833C54.8625 71.1111 51.6872 73.0346 48.5681 75.0531C48.1558 75.0715 47.774 74.9839 47.4226 74.7899C50.0372 72.9558 52.7308 71.2033 55.5044 69.5323C57.7774 68.2661 60.0135 66.931 62.2132 65.5269Z" fill="#632728"/>
<path fill-rule="evenodd" clip-rule="evenodd" d="M58.0937 69.2833C58.5567 69.4001 58.9504 69.6113 59.2747 69.9165C55.7863 72.0355 52.3879 74.2291 49.08 76.4973C48.6965 76.1355 48.5255 75.6542 48.5678 75.0532C51.6869 73.0346 54.8622 71.1111 58.0937 69.2833Z" fill="#462A2B"/>
<path fill-rule="evenodd" clip-rule="evenodd" d="M55.397 68.4218C55.4326 68.7917 55.4681 69.1617 55.5037 69.5316C52.7301 71.2026 50.0365 72.9551 47.4219 74.7892C47.0384 74.4273 46.8674 73.9461 46.9097 73.345C49.6734 71.5634 52.5025 69.9222 55.397 68.4218Z" fill="#462A2B"/>
<path fill-rule="evenodd" clip-rule="evenodd" d="M63.8707 67.2343C64.433 67.153 64.8267 67.3642 65.0517 67.8675C59.9919 70.6443 55.0499 73.6088 50.2256 76.7606C49.8133 76.779 49.4315 76.6913 49.0802 76.4974C52.3881 74.2292 55.7865 72.0355 59.2749 69.9165C60.7512 68.9266 62.283 68.0326 63.8707 67.2343Z" fill="#632728"/>
<path fill-rule="evenodd" clip-rule="evenodd" d="M65.0522 67.8676C65.0877 68.2375 65.1233 68.6075 65.1589 68.9774C62.2059 70.5652 59.3887 72.3296 56.7072 74.2706C54.5824 75.4707 52.4576 76.6704 50.3328 77.8705C50.2972 77.5006 50.2616 77.1306 50.2261 76.7607C55.0504 73.6089 59.9924 70.6444 65.0522 67.8676Z" fill="#462A2B"/>
<path opacity="0.3" d="M17.1946 14.8031L18.3168 21.9443C18.3974 22.457 18.8667 22.8166 19.3846 22.7625L24.6773 22.2093L19.4228 23.0715C18.9103 23.1556 18.5526 23.6242 18.6082 24.1389L19.2685 30.2593L18.2922 24.1821C18.21 23.6706 17.741 23.3128 17.2241 23.3673L11.7343 23.946L17.1793 23.0576C17.6936 22.9737 18.052 22.5029 17.9945 21.9868L17.1946 14.8031Z" fill="url(#paint49_radial_74_2482)"/>
<path d="M22.5973 16.027L19.0315 22.3152C18.7755 22.7666 18.9191 23.3402 19.3581 23.6201L23.8453 26.481L19.1958 23.8857C18.7423 23.6326 18.1707 23.7768 17.8938 24.2142L14.6017 29.416L17.6196 24.0514C17.8736 23.6 17.7291 23.0279 17.2906 22.7489L12.6334 19.7854L17.4483 22.4787C17.9031 22.733 18.4766 22.5875 18.7528 22.1478L22.5973 16.027Z" fill="url(#paint50_radial_74_2482)"/>
</g>
<defs>
<linearGradient id="paint0_linear_74_2482" x1="60.783" y1="60.0282" x2="25.5226" y2="81.7556" gradientUnits="userSpaceOnUse">
<stop stop-color="#2C1518"/>
<stop offset="1" stop-color="#563034"/>
</linearGradient>
<radialGradient id="paint1_radial_74_2482" cx="0" cy="0" r="1" gradientUnits="userSpaceOnUse" gradientTransform="translate(67.5028 75.8968) rotate(145.239) scale(42.7076 63.4637)">
<stop offset="0.596439" stop-color="#FE8E6E" stop-opacity="0"/>
<stop offset="0.819481" stop-color="#FE8E6E"/>
</radialGradient>
<linearGradient id="paint2_linear_74_2482" x1="32.5028" y1="35.0713" x2="32.5028" y2="71.3889" gradientUnits="userSpaceOnUse">
<stop stop-color="#3A262B"/>
<stop offset="1" stop-color="#602D30"/>
</linearGradient>
<radialGradient id="paint3_radial_74_2482" cx="0" cy="0" r="1" gradientUnits="userSpaceOnUse" gradientTransform="translate(32.5028 53.2301) rotate(90) scale(18.1588 31.5)">
<stop offset="0.295155" stop-color="#A32F2B"/>
<stop offset="0.667188" stop-color="#A32F2B" stop-opacity="0"/>
</radialGradient>
<linearGradient id="paint4_linear_74_2482" x1="32.5028" y1="35.0713" x2="32.5028" y2="71.3889" gradientUnits="userSpaceOnUse">
<stop stop-color="#3A262B"/>
<stop offset="1" stop-color="#602D30"/>
</linearGradient>
<radialGradient id="paint5_radial_74_2482" cx="0" cy="0" r="1" gradientUnits="userSpaceOnUse" gradientTransform="translate(32.5028 53.2301) rotate(90) scale(18.1588 31.5)">
<stop offset="0.295155" stop-color="#A32F2B"/>
<stop offset="0.667188" stop-color="#A32F2B" stop-opacity="0"/>
</radialGradient>
<linearGradient id="paint6_linear_74_2482" x1="18.5114" y1="51.3171" x2="13.9082" y2="54.5129" gradientUnits="userSpaceOnUse">
<stop stop-color="#F56941"/>
<stop offset="1" stop-color="#8F3926"/>
</linearGradient>
<radialGradient id="paint7_radial_74_2482" cx="0" cy="0" r="1" gradientUnits="userSpaceOnUse" gradientTransform="translate(19.4537 53.2921) rotate(148.367) scale(5.77848 8.18617)">
<stop offset="0.596439" stop-color="#FE8E6E" stop-opacity="0"/>
<stop offset="0.819481" stop-color="#FE8E6E"/>
</radialGradient>
<linearGradient id="paint8_linear_74_2482" x1="45.5629" y1="56.4548" x2="40.9597" y2="59.6506" gradientUnits="userSpaceOnUse">
<stop stop-color="#F56941"/>
<stop offset="1" stop-color="#8F3926"/>
</linearGradient>
<radialGradient id="paint9_radial_74_2482" cx="0" cy="0" r="1" gradientUnits="userSpaceOnUse" gradientTransform="translate(46.5052 58.4298) rotate(148.367) scale(5.77848 8.18617)">
<stop offset="0.596439" stop-color="#FE8E6E" stop-opacity="0"/>
<stop offset="0.819481" stop-color="#FE8E6E"/>
</radialGradient>
<linearGradient id="paint10_linear_74_2482" x1="54.4751" y1="51.3171" x2="49.8719" y2="54.5129" gradientUnits="userSpaceOnUse">
<stop stop-color="#F56941"/>
<stop offset="1" stop-color="#8F3926"/>
</linearGradient>
<radialGradient id="paint11_radial_74_2482" cx="0" cy="0" r="1" gradientUnits="userSpaceOnUse" gradientTransform="translate(55.4174 53.2921) rotate(148.367) scale(5.77848 8.18617)">
<stop offset="0.596439" stop-color="#FE8E6E" stop-opacity="0"/>
<stop offset="0.819481" stop-color="#FE8E6E"/>
</radialGradient>
<linearGradient id="paint12_linear_74_2482" x1="27.5797" y1="56.4563" x2="22.9766" y2="59.652" gradientUnits="userSpaceOnUse">
<stop stop-color="#F56941"/>
<stop offset="1" stop-color="#8F3926"/>
</linearGradient>
<radialGradient id="paint13_radial_74_2482" cx="0" cy="0" r="1" gradientUnits="userSpaceOnUse" gradientTransform="translate(28.522 58.4313) rotate(148.367) scale(5.77848 8.18617)">
<stop offset="0.596439" stop-color="#FE8E6E" stop-opacity="0"/>
<stop offset="0.819481" stop-color="#FE8E6E"/>
</radialGradient>
<linearGradient id="paint14_linear_74_2482" x1="23.6141" y1="53.3501" x2="23.6141" y2="58.4428" gradientUnits="userSpaceOnUse">
<stop stop-color="#FD8F70"/>
<stop offset="1" stop-color="#F4663E"/>
</linearGradient>
<linearGradient id="paint15_linear_74_2482" x1="25.49" y1="38.0799" x2="17.6587" y2="40.1815" gradientUnits="userSpaceOnUse">
<stop stop-color="#FF4E48"/>
<stop offset="1" stop-color="#FFBA6B"/>
</linearGradient>
<linearGradient id="paint16_linear_74_2482" x1="27.5797" y1="37.0114" x2="22.9766" y2="40.2072" gradientUnits="userSpaceOnUse">
<stop stop-color="#F56941"/>
<stop offset="1" stop-color="#8F3926"/>
</linearGradient>
<radialGradient id="paint17_radial_74_2482" cx="0" cy="0" r="1" gradientUnits="userSpaceOnUse" gradientTransform="translate(28.522 38.9864) rotate(148.367) scale(5.77848 8.18617)">
<stop offset="0.596439" stop-color="#FE8E6E" stop-opacity="0"/>
<stop offset="0.819481" stop-color="#FE8E6E"/>
</radialGradient>
<linearGradient id="paint18_linear_74_2482" x1="23.6141" y1="33.9053" x2="23.6141" y2="38.998" gradientUnits="userSpaceOnUse">
<stop stop-color="#FD8F70"/>
<stop offset="1" stop-color="#F4663E"/>
</linearGradient>
<linearGradient id="paint19_linear_74_2482" x1="45.6353" y1="56.4563" x2="41.0321" y2="59.652" gradientUnits="userSpaceOnUse">
<stop stop-color="#F56941"/>
<stop offset="1" stop-color="#8F3926"/>
</linearGradient>
<radialGradient id="paint20_radial_74_2482" cx="0" cy="0" r="1" gradientUnits="userSpaceOnUse" gradientTransform="translate(46.5776 58.4313) rotate(148.367) scale(5.77848 8.18617)">
<stop offset="0.596439" stop-color="#FE8E6E" stop-opacity="0"/>
<stop offset="0.819481" stop-color="#FE8E6E"/>
</radialGradient>
<linearGradient id="paint21_linear_74_2482" x1="41.6696" y1="53.3501" x2="41.6696" y2="58.4428" gradientUnits="userSpaceOnUse">
<stop stop-color="#FD8F70"/>
<stop offset="1" stop-color="#F4663E"/>
</linearGradient>
<linearGradient id="paint22_linear_74_2482" x1="43.5456" y1="38.0799" x2="35.7143" y2="40.1815" gradientUnits="userSpaceOnUse">
<stop stop-color="#FFBA6B"/>
<stop offset="1" stop-color="#FF4E48"/>
</linearGradient>
<linearGradient id="paint23_linear_74_2482" x1="45.6353" y1="37.0114" x2="41.0321" y2="40.2072" gradientUnits="userSpaceOnUse">
<stop stop-color="#F56941"/>
<stop offset="1" stop-color="#8F3926"/>
</linearGradient>
<radialGradient id="paint24_radial_74_2482" cx="0" cy="0" r="1" gradientUnits="userSpaceOnUse" gradientTransform="translate(46.5776 38.9864) rotate(148.367) scale(5.77848 8.18617)">
<stop offset="0.596439" stop-color="#FE8E6E" stop-opacity="0"/>
<stop offset="0.819481" stop-color="#FE8E6E"/>
</radialGradient>
<linearGradient id="paint25_linear_74_2482" x1="41.6696" y1="33.9053" x2="41.6696" y2="38.998" gradientUnits="userSpaceOnUse">
<stop stop-color="#FD8F70"/>
<stop offset="1" stop-color="#F4663E"/>
</linearGradient>
<linearGradient id="paint26_linear_74_2482" x1="14.5457" y1="48.2109" x2="14.5457" y2="53.3037" gradientUnits="userSpaceOnUse">
<stop stop-color="#FD8F70"/>
<stop offset="1" stop-color="#F4663E"/>
</linearGradient>
<linearGradient id="paint27_linear_74_2482" x1="50.5095" y1="48.2109" x2="50.5095" y2="53.3037" gradientUnits="userSpaceOnUse">
<stop stop-color="#FD8F70"/>
<stop offset="1" stop-color="#F4663E"/>
</linearGradient>
<linearGradient id="paint28_linear_74_2482" x1="36.6499" y1="61.5925" x2="32.0468" y2="64.7883" gradientUnits="userSpaceOnUse">
<stop stop-color="#F56941"/>
<stop offset="1" stop-color="#8F3926"/>
</linearGradient>
<radialGradient id="paint29_radial_74_2482" cx="0" cy="0" r="1" gradientUnits="userSpaceOnUse" gradientTransform="translate(37.5922 63.5675) rotate(148.367) scale(5.77848 8.18617)">
<stop offset="0.596439" stop-color="#FE8E6E" stop-opacity="0"/>
<stop offset="0.819481" stop-color="#FE8E6E"/>
</radialGradient>
<linearGradient id="paint30_linear_74_2482" x1="32.6843" y1="58.4863" x2="32.6843" y2="63.579" gradientUnits="userSpaceOnUse">
<stop stop-color="#FD8F70"/>
<stop offset="1" stop-color="#F4663E"/>
</linearGradient>
<linearGradient id="paint31_linear_74_2482" x1="34.5603" y1="43.2164" x2="26.729" y2="45.3179" gradientUnits="userSpaceOnUse">
<stop stop-color="#FFBA6B"/>
<stop offset="1" stop-color="#FF4E48"/>
</linearGradient>
<linearGradient id="paint32_linear_74_2482" x1="36.6499" y1="42.1481" x2="32.0468" y2="45.3439" gradientUnits="userSpaceOnUse">
<stop stop-color="#F56941"/>
<stop offset="1" stop-color="#8F3926"/>
</linearGradient>
<radialGradient id="paint33_radial_74_2482" cx="0" cy="0" r="1" gradientUnits="userSpaceOnUse" gradientTransform="translate(37.5922 44.1232) rotate(148.367) scale(5.77848 8.18617)">
<stop offset="0.596439" stop-color="#FE8E6E" stop-opacity="0"/>
<stop offset="0.819481" stop-color="#FE8E6E"/>
</radialGradient>
<linearGradient id="paint34_linear_74_2482" x1="32.6843" y1="39.042" x2="32.6843" y2="44.1347" gradientUnits="userSpaceOnUse">
<stop stop-color="#FD8F70"/>
<stop offset="1" stop-color="#F4663E"/>
</linearGradient>
<linearGradient id="paint35_linear_74_2482" x1="18.5103" y1="51.3171" x2="13.9071" y2="54.5129" gradientUnits="userSpaceOnUse">
<stop stop-color="#F56941"/>
<stop offset="1" stop-color="#8F3926"/>
</linearGradient>
<radialGradient id="paint36_radial_74_2482" cx="0" cy="0" r="1" gradientUnits="userSpaceOnUse" gradientTransform="translate(19.4526 53.2921) rotate(148.367) scale(5.77848 8.18617)">
<stop offset="0.596439" stop-color="#FE8E6E" stop-opacity="0"/>
<stop offset="0.819481" stop-color="#FE8E6E"/>
</radialGradient>
<linearGradient id="paint37_linear_74_2482" x1="14.5446" y1="48.2109" x2="14.5446" y2="53.3037" gradientUnits="userSpaceOnUse">
<stop stop-color="#FD8F70"/>
<stop offset="1" stop-color="#F4663E"/>
</linearGradient>
<linearGradient id="paint38_linear_74_2482" x1="16.4205" y1="32.9408" x2="8.58925" y2="35.0423" gradientUnits="userSpaceOnUse">
<stop stop-color="#FF4E48"/>
<stop offset="1" stop-color="#FFBA6B"/>
</linearGradient>
<linearGradient id="paint39_linear_74_2482" x1="18.5103" y1="31.8723" x2="13.9071" y2="35.0681" gradientUnits="userSpaceOnUse">
<stop stop-color="#F56941"/>
<stop offset="1" stop-color="#8F3926"/>
</linearGradient>
<radialGradient id="paint40_radial_74_2482" cx="0" cy="0" r="1" gradientUnits="userSpaceOnUse" gradientTransform="translate(19.4526 33.8473) rotate(148.367) scale(5.77848 8.18617)">
<stop offset="0.596439" stop-color="#FE8E6E" stop-opacity="0"/>
<stop offset="0.819481" stop-color="#FE8E6E"/>
</radialGradient>
<linearGradient id="paint41_linear_74_2482" x1="14.5446" y1="28.7661" x2="14.5446" y2="33.8588" gradientUnits="userSpaceOnUse">
<stop stop-color="#FD8F70"/>
<stop offset="1" stop-color="#F4663E"/>
</linearGradient>
<linearGradient id="paint42_linear_74_2482" x1="54.4683" y1="51.3171" x2="49.8651" y2="54.5129" gradientUnits="userSpaceOnUse">
<stop stop-color="#F56941"/>
<stop offset="1" stop-color="#8F3926"/>
</linearGradient>
<radialGradient id="paint43_radial_74_2482" cx="0" cy="0" r="1" gradientUnits="userSpaceOnUse" gradientTransform="translate(55.4106 53.2921) rotate(148.367) scale(5.77848 8.18617)">
<stop offset="0.596439" stop-color="#FE8E6E" stop-opacity="0"/>
<stop offset="0.819481" stop-color="#FE8E6E"/>
</radialGradient>
<linearGradient id="paint44_linear_74_2482" x1="50.5027" y1="48.2109" x2="50.5027" y2="53.3037" gradientUnits="userSpaceOnUse">
<stop stop-color="#FD8F70"/>
<stop offset="1" stop-color="#F4663E"/>
</linearGradient>
<linearGradient id="paint45_linear_74_2482" x1="52.3785" y1="32.9408" x2="44.5472" y2="35.0423" gradientUnits="userSpaceOnUse">
<stop stop-color="#FFBA6B"/>
<stop offset="1" stop-color="#FF4E48"/>
</linearGradient>
<linearGradient id="paint46_linear_74_2482" x1="54.4683" y1="31.8723" x2="49.8651" y2="35.0681" gradientUnits="userSpaceOnUse">
<stop stop-color="#F56941"/>
<stop offset="1" stop-color="#8F3926"/>
</linearGradient>
<radialGradient id="paint47_radial_74_2482" cx="0" cy="0" r="1" gradientUnits="userSpaceOnUse" gradientTransform="translate(55.4106 33.8473) rotate(148.367) scale(5.77848 8.18617)">
<stop offset="0.596439" stop-color="#FE8E6E" stop-opacity="0"/>
<stop offset="0.819481" stop-color="#FE8E6E"/>
</radialGradient>
<linearGradient id="paint48_linear_74_2482" x1="50.5027" y1="28.7661" x2="50.5027" y2="33.8588" gradientUnits="userSpaceOnUse">
<stop stop-color="#FD8F70"/>
<stop offset="1" stop-color="#F4663E"/>
</linearGradient>
<radialGradient id="paint49_radial_74_2482" cx="0" cy="0" r="1" gradientUnits="userSpaceOnUse" gradientTransform="translate(18.2898 23.227) rotate(82.8691) scale(7.1003 5.94578)">
<stop stop-color="white"/>
<stop offset="1" stop-color="white" stop-opacity="0"/>
</radialGradient>
<radialGradient id="paint50_radial_74_2482" cx="0" cy="0" r="1" gradientUnits="userSpaceOnUse" gradientTransform="translate(18.2121 23.3023) rotate(121.356) scale(7.1003 5.94578)">
<stop stop-color="white"/>
<stop offset="1" stop-color="white" stop-opacity="0"/>
</radialGradient>
<clipPath id="clip0_74_2482">
<rect width="64" height="81" rx="12" fill="white"/>
</clipPath>
</defs>
</svg>
