<svg width="284" height="171" viewBox="0 0 284 171" fill="none" xmlns="http://www.w3.org/2000/svg">
<g clip-path="url(#clip0_61_15798)">
<g opacity="0.3" filter="url(#filter0_b_61_15798)">
<rect x="4.83398" y="-34" width="273" height="60" rx="11.7287" fill="#292A30"/>
<rect x="5.20051" y="-33.6335" width="272.267" height="59.267" rx="11.3622" stroke="white" stroke-opacity="0.06" stroke-width="0.733046"/>
<rect x="16.834" y="-22" width="36" height="36" rx="18" fill="#47474D"/>
<g clip-path="url(#clip1_61_15798)">
<path d="M26.3548 -13.8574L33.7948 -8.25742L32.4634 -11.5717L26.3548 -13.8574ZM40.9663 -0.983131L38.9663 2.0683L43.2463 3.24544L44.4691 -0.91456L40.9663 -0.983131ZM25.5605 -0.91456L26.7777 3.24544L31.0463 2.0683L29.0577 -0.983131L25.5605 -0.91456Z" fill="#E27625" stroke="#E27625" stroke-width="0.142857" stroke-linecap="round" stroke-linejoin="round"/>
<path d="M30.8175 -6.13691L29.6289 -4.34262L33.8575 -4.14834L33.7203 -8.70262L30.8175 -6.13119V-6.13691ZM39.206 -6.13119L36.2575 -8.75977L36.1603 -4.14834L40.3889 -4.34262L39.206 -6.13119ZM31.046 2.06881L33.6118 0.834522L31.406 -0.879764L31.046 2.06881ZM36.4175 0.828809L38.966 2.06881L38.6232 -0.885478L36.4175 0.828809Z" fill="#E27625" stroke="#E27625" stroke-width="0.142857" stroke-linecap="round" stroke-linejoin="round"/>
<path d="M38.9669 2.06827L36.4183 0.833984L36.624 2.49113L36.6012 3.19398L38.9669 2.06827ZM31.0469 2.06827L33.424 3.19398L33.4069 2.49113L33.6126 0.833984L31.0469 2.06827Z" fill="#D5BFB2" stroke="#D5BFB2" stroke-width="0.142857" stroke-linecap="round" stroke-linejoin="round"/>
<path d="M31.0472 2.06817L31.4186 -0.983262L29.0586 -0.914692L31.0472 2.06817ZM38.6072 -0.983262L38.9672 2.06817L40.9672 -0.914692L38.6072 -0.983262ZM40.3957 -4.34326L36.1672 -4.14898L36.5557 -1.97755L37.1843 -3.29183L38.6872 -2.60612L40.3957 -4.34326ZM31.35 -2.6004L32.8472 -3.28612L33.47 -1.98326L33.8643 -4.15469L29.6357 -4.34326L31.35 -2.6004Z" fill="#CC6228" stroke="#CC6228" stroke-width="0.142857" stroke-linecap="round" stroke-linejoin="round"/>
<path d="M29.6328 -4.34326L31.4042 -0.886119L31.3471 -2.6004L29.6328 -4.34326ZM38.6842 -2.6004L38.6157 -0.886119L40.3871 -4.34326L38.6842 -2.6004ZM33.8614 -4.14898L33.4614 -1.97755L33.9642 0.582452L34.0785 -2.79469L33.8614 -4.14898ZM36.1585 -4.14898L35.9528 -2.8004L36.0557 0.582452L36.5528 -1.98326L36.1585 -4.15469V-4.14898Z" fill="#E27525" stroke="#E27525" stroke-width="0.142857" stroke-linecap="round" stroke-linejoin="round"/>
<path d="M36.5552 -1.98296L36.058 0.582758L36.418 0.834186L38.618 -0.880099L38.6866 -2.6001L36.5552 -1.98296ZM31.3495 -2.6001L31.4066 -0.885812L33.6123 0.828473L33.9666 0.582758L33.4695 -1.98296L31.3438 -2.6001H31.3495Z" fill="#F5841F" stroke="#F5841F" stroke-width="0.142857" stroke-linecap="round" stroke-linejoin="round"/>
<path d="M36.6069 3.19456L36.624 2.4917L36.4297 2.3317H33.5954L33.4069 2.4917L33.424 3.19456L31.0469 2.06885L31.8812 2.75456L33.5669 3.91456H36.4526L38.144 2.74885L38.9669 2.06885L36.6012 3.19456H36.6069Z" fill="#C0AC9D" stroke="#C0AC9D" stroke-width="0.142857" stroke-linecap="round" stroke-linejoin="round"/>
<path d="M36.4177 0.828234L36.0577 0.58252H33.9662L33.612 0.833947L33.4062 2.49109L33.5948 2.33109H36.4291L36.6234 2.49109L36.4177 0.833947V0.828234Z" fill="#161616" stroke="#161616" stroke-width="0.142857" stroke-linecap="round" stroke-linejoin="round"/>
<path d="M43.1491 -4.98882L39.2063 -6.13168L40.3948 -4.34311L38.6234 -0.885962L40.9663 -0.914534H44.4691L43.1491 -4.98882ZM30.8177 -6.13739L26.8748 -4.98882L25.5605 -0.914534H29.0634L31.4063 -0.885962L29.6348 -4.34311L30.8234 -6.13739H30.8177ZM36.1605 -4.14882L36.4177 -8.49168L37.5605 -11.5774H32.4634L33.6063 -8.49168L33.8634 -4.14882L33.9605 -2.78882V0.58261H36.0577L36.0691 -2.78882L36.1605 -4.14882Z" fill="#F5841F" stroke="#F5841F" stroke-width="0.142857" stroke-linecap="round" stroke-linejoin="round"/>
</g>
<path opacity="0.5" d="M68.2653 8.12694C65.8881 8.12694 64.3071 6.41902 64.3071 3.83406C64.3071 1.26064 65.9343 -0.4819 68.323 -0.4819C70.2041 -0.4819 71.6466 0.63748 71.9581 2.3454H70.7464C70.4349 1.26064 69.5001 0.60286 68.2884 0.60286C66.6036 0.60286 65.4957 1.87226 65.4957 3.82252C65.4957 5.77278 66.6036 7.04218 68.2884 7.04218C69.5117 7.04218 70.481 6.3844 70.7926 5.35734H71.9928C71.635 7.0191 70.1464 8.12694 68.2653 8.12694ZM72.8255 5.1727C72.8255 3.43016 74.0719 2.20692 75.7682 2.20692C77.4531 2.20692 78.6994 3.43016 78.6994 5.1727C78.6994 6.91524 77.4531 8.13848 75.7682 8.13848C74.0719 8.13848 72.8255 6.91524 72.8255 5.1727ZM73.9218 5.1727C73.9218 6.34978 74.6719 7.16912 75.7682 7.16912C76.853 7.16912 77.6146 6.34978 77.6146 5.1727C77.6146 3.99562 76.853 3.17628 75.7682 3.17628C74.6719 3.17628 73.9218 3.99562 73.9218 5.1727ZM80.9849 8H79.9002V2.35694H80.8695L80.9734 3.0955C81.2619 2.56466 81.862 2.19538 82.6582 2.19538C83.5353 2.19538 84.1584 2.6339 84.4469 3.33784C84.7124 2.6339 85.3932 2.19538 86.2703 2.19538C87.5627 2.19538 88.3475 3.00318 88.3475 4.3072V8H87.2858V4.57262C87.2858 3.68404 86.7896 3.17628 86.0279 3.17628C85.2086 3.17628 84.6662 3.75328 84.6662 4.6534V8H83.593V4.56108C83.593 3.6725 83.1083 3.18782 82.3467 3.18782C81.5273 3.18782 80.9849 3.75328 80.9849 4.6534V8ZM89.8512 10.5273V2.35694H90.8321L90.9129 3.37246C91.2937 2.59928 92.0553 2.19538 92.9554 2.19538C94.571 2.19538 95.575 3.40708 95.575 5.13808C95.575 6.85754 94.6287 8.15002 92.9554 8.15002C92.0553 8.15002 91.3052 7.7692 90.9359 7.0768V10.5273H89.8512ZM90.9475 5.18424C90.9475 6.33824 91.6168 7.16912 92.7246 7.16912C93.8325 7.16912 94.4903 6.33824 94.4903 5.18424C94.4903 4.0187 93.8325 3.18782 92.7246 3.18782C91.6168 3.18782 90.9475 4.00716 90.9475 5.18424ZM97.8785 8H96.7938V-0.493441H97.8785V8ZM101.91 8.13848C100.249 8.13848 99.1061 6.93832 99.1061 5.18424C99.1061 3.41862 100.225 2.19538 101.864 2.19538C103.468 2.19538 104.518 3.30322 104.518 4.97652V5.38042L100.156 5.39196C100.237 6.58058 100.86 7.23836 101.933 7.23836C102.776 7.23836 103.33 6.89216 103.514 6.24592H104.53C104.253 7.45762 103.307 8.13848 101.91 8.13848ZM101.864 3.10704C100.918 3.10704 100.318 3.6725 100.179 4.66494H103.434C103.434 3.7302 102.822 3.10704 101.864 3.10704ZM107.266 8H106.181V3.2686H105.074V2.35694H106.181V0.59132H107.266V2.35694H108.374V3.2686H107.266V8ZM111.726 8.13848C110.064 8.13848 108.922 6.93832 108.922 5.18424C108.922 3.41862 110.041 2.19538 111.68 2.19538C113.284 2.19538 114.334 3.30322 114.334 4.97652V5.38042L109.972 5.39196C110.053 6.58058 110.676 7.23836 111.749 7.23836C112.592 7.23836 113.145 6.89216 113.33 6.24592H114.346C114.069 7.45762 113.122 8.13848 111.726 8.13848ZM111.68 3.10704C110.734 3.10704 110.134 3.6725 109.995 4.66494H113.249C113.249 3.7302 112.638 3.10704 111.68 3.10704ZM117.808 8.13848C116.169 8.13848 115.176 6.91524 115.176 5.19578C115.176 3.46478 116.18 2.19538 117.854 2.19538C118.719 2.19538 119.446 2.5762 119.827 3.2686V-0.493441H120.9V8H119.931L119.839 6.97294C119.469 7.74612 118.708 8.13848 117.808 8.13848ZM118.027 7.15758C119.135 7.15758 119.816 6.33824 119.816 5.16116C119.816 4.00716 119.135 3.17628 118.027 3.17628C116.919 3.17628 116.273 4.00716 116.273 5.16116C116.273 6.3267 116.919 7.15758 118.027 7.15758Z" fill="white"/>
<path d="M198.216 -0.01154L192.365 0V-1.10784L195.123 -3.43892C196.265 -4.40828 196.646 -4.9622 196.646 -5.77C196.646 -6.72782 196.127 -7.2702 195.238 -7.2702C194.315 -7.2702 193.738 -6.62396 193.727 -5.5392H192.261C192.273 -7.3856 193.45 -8.58576 195.238 -8.58576C197.039 -8.58576 198.158 -7.5587 198.158 -5.85078C198.158 -4.6737 197.512 -3.78512 196.231 -2.68882L194.707 -1.3848H198.216V-0.01154ZM199.126 -4.20056C199.126 -6.82014 200.534 -8.5973 202.692 -8.5973C204.85 -8.5973 206.269 -6.82014 206.269 -4.20056C206.269 -1.59252 204.93 0.15002 202.692 0.15002C200.453 0.15002 199.126 -1.59252 199.126 -4.20056ZM200.58 -4.20056C200.58 -2.2503 201.364 -1.154 202.692 -1.154C204.03 -1.154 204.815 -2.2503 204.815 -4.20056C204.815 -6.19698 204.03 -7.29328 202.692 -7.29328C201.364 -7.29328 200.58 -6.19698 200.58 -4.20056ZM210.754 -3.08118V-8.43574H212.231V-3.1735C212.231 -1.9618 212.888 -1.29248 214.089 -1.29248C215.289 -1.29248 215.958 -1.97334 215.958 -3.1735V-8.43574H217.435V-3.08118C217.435 -1.10784 216.143 0.13848 214.089 0.13848C212.046 0.13848 210.754 -1.0963 210.754 -3.08118ZM218.767 -6.08158C218.767 -7.5587 219.991 -8.58576 221.768 -8.58576C223.476 -8.58576 224.561 -7.63948 224.607 -6.1162H223.13C223.095 -6.84322 222.576 -7.2702 221.745 -7.2702C220.833 -7.2702 220.245 -6.83168 220.245 -6.12774C220.245 -5.52766 220.568 -5.193 221.272 -5.03144L222.599 -4.74294C224.041 -4.43136 224.745 -3.6928 224.745 -2.43494C224.745 -0.8655 223.522 0.15002 221.664 0.15002C219.864 0.15002 218.687 -0.8078 218.652 -2.31954H220.129C220.141 -1.60406 220.718 -1.17708 221.664 -1.17708C222.645 -1.17708 223.268 -1.60406 223.268 -2.308C223.268 -2.87346 222.98 -3.20812 222.287 -3.35814L220.949 -3.65818C219.518 -3.96976 218.767 -4.7891 218.767 -6.08158ZM229.116 0H226.081V-8.43574H229.036C231.528 -8.43574 233.248 -6.71628 233.248 -4.20056C233.248 -1.71946 231.563 0 229.116 0ZM228.897 -7.07402H227.559V-1.36172H228.978C230.663 -1.36172 231.69 -2.44648 231.69 -4.20056C231.69 -5.98926 230.64 -7.07402 228.897 -7.07402ZM233.592 -7.07402V-8.43574H240.008V-7.07402H237.539V0H236.062V-7.07402H233.592Z" fill="white"/>
<g clip-path="url(#clip2_61_15798)">
<path d="M253.853 2.89937C257.701 2.89937 260.82 -0.194839 260.82 -4.01174C260.82 -7.82864 257.701 -10.9229 253.853 -10.9229C250.006 -10.9229 246.887 -7.82864 246.887 -4.01174C246.887 -0.194839 250.006 2.89937 253.853 2.89937Z" fill="#26A17B"/>
<path d="M254.595 -3.37441V-3.37553C254.547 -3.37219 254.299 -3.35775 253.745 -3.35775C253.303 -3.35775 252.993 -3.36997 252.883 -3.37553V-3.37441C251.182 -3.44886 249.913 -3.74219 249.913 -4.09441C249.913 -4.44553 251.183 -4.73997 252.883 -4.81441V-3.66664C252.994 -3.65886 253.313 -3.63997 253.753 -3.63997C254.282 -3.63997 254.546 -3.66219 254.595 -3.66664V-4.8133C256.293 -4.73775 257.559 -4.44441 257.559 -4.0933C257.559 -3.74219 256.292 -3.44886 254.595 -3.3733M254.595 -4.93219V-5.95886L256.964 -5.95886V-7.52441L250.515 -7.52441V-5.95886H252.884V-4.93219C250.959 -4.84441 249.512 -4.46664 249.512 -4.0133C249.512 -3.55997 250.96 -3.18219 252.884 -3.0933V0.197808H254.597V-3.0933C256.518 -3.18108 257.963 -3.55886 257.963 -4.01219C257.963 -4.46441 256.518 -4.8433 254.597 -4.93108" fill="white"/>
</g>
</g>
<g opacity="0.4" filter="url(#filter1_b_61_15798)">
<rect x="4.83398" y="34" width="273" height="60" rx="11.7287" fill="#292A30"/>
<rect x="5.20051" y="34.3665" width="272.267" height="59.267" rx="11.3622" stroke="white" stroke-opacity="0.06" stroke-width="0.733046"/>
<rect x="16.834" y="46" width="36" height="36" rx="18" fill="#47474D"/>
<g clip-path="url(#clip3_61_15798)">
<path d="M43.6687 54.1426L36.1602 59.6969L37.5602 56.4226L43.6687 54.1426Z" fill="#E17726" stroke="#E17726" stroke-width="0.142857" stroke-linecap="round" stroke-linejoin="round"/>
<path d="M26.3548 54.1426L33.7948 59.7426L32.4634 56.4283L26.3548 54.1426ZM40.9663 67.0169L38.9663 70.0683L43.2463 71.2454L44.4691 67.0854L40.9663 67.0169ZM25.5605 67.0854L26.7777 71.2454L31.0463 70.0683L29.0577 67.0169L25.5605 67.0854Z" fill="#E27625" stroke="#E27625" stroke-width="0.142857" stroke-linecap="round" stroke-linejoin="round"/>
<path d="M30.8175 61.8631L29.6289 63.6574L33.8575 63.8517L33.7203 59.2974L30.8175 61.8688V61.8631ZM39.206 61.8688L36.2575 59.2402L36.1603 63.8517L40.3889 63.6574L39.206 61.8688ZM31.046 70.0688L33.6118 68.8345L31.406 67.1202L31.046 70.0688ZM36.4175 68.8288L38.966 70.0688L38.6232 67.1145L36.4175 68.8288Z" fill="#E27625" stroke="#E27625" stroke-width="0.142857" stroke-linecap="round" stroke-linejoin="round"/>
<path d="M38.9669 70.0683L36.4183 68.834L36.624 70.4911L36.6012 71.194L38.9669 70.0683ZM31.0469 70.0683L33.424 71.194L33.4069 70.4911L33.6126 68.834L31.0469 70.0683Z" fill="#D5BFB2" stroke="#D5BFB2" stroke-width="0.142857" stroke-linecap="round" stroke-linejoin="round"/>
<path d="M33.4639 66.0171L31.3496 65.3999L32.8468 64.7142L33.4696 66.0171H33.4639ZM36.5553 66.0171L37.1839 64.7085L38.6867 65.3942L36.5553 66.0228V66.0171Z" fill="#233447" stroke="#233447" stroke-width="0.142857" stroke-linecap="round" stroke-linejoin="round"/>
<path d="M31.0472 70.0682L31.4186 67.0167L29.0586 67.0853L31.0472 70.0682ZM38.6072 67.0167L38.9672 70.0682L40.9672 67.0853L38.6072 67.0167ZM40.3957 63.6567L36.1672 63.851L36.5557 66.0225L37.1843 64.7082L38.6872 65.3939L40.3957 63.6567ZM31.35 65.3996L32.8472 64.7139L33.47 66.0167L33.8643 63.8453L29.6357 63.6567L31.35 65.3996Z" fill="#CC6228" stroke="#CC6228" stroke-width="0.142857" stroke-linecap="round" stroke-linejoin="round"/>
<path d="M29.6328 63.6567L31.4042 67.1139L31.3471 65.3996L29.6328 63.6567ZM38.6842 65.3996L38.6157 67.1139L40.3871 63.6567L38.6842 65.3996ZM33.8614 63.851L33.4614 66.0225L33.9642 68.5825L34.0785 65.2053L33.8614 63.851ZM36.1585 63.851L35.9528 65.1996L36.0557 68.5825L36.5528 66.0167L36.1585 63.8453V63.851Z" fill="#E27525" stroke="#E27525" stroke-width="0.142857" stroke-linecap="round" stroke-linejoin="round"/>
<path d="M36.5552 66.017L36.058 68.5828L36.418 68.8342L38.618 67.1199L38.6866 65.3999L36.5552 66.017ZM31.3495 65.3999L31.4066 67.1142L33.6123 68.8285L33.9666 68.5828L33.4695 66.017L31.3438 65.3999H31.3495Z" fill="#F5841F" stroke="#F5841F" stroke-width="0.142857" stroke-linecap="round" stroke-linejoin="round"/>
<path d="M36.6069 71.1946L36.624 70.4917L36.4297 70.3317H33.5954L33.4069 70.4917L33.424 71.1946L31.0469 70.0688L31.8812 70.7546L33.5669 71.9146H36.4526L38.144 70.7488L38.9669 70.0688L36.6012 71.1946H36.6069Z" fill="#C0AC9D" stroke="#C0AC9D" stroke-width="0.142857" stroke-linecap="round" stroke-linejoin="round"/>
<path d="M36.4177 68.8282L36.0577 68.5825H33.9662L33.612 68.8339L33.4062 70.4911L33.5948 70.3311H36.4291L36.6234 70.4911L36.4177 68.8339V68.8282Z" fill="#161616" stroke="#161616" stroke-width="0.142857" stroke-linecap="round" stroke-linejoin="round"/>
<path d="M43.9891 60.0569L44.6177 56.9997L43.6691 54.1426L36.412 59.514L39.2062 61.8626L43.1491 63.0111L44.0177 61.9997L43.6405 61.7254L44.2405 61.1769L43.7834 60.8226L44.3834 60.3654L43.9834 60.0569H43.9891ZM25.4062 56.994L26.0462 60.0569L25.6348 60.3597L26.2462 60.8169L25.7891 61.1769L26.3834 61.7254L26.0062 61.9997L26.8748 63.0111L30.8177 61.8683L33.612 59.5083L26.3548 54.1426L25.4062 56.994Z" fill="#763E1A" stroke="#763E1A" stroke-width="0.142857" stroke-linecap="round" stroke-linejoin="round"/>
<path d="M43.1491 63.0112L39.2063 61.8683L40.3948 63.6569L38.6234 67.114L40.9663 67.0855H44.4691L43.1491 63.0112ZM30.8177 61.8626L26.8748 63.0112L25.5605 67.0855H29.0634L31.4063 67.114L29.6348 63.6569L30.8234 61.8626H30.8177ZM36.1605 63.8512L36.4177 59.5083L37.5605 56.4226H32.4634L33.6063 59.5083L33.8634 63.8512L33.9605 65.2112V68.5826H36.0577L36.0691 65.2112L36.1605 63.8512Z" fill="#F5841F" stroke="#F5841F" stroke-width="0.142857" stroke-linecap="round" stroke-linejoin="round"/>
</g>
<path d="M64.3994 55.8341C64.3994 53.2491 65.7381 51.495 67.8384 51.495C69.9271 51.495 71.2657 53.2491 71.2657 55.8341C71.2657 58.4306 69.9848 60.15 67.8384 60.15C65.6804 60.15 64.3994 58.4306 64.3994 55.8341ZM65.5188 55.8341C65.5188 57.8882 66.3728 59.1345 67.8384 59.1345C69.3039 59.1345 70.1464 57.8882 70.1464 55.8341C70.1464 53.7569 69.3039 52.5105 67.8384 52.5105C66.3728 52.5105 65.5188 53.7569 65.5188 55.8341ZM73.9126 60H72.8047V51.6566H73.9126L76.786 58.6729L79.6595 51.6566H80.7904V60H79.6826V56.6996C79.6826 55.1417 79.6941 54.5762 79.7518 53.9877L77.3169 60H76.2552L73.8318 54.0107C73.8895 54.4146 73.9126 55.2686 73.9126 56.4341V60ZM83.8641 51.6566V58.9499H87.5338V60H82.7332V51.6566H83.8641ZM89.8933 51.6566V56.388L93.6092 51.6566H94.9593L92.1667 55.1994L95.0055 60H93.6899L91.4166 56.1572L89.8933 58.0844V60H88.7624V51.6566H89.8933ZM96.974 60H95.9931V51.5066H97.0778V55.3263C97.4471 54.5877 98.2088 54.1954 99.132 54.1954C100.748 54.1954 101.717 55.4648 101.717 57.2073C101.717 58.9152 100.701 60.1385 99.0627 60.1385C98.1741 60.1385 97.424 59.7461 97.0548 58.9729L96.974 60ZM97.0894 57.1612C97.0894 58.3382 97.7587 59.1576 98.8665 59.1576C99.9744 59.1576 100.632 58.3267 100.632 57.1612C100.632 56.0072 99.9744 55.1763 98.8665 55.1763C97.7587 55.1763 97.0894 56.0072 97.0894 57.1612ZM103.371 60.1385C102.921 60.1385 102.54 59.7692 102.54 59.3307C102.54 58.8806 102.921 58.5113 103.371 58.5113C103.81 58.5113 104.19 58.8806 104.19 59.3307C104.19 59.7692 103.81 60.1385 103.371 60.1385ZM106.56 60.1385C106.11 60.1385 105.729 59.7692 105.729 59.3307C105.729 58.8806 106.11 58.5113 106.56 58.5113C106.999 58.5113 107.38 58.8806 107.38 59.3307C107.38 59.7692 106.999 60.1385 106.56 60.1385ZM109.75 60.1385C109.3 60.1385 108.919 59.7692 108.919 59.3307C108.919 58.8806 109.3 58.5113 109.75 58.5113C110.188 58.5113 110.569 58.8806 110.569 59.3307C110.569 59.7692 110.188 60.1385 109.75 60.1385ZM112.569 52.6721H110.815V51.6566H113.654V60H112.569V52.6721ZM115.112 57.6805C115.112 56.6765 115.7 55.8687 116.624 55.534C115.839 55.1994 115.412 54.5416 115.412 53.6992C115.412 52.3951 116.531 51.5066 118.193 51.5066C119.832 51.5066 120.939 52.3951 120.939 53.7107C120.939 54.5647 120.501 55.2224 119.716 55.534C120.651 55.8341 121.251 56.6649 121.251 57.692C121.251 59.1576 120.028 60.1385 118.181 60.1385C116.323 60.1385 115.112 59.1576 115.112 57.6805ZM116.45 53.7684C116.45 54.5877 117.131 55.1186 118.17 55.1186C119.22 55.1186 119.878 54.5993 119.878 53.7915C119.878 52.9952 119.22 52.4875 118.17 52.4875C117.131 52.4875 116.45 52.9952 116.45 53.7684ZM116.22 57.5997C116.22 58.5344 116.993 59.1345 118.181 59.1345C119.359 59.1345 120.132 58.5344 120.132 57.5997C120.132 56.6765 119.37 56.0879 118.17 56.0879C116.981 56.0879 116.22 56.6765 116.22 57.5997ZM123.882 51.6566V56.388L127.598 51.6566H128.948L126.156 55.1994L128.994 60H127.679L125.405 56.1572L123.882 58.0844V60H122.751V51.6566H123.882ZM131.067 60H129.982V54.3569H130.951L131.055 55.0955C131.344 54.5647 131.944 54.1954 132.74 54.1954C133.617 54.1954 134.24 54.6339 134.529 55.3378C134.794 54.6339 135.475 54.1954 136.352 54.1954C137.645 54.1954 138.429 55.0032 138.429 56.3072V60H137.368V56.5726C137.368 55.684 136.871 55.1763 136.11 55.1763C135.29 55.1763 134.748 55.7533 134.748 56.6534V60H133.675V56.5611C133.675 55.6725 133.19 55.1878 132.428 55.1878C131.609 55.1878 131.067 55.7533 131.067 56.6534V60Z" fill="white"/>
<path opacity="0.5" d="M68.2653 76.1269C65.8881 76.1269 64.3071 74.419 64.3071 71.8341C64.3071 69.2606 65.9343 67.5181 68.323 67.5181C70.2041 67.5181 71.6466 68.6375 71.9581 70.3454H70.7464C70.4349 69.2606 69.5001 68.6029 68.2884 68.6029C66.6036 68.6029 65.4957 69.8723 65.4957 71.8225C65.4957 73.7728 66.6036 75.0422 68.2884 75.0422C69.5117 75.0422 70.481 74.3844 70.7926 73.3573H71.9928C71.635 75.0191 70.1464 76.1269 68.2653 76.1269ZM72.8255 73.1727C72.8255 71.4302 74.0719 70.2069 75.7682 70.2069C77.4531 70.2069 78.6994 71.4302 78.6994 73.1727C78.6994 74.9152 77.4531 76.1385 75.7682 76.1385C74.0719 76.1385 72.8255 74.9152 72.8255 73.1727ZM73.9218 73.1727C73.9218 74.3498 74.6719 75.1691 75.7682 75.1691C76.853 75.1691 77.6146 74.3498 77.6146 73.1727C77.6146 71.9956 76.853 71.1763 75.7682 71.1763C74.6719 71.1763 73.9218 71.9956 73.9218 73.1727ZM80.9849 76H79.9002V70.3569H80.8695L80.9734 71.0955C81.2619 70.5647 81.862 70.1954 82.6582 70.1954C83.5353 70.1954 84.1584 70.6339 84.4469 71.3378C84.7124 70.6339 85.3932 70.1954 86.2703 70.1954C87.5627 70.1954 88.3475 71.0032 88.3475 72.3072V76H87.2858V72.5726C87.2858 71.684 86.7896 71.1763 86.0279 71.1763C85.2086 71.1763 84.6662 71.7533 84.6662 72.6534V76H83.593V72.5611C83.593 71.6725 83.1083 71.1878 82.3467 71.1878C81.5273 71.1878 80.9849 71.7533 80.9849 72.6534V76ZM89.8512 78.5273V70.3569H90.8321L90.9129 71.3725C91.2937 70.5993 92.0553 70.1954 92.9554 70.1954C94.571 70.1954 95.575 71.4071 95.575 73.1381C95.575 74.8575 94.6287 76.15 92.9554 76.15C92.0553 76.15 91.3052 75.7692 90.9359 75.0768V78.5273H89.8512ZM90.9475 73.1842C90.9475 74.3382 91.6168 75.1691 92.7246 75.1691C93.8325 75.1691 94.4903 74.3382 94.4903 73.1842C94.4903 72.0187 93.8325 71.1878 92.7246 71.1878C91.6168 71.1878 90.9475 72.0072 90.9475 73.1842ZM97.8785 76H96.7938V67.5066H97.8785V76ZM101.91 76.1385C100.249 76.1385 99.1061 74.9383 99.1061 73.1842C99.1061 71.4186 100.225 70.1954 101.864 70.1954C103.468 70.1954 104.518 71.3032 104.518 72.9765V73.3804L100.156 73.392C100.237 74.5806 100.86 75.2384 101.933 75.2384C102.776 75.2384 103.33 74.8922 103.514 74.2459H104.53C104.253 75.4576 103.307 76.1385 101.91 76.1385ZM101.864 71.107C100.918 71.107 100.318 71.6725 100.179 72.6649H103.434C103.434 71.7302 102.822 71.107 101.864 71.107ZM107.266 76H106.181V71.2686H105.074V70.3569H106.181V68.5913H107.266V70.3569H108.374V71.2686H107.266V76ZM111.726 76.1385C110.064 76.1385 108.922 74.9383 108.922 73.1842C108.922 71.4186 110.041 70.1954 111.68 70.1954C113.284 70.1954 114.334 71.3032 114.334 72.9765V73.3804L109.972 73.392C110.053 74.5806 110.676 75.2384 111.749 75.2384C112.592 75.2384 113.145 74.8922 113.33 74.2459H114.346C114.069 75.4576 113.122 76.1385 111.726 76.1385ZM111.68 71.107C110.734 71.107 110.134 71.6725 109.995 72.6649H113.249C113.249 71.7302 112.638 71.107 111.68 71.107ZM117.808 76.1385C116.169 76.1385 115.176 74.9152 115.176 73.1958C115.176 71.4648 116.18 70.1954 117.854 70.1954C118.719 70.1954 119.446 70.5762 119.827 71.2686V67.5066H120.9V76H119.931L119.839 74.9729C119.469 75.7461 118.708 76.1385 117.808 76.1385ZM118.027 75.1576C119.135 75.1576 119.816 74.3382 119.816 73.1612C119.816 72.0072 119.135 71.1763 118.027 71.1763C116.919 71.1763 116.273 72.0072 116.273 73.1612C116.273 74.3267 116.919 75.1576 118.027 75.1576Z" fill="white"/>
<path d="M194.33 63.7994C194.33 61.1799 195.738 59.4027 197.896 59.4027C200.054 59.4027 201.473 61.1799 201.473 63.7994C201.473 66.4075 200.135 68.15 197.896 68.15C195.657 68.15 194.33 66.4075 194.33 63.7994ZM195.784 63.7994C195.784 65.7497 196.569 66.846 197.896 66.846C199.235 66.846 200.019 65.7497 200.019 63.7994C200.019 61.803 199.235 60.7067 197.896 60.7067C196.569 60.7067 195.784 61.803 195.784 63.7994ZM203.227 68.1385C202.719 68.1385 202.292 67.723 202.292 67.2268C202.292 66.7191 202.719 66.3036 203.227 66.3036C203.735 66.3036 204.162 66.7191 204.162 67.2268C204.162 67.723 203.735 68.1385 203.227 68.1385ZM206.012 60.8914H204.166V59.5643H207.432V68H206.012V60.8914ZM211.697 68.1385C209.931 68.1385 208.766 67.0076 208.766 65.2996H210.232C210.232 66.2575 210.797 66.8229 211.732 66.8229C212.724 66.8229 213.359 66.1767 213.359 65.1496C213.359 64.1687 212.77 63.4994 211.755 63.4994C211.109 63.4994 210.52 63.8225 210.22 64.261L208.916 63.9841L209.955 59.5643H214.351V60.926H211.016L210.566 62.6801C210.97 62.4146 211.478 62.2646 212.055 62.2646C213.74 62.2646 214.859 63.4071 214.859 65.0688C214.859 66.8922 213.578 68.1385 211.697 68.1385ZM224.497 68H219.257V59.5643H224.497V60.926H220.735V63.0955H224.104V64.3995H220.735V66.6383H224.497V68ZM225.359 60.926V59.5643H231.776V60.926H229.306V68H227.829V60.926H225.359ZM234.382 68H232.905V59.5643H234.382V63.0493H238.121V59.5643H239.598V68H238.121V64.4226H234.382V68Z" fill="white"/>
<rect x="246.834" y="57" width="14" height="14" rx="7" fill="#547FEF"/>
<g clip-path="url(#clip4_61_15798)">
<path d="M253.833 58.9883L253.768 59.2109V65.6719L253.833 65.7373L256.832 63.9645L253.833 58.9883Z" fill="#C0CDFA"/>
<path d="M253.833 58.9878L250.834 63.964L253.833 65.7368V62.6009V58.9878Z" fill="white"/>
<path d="M253.834 66.3041L253.797 66.3491V68.6506L253.834 68.7585L256.835 64.5322L253.834 66.3041Z" fill="#BFCCF9"/>
<path d="M253.833 68.7595V66.3051L250.834 64.5332L253.833 68.7595Z" fill="white"/>
<path d="M253.834 65.737L256.833 63.9642L253.834 62.6011V65.737Z" fill="#7799F2"/>
<path d="M250.834 63.9642L253.833 65.737L253.833 62.6011L250.834 63.9642Z" fill="#BFCCF9"/>
</g>
</g>
<g filter="url(#filter2_b_61_15798)">
<rect x="4.83398" y="102" width="273" height="60" rx="11.7287" fill="#292A30"/>
<rect x="5.20051" y="102.367" width="272.267" height="59.267" rx="11.3622" stroke="white" stroke-opacity="0.06" stroke-width="0.733046"/>
<rect x="16.834" y="114" width="36" height="36" rx="18" fill="#47474D"/>
<g clip-path="url(#clip5_61_15798)">
<path d="M43.6687 122.143L36.1602 127.697L37.5602 124.423L43.6687 122.143Z" fill="#E17726" stroke="#E17726" stroke-width="0.142857" stroke-linecap="round" stroke-linejoin="round"/>
<path d="M26.3548 122.143L33.7948 127.743L32.4634 124.428L26.3548 122.143ZM40.9663 135.017L38.9663 138.068L43.2463 139.245L44.4691 135.085L40.9663 135.017ZM25.5605 135.085L26.7777 139.245L31.0463 138.068L29.0577 135.017L25.5605 135.085Z" fill="#E27625" stroke="#E27625" stroke-width="0.142857" stroke-linecap="round" stroke-linejoin="round"/>
<path d="M30.8175 129.863L29.6289 131.657L33.8575 131.852L33.7203 127.297L30.8175 129.869V129.863ZM39.206 129.869L36.2575 127.24L36.1603 131.852L40.3889 131.657L39.206 129.869ZM31.046 138.069L33.6118 136.835L31.406 135.12L31.046 138.069ZM36.4175 136.829L38.966 138.069L38.6232 135.115L36.4175 136.829Z" fill="#E27625" stroke="#E27625" stroke-width="0.142857" stroke-linecap="round" stroke-linejoin="round"/>
<path d="M38.9669 138.068L36.4183 136.834L36.624 138.491L36.6012 139.194L38.9669 138.068ZM31.0469 138.068L33.424 139.194L33.4069 138.491L33.6126 136.834L31.0469 138.068Z" fill="#D5BFB2" stroke="#D5BFB2" stroke-width="0.142857" stroke-linecap="round" stroke-linejoin="round"/>
<path d="M33.4639 134.017L31.3496 133.4L32.8468 132.714L33.4696 134.017H33.4639ZM36.5553 134.017L37.1839 132.708L38.6867 133.394L36.5553 134.023V134.017Z" fill="#233447" stroke="#233447" stroke-width="0.142857" stroke-linecap="round" stroke-linejoin="round"/>
<path d="M31.0472 138.068L31.4186 135.017L29.0586 135.085L31.0472 138.068ZM38.6072 135.017L38.9672 138.068L40.9672 135.085L38.6072 135.017ZM40.3957 131.657L36.1672 131.851L36.5557 134.022L37.1843 132.708L38.6872 133.394L40.3957 131.657ZM31.35 133.4L32.8472 132.714L33.47 134.017L33.8643 131.845L29.6357 131.657L31.35 133.4Z" fill="#CC6228" stroke="#CC6228" stroke-width="0.142857" stroke-linecap="round" stroke-linejoin="round"/>
<path d="M29.6328 131.657L31.4042 135.114L31.3471 133.4L29.6328 131.657ZM38.6842 133.4L38.6157 135.114L40.3871 131.657L38.6842 133.4ZM33.8614 131.851L33.4614 134.022L33.9642 136.582L34.0785 133.205L33.8614 131.851ZM36.1585 131.851L35.9528 133.2L36.0557 136.582L36.5528 134.017L36.1585 131.845V131.851Z" fill="#E27525" stroke="#E27525" stroke-width="0.142857" stroke-linecap="round" stroke-linejoin="round"/>
<path d="M36.5552 134.017L36.058 136.583L36.418 136.834L38.618 135.12L38.6866 133.4L36.5552 134.017ZM31.3495 133.4L31.4066 135.114L33.6123 136.828L33.9666 136.583L33.4695 134.017L31.3438 133.4H31.3495Z" fill="#F5841F" stroke="#F5841F" stroke-width="0.142857" stroke-linecap="round" stroke-linejoin="round"/>
<path d="M36.6069 139.195L36.624 138.492L36.4297 138.332H33.5954L33.4069 138.492L33.424 139.195L31.0469 138.069L31.8812 138.755L33.5669 139.915H36.4526L38.144 138.749L38.9669 138.069L36.6012 139.195H36.6069Z" fill="#C0AC9D" stroke="#C0AC9D" stroke-width="0.142857" stroke-linecap="round" stroke-linejoin="round"/>
<path d="M36.4177 136.828L36.0577 136.583H33.9662L33.612 136.834L33.4062 138.491L33.5948 138.331H36.4291L36.6234 138.491L36.4177 136.834V136.828Z" fill="#161616" stroke="#161616" stroke-width="0.142857" stroke-linecap="round" stroke-linejoin="round"/>
<path d="M43.9891 128.057L44.6177 125L43.6691 122.143L36.412 127.514L39.2062 129.863L43.1491 131.011L44.0177 130L43.6405 129.725L44.2405 129.177L43.7834 128.823L44.3834 128.365L43.9834 128.057H43.9891ZM25.4062 124.994L26.0462 128.057L25.6348 128.36L26.2462 128.817L25.7891 129.177L26.3834 129.725L26.0062 130L26.8748 131.011L30.8177 129.868L33.612 127.508L26.3548 122.143L25.4062 124.994Z" fill="#763E1A" stroke="#763E1A" stroke-width="0.142857" stroke-linecap="round" stroke-linejoin="round"/>
<path d="M43.1491 131.011L39.2063 129.868L40.3948 131.657L38.6234 135.114L40.9663 135.085H44.4691L43.1491 131.011ZM30.8177 129.863L26.8748 131.011L25.5605 135.085H29.0634L31.4063 135.114L29.6348 131.657L30.8234 129.863H30.8177ZM36.1605 131.851L36.4177 127.508L37.5605 124.423H32.4634L33.6063 127.508L33.8634 131.851L33.9605 133.211V136.583H36.0577L36.0691 133.211L36.1605 131.851Z" fill="#F5841F" stroke="#F5841F" stroke-width="0.142857" stroke-linecap="round" stroke-linejoin="round"/>
</g>
<path d="M64.3994 123.834C64.3994 121.249 65.7381 119.495 67.8384 119.495C69.9271 119.495 71.2657 121.249 71.2657 123.834C71.2657 126.431 69.9848 128.15 67.8384 128.15C65.6804 128.15 64.3994 126.431 64.3994 123.834ZM65.5188 123.834C65.5188 125.888 66.3728 127.134 67.8384 127.134C69.3039 127.134 70.1464 125.888 70.1464 123.834C70.1464 121.757 69.3039 120.511 67.8384 120.511C66.3728 120.511 65.5188 121.757 65.5188 123.834ZM77.213 124.457H73.9356V128H72.8047V119.657H77.8362V120.695H73.9356V123.43H77.213V124.457ZM84.5488 128H78.6519V126.95L83.1294 120.695H78.7211V119.657H84.5373V120.672L80.0251 126.95H84.5488V128ZM89.2492 128.127C86.872 128.127 85.291 126.419 85.291 123.834C85.291 121.261 86.9181 119.518 89.3069 119.518C91.1879 119.518 92.6304 120.637 92.942 122.345H91.7303C91.4187 121.261 90.484 120.603 89.2723 120.603C87.5875 120.603 86.4796 121.872 86.4796 123.823C86.4796 125.773 87.5875 127.042 89.2723 127.042C90.4955 127.042 91.4649 126.384 91.7765 125.357H92.9766C92.6189 127.019 91.1302 128.127 89.2492 128.127ZM98.2292 128H93.8325V127.123L96.879 123.269H93.8325V122.357H98.2292V123.246L95.1596 127.088H98.2292V128ZM100.261 128.138C99.8106 128.138 99.4297 127.769 99.4297 127.331C99.4297 126.881 99.8106 126.511 100.261 126.511C100.699 126.511 101.08 126.881 101.08 127.331C101.08 127.769 100.699 128.138 100.261 128.138ZM103.45 128.138C103 128.138 102.619 127.769 102.619 127.331C102.619 126.881 103 126.511 103.45 126.511C103.888 126.511 104.269 126.881 104.269 127.331C104.269 127.769 103.888 128.138 103.45 128.138ZM106.639 128.138C106.189 128.138 105.808 127.769 105.808 127.331C105.808 126.881 106.189 126.511 106.639 126.511C107.078 126.511 107.459 126.881 107.459 127.331C107.459 127.769 107.078 128.138 106.639 128.138ZM111.358 128.138C109.65 128.138 108.542 127.054 108.542 125.392H109.661C109.661 126.465 110.319 127.123 111.381 127.123C112.512 127.123 113.239 126.373 113.239 125.242C113.239 124.169 112.558 123.372 111.392 123.372C110.688 123.372 110.042 123.707 109.661 124.18L108.703 123.938L109.719 119.657H113.896V120.695H110.538L109.984 122.911C110.423 122.576 110.977 122.403 111.6 122.403C113.296 122.403 114.393 123.592 114.393 125.196C114.393 126.927 113.158 128.138 111.358 128.138ZM119.237 128.127C116.86 128.127 115.279 126.419 115.279 123.834C115.279 121.261 116.906 119.518 119.295 119.518C121.176 119.518 122.619 120.637 122.93 122.345H121.719C121.407 121.261 120.472 120.603 119.261 120.603C117.576 120.603 116.468 121.872 116.468 123.823C116.468 125.773 117.576 127.042 119.261 127.042C120.484 127.042 121.453 126.384 121.765 125.357H122.965C122.607 127.019 121.118 128.127 119.237 128.127ZM129.545 127.988L123.913 128V127.134L126.602 124.815C127.952 123.649 128.333 123.084 128.333 122.195C128.333 121.145 127.733 120.522 126.729 120.522C125.702 120.522 125.032 121.272 125.009 122.461H123.878C123.913 120.672 125.044 119.507 126.74 119.507C128.414 119.507 129.487 120.522 129.487 122.126C129.487 123.315 128.898 124.157 127.421 125.438L125.69 126.938H129.545V127.988ZM133.067 128.138C131.428 128.138 130.435 126.915 130.435 125.196C130.435 123.465 131.439 122.195 133.113 122.195C133.978 122.195 134.705 122.576 135.086 123.269V119.507H136.159V128H135.19L135.098 126.973C134.728 127.746 133.967 128.138 133.067 128.138ZM133.286 127.158C134.394 127.158 135.074 126.338 135.074 125.161C135.074 124.007 134.394 123.176 133.286 123.176C132.178 123.176 131.532 124.007 131.532 125.161C131.532 126.327 132.178 127.158 133.286 127.158Z" fill="white"/>
<path d="M68.3807 136.58C66.5805 136.58 65.4957 137.907 65.4957 139.88C65.4957 141.9 66.6728 143.065 68.3923 143.065C69.8117 143.065 70.9542 142.338 70.9542 140.653V140.411H68.1615V139.407H72.0158V144.012H71.0696L70.9888 142.881C70.5387 143.608 69.5232 144.138 68.3 144.138C65.9343 144.138 64.3071 142.431 64.3071 139.857C64.3071 137.318 65.9458 135.518 68.4038 135.518C70.2271 135.518 71.6466 136.568 71.9235 138.172H70.7234C70.4118 137.111 69.4886 136.58 68.3807 136.58ZM75.8777 144.138C74.2159 144.138 73.0735 142.938 73.0735 141.184C73.0735 139.419 74.1928 138.195 75.8315 138.195C77.4356 138.195 78.4857 139.303 78.4857 140.977V141.38L74.1236 141.392C74.2044 142.581 74.8275 143.238 75.9008 143.238C76.7432 143.238 77.2971 142.892 77.4817 142.246H78.4973C78.2203 143.458 77.274 144.138 75.8777 144.138ZM75.8315 139.107C74.8852 139.107 74.2852 139.672 74.1467 140.665H77.401C77.401 139.73 76.7893 139.107 75.8315 139.107ZM80.7821 144H79.6973V138.357H80.6782L80.7936 139.222C81.1514 138.576 81.8669 138.195 82.6631 138.195C84.1518 138.195 84.8326 139.107 84.8326 140.55V144H83.7479V140.792C83.7479 139.649 83.217 139.188 82.3862 139.188C81.3706 139.188 80.7821 139.915 80.7821 141.011V144ZM88.77 144.138C87.1083 144.138 85.9658 142.938 85.9658 141.184C85.9658 139.419 87.0852 138.195 88.7239 138.195C90.3279 138.195 91.3781 139.303 91.3781 140.977V141.38L87.016 141.392C87.0967 142.581 87.7199 143.238 88.7931 143.238C89.6355 143.238 90.1895 142.892 90.3741 142.246H91.3896C91.1127 143.458 90.1664 144.138 88.77 144.138ZM88.7239 139.107C87.7776 139.107 87.1775 139.672 87.039 140.665H90.2933C90.2933 139.73 89.6817 139.107 88.7239 139.107ZM95.8209 138.311V139.303H95.3362C94.3091 139.303 93.6744 139.926 93.6744 141.011V144H92.5897V138.368H93.6052L93.6744 139.222C93.9052 138.634 94.4707 138.242 95.2439 138.242C95.4401 138.242 95.6016 138.265 95.8209 138.311ZM98.2631 144.138C97.0514 144.138 96.3359 143.458 96.3359 142.431C96.3359 141.392 97.1091 140.746 98.4362 140.642L100.213 140.503V140.342C100.213 139.396 99.6479 139.061 98.8863 139.061C97.9746 139.061 97.4553 139.465 97.4553 140.146H96.509C96.509 138.969 97.4784 138.195 98.9324 138.195C100.329 138.195 101.275 138.934 101.275 140.457V144H100.352L100.236 143.088C99.948 143.735 99.1748 144.138 98.2631 144.138ZM98.5747 143.296C99.6018 143.296 100.225 142.627 100.225 141.565V141.265L98.7824 141.38C97.8246 141.473 97.4322 141.842 97.4322 142.396C97.4322 142.996 97.8708 143.296 98.5747 143.296ZM104.28 144H103.195V139.269H102.087V138.357H103.195V136.591H104.28V138.357H105.388V139.269H104.28V144ZM106.892 137.018C106.5 137.018 106.176 136.695 106.176 136.303C106.176 135.899 106.5 135.587 106.892 135.587C107.284 135.587 107.607 135.899 107.607 136.303C107.607 136.695 107.284 137.018 106.892 137.018ZM106.361 144V138.357H107.446V144H106.361ZM110.105 144H109.021V138.357H110.002L110.117 139.222C110.475 138.576 111.19 138.195 111.986 138.195C113.475 138.195 114.156 139.107 114.156 140.55V144H113.071V140.792C113.071 139.649 112.54 139.188 111.709 139.188C110.694 139.188 110.105 139.915 110.105 141.011V144ZM115.301 141.034C115.301 139.442 116.328 138.195 117.966 138.195C118.878 138.195 119.582 138.611 119.94 139.315L120.021 138.357H120.99V143.769C120.99 145.546 119.894 146.677 118.163 146.677C116.628 146.677 115.578 145.812 115.37 144.381H116.455C116.593 145.212 117.216 145.696 118.163 145.696C119.224 145.696 119.917 145.004 119.917 143.931V142.8C119.547 143.458 118.809 143.85 117.92 143.85C116.316 143.85 115.301 142.615 115.301 141.034ZM116.385 141.011C116.385 142.073 117.043 142.904 118.105 142.904C119.201 142.904 119.871 142.119 119.871 141.011C119.871 139.926 119.224 139.142 118.116 139.142C117.032 139.142 116.385 139.973 116.385 141.011ZM126.923 144L125.076 138.357H126.196L127.13 141.288C127.257 141.704 127.373 142.131 127.476 142.627C127.569 142.131 127.719 141.657 127.846 141.288L128.792 138.357H129.9L130.835 141.288C130.927 141.565 131.112 142.223 131.204 142.627C131.296 142.177 131.4 141.784 131.562 141.288L132.508 138.357H133.639L131.712 144H130.685L129.704 140.977C129.519 140.411 129.404 139.973 129.346 139.661C129.288 139.938 129.184 140.307 128.977 140.988L127.996 144H126.923ZM135.96 144.138C134.748 144.138 134.033 143.458 134.033 142.431C134.033 141.392 134.806 140.746 136.133 140.642L137.91 140.503V140.342C137.91 139.396 137.345 139.061 136.583 139.061C135.671 139.061 135.152 139.465 135.152 140.146H134.206C134.206 138.969 135.175 138.195 136.629 138.195C138.025 138.195 138.972 138.934 138.972 140.457V144H138.048L137.933 143.088C137.645 143.735 136.871 144.138 135.96 144.138ZM136.271 143.296C137.298 143.296 137.922 142.627 137.922 141.565V141.265L136.479 141.38C135.521 141.473 135.129 141.842 135.129 142.396C135.129 142.996 135.567 143.296 136.271 143.296ZM141.582 144H140.497V135.507H141.582V144ZM144.286 144H143.202V135.507H144.286V144ZM148.318 144.138C146.656 144.138 145.514 142.938 145.514 141.184C145.514 139.419 146.633 138.195 148.272 138.195C149.876 138.195 150.926 139.303 150.926 140.977V141.38L146.564 141.392C146.645 142.581 147.268 143.238 148.341 143.238C149.184 143.238 149.738 142.892 149.922 142.246H150.938C150.661 143.458 149.715 144.138 148.318 144.138ZM148.272 139.107C147.326 139.107 146.726 139.672 146.587 140.665H149.842C149.842 139.73 149.23 139.107 148.272 139.107ZM153.674 144H152.589V139.269H151.481V138.357H152.589V136.591H153.674V138.357H154.782V139.269H153.674V144ZM156.214 144.138C155.764 144.138 155.383 143.769 155.383 143.331C155.383 142.881 155.764 142.511 156.214 142.511C156.652 142.511 157.033 142.881 157.033 143.331C157.033 143.769 156.652 144.138 156.214 144.138ZM159.403 144.138C158.953 144.138 158.572 143.769 158.572 143.331C158.572 142.881 158.953 142.511 159.403 142.511C159.842 142.511 160.222 142.881 160.222 143.331C160.222 143.769 159.842 144.138 159.403 144.138ZM162.592 144.138C162.142 144.138 161.762 143.769 161.762 143.331C161.762 142.881 162.142 142.511 162.592 142.511C163.031 142.511 163.412 142.881 163.412 143.331C163.412 143.769 163.031 144.138 162.592 144.138Z" fill="#F4663E"/>
<path d="M247.5 123.25C248.939 123.25 250.356 123.605 251.625 124.283C252.894 124.962 253.976 125.942 254.775 127.139C255.575 128.335 256.067 129.71 256.208 131.142C256.349 132.574 256.135 134.019 255.584 135.348C255.033 136.678 254.163 137.851 253.051 138.764C251.939 139.677 250.618 140.301 249.207 140.582C247.796 140.863 246.337 140.791 244.96 140.373C243.583 139.956 242.33 139.205 241.313 138.187" stroke="#F4663E" stroke-width="2.5" stroke-linecap="round"/>
</g>
</g>
<defs>
<filter id="filter0_b_61_15798" x="-14.9583" y="-53.7922" width="312.584" height="99.5845" filterUnits="userSpaceOnUse" color-interpolation-filters="sRGB">
<feFlood flood-opacity="0" result="BackgroundImageFix"/>
<feGaussianBlur in="BackgroundImageFix" stdDeviation="9.89612"/>
<feComposite in2="SourceAlpha" operator="in" result="effect1_backgroundBlur_61_15798"/>
<feBlend mode="normal" in="SourceGraphic" in2="effect1_backgroundBlur_61_15798" result="shape"/>
</filter>
<filter id="filter1_b_61_15798" x="-14.9583" y="14.2078" width="312.584" height="99.5845" filterUnits="userSpaceOnUse" color-interpolation-filters="sRGB">
<feFlood flood-opacity="0" result="BackgroundImageFix"/>
<feGaussianBlur in="BackgroundImageFix" stdDeviation="9.89612"/>
<feComposite in2="SourceAlpha" operator="in" result="effect1_backgroundBlur_61_15798"/>
<feBlend mode="normal" in="SourceGraphic" in2="effect1_backgroundBlur_61_15798" result="shape"/>
</filter>
<filter id="filter2_b_61_15798" x="-14.9583" y="82.2078" width="312.584" height="99.5845" filterUnits="userSpaceOnUse" color-interpolation-filters="sRGB">
<feFlood flood-opacity="0" result="BackgroundImageFix"/>
<feGaussianBlur in="BackgroundImageFix" stdDeviation="9.89612"/>
<feComposite in2="SourceAlpha" operator="in" result="effect1_backgroundBlur_61_15798"/>
<feBlend mode="normal" in="SourceGraphic" in2="effect1_backgroundBlur_61_15798" result="shape"/>
</filter>
<clipPath id="clip0_61_15798">
<rect width="284" height="171" rx="7.97205" fill="white"/>
</clipPath>
<clipPath id="clip1_61_15798">
<rect width="20" height="18.8571" fill="white" transform="translate(24.834 -14.4287)"/>
</clipPath>
<clipPath id="clip2_61_15798">
<rect width="14" height="14" fill="white" transform="translate(246.834 -11)"/>
</clipPath>
<clipPath id="clip3_61_15798">
<rect width="20" height="18.8571" fill="white" transform="translate(24.834 53.5713)"/>
</clipPath>
<clipPath id="clip4_61_15798">
<rect width="6" height="9.77344" fill="white" transform="translate(250.834 58.9878)"/>
</clipPath>
<clipPath id="clip5_61_15798">
<rect width="20" height="18.8571" fill="white" transform="translate(24.834 121.571)"/>
</clipPath>
</defs>
</svg>
