<svg width="64" height="81" viewBox="0 0 64 81" fill="none" xmlns="http://www.w3.org/2000/svg">
<path d="M3.47571 65.6669L23.4467 77.0964C29.144 80.357 36.1797 80.357 41.8769 77.0964L61.5299 65.8489C63.1807 64.9041 64.005 63.2568 64.0028 61.6105V53.1847V53.1715C64.0006 51.5296 63.1763 49.8885 61.5299 48.9463L41.5589 37.5167C35.8616 34.2561 28.826 34.2561 23.1287 37.5167L3.47571 48.7643C1.82489 49.7091 1.00059 51.3564 1.00281 53.0027V61.4284V61.4417C1.00503 63.0836 1.82933 64.7246 3.47571 65.6669Z" fill="url(#paint0_linear_74_2471)"/>
<path d="M3.47571 65.6669L23.4467 77.0964C29.144 80.357 36.1797 80.357 41.8769 77.0964L61.5299 65.8489C63.1807 64.9041 64.005 63.2568 64.0028 61.6105V53.1847V53.1715C64.0006 51.5296 63.1763 49.8885 61.5299 48.9463L41.5589 37.5167C35.8616 34.2561 28.826 34.2561 23.1287 37.5167L3.47571 48.7643C1.82489 49.7091 1.00059 51.3564 1.00281 53.0027V61.4284V61.4417C1.00503 63.0836 1.82933 64.7246 3.47571 65.6669Z" fill="url(#paint1_radial_74_2471)" fill-opacity="0.09"/>
<path d="M3.47571 65.6669L23.4467 77.0964C29.144 80.357 36.1797 80.357 41.8769 77.0964L61.5299 65.8489C63.1807 64.9041 64.005 63.2568 64.0028 61.6105V53.1847V53.1715C64.0006 51.5296 63.1763 49.8885 61.5299 48.9463L41.5589 37.5167C35.8616 34.2561 28.826 34.2561 23.1287 37.5167L3.47571 48.7643C1.82489 49.7091 1.00059 51.3564 1.00281 53.0027V61.4284V61.4417C1.00503 63.0836 1.82933 64.7246 3.47571 65.6669Z" fill="#0E1014" fill-opacity="0.3"/>
<path d="M41.5589 37.5361C35.8616 34.2497 28.826 34.2497 23.1287 37.5361L3.47571 48.873C0.178505 50.775 0.17851 55.5018 3.47571 57.4038L23.4467 68.9241C29.144 72.2105 36.1797 72.2105 41.8769 68.9241L61.5299 57.5872C64.8271 55.6853 64.8271 50.9584 61.5299 49.0564L41.5589 37.5361Z" fill="url(#paint2_linear_74_2471)"/>
<path d="M41.5589 37.5361C35.8616 34.2497 28.826 34.2497 23.1287 37.5361L3.47571 48.873C0.178505 50.775 0.17851 55.5018 3.47571 57.4038L23.4467 68.9241C29.144 72.2105 36.1797 72.2105 41.8769 68.9241L61.5299 57.5872C64.8271 55.6853 64.8271 50.9584 61.5299 49.0564L41.5589 37.5361Z" fill="#0E1014" fill-opacity="0.3"/>
<path d="M41.5589 37.5361C35.8616 34.2497 28.826 34.2497 23.1287 37.5361L3.47571 48.873C0.178505 50.775 0.17851 55.5018 3.47571 57.4038L23.4467 68.9241C29.144 72.2105 36.1797 72.2105 41.8769 68.9241L61.5299 57.5872C64.8271 55.6853 64.8271 50.9584 61.5299 49.0564L41.5589 37.5361Z" fill="url(#paint3_radial_74_2471)" fill-opacity="0.65"/>
<path d="M36.0856 10.3388L49.9584 18.7305C53.916 21.1244 56.285 25.4576 56.1641 30.0813L55.747 46.0312C55.7119 47.3709 54.9592 48.4418 53.9288 49.0034L34.2475 59.7635L34.2392 59.768C33.2115 60.3281 31.9076 60.3815 30.764 59.6897L16.8911 51.298C12.9335 48.9041 10.5645 44.5709 10.6854 39.9472L11.1026 23.9973C11.1376 22.6576 11.8903 21.5866 12.9208 21.0251L32.6021 10.265L32.6104 10.2605C33.638 9.7004 34.9419 9.64696 36.0856 10.3388Z" fill="url(#paint4_linear_74_2471)"/>
<path d="M36.0856 10.3388L49.9584 18.7305C53.916 21.1244 56.285 25.4576 56.1641 30.0813L55.747 46.0312C55.7119 47.3709 54.9592 48.4418 53.9288 49.0034L34.2475 59.7635L34.2392 59.768C33.2115 60.3281 31.9076 60.3815 30.764 59.6897L16.8911 51.298C12.9335 48.9041 10.5645 44.5709 10.6854 39.9472L11.1026 23.9973C11.1376 22.6576 11.8903 21.5866 12.9208 21.0251L32.6021 10.265L32.6104 10.2605C33.638 9.7004 34.9419 9.64696 36.0856 10.3388Z" fill="url(#paint5_radial_74_2471)"/>
<path d="M36.0856 10.3388L49.9584 18.7305C53.916 21.1244 56.285 25.4576 56.1641 30.0813L55.747 46.0312C55.7119 47.3709 54.9592 48.4418 53.9288 49.0034L34.2475 59.7635L34.2392 59.768C33.2115 60.3281 31.9076 60.3815 30.764 59.6897L16.8911 51.298C12.9335 48.9041 10.5645 44.5709 10.6854 39.9472L11.1026 23.9973C11.1376 22.6576 11.8903 21.5866 12.9208 21.0251L32.6021 10.265L32.6104 10.2605C33.638 9.7004 34.9419 9.64696 36.0856 10.3388Z" fill="url(#paint6_linear_74_2471)" fill-opacity="0.51"/>
<path d="M16.8911 51.298C12.9335 48.9041 10.5645 44.5709 10.6854 39.9472L11.1026 23.9973C11.1725 21.3214 14.1056 19.7179 16.396 21.1034L30.2688 29.4951C34.2264 31.889 36.5954 36.2222 36.4745 40.8459L36.0574 56.7958C35.9874 59.4717 33.0544 61.0752 30.764 59.6897L16.8911 51.298Z" fill="url(#paint7_linear_74_2471)"/>
<path d="M19.5028 45.1206V34.1862C19.5028 33.4867 20.4057 33.2063 20.8019 33.7827L26.8158 42.5302C27.0798 42.9141 26.9101 43.4438 26.4723 43.603L20.4584 45.7899C19.9939 45.9588 19.5028 45.6148 19.5028 45.1206Z" fill="#FFF9F7"/>
<path opacity="0.3" d="M34.9998 41.8084L36.307 33.4904C36.4008 32.8932 36.9475 32.4743 37.5507 32.5374L43.7157 33.1817L37.5953 32.1775C36.9983 32.0796 36.5817 31.5337 36.6464 30.9342L37.4155 23.8051L36.2783 30.8838C36.1826 31.4796 35.6362 31.8964 35.0342 31.8329L28.6397 31.1588L34.9821 32.1936C35.581 32.2914 35.9985 32.8398 35.9316 33.441L34.9998 41.8084Z" fill="url(#paint8_radial_74_2471)"/>
<path d="M41.2928 40.3829L37.1393 33.0584C36.8411 32.5326 37.0083 31.8645 37.5197 31.5384L42.7463 28.2061L37.3307 31.229C36.8024 31.5239 36.1366 31.3559 35.8141 30.8464L31.9795 24.7874L35.4947 31.036C35.7906 31.5619 35.6223 32.2282 35.1115 32.5532L29.6868 36.005L35.2952 32.868C35.8249 32.5717 36.493 32.7412 36.8147 33.2534L41.2928 40.3829Z" fill="url(#paint9_radial_74_2471)"/>
<defs>
<linearGradient id="paint0_linear_74_2471" x1="60.783" y1="60.0282" x2="25.5226" y2="81.7556" gradientUnits="userSpaceOnUse">
<stop stop-color="#2C1518"/>
<stop offset="1" stop-color="#563034"/>
</linearGradient>
<radialGradient id="paint1_radial_74_2471" cx="0" cy="0" r="1" gradientUnits="userSpaceOnUse" gradientTransform="translate(67.5028 75.8968) rotate(145.239) scale(42.7076 63.4637)">
<stop offset="0.596439" stop-color="#FE8E6E" stop-opacity="0"/>
<stop offset="0.819481" stop-color="#FE8E6E"/>
</radialGradient>
<linearGradient id="paint2_linear_74_2471" x1="32.5028" y1="35.0713" x2="32.5028" y2="71.3889" gradientUnits="userSpaceOnUse">
<stop stop-color="#3A262B"/>
<stop offset="1" stop-color="#602D30"/>
</linearGradient>
<radialGradient id="paint3_radial_74_2471" cx="0" cy="0" r="1" gradientUnits="userSpaceOnUse" gradientTransform="translate(32.6694 58.0713) rotate(90.7168) scale(13.3187 23.1038)">
<stop offset="0.15389" stop-color="#A32F2B"/>
<stop offset="0.667188" stop-color="#A32F2B" stop-opacity="0"/>
</radialGradient>
<linearGradient id="paint4_linear_74_2471" x1="7.83278" y1="32.108" x2="54.784" y2="48.7716" gradientUnits="userSpaceOnUse">
<stop stop-color="#FFBA6B"/>
<stop offset="1" stop-color="#FF4E48"/>
</linearGradient>
<radialGradient id="paint5_radial_74_2471" cx="0" cy="0" r="1" gradientUnits="userSpaceOnUse" gradientTransform="translate(30.2014 36.708) rotate(-26.2415) scale(31.2889 43.6495)">
<stop offset="0.40797" stop-color="#FE8E6E" stop-opacity="0"/>
<stop offset="0.819481" stop-color="#FE8E6E"/>
</radialGradient>
<linearGradient id="paint6_linear_74_2471" x1="44.6769" y1="38.5843" x2="39.4353" y2="29.8483" gradientUnits="userSpaceOnUse">
<stop stop-color="#8F3926"/>
<stop offset="1" stop-color="#F56941" stop-opacity="0"/>
</linearGradient>
<linearGradient id="paint7_linear_74_2471" x1="12.3124" y1="46.5567" x2="34.8476" y2="34.2364" gradientUnits="userSpaceOnUse">
<stop stop-color="#FD8F70"/>
<stop offset="1" stop-color="#F4663E"/>
</linearGradient>
<radialGradient id="paint8_radial_74_2471" cx="0" cy="0" r="1" gradientUnits="userSpaceOnUse" gradientTransform="translate(36.2755 31.9964) rotate(-82.8691) scale(8.27041 6.92563)">
<stop stop-color="white"/>
<stop offset="1" stop-color="white" stop-opacity="0"/>
</radialGradient>
<radialGradient id="paint9_radial_74_2471" cx="0" cy="0" r="1" gradientUnits="userSpaceOnUse" gradientTransform="translate(36.1849 31.9086) rotate(-121.356) scale(8.27041 6.92563)">
<stop stop-color="white"/>
<stop offset="1" stop-color="white" stop-opacity="0"/>
</radialGradient>
</defs>
</svg>
