<svg width="64" height="81" viewBox="0 0 64 81" fill="none" xmlns="http://www.w3.org/2000/svg">
<path d="M3.47571 65.6669L23.4467 77.0964C29.144 80.357 36.1797 80.357 41.8769 77.0964L61.5299 65.8489C63.1807 64.9041 64.005 63.2568 64.0028 61.6105V53.1847V53.1715C64.0006 51.5296 63.1763 49.8885 61.5299 48.9463L41.5589 37.5167C35.8616 34.2561 28.826 34.2561 23.1287 37.5167L3.47571 48.7643C1.82489 49.7091 1.00059 51.3564 1.00281 53.0027V61.4284V61.4417C1.00503 63.0836 1.82933 64.7246 3.47571 65.6669Z" fill="url(#paint0_linear_74_2458)"/>
<path d="M3.47571 65.6669L23.4467 77.0964C29.144 80.357 36.1797 80.357 41.8769 77.0964L61.5299 65.8489C63.1807 64.9041 64.005 63.2568 64.0028 61.6105V53.1847V53.1715C64.0006 51.5296 63.1763 49.8885 61.5299 48.9463L41.5589 37.5167C35.8616 34.2561 28.826 34.2561 23.1287 37.5167L3.47571 48.7643C1.82489 49.7091 1.00059 51.3564 1.00281 53.0027V61.4284V61.4417C1.00503 63.0836 1.82933 64.7246 3.47571 65.6669Z" fill="url(#paint1_radial_74_2458)" fill-opacity="0.09"/>
<path d="M3.47571 65.6669L23.4467 77.0964C29.144 80.357 36.1797 80.357 41.8769 77.0964L61.5299 65.8489C63.1807 64.9041 64.005 63.2568 64.0028 61.6105V53.1847V53.1715C64.0006 51.5296 63.1763 49.8885 61.5299 48.9463L41.5589 37.5167C35.8616 34.2561 28.826 34.2561 23.1287 37.5167L3.47571 48.7643C1.82489 49.7091 1.00059 51.3564 1.00281 53.0027V61.4284V61.4417C1.00503 63.0836 1.82933 64.7246 3.47571 65.6669Z" fill="#0E1014" fill-opacity="0.3"/>
<path d="M41.5589 37.5361C35.8616 34.2497 28.826 34.2497 23.1287 37.5361L3.47571 48.873C0.178505 50.775 0.17851 55.5018 3.47571 57.4038L23.4467 68.9241C29.144 72.2105 36.1797 72.2105 41.8769 68.9241L61.5299 57.5872C64.8271 55.6853 64.8271 50.9584 61.5299 49.0564L41.5589 37.5361Z" fill="url(#paint2_linear_74_2458)"/>
<path d="M41.5589 37.5361C35.8616 34.2497 28.826 34.2497 23.1287 37.5361L3.47571 48.873C0.178505 50.775 0.17851 55.5018 3.47571 57.4038L23.4467 68.9241C29.144 72.2105 36.1797 72.2105 41.8769 68.9241L61.5299 57.5872C64.8271 55.6853 64.8271 50.9584 61.5299 49.0564L41.5589 37.5361Z" fill="#0E1014" fill-opacity="0.3"/>
<path d="M41.5589 37.5361C35.8616 34.2497 28.826 34.2497 23.1287 37.5361L3.47571 48.873C0.178505 50.775 0.17851 55.5018 3.47571 57.4038L23.4467 68.9241C29.144 72.2105 36.1797 72.2105 41.8769 68.9241L61.5299 57.5872C64.8271 55.6853 64.8271 50.9584 61.5299 49.0564L41.5589 37.5361Z" fill="url(#paint3_radial_74_2458)" fill-opacity="0.65"/>
<path d="M10.0813 35.6175L21.61 47.0178C24.8988 50.2701 29.6797 51.5078 34.1335 50.2602L49.4974 45.9564C50.7879 45.5948 51.6423 44.6032 51.935 43.4667L54.8259 31.3718L54.8282 31.3627C55.1201 30.2293 54.8531 28.9519 53.9027 28.0121L42.374 16.6118C39.0852 13.3596 34.3044 12.1218 29.8505 13.3694L14.4866 17.6733C13.1961 18.0348 12.3417 19.0265 12.0491 20.1629L9.15818 32.2578L9.15581 32.2669C8.86397 33.4003 9.13093 34.6777 10.0813 35.6175Z" fill="url(#paint4_linear_74_2458)"/>
<path d="M10.0813 35.6175L21.61 47.0178C24.8988 50.2701 29.6797 51.5078 34.1335 50.2602L49.4974 45.9564C50.7879 45.5948 51.6423 44.6032 51.935 43.4667L54.8259 31.3718L54.8282 31.3627C55.1201 30.2293 54.8531 28.9519 53.9027 28.0121L42.374 16.6118C39.0852 13.3596 34.3044 12.1218 29.8505 13.3694L14.4866 17.6733C13.1961 18.0348 12.3417 19.0265 12.0491 20.1629L9.15818 32.2578L9.15581 32.2669C8.86397 33.4003 9.13093 34.6777 10.0813 35.6175Z" fill="url(#paint5_radial_74_2458)"/>
<path d="M10.0813 35.6175L21.61 47.0178C24.8988 50.2701 29.6797 51.5078 34.1335 50.2602L49.4974 45.9564C50.7879 45.5948 51.6423 44.6032 51.935 43.4667L54.8259 31.3718L54.8282 31.3627C55.1201 30.2293 54.8531 28.9519 53.9027 28.0121L42.374 16.6118C39.0852 13.3596 34.3044 12.1218 29.8505 13.3694L14.4866 17.6733C13.1961 18.0348 12.3417 19.0265 12.0491 20.1629L9.15818 32.2578L9.15581 32.2669C8.86397 33.4003 9.13093 34.6777 10.0813 35.6175Z" fill="url(#paint6_linear_74_2458)" fill-opacity="0.51"/>
<path opacity="0.3" d="M39.6426 26.2314C36.3538 22.9792 31.5729 21.7414 27.1191 22.9891L11.7552 27.2929C9.17759 28.015 8.33979 31.251 10.2432 33.1332L21.7718 44.5335C25.0607 47.7857 29.8415 49.0235 34.2954 47.7758L49.6592 43.472C52.2368 42.75 53.0746 39.5139 51.1713 37.6317L39.6426 26.2314Z" fill="white"/>
<path opacity="0.3" d="M40.735 22.3835C37.4462 19.1313 32.6653 17.8935 28.2115 19.1412L12.8476 23.445C10.27 24.1671 9.4322 27.4031 11.3356 29.2853L22.8642 40.6856C26.1531 43.9378 30.9339 45.1756 35.3878 43.9279L50.7516 39.6241C53.3292 38.9021 54.1671 35.666 52.2637 33.7838L40.735 22.3835Z" fill="white"/>
<path d="M42.3737 16.6117C39.0849 13.3594 34.304 12.1217 29.8502 13.3693L14.4863 17.6731C11.9087 18.3952 11.0709 21.6312 12.9742 23.5134L24.5029 34.9137C27.7917 38.166 32.5726 39.4037 37.0264 38.1561L52.3903 33.8523C54.9679 33.1302 55.8057 29.8942 53.9024 28.012L42.3737 16.6117Z" fill="url(#paint7_linear_74_2458)"/>
<path opacity="0.3" d="M34.0974 22.8429L37.6265 15.198C37.8799 14.6492 38.5202 14.3955 39.0833 14.6209L44.8379 16.9245L39.2244 14.2869C38.6769 14.0297 38.4252 13.3908 38.6511 12.8317L41.3381 6.18375L38.3108 12.6828C38.0561 13.2297 37.4166 13.4815 36.8548 13.256L30.8876 10.8612L36.7061 13.5888C37.2557 13.8464 37.5075 14.488 37.2789 15.048L34.0974 22.8429Z" fill="url(#paint8_radial_74_2458)"/>
<path d="M40.5403 23.1901L38.5451 15.0098C38.4019 14.4225 38.7452 13.8255 39.3262 13.6515L45.2642 11.8733L39.2288 13.3022C38.6401 13.4416 38.0455 13.0982 37.8744 12.52L35.8403 5.64409L37.5154 12.6151C37.6564 13.2018 37.3125 13.7968 36.7324 13.97L30.5712 15.8091L36.8231 14.323C37.4136 14.1826 38.01 14.5281 38.1796 15.1087L40.5403 23.1901Z" fill="url(#paint9_radial_74_2458)"/>
<path d="M39.2067 31.7696L38.0873 30.6268C35.2019 31.4158 32.2997 30.8064 30.5169 28.9865L33.5158 27.9298C34.1791 28.6069 35.0829 28.8388 36.1386 28.6376L33.7476 26.197L33.1756 26.3037C30.3065 26.8023 28.0682 26.2056 26.4374 24.5409C24.7651 22.8338 25.2488 20.9744 27.5423 19.8626L26.3952 18.6917L28.1088 18.0878L29.2559 19.2588C31.9172 18.6247 34.573 19.264 36.3144 21.0416L33.4086 22.0655C32.842 21.4871 32.0825 21.2233 31.2322 21.2762L33.6785 23.7733L34.3016 23.6676C37.2218 23.17 39.1638 23.6433 40.7255 25.2375C42.4669 27.0151 42.0487 28.8134 39.7595 29.9807L40.9204 31.1657L39.2067 31.7696ZM29.2975 23.4192C29.8918 24.0258 30.6098 24.2473 31.7022 24.1091L29.4909 21.8518C28.8096 22.2817 28.7309 22.8408 29.2975 23.4192ZM38.0222 26.4937C37.428 25.887 36.6679 25.6994 35.7239 25.8612L37.797 27.9774C38.4134 27.5324 38.5198 27.0015 38.0222 26.4937Z" fill="#FFC4A0"/>
<defs>
<linearGradient id="paint0_linear_74_2458" x1="60.783" y1="60.0282" x2="25.5226" y2="81.7556" gradientUnits="userSpaceOnUse">
<stop stop-color="#2C1518"/>
<stop offset="1" stop-color="#563034"/>
</linearGradient>
<radialGradient id="paint1_radial_74_2458" cx="0" cy="0" r="1" gradientUnits="userSpaceOnUse" gradientTransform="translate(67.5028 75.8968) rotate(145.239) scale(42.7076 63.4637)">
<stop offset="0.596439" stop-color="#FE8E6E" stop-opacity="0"/>
<stop offset="0.819481" stop-color="#FE8E6E"/>
</radialGradient>
<linearGradient id="paint2_linear_74_2458" x1="32.5028" y1="35.0713" x2="32.5028" y2="71.3889" gradientUnits="userSpaceOnUse">
<stop stop-color="#3A262B"/>
<stop offset="1" stop-color="#602D30"/>
</linearGradient>
<radialGradient id="paint3_radial_74_2458" cx="0" cy="0" r="1" gradientUnits="userSpaceOnUse" gradientTransform="translate(32.6694 58.0713) rotate(90.7168) scale(13.3187 23.1038)">
<stop offset="0.15389" stop-color="#A32F2B"/>
<stop offset="0.667188" stop-color="#A32F2B" stop-opacity="0"/>
</radialGradient>
<linearGradient id="paint4_linear_74_2458" x1="24.2822" y1="2.89977" x2="51.9186" y2="44.3524" gradientUnits="userSpaceOnUse">
<stop stop-color="#FFBA6B"/>
<stop offset="1" stop-color="#FF4E48"/>
</linearGradient>
<radialGradient id="paint5_radial_74_2458" cx="0" cy="0" r="1" gradientUnits="userSpaceOnUse" gradientTransform="translate(34.2112 23.465) rotate(102.091) scale(31.2889 43.6495)">
<stop offset="0.40797" stop-color="#FE8E6E" stop-opacity="0"/>
<stop offset="0.819481" stop-color="#FE8E6E"/>
</radialGradient>
<linearGradient id="paint6_linear_74_2458" x1="39.5695" y1="37.0425" x2="29.8172" y2="34.0957" gradientUnits="userSpaceOnUse">
<stop stop-color="#8F3926"/>
<stop offset="1" stop-color="#F56941" stop-opacity="0"/>
</linearGradient>
<linearGradient id="paint7_linear_74_2458" x1="36.6569" y1="13.331" x2="30.2197" y2="38.1944" gradientUnits="userSpaceOnUse">
<stop stop-color="#FD8F70"/>
<stop offset="1" stop-color="#F4663E"/>
</linearGradient>
<radialGradient id="paint8_radial_74_2458" cx="0" cy="0" r="1" gradientUnits="userSpaceOnUse" gradientTransform="translate(38.0043 13.7522) rotate(-67.02) scale(8.27041 6.92563)">
<stop stop-color="white"/>
<stop offset="1" stop-color="white" stop-opacity="0"/>
</radialGradient>
<radialGradient id="paint9_radial_74_2458" cx="0" cy="0" r="1" gradientUnits="userSpaceOnUse" gradientTransform="translate(37.941 13.643) rotate(-105.507) scale(8.27041 6.92563)">
<stop stop-color="white"/>
<stop offset="1" stop-color="white" stop-opacity="0"/>
</radialGradient>
</defs>
</svg>
