<svg width="32" height="33" viewBox="0 0 32 33" fill="none" xmlns="http://www.w3.org/2000/svg">
<g clip-path="url(#clip0_230_2335)">
<path d="M17.8666 23.298H14.52C12.3333 23.298 10.56 21.458 10.56 19.1913C10.56 18.6447 11.0133 18.1913 11.56 18.1913C12.1066 18.1913 12.56 18.6447 12.56 19.1913C12.56 20.3513 13.44 21.298 14.52 21.298H17.8666C18.7333 21.298 19.4533 20.5247 19.4533 19.5913C19.4533 18.4313 19.04 18.2047 18.36 17.9647L12.9866 16.0713C11.9466 15.7113 10.5466 14.938 10.5466 12.5513C10.5466 10.498 12.16 8.84467 14.1333 8.84467H17.48C19.6666 8.84467 21.44 10.6847 21.44 12.9513C21.44 13.498 20.9866 13.9513 20.44 13.9513C19.8933 13.9513 19.44 13.498 19.44 12.9513C19.44 11.7913 18.56 10.8447 17.48 10.8447H14.1333C13.2666 10.8447 12.5466 11.618 12.5466 12.5513C12.5466 13.7113 12.96 13.938 13.64 14.178L19.0133 16.0713C20.0533 16.4313 21.4533 17.2047 21.4533 19.5913C21.44 21.6313 19.84 23.298 17.8666 23.298Z" fill="#F4663E"/>
<path d="M16 25.0713C15.4533 25.0713 15 24.618 15 24.0713V8.07129C15 7.52462 15.4533 7.07129 16 7.07129C16.5467 7.07129 17 7.52462 17 8.07129V24.0713C17 24.618 16.5467 25.0713 16 25.0713Z" fill="#F4663E"/>
<path d="M20.0001 30.4046H12.0001C4.76008 30.4046 1.66675 27.3113 1.66675 20.0713V12.0713C1.66675 4.83131 4.76008 1.73798 12.0001 1.73798H20.0001C27.2401 1.73798 30.3334 4.83131 30.3334 12.0713V20.0713C30.3334 27.3113 27.2401 30.4046 20.0001 30.4046ZM12.0001 3.73798C5.85341 3.73798 3.66675 5.92464 3.66675 12.0713V20.0713C3.66675 26.218 5.85341 28.4046 12.0001 28.4046H20.0001C26.1467 28.4046 28.3334 26.218 28.3334 20.0713V12.0713C28.3334 5.92464 26.1467 3.73798 20.0001 3.73798H12.0001Z" fill="#F4663E"/>
</g>
<defs>
<clipPath id="clip0_230_2335">
<rect width="32" height="32" fill="white" transform="translate(0 0.0712891)"/>
</clipPath>
</defs>
</svg>
