<svg width="34" height="25" viewBox="0 0 34 25" fill="none" xmlns="http://www.w3.org/2000/svg">
<g clip-path="url(#clip0_1_47686)">
<rect x="0.0856934" y="0.96875" width="33.4412" height="23.0629" rx="11.5315" fill="white" fill-opacity="0.05"/>
<path d="M21.6284 12.9753C21.6284 12.785 21.5406 12.5947 21.3942 12.4556L17.6465 8.70787C17.4854 8.56148 17.3171 8.48828 17.1414 8.48828C16.7461 8.48828 16.4533 8.77375 16.4533 9.1617C16.4533 9.35933 16.5339 9.52769 16.6583 9.65945L17.7343 10.7501L19.513 12.3678L18.1588 12.2799H11.4832C11.0587 12.2799 10.7732 12.5654 10.7732 12.9753C10.7732 13.3852 11.0587 13.678 11.4832 13.678H18.1588L19.5203 13.5828L17.7343 15.2078L16.6583 16.2912C16.5339 16.4229 16.4533 16.5913 16.4533 16.7889C16.4533 17.1769 16.7461 17.4623 17.1414 17.4623C17.3171 17.4623 17.4854 17.3891 17.6391 17.2427L21.3942 13.495C21.5406 13.3559 21.6284 13.1656 21.6284 12.9753Z" fill="#EEEFFC"/>
</g>
<defs>
<clipPath id="clip0_1_47686">
<rect width="33.4412" height="23.0629" fill="white" transform="translate(0.0856934 0.96875)"/>
</clipPath>
</defs>
</svg>
