<svg width="32" height="32" viewBox="0 0 32 32" fill="none" xmlns="http://www.w3.org/2000/svg">
<g clip-path="url(#clip0_83_9124)">
<path d="M9.5599 30.3335C6.38656 30.3335 3.78662 28.0268 3.78662 25.1868V22.4668C3.78662 21.9201 4.23995 21.4668 4.78662 21.4668C5.33329 21.4668 5.78662 21.9201 5.78662 22.4668C5.78662 24.1335 7.3999 25.3868 9.5599 25.3868C11.7199 25.3868 13.3333 24.1335 13.3333 22.4668C13.3333 21.9201 13.7866 21.4668 14.3333 21.4668C14.8799 21.4668 15.3333 21.9201 15.3333 22.4668V25.1868C15.3333 28.0268 12.7466 30.3335 9.5599 30.3335ZM6.13322 26.4935C6.71989 27.5868 8.0399 28.3335 9.5599 28.3335C11.0799 28.3335 12.3999 27.5735 12.9866 26.4935C12.0399 27.0668 10.8666 27.4001 9.5599 27.4001C8.25323 27.4001 7.07989 27.0668 6.13322 26.4935Z" fill="#F4663E"/>
<path d="M9.5599 23.7333C7.37323 23.7333 5.41327 22.7333 4.43994 21.1467C4.01327 20.4533 3.78662 19.64 3.78662 18.8133C3.78662 17.4133 4.39994 16.1066 5.51994 15.1333C7.67994 13.24 11.3999 13.24 13.5732 15.12C14.6932 16.1067 15.3199 17.4133 15.3199 18.8133C15.3199 19.64 15.0933 20.4533 14.6666 21.1467C13.7066 22.7333 11.7466 23.7333 9.5599 23.7333ZM9.5599 15.6667C8.5199 15.6667 7.55993 16.0133 6.83993 16.64C6.15993 17.2266 5.78662 18 5.78662 18.8133C5.78662 19.28 5.90657 19.7067 6.14657 20.1067C6.7599 21.12 8.06656 21.7467 9.5599 21.7467C11.0532 21.7467 12.3599 21.12 12.9599 20.12C13.1999 19.7334 13.3199 19.2933 13.3199 18.8267C13.3199 18.0133 12.9466 17.24 12.2666 16.64C11.5599 16.0133 10.5999 15.6667 9.5599 15.6667Z" fill="#F4663E"/>
<path d="M9.5599 27.4001C6.26656 27.4001 3.78662 25.2801 3.78662 22.4801V18.8134C3.78662 15.9734 6.37323 13.6667 9.5599 13.6667C11.0666 13.6667 12.5066 14.1868 13.5866 15.1201C14.7066 16.1068 15.3333 17.4134 15.3333 18.8134V22.4801C15.3333 25.2801 12.8532 27.4001 9.5599 27.4001ZM9.5599 15.6667C7.4799 15.6667 5.78662 17.0801 5.78662 18.8134V22.4801C5.78662 24.1467 7.3999 25.4001 9.5599 25.4001C11.7199 25.4001 13.3333 24.1467 13.3333 22.4801V18.8134C13.3333 18.0001 12.9599 17.2267 12.2799 16.6267C11.5599 16.0134 10.5999 15.6667 9.5599 15.6667Z" fill="#F4663E"/>
<path d="M25.3867 19.7332C23.3733 19.7332 21.6667 18.2399 21.5067 16.3199C21.4 15.2132 21.8001 14.1333 22.6001 13.3466C23.2667 12.6533 24.2133 12.2666 25.2133 12.2666H28C29.32 12.3066 30.3334 13.3465 30.3334 14.6265V17.3733C30.3334 18.6533 29.3201 19.6932 28.0401 19.7332H25.3867ZM27.96 14.2666H25.2267C24.76 14.2666 24.3334 14.4399 24.0267 14.7599C23.6401 15.1333 23.4534 15.6399 23.5067 16.1466C23.5734 17.0266 24.4267 17.7332 25.3867 17.7332H28C28.1734 17.7332 28.3334 17.5733 28.3334 17.3733V14.6265C28.3334 14.4265 28.1733 14.2799 27.96 14.2666Z" fill="#F4663E"/>
<path d="M21.3338 28.3334H18.0005C17.4538 28.3334 17.0005 27.8801 17.0005 27.3334C17.0005 26.7867 17.4538 26.3334 18.0005 26.3334H21.3338C24.7738 26.3334 27.0005 24.1067 27.0005 20.6667V19.7334H25.3871C23.3738 19.7334 21.6672 18.2401 21.5072 16.3201C21.4005 15.2134 21.8005 14.1334 22.6005 13.3468C23.2672 12.6534 24.2138 12.2668 25.2138 12.2668H26.9871V11.3334C26.9871 8.21341 25.1605 6.06672 22.2005 5.72005C21.8805 5.66672 21.6005 5.66675 21.3205 5.66675H9.32048C9.00048 5.66675 8.69379 5.6934 8.38713 5.7334C5.45379 6.10673 3.65381 8.24008 3.65381 11.3334V14.0001C3.65381 14.5467 3.20048 15.0001 2.65381 15.0001C2.10714 15.0001 1.65381 14.5467 1.65381 14.0001V11.3334C1.65381 7.22675 4.18719 4.25342 8.12052 3.76009C8.48052 3.70676 8.89381 3.66675 9.32048 3.66675H21.3205C21.6405 3.66675 22.0538 3.68008 22.4805 3.74674C26.4138 4.20008 28.9871 7.18675 28.9871 11.3334V13.2668C28.9871 13.8134 28.5338 14.2668 27.9871 14.2668H25.2138C24.7471 14.2668 24.3205 14.4401 24.0138 14.7601C23.6272 15.1334 23.4405 15.6401 23.4938 16.1467C23.5605 17.0267 24.4139 17.7334 25.3739 17.7334H28.0005C28.5472 17.7334 29.0005 18.1867 29.0005 18.7334V20.6667C29.0005 25.2534 25.9205 28.3334 21.3338 28.3334Z" fill="#F4663E"/>
</g>
<defs>
<clipPath id="clip0_83_9124">
<rect width="32" height="32" fill="white"/>
</clipPath>
</defs>
</svg>
