<svg width="32" height="33" viewBox="0 0 32 33" fill="none" xmlns="http://www.w3.org/2000/svg">
<g clip-path="url(#clip0_230_2334)">
<path d="M14.0534 29.3246C13.7467 29.3246 13.4534 29.1913 13.2534 28.9247L11.9067 27.1247C11.6267 26.7513 11.2534 26.538 10.8534 26.5113C10.4401 26.4846 10.0534 26.6713 9.73336 27.0047C7.80002 29.0713 6.33338 28.898 5.62671 28.6313C4.90671 28.3513 3.69336 27.4313 3.69336 24.4713V9.45799C3.69336 3.53799 5.40003 1.73798 10.9867 1.73798H21.0534C26.6401 1.73798 28.3467 3.53799 28.3467 9.45799V15.138C28.3467 15.6846 27.8934 16.138 27.3467 16.138C26.8001 16.138 26.3467 15.6846 26.3467 15.138V9.45799C26.3467 4.64465 25.5067 3.73798 21.0534 3.73798H10.9867C6.53336 3.73798 5.69336 4.64465 5.69336 9.45799V24.4713C5.69336 25.8713 6.04003 26.6446 6.36003 26.7646C6.60003 26.858 7.25339 26.7246 8.26672 25.6446C9.00006 24.8713 9.96004 24.458 10.96 24.5113C11.9467 24.5646 12.88 25.0847 13.5067 25.9247L14.8667 27.7246C15.2 28.1646 15.1067 28.7913 14.6667 29.1247C14.4667 29.2713 14.2534 29.3246 14.0534 29.3246Z" fill="#F4663E"/>
<path d="M21.3332 10.4046H10.6665C10.1198 10.4046 9.6665 9.95127 9.6665 9.4046C9.6665 8.85794 10.1198 8.4046 10.6665 8.4046H21.3332C21.8798 8.4046 22.3332 8.85794 22.3332 9.4046C22.3332 9.95127 21.8798 10.4046 21.3332 10.4046Z" fill="#F4663E"/>
<path d="M20 15.738H12C11.4533 15.738 11 15.2846 11 14.738C11 14.1913 11.4533 13.738 12 13.738H20C20.5467 13.738 21 14.1913 21 14.738C21 15.2846 20.5467 15.738 20 15.738Z" fill="#F4663E"/>
<path d="M19.7601 29.1112C19.2534 29.1112 18.7734 28.9246 18.4267 28.5779C18.0134 28.1646 17.8267 27.5646 17.9201 26.9379L18.1734 25.1379C18.2401 24.6712 18.5201 24.1112 18.8534 23.7779L23.5734 19.0579C24.2134 18.4179 24.8401 18.0846 25.5201 18.0179C26.3468 17.9379 27.1734 18.2846 27.9467 19.0579C28.7201 19.8312 29.0667 20.6446 28.9867 21.4846C28.9201 22.1512 28.5734 22.7912 27.9467 23.4312L23.2268 28.1512C22.8934 28.4846 22.3334 28.7646 21.8667 28.8313L20.0667 29.0846C19.9601 29.0979 19.8667 29.1112 19.7601 29.1112ZM25.7467 20.0046C25.7334 20.0046 25.7201 20.0046 25.7067 20.0046C25.5201 20.0179 25.2667 20.1912 24.9867 20.4712L20.2667 25.1912C20.2267 25.2312 20.1601 25.3646 20.1601 25.4179L19.9201 27.0846L21.5867 26.8446C21.6401 26.8312 21.7734 26.7646 21.8134 26.7246L26.5334 22.0046C26.8134 21.7113 26.9867 21.4713 27.0001 21.2846C27.0267 21.0179 26.7601 20.6979 26.5334 20.4712C26.3201 20.2579 26.0134 20.0046 25.7467 20.0046Z" fill="#F4663E"/>
<path d="M26.5601 24.4045C26.4668 24.4045 26.3734 24.3912 26.2934 24.3645C24.5334 23.8712 23.1335 22.4712 22.6401 20.7112C22.4935 20.1779 22.8001 19.6312 23.3334 19.4712C23.8668 19.3245 24.4135 19.6312 24.5601 20.1645C24.8668 21.2579 25.7334 22.1245 26.8268 22.4312C27.3601 22.5778 27.6668 23.1379 27.5201 23.6712C27.4001 24.1112 27.0001 24.4045 26.5601 24.4045Z" fill="#F4663E"/>
</g>
<defs>
<clipPath id="clip0_230_2334">
<rect width="32" height="32" fill="white" transform="translate(0 0.0712891)"/>
</clipPath>
</defs>
</svg>
