<svg width="30" height="30" viewBox="0 0 30 30" fill="none" xmlns="http://www.w3.org/2000/svg">
<g clip-path="url(#clip0_1_47903)">
<rect y="0.272949" width="29.4545" height="29.4545" rx="10" fill="url(#paint0_linear_1_47903)"/>
<rect y="0.272949" width="29.4545" height="29.4545" rx="10" fill="#F4663E" fill-opacity="0.5" style="mix-blend-mode:overlay"/>
<rect x="0.5" y="0.772949" width="28.4545" height="28.4545" rx="9.5" stroke="white" stroke-opacity="0.12"/>
<path d="M9.11474 17.25C8.32428 17.25 7.59269 17.5275 7.01246 17.99C6.23883 18.6039 5.7511 19.5541 5.7511 20.6136C5.7511 21.2443 5.92769 21.8414 6.23883 22.3459C6.81905 23.3214 7.88701 23.9773 9.11474 23.9773C9.96405 23.9773 10.7377 23.6661 11.3263 23.1364C11.587 22.9177 11.8141 22.6486 11.9906 22.3459C12.3018 21.8414 12.4784 21.2443 12.4784 20.6136C12.4784 18.7552 10.9731 17.25 9.11474 17.25ZM10.8554 20.252L9.06428 21.9086C8.94655 22.018 8.78678 22.0768 8.63542 22.0768C8.47564 22.0768 8.31587 22.018 8.18974 21.8918L7.35724 21.0593C7.11337 20.8155 7.11337 20.4118 7.35724 20.168C7.6011 19.9241 8.00474 19.9241 8.2486 20.168L8.65223 20.5716L9.99769 19.327C10.25 19.0916 10.6536 19.1084 10.8891 19.3607C11.1245 19.613 11.1077 20.0166 10.8554 20.252Z" fill="white"/>
<path d="M17.3977 7.95759V11.153H16.1363V7.95759C16.1363 7.73055 15.9345 7.62123 15.8 7.62123C15.7579 7.62123 15.7159 7.62964 15.6738 7.64645L9.00541 10.1608C8.55972 10.329 8.27381 10.7494 8.27381 11.2287V11.7921C7.50859 12.364 7.01245 13.2805 7.01245 14.3149V11.2287C7.01245 10.228 7.62631 9.33668 8.55972 8.9835L15.2365 6.46077C15.4215 6.3935 15.615 6.35986 15.8 6.35986C16.6409 6.35986 17.3977 7.041 17.3977 7.95759Z" fill="white"/>
<path d="M22.9903 16.8296V17.6705C22.9903 17.8976 22.8137 18.0826 22.5782 18.091H21.3505C20.9048 18.091 20.5012 17.763 20.4675 17.3258C20.4423 17.0651 20.5432 16.8212 20.7114 16.653C20.8628 16.4933 21.073 16.4092 21.3 16.4092H22.5698C22.8137 16.4176 22.9903 16.6026 22.9903 16.8296Z" fill="white"/>
<path d="M21.2911 15.526H22.1488C22.6113 15.526 22.9897 15.1476 22.9897 14.6851V14.3151C22.9897 12.5745 21.5686 11.1533 19.8279 11.1533H10.1743C9.4595 11.1533 8.80359 11.3888 8.27381 11.7924C7.50859 12.3642 7.01245 13.2808 7.01245 14.3151V15.812C7.01245 16.1315 7.34881 16.3333 7.65154 16.2324C8.12245 16.0726 8.61859 15.9885 9.11472 15.9885C11.6627 15.9885 13.7397 18.0656 13.7397 20.6135C13.7397 21.219 13.58 21.8833 13.3277 22.472C13.1931 22.7747 13.4034 23.1363 13.7313 23.1363H19.8279C21.5686 23.1363 22.9897 21.7151 22.9897 19.9745V19.8147C22.9897 19.3522 22.6113 18.9738 22.1488 18.9738H21.4172C20.61 18.9738 19.8363 18.4776 19.6261 17.6956C19.4579 17.0565 19.6597 16.4342 20.0802 16.0306C20.3913 15.711 20.8202 15.526 21.2911 15.526ZM16.6829 15.3579H12.4784C12.1336 15.3579 11.8477 15.072 11.8477 14.7272C11.8477 14.3824 12.1336 14.0965 12.4784 14.0965H16.6829C17.0277 14.0965 17.3136 14.3824 17.3136 14.7272C17.3136 15.072 17.0277 15.3579 16.6829 15.3579Z" fill="white"/>
</g>
<defs>
<linearGradient id="paint0_linear_1_47903" x1="29.4545" y1="15.0002" x2="1.09743e-09" y2="15.0002" gradientUnits="userSpaceOnUse">
<stop stop-color="#BFBFBF"/>
<stop offset="1" stop-color="#767676"/>
</linearGradient>
<clipPath id="clip0_1_47903">
<rect width="29.4545" height="29.4545" fill="white" transform="translate(0 0.272949)"/>
</clipPath>
</defs>
</svg>
