<svg width="32" height="32" viewBox="0 0 32 32" fill="none" xmlns="http://www.w3.org/2000/svg">
<g clip-path="url(#clip0_86_9342)">
<rect x="0.5" y="0.5" width="31" height="31" rx="7.5" stroke="white" stroke-opacity="0.12"/>
<path d="M11.6243 13.332H8.32031V23.9931H11.6243V13.332Z" fill="white"/>
<path d="M9.95388 11.9392C11.0356 11.9392 11.9078 11.0592 11.9078 9.96962C11.9078 8.88004 11.0356 8 9.95388 8C8.87212 8 8 8.88004 8 9.96962C8 11.0592 8.87212 11.9392 9.95388 11.9392Z" fill="white"/>
<path d="M16.8964 18.4015C16.8964 16.9012 17.584 16.0128 18.909 16.0128C20.1249 16.0128 20.7035 16.8677 20.7035 18.4015V24.0002H23.9907V17.2449C23.9907 14.3868 22.3723 13.0039 20.1081 13.0039C17.844 13.0039 16.8964 14.764 16.8964 14.764V13.3308H13.7266V23.9919H16.8964V18.3931V18.4015Z" fill="white"/>
</g>
<defs>
<clipPath id="clip0_86_9342">
<rect width="32" height="32" fill="white"/>
</clipPath>
</defs>
</svg>
