<svg width="31" height="30" viewBox="0 0 31 30" fill="none" xmlns="http://www.w3.org/2000/svg">
<g clip-path="url(#clip0_22_25096)">
<g filter="url(#filter0_d_22_25096)">
<rect x="0.444458" width="30" height="30" rx="10" fill="url(#paint0_linear_22_25096)"/>
<rect x="0.444458" width="30" height="30" rx="10" fill="url(#paint1_linear_22_25096)" fill-opacity="0.6"/>
<rect x="0.444458" width="30" height="30" rx="10" fill="#F4663E" fill-opacity="0.5" style="mix-blend-mode:overlay"/>
<rect x="0.444458" width="30" height="30" rx="10" fill="#F4663E"/>
<rect x="0.944458" y="0.5" width="29" height="29" rx="9.5" stroke="white" stroke-opacity="0.12"/>
<path d="M24.6313 19.3999C24.3258 21.8628 22.3072 23.8813 19.8443 24.1869C18.3535 24.3721 16.9647 23.9647 15.8813 23.1684C15.261 22.7147 15.4091 21.7517 16.1498 21.5295C18.9369 20.6869 21.1313 18.4832 21.9832 15.6962C22.2054 14.9647 23.1684 14.8165 23.6221 15.4276C24.4091 16.5202 24.8165 17.9091 24.6313 19.3999Z" fill="white"/>
<path d="M13.5852 5.74243C9.50183 5.74243 6.18701 9.05725 6.18701 13.1406C6.18701 17.2239 9.50183 20.5387 13.5852 20.5387C17.6685 20.5387 20.9833 17.2239 20.9833 13.1406C20.974 9.05725 17.6685 5.74243 13.5852 5.74243ZM12.7148 12.1035L14.9463 12.8813C15.7518 13.1684 16.1407 13.7332 16.1407 14.6035C16.1407 15.6035 15.3444 16.4276 14.3722 16.4276H14.2889V16.4739C14.2889 16.8535 13.974 17.1684 13.5944 17.1684C13.2148 17.1684 12.9 16.8535 12.9 16.4739V16.4184C11.8722 16.3721 11.0481 15.511 11.0481 14.4369C11.0481 14.0572 11.3629 13.7424 11.7426 13.7424C12.1222 13.7424 12.437 14.0572 12.437 14.4369C12.437 14.7702 12.6778 15.0387 12.974 15.0387H14.3629C14.5759 15.0387 14.7426 14.8443 14.7426 14.6035C14.7426 14.2795 14.687 14.2609 14.474 14.1869L12.2426 13.4091C11.4463 13.1313 11.0481 12.5665 11.0481 11.6869C11.0481 10.6869 11.8444 9.8628 12.8166 9.8628H12.9V9.82576C12.9 9.44614 13.2148 9.13132 13.5944 9.13132C13.974 9.13132 14.2889 9.44614 14.2889 9.82576V9.88132C15.3166 9.92762 16.1407 10.7887 16.1407 11.8628C16.1407 12.2424 15.8259 12.5572 15.4463 12.5572C15.0666 12.5572 14.7518 12.2424 14.7518 11.8628C14.7518 11.5295 14.5111 11.261 14.2148 11.261H12.8259C12.6129 11.261 12.4463 11.4554 12.4463 11.6961C12.437 12.011 12.4926 12.0295 12.7148 12.1035Z" fill="white"/>
<rect x="9.89062" y="8.89062" width="7.22222" height="8.88889" fill="white"/>
</g>
</g>
<defs>
<filter id="filter0_d_22_25096" x="-4.55554" y="-4" width="40" height="40" filterUnits="userSpaceOnUse" color-interpolation-filters="sRGB">
<feFlood flood-opacity="0" result="BackgroundImageFix"/>
<feColorMatrix in="SourceAlpha" type="matrix" values="0 0 0 0 0 0 0 0 0 0 0 0 0 0 0 0 0 0 127 0" result="hardAlpha"/>
<feOffset dy="1"/>
<feGaussianBlur stdDeviation="2.5"/>
<feComposite in2="hardAlpha" operator="out"/>
<feColorMatrix type="matrix" values="0 0 0 0 0.988235 0 0 0 0 0.721569 0 0 0 0 0.192157 0 0 0 0.32 0"/>
<feBlend mode="normal" in2="BackgroundImageFix" result="effect1_dropShadow_22_25096"/>
<feBlend mode="normal" in="SourceGraphic" in2="effect1_dropShadow_22_25096" result="shape"/>
</filter>
<linearGradient id="paint0_linear_22_25096" x1="0.444457" y1="1.66667" x2="15.9656" y2="36.7688" gradientUnits="userSpaceOnUse">
<stop stop-color="#FFB633"/>
<stop offset="1" stop-color="#E8C774"/>
</linearGradient>
<linearGradient id="paint1_linear_22_25096" x1="15.4445" y1="0" x2="15.4445" y2="30" gradientUnits="userSpaceOnUse">
<stop stop-color="#E5FF47" stop-opacity="0"/>
<stop offset="1" stop-color="#FFAA47"/>
</linearGradient>
<clipPath id="clip0_22_25096">
<rect width="30" height="30" fill="white" transform="translate(0.444458)"/>
</clipPath>
</defs>
</svg>
