<svg width="24" height="24" viewBox="0 0 24 24" fill="none" xmlns="http://www.w3.org/2000/svg">
<g clip-path="url(#clip0_86_9338)">
<path d="M16 5H8C5.6 5 4 6.14706 4 8.82353V14.1765C4 16.8529 5.6 18 8 18H16C18.4 18 20 16.8529 20 14.1765V8.82353C20 6.14706 18.4 5 16 5ZM16.376 9.65706L13.872 11.5688C13.344 11.9741 12.672 12.1729 12 12.1729C11.328 12.1729 10.648 11.9741 10.128 11.5688L7.624 9.65706C7.368 9.45824 7.328 9.09118 7.528 8.84647C7.736 8.60176 8.112 8.55588 8.368 8.75471L10.872 10.6665C11.48 11.1329 12.512 11.1329 13.12 10.6665L15.624 8.75471C15.88 8.55588 16.264 8.59412 16.464 8.84647C16.672 9.09118 16.632 9.45824 16.376 9.65706Z" fill="#F4663E"/>
</g>
<defs>
<clipPath id="clip0_86_9338">
<rect width="24" height="24" fill="white"/>
</clipPath>
</defs>
</svg>
