<svg width="153" height="25" viewBox="0 0 153 25" fill="none" xmlns="http://www.w3.org/2000/svg">
<g clip-path="url(#clip0_2_48056)">
<g opacity="0.8" clip-path="url(#clip1_2_48056)">
<path d="M12.3917 12.2863V11.7996C13.9903 11.6611 14.069 11.5712 14.0502 9.72549L13.9903 2.61576H13.9117L9.10076 12.1628H8.70391L4.28606 2.85911H4.24862L3.94911 7.82731C3.87049 9.2575 3.87049 10.0213 3.88921 10.7214C3.93039 11.5563 4.40212 11.6798 5.70501 11.8034V12.2901H1.11121V11.8034C2.25685 11.6798 2.64996 11.4889 2.78849 10.7588C2.88583 10.1486 3.00564 9.38105 3.16288 7.56898L3.43993 3.94485C3.6159 1.67977 3.51856 1.60864 1.72521 1.45139V0.960938H4.95997L9.45269 9.67307L14.0091 0.960938H17.3636V1.44765C15.6264 1.58617 15.4917 1.62361 15.5478 3.41696L15.7462 9.72549C15.8061 11.5712 15.8661 11.6611 17.5808 11.7996V12.2863H12.3917Z" fill="white"/>
<path d="M25.5106 0.698975C28.8427 0.698975 31.8603 2.99775 31.8603 6.48335C31.8603 10.246 28.8801 12.5485 25.2709 12.5485C21.6992 12.5485 18.8613 10.0925 18.8613 6.74543C18.8613 3.60801 21.3473 0.698975 25.4918 0.698975H25.5106ZM25.0763 1.32796C22.8861 1.32796 20.8756 3.00149 20.8756 6.25872C20.8756 9.53466 22.9085 11.9233 25.6865 11.9233C27.8767 11.9233 29.8498 10.3022 29.8498 6.95883C29.8498 3.28229 27.6783 1.3317 25.095 1.3317H25.0763V1.32796Z" fill="white"/>
<path d="M44.9189 12.4249C44.683 12.4249 44.4658 12.4249 44.23 12.4061C42.7511 12.335 41.9237 11.9531 41.0364 10.8187C40.3475 9.9651 39.6362 8.8831 39.0446 8.02949C38.7077 7.54277 38.3745 7.33311 37.3486 7.33311H36.7159V10.1036C36.7159 11.5862 36.8919 11.6911 38.4718 11.7921V12.2789H33.2827V11.7921C34.9001 11.6873 35.0761 11.5825 35.0761 10.1036V3.10247C35.0761 1.61987 34.9188 1.56745 33.3801 1.44765V0.960938H38.2734C39.7148 0.960938 40.6807 1.11818 41.4295 1.55248C42.2195 2.0055 42.7324 2.78798 42.7324 3.83628C42.7324 5.33385 41.6878 6.2586 40.2277 6.81645C40.5647 7.39302 41.3921 8.55738 41.9836 9.34361C42.695 10.2496 43.0881 10.7027 43.5823 11.1557C44.1139 11.6798 44.5669 11.8708 45.0012 11.9756L44.9189 12.4249ZM37.6594 6.76404C38.6665 6.76404 39.3179 6.62551 39.8084 6.27732C40.5759 5.75317 40.8941 5.0568 40.8941 4.11707C40.8941 2.23388 39.4939 1.5375 37.9963 1.5375C37.4235 1.5375 37.0903 1.60864 36.9331 1.71347C36.7945 1.79958 36.7159 2.00924 36.7159 2.48097V6.76404H37.6594Z" fill="white"/>
<path d="M58.2922 7.51294C57.1091 7.67018 57.0305 7.75629 57.0305 8.78587V10.2685C57.0305 10.8787 57.0492 11.4366 57.169 11.9046C55.9447 12.1666 54.3273 12.5485 52.7511 12.5485C48.4119 12.5485 45.5104 10.1599 45.5104 6.71173C45.5104 2.66828 49.1794 0.698975 53.0469 0.698975C54.683 0.698975 56.2031 1.08086 56.8358 1.20441C56.8957 1.81467 56.993 2.77311 57.1503 3.9225L56.5962 4.02733C56.1244 1.90078 54.6231 1.32796 52.7511 1.32796C49.7335 1.32796 47.5246 3.27855 47.5246 6.50207C47.5246 9.01051 49.2019 11.9383 53.0095 11.9383C53.6796 11.9383 54.2899 11.8147 54.7242 11.6238C55.1173 11.4328 55.3569 11.2232 55.3569 10.4894V9.01051C55.3569 7.75629 55.2184 7.65146 53.2865 7.51294V7.0412H58.2959V7.51294H58.2922Z" fill="white"/>
<path d="M67.1874 12.2865V11.7997C68.4304 11.6612 68.6064 11.5227 68.3518 10.8413C68.0972 10.1599 67.7004 9.22017 67.2661 8.15689H63.0654C62.7509 8.93937 62.4551 9.67319 62.1968 10.4033C61.7625 11.5002 61.9422 11.6762 63.421 11.796V12.2827H59.1417V11.796C60.3847 11.6388 60.6618 11.5339 61.3506 10.0027L65.4315 0.85622L66.0418 0.698975C67.2661 3.69787 68.5877 7.0075 69.8494 10.0401C70.4821 11.5377 70.7367 11.6949 72.0209 11.7997V12.2865H67.1874ZM65.2556 2.96406H65.2144C64.5817 4.46163 63.9527 5.97792 63.3611 7.40811H66.989L65.2556 2.96406Z" fill="white"/>
<path d="M86.5551 1.44765C85.4506 1.50006 84.9789 1.7247 84.8965 2.49221C84.8179 3.01636 84.7767 3.79884 84.7767 5.41996V12.4436H84.1665L75.7688 3.31213H75.7276V7.68504C75.7276 9.28745 75.7875 10.1261 75.8475 10.6315C75.9448 11.5188 76.4016 11.7285 77.7419 11.7996V12.2863H73.0657V11.7996C74.2113 11.7472 74.7018 11.5226 74.8029 10.6652C74.8628 10.1261 74.9227 9.28745 74.9227 7.68504V3.85125C74.9227 2.57832 74.8815 2.51093 74.5296 2.09161C74.1365 1.65731 73.7022 1.51504 72.7737 1.44765V0.960938H75.694L83.9194 9.70677H83.9793V5.41996C83.9793 3.81756 83.9006 3.01636 83.8407 2.5259C83.7434 1.74342 83.2679 1.51504 81.9089 1.44391V0.960938H86.5626V1.44765H86.5551Z" fill="white"/>
<path d="M104.189 9.41103C103.912 10.2122 103.422 11.5001 103.066 12.0767C102.512 12.2003 100.857 12.5484 99.438 12.5484C94.526 12.5484 92.377 9.54955 92.377 6.78279C92.377 3.12496 95.5705 0.702637 99.9697 0.702637C101.568 0.702637 102.909 1.08452 103.463 1.17437C103.62 2.16651 103.74 2.86289 103.856 3.80636L103.264 3.92991C102.751 2.08415 101.568 1.33536 99.438 1.33536C96.1434 1.33536 94.3875 3.79138 94.3875 6.44209C94.3875 9.69931 96.5589 11.9307 99.5541 11.9307C101.565 11.9307 102.632 10.9722 103.616 9.23132L104.189 9.41103Z" fill="white"/>
<path d="M116.99 12.4249C116.754 12.4249 116.537 12.4249 116.301 12.4061C114.822 12.335 113.995 11.9531 113.107 10.8187C112.418 9.9651 111.707 8.8831 111.115 8.02949C110.778 7.54277 110.445 7.33311 109.419 7.33311H108.787V10.1036C108.787 11.5862 108.963 11.6911 110.543 11.7921V12.2789H105.354V11.7921C106.971 11.6873 107.147 11.5825 107.147 10.1036V3.10247C107.147 1.61987 106.99 1.56745 105.451 1.44765V0.960938H110.344C111.786 0.960938 112.752 1.11818 113.5 1.55248C114.29 2.0055 114.803 2.78798 114.803 3.83628C114.803 5.33385 113.759 6.2586 112.299 6.81645C112.635 7.39302 113.463 8.55738 114.054 9.34361C114.766 10.2496 115.159 10.7027 115.653 11.1557C116.185 11.6798 116.638 11.8708 117.072 11.9756L116.99 12.4249ZM109.734 6.76404C110.741 6.76404 111.392 6.62551 111.883 6.27732C112.65 5.75317 112.969 5.0568 112.969 4.11707C112.969 2.23388 111.568 1.5375 110.071 1.5375C109.498 1.5375 109.165 1.60864 109.008 1.71347C108.869 1.79958 108.79 2.00924 108.79 2.48097V6.76404H109.734Z" fill="white"/>
<path d="M127.641 9.53455C127.521 10.1111 127.128 11.7472 126.952 12.2863H117.446V11.7996C119.24 11.6761 119.4 11.5376 119.4 10.1261V3.19232C119.4 1.62361 119.243 1.5712 117.704 1.45139V0.960938H126.503C126.503 1.39523 126.6 2.58206 126.66 3.46937L126.087 3.55548C125.911 2.82542 125.713 2.43979 125.454 2.05791C125.177 1.691 124.646 1.5712 123.227 1.5712H121.729C121.119 1.5712 121.078 1.60489 121.078 2.12905V6.08264H122.931C124.706 6.08264 124.803 5.94411 125.061 4.77601H125.634V8.12308H125.061C124.807 6.86887 124.668 6.76404 122.95 6.76404H121.078V10.0587C121.078 10.8786 121.198 11.2418 121.55 11.4702C121.924 11.6798 122.613 11.6985 123.601 11.6985C125.099 11.6985 125.653 11.56 126.087 11.107C126.424 10.7588 126.799 10.1673 127.053 9.4709L127.641 9.53455Z" fill="white"/>
<path d="M138.847 9.53455C138.727 10.1111 138.334 11.7472 138.158 12.2863H128.652V11.7996C130.445 11.6761 130.606 11.5376 130.606 10.1261V3.19232C130.606 1.62361 130.449 1.5712 128.91 1.45139V0.960938H137.709C137.709 1.39523 137.806 2.58206 137.866 3.46937L137.293 3.55548C137.117 2.82542 136.919 2.43979 136.66 2.05791C136.383 1.691 135.852 1.5712 134.433 1.5712H132.935C132.325 1.5712 132.284 1.60489 132.284 2.12905V6.08264H134.137C135.912 6.08264 136.009 5.94411 136.267 4.77601H136.84V8.12308H136.267C136.013 6.86887 135.874 6.76404 134.156 6.76404H132.284V10.0587C132.284 10.8786 132.404 11.2418 132.755 11.4702C133.13 11.6798 133.819 11.6985 134.807 11.6985C136.305 11.6985 136.859 11.56 137.293 11.107C137.63 10.7588 138.004 10.1673 138.259 9.4709L138.847 9.53455Z" fill="white"/>
<path d="M149.397 12.2863C147.877 10.77 146.282 9.06281 144.504 7.21705C144.051 6.74532 143.774 6.67793 143.441 6.73034V10.04C143.441 11.575 143.639 11.6948 145.256 11.7996V12.2863H140.127V11.7996C141.625 11.6948 141.805 11.5712 141.805 10.04V3.22602C141.805 1.63859 141.629 1.55248 140.067 1.44765V0.960938H145.155V1.44765C143.635 1.55248 143.441 1.67603 143.441 3.22602V6.27358C143.875 6.16875 144.268 5.92539 144.822 5.47238C145.908 4.54763 147.248 3.34582 148.136 2.38738C148.708 1.7584 148.708 1.58617 147.799 1.50006L147.364 1.44765V0.960938H152.097V1.44765C150.599 1.5712 150.142 1.74342 148.881 2.75428C148.132 3.36454 146.732 4.60004 145.388 5.80185C146.885 7.43794 149.038 9.60194 150.023 10.5417C151.067 11.5338 151.464 11.6911 152.43 11.7959V12.2826H149.397V12.2863Z" fill="white"/>
<path d="M6.77481 22.6759C6.65126 23.0578 6.40791 23.6568 6.24692 23.9264C5.99233 23.9751 5.15743 24.1323 4.50973 24.1323C2.06494 24.1323 1.03162 22.762 1.03162 21.5041C1.03162 19.8642 2.52545 18.7485 4.71565 18.7485C5.47567 18.7485 6.15332 18.9133 6.40791 18.9619C6.49402 19.3962 6.55766 19.7557 6.61382 20.2199L6.29559 20.2761C6.01479 19.3738 5.34463 19.0705 4.50973 19.0705C3.07206 19.0705 2.29332 20.1637 2.29332 21.3431C2.29332 22.807 3.263 23.7916 4.59584 23.7916C5.44197 23.7916 5.99607 23.3648 6.46781 22.5711L6.77481 22.6759Z" fill="white"/>
<path d="M13.4466 24.0125V23.7617C14.0119 23.6905 14.0756 23.6119 13.9371 23.2712C13.8322 23.0091 13.675 22.6385 13.5065 22.2566H11.6345C11.511 22.5411 11.38 22.8519 11.2676 23.1664C11.1066 23.5932 11.1553 23.698 11.8405 23.7617V24.0162H9.76257V23.7617C10.3728 23.698 10.4964 23.6194 10.8146 22.938L12.7502 18.8421L13.1621 18.7485C13.7536 20.1263 14.3451 21.5527 14.9592 22.9155C15.2699 23.6119 15.3897 23.7092 15.9925 23.7617V24.0162H13.4466V24.0125ZM12.6005 20.0439H12.5818C12.301 20.6542 12.0464 21.2719 11.7843 21.8672H13.353L12.6005 20.0439Z" fill="white"/>
<path d="M21.6979 18.8645C22.413 18.8645 22.9484 18.9506 23.3228 19.1752C23.7346 19.4298 23.9892 19.808 23.9892 20.3321C23.9892 21.3767 23.057 21.8671 22.091 21.9645C21.9488 21.9795 21.799 21.9795 21.6867 21.9795L21.0278 21.8372V22.9866C21.0278 23.6605 21.1139 23.7092 21.9301 23.7616V24.0162H19.1371V23.7616C19.8597 23.7054 19.9458 23.6492 19.9458 22.9866V19.8978C19.9458 19.2164 19.8597 19.1752 19.1932 19.1228V18.8682H21.6979V18.8645ZM21.0315 21.5414C21.1438 21.5901 21.361 21.6275 21.6043 21.6275C22.0461 21.6275 22.7987 21.3991 22.7987 20.3508C22.7987 19.4635 22.1772 19.1453 21.5407 19.1453C21.3235 19.1453 21.185 19.1865 21.1289 19.2314C21.0615 19.2801 21.0353 19.3662 21.0353 19.5159V21.5414H21.0315Z" fill="white"/>
<path d="M27.2466 24.0123V23.7615C27.9692 23.7128 28.0553 23.6567 28.0553 22.9865V19.8977C28.0553 19.2238 27.9692 19.1677 27.2466 19.1228V18.8682H29.946V19.1228C29.2234 19.1714 29.1485 19.2276 29.1485 19.8977V22.9865C29.1485 23.6604 29.2234 23.7166 29.946 23.7615V24.0161H27.2466V24.0123Z" fill="white"/>
<path d="M38.3363 20.1711C38.2239 19.7667 38.1116 19.5309 37.9619 19.3886C37.8009 19.2314 37.595 19.1827 36.9847 19.1827H36.4755V22.994C36.4755 23.6529 36.5616 23.7166 37.4153 23.7615V24.0161H34.4838V23.7615C35.2999 23.7128 35.386 23.6492 35.386 22.994V19.1827H34.9742C34.1955 19.1827 34.0158 19.2613 33.8847 19.4111C33.7425 19.5458 33.6414 19.8004 33.529 20.1711H33.2108C33.2483 19.632 33.3044 19.0778 33.3231 18.666H33.5403C33.6826 18.8495 33.8024 18.8644 34.0682 18.8644H37.8271C38.0704 18.8644 38.1828 18.8158 38.3438 18.666H38.5609C38.5609 19.0067 38.6096 19.6656 38.6545 20.1486L38.3363 20.1711Z" fill="white"/>
<path d="M44.6147 24.0125V23.7617C45.18 23.6905 45.2437 23.6119 45.1052 23.2712C45.0003 23.0091 44.8431 22.6385 44.6746 22.2566H42.8026C42.6791 22.5411 42.548 22.8519 42.4357 23.1664C42.2747 23.5932 42.3234 23.698 43.0085 23.7617V24.0162H40.9307V23.7617C41.5409 23.698 41.6645 23.6194 41.9827 22.938L43.9183 18.8421L44.3302 18.7485C44.9217 20.1263 45.5132 21.5527 46.1272 22.9155C46.438 23.6119 46.5578 23.7092 47.1606 23.7617V24.0162H44.6147V24.0125ZM43.7686 20.0439H43.7498C43.469 20.6542 43.2145 21.2719 42.9524 21.8672H44.5211L43.7686 20.0439Z" fill="white"/>
<path d="M55.0416 22.7057C54.9667 23.0052 54.7796 23.7914 54.6934 24.0123H50.2382V23.7615C51.0468 23.7128 51.1292 23.6567 51.1292 22.9865V19.8977C51.1292 19.2163 51.0543 19.1677 50.313 19.1228V18.8682H53.0311V19.1228C52.3086 19.1714 52.2224 19.2163 52.2224 19.8977V23.0015C52.2224 23.3983 52.2599 23.5481 52.4471 23.6192C52.6156 23.6829 52.8889 23.6978 53.2183 23.6978C53.6713 23.6978 53.9971 23.6492 54.2142 23.4358C54.3939 23.2785 54.5624 23.0239 54.7234 22.6346L55.0416 22.7057Z" fill="white"/>
<path d="M67.8497 24.0124V23.7503C68.5835 23.6942 68.621 23.638 68.6097 22.8705L68.591 19.7593H68.5536L66.3933 23.9563H66.1574L64.1732 19.8454H64.1432L64.0197 21.9757C63.9822 22.6346 63.9822 22.9978 64.0084 23.2749C64.0384 23.6305 64.2331 23.7017 64.862 23.7503V24.0124H62.6232V23.7503C63.1586 23.7092 63.3383 23.5856 63.4019 23.2823C63.4581 23.0278 63.5255 22.6421 63.5891 21.811L63.7314 20.2123C63.8063 19.2688 63.7426 19.1827 62.9227 19.1191V18.8645H64.7198L66.6554 22.5073L68.621 18.8645H70.4068V19.1191C69.6281 19.1827 69.5794 19.2314 69.5981 19.9428L69.6917 22.8743C69.7104 23.6418 69.7479 23.6904 70.5079 23.7541V24.0162H67.8497V24.0124Z" fill="white"/>
<path d="M77.288 24.0125V23.7617C77.8534 23.6905 77.917 23.6119 77.7785 23.2712C77.6737 23.0091 77.5164 22.6385 77.3479 22.2566H75.476C75.3524 22.5411 75.2214 22.8519 75.1091 23.1664C74.9481 23.5932 74.9967 23.698 75.6819 23.7617V24.0162H73.604V23.7617C74.2143 23.698 74.3378 23.6194 74.656 22.938L76.5917 18.8421L77.0035 18.7485C77.595 20.1263 78.1866 21.5527 78.8006 22.9155C79.1113 23.6119 79.2311 23.7092 79.8339 23.7617V24.0162H77.288V24.0125ZM76.4419 20.0439H76.4232C76.1424 20.6542 75.8878 21.2719 75.6257 21.8672H77.1944L76.4419 20.0439Z" fill="white"/>
<path d="M89.4223 19.1191C88.9131 19.1416 88.7072 19.2464 88.6622 19.6021C88.6248 19.8492 88.5874 20.2123 88.5874 20.9237V24.091H88.1942L84.2481 20.0663H84.2294V21.927C84.2294 22.6309 84.2669 22.9866 84.2968 23.2262C84.3455 23.5968 84.5327 23.7241 85.1991 23.7578V24.0124H82.934V23.7616C83.4619 23.7316 83.6865 23.6118 83.724 23.2561C83.7614 22.9941 83.8101 22.6384 83.8101 21.9345V20.2423C83.8101 19.6957 83.7914 19.5946 83.6229 19.4111C83.4357 19.2127 83.2298 19.149 82.8142 19.1191V18.8645H84.4204L88.1343 22.5223H88.1643V20.9237C88.1643 20.2198 88.1156 19.8454 88.0969 19.617C88.0482 19.2688 87.8423 19.149 87.1647 19.1191V18.8645H89.4297V19.1191H89.4223Z" fill="white"/>
<path d="M95.6932 24.0125V23.7617C96.2585 23.6905 96.3222 23.6119 96.1836 23.2712C96.0788 23.0091 95.9216 22.6385 95.7531 22.2566H93.8811C93.7576 22.5411 93.6265 22.8519 93.5142 23.1664C93.3532 23.5932 93.4019 23.698 94.087 23.7617V24.0162H92.0092V23.7617C92.6194 23.698 92.743 23.6194 93.0612 22.938L94.9968 18.8421L95.4086 18.7485C96.0002 20.1263 96.5917 21.5527 97.2057 22.9155C97.5165 23.6119 97.6363 23.7092 98.2391 23.7617V24.0162H95.6932V24.0125ZM94.8471 20.0439H94.8283C94.5475 20.6542 94.293 21.2719 94.0309 21.8672H95.5996L94.8471 20.0439Z" fill="white"/>
<path d="M107.337 21.8373C106.828 21.9084 106.783 21.9496 106.783 22.455V23.0952C106.783 23.3798 106.794 23.6344 106.85 23.8478C106.277 23.9601 105.469 24.1323 104.716 24.1323C102.575 24.1323 101.182 23.0803 101.182 21.4966C101.182 19.6733 102.919 18.7485 104.858 18.7485C105.63 18.7485 106.352 18.9058 106.682 18.9769C106.712 19.2465 106.757 19.6733 106.831 20.2536L106.513 20.3098C106.277 19.3925 105.581 19.0593 104.69 19.0593C103.451 19.0593 102.444 19.9316 102.444 21.373C102.444 22.5524 103.177 23.8291 104.821 23.8291C105.057 23.8291 105.3 23.7991 105.45 23.7167C105.611 23.6381 105.693 23.5183 105.693 23.2487V22.5262C105.693 21.9646 105.637 21.9084 104.679 21.8373V21.5827H107.337V21.8373Z" fill="white"/>
<path d="M115.48 22.7207C115.424 23.0464 115.237 23.7727 115.15 24.0123H110.452V23.7615C111.268 23.7053 111.354 23.6492 111.354 22.994V19.9052C111.354 19.2089 111.268 19.1677 110.575 19.1228V18.8682H114.918C114.93 19.0254 114.974 19.572 115.012 20.04L114.694 20.0812C114.608 19.7817 114.495 19.5496 114.345 19.3998C114.196 19.2426 113.941 19.1864 113.357 19.1864H112.803C112.474 19.1864 112.447 19.2014 112.447 19.456V21.1894H113.17C113.997 21.1894 114.091 21.1407 114.214 20.5866H114.525V22.1516H114.214C114.091 21.59 113.99 21.5488 113.181 21.5488H112.447V22.9603C112.447 23.3422 112.496 23.5294 112.672 23.608C112.852 23.6866 113.181 23.6941 113.574 23.6941C114.147 23.6941 114.447 23.6379 114.664 23.432C114.843 23.2673 115.012 23.0052 115.173 22.672L115.48 22.7207Z" fill="white"/>
<path d="M123.657 24.0124V23.7503C124.391 23.6942 124.428 23.638 124.417 22.8705L124.398 19.7593H124.361L122.2 23.9563H121.965L119.98 19.8454H119.95L119.827 21.9757C119.789 22.6346 119.789 22.9978 119.816 23.2749C119.845 23.6305 120.04 23.7017 120.669 23.7503V24.0124H118.438V23.7503C118.973 23.7092 119.153 23.5856 119.216 23.2823C119.273 23.0278 119.34 22.6421 119.404 21.811L119.546 20.2123C119.621 19.2688 119.557 19.1827 118.737 19.1191V18.8645H120.534L122.47 22.5073L124.436 18.8645H126.221V19.1191C125.443 19.1827 125.394 19.2314 125.413 19.9428L125.506 22.8743C125.525 23.6418 125.562 23.6904 126.322 23.7541V24.0162H123.657V24.0124Z" fill="white"/>
<path d="M134.514 22.7207C134.458 23.0464 134.271 23.7727 134.185 24.0123H129.482V23.7615C130.298 23.7053 130.384 23.6492 130.384 22.994V19.9052C130.384 19.2089 130.298 19.1677 129.606 19.1228V18.8682H133.949C133.96 19.0254 134.005 19.572 134.042 20.04L133.724 20.0812C133.638 19.7817 133.526 19.5496 133.376 19.3998C133.226 19.2426 132.972 19.1864 132.387 19.1864H131.833C131.504 19.1864 131.478 19.2014 131.478 19.456V21.1894H132.2C133.028 21.1894 133.121 21.1407 133.245 20.5866H133.556V22.1516H133.245C133.121 21.59 133.02 21.5488 132.212 21.5488H131.478V22.9603C131.478 23.3422 131.526 23.5294 131.702 23.608C131.882 23.6866 132.212 23.6941 132.605 23.6941C133.177 23.6941 133.477 23.6379 133.694 23.432C133.874 23.2673 134.042 23.0052 134.203 22.672L134.514 22.7207Z" fill="white"/>
<path d="M144.061 19.1191C143.552 19.1416 143.346 19.2464 143.301 19.6021C143.264 19.8492 143.226 20.2123 143.226 20.9237V24.091H142.833L138.887 20.0663H138.868V21.927C138.868 22.6309 138.906 22.9866 138.936 23.2262C138.984 23.5968 139.172 23.7241 139.838 23.7578V24.0124H137.569V23.7616C138.097 23.7316 138.322 23.6118 138.359 23.2561C138.397 22.9941 138.445 22.6384 138.445 21.9345V20.2423C138.445 19.6957 138.427 19.5946 138.258 19.4111C138.071 19.2127 137.865 19.149 137.449 19.1191V18.8645H139.055L142.769 22.5223H142.799V20.9237C142.799 20.2198 142.751 19.8454 142.732 19.617C142.683 19.2688 142.477 19.149 141.8 19.1191V18.8645H144.065V19.1191H144.061Z" fill="white"/>
<path d="M152.268 20.1711C152.155 19.7667 152.043 19.5309 151.893 19.3886C151.732 19.2314 151.526 19.1827 150.916 19.1827H150.407V22.994C150.407 23.6529 150.493 23.7166 151.347 23.7615V24.0161H148.415V23.7615C149.231 23.7128 149.318 23.6492 149.318 22.994V19.1827H148.906C148.127 19.1827 147.947 19.2613 147.816 19.4111C147.674 19.5458 147.573 19.8004 147.461 20.1711H147.142C147.18 19.632 147.236 19.0778 147.255 18.666H147.472C147.614 18.8495 147.734 18.8644 148 18.8644H151.759C152.002 18.8644 152.114 18.8158 152.275 18.666H152.492C152.492 19.0067 152.541 19.6656 152.586 20.1486L152.268 20.1711Z" fill="white"/>
<path opacity="0.3" d="M0.578979 15.1655H152.444" stroke="#FDFAF9" stroke-width="1.72221" stroke-miterlimit="3"/>
</g>
</g>
<defs>
<clipPath id="clip0_2_48056">
<rect width="152" height="23.4333" fill="white" transform="translate(0.579102 0.698975)"/>
</clipPath>
<clipPath id="clip1_2_48056">
<rect width="152" height="23.4333" fill="white" transform="translate(0.579102 0.698975)"/>
</clipPath>
</defs>
</svg>
