<svg width="30" height="30" viewBox="0 0 30 30" fill="none" xmlns="http://www.w3.org/2000/svg">
<g clip-path="url(#clip0_219_2970)">
<rect width="30" height="30" rx="10.3314" fill="url(#paint0_linear_219_2970)"/>
<rect x="0.516569" y="0.516569" width="28.9669" height="28.9669" rx="9.81481" stroke="white" stroke-opacity="0.12" stroke-width="1.03314"/>
<path d="M20.8331 17.5005C18.9914 17.5005 17.4998 18.9922 17.4998 20.8338C17.4998 21.4588 17.6748 22.0505 17.9831 22.5505C18.5581 23.5172 19.6164 24.1672 20.8331 24.1672C22.0498 24.1672 23.1081 23.5172 23.6831 22.5505C23.9914 22.0505 24.1664 21.4588 24.1664 20.8338C24.1664 18.9922 22.6748 17.5005 20.8331 17.5005ZM22.5581 20.4755L20.7831 22.1172C20.6664 22.2255 20.5081 22.2838 20.3581 22.2838C20.1998 22.2838 20.0414 22.2255 19.9164 22.1005L19.0914 21.2755C18.8498 21.0338 18.8498 20.6338 19.0914 20.3922C19.3331 20.1505 19.7331 20.1505 19.9748 20.3922L20.3748 20.7922L21.7081 19.5588C21.9581 19.3255 22.3581 19.3422 22.5914 19.5922C22.8248 19.8422 22.8081 20.2338 22.5581 20.4755Z" fill="white"/>
<path d="M23.3332 11.2918V11.6668C23.3332 12.1252 22.9582 12.5002 22.4998 12.5002H7.49984C7.0415 12.5002 6.6665 12.1252 6.6665 11.6668V11.2835C6.6665 9.37516 8.20817 7.8335 10.1165 7.8335H19.8748C21.7832 7.8335 23.3332 9.3835 23.3332 11.2918Z" fill="white"/>
<path d="M6.6665 14.5834V18.7167C6.6665 20.625 8.20817 22.1667 10.1165 22.1667H15.3332C15.8165 22.1667 16.2332 21.7584 16.1915 21.275C16.0748 20 16.4832 18.6167 17.6165 17.5167C18.0832 17.0584 18.6582 16.7084 19.2832 16.5084C20.3248 16.175 21.3332 16.2167 22.2248 16.5167C22.7665 16.7 23.3332 16.3084 23.3332 15.7334V14.575C23.3332 14.1167 22.9582 13.7417 22.4998 13.7417H7.49984C7.0415 13.75 6.6665 14.125 6.6665 14.5834ZM11.6665 19.375H9.99984C9.65817 19.375 9.37484 19.0917 9.37484 18.75C9.37484 18.4084 9.65817 18.125 9.99984 18.125H11.6665C12.0082 18.125 12.2915 18.4084 12.2915 18.75C12.2915 19.0917 12.0082 19.375 11.6665 19.375Z" fill="white"/>
</g>
<defs>
<linearGradient id="paint0_linear_219_2970" x1="31.5107" y1="-0.14123" x2="-2.06627" y2="20.005" gradientUnits="userSpaceOnUse">
<stop stop-color="#BFC6C8"/>
<stop offset="1" stop-color="#55595B"/>
</linearGradient>
<clipPath id="clip0_219_2970">
<rect width="30" height="30" fill="white"/>
</clipPath>
</defs>
</svg>
