<svg width="25" height="24" viewBox="0 0 25 24" fill="none" xmlns="http://www.w3.org/2000/svg">
<g clip-path="url(#clip0_86_9339)">
<path d="M5.75902 10.5804C7.38829 14.131 10.2874 16.954 13.8917 18.4844L14.4695 18.742C15.7914 19.3313 17.3453 18.8835 18.1515 17.6811L18.9066 16.5551C19.152 16.189 19.0773 15.6959 18.7344 15.419L16.1738 13.3521C15.7977 13.0485 15.2446 13.1192 14.9569 13.5077L14.1648 14.5772C12.1322 13.574 10.4819 11.9228 9.4793 9.88895L10.5482 9.09636C10.9364 8.80847 11.0071 8.2551 10.7037 7.87877L8.63787 5.31659C8.36126 4.97353 7.86859 4.8987 7.5027 5.14417L6.36955 5.90442C5.16031 6.71572 4.71535 8.28338 5.31789 9.60954L5.75836 10.579L5.75902 10.5804Z" fill="#F4663E"/>
</g>
<defs>
<clipPath id="clip0_86_9339">
<rect width="25" height="24" fill="white"/>
</clipPath>
</defs>
</svg>
