<svg width="25" height="24" viewBox="0 0 25 24" fill="none" xmlns="http://www.w3.org/2000/svg">
<g clip-path="url(#clip0_134_11158)">
<path d="M22.0557 12.75C22.4757 12.75 22.8057 12.41 22.8057 12C22.8057 11.58 22.4757 11.25 22.0557 11.25H20.8057V9.05H22.0557C22.4757 9.05 22.8057 8.72 22.8057 8.3C22.8057 7.89 22.4757 7.55 22.0557 7.55H20.5757C20.0957 5.96 18.8457 4.71 17.2557 4.23V2.75C17.2557 2.34 16.9157 2 16.5057 2C16.0957 2 15.7557 2.34 15.7557 2.75V4H13.5557V2.75C13.5557 2.34 13.2157 2 12.8057 2C12.3957 2 12.0557 2.34 12.0557 2.75V4H9.86566V2.75C9.86566 2.34 9.52566 2 9.11566 2C8.69566 2 8.36566 2.34 8.36566 2.75V4.23C6.76566 4.71 5.51566 5.96 5.03566 7.55H3.55566C3.14566 7.55 2.80566 7.89 2.80566 8.3C2.80566 8.72 3.14566 9.05 3.55566 9.05H4.80566V11.25H3.55566C3.14566 11.25 2.80566 11.58 2.80566 12C2.80566 12.41 3.14566 12.75 3.55566 12.75H4.80566V14.95H3.55566C3.14566 14.95 2.80566 15.28 2.80566 15.7C2.80566 16.11 3.14566 16.45 3.55566 16.45H5.03566C5.50566 18.04 6.76566 19.29 8.36566 19.77V21.25C8.36566 21.66 8.69566 22 9.11566 22C9.52566 22 9.86566 21.66 9.86566 21.25V20H12.0657V21.25C12.0657 21.66 12.3957 22 12.8157 22C13.2257 22 13.5657 21.66 13.5657 21.25V20H15.7557V21.25C15.7557 21.66 16.0957 22 16.5057 22C16.9157 22 17.2557 21.66 17.2557 21.25V19.77C18.8457 19.29 20.0957 18.04 20.5757 16.45H22.0557C22.4757 16.45 22.8057 16.11 22.8057 15.7C22.8057 15.28 22.4757 14.95 22.0557 14.95H20.8057V12.75H22.0557ZM18.0657 14.26C18.0657 15.91 16.7157 17.26 15.0657 17.26H10.5457C8.89566 17.26 7.54566 15.91 7.54566 14.26V9.74C7.54566 8.09 8.89566 6.74 10.5457 6.74H15.0657C16.7157 6.74 18.0657 8.09 18.0657 9.74V14.26Z" fill="#E1E6EF" fill-opacity="0.73"/>
<path d="M10.8257 16.2502H14.7957C16.0457 16.2502 17.0657 15.2402 17.0657 13.9802V10.0102C17.0657 8.76023 16.0557 7.74023 14.7957 7.74023H10.8257C9.57566 7.74023 8.55566 8.75023 8.55566 10.0102V13.9802C8.55566 15.2402 9.56566 16.2502 10.8257 16.2502Z" fill="#E1E6EF" fill-opacity="0.73"/>
</g>
<defs>
<clipPath id="clip0_134_11158">
<rect width="24" height="24" fill="white" transform="translate(0.805664)"/>
</clipPath>
</defs>
</svg>
