<svg width="32" height="32" viewBox="0 0 32 32" fill="none" xmlns="http://www.w3.org/2000/svg">
<g clip-path="url(#clip0_86_9344)">
<rect x="0.5" y="0.5" width="31" height="31" rx="7.5" stroke="white" stroke-opacity="0.12"/>
<path d="M23.9996 17.9826V19.2469C23.9792 19.4606 23.9662 19.6756 23.9345 19.8877C23.9241 19.9585 23.8819 20.045 23.8256 20.0857C22.7266 20.881 21.5295 21.4917 20.2377 21.92C19.8741 22.0407 19.8666 22.0439 19.6575 21.7231C19.4333 21.3793 19.2246 21.0259 18.9984 20.6594C19.2522 20.5499 19.4776 20.4597 19.6959 20.3559C19.9167 20.2509 20.1304 20.1323 20.3533 20.0161C20.1187 19.7423 20.077 19.7332 19.7977 19.8502C17.26 20.9131 14.7222 20.8995 12.1857 19.8456C11.9252 19.7373 11.838 19.7604 11.6368 20.0293C12.0822 20.2418 12.5217 20.4514 12.9975 20.6788C12.7133 21.119 12.4395 21.5477 12.1565 21.9706C12.1364 22.0007 12.045 22.0077 11.997 21.9929C10.6096 21.5654 9.3307 20.9238 8.15782 20.0775C8.114 20.0458 8.07059 19.9844 8.06558 19.9334C7.9412 18.6625 7.9917 17.3986 8.23462 16.1438C8.58899 14.3116 9.33488 12.6409 10.3767 11.0933C10.4168 11.0336 10.4835 10.9808 10.5495 10.9508C11.5333 10.5064 12.5613 10.2013 13.6244 10.0056C13.7088 9.99 13.7605 10.004 13.7993 10.0843C13.8978 10.2882 14.0139 10.4842 14.1011 10.6921C14.1545 10.8194 14.223 10.8338 14.349 10.8206C14.7886 10.7745 15.2302 10.7099 15.6705 10.7152C16.3404 10.723 17.0099 10.7811 17.6794 10.8243C17.785 10.8313 17.8451 10.8186 17.8915 10.7099C17.9816 10.4974 18.096 10.2947 18.1962 10.0864C18.2337 10.0077 18.2834 9.98959 18.3698 10.0052C19.4283 10.1976 20.4505 10.5039 21.4306 10.9438C21.5057 10.9775 21.5837 11.0368 21.6259 11.1052C21.9068 11.5553 22.1977 12.0009 22.4494 12.4667C23.2337 13.9175 23.7292 15.4602 23.9103 17.0976C23.9429 17.3924 23.97 17.6873 23.9996 17.9826ZM20.1229 16.5869C20.0811 16.3925 20.0603 16.1908 19.9947 16.0046C19.6462 15.0175 18.4842 14.7016 17.7429 15.3857C17.0592 16.0166 17.0546 17.1828 17.7337 17.8195C18.2842 18.3359 19.0915 18.326 19.6241 17.7936C19.9559 17.4616 20.0966 17.0527 20.1229 16.5869ZM14.8224 16.5853C14.756 16.3452 14.7205 16.0915 14.6183 15.8671C14.1892 14.9265 13.0359 14.7313 12.3422 15.4697C11.7391 16.1117 11.7729 17.2096 12.414 17.8154C12.9629 18.3343 13.7672 18.3269 14.3035 17.7944C14.6366 17.4637 14.7777 17.056 14.8224 16.5853Z" fill="white"/>
</g>
<defs>
<clipPath id="clip0_86_9344">
<rect width="32" height="32" fill="white"/>
</clipPath>
</defs>
</svg>
