<svg width="179" height="49" viewBox="0 0 179 49" fill="none" xmlns="http://www.w3.org/2000/svg">
<g clip-path="url(#clip0_86_9335)">
<path d="M54.4942 26.8997C54.4942 29.6648 56.7774 31.5812 60.4086 31.5812C63.9847 31.5812 66.488 29.8017 66.488 26.8724C66.488 24.6822 65.2501 23.6419 62.9944 23.1491L60.4361 22.6015C59.4733 22.3825 58.9506 22.0266 58.9506 21.3969C58.9506 20.6578 59.5558 20.165 60.5186 20.165C61.5365 20.165 62.1141 20.7946 62.1141 21.7255H66.1304C66.1304 18.9604 63.9022 17.0987 60.7112 17.0987C57.4101 17.0987 54.9619 18.7414 54.9619 21.5886C54.9619 23.9978 56.1998 25.0929 58.7306 25.6404L61.2614 26.1879C62.2792 26.407 62.4993 26.845 62.4993 27.2556C62.4993 27.9674 61.8941 28.4329 60.5737 28.4329C59.2807 28.4329 58.5655 27.8579 58.5105 26.8997H54.4942Z" fill="white"/>
<path d="M71.4072 31.2253H75.5335L76.8539 26.9545C77.7342 24.0799 77.9817 23.0122 78.0918 22.4373C78.1743 23.0122 78.5319 24.6274 79.2196 26.8724L80.5401 31.2253H84.4738L89.2878 17.5368H84.8039L83.4835 21.9992C83.346 22.492 82.6857 24.9012 82.5207 25.8868C82.3831 25.0107 81.7229 22.4646 81.5854 21.9992L80.2925 17.5368H75.9461L74.5432 21.9992C73.938 23.9156 73.8004 24.4358 73.5528 25.8868C73.3328 24.5179 73.0302 23.1765 72.7001 21.9992L71.4347 17.5368H66.9782L71.4072 31.2253Z" fill="white"/>
<path d="M93.2506 15.4014C94.571 15.4014 95.6439 14.3336 95.6439 12.9922C95.6439 11.6507 94.571 10.6104 93.2506 10.6104C91.9027 10.6104 90.8298 11.6507 90.8298 12.9922C90.8298 14.3336 91.9027 15.4014 93.2506 15.4014ZM91.16 31.2253H95.3963V17.5368H91.16V31.2253Z" fill="white"/>
<path d="M98.5744 37.7958H102.811V29.8565C103.609 30.8968 105.369 31.6086 107.267 31.6086C111.366 31.6086 113.732 28.4876 113.732 24.162C113.732 19.7543 111.063 17.0987 107.24 17.0987C105.287 17.0987 103.554 17.9474 102.783 19.2068L102.563 17.5368H98.5744V37.7958ZM102.838 24.381C102.838 22.3278 104.214 20.9589 106.194 20.9589C108.202 20.9589 109.468 22.3551 109.468 24.381C109.468 26.407 108.202 27.8032 106.194 27.8032C104.214 27.8032 102.838 26.4343 102.838 24.381Z" fill="white"/>
<path d="M122.552 31.5812C126.321 31.5812 129.044 29.6374 129.54 26.5986H125.661C125.358 27.5842 124.23 28.1591 122.635 28.1591C120.764 28.1591 119.746 27.3104 119.499 25.5035L129.485 25.4488V24.381C129.485 19.9186 126.789 17.0987 122.47 17.0987C118.316 17.0987 115.428 20.0828 115.428 24.3537C115.428 28.5697 118.399 31.5812 122.552 31.5812ZM122.497 20.5209C124.203 20.5209 125.276 21.4517 125.276 22.9027H119.554C119.884 21.2601 120.819 20.5209 122.497 20.5209Z" fill="white"/>
<path d="M136.23 31.2253V10.583H131.993V31.2253H136.23Z" fill="white"/>
<path d="M148.541 17.5368V24.6548C148.541 26.8997 147.798 27.8306 145.982 27.8306C144.249 27.8306 143.479 26.845 143.479 24.6001V17.5368H139.243V26.1332C139.243 29.5006 141.168 31.5812 144.304 31.5812C145.955 31.5812 147.66 30.8147 148.513 29.6922L148.788 31.2253H152.777V17.5368H148.541Z" fill="white"/>
<path d="M159.45 31.2253L161.76 27.283L164.126 31.2253H168.995L164.621 24.5179L169.16 17.5368H164.429L162.063 21.6981L159.532 17.5368H154.636L159.257 24.6001L154.636 31.2253H159.45Z" fill="white"/>
<path d="M1.08051 26.038C0.157734 25.1164 0.157734 23.6221 1.08051 22.7005L13.194 10.6023C14.1168 9.68073 15.6129 9.68073 16.5357 10.6023L28.6492 22.7005C29.572 23.6221 29.572 25.1164 28.6492 26.038L16.5357 38.1361C15.6129 39.0578 14.1168 39.0578 13.194 38.1361L1.08051 26.038Z" fill="#F4663E"/>
<path d="M20.8854 34.6258C20.424 35.0866 20.424 35.8338 20.8854 36.2946L22.7294 38.1361C23.6521 39.0578 25.1482 39.0578 26.071 38.1361L38.1846 26.038C39.1073 25.1164 39.1073 23.6221 38.1846 22.7005L26.071 10.6023C25.1482 9.68073 23.6521 9.68073 22.7294 10.6023L20.8854 12.4439C20.4241 12.9047 20.4241 13.6518 20.8854 14.1126L29.4842 22.7005C30.407 23.6221 30.407 25.1163 29.4842 26.038L20.8854 34.6258Z" fill="#FA9B51"/>
<path d="M30.4211 34.626C29.9598 35.0868 29.9598 35.8339 30.4211 36.2947L32.2649 38.1361C33.1877 39.0578 34.6838 39.0578 35.6066 38.1362L47.7201 26.038C48.6429 25.1164 48.6429 23.6221 47.7201 22.7005L35.6066 10.6023C34.6838 9.68073 33.1877 9.68073 32.2649 10.6023L30.4212 12.4438C29.9598 12.9046 29.9598 13.6517 30.4212 14.1125L39.0201 22.7005C39.9428 23.6221 39.9428 25.1163 39.0201 26.038L30.4211 34.626Z" fill="#FFDA99"/>
</g>
<defs>
<clipPath id="clip0_86_9335">
<rect width="179" height="48.3784" fill="white"/>
</clipPath>
</defs>
</svg>
