<svg width="137" height="31" viewBox="0 0 137 31" fill="none" xmlns="http://www.w3.org/2000/svg">
<g clip-path="url(#clip0_2_48058)">
<g opacity="0.8" clip-path="url(#clip1_2_48058)">
<path d="M3.46212 0.415527C1.9263 0.77661 0.766602 2.13068 0.766602 3.75555V27.0153C0.766602 28.8809 2.36511 30.4155 4.30839 30.4155H46.183C48.1576 30.4155 49.7248 28.8809 49.7248 27.0153V3.75555C49.7561 2.13068 48.6278 0.77661 47.0292 0.415527H3.46212Z" fill="#FDFAF9" fill-opacity="0.8"/>
<path fill-rule="evenodd" clip-rule="evenodd" d="M14.2358 7.14307H10.9896V9.43924H14.2355V11.7347H10.9893V22.72H15.736C19.2772 22.72 21.7114 21.4296 21.7114 19.0586V18.9252C21.7114 17.1991 20.4576 16.3826 18.8096 15.8516C20.0391 15.3777 21.2195 14.5425 21.2195 12.911V12.8351C21.2195 11.8858 20.8259 11.1656 20.064 10.5771C19.0806 9.79934 17.4322 9.43888 15.5876 9.43888L14.2355 9.43924L14.2358 7.14307ZM14.2355 11.7347H15.6616C17.0881 11.7347 17.9733 12.266 17.9733 13.3089V13.3283C17.9733 14.3525 17.039 14.941 15.5633 14.941H14.2355V11.7347ZM24.3339 9.42024H27.5661V22.5328H24.3339V9.42024ZM29.5553 11.7798H32.7875V22.5328H36.0435V11.7798H39.2756V9.42024H29.5553V11.7798ZM18.4402 18.774C18.4402 19.8169 17.4322 20.4242 15.9569 20.4242H14.2355V17.1038H15.9077C17.4817 17.1038 18.4402 17.7488 18.4402 18.7546V18.774Z" fill="#010101"/>
<path fill-rule="evenodd" clip-rule="evenodd" d="M104.881 21.9626L100.807 16.6059L99.4054 17.9846V21.9626H97.2925V5.86963H99.4054V15.6564L104.752 10.1642H107.231L102.273 15.2043L107.403 21.9626H104.881ZM74.4864 21.9619V14.5032C74.4864 11.497 73.2362 9.86966 70.6924 9.86966C68.968 9.86966 67.4803 10.8642 66.8337 12.243C66.2949 10.7287 65.1737 9.86966 63.4492 9.86966C61.8109 9.86966 60.5176 10.7739 59.9138 12.0623V10.1635H57.8877V21.9619H60.0003V15.475C60.0003 13.0341 61.0781 11.7229 62.8026 11.7229C64.484 11.7229 65.1092 12.8079 65.1092 14.8422V21.9619H67.2218V15.475C67.2218 13.0341 68.321 11.7229 70.0458 11.7229C71.7485 11.7229 72.3738 12.8079 72.3738 14.8422V21.9619H74.4864ZM84.1864 16.3132V16.7425C84.1864 18.8897 82.9362 20.5398 80.8236 20.5398C79.3146 20.5398 78.668 19.8167 78.668 18.7769C78.668 17.5112 79.5517 16.9008 81.4485 16.675L84.1864 16.3132ZM86.299 21.9638V14.2564C86.299 11.431 84.7038 9.89396 81.6643 9.89396C79.1422 9.89396 77.1589 11.2275 76.9866 13.4653L79.0557 13.6912C79.1422 12.4028 80.1984 11.6796 81.6429 11.6569C83.3457 11.6344 84.1864 12.629 84.1864 13.8495V14.7989L81.1252 15.1379C78.0641 15.4769 76.5554 16.6522 76.5554 18.8672C76.5554 20.7657 77.6763 22.2352 80.177 22.2352C82.0307 22.2352 83.6045 21.4665 84.2726 20.0198V21.9638H86.299ZM112.946 11.6341C114.735 11.6341 115.921 12.8549 115.985 15.002H109.842C110.1 12.7642 111.329 11.6341 112.946 11.6341ZM109.82 16.5843H118.076V15.7252C118.076 12.4028 116.136 9.89396 112.946 9.89396C109.712 9.89396 107.707 12.4704 107.707 15.9514C107.707 19.7711 109.863 22.2348 113.205 22.2348C115.597 22.2348 117.451 20.8788 118.012 18.641L115.964 18.4375C115.533 19.8391 114.606 20.4719 113.205 20.4719C111.178 20.4719 109.993 19.2738 109.82 16.5843ZM119.24 10.1635H121.008V7.69985L123.121 7.08945V10.1635H125.901V11.904H123.121V18.5716C123.121 19.8373 123.379 20.3345 124.414 20.3345C124.953 20.3345 125.32 20.2894 125.901 20.1538L126.052 21.9619C125.298 22.1202 124.63 22.1882 123.961 22.1882C121.957 22.1882 121.008 20.9674 121.008 18.662V11.904H119.24V10.1635ZM132.175 20.585C130.472 20.585 129.48 19.7711 129.351 18.4151L127.195 18.6638C127.475 20.9012 129.351 22.2348 132.218 22.2348C134.632 22.2348 136.766 20.8788 136.766 18.6186C136.766 16.8105 135.796 15.7255 133.77 15.3186L131.528 14.8893C130.126 14.5954 129.717 14.1885 129.717 13.3294C129.717 12.2897 130.493 11.5441 131.959 11.5441C133.468 11.5441 134.33 12.2221 134.438 13.3522L136.507 13.1487C136.227 11.0692 134.567 9.89396 131.959 9.89396C129.588 9.89396 127.583 11.3179 127.583 13.5105C127.583 15.2734 128.553 16.3584 130.817 16.7877L132.8 17.1719C134.093 17.3981 134.632 17.8954 134.632 18.7317C134.632 19.8842 133.748 20.585 132.175 20.585ZM89.0796 11.9021H91.1921V21.9631H89.0796V11.9021ZM91.1921 10.1683H95.5466V11.9005H91.1921V10.1683Z" fill="white"/>
</g>
</g>
<defs>
<clipPath id="clip0_2_48058">
<rect width="136" height="30" fill="white" transform="translate(0.766602 0.415527)"/>
</clipPath>
<clipPath id="clip1_2_48058">
<rect width="136" height="30" fill="white" transform="translate(0.766602 0.415527)"/>
</clipPath>
</defs>
</svg>
