<svg width="23" height="23" viewBox="0 0 23 23" fill="none" xmlns="http://www.w3.org/2000/svg">
<g clip-path="url(#clip0_93_10967)">
<g opacity="0.6">
<path d="M3.0752 15.6599C4.66731 18.4122 7.64309 20.2639 11.0514 20.2639C14.4596 20.2639 17.4354 18.4122 19.0275 15.6599M3.0752 6.4524C4.66731 3.70011 7.64309 1.84839 11.0514 1.84839C14.4596 1.84839 17.4354 3.70011 19.0275 6.4524M11.9697 20.2185C11.9697 20.2185 13.2661 18.5114 14.0827 15.6599M11.9697 1.89331C11.9697 1.89331 13.2661 3.60044 14.0827 6.45191M10.1307 20.2187C10.1307 20.2187 8.83436 18.5115 8.01777 15.6601M10.1307 1.89334C10.1307 1.89334 8.83436 3.60047 8.01777 6.45194M8.28711 9.21167L9.66831 13.8157L11.0495 9.21167L12.4307 13.8157L13.8119 9.21167M0.919922 9.21167L2.30113 13.8157L3.68233 9.21167L5.06354 13.8157L6.44474 9.21167M15.6554 9.21157L17.0366 13.8156L18.4178 9.21157L19.799 13.8156L21.1802 9.21157" stroke="white" stroke-width="1.3812" stroke-linecap="round" stroke-linejoin="round"/>
</g>
</g>
<defs>
<clipPath id="clip0_93_10967">
<rect width="22.0993" height="22.0993" fill="white" transform="translate(0 0.00463867)"/>
</clipPath>
</defs>
</svg>
