<svg width="58" height="48" viewBox="0 0 58 48" fill="none" xmlns="http://www.w3.org/2000/svg">
<g clip-path="url(#clip0_42_28959)">
<path d="M27.4289 23.7365V30.49H25.2871V13.8117H30.9676C31.6457 13.7975 32.3198 13.9178 32.9512 14.1656C33.5825 14.4134 34.1585 14.7839 34.646 15.2555C35.1384 15.6986 35.5303 16.2419 35.7953 16.849C36.0603 17.4562 36.1924 18.113 36.1825 18.7754C36.1966 19.4413 36.0666 20.1025 35.8014 20.7135C35.5362 21.3244 35.1421 21.8708 34.646 22.3152C33.6527 23.2627 32.4266 23.736 30.9676 23.7351H27.4289V23.7365ZM27.4289 15.865V21.6871H31.0208C31.4146 21.6988 31.8065 21.6281 32.1714 21.4796C32.5363 21.3311 32.8662 21.1081 33.1401 20.8248C33.4124 20.5599 33.629 20.243 33.7768 19.8929C33.9247 19.5429 34.0008 19.1667 34.0008 18.7867C34.0008 18.4067 33.9247 18.0305 33.7768 17.6805C33.629 17.3304 33.4124 17.0136 33.1401 16.7486C32.8697 16.4594 32.5409 16.2308 32.1756 16.0783C31.8102 15.9257 31.4166 15.8526 31.0208 15.8637H27.4289V15.865Z" fill="white"/>
<path d="M41.1214 18.7051C42.7044 18.7051 43.9541 19.1283 44.8702 19.9746C45.7864 20.821 46.244 21.9814 46.2431 23.4559V30.4889H44.1944V28.9053H44.1013C43.2144 30.2095 42.0348 30.8615 40.5626 30.8615C39.3059 30.8615 38.2545 30.4889 37.4084 29.7437C37.0024 29.4017 36.6777 28.9733 36.4582 28.4899C36.2386 28.0064 36.1297 27.48 36.1393 26.9491C36.1393 25.7683 36.5854 24.8292 37.4776 24.1319C38.3698 23.4346 39.5609 23.085 41.0508 23.0833C42.3226 23.0833 43.3701 23.3162 44.1931 23.7819V23.2922C44.1955 22.9303 44.1174 22.5723 43.9644 22.2443C43.8114 21.9163 43.5873 21.6265 43.3084 21.3959C42.742 20.8847 42.0039 20.6058 41.2411 20.6147C40.0447 20.6147 39.0979 21.1195 38.4008 22.1291L36.5144 20.9408C37.5521 19.4503 39.0877 18.7051 41.1214 18.7051ZM38.3503 26.9957C38.3488 27.2684 38.4126 27.5374 38.5361 27.7805C38.6597 28.0235 38.8395 28.2335 39.0607 28.393C39.5344 28.7657 40.1223 28.9632 40.7249 28.9519C41.6287 28.9504 42.4951 28.5905 43.1341 27.9512C43.8437 27.2831 44.1984 26.4993 44.1984 25.5997C43.5306 25.0674 42.5994 24.8013 41.4047 24.8013C40.5347 24.8013 39.8092 25.0111 39.2283 25.4307C38.6416 25.8566 38.3503 26.3742 38.3503 26.9957V26.9957Z" fill="white"/>
<path d="M58.0034 19.0781L50.8515 35.5196H48.6405L51.2945 29.7668L46.5918 19.0781H48.9199L52.3189 27.2756H52.3654L55.6713 19.0781H58.0034Z" fill="white"/>
<path d="M18.7741 22.2804C18.7749 21.6274 18.7197 20.9756 18.6091 20.3322H9.57617V24.0223H14.7498C14.644 24.6117 14.4199 25.1735 14.0911 25.674C13.7623 26.1744 13.3357 26.603 12.8368 26.934V29.3294H15.9245C17.7324 27.662 18.7741 25.1961 18.7741 22.2804Z" fill="#4285F4"/>
<path d="M9.57951 31.6422C12.1643 31.6422 14.3408 30.7932 15.9279 29.3293L12.8402 26.934C11.9808 27.5169 10.8739 27.8495 9.57951 27.8495C7.08115 27.8495 4.9606 26.1648 4.20231 23.8945H1.02148V26.3631C1.81871 27.95 3.04116 29.284 4.55237 30.2162C6.06358 31.1484 7.80407 31.6421 9.57951 31.6422V31.6422Z" fill="#34A853"/>
<path d="M4.20075 23.8958C3.79987 22.7061 3.79987 21.4178 4.20075 20.2282V17.7596H1.01993C0.349276 19.0946 0 20.5679 0 22.062C0 23.556 0.349276 25.0294 1.01993 26.3643L4.20075 23.8958Z" fill="#FBBC04"/>
<path d="M9.57951 16.2738C10.9455 16.2514 12.2654 16.7677 13.2539 17.711L15.9877 14.9763C14.2542 13.3475 11.9576 12.4533 9.57951 12.4811C7.80407 12.4812 6.06358 12.9749 4.55237 13.9071C3.04116 14.8393 1.81871 16.1733 1.02148 17.7602L4.20231 20.2288C4.9606 17.9585 7.08115 16.2738 9.57951 16.2738Z" fill="#EA4335"/>
</g>
<defs>
<clipPath id="clip0_42_28959">
<rect width="58" height="48" fill="white"/>
</clipPath>
</defs>
</svg>
