<svg width="93" height="26" viewBox="0 0 93 26" fill="none" xmlns="http://www.w3.org/2000/svg">
<g clip-path="url(#clip0_2_48057)">
<g opacity="0.8" clip-path="url(#clip1_2_48057)">
<path d="M35.1129 7.67383C35.36 7.67383 35.4792 7.79179 35.4792 8.03614V18.8045C35.4792 19.0488 35.36 19.1668 35.1129 19.1668H33.3236C33.068 19.1668 32.9402 19.0488 32.9402 18.8045V8.03614C32.9402 7.79179 33.068 7.67383 33.3236 7.67383H35.1129Z" fill="#FDFAF9"/>
<path d="M46.1367 10.1501C46.878 10.1501 47.4999 10.2091 48.0112 10.3355C48.5224 10.4619 48.9228 10.6557 49.2296 10.9253C49.5363 11.195 49.7493 11.5404 49.8856 11.9617C50.022 12.383 50.0816 12.8886 50.0816 13.4784V15.8377C50.0816 16.4275 50.0134 16.933 49.8856 17.3543C49.7493 17.7756 49.5363 18.1211 49.2296 18.3907C48.9228 18.6603 48.5139 18.8541 48.0112 18.9721C47.4999 19.0901 46.878 19.149 46.1367 19.149H41.442C40.6922 19.149 40.0617 19.0901 39.559 18.9721C39.0563 18.8541 38.6473 18.6603 38.3491 18.3907C38.0424 18.1211 37.8294 17.7756 37.693 17.3543C37.5652 16.933 37.4971 16.4275 37.4971 15.8377V13.4784C37.4971 12.8886 37.5652 12.383 37.693 11.9617C37.8294 11.5404 38.0424 11.195 38.3491 10.9253C38.6558 10.6557 39.0563 10.4619 39.559 10.3355C40.0617 10.2091 40.6922 10.1501 41.442 10.1501H46.1367ZM39.8572 15.4332C39.8572 15.7871 39.8828 16.0736 39.9424 16.3011C40.002 16.5286 40.0958 16.7139 40.2321 16.8488C40.3684 16.9836 40.5559 17.0847 40.7859 17.1437C41.016 17.2027 41.3142 17.2364 41.6635 17.2364H45.8981C46.2645 17.2364 46.5627 17.2111 46.7928 17.1437C47.0228 17.0847 47.2102 16.9836 47.3466 16.8488C47.4829 16.7139 47.5851 16.5286 47.6363 16.3011C47.6959 16.0736 47.7215 15.7787 47.7215 15.4332V13.8744C47.7215 13.5374 47.6959 13.2509 47.6363 13.0234C47.5766 12.7959 47.4829 12.6105 47.3466 12.4673C47.2102 12.324 47.0228 12.2229 46.7928 12.1724C46.5627 12.1218 46.2645 12.0881 45.8981 12.0881H41.6635C41.3057 12.0881 41.016 12.1134 40.7859 12.1724C40.5559 12.2314 40.3684 12.324 40.2321 12.4673C40.0958 12.6105 39.9935 12.7959 39.9424 13.0234C39.8828 13.2509 39.8572 13.5374 39.8572 13.8744V15.4332Z" fill="#FDFAF9"/>
<path d="M64.7214 7.67298C64.977 7.67298 65.1048 7.79094 65.1048 8.03529V9.64465C65.1048 9.89742 64.977 10.0238 64.7214 10.0238H59.5069V18.8036C59.5069 19.048 59.3876 19.166 59.1405 19.166H57.3342C57.0871 19.166 56.9679 19.048 56.9679 18.8036V10.0154H51.7534C51.4978 10.0154 51.37 9.889 51.37 9.63622V8.02687C51.37 7.78251 51.4978 7.66455 51.7534 7.66455H64.7214V7.67298Z" fill="#FDFAF9"/>
<path d="M74.6462 10.1501C75.2085 10.1501 75.6772 10.1923 76.0521 10.285C76.427 10.3776 76.7166 10.5293 76.9296 10.7484C77.1427 10.959 77.296 11.2371 77.3897 11.5826C77.475 11.928 77.5261 12.3493 77.5261 12.838V14.3968C77.5261 14.7507 77.4494 14.9866 77.296 15.1299C77.1427 15.2647 76.9041 15.3321 76.5803 15.3321H68.1963V15.7281C68.1963 16.2421 68.3241 16.6128 68.5712 16.8403C68.8183 17.0678 69.304 17.1858 70.0197 17.1858H76.9382C77.1341 17.1858 77.2364 17.2869 77.2364 17.4807V18.8626C77.2364 19.0564 77.1341 19.1575 76.9382 19.1575H69.7811C69.0313 19.1575 68.4008 19.0985 67.8981 18.9805C67.3954 18.8626 66.9949 18.6688 66.6882 18.3991C66.3815 18.1295 66.1685 17.784 66.0322 17.3627C65.8958 16.9414 65.8362 16.4359 65.8362 15.8461V13.4868C65.8362 12.897 65.9043 12.3914 66.0322 11.9701C66.1685 11.5489 66.3815 11.2034 66.6882 10.9338C66.9949 10.6641 67.3954 10.4703 67.8981 10.3439C68.4008 10.2176 69.0313 10.1586 69.7811 10.1586H74.6462V10.1501ZM68.1878 13.8744H74.9103C75.0978 13.8744 75.1915 13.7817 75.1915 13.5964V12.9054C75.1915 12.5684 75.1233 12.324 74.9785 12.1808C74.8336 12.0376 74.5695 11.9701 74.1861 11.9701H70.0197C69.304 11.9701 68.8183 12.0797 68.5712 12.3072C68.3241 12.5347 68.1963 12.9054 68.1963 13.4278V13.8744H68.1878Z" fill="#FDFAF9"/>
<path d="M92.2762 7.67383C92.4296 7.67383 92.5148 7.72438 92.5318 7.83392C92.5489 7.93503 92.5148 8.02772 92.4381 8.10355L87.3429 13.2097L92.6681 18.7371C92.7448 18.8129 92.7789 18.9056 92.7619 19.0067C92.7448 19.1078 92.6596 19.1668 92.5063 19.1668H90.2313C90.095 19.1668 89.9928 19.15 89.9161 19.1162C89.8394 19.0825 89.7627 19.0236 89.7031 18.9393L85.6048 14.6926L81.4895 18.9393C81.4128 19.0236 81.3361 19.091 81.2679 19.1162C81.1998 19.15 81.089 19.1668 80.9442 19.1668H78.7885C78.6437 19.1668 78.567 19.1162 78.55 19.0067C78.5329 18.9056 78.567 18.8129 78.6437 18.7371L84.1052 13.1254L79.1805 8.10355C79.1123 8.02772 79.0867 7.93503 79.0953 7.83392C79.1038 7.73281 79.189 7.67383 79.3423 7.67383H81.6173C81.7536 7.67383 81.8558 7.69068 81.9325 7.73281C82.0092 7.76651 82.0859 7.82549 82.1455 7.90133L85.7667 11.7099L89.6008 7.90133C89.669 7.82549 89.7372 7.76651 89.8138 7.73281C89.8905 7.69068 89.9928 7.67383 90.1291 7.67383H92.2762Z" fill="#FDFAF9"/>
<path d="M16.751 0.932373V6.94006L22.0251 3.94043L16.751 0.932373Z" fill="#FDFAF9"/>
<path opacity="0.9" d="M22.0244 3.93994V9.94763L27.2985 6.93957L22.0244 3.93994Z" fill="#FDFAF9"/>
<path opacity="0.8" d="M16.751 6.9397V12.9474L22.0251 9.94776L16.751 6.9397Z" fill="#FDFAF9"/>
<path opacity="0.8" d="M22.0244 9.94897V15.9567L27.2985 12.9486L22.0244 9.94897Z" fill="#FDFAF9"/>
<path opacity="0.8" d="M16.751 12.947V18.9547L22.0251 15.9551L16.751 12.947Z" fill="#FDFAF9"/>
<path d="M22.0244 15.9561V21.9637L27.2985 18.9557L22.0244 15.9561Z" fill="#FDFAF9"/>
<path opacity="0.5" d="M3.11755 6.73804V12.7457L8.39164 9.73767L3.11755 6.73804Z" fill="#FDFAF9"/>
<path opacity="0.2" d="M9.77222 8.9707V14.9784L15.0378 11.9788L9.77222 8.9707Z" fill="#FDFAF9"/>
<path opacity="0.4" d="M5.86133 12.77V18.7777L11.1354 15.7697L5.86133 12.77Z" fill="#FDFAF9"/>
<path opacity="0.9" d="M9.33936 17.3035V23.3112L14.6049 20.3031L9.33936 17.3035Z" fill="#FDFAF9"/>
<path opacity="0.7" d="M16.7087 19.8914V25.899L21.9743 22.891L16.7087 19.8914Z" fill="#FDFAF9"/>
<path opacity="0.9" d="M10.6511 6.00439V12.0121L15.9167 9.01245L10.6511 6.00439Z" fill="#FDFAF9"/>
<path opacity="0.8" d="M16.7506 0.932373V6.94006L11.4766 3.94043L16.7506 0.932373Z" fill="#FDFAF9"/>
<path opacity="0.7" d="M10.6499 3.48511V9.4928L5.37585 6.48474L10.6499 3.48511Z" fill="#FDFAF9"/>
<path opacity="0.6" d="M15.9252 6.45898V12.4667L10.6511 9.45862L15.9252 6.45898Z" fill="#FDFAF9"/>
<path d="M9.74662 8.9707V14.9784L4.47253 11.9788L9.74662 8.9707Z" fill="#FDFAF9"/>
<path opacity="0.6" d="M16.7515 12.947V18.9547L11.486 15.9551L16.7515 12.947Z" fill="#FDFAF9"/>
<path opacity="0.65" d="M5.86197 14.3464V20.3541L0.587891 17.3461L5.86197 14.3464Z" fill="#FDFAF9"/>
<path d="M27.2985 6.9397V12.9474L22.0244 9.94776L27.2985 6.9397Z" fill="#FDFAF9"/>
<path opacity="0.95" d="M22.0251 9.94897V15.9567L16.751 12.9486L22.0251 9.94897Z" fill="#FDFAF9"/>
<path opacity="0.9" d="M27.2985 12.947V18.9547L22.0244 15.9551L27.2985 12.947Z" fill="#FDFAF9"/>
<path opacity="0.7" d="M22.0251 15.9561V21.9637L16.751 18.9557L22.0251 15.9561Z" fill="#FDFAF9"/>
<path opacity="0.4" d="M15.5834 18.4585V24.4662L10.3093 21.4666L15.5834 18.4585Z" fill="#FDFAF9"/>
<path d="M22.0251 3.93994V9.94763L16.751 6.93957L22.0251 3.93994Z" fill="#FDFAF9"/>
</g>
</g>
<defs>
<clipPath id="clip0_2_48057">
<rect width="92.1875" height="25" fill="white" transform="translate(0.579102 0.915527)"/>
</clipPath>
<clipPath id="clip1_2_48057">
<rect width="92.1875" height="25" fill="white" transform="translate(0.579102 0.915527)"/>
</clipPath>
</defs>
</svg>
