<svg width="48" height="20" viewBox="0 0 48 20" fill="none" xmlns="http://www.w3.org/2000/svg">
<g clip-path="url(#clip0_74_2708)">
<g clip-path="url(#clip1_74_2708)">
<path d="M32.6919 11.8086L33.1623 11.9497C33.1309 12.083 33.0839 12.1928 33.0133 12.279C32.9428 12.3652 32.8644 12.4358 32.7624 12.475C32.6605 12.522 32.5351 12.5456 32.3783 12.5456C32.1901 12.5456 32.0412 12.522 31.9157 12.4672C31.7981 12.4123 31.6962 12.3182 31.61 12.1771C31.5237 12.0438 31.4767 11.8635 31.4767 11.6518C31.4767 11.3696 31.5551 11.15 31.704 10.9932C31.853 10.8364 32.0725 10.7659 32.3469 10.7659C32.5664 10.7659 32.7311 10.8129 32.8565 10.8992C32.982 10.9854 33.076 11.1187 33.1309 11.3068L32.6605 11.4088C32.6448 11.3539 32.6292 11.3147 32.6056 11.2912C32.5743 11.252 32.5429 11.2206 32.4959 11.1971C32.4488 11.1736 32.4018 11.1657 32.3548 11.1657C32.2372 11.1657 32.1431 11.2128 32.0804 11.3147C32.0333 11.3852 32.0098 11.5028 32.0098 11.6518C32.0098 11.84 32.0412 11.9732 32.096 12.0438C32.1509 12.1144 32.2372 12.1536 32.3391 12.1536C32.441 12.1536 32.5194 12.1222 32.5664 12.0673C32.6292 11.9968 32.6684 11.9184 32.6919 11.8086Z" fill="#ACADB8"/>
<path d="M33.3507 11.6516C33.3507 11.3693 33.4291 11.1498 33.5859 10.993C33.7427 10.8362 33.9622 10.7578 34.2445 10.7578C34.5346 10.7578 34.7541 10.8362 34.9109 10.9852C35.0677 11.142 35.1461 11.3537 35.1461 11.6359C35.1461 11.8397 35.1147 12.0044 35.0442 12.1298C34.9736 12.2553 34.8795 12.3572 34.7462 12.4277C34.6208 12.4983 34.4562 12.5375 34.268 12.5375C34.072 12.5375 33.9152 12.5061 33.7819 12.4434C33.6565 12.3807 33.5545 12.2866 33.4683 12.1455C33.3821 12.0044 33.3507 11.8554 33.3507 11.6516ZM33.8838 11.6516C33.8838 11.8241 33.9152 11.9495 33.9779 12.0279C34.0406 12.1063 34.1269 12.1455 34.2445 12.1455C34.3621 12.1455 34.4483 12.1063 34.511 12.0357C34.5738 11.9573 34.6051 11.8241 34.6051 11.6359C34.6051 11.4713 34.5738 11.3537 34.5032 11.2831C34.4405 11.2047 34.3464 11.1733 34.2366 11.1733C34.1269 11.1733 34.0406 11.2125 33.9779 11.2909C33.9152 11.3537 33.8838 11.4791 33.8838 11.6516Z" fill="#ACADB8"/>
<path d="M35.4202 10.7893H36.118L36.3845 11.8399L36.6511 10.7893H37.3489V12.5141H36.9098V11.197L36.5727 12.5141H36.1807L35.8436 11.197V12.5141H35.4045V10.7893H35.4202Z" fill="#ACADB8"/>
<path d="M37.6941 10.7893H38.58C38.776 10.7893 38.9171 10.8363 39.0112 10.9304C39.1053 11.0245 39.1523 11.1499 39.1523 11.3224C39.1523 11.4949 39.0975 11.636 38.9955 11.7301C38.8936 11.832 38.729 11.8791 38.5173 11.8791H38.2272V12.5219H37.6941V10.7893ZM38.2272 11.5263H38.3605C38.4624 11.5263 38.533 11.5106 38.58 11.4714C38.6192 11.4322 38.6427 11.393 38.6427 11.3381C38.6427 11.2832 38.6271 11.2362 38.5879 11.197C38.5487 11.1578 38.4859 11.1421 38.384 11.1421H38.2351V11.5263H38.2272Z" fill="#ACADB8"/>
<path d="M39.4343 10.7893H39.9674V12.0907H40.7985V12.5141H39.4343V10.7893Z" fill="#ACADB8"/>
<path d="M41.0648 10.7893H41.5979V12.5141H41.0648V10.7893Z" fill="#ACADB8"/>
<path d="M43.0406 12.2238H42.4369L42.3507 12.5061H41.8097L42.4604 10.7812H43.0406L43.6913 12.5061H43.1347L43.0406 12.2238ZM42.9308 11.8553L42.7427 11.236L42.5545 11.8553H42.9308Z" fill="#ACADB8"/>
<path d="M43.8555 10.7893H44.3494L45.0001 11.7458V10.7893H45.5019V12.5141H45.0001L44.3572 11.5655V12.5141H43.8555V10.7893Z" fill="#ACADB8"/>
<path d="M45.7365 10.7893H47.3593V11.2127H46.8184V12.5141H46.2853V11.2127H45.7443V10.7893H45.7365Z" fill="#ACADB8"/>
<path d="M26.2789 13.4155L27.8234 12.9295L27.3216 11.8162C26.9531 12.2787 26.5847 12.8746 26.2789 13.4155ZM25.7536 8.32737L22.7274 1.58496L0.571472 2.83936L6.71021 19.5856L18.5251 15.8616C17.7725 14.7797 17.4981 13.4939 18.3683 12.8667C19.3405 12.1611 20.8066 12.9765 21.7395 14.129C22.6411 12.6237 25.1734 9.11922 25.7536 8.32737Z" fill="#225E63"/>
<path d="M22.036 6.45765C22.9612 6.45765 23.7138 5.75205 23.7138 4.87397C23.7138 3.99588 22.9612 3.29028 22.036 3.29028C21.1109 3.29028 20.3583 3.99588 20.3583 4.87397C20.3583 5.74421 21.1109 6.45765 22.036 6.45765ZM20.664 7.13973H23.408V14.3133H20.664V7.13973Z" fill="#FEFEFE"/>
<path d="M19.307 9.23276C19.3305 9.2406 19.3462 9.23276 19.3462 9.20924V7.39036C19.3462 7.36684 19.3305 7.34332 19.307 7.32764C19.307 7.32764 18.9464 7.09244 17.8488 7.02972C17.7939 6.99835 16.8296 6.99051 16.5708 7.02972C12.5724 7.35116 12.4235 10.2441 12.4235 10.3696V11.0752C12.4235 11.1614 12.4235 14.1171 16.5708 14.3758C16.9785 14.4072 17.7704 14.3758 17.8488 14.3758C18.8052 14.3758 19.4638 14.0857 19.4638 14.0857C19.4873 14.0779 19.503 14.0544 19.503 14.0309V12.3296C19.503 12.306 19.4873 12.2982 19.4716 12.3139C19.4716 12.3139 19.1737 12.5491 17.8723 12.6824C17.5038 12.7216 17.3235 12.7059 17.1902 12.6824C15.3399 12.3688 15.2537 11.0203 15.2537 11.0203C15.2537 10.9968 15.2459 10.9576 15.2459 10.9419V10.4244C15.2459 10.4009 15.2459 10.3617 15.2537 10.346C15.2537 10.346 15.3791 8.89564 17.1902 8.73884H17.8723C18.6641 8.84076 19.307 9.23276 19.307 9.23276Z" fill="#FEFEFE"/>
<path d="M4.80322 14.2897C4.80322 14.3132 4.8189 14.3289 4.84242 14.3289H7.51587C7.53939 14.3289 7.55507 14.3132 7.55507 14.2897V12.2043C7.55507 12.1808 7.57075 12.1651 7.59427 12.1651C7.59427 12.1651 11.8671 12.4708 11.8671 9.60922C11.8671 7.34346 9.18579 7.10042 8.30771 7.13962C8.29203 7.13962 4.84242 7.13962 4.84242 7.13962C4.8189 7.13962 4.80322 7.1553 4.80322 7.17882V14.2897ZM7.50803 10.5735V8.69978H8.16659C8.16659 8.69978 9.11523 8.73898 9.19363 9.3897C9.20931 9.43674 9.20931 9.75819 9.19363 9.77387C9.06819 10.5343 8.24499 10.5735 8.24499 10.5735H7.50803Z" fill="#FEFEFE"/>
<path d="M22.1154 17.775C22.3349 17.775 22.5074 17.7751 22.7896 17.6496C23.7618 17.14 27.0468 9.11967 30.5121 6.65006C30.5356 6.63438 30.5591 6.61087 30.5748 6.58734C30.5983 6.55598 30.5983 6.52462 30.5983 6.52462C30.5983 6.52462 30.5983 6.35998 30.0887 6.35998C27.0076 6.27374 23.801 12.7418 22.1154 15.2976C22.0919 15.329 21.9821 15.2976 21.9821 15.2976C21.9821 15.2976 20.8532 13.9648 19.8731 13.4552C19.8496 13.4474 19.7399 13.4082 19.6223 13.416C19.5439 13.416 19.0891 13.5101 18.8775 13.7296C18.6266 13.9962 18.6344 14.1451 18.6344 14.4666C18.6344 14.4901 18.6501 14.5998 18.6815 14.6547C18.9245 15.0781 20.0143 16.5834 20.9159 17.4144C21.0492 17.5163 21.2608 17.775 22.1154 17.775Z" fill="#2BBC5D"/>
<path d="M31.4214 4.22754H33.9851C34.4947 4.22754 34.9024 4.2981 35.2081 4.43138C35.5217 4.5725 35.7804 4.7685 35.9764 5.01938C36.1803 5.2781 36.3292 5.57602 36.4155 5.91314C36.5096 6.25026 36.5566 6.6109 36.5566 6.99506C36.5566 7.59091 36.486 8.05347 36.3528 8.38275C36.2195 8.71203 36.0313 8.98643 35.7883 9.21379C35.5452 9.43331 35.2865 9.58227 35.0121 9.66067C34.6358 9.76259 34.2908 9.80963 33.9851 9.80963H31.4214V4.22754ZM33.1462 5.48978V8.53955H33.5696C33.9302 8.53955 34.1889 8.50035 34.3379 8.42195C34.4868 8.34355 34.6123 8.20243 34.6985 8.00643C34.7848 7.81043 34.8318 7.48115 34.8318 7.03426C34.8318 6.43842 34.7377 6.03858 34.5417 5.81906C34.3457 5.59954 34.0321 5.48978 33.5774 5.48978H33.1462Z" fill="#ACADB8"/>
<path d="M37.0347 7.96734L38.6811 7.86542C38.7203 8.13198 38.7908 8.33582 38.9006 8.47694C39.0809 8.7043 39.3318 8.81406 39.6611 8.81406C39.9041 8.81406 40.1001 8.75918 40.2334 8.64158C40.3667 8.52398 40.4372 8.3907 40.4372 8.24174C40.4372 8.10062 40.3745 7.96734 40.2491 7.84974C40.1236 7.73214 39.8257 7.63022 39.3632 7.5283C38.6027 7.35582 38.0696 7.12846 37.7403 6.84622C37.411 6.56398 37.2542 6.20334 37.2542 5.7643C37.2542 5.47422 37.3404 5.20766 37.5051 4.94894C37.6697 4.69021 37.9206 4.49421 38.2577 4.34525C38.5948 4.19629 39.0496 4.12573 39.6297 4.12573C40.3432 4.12573 40.892 4.25901 41.2604 4.52557C41.6368 4.79213 41.8563 5.21549 41.9268 5.79566L40.2961 5.88974C40.2491 5.63886 40.1628 5.45854 40.0217 5.34094C39.8806 5.22334 39.6924 5.16845 39.4494 5.16845C39.2456 5.16845 39.0966 5.20766 38.9947 5.2939C38.8928 5.38014 38.8457 5.48206 38.8457 5.6075C38.8457 5.69374 38.8849 5.77998 38.9712 5.85054C39.0496 5.9211 39.2456 5.99166 39.5513 6.05438C40.304 6.21902 40.8449 6.38366 41.1742 6.5483C41.5035 6.71294 41.7387 6.92462 41.8876 7.16766C42.0366 7.4107 42.1072 7.69294 42.1072 7.9987C42.1072 8.35934 42.0052 8.68862 41.8092 8.98654C41.6132 9.2923 41.331 9.51966 40.9782 9.67646C40.6254 9.83326 40.1707 9.91166 39.6297 9.91166C38.6811 9.91166 38.0225 9.73134 37.654 9.36286C37.2934 8.99438 37.0895 8.53182 37.0347 7.96734Z" fill="#ACADB8"/>
<path d="M42.5474 7.96734L44.1938 7.86542C44.233 8.13198 44.3035 8.33582 44.4133 8.47694C44.5936 8.7043 44.8445 8.81406 45.1738 8.81406C45.4168 8.81406 45.6128 8.75918 45.7461 8.64158C45.8794 8.52398 45.9499 8.3907 45.9499 8.24174C45.9499 8.10062 45.8872 7.96734 45.7618 7.84974C45.6363 7.73214 45.3384 7.63022 44.8758 7.5283C44.1154 7.35582 43.5822 7.12846 43.253 6.84622C42.9315 6.56398 42.7669 6.20334 42.7669 5.7643C42.7669 5.47422 42.8531 5.20766 43.0178 4.94894C43.1824 4.69021 43.4333 4.49421 43.7704 4.34525C44.1075 4.19629 44.5622 4.12573 45.1424 4.12573C45.8558 4.12573 46.4046 4.25901 46.7731 4.52557C47.1495 4.79213 47.369 5.21549 47.4395 5.79566L45.8088 5.88974C45.7618 5.63886 45.6755 5.45854 45.5344 5.34094C45.3933 5.22334 45.2051 5.16845 44.9621 5.16845C44.7582 5.16845 44.6093 5.20766 44.5074 5.2939C44.4054 5.38014 44.3584 5.48206 44.3584 5.6075C44.3584 5.69374 44.3976 5.77998 44.4838 5.85054C44.5622 5.9211 44.7582 5.99166 45.064 6.05438C45.8166 6.21902 46.3576 6.38366 46.6869 6.5483C47.0162 6.71294 47.2514 6.92462 47.4003 7.16766C47.5493 7.4107 47.6199 7.69294 47.6199 7.9987C47.6199 8.35934 47.5179 8.68862 47.3219 8.98654C47.1259 9.2923 46.8437 9.51966 46.4909 9.67646C46.1381 9.83326 45.6834 9.91166 45.1424 9.91166C44.1938 9.91166 43.5352 9.73134 43.1667 9.36286C42.7982 8.99438 42.5944 8.53182 42.5474 7.96734Z" fill="#ACADB8"/>
</g>
</g>
<defs>
<clipPath id="clip0_74_2708">
<rect width="47.7832" height="18.891" fill="white" transform="translate(0.0531616 0.928711)"/>
</clipPath>
<clipPath id="clip1_74_2708">
<rect width="47.7832" height="18.891" fill="white" transform="translate(0.0531616 0.928711)"/>
</clipPath>
</defs>
</svg>
