<svg width="30" height="30" viewBox="0 0 30 30" fill="none" xmlns="http://www.w3.org/2000/svg">
<g clip-path="url(#clip0_1_47905)">
<rect y="0.480957" width="29.0377" height="29.0377" rx="10" fill="url(#paint0_linear_1_47905)"/>
<rect x="0.5" y="0.980957" width="28.0377" height="28.0377" rx="9.5" stroke="white" stroke-opacity="0.12"/>
<path d="M20.1653 17.4199C18.3827 17.4199 16.9389 18.8637 16.9389 20.6463C16.9389 21.2513 17.1083 21.824 17.4067 22.3079C17.9633 23.2436 18.9877 23.8728 20.1653 23.8728C21.343 23.8728 22.3673 23.2436 22.9239 22.3079C23.2223 21.824 23.3917 21.2513 23.3917 20.6463C23.3917 18.8637 21.9479 17.4199 20.1653 17.4199ZM21.835 20.2995L20.1169 21.8885C20.004 21.9934 19.8507 22.0498 19.7056 22.0498C19.5523 22.0498 19.399 21.9934 19.2781 21.8724L18.4795 21.0738C18.2456 20.8399 18.2456 20.4528 18.4795 20.2188C18.7134 19.9849 19.1006 19.9849 19.3345 20.2188L19.7217 20.606L21.0123 19.4122C21.2542 19.1864 21.6414 19.2025 21.8673 19.4445C22.0931 19.6865 22.077 20.0656 21.835 20.2995Z" fill="white"/>
<path d="M22.5851 11.4109V11.7739C22.5851 12.2175 22.2222 12.5805 21.7785 12.5805H7.25967C6.81604 12.5805 6.45306 12.2175 6.45306 11.7739V11.4028C6.45306 9.55569 7.94528 8.06348 9.7924 8.06348H19.2377C21.0849 8.06348 22.5851 9.56376 22.5851 11.4109Z" fill="white"/>
<path d="M6.45306 14.5969V18.5977C6.45306 20.4448 7.94528 21.937 9.7924 21.937H14.8417C15.3096 21.937 15.7129 21.5418 15.6725 21.0739C15.5596 19.8398 15.9549 18.5009 17.0518 17.4361C17.5035 16.9925 18.0601 16.6537 18.665 16.4602C19.6733 16.1375 20.6493 16.1778 21.5124 16.4682C22.0366 16.6457 22.5851 16.2666 22.5851 15.71V14.5888C22.5851 14.1452 22.2222 13.7822 21.7785 13.7822H7.25967C6.81604 13.7903 6.45306 14.1533 6.45306 14.5969ZM11.2927 19.2349H9.67948C9.34877 19.2349 9.07453 18.9606 9.07453 18.6299C9.07453 18.2992 9.34877 18.025 9.67948 18.025H11.2927C11.6234 18.025 11.8976 18.2992 11.8976 18.6299C11.8976 18.9606 11.6234 19.2349 11.2927 19.2349Z" fill="white"/>
</g>
<defs>
<linearGradient id="paint0_linear_1_47905" x1="30.5" y1="0.344257" x2="-1.99999" y2="19.8442" gradientUnits="userSpaceOnUse">
<stop stop-color="#BFC6C8"/>
<stop offset="1" stop-color="#55595B"/>
</linearGradient>
<clipPath id="clip0_1_47905">
<rect width="29.0377" height="29.0377" fill="white" transform="translate(0 0.480957)"/>
</clipPath>
</defs>
</svg>
