<svg width="30" height="30" viewBox="0 0 30 30" fill="none" xmlns="http://www.w3.org/2000/svg">
<g clip-path="url(#clip0_219_2968)">
<rect width="30" height="30" rx="10" fill="url(#paint0_linear_219_2968)"/>
<rect width="30" height="30" rx="10" fill="url(#paint1_linear_219_2968)" fill-opacity="0.6"/>
<rect width="30" height="30" rx="10" fill="#F4663E"/>
<rect x="0.5" y="0.5" width="29" height="29" rx="9.5" stroke="white" stroke-opacity="0.12"/>
<path d="M24.1869 19.3999C23.8813 21.8628 21.8628 23.8813 19.3998 24.1869C17.9091 24.3721 16.5202 23.9647 15.4369 23.1684C14.8165 22.7147 14.9646 21.7517 15.7054 21.5295C18.4924 20.6869 20.6869 18.4832 21.5387 15.6962C21.7609 14.9647 22.7239 14.8165 23.1776 15.4276C23.9646 16.5202 24.3721 17.9091 24.1869 19.3999Z" fill="white"/>
<path d="M13.1406 5.74268C9.05725 5.74268 5.74243 9.05749 5.74243 13.1408C5.74243 17.2242 9.05725 20.539 13.1406 20.539C17.2239 20.539 20.5387 17.2242 20.5387 13.1408C20.5295 9.05749 17.2239 5.74268 13.1406 5.74268ZM12.2702 12.1038L14.5017 12.8816C15.3072 13.1686 15.6961 13.7334 15.6961 14.6038C15.6961 15.6038 14.8998 16.4279 13.9276 16.4279H13.8443V16.4742C13.8443 16.8538 13.5295 17.1686 13.1498 17.1686C12.7702 17.1686 12.4554 16.8538 12.4554 16.4742V16.4186C11.4276 16.3723 10.6035 15.5112 10.6035 14.4371C10.6035 14.0575 10.9184 13.7427 11.298 13.7427C11.6776 13.7427 11.9924 14.0575 11.9924 14.4371C11.9924 14.7705 12.2332 15.039 12.5295 15.039H13.9184C14.1313 15.039 14.298 14.8445 14.298 14.6038C14.298 14.2797 14.2424 14.2612 14.0295 14.1871L11.798 13.4093C11.0017 13.1316 10.6035 12.5667 10.6035 11.6871C10.6035 10.6871 11.3998 9.86305 12.3721 9.86305H12.4554V9.82601C12.4554 9.44638 12.7702 9.13156 13.1498 9.13156C13.5295 9.13156 13.8443 9.44638 13.8443 9.82601V9.88156C14.8721 9.92786 15.6961 10.789 15.6961 11.863C15.6961 12.2427 15.3813 12.5575 15.0017 12.5575C14.6221 12.5575 14.3072 12.2427 14.3072 11.863C14.3072 11.5297 14.0665 11.2612 13.7702 11.2612H12.3813C12.1684 11.2612 12.0017 11.4556 12.0017 11.6964C11.9924 12.0112 12.048 12.0297 12.2702 12.1038Z" fill="white"/>
<rect x="9.44629" y="8.89062" width="7.22222" height="8.88889" fill="white"/>
</g>
<defs>
<linearGradient id="paint0_linear_219_2968" x1="-5.10902e-07" y1="1.66667" x2="15.5212" y2="36.7688" gradientUnits="userSpaceOnUse">
<stop stop-color="#FFB633"/>
<stop offset="1" stop-color="#E8C774"/>
</linearGradient>
<linearGradient id="paint1_linear_219_2968" x1="15" y1="0" x2="15" y2="30" gradientUnits="userSpaceOnUse">
<stop stop-color="#E5FF47" stop-opacity="0"/>
<stop offset="1" stop-color="#FFAA47"/>
</linearGradient>
<clipPath id="clip0_219_2968">
<rect width="30" height="30" fill="white"/>
</clipPath>
</defs>
</svg>
