<svg width="32" height="32" viewBox="0 0 32 32" fill="none" xmlns="http://www.w3.org/2000/svg">
<g clip-path="url(#clip0_86_9343)">
<rect x="0.5" y="0.5" width="31" height="31" rx="7.5" stroke="white" stroke-opacity="0.12"/>
<path d="M20.9525 22.4998C20.693 22.3955 20.4066 22.3292 20.1785 22.1786C19.0025 21.4078 17.8415 20.616 16.6752 19.8315C16.2396 19.5388 15.7975 19.2535 15.3662 18.9534C14.8192 18.5732 14.7544 18.011 15.23 17.5508C16.6125 16.2135 18.008 14.8889 19.3981 13.559C19.5581 13.4063 19.7299 13.2631 19.8726 13.0957C19.9267 13.0314 19.9126 12.9125 19.9299 12.8187C19.8337 12.8061 19.7094 12.7492 19.6456 12.7872C19.263 13.0135 18.8911 13.2599 18.5204 13.5042C16.7887 14.6446 15.0668 15.8008 13.3232 16.9232C12.5947 17.3929 11.7656 17.3802 10.9527 17.1717C10.1301 16.9611 9.32269 16.6958 8.50658 16.4578C8.20067 16.3704 8.02016 16.1925 8.00178 15.9482C7.98016 15.6534 8.15744 15.4996 8.40713 15.3964C9.35728 15.0058 10.3096 14.6172 11.2576 14.2234C12.5774 13.6748 13.894 13.1199 15.2138 12.5703C16.1466 12.1828 17.0827 11.8026 18.0156 11.4151C19.1289 10.9539 20.239 10.4875 21.3535 10.0284C21.7491 9.86516 22.1447 9.69879 22.5522 9.56928C22.9025 9.45871 23.2592 9.4724 23.591 9.66931C23.9121 9.8599 24.0526 10.2421 23.9812 10.6791C23.8256 11.6373 23.6861 12.5987 23.5359 13.5579C23.3467 14.7594 23.1489 15.9598 22.963 17.1623C22.8279 18.0352 22.7079 18.9113 22.5739 19.7852C22.4874 20.3465 22.4182 20.914 22.2853 21.4658C22.1415 22.0607 21.6021 22.4324 20.9525 22.5019V22.4998Z" fill="white"/>
</g>
<defs>
<clipPath id="clip0_86_9343">
<rect width="32" height="32" fill="white"/>
</clipPath>
</defs>
</svg>
