<svg width="102" height="25" viewBox="0 0 102 25" fill="none" xmlns="http://www.w3.org/2000/svg">
<g clip-path="url(#clip0_2_48055)">
<g opacity="0.8" clip-path="url(#clip1_2_48055)">
<path d="M51.6243 12.6553V20.1012H49.4247V12.7869C49.4247 10.0069 48.1101 8.53864 45.7224 8.53864C43.1466 8.53864 41.5905 10.3995 41.5905 13.4156V20.1012H39.3862V6.7299H41.5858V8.53864C42.3918 7.51511 43.7853 6.57104 46.0941 6.57104C49.1809 6.57104 51.622 8.22319 51.622 12.6531L51.6243 12.6553Z" fill="#FDFAF9"/>
<path d="M53.2599 13.418C53.2599 9.35347 56.0517 6.57349 60.049 6.57349C64.0462 6.57349 66.8381 9.35347 66.8381 13.418C66.8381 17.4825 64.0462 20.2625 60.049 20.2625C56.0517 20.2625 53.2599 17.4825 53.2599 13.418ZM64.5851 13.418C64.5851 10.5608 62.7595 8.48889 60.049 8.48889C57.3385 8.48889 55.5129 10.5608 55.5129 13.418C55.5129 16.2752 57.3385 18.3471 60.049 18.3471C62.7595 18.3471 64.5851 16.2752 64.5851 13.418Z" fill="#FDFAF9"/>
<path d="M79.4774 1.74878H81.6766V20.1037H79.5055L79.4774 17.9546C78.5646 19.1868 77.0899 20.2625 74.7809 20.2625C70.9973 20.2625 68.2054 17.7707 68.2054 13.418C68.2054 9.32856 70.9973 6.57352 74.7809 6.57352C77.0899 6.57352 78.6459 7.49036 79.4774 8.77708V1.74878ZM79.5055 13.4702C79.5055 10.5336 77.6799 8.48889 74.9969 8.48889C72.3143 8.48889 70.4608 10.5087 70.4608 13.418C70.4608 16.3274 72.2864 18.3472 74.9969 18.3472C77.7073 18.3472 79.5055 16.3274 79.5055 13.4702Z" fill="#FDFAF9"/>
<path d="M83.8794 1.74878H86.0786V20.1037H83.8794V1.74878Z" fill="#FDFAF9"/>
<path d="M87.9287 13.418C87.9287 9.35347 90.5585 6.57349 94.4231 6.57349C98.2877 6.57349 100.81 8.95866 100.917 12.9187C100.917 13.207 100.889 13.5224 100.864 13.8356H90.238V14.0194C90.3193 16.5634 91.9543 18.3448 94.5575 18.3448C96.4902 18.3448 97.993 17.3486 98.4487 15.6171H100.676C100.139 18.2904 97.8837 20.258 94.7177 20.258C90.6117 20.258 87.9287 17.5052 87.9287 13.4134V13.418ZM98.555 12.0541C98.3416 9.74608 96.7294 8.46163 94.4489 8.46163C92.435 8.46163 90.5836 9.87776 90.3702 12.0541H98.555Z" fill="#FDFAF9"/>
<path d="M16.5577 13.0723L14.5796 13.0181L14.6072 11.7861L16.5715 11.8268L16.5577 13.0723Z" fill="#FDFAF9"/>
<path fill-rule="evenodd" clip-rule="evenodd" d="M21.026 0.265137C24.2906 0.265137 26.9604 1.2128 28.7587 2.98628C30.3357 4.55669 31.1795 6.73631 31.138 9.10545C31.0965 11.1362 30.142 13.0586 28.4543 14.5206C26.8497 15.9015 24.7609 16.6868 22.6998 16.6868H22.5615L17.1112 16.592L17.125 15.4684L22.5753 15.5631C24.3736 15.5902 26.0751 14.9268 27.3754 13.7084C28.6757 12.4764 29.4088 10.8383 29.4365 9.07841C29.4642 7.65689 29.0354 6.28956 28.1777 5.12529L28.1224 5.15236C28.5789 6.10003 28.8002 7.11537 28.7864 8.17131C28.7172 11.9079 25.5909 14.8862 21.8006 14.8862H21.6761L16.4887 14.7914L14.5798 14.7508L11.2321 14.6967H11.163C8.99119 14.6967 7.20668 16.4024 7.16518 18.5415C7.15135 19.462 7.46951 20.3691 8.06433 21.0866L8.20263 21.2491L8.11967 21.046C7.91217 20.5316 7.80151 20.0036 7.81533 19.4485C7.85684 17.1876 9.75195 15.3736 12.0483 15.3736H12.1313L13.9296 15.4006L13.9157 16.5243L12.1175 16.4972H12.0621C10.3883 16.4972 9.00501 17.8104 8.97729 19.462C8.96347 20.2743 9.21248 20.8836 9.71049 21.2897C10.1808 21.6688 10.8586 21.8718 11.7439 21.8854C12.5462 21.8989 13.2518 21.5469 13.7774 20.9106C14.2616 20.3285 14.5382 19.5027 14.5521 18.6768L14.6074 15.4277L16.4472 15.4684L16.3919 18.7175C16.3642 20.2608 15.8662 21.6688 14.9948 22.6706C13.8881 23.9296 12.2696 24.5659 10.1393 24.5659C6.98535 24.5659 4.55072 23.713 2.89074 22.0614C1.35527 20.5316 0.53911 18.2707 0.58061 15.7256C0.622109 13.6678 1.47976 11.7453 3.00141 10.3104C4.48155 8.9159 6.43202 8.14428 8.47935 8.14428H8.63146L14.0817 8.23905L14.0679 9.36266L8.61764 9.26796C6.81935 9.24085 5.11787 9.90418 3.81756 11.1226C2.51725 12.3546 1.78409 13.9927 1.75643 15.7526C1.72876 17.1741 2.15759 18.5415 3.01524 19.7057L3.07057 19.6786C2.61408 18.731 2.39275 17.7157 2.40659 16.6597C2.43425 14.8456 3.19507 13.1398 4.53689 11.8672C5.85104 10.6217 7.56634 9.94481 9.37848 9.94481H9.50295L14.6904 10.0396L16.5994 10.0802L19.947 10.1344H20.0161C22.1879 10.1344 23.9724 8.42859 24.0139 6.28956C24.0277 5.36897 23.7096 4.46192 23.1148 3.74441L22.9764 3.58195L23.0594 3.78502C23.267 4.28593 23.3638 4.82745 23.35 5.38251C23.3084 7.64336 21.4133 9.45743 19.117 9.45743H19.034L17.2357 9.43039L17.2496 8.30671L19.0478 8.33382C19.8778 8.36086 20.6525 8.0495 21.2473 7.49444C21.8421 6.93938 22.1741 6.18125 22.1879 5.38251C22.2018 4.57023 21.9528 3.96102 21.4548 3.55487C20.9844 3.17581 20.3067 2.97274 19.4213 2.9592H19.3798C18.6052 2.9592 17.8997 3.31119 17.3879 3.93394C16.9037 4.51608 16.627 5.3419 16.6132 6.16771L16.5579 9.41688L14.718 9.37625L14.7734 6.1271C14.7872 4.98991 15.05 3.37888 16.1429 2.11985C17.208 0.887886 18.8542 0.265137 21.026 0.265137ZM21.8006 13.7625C24.9684 13.7625 27.569 11.2716 27.6382 8.11717C27.6659 6.85815 27.2647 5.65327 26.5039 4.63792L26.3103 4.39424L26.4347 4.67853C26.8082 5.47728 26.9881 6.34371 26.9742 7.22368C26.9466 8.80761 26.2825 10.2968 25.1206 11.3934C23.9863 12.4629 22.4923 13.0586 20.9153 13.0586H20.8046L17.1804 12.9909L17.1942 11.8672L20.8185 11.9349H20.9015C22.1741 11.9349 23.3776 11.4475 24.3045 10.5811C25.2589 9.6876 25.7846 8.49626 25.8122 7.21014C25.8261 6.10003 25.4802 5.05759 24.7886 4.19117L24.6226 3.9881L24.7333 4.23178C25.0238 4.8816 25.1621 5.58558 25.1482 6.30309C25.1206 7.64336 24.5673 8.90238 23.5713 9.83652C22.6029 10.7571 21.3442 11.258 20.0023 11.258H19.9055L16.5579 11.2039H16.5302V11.2174L14.6904 11.1768L9.4753 11.082H9.36466C6.19686 11.082 3.59623 13.573 3.5409 16.6868C3.51324 17.9458 3.90056 19.1507 4.67521 20.166L4.85505 20.4097L4.73055 20.1254C4.35706 19.3266 4.17722 18.4602 4.19106 17.5803C4.24639 14.3447 6.95768 11.7453 10.25 11.7453H10.3606L13.9711 11.8401L13.9573 12.9638L10.333 12.8961H10.25C7.58017 12.8961 5.38071 14.9945 5.33921 17.6209C5.32537 18.731 5.6712 19.7599 6.36286 20.6399L6.52886 20.8429L6.41819 20.5992C6.12769 19.9494 5.98936 19.2455 6.0032 18.5279C6.03086 17.1876 6.58419 15.9286 7.58017 14.9945C8.54846 14.0739 9.80731 13.573 11.1491 13.573H11.2459L14.5936 13.6271L16.5025 13.6678L21.69 13.7625H21.8006Z" fill="#FDFAF9"/>
</g>
</g>
<defs>
<clipPath id="clip0_2_48055">
<rect width="101" height="24.3008" fill="white" transform="translate(0.579102 0.265137)"/>
</clipPath>
<clipPath id="clip1_2_48055">
<rect width="101" height="24.3008" fill="white" transform="translate(0.579102 0.265137)"/>
</clipPath>
</defs>
</svg>
