<svg width="25" height="24" viewBox="0 0 25 24" fill="none" xmlns="http://www.w3.org/2000/svg">
<g clip-path="url(#clip0_134_11160)">
<path d="M20.1354 5.68125L13.8654 2.30125C13.2054 1.94125 12.4054 1.94125 11.7454 2.30125L5.47535 5.68125C5.01535 5.93125 4.73535 6.41125 4.73535 6.96125C4.73535 7.50125 5.01535 7.99125 5.47535 8.24125L11.7454 11.6213C12.0754 11.8013 12.4454 11.8913 12.8054 11.8913C13.1654 11.8913 13.5354 11.8013 13.8654 11.6213L20.1354 8.24125C20.5954 7.99125 20.8754 7.51125 20.8754 6.96125C20.8754 6.41125 20.5954 5.93125 20.1354 5.68125Z" fill="#E1E6EF" fill-opacity="0.73"/>
<path d="M10.7157 12.79L4.87566 9.87C4.42566 9.65 3.90566 9.67 3.48566 9.93C3.05566 10.2 2.80566 10.65 2.80566 11.15V16.66C2.80566 17.61 3.33566 18.47 4.18566 18.9L10.0157 21.82C10.2157 21.92 10.4357 21.97 10.6557 21.97C10.9157 21.97 11.1757 21.9 11.4057 21.76C11.8357 21.5 12.0857 21.04 12.0857 20.54V15.03C12.0957 14.07 11.5657 13.21 10.7157 12.79Z" fill="#E1E6EF" fill-opacity="0.73"/>
<path d="M22.1264 9.93002C21.6964 9.67002 21.1764 9.64002 20.7364 9.87002L14.9064 12.79C14.0564 13.22 13.5264 14.07 13.5264 15.03V20.54C13.5264 21.04 13.7764 21.5 14.2064 21.76C14.4364 21.9 14.6964 21.97 14.9564 21.97C15.1764 21.97 15.3964 21.92 15.5964 21.82L21.4264 18.9C22.2764 18.47 22.8064 17.62 22.8064 16.66V11.15C22.8064 10.65 22.5564 10.2 22.1264 9.93002Z" fill="#A8ACB4"/>
</g>
<defs>
<clipPath id="clip0_134_11160">
<rect width="24" height="24" fill="white" transform="translate(0.805664)"/>
</clipPath>
</defs>
</svg>
