<svg width="48" height="48" viewBox="0 0 48 48" fill="none" xmlns="http://www.w3.org/2000/svg">
<g clip-path="url(#clip0_42_28956)">
<path d="M28.5872 14.4727H18.4629V32.6664H28.5872V14.4727Z" fill="#FF5F00"/>
<path d="M19.1025 23.5707C19.1009 21.8185 19.498 20.0889 20.2636 18.5129C21.0293 16.9368 22.1435 15.5556 23.5218 14.4738C21.8149 13.1321 19.765 12.2978 17.6063 12.0661C15.4476 11.8344 13.2673 12.2147 11.3145 13.1636C9.36173 14.1125 7.71533 15.5916 6.56347 17.432C5.41162 19.2723 4.80078 21.3996 4.80078 23.5707C4.80078 25.7418 5.41162 27.8691 6.56347 29.7094C7.71533 31.5498 9.36173 33.0289 11.3145 33.9778C13.2673 34.9267 15.4476 35.307 17.6063 35.0753C19.765 34.8436 21.8149 34.0093 23.5218 32.6676C22.1435 31.5858 21.0293 30.2046 20.2636 28.6285C19.498 27.0525 19.1009 25.3229 19.1025 23.5707V23.5707Z" fill="#EB001B"/>
<path d="M42.24 23.5707C42.2401 25.7418 41.6293 27.869 40.4775 29.7094C39.3257 31.5497 37.6794 33.0289 35.7267 33.9778C33.774 34.9267 31.5937 35.307 29.435 35.0753C27.2763 34.8436 25.2264 34.0093 23.5195 32.6676C24.8967 31.5847 26.01 30.2033 26.7755 28.6275C27.5411 27.0517 27.9388 25.3226 27.9388 23.5707C27.9388 21.8188 27.5411 20.0897 26.7755 18.5139C26.01 16.9381 24.8967 15.5567 23.5195 14.4738C25.2264 13.1321 27.2763 12.2978 29.435 12.0661C31.5937 11.8344 33.774 12.2147 35.7267 13.1636C37.6794 14.1125 39.3257 15.5917 40.4775 17.432C41.6293 19.2723 42.2401 21.3996 42.24 23.5707V23.5707Z" fill="#F79E1B"/>
<path d="M41.1386 30.7402V30.3678H41.2888V30.2919H40.9062V30.3678H41.0565V30.7402H41.1386ZM41.8812 30.7402V30.2911H41.7639L41.6291 30.6001L41.4942 30.2911H41.3769V30.7402H41.4597V30.4015L41.5861 30.6935H41.672L41.7984 30.4007V30.7402H41.8812Z" fill="#F79E1B"/>
</g>
<defs>
<clipPath id="clip0_42_28956">
<rect width="48" height="48" fill="white"/>
</clipPath>
</defs>
</svg>
