<svg width="24" height="25" viewBox="0 0 24 25" fill="none" xmlns="http://www.w3.org/2000/svg">
<g clip-path="url(#clip0_86_9337)">
<g clip-path="url(#clip1_86_9337)">
<path d="M12 24.3784C18.6274 24.3784 24 19.0058 24 12.3784C24 5.751 18.6274 0.378418 12 0.378418C5.37258 0.378418 0 5.751 0 12.3784C0 19.0058 5.37258 24.3784 12 24.3784Z" fill="#F0F0F0"/>
<path d="M12 24.3784C18.6274 24.3784 24 19.0058 24 12.3784C24 10.9106 23.736 9.50447 23.2536 8.20453H0.746391C0.264047 9.50447 0 10.9106 0 12.3784C0 19.0058 5.37258 24.3784 12 24.3784Z" fill="#0052B4"/>
<path d="M11.9978 24.3786C17.1573 24.3786 21.5558 21.1221 23.2514 16.5525H0.744141C2.43966 21.1221 6.83817 24.3786 11.9978 24.3786Z" fill="#D80027"/>
<path d="M3.10547 7.16101V13.1472C3.10547 16.5524 7.55395 17.5958 7.55395 17.5958C7.55395 17.5958 12.0024 16.5524 12.0024 13.1472V7.16101H3.10547Z" fill="#F0F0F0"/>
<path d="M4.14844 7.16101V13.1472C4.14844 13.547 4.23722 13.9245 4.41309 14.2785H10.6937C10.8696 13.9246 10.9584 13.547 10.9584 13.1472V7.16101H4.14844Z" fill="#D80027"/>
<path d="M9.64069 11.3348H8.07553V10.2913H9.11902V9.24778H8.07553V8.20435H7.03205V9.24778H5.98861V10.2913H7.03205V11.3348H5.4668V12.3782H7.03205V13.4217H8.07553V12.3782H9.64069V11.3348Z" fill="#F0F0F0"/>
<path d="M5.83538 15.7352C6.5078 16.1578 7.19864 16.4031 7.55231 16.5123C7.90599 16.4032 8.59683 16.1578 9.26925 15.7352C9.94734 15.309 10.4227 14.8216 10.6926 14.2786C10.3949 14.068 10.0317 13.9438 9.63928 13.9438C9.49641 13.9438 9.35761 13.9607 9.22416 13.9918C8.94136 13.3492 8.29941 12.9003 7.55236 12.9003C6.80531 12.9003 6.16331 13.3492 5.88056 13.9918C5.74711 13.9607 5.60827 13.9438 5.46544 13.9438C5.07305 13.9438 4.7108 14.0679 4.41309 14.2785C4.68286 14.8215 5.15723 15.309 5.83538 15.7352Z" fill="#0052B4"/>
</g>
</g>
<defs>
<clipPath id="clip0_86_9337">
<rect width="24" height="24" fill="white" transform="translate(0 0.378418)"/>
</clipPath>
<clipPath id="clip1_86_9337">
<rect y="0.378418" width="24" height="24" rx="12" fill="white"/>
</clipPath>
</defs>
</svg>
