<svg width="32" height="33" viewBox="0 0 32 33" fill="none" xmlns="http://www.w3.org/2000/svg">
<g clip-path="url(#clip0_230_2336)">
<path d="M19.9998 30.4046H11.9998C4.75984 30.4046 1.6665 27.3113 1.6665 20.0713V12.0713C1.6665 4.83131 4.75984 1.73798 11.9998 1.73798H19.9998C27.2398 1.73798 30.3332 4.83131 30.3332 12.0713V20.0713C30.3332 27.3113 27.2398 30.4046 19.9998 30.4046ZM11.9998 3.73798C5.85317 3.73798 3.6665 5.92464 3.6665 12.0713V20.0713C3.6665 26.218 5.85317 28.4046 11.9998 28.4046H19.9998C26.1465 28.4046 28.3332 26.218 28.3332 20.0713V12.0713C28.3332 5.92464 26.1465 3.73798 19.9998 3.73798H11.9998Z" fill="#F4663E"/>
<path d="M21.3332 26.4046H10.6665C7.43984 26.4046 5.6665 24.6313 5.6665 21.4046V10.738C5.6665 7.51131 7.43984 5.73798 10.6665 5.73798H21.3332C24.5598 5.73798 26.3332 7.51131 26.3332 10.738V21.4046C26.3332 24.6313 24.5598 26.4046 21.3332 26.4046ZM10.6665 7.73798C8.55984 7.73798 7.6665 8.63131 7.6665 10.738V21.4046C7.6665 23.5113 8.55984 24.4046 10.6665 24.4046H21.3332C23.4398 24.4046 24.3332 23.5113 24.3332 21.4046V10.738C24.3332 8.63131 23.4398 7.73798 21.3332 7.73798H10.6665Z" fill="#F4663E"/>
<path d="M9.97317 20.4046H6.6665C6.11984 20.4046 5.6665 19.9513 5.6665 19.4046C5.6665 18.858 6.11984 18.4046 6.6665 18.4046H9.97317C11.2665 18.4046 12.3065 17.3513 12.3065 16.0713C12.3065 14.7913 11.2532 13.738 9.97317 13.738H6.6665C6.11984 13.738 5.6665 13.2846 5.6665 12.738C5.6665 12.1913 6.11984 11.738 6.6665 11.738H9.97317C12.3598 11.738 14.3065 13.6846 14.3065 16.0713C14.3065 18.458 12.3732 20.4046 9.97317 20.4046Z" fill="#F4663E"/>
<path d="M25.3335 14.3913H21.3335C20.7868 14.3913 20.3335 13.938 20.3335 13.3913C20.3335 12.8446 20.7868 12.3913 21.3335 12.3913H25.3335C25.8802 12.3913 26.3335 12.8446 26.3335 13.3913C26.3335 13.938 25.8802 14.3913 25.3335 14.3913Z" fill="#F4663E"/>
<path d="M25.3335 19.738H21.3335C20.7868 19.738 20.3335 19.2846 20.3335 18.738C20.3335 18.1913 20.7868 17.738 21.3335 17.738H25.3335C25.8802 17.738 26.3335 18.1913 26.3335 18.738C26.3335 19.2846 25.8802 19.738 25.3335 19.738Z" fill="#F4663E"/>
<path d="M9.66683 17.4046C9.4935 17.4046 9.32016 17.3646 9.16016 17.2979C9.00016 17.2313 8.85349 17.138 8.72015 17.018C8.46682 16.7647 8.3335 16.4313 8.3335 16.0713C8.3335 15.7246 8.48015 15.3779 8.72015 15.1246C9.09349 14.7646 9.68017 14.6313 10.1735 14.8447C10.3468 14.9113 10.4935 15.0046 10.6135 15.1246C10.8535 15.3779 11.0002 15.7246 11.0002 16.0713C11.0002 16.4313 10.8668 16.7647 10.6135 17.018C10.4802 17.138 10.3335 17.2313 10.1735 17.2979C10.0135 17.3646 9.84016 17.4046 9.66683 17.4046Z" fill="#F4663E"/>
</g>
<defs>
<clipPath id="clip0_230_2336">
<rect width="32" height="32" fill="white" transform="translate(0 0.0712891)"/>
</clipPath>
</defs>
</svg>
