<svg width="28" height="28" viewBox="0 0 28 28" fill="none" xmlns="http://www.w3.org/2000/svg">
<g clip-path="url(#clip0_93_10969)">
<g opacity="0.6">
<path d="M16.6699 7.09339C17.2605 6.37699 17.6768 5.39921 17.6768 4.41174C17.6768 4.2762 17.6671 4.14067 17.6477 4.03418C16.6796 4.0729 15.5178 4.67312 14.8306 5.48634C14.2787 6.10592 13.7752 7.09339 13.7752 8.08085C13.7752 8.23575 13.8043 8.38097 13.814 8.42938C13.8721 8.43905 13.9688 8.45841 14.0754 8.45841C14.937 8.45841 16.0213 7.87755 16.6699 7.09339ZM17.3476 8.66172C15.9051 8.66172 14.724 9.5427 13.9688 9.5427C13.1654 9.5427 12.1198 8.71981 10.8613 8.71981C8.47006 8.71981 6.0498 10.6947 6.0498 14.4122C6.0498 16.7357 6.94046 19.185 8.05378 20.763C9.00252 22.099 9.83509 23.193 11.0355 23.193C12.2166 23.193 12.7394 22.4087 14.2109 22.4087C15.7018 22.4087 16.0406 23.1736 17.3476 23.1736C18.6448 23.1736 19.5065 21.9828 20.3294 20.8115C21.2394 19.4658 21.6266 18.1589 21.6363 18.0911C21.5588 18.0717 19.0804 17.0552 19.0804 14.2186C19.0804 11.7597 21.0264 10.656 21.1425 10.5689C19.855 8.71981 17.8897 8.66172 17.3476 8.66172Z" fill="white"/>
</g>
</g>
<defs>
<clipPath id="clip0_93_10969">
<rect width="26.7197" height="26.7197" fill="white" transform="translate(0.484375 0.694336)"/>
</clipPath>
</defs>
</svg>
