<svg width="90" height="26" viewBox="0 0 90 26" fill="none" xmlns="http://www.w3.org/2000/svg">
<g clip-path="url(#clip0_2_48059)">
<g opacity="0.8" clip-path="url(#clip1_2_48059)">
<mask id="mask0_2_48059" style="mask-type:luminance" maskUnits="userSpaceOnUse" x="1" y="1" width="89" height="25">
<path d="M89.9883 1.19678H1.26758V25.1096H89.9883V1.19678Z" fill="white"/>
</mask>
<g mask="url(#mask0_2_48059)">
<path d="M15.7695 3.54053C14.9117 3.54053 14.207 4.42188 14.207 5.51765C14.207 6.61342 14.9122 7.44678 15.7695 7.44678C16.6269 7.44678 17.332 6.56542 17.332 5.51765C17.332 4.46987 16.6458 3.54053 15.7695 3.54053Z" fill="#FDFAF9"/>
<path d="M17.332 8.22803H14.207V18.3843H17.332V8.22803Z" fill="#FDFAF9"/>
<path d="M46.4281 8.22803C45.3215 8.22803 44.0898 8.69068 43.463 9.71652V8.48962H40.7695V18.3843H43.5466V12.693C43.5466 11.5466 44.2564 10.6418 45.4674 10.6418C46.8035 10.6418 47.3674 11.5066 47.3674 12.6125V18.3843H50.1445V12.1498C50.1445 9.97811 48.9751 8.22803 46.4281 8.22803Z" fill="#FDFAF9"/>
<path d="M56.0039 8.22803C53.1104 8.22803 50.9258 10.3489 50.9258 13.3059C50.9258 16.2629 53.1104 18.3843 56.0039 18.3843C58.8974 18.3843 61.082 16.2441 61.082 13.3059C61.082 10.3677 58.8974 8.22803 56.0039 8.22803ZM56.0039 16.0302C54.7243 16.0302 53.5437 15.0963 53.5437 13.3064C53.5437 11.5165 54.7243 10.5826 56.0039 10.5826C57.2835 10.5826 58.4642 11.4972 58.4642 13.3064C58.4642 15.1157 57.2835 16.0302 56.0039 16.0302Z" fill="#FDFAF9"/>
<path d="M74.5664 8.22803C73.2137 8.22803 72.1323 8.66976 71.3204 9.87364C70.8004 8.81001 69.6765 8.22803 68.2831 8.22803C67.1598 8.22803 65.849 8.7496 65.2872 9.71291V8.50903H62.6445V18.3832H65.4118V12.6034C65.4118 11.5198 66.1192 10.6568 67.3258 10.6568C68.5324 10.6568 69.1358 11.4594 69.1358 12.5236V18.3838H71.8824V12.6039C71.8824 11.5403 72.5897 10.6573 73.7757 10.6573C75.045 10.6573 75.5857 11.4599 75.5857 12.5241V18.3843H78.2695V11.9825C78.2695 9.33316 76.4597 8.2296 74.5664 8.2296V8.22803Z" fill="#FDFAF9"/>
<path d="M86.3462 8.22803L83.9091 14.1318L81.2708 8.22803H78.2695L82.479 17.0424L80.1425 22.2905H82.9826L89.207 8.22803H86.3462Z" fill="#FDFAF9"/>
<path d="M23.3533 16.0297C22.0329 16.0297 20.8146 15.0958 20.8146 13.3059C20.8146 11.516 22.0335 10.5821 23.3533 10.5821C24.1723 10.5821 24.8953 10.935 25.3264 11.6352L27.8741 10.8347C27.0545 9.2378 25.413 8.22803 23.3533 8.22803C20.3676 8.22803 18.1133 10.3489 18.1133 13.3059C18.1133 16.2629 20.3676 18.3843 23.3533 18.3843C25.8345 18.3843 27.7077 16.905 28.2695 14.719H25.4641C25.0622 15.5903 24.2681 16.0297 23.3533 16.0297Z" fill="#FDFAF9"/>
<path d="M34.5196 8.22803C31.4035 8.22803 29.0508 10.3489 29.0508 13.3059C29.0508 16.2629 31.4035 18.3843 34.5196 18.3843C37.6356 18.3843 39.9883 16.2441 39.9883 13.3059C39.9883 10.3677 37.6356 8.22803 34.5196 8.22803ZM34.5196 16.0302C33.1415 16.0302 31.87 15.0963 31.87 13.3064C31.87 11.5165 33.1421 10.5826 34.5196 10.5826C35.897 10.5826 37.169 11.4972 37.169 13.3064C37.169 15.1157 35.897 16.0302 34.5196 16.0302Z" fill="#FDFAF9"/>
<path d="M10.7557 9.36782C11.3403 8.61069 11.4621 7.88373 11.4621 7.01421C11.4621 6.14469 10.6519 3.54053 7.69955 3.54053H0.925781V18.3843H8.24267C11.8874 18.3843 13.4258 15.9177 13.4258 13.3146C13.4258 12.1211 12.9175 10.5723 10.7557 9.36782ZM3.78667 5.81849H7.23667C8.03058 5.81849 8.67357 6.44732 8.67357 7.22254C8.67357 7.99831 8.03002 8.62659 7.23667 8.62659H3.78667V5.81849ZM7.90491 16.1063H3.78667V10.9051H7.90491C9.3749 10.9051 10.566 12.0696 10.566 13.5054C10.566 15.0975 9.50679 16.1063 7.90491 16.1063Z" fill="#FDFAF9"/>
</g>
</g>
</g>
<defs>
<clipPath id="clip0_2_48059">
<rect width="88.2812" height="25" fill="white" transform="translate(0.924805 0.415527)"/>
</clipPath>
<clipPath id="clip1_2_48059">
<rect width="88.2812" height="25" fill="white" transform="translate(0.924805 0.415527)"/>
</clipPath>
</defs>
</svg>
