<svg width="25" height="24" viewBox="0 0 25 24" fill="none" xmlns="http://www.w3.org/2000/svg">
<g clip-path="url(#clip0_134_11157)">
<path d="M17.4557 5.71875H8.15566C5.20566 5.71875 2.80566 8.11875 2.80566 11.0688V16.6488C2.80566 19.5988 5.20566 21.9988 8.15566 21.9988H17.4557C20.4057 21.9988 22.8057 19.5988 22.8057 16.6488V11.0688C22.8057 8.11875 20.4057 5.71875 17.4557 5.71875ZM15.3057 12.0188C15.3057 11.4688 15.7557 11.0188 16.3057 11.0188C16.8557 11.0188 17.3057 11.4688 17.3057 12.0188C17.3057 12.5688 16.8557 13.0287 16.3057 13.0287C15.7557 13.0287 15.3057 12.5887 15.3057 12.0387V12.0188ZM10.9357 16.0688C10.7857 16.2188 10.5957 16.2888 10.4057 16.2888C10.2157 16.2888 10.0257 16.2188 9.87566 16.0688L8.84566 15.0387L7.85566 16.0288C7.70566 16.1788 7.51566 16.2488 7.32566 16.2488C7.13566 16.2488 6.94566 16.1788 6.79566 16.0288C6.50566 15.7388 6.50566 15.2587 6.79566 14.9688L7.78566 13.9788L6.82566 13.0188C6.53566 12.7288 6.53566 12.2487 6.82566 11.9587C7.11566 11.6687 7.59566 11.6687 7.88566 11.9587L8.84566 12.9188L9.83566 11.9288C10.1257 11.6388 10.6057 11.6388 10.8957 11.9288C11.1857 12.2188 11.1857 12.6988 10.8957 12.9888L9.90566 13.9788L10.9357 15.0088C11.2257 15.2988 11.2257 15.7788 10.9357 16.0688ZM14.3457 14.9988C13.7957 14.9988 13.3357 14.5488 13.3357 13.9988C13.3357 13.4488 13.7757 12.9988 14.3257 12.9988H14.3457C14.8957 12.9988 15.3457 13.4488 15.3457 13.9988C15.3457 14.5488 14.9057 14.9988 14.3457 14.9988ZM16.3057 16.9688C15.7557 16.9688 15.3057 16.5288 15.3057 15.9788V15.9587C15.3057 15.4087 15.7557 14.9587 16.3057 14.9587C16.8557 14.9587 17.3057 15.4087 17.3057 15.9587C17.3057 16.5087 16.8657 16.9688 16.3057 16.9688ZM18.2857 14.9988C17.7357 14.9988 17.2757 14.5488 17.2757 13.9988C17.2757 13.4488 17.7157 12.9988 18.2657 12.9988H18.2857C18.8357 12.9988 19.2857 13.4488 19.2857 13.9988C19.2857 14.5488 18.8457 14.9988 18.2857 14.9988Z" fill="#E1E6EF" fill-opacity="0.73"/>
<path d="M14.445 2.71L14.435 3.65C14.425 4.53 13.695 5.26 12.805 5.26C12.655 5.26 12.565 5.36 12.565 5.49C12.565 5.62 12.665 5.72 12.795 5.72H11.185C11.175 5.65 11.165 5.57 11.165 5.49C11.165 4.59 11.895 3.86 12.785 3.86C12.935 3.86 13.035 3.76 13.035 3.63L13.045 2.69C13.055 2.31 13.365 2 13.745 2H13.755C14.145 2 14.445 2.32 14.445 2.71Z" fill="#E1E6EF" fill-opacity="0.73"/>
</g>
<defs>
<clipPath id="clip0_134_11157">
<rect width="24" height="24" fill="white" transform="translate(0.805664)"/>
</clipPath>
</defs>
</svg>
