<svg width="199" height="47" viewBox="0 0 199 47" fill="none" xmlns="http://www.w3.org/2000/svg">
<g clip-path="url(#clip0_2_48052)">
<g clip-path="url(#clip1_2_48052)">
<path d="M48.0299 17.7394C47.2297 17.3392 46.296 17.1392 45.0956 17.1392C43.8952 17.1392 42.8949 17.3392 42.0946 17.8061C41.2276 18.2729 40.5608 18.9398 40.0939 19.74C39.6271 20.5403 39.3604 21.474 39.3604 22.6744C39.3604 23.8748 39.6271 24.8751 40.0939 25.6754C40.5608 26.4756 41.2276 27.1425 42.0946 27.5427C42.9616 27.9428 43.9619 28.2096 45.1623 28.2096C46.2293 28.2096 47.163 28.0762 47.9632 27.7427C48.7635 27.4093 49.4304 26.9425 49.8972 26.4089C50.3641 25.8754 50.5641 25.1419 50.5641 24.4083V24.2082H48.23V24.4083C48.23 25.0752 47.9632 25.542 47.4964 25.8754C47.0296 26.2089 46.1626 26.4089 45.0956 26.4089C43.8285 26.4089 42.8949 26.1422 42.3614 25.542C41.8945 25.0085 41.6278 24.2082 41.5611 23.2746H50.6308C50.6308 23.1412 50.6975 22.9411 50.6975 22.8077C50.6975 22.6744 50.6975 22.4743 50.6975 22.2742C50.6975 21.2072 50.4307 20.2735 50.0306 19.54C49.4971 18.673 48.8302 18.1395 48.0299 17.7394ZM42.2947 19.8067C42.8282 19.2065 43.7618 18.9398 45.0289 18.9398C46.1626 18.9398 47.0296 19.2065 47.5631 19.6733C48.0966 20.1402 48.4301 20.8737 48.4301 21.8741V21.9408H41.5611C41.6278 21.0738 41.8278 20.3402 42.2947 19.8067Z" fill="white"/>
<path d="M62.5014 20.8738C61.8345 20.5403 61.0342 20.2736 60.1006 20.0735L56.6328 19.4733C56.0992 19.3399 55.6324 19.2065 55.2323 19.0732C54.8988 18.9398 54.6321 18.7397 54.432 18.473C54.2319 18.2062 54.1653 17.8728 54.1653 17.4726C54.1653 17.0058 54.2986 16.6723 54.4987 16.4056C54.7655 16.1388 55.1656 15.9388 55.6991 15.7387C56.2326 15.6053 56.9662 15.5386 57.8332 15.5386C58.8335 15.5386 59.6338 15.6053 60.234 15.8054C60.8342 16.0055 61.2343 16.2722 61.5011 16.6723C61.7678 17.0725 61.9012 17.5393 61.9012 18.1395V18.4063H64.2353V18.2729C64.2353 17.3392 64.0352 16.4723 63.5684 15.7387C63.1016 15.0051 62.4347 14.4049 61.5677 14.0048C60.7008 13.6046 59.5004 13.3379 58.0999 13.3379C56.9662 13.3379 56.0326 13.4713 55.2323 13.6713C54.432 13.9381 53.8318 14.2048 53.2983 14.605C52.8315 15.0051 52.4313 15.4719 52.2313 15.9388C52.0312 16.4723 51.8978 16.9391 51.8978 17.4726C51.8978 18.2729 52.0979 18.9398 52.4313 19.4733C52.7648 20.0068 53.2983 20.4069 53.8985 20.7404C54.4987 21.0738 55.2323 21.2739 56.0326 21.4073L59.5671 22.0075C60.5007 22.2075 61.1009 22.4076 61.5011 22.6744C61.9012 22.9411 62.1013 23.4079 62.1013 24.0748C62.1013 24.5417 61.9679 24.8751 61.7678 25.2086C61.5011 25.4753 61.1676 25.7421 60.5674 25.8754C60.0339 26.0088 59.3003 26.0755 58.3667 26.0755C57.2996 26.0755 56.4994 26.0088 55.8992 25.8088C55.299 25.6087 54.8988 25.3419 54.6321 24.9418C54.3653 24.5417 54.2319 24.0748 54.2319 23.5413V23.2079H51.8978V23.3413C51.8978 24.3416 52.1646 25.2086 52.6314 25.9421C53.0982 26.6757 53.8318 27.2759 54.8321 27.6761C55.8325 28.0762 56.9662 28.2763 58.4334 28.2763C59.8338 28.2763 60.9675 28.0762 61.9012 27.6761C62.7682 27.2759 63.435 26.7424 63.8352 26.1422C64.2353 25.4753 64.4354 24.8084 64.4354 24.0748C64.4354 23.4079 64.302 22.7411 63.9686 22.2075C63.6351 21.6073 63.1683 21.2072 62.5014 20.8738Z" fill="white"/>
<path d="M72.5718 23.0079L71.5715 25.6088H71.3714L70.3044 23.0746L67.5701 17.406H64.9692L70.2377 28.0763L69.9709 28.6098C69.8375 28.9432 69.6375 29.21 69.3707 29.3434C69.1707 29.4767 68.7705 29.5434 68.3037 29.5434H66.2363V31.6775H67.7702C68.5038 31.6775 69.104 31.6108 69.6375 31.4774C70.171 31.344 70.6378 31.0773 71.0379 30.6771C71.4381 30.3437 71.7715 29.8102 72.0383 29.21L77.5735 17.406H75.0393L72.5718 23.0079Z" fill="white"/>
<path d="M87.9769 17.7394C87.31 17.3392 86.5097 17.1392 85.5094 17.1392C84.6424 17.1392 83.8421 17.3392 83.2419 17.6727C82.6417 18.0061 82.1082 18.4729 81.7748 19.0065C81.4413 19.54 81.1746 20.1402 81.1079 20.7404H80.9745V17.4059H78.8405V28.0762H81.1746V22.6744C81.1746 21.6073 81.4413 20.7404 81.9748 20.1402C82.5084 19.54 83.442 19.2732 84.509 19.2732C85.6427 19.2732 86.443 19.54 86.9098 20.0068C87.3767 20.5403 87.6434 21.2739 87.6434 22.2742V28.0095H89.9775V21.6073C89.9775 20.8071 89.8442 20.0068 89.5107 19.3399C89.1773 18.673 88.6438 18.1395 87.9769 17.7394Z" fill="white"/>
<path d="M100.247 17.6727C99.4471 17.2725 98.4467 17.1392 97.3797 17.1392C96.1793 17.1392 95.179 17.3392 94.312 17.8061C93.4451 18.2729 92.7782 18.9398 92.3113 19.74C91.8445 20.5403 91.5778 21.6073 91.5778 22.6744C91.5778 23.7414 91.8445 24.7417 92.3113 25.542C92.7782 26.4089 93.4451 27.0092 94.312 27.476C95.179 27.9428 96.1793 28.1429 97.3797 28.1429C98.4467 28.1429 99.3804 27.9428 100.247 27.6094C101.114 27.2759 101.715 26.7424 102.181 26.0088C102.648 25.3419 102.915 24.5417 102.915 23.6747V23.4079H100.581V23.5413C100.581 24.3416 100.314 25.0085 99.7138 25.4086C99.1136 25.8087 98.3134 26.0088 97.313 26.0088C96.1126 26.0088 95.2457 25.7421 94.6455 25.1419C94.1119 24.5417 93.7785 23.7414 93.7785 22.541C93.7785 21.3406 94.0453 20.5403 94.6455 19.9401C95.179 19.3399 96.1126 19.0731 97.313 19.0731C98.3801 19.0731 99.1803 19.2732 99.7138 19.6733C100.314 20.0735 100.581 20.6737 100.581 21.5406V21.674H102.915V21.474C102.915 20.5403 102.648 19.8067 102.181 19.1398C101.781 18.6063 101.114 18.0728 100.247 17.6727Z" fill="white"/>
<path d="M119.187 22.1409L119.321 24.7418H119.121L117.253 22.0743L110.851 13.6047H108.317V28.0096H110.651V19.6068L110.585 17.0726H110.785L112.585 19.6068L119.054 28.0096H121.522V13.6047H119.187V22.1409Z" fill="white"/>
<path d="M132.058 17.7394C131.258 17.3392 130.324 17.1392 129.124 17.1392C127.924 17.1392 126.99 17.3392 126.123 17.8061C125.256 18.2729 124.589 18.9398 124.122 19.74C123.655 20.5403 123.389 21.474 123.389 22.6744C123.389 23.8748 123.655 24.8751 124.122 25.6754C124.589 26.4756 125.256 27.1425 126.123 27.5427C126.99 27.9428 127.99 28.2096 129.191 28.2096C130.258 28.2096 131.191 28.0762 131.992 27.7427C132.792 27.4093 133.459 26.9425 133.926 26.4089C134.392 25.8087 134.592 25.1419 134.592 24.4083V24.2082H132.258V24.4083C132.258 25.0752 131.992 25.542 131.525 25.8754C131.058 26.2089 130.258 26.4089 129.124 26.4089C127.857 26.4089 126.923 26.1422 126.39 25.542C125.923 25.0085 125.656 24.2082 125.589 23.2746H134.659C134.726 23.1412 134.726 22.9411 134.726 22.8077C134.726 22.6744 134.726 22.4743 134.726 22.2742C134.726 21.2072 134.526 20.2735 134.059 19.54C133.592 18.8064 132.925 18.1395 132.058 17.7394ZM126.39 19.8067C126.923 19.2065 127.857 18.9398 129.124 18.9398C130.258 18.9398 131.125 19.2065 131.658 19.6733C132.258 20.1402 132.525 20.8737 132.525 21.8741V21.9408H125.589C125.656 21.0738 125.923 20.3402 126.39 19.8067Z" fill="white"/>
<path d="M139.994 25.6087C139.661 25.4086 139.527 24.9418 139.527 24.2749V19.2732H143.395V17.3392H139.527V15.0051H137.193V17.3392H135.393V19.2732H137.193V24.4083C137.193 25.6754 137.527 26.609 138.194 27.1425C138.861 27.6761 139.727 28.0095 140.928 28.0095H143.395V25.9421H141.461C140.795 25.9421 140.328 25.8088 139.994 25.6087Z" fill="white"/>
<path d="M158.534 23.4081L158.067 26.1423H157.867L157.067 23.208L154.866 17.3394H151.865L149.664 23.208L148.864 26.1423H148.664L148.197 23.4081L146.397 17.3394H143.996L147.197 28.0096H150.065L152.465 21.8742L153.266 19.2733H153.399L154.266 21.8742L156.6 28.0096H159.468L162.669 17.3394H160.335L158.534 23.4081Z" fill="white"/>
<path d="M172.138 17.8061C171.271 17.3392 170.204 17.1392 169.004 17.1392C167.804 17.1392 166.803 17.3392 165.87 17.8061C165.003 18.2729 164.269 18.9398 163.802 19.74C163.335 20.5403 163.069 21.6073 163.069 22.6744C163.069 23.7414 163.335 24.7417 163.802 25.542C164.269 26.3423 165.003 27.0092 165.87 27.476C166.737 27.9428 167.804 28.1429 169.004 28.1429C170.204 28.1429 171.271 27.9428 172.138 27.476C173.005 27.0092 173.739 26.3423 174.206 25.542C174.673 24.7417 174.939 23.7414 174.939 22.6744C174.939 21.6073 174.673 20.607 174.206 19.74C173.739 18.9398 173.072 18.2729 172.138 17.8061ZM171.872 25.2752C171.271 25.8754 170.338 26.1422 169.071 26.1422C167.804 26.1422 166.87 25.8087 166.27 25.2752C165.67 24.675 165.403 23.8081 165.403 22.6744C165.403 21.5406 165.67 20.6737 166.27 20.0735C166.87 19.4733 167.737 19.1398 169.071 19.1398C170.405 19.1398 171.338 19.4733 171.872 20.0735C172.472 20.6737 172.739 21.5406 172.739 22.6744C172.739 23.8081 172.405 24.675 171.872 25.2752Z" fill="white"/>
<path d="M184.676 17.606C184.142 17.2726 183.476 17.0725 182.675 17.0725C181.942 17.0725 181.342 17.2059 180.808 17.4726C180.274 17.7394 179.874 18.1395 179.608 18.6064C179.341 19.0732 179.074 19.6067 179.007 20.2069H178.874V17.3393H176.74V28.0095H179.074V22.0075C179.074 21.0739 179.274 20.3403 179.674 19.8735C180.074 19.3399 180.741 19.1399 181.675 19.1399C182.475 19.1399 183.075 19.3399 183.409 19.6734C183.742 20.0068 183.942 20.607 183.942 21.3406V22.2743H186.277V20.8738C186.277 20.2069 186.143 19.6067 185.943 19.0065C185.543 18.4063 185.21 18.0062 184.676 17.606Z" fill="white"/>
<path d="M198.881 17.3393H196.213L193.012 21.6074H189.944V13.6047H187.61V28.0096H189.944V23.6748H193.012L196.146 28.0096H198.881L194.879 22.4744L198.881 17.3393Z" fill="white"/>
<path d="M15.1518 46.4156L26.689 34.8784C28.4897 33.0778 29.49 30.1435 29.2899 27.0758C29.1565 24.5416 28.2229 20.807 24.6217 17.2058L23.6213 16.2055L6.41555 33.3446L6.34886 33.2779C1.68063 27.8094 3.81468 23.0077 6.41555 19.94C9.2165 16.6723 20.4203 5.66858 22.2209 4.06804L22.2876 4.00135L22.3543 4.13473C23.4213 6.20209 23.0211 8.66959 21.3539 10.3368L9.68332 21.9407C9.14981 22.4742 8.88305 23.2078 8.88305 23.9414C8.88305 24.675 9.14981 25.3419 9.61663 25.8754L23.2879 12.2041C26.3556 9.13641 26.489 4.20141 23.488 1.00034L22.621 0L21.6207 0.866959C21.554 1.00034 8.28285 13.5379 4.34819 18.2061C-0.653492 24.0081 -0.253358 30.6103 5.41522 36.3456L6.41555 37.3459L23.6213 20.1401L23.688 20.2068C25.8888 22.8744 26.489 25.4752 26.5557 27.2092C26.689 29.5433 25.9555 31.744 24.7551 32.9444L15.2852 42.4143L15.2185 42.2809C14.1515 40.2802 14.4849 37.746 16.0855 36.1455L19.7534 32.4776C20.2869 31.9441 20.5536 31.2105 20.5536 30.4769C20.5536 29.7433 20.2869 29.0765 19.7534 28.5429L14.0848 34.2115C11.0171 37.3459 11.0171 42.3476 14.0848 45.4153L15.1518 46.4156Z" fill="white"/>
</g>
</g>
<defs>
<clipPath id="clip0_2_48052">
<rect width="198" height="46.4156" fill="white" transform="translate(0.879883)"/>
</clipPath>
<clipPath id="clip1_2_48052">
<rect width="198" height="46.4156" fill="white" transform="translate(0.879883)"/>
</clipPath>
</defs>
</svg>
