<svg width="32" height="33" viewBox="0 0 32 33" fill="none" xmlns="http://www.w3.org/2000/svg">
<g clip-path="url(#clip0_230_2333)">
<path d="M20.0001 30.4046H12.0001C4.76008 30.4046 1.66675 27.3113 1.66675 20.0713V12.0713C1.66675 4.83131 4.76008 1.73798 12.0001 1.73798H20.0001C27.2401 1.73798 30.3334 4.83131 30.3334 12.0713V20.0713C30.3334 27.3113 27.2401 30.4046 20.0001 30.4046ZM12.0001 3.73798C5.85341 3.73798 3.66675 5.92464 3.66675 12.0713V20.0713C3.66675 26.218 5.85341 28.4046 12.0001 28.4046H20.0001C26.1467 28.4046 28.3334 26.218 28.3334 20.0713V12.0713C28.3334 5.92464 26.1467 3.73798 20.0001 3.73798H12.0001Z" fill="#F4663E"/>
<path d="M21 13.0713H11C10.4533 13.0713 10 12.618 10 12.0713C10 11.5246 10.4533 11.0713 11 11.0713H21C21.5467 11.0713 22 11.5246 22 12.0713C22 12.618 21.5467 13.0713 21 13.0713Z" fill="#F4663E"/>
<path d="M21 21.0713H11C10.4533 21.0713 10 20.618 10 20.0713C10 19.5246 10.4533 19.0713 11 19.0713H21C21.5467 19.0713 22 19.5246 22 20.0713C22 20.618 21.5467 21.0713 21 21.0713Z" fill="#F4663E"/>
</g>
<defs>
<clipPath id="clip0_230_2333">
<rect width="32" height="32" fill="white" transform="translate(0 0.0712891)"/>
</clipPath>
</defs>
</svg>
