<svg width="58" height="48" viewBox="0 0 58 48" fill="none" xmlns="http://www.w3.org/2000/svg">
<g clip-path="url(#clip0_42_28957)">
<path d="M28.7227 14.729L24.9146 32.7199H20.3085L24.117 14.729H28.7227ZM48.1003 26.3459L50.5245 19.59L51.9196 26.3459H48.1003ZM53.241 32.7199H57.5L53.7792 14.729H49.8506C48.9652 14.729 48.2188 15.2477 47.8885 16.0477L40.9775 32.7199H45.8147L46.7749 30.033H52.6832L53.241 32.7199ZM41.2173 26.8465C41.2373 22.0984 34.7219 21.8353 34.7656 19.7138C34.7796 19.0692 35.3883 18.3825 36.7185 18.2069C37.378 18.1211 39.1979 18.0515 41.261 19.0121L42.0678 15.1955C40.9598 14.7905 39.5339 14.4004 37.7596 14.4004C33.2063 14.4004 30.0033 16.8444 29.9777 20.3471C29.9484 22.9372 32.2657 24.3814 34.008 25.2441C35.8043 26.1258 36.4062 26.6911 36.3973 27.4789C36.3849 28.686 34.965 29.2205 33.6428 29.2407C31.3259 29.2772 29.9829 28.6079 28.9125 28.1037L28.0764 32.0478C29.1544 32.5463 31.1405 32.9801 33.1971 33.0023C38.0379 33.0023 41.2029 30.587 41.2173 26.8465ZM22.1412 14.729L14.6784 32.7199H9.8104L6.13765 18.3619C5.91501 17.4789 5.72081 17.1544 5.04368 16.7813C3.93609 16.1735 2.10773 15.605 0.5 15.2514L0.608918 14.729H8.44613C9.4444 14.729 10.3426 15.4003 10.5712 16.5624L12.5113 26.9739L17.3024 14.729H22.1412Z" fill="white"/>
</g>
<defs>
<clipPath id="clip0_42_28957">
<rect width="57" height="48" fill="white" transform="translate(0.5)"/>
</clipPath>
</defs>
</svg>
