<svg width="110" height="76" viewBox="0 0 110 76" fill="none" xmlns="http://www.w3.org/2000/svg">
<g clip-path="url(#clip0_134_11165)">
<g clip-path="url(#clip1_134_11165)">
<path d="M14.8002 48.9722V52.1817H4.89262V54.1353H13.2652V57.3447H4.89262V62.4381H0.427246V48.9722H14.8002Z" fill="white"/>
<path d="M20.4516 62.3683H15.9863V48.9722H20.4516V62.3683Z" fill="white"/>
<path d="M37.4759 48.9722V52.6003H31.8244V62.3683H27.359V52.6003H21.7075V48.9722H37.4759Z" fill="white"/>
<path d="M55.0583 56.4377C55.5467 56.9261 55.8258 57.6238 55.8258 58.6006V58.6704C55.8258 60.0658 55.2676 60.9729 54.1513 61.531C53.035 62.0892 51.4302 62.3683 49.2673 62.3683H38.7318V48.9722H50.1743C51.5698 48.9722 52.6861 49.2513 53.5234 49.8094C54.3606 50.3676 54.7792 51.2049 54.7792 52.1817V52.2514C54.7792 53.0189 54.6397 53.6469 54.2908 54.1353C53.942 54.6237 53.4536 54.9725 52.8256 55.2516C53.8024 55.5307 54.5699 55.9493 55.0583 56.4377ZM49.4068 54.205C49.6859 54.205 49.965 54.0655 50.1046 53.8562C50.3139 53.6469 50.3836 53.3678 50.3836 52.9491C50.3836 52.5305 50.3139 52.2514 50.1046 52.1119C49.8952 51.9723 49.6859 51.8328 49.3371 51.763C48.9882 51.6933 48.6394 51.763 48.0812 51.763H42.9181V54.205C44.174 54.205 45.0112 54.205 45.3601 54.205H48.0114C48.6394 54.205 49.1278 54.205 49.4068 54.205ZM50.1743 59.2983C50.5232 59.2286 50.8023 59.1588 51.0116 58.9495C51.2209 58.7402 51.2907 58.4611 51.2907 57.9727C51.2907 57.5541 51.2209 57.275 51.0116 57.0657C50.8023 56.8563 50.5232 56.7866 50.1743 56.7168C49.8255 56.647 49.3371 56.647 48.6394 56.647H42.9181V59.2983C44.5926 59.2983 45.8485 59.2983 46.5462 59.2983C47.2439 59.2983 47.7323 59.2983 48.0114 59.2983H48.7091C49.3371 59.3681 49.8255 59.3681 50.1743 59.2983Z" fill="white"/>
<path d="M68.8731 48.9722H73.4082V55.8098C73.4082 57.1354 73.0593 58.3215 72.2919 59.3681C71.5941 60.4147 70.6173 61.2519 69.3615 61.8101C68.1056 62.4381 66.7799 62.7172 65.3147 62.7172C63.7797 62.7172 62.3145 62.4381 61.0587 61.8101C59.8028 61.2519 58.7562 60.4147 58.0585 59.3681C57.291 58.3215 56.9421 57.1354 56.9421 55.8795V48.9722H61.5471V55.8795C61.5471 56.9959 61.8959 57.7634 62.6634 58.3215C63.4309 58.8797 64.3379 59.089 65.3845 59.089C65.9427 59.089 66.4311 58.9495 66.9892 58.7402C67.5474 58.5309 67.966 58.182 68.3149 57.6936C68.6637 57.2052 68.8731 56.5773 68.8731 55.8795V48.9722Z" fill="white"/>
<path d="M85.5485 62.3683L81.8506 58.0425H79.0597V62.3683H74.8036V48.9722H84.9205C86.0369 48.9722 87.0137 49.1815 87.9207 49.5303C88.7579 49.8792 89.4557 50.4374 89.9441 51.0653C90.4325 51.763 90.6418 52.5305 90.6418 53.3678V53.4375C90.6418 54.5539 90.2929 55.5307 89.665 56.2982C89.037 57.0657 88.0602 57.5541 86.8741 57.8331L90.7813 62.3683H85.5485ZM86.1066 52.5305C85.8973 52.3212 85.6182 52.1817 85.3391 52.1119C84.9903 52.0421 84.5717 52.0421 83.9437 52.0421H83.3158C82.4087 52.0421 81.0133 52.1119 79.0597 52.1119V54.9725H84.0135C84.6414 54.9725 85.0601 54.9725 85.4089 54.9027C85.688 54.833 85.9671 54.7632 86.1764 54.5539C86.3857 54.3446 86.4555 54.0655 86.4555 53.5771C86.3857 53.0887 86.3159 52.7398 86.1066 52.5305Z" fill="white"/>
<path d="M108.922 48.9722V62.3683H104.456L96.2932 54.205V62.3683H91.8279V48.9722H96.2932L104.456 57.2052V48.9722H108.922Z" fill="white"/>
<path d="M52.9978 3.65752C54.3118 4.11363 55.4769 4.76769 56.4756 5.60678C57.6757 6.61368 58.67 7.91751 59.4278 9.47518C60.8031 12.3109 61.0791 15.323 61.2104 16.7731C61.2368 17.0743 61.2586 17.311 61.2849 17.4874C61.3024 17.6122 61.3243 17.7026 61.3463 17.78C61.4776 18.1802 61.7974 18.3222 62.0602 18.3222C62.1872 18.3222 62.5026 18.2835 62.7084 17.9392C62.7478 17.8704 62.7829 17.7929 62.8223 17.694C62.8705 17.5606 62.9275 17.3756 63.0019 17.0916C63.3611 15.7447 64.0444 14.7808 65.0212 14.2343C65.4241 14.0106 65.8271 13.8815 66.1731 13.8126C65.4328 16.2912 66.2475 19.2043 67.1017 22.2595C67.8944 25.0995 68.7179 28.0385 68.35 30.8096C68.1573 32.2726 67.6536 33.5549 66.8126 34.7339C65.8577 36.0722 64.4298 37.2899 62.5683 38.3528L62.1872 38.5722L62.2223 39.0068C62.231 39.0886 62.2267 39.1919 62.2135 39.3037C61.1097 38.5894 60.0541 38.0429 59.0073 37.6514C57.6626 37.1436 56.3661 36.8941 55.0521 36.8941C53.7161 36.8941 52.3977 37.1522 51.0224 37.6772C50.015 38.0645 48.9944 38.5894 47.9257 39.2736C47.9169 39.166 47.9125 39.0456 47.9038 38.9164L47.8862 38.4819L47.4745 38.3184C47.4439 38.3054 46.7825 38.0171 45.9283 37.3416C45.1312 36.709 43.988 35.5902 43.0988 33.869C42.0914 31.9241 41.5964 29.609 41.6271 26.9971C41.6578 24.2862 42.2578 21.2483 43.4098 17.935C43.5631 18.2448 43.7383 18.49 43.9091 18.688C44.5048 19.3679 45.3546 19.7594 46.235 19.7594C47.1986 19.7594 48.0396 19.299 48.4907 18.5245C48.7798 18.0296 48.8937 17.4272 48.8236 16.7774C48.7491 16.1061 48.4819 15.3747 48.0264 14.613C46.9182 12.7541 46.8263 11.0329 47.7505 9.50529C47.9081 9.24282 48.0834 9.01047 48.2629 8.80392C48.2717 8.88138 48.2804 8.95453 48.2892 9.02338C48.4075 9.90117 48.7053 10.8049 49.1258 11.5622C49.8222 12.8144 50.7727 13.5071 51.7976 13.5071C52.5379 13.5071 53.2606 13.15 53.9395 12.4486C54.7674 11.5966 55.1484 10.4864 55.0739 9.14817C55.0214 8.14987 54.706 7.02248 54.1497 5.79612C53.795 4.98715 53.3788 4.25994 52.9978 3.65752ZM51.3334 2.5C51.3334 2.5 56.4537 8.85126 53.4402 11.9623C52.862 12.5604 52.3102 12.8057 51.802 12.8057C49.6689 12.8057 48.3418 8.39945 49.2134 7.0612C49.2134 7.0612 44.3953 9.85385 47.4263 14.9487C49.0032 17.5993 47.7154 19.0623 46.2393 19.0623C44.8771 19.0623 43.3484 17.8145 43.7646 15.0992L43.7602 15.1079L43.7558 15.1164C43.7427 15.1466 43.7077 15.2154 43.6595 15.3187L43.6507 15.3316C43.6463 15.3359 43.6463 15.3402 43.642 15.3488C43.6332 15.3703 43.62 15.3919 43.6113 15.4133C35.9199 34.295 47.2117 38.9466 47.2117 38.9466C47.2292 39.3166 47.2774 40.1385 47.3519 40.4999C50.0676 38.568 52.5554 37.5783 55.0565 37.5783C57.4961 37.5783 59.9533 38.5163 62.6603 40.4397C62.8048 40.1859 62.9581 39.3726 62.9187 38.9466C71.1751 34.2305 69.3881 27.8233 67.7805 22.0745C66.8301 18.6794 65.9453 15.5081 67.233 13.051C67.233 13.051 67.1367 13.0424 66.9659 13.0424C66.0855 13.0424 63.2822 13.3307 62.323 16.9151C62.1916 17.4099 62.1128 17.6294 62.0602 17.6294C61.9945 17.6294 61.9595 17.2895 61.9069 16.7086C61.6353 13.718 60.7768 4.36321 51.3334 2.5Z" fill="white"/>
<path d="M57.1105 27.277C57.1105 27.277 58.2099 26.3992 60.4612 26.1066C60.4612 26.1066 60.0889 28.839 57.1105 27.277Z" fill="white"/>
<path d="M52.919 27.277C52.919 27.277 51.8196 26.3992 49.5683 26.1066C49.5639 26.1066 49.9362 28.839 52.919 27.277Z" fill="white"/>
<path d="M58.8673 30.4828C61.4778 30.7323 62.5641 30.543 63.2342 28.7444C64.2198 25.289 63.1685 21.7821 57.4306 24.0971C55.4596 25.0222 54.5704 25.0222 52.595 24.0971C46.8571 21.7821 45.8059 25.289 46.7914 28.7444C47.4616 30.543 48.5434 30.7323 51.1584 30.4828C51.7321 29.1661 52.9411 28.8864 53.7382 29.1058C53.2433 28.512 52.4198 28.71 51.5044 28.8778C49.4064 29.2608 47.0279 28.0129 48.4471 25.5386C48.4295 25.5473 47.8382 25.7366 47.2995 26.1066C48.6836 22.7202 52.6476 25.2848 55.0084 26.0077C57.3737 25.2848 61.3333 22.7202 62.7174 26.1066C62.1786 25.7366 61.5873 25.5473 61.5698 25.5386C62.989 28.0129 60.6106 29.2608 58.5125 28.8778C57.5971 28.71 56.7736 28.512 56.2787 29.1058C57.0846 28.8864 58.2935 29.1704 58.8673 30.4828Z" fill="white"/>
<path fill-rule="evenodd" clip-rule="evenodd" d="M55.4422 32.1523C55.4466 32.1394 55.451 32.1222 55.451 32.105C55.451 32.1222 55.4466 32.1351 55.4422 32.1523Z" fill="white"/>
<path fill-rule="evenodd" clip-rule="evenodd" d="M60.5885 37.3891C61.1492 37.6946 61.6879 38.0388 62.196 38.4218C62.3274 36.3951 61.3375 32.9785 59.7257 32.1308C59.7257 32.1308 58.3765 32.4794 57.5619 32.858C60.2994 30.5989 56.8917 28.6023 55.9369 29.5404L55.0171 30.6032L54.0972 29.5404C53.1424 28.6023 49.7347 30.5989 52.4722 32.858C51.6575 32.4794 50.3085 32.1308 50.3085 32.1308C48.6966 32.9785 47.7067 36.3951 47.8381 38.4218C48.3461 38.0388 48.8849 37.6946 49.4456 37.3891C49.3624 36.8383 49.2485 35.3279 50.3085 34.1833C50.3085 34.1833 50.0895 35.7152 51.0793 36.6533C52.3495 36.1885 53.6855 35.9562 55.0171 35.9519C56.3529 35.9562 57.6845 36.1885 58.9548 36.6533C59.9447 35.7195 59.7257 34.1833 59.7257 34.1833C60.7856 35.3322 60.6717 36.8383 60.5885 37.3891ZM55.4638 32.0705C55.5952 31.5111 55.7923 30.6979 56.0244 30.4655L56.0288 30.4698C56.2128 30.2891 56.4581 30.1901 56.7165 30.1901C56.975 30.1901 57.2202 30.2891 57.4042 30.4698C57.5882 30.6505 57.6889 30.8915 57.6889 31.1454C57.6889 31.3993 57.5882 31.6402 57.4042 31.8209C57.1633 32.0576 56.3092 32.2512 55.7397 32.3804H55.7354C55.7135 32.3846 55.6872 32.3933 55.6653 32.3976C55.6346 32.4062 55.5996 32.4062 55.5689 32.3976C55.5383 32.389 55.5076 32.3717 55.4857 32.3502C55.4638 32.3287 55.4463 32.2986 55.4375 32.2685C55.4288 32.2383 55.4288 32.2039 55.4375 32.1738L55.4422 32.1523C55.4466 32.1351 55.4507 32.1222 55.4551 32.1049L55.4638 32.0705ZM54.0009 30.4655C54.2374 30.6979 54.4301 31.5111 54.5615 32.0705C54.5703 32.1049 54.579 32.1394 54.5878 32.1738C54.5965 32.2039 54.5965 32.2383 54.5878 32.2685C54.579 32.2986 54.5615 32.3287 54.5396 32.3502C54.5177 32.3717 54.487 32.389 54.4564 32.3976C54.4257 32.4062 54.3907 32.4062 54.36 32.3976C54.3381 32.3933 54.3118 32.389 54.29 32.3804H54.2856C53.7161 32.2512 52.8664 32.0576 52.6211 31.8209C52.4372 31.6402 52.3364 31.3993 52.3364 31.1454C52.3364 30.8915 52.4372 30.6505 52.6211 30.4698C52.8051 30.2891 53.0504 30.1901 53.3088 30.1901C53.5672 30.1901 53.8125 30.2891 53.9965 30.4698L54.0009 30.4655Z" fill="white"/>
</g>
</g>
<defs>
<clipPath id="clip0_134_11165">
<rect width="109" height="76" fill="white" transform="translate(0.69873)"/>
</clipPath>
<clipPath id="clip1_134_11165">
<rect width="109" height="76" fill="white" transform="translate(0.69873)"/>
</clipPath>
</defs>
</svg>
