<svg width="159" height="30" viewBox="0 0 159 30" fill="none" xmlns="http://www.w3.org/2000/svg">
<g clip-path="url(#clip0_134_11164)">
<path d="M9.51993 7.81991H24.6739C24.9684 7.81991 25.1869 7.59533 25.1869 7.29264V1.0141C25.1869 0.711398 24.9684 0.486816 24.6739 0.486816H1.42516C1.13063 0.486816 0.912109 0.711398 0.912109 1.0141V20.8945C0.912109 21.0409 0.988117 21.1972 1.13063 21.3436L12.7502 29.5067C12.8927 29.6532 13.1873 29.6532 13.3392 29.5067L24.9589 21.3436C25.1015 21.2656 25.1775 21.1191 25.1775 20.8945V10.3098C25.1775 10.0071 24.9589 9.78256 24.6644 9.78256H11.4296C11.1351 9.78256 10.9166 10.0071 10.9166 10.3098V15.6021C10.9166 15.9048 11.1351 16.1295 11.4296 16.1295H16.5791C16.8736 16.1295 17.0921 16.354 17.0921 16.6568V17.5649C17.0921 17.8676 16.8736 18.0921 16.5791 18.0921H9.51993C9.22541 18.0921 9.00688 17.8676 9.00688 17.5649V8.34719C9.00688 8.0445 9.22541 7.81991 9.51993 7.81991Z" fill="#F32A2A"/>
<path d="M48.0734 20.0082C47.3157 20.3389 46.5581 20.6698 45.7864 20.8998C45.0288 21.1156 44.1589 21.1156 43.4013 21.1156C42.5314 21.1156 41.7737 21.0005 41.0161 20.6698C40.2585 20.3389 39.599 20.0082 39.0658 19.4473C38.5326 18.8864 38.0837 18.34 37.7609 17.549C37.4383 16.7725 37.3261 15.9959 37.3261 15.1043C37.3261 14.2127 37.4383 13.3211 37.7609 12.6596C38.0837 11.883 38.5187 11.2071 39.0658 10.6606C39.613 10.1142 40.2585 9.76902 41.0161 9.43826C41.7737 9.1075 42.5314 8.99245 43.4013 8.99245C44.2712 8.99245 45.1411 9.1075 45.8987 9.32321C46.6563 9.53893 47.3157 9.88407 47.8489 10.4305L46.1092 12.3288C45.7864 11.9981 45.3515 11.6673 45.0288 11.5522C44.5938 11.3365 44.0467 11.3365 43.4013 11.3365C42.854 11.3365 42.4192 11.4516 41.9841 11.5522C41.5493 11.768 41.2265 11.9981 40.9038 12.3288C40.5812 12.6596 40.3566 12.9903 40.2584 13.5512C40.1462 13.997 40.048 14.4428 40.048 15.0037C40.048 15.5646 40.1603 16.0104 40.2584 16.4562C40.3707 16.902 40.6933 17.2327 40.9038 17.5635C41.2265 17.8942 41.5493 18.1243 41.9841 18.34C42.4192 18.5557 42.854 18.5557 43.4013 18.5557C43.9485 18.5557 44.3833 18.4406 44.8184 18.34C45.2532 18.225 45.4637 18.1243 45.8005 18.0093V16.3411H43.8503V13.997H48.1997V20.0082H48.0734Z" fill="white"/>
<path d="M53.8257 9.32346H55.8882L60.7709 20.785H57.9508L56.9686 18.3403H52.6192L51.7493 20.785H49.0413L53.8257 9.32346ZM54.8079 12.6598L53.503 16.2263H56.2249L54.8079 12.6598Z" fill="white"/>
<path d="M61.8648 9.32346H65.5548L68.1645 16.7872L70.7742 9.32346H74.4642V20.785H71.9668V11.9839L69.0344 20.785H67.1824L64.3622 11.9839V20.785H61.8648V9.32346Z" fill="white"/>
<path d="M76.7376 9.32346H79.235V20.785H76.7376V9.32346Z" fill="white"/>
<path d="M81.4088 9.32346H84.7761L89.5606 17.233V9.32346H92.058V20.785H88.8029L83.9203 12.6598V20.785H81.4229V9.32346H81.4088Z" fill="white"/>
<path d="M104.336 20.0117C103.579 20.3424 102.821 20.6732 102.049 20.9033C101.292 21.119 100.422 21.119 99.6641 21.119C98.7942 21.119 98.0366 21.0039 97.279 20.6732C96.5212 20.3424 95.8618 20.0117 95.3287 19.4508C94.7955 18.89 94.3466 18.3435 94.0238 17.5525C93.7011 16.776 93.589 15.9994 93.589 15.1078C93.589 14.2162 93.7011 13.3246 94.0238 12.6631C94.3466 11.8865 94.7815 11.3256 95.3287 10.7648C95.8759 10.2039 96.5212 9.87315 97.279 9.5424C98.0366 9.21164 98.7942 9.09659 99.6641 9.09659C100.534 9.09659 101.404 9.21164 102.161 9.42735C102.919 9.64306 103.579 9.9882 104.112 10.5347L102.372 12.433C102.049 12.1022 101.614 11.7714 101.292 11.6564C100.857 11.4407 100.31 11.4407 99.6641 11.4407C99.117 11.4407 98.6819 11.5557 98.2471 11.6564C97.8121 11.8721 97.4894 12.1022 97.1667 12.433C96.844 12.7637 96.6196 13.0945 96.5214 13.6553C96.4091 14.1011 96.3109 14.547 96.3109 15.1078C96.3109 15.6687 96.423 16.1145 96.5214 16.5603C96.6196 17.0061 96.9562 17.3369 97.1667 17.6676C97.4894 17.9983 97.8121 18.2285 98.2471 18.4442C98.6819 18.6598 99.117 18.6598 99.6641 18.6598C100.211 18.6598 100.646 18.5449 101.081 18.4442C101.516 18.3291 101.727 18.2285 102.063 18.1134V16.3302H100.001V13.9861H104.35V20.0117H104.336Z" fill="white"/>
<path d="M118.528 11.9725C118.317 11.7568 118.093 11.5267 117.77 11.4117C117.447 11.2966 117.125 11.196 116.788 11.196C116.577 11.196 116.465 11.196 116.241 11.311C116.03 11.311 115.918 11.426 115.693 11.5267C115.483 11.6418 115.371 11.7424 115.258 11.8575C115.146 11.9725 115.146 12.1882 115.146 12.4183C115.146 12.7491 115.258 12.9792 115.469 13.1949C115.679 13.4106 116.016 13.5257 116.451 13.6407C116.886 13.7558 117.209 13.8564 117.644 13.9715C118.079 14.0865 118.514 14.3022 118.836 14.5323C119.271 14.748 119.482 15.0932 119.818 15.539C120.029 15.9848 120.141 16.4306 120.141 17.0921C120.141 17.7536 120.029 18.3145 119.818 18.7603C119.608 19.2061 119.271 19.6519 118.836 19.9826C118.401 20.3135 117.966 20.5435 117.419 20.6443C116.872 20.7449 116.339 20.8599 115.792 20.8599C115.034 20.8599 114.374 20.7449 113.729 20.5292C113.084 20.3135 112.536 19.9683 111.989 19.4219L113.729 17.4229C113.94 17.7536 114.276 17.9837 114.711 18.1994C115.146 18.4152 115.469 18.5302 115.904 18.5302C116.114 18.5302 116.339 18.5303 116.549 18.4152C116.76 18.4152 116.984 18.3002 117.096 18.1994C117.209 18.0845 117.419 17.9837 117.531 17.8687C117.644 17.7536 117.644 17.5379 117.644 17.3078C117.644 16.9771 117.531 16.6463 117.209 16.5312C116.998 16.3156 116.662 16.2005 116.227 15.9704C115.792 15.8553 115.469 15.6396 114.922 15.5246C114.487 15.4095 114.052 15.1938 113.617 14.9637C113.182 14.748 112.859 14.403 112.635 14.0721C112.424 13.7413 112.2 13.1805 112.2 12.519C112.2 11.8575 112.312 11.4117 112.522 10.9659C112.733 10.5201 113.07 10.0742 113.505 9.85853C113.94 9.52777 114.374 9.29768 114.922 9.19701C115.469 9.09635 116.002 8.9813 116.549 8.9813C117.195 8.9813 117.742 9.09635 118.401 9.19701C118.948 9.41272 119.482 9.64282 120.029 10.0886L118.528 11.9725Z" fill="white"/>
<path d="M124.282 11.4112H121.125V9.18213H129.923V11.4112H126.766V20.6581H124.268V11.4112H124.282Z" fill="white"/>
<path d="M133.4 9.18213H135.462L140.345 20.6438H137.524L136.542 18.1989H132.192L131.21 20.6438H128.517L133.4 9.18213ZM134.269 12.5329L132.964 16.0994H135.687L134.269 12.5329Z" fill="white"/>
<path d="M141.328 9.18163H145.678C146.224 9.18163 146.758 9.29669 147.305 9.39735C147.852 9.49802 148.287 9.72811 148.61 9.95821C149.045 10.1739 149.255 10.6197 149.479 11.0655C149.69 11.5113 149.802 12.0722 149.802 12.7338C149.802 13.5103 149.592 14.1861 149.156 14.7327C148.722 15.2936 148.174 15.6243 147.305 15.84L150.125 20.6288H147.193L144.906 16.0701H143.713V20.6288H141.216V9.16725H141.328V9.18163ZM143.839 13.9705H145.257C145.467 13.9705 145.691 13.9705 145.902 13.9705C146.112 13.9705 146.337 13.8554 146.547 13.8554C146.758 13.7403 146.87 13.6397 147.094 13.5247C147.207 13.309 147.305 13.0788 147.305 12.7481C147.305 12.4173 147.193 12.1872 147.094 12.0866C146.983 11.8709 146.884 11.7558 146.66 11.6408C146.448 11.5257 146.224 11.5257 146.014 11.4251C145.804 11.4251 145.579 11.4251 145.368 11.4251H143.741V13.9849H143.839V13.9705Z" fill="white"/>
<path d="M157.086 11.9725C156.876 11.7568 156.651 11.5267 156.328 11.4117C156.006 11.2966 155.683 11.196 155.346 11.196C155.135 11.196 155.024 11.196 154.799 11.311C154.588 11.311 154.476 11.426 154.252 11.5267C154.027 11.6274 153.929 11.7424 153.817 11.8575C153.704 11.9725 153.704 12.1882 153.704 12.4183C153.704 12.7491 153.817 12.9792 154.027 13.1949C154.237 13.4106 154.575 13.5257 155.009 13.6407C155.445 13.7558 155.766 13.8564 156.202 13.9715C156.637 14.0865 157.071 14.3022 157.394 14.5323C157.83 14.748 158.04 15.0932 158.377 15.539C158.587 15.9848 158.699 16.4306 158.699 17.0921C158.699 17.7536 158.587 18.3145 158.377 18.7603C158.166 19.2061 157.83 19.6519 157.394 19.9826C156.96 20.3135 156.525 20.5435 155.978 20.6443C155.43 20.7449 154.897 20.8599 154.35 20.8599C153.593 20.8599 152.932 20.7449 152.288 20.5292C151.642 20.3135 151.095 19.9683 150.547 19.4219L152.288 17.4229C152.498 17.7536 152.834 17.9837 153.27 18.1994C153.704 18.4152 154.027 18.5302 154.462 18.5302C154.673 18.5302 154.897 18.5303 155.107 18.4152C155.317 18.4152 155.542 18.3002 155.655 18.1994C155.766 18.0845 155.978 17.9837 156.089 17.8687C156.202 17.7536 156.202 17.5379 156.202 17.3078C156.202 16.9771 156.089 16.6463 155.766 16.5312C155.556 16.3156 155.22 16.2005 154.785 15.9704C154.35 15.8553 154.027 15.6396 153.48 15.5246C153.045 15.4095 152.609 15.1938 152.175 14.9637C151.74 14.748 151.418 14.403 151.193 14.0721C150.983 13.7413 150.759 13.1805 150.759 12.519C150.759 11.8575 150.87 11.4117 151.08 10.9659C151.291 10.5201 151.628 10.0742 152.063 9.85853C152.498 9.52777 152.932 9.29768 153.48 9.19701C154.027 9.09635 154.56 8.9813 155.107 8.9813C155.753 8.9813 156.3 9.09635 156.96 9.19701C157.507 9.41272 158.04 9.64282 158.587 10.0886L157.086 11.9725Z" fill="white"/>
</g>
<defs>
<clipPath id="clip0_134_11164">
<rect width="157.787" height="29.1298" fill="white" transform="translate(0.912109 0.486816)"/>
</clipPath>
</defs>
</svg>
