<svg width="32" height="32" viewBox="0 0 32 32" fill="none" xmlns="http://www.w3.org/2000/svg">
<g clip-path="url(#clip0_86_9341)">
<rect x="0.5" y="0.5" width="31" height="31" rx="7.5" stroke="white" stroke-opacity="0.12"/>
<path d="M15.9963 9.4413C18.1353 9.4413 18.3883 9.44897 19.2316 9.4873C20.0136 9.52564 20.4352 9.65597 20.7189 9.7633C21.0945 9.90896 21.3552 10.0853 21.6389 10.3613C21.9225 10.6449 22.0912 10.9056 22.2368 11.2813C22.3442 11.5649 22.4745 11.9866 22.5128 12.7686C22.5512 13.6119 22.5588 13.8649 22.5588 16.0038C22.5588 18.1428 22.5512 18.3958 22.5128 19.2391C22.4745 20.0211 22.3442 20.4427 22.2368 20.7264C22.0912 21.1021 21.9149 21.3627 21.6389 21.6464C21.3629 21.9224 21.0945 22.0987 20.7189 22.2444C20.4352 22.3517 20.0136 22.482 19.2316 22.5204C18.3883 22.5587 18.1353 22.5664 15.9963 22.5664C13.8574 22.5664 13.6044 22.5587 12.7611 22.5204C11.9791 22.482 11.5574 22.3517 11.2737 22.2444C10.8981 22.0987 10.6374 21.9224 10.3538 21.6464C10.0701 21.3627 9.90144 21.1021 9.75578 20.7264C9.64844 20.4427 9.51811 20.0211 9.47978 19.2391C9.44145 18.3958 9.43378 18.1428 9.43378 16.0038C9.43378 13.8649 9.44145 13.6119 9.47978 12.7686C9.51811 11.9866 9.64844 11.5649 9.75578 11.2813C9.90144 10.9056 10.0778 10.6449 10.3538 10.3613C10.6374 10.0776 10.8981 9.90896 11.2737 9.7633C11.5574 9.65597 11.9791 9.52564 12.7611 9.4873C13.6044 9.44897 13.8574 9.4413 15.9963 9.4413ZM15.9963 8C13.8267 8 13.5507 8.00767 12.6997 8.046C11.8487 8.08433 11.2661 8.22233 10.7601 8.42166C10.2311 8.62865 9.78644 8.89698 9.34178 9.34164C8.89713 9.7863 8.62113 10.2309 8.4218 10.7599C8.22248 11.2659 8.09214 11.8486 8.05381 12.6996C8.01548 13.5506 8.00781 13.8266 8.00781 15.9962C8.00781 18.1658 8.01548 18.4418 8.05381 19.2928C8.09214 20.1437 8.23014 20.7264 8.4218 21.2324C8.6288 21.7614 8.89713 22.206 9.34178 22.6507C9.78644 23.0954 10.2311 23.3713 10.7601 23.5707C11.2661 23.77 11.8487 23.9003 12.6997 23.9463C13.5507 23.9847 13.8267 23.9923 15.9963 23.9923C18.1659 23.9923 18.4419 23.9847 19.2929 23.9463C20.1439 23.908 20.7265 23.77 21.2325 23.5707C21.7615 23.3637 22.2062 23.0954 22.6508 22.6507C23.0955 22.206 23.3715 21.7614 23.5708 21.2324C23.7702 20.7264 23.9005 20.1437 23.9465 19.2928C23.9848 18.4418 23.9925 18.1658 23.9925 15.9962C23.9925 13.8266 23.9848 13.5506 23.9465 12.6996C23.9081 11.8486 23.7702 11.2659 23.5708 10.7599C23.3638 10.2309 23.0955 9.7863 22.6508 9.34164C22.2062 8.89698 21.7615 8.62099 21.2325 8.42166C20.7265 8.22233 20.1439 8.092 19.2929 8.046C18.4419 8.00767 18.1659 8 15.9963 8Z" fill="white"/>
<path d="M15.996 11.8945C13.7267 11.8945 11.8867 13.7345 11.8867 16.0038C11.8867 18.2731 13.7267 20.113 15.996 20.113C18.2653 20.113 20.1052 18.2731 20.1052 16.0038C20.1052 13.7345 18.2653 11.8945 15.996 11.8945ZM15.996 18.6717C14.524 18.6717 13.328 17.4758 13.328 16.0038C13.328 14.5318 14.524 13.3358 15.996 13.3358C17.4679 13.3358 18.6639 14.5318 18.6639 16.0038C18.6639 17.4758 17.4679 18.6717 15.996 18.6717Z" fill="white"/>
<path d="M21.233 11.7278C21.233 12.2568 20.8037 12.6862 20.2747 12.6862C19.7457 12.6862 19.3164 12.2568 19.3164 11.7278C19.3164 11.1989 19.7457 10.7695 20.2747 10.7695C20.8037 10.7695 21.233 11.1989 21.233 11.7278Z" fill="white"/>
</g>
<defs>
<clipPath id="clip0_86_9341">
<rect width="32" height="32" fill="white"/>
</clipPath>
</defs>
</svg>
