<svg width="76" height="22" viewBox="0 0 76 22" fill="none" xmlns="http://www.w3.org/2000/svg">
<g clip-path="url(#clip0_42_28960)">
<g clip-path="url(#clip1_42_28960)">
<path d="M17.802 7.8682H12.8279C12.8279 7.05187 12.7319 6.50418 12.5408 6.22513C12.2447 5.81271 11.4279 5.60602 10.0909 5.60602C8.79211 5.60602 7.93132 5.72474 7.51133 5.96264C7.09134 6.20148 6.88087 6.72032 6.88087 7.51915C6.88087 8.24231 7.06722 8.71906 7.44038 8.94702C7.70761 9.10925 8.06091 9.20431 8.50076 9.23269L9.50391 9.30364C11.654 9.446 12.9967 9.54674 13.5321 9.60397C15.2324 9.77518 16.465 10.2273 17.2297 10.9599C17.8313 11.5318 18.1903 12.279 18.3048 13.2013C18.3719 13.7533 18.405 14.378 18.405 15.0719C18.405 16.6714 18.2523 17.8425 17.9472 18.5846C17.3934 19.9467 16.149 20.807 14.2132 21.1683C13.4021 21.3211 12.1615 21.3973 10.4924 21.3973C7.70666 21.3973 5.76563 21.2317 4.6693 20.8983C3.3242 20.4901 2.43693 19.6629 2.00795 18.4176C1.76863 17.7242 1.65039 16.5693 1.65039 14.9527H6.62453C6.62453 15.1329 6.625 15.271 6.625 15.3661C6.625 16.2287 6.87283 16.783 7.36802 17.0304C7.71092 17.2007 8.12476 17.2901 8.61144 17.3009H10.4404C11.3735 17.3009 11.969 17.2532 12.2258 17.1572C12.6832 16.9774 12.9835 16.688 13.1268 16.2874C13.2029 16.0405 13.2408 15.7217 13.2408 15.3311C13.2408 14.4566 12.9215 13.9245 12.284 13.7334C12.0451 13.6582 10.9365 13.5527 8.9567 13.4198C7.3666 13.3063 6.26224 13.1971 5.64408 13.0911C4.01567 12.7865 2.93022 12.1599 2.38868 11.2087C1.91241 10.4009 1.67451 9.1783 1.67451 7.54233C1.67451 6.29702 1.80316 5.29813 2.06045 4.54706C2.31774 3.79553 2.73253 3.22514 3.30481 2.83494C4.14337 2.2357 5.21652 1.88429 6.52237 1.77929C7.60923 1.68423 8.81481 1.63599 10.141 1.63599C12.2286 1.63599 13.7166 1.75612 14.6034 1.99402C16.7681 2.57576 17.8503 4.20464 17.8503 6.8816C17.8503 7.10106 17.8342 7.42929 17.802 7.8682Z" fill="white"/>
<path d="M39.676 21.3972V1.53088H47.469H48.6921H49.6375C51.0039 1.53088 52.0463 1.64203 52.7629 1.86527C54.4012 2.37843 55.5004 3.42982 56.0637 5.01803C56.3541 5.85186 56.4997 7.1071 56.4997 8.78327C56.4997 10.7986 56.3385 12.2463 56.0192 13.1284C55.3802 14.8717 54.0654 15.8763 52.0794 16.1364C51.8458 16.1757 50.8521 16.2102 49.0979 16.2386L48.2106 16.2679H45.0229V21.3972H39.676ZM45.0229 11.6594H48.3558C49.4129 11.6215 50.0556 11.5402 50.2869 11.4129C50.6029 11.2394 50.8152 10.8913 50.9207 10.3696C50.9883 10.0224 51.0219 9.50596 51.0219 8.82016C51.0219 7.97971 50.9547 7.35682 50.8199 6.95008C50.6279 6.38016 50.1673 6.03348 49.4379 5.9072C49.2932 5.88828 48.948 5.87787 48.4007 5.87787H45.0229V11.6594Z" fill="white"/>
<path d="M67.9109 17.9639H60.7621L59.8015 21.3972H54.2698L60.239 1.53088H68.3044L74.3465 21.3972H68.9311L67.9109 17.9639ZM66.8491 14.0937L64.3439 5.482L61.9128 14.0937H66.8491Z" fill="white"/>
<path d="M32.2969 4.3284C34.5018 4.3284 36.4703 5.34432 37.7638 6.93536L38.9164 4.46414C37.114 2.76053 34.6607 1.71008 31.9549 1.71008C27.7418 1.71008 24.1378 4.25462 22.6589 7.85669H20.4114L19.0842 10.7016H21.9754C21.9537 10.9655 21.9395 11.2294 21.9395 11.499C21.9395 11.8248 21.9565 12.1474 21.9887 12.4657H20.5357L19.2091 15.3115H22.7279C24.249 18.8223 27.808 21.2869 31.9549 21.2869C34.0449 21.2869 35.9841 20.6607 37.5898 19.5909V16.1032C36.2967 17.5756 34.4053 18.5059 32.2969 18.5059C29.8323 18.5059 27.6642 17.235 26.4019 15.3115H33.7697L35.0968 12.4657H25.3179C25.2673 12.1233 25.2403 11.7733 25.2403 11.4167C25.2403 11.1755 25.2526 10.9371 25.2762 10.7016H35.9193L37.2459 7.85669H26.1961C27.4183 5.74775 29.6923 4.3284 32.2969 4.3284Z" fill="white"/>
<path d="M32.2962 4.41114C34.3976 4.41114 36.366 5.35044 37.6969 6.98689L37.783 7.09283L37.8412 6.96939L38.9933 4.49816L39.0189 4.44188L38.9749 4.39932C37.0802 2.60868 34.5868 1.62256 31.9543 1.62256C29.8983 1.62256 27.9204 2.22322 26.2333 3.35975C24.586 4.46931 23.3222 6.01259 22.5797 7.82166L22.6582 7.76869H20.4107H20.3558L20.3331 7.81788L19.0065 10.6632L18.9497 10.7848H19.0836H21.9748L21.8896 10.6921C21.8655 10.9877 21.8537 11.2502 21.8537 11.4966C21.8537 11.8158 21.8702 12.1445 21.9029 12.4718L21.988 12.3782H20.5351H20.4812L20.4585 12.4274L19.1309 15.2727L19.0746 15.3942H19.2084H22.7272L22.6487 15.3427C24.2351 19.0039 27.8877 21.3696 31.9543 21.3696C33.9927 21.3696 35.9569 20.7789 37.6364 19.6599L37.6738 19.6348V19.5885V16.1009V15.8743L37.5248 16.0446C36.2 17.5528 34.2945 18.4174 32.2962 18.4174C29.9456 18.4174 27.7685 17.2374 26.4722 15.2618L26.4012 15.3942H33.769H33.8239L33.8466 15.3455L35.1737 12.4993L35.2305 12.3782H35.0961H25.3172L25.4018 12.451C25.3512 12.1062 25.3252 11.7581 25.3252 11.4143C25.3252 11.1802 25.3371 10.9427 25.3607 10.7077L25.2756 10.7848H35.9186H35.9735L35.9962 10.7356L37.3228 7.89024L37.3801 7.76869H37.2453H26.1955L26.2693 7.89686C27.515 5.74678 29.825 4.41114 32.2962 4.41114ZM26.1955 7.93943H37.2453L37.1677 7.81788L35.8415 10.6632L35.9186 10.614H25.2756H25.1985L25.19 10.6911C25.1663 10.9314 25.1545 11.175 25.1545 11.4143C25.1545 11.7662 25.181 12.1237 25.2325 12.4761L25.2439 12.5489H25.3172H35.0961L35.019 12.4274L33.6924 15.2727L33.769 15.2235H26.4012H26.2428L26.3298 15.355C27.6574 17.3802 29.8884 18.5877 32.2962 18.5877C34.3432 18.5877 36.296 17.7023 37.6534 16.1571L37.5035 16.1009V19.5885L37.5413 19.518C35.8902 20.6176 33.9587 21.1989 31.9543 21.1989C27.9554 21.1989 24.3646 18.8734 22.8058 15.2746L22.7831 15.2235H22.7272H19.2084L19.2865 15.3455L20.6126 12.4993L20.5351 12.5489H21.988H22.0821L22.0731 12.4548C22.041 12.1332 22.024 11.8101 22.024 11.4966C22.024 11.2554 22.0358 10.9967 22.0599 10.7063L22.0675 10.614H21.9748H19.0836L19.1606 10.7356L20.4878 7.89024L20.4107 7.93943H22.6582H22.7154L22.7367 7.88646C23.4674 6.1086 24.7094 4.59228 26.3289 3.50116C27.9871 2.3845 29.9328 1.79377 31.9543 1.79377C34.5432 1.79377 36.9941 2.76287 38.8571 4.5237L38.8382 4.42533L37.6865 6.89702L37.8299 6.87905C36.4654 5.2024 34.4491 4.2404 32.2962 4.2404C29.7635 4.2404 27.3982 5.60868 26.1212 7.81126L26.047 7.93943H26.1955Z" fill="white"/>
</g>
</g>
<defs>
<clipPath id="clip0_42_28960">
<rect width="74.5813" height="20.7575" fill="white" transform="translate(0.709229 0.621216)"/>
</clipPath>
<clipPath id="clip1_42_28960">
<rect width="74.5813" height="20.7575" fill="white" transform="translate(0.709229 0.621216)"/>
</clipPath>
</defs>
</svg>
