<svg width="24" height="25" viewBox="0 0 24 25" fill="none" xmlns="http://www.w3.org/2000/svg">
<g clip-path="url(#clip0_86_9336)">
<g clip-path="url(#clip1_86_9336)">
<path d="M0 12.3783C0 13.8462 0.264047 15.2522 0.746391 16.5522L12 17.074L23.2536 16.5523C23.736 15.2522 24 13.8462 24 12.3783C24 10.9105 23.736 9.50443 23.2536 8.20444L12 7.68268L0.746391 8.2044C0.264047 9.50443 0 10.9105 0 12.3783Z" fill="black"/>
<path d="M11.9978 0.378418C6.83817 0.378418 2.43966 3.63492 0.744141 8.20453H23.2514C21.5558 3.63492 17.1573 0.378418 11.9978 0.378418Z" fill="#0052B4"/>
<path d="M23.2514 16.5525H0.744141C2.43966 21.1221 6.83817 24.3786 11.9978 24.3786C17.1573 24.3786 21.5558 21.1221 23.2514 16.5525Z" fill="#F0F0F0"/>
</g>
</g>
<defs>
<clipPath id="clip0_86_9336">
<rect width="24" height="24" fill="white" transform="translate(0 0.378418)"/>
</clipPath>
<clipPath id="clip1_86_9336">
<rect y="0.378418" width="24" height="24" rx="12" fill="white"/>
</clipPath>
</defs>
</svg>
