<svg width="170" height="44" viewBox="0 0 170 44" fill="none" xmlns="http://www.w3.org/2000/svg">
<g clip-path="url(#clip0_2_48048)">
<path d="M57.6568 37.5421V15.3204H60.9631L61.278 17.1141H61.4355C62.3801 15.8855 63.9855 15.0056 66.2205 15.0056C70.3111 15.0056 73.5866 18.3428 73.5866 23.2824C73.5866 28.2222 70.314 31.5594 66.2205 31.5594C64.0163 31.5594 62.4757 30.6456 61.6576 29.6082H61.5001V37.5394H57.6597L57.6568 37.5421ZM69.7433 23.2853C69.7433 20.3895 67.8849 18.5649 65.6189 18.5649C63.3529 18.5649 61.4945 20.3895 61.4945 23.2853C61.4945 26.1811 63.3529 28.0058 65.6189 28.0058C67.8849 28.0058 69.7433 26.1811 69.7433 23.2853Z" fill="#FDFAF9"/>
<path d="M75.5355 23.2862C75.5355 18.4702 78.9963 15.0093 83.6241 15.0093C88.2517 15.0093 91.7125 18.4702 91.7125 23.2862C91.7125 28.1021 88.2517 31.563 83.6241 31.563C78.9963 31.563 75.5355 28.0684 75.5355 23.2862ZM87.8411 23.2862C87.8411 20.4522 85.9519 18.5658 83.6241 18.5658C81.2961 18.5658 79.3759 20.455 79.3759 23.2862C79.3759 26.1173 81.2961 27.9757 83.6241 27.9757C85.9519 27.9757 87.8411 26.1201 87.8411 23.2862Z" fill="#FDFAF9"/>
<path d="M94.4945 31.2482V9.21777H98.3349V31.2511H94.4945V31.2482Z" fill="#FDFAF9"/>
<path d="M112.59 15.3206H116.682L109.756 34.6775C109.065 36.5976 108.12 37.5423 105.632 37.5423H101.918V33.9858H105.067C105.635 33.9858 105.947 33.7018 106.138 33.2296L106.516 32.1921L100.032 15.3206H104.123L108.247 26.3696H108.877L112.59 15.3206Z" fill="#FDFAF9"/>
<path d="M117.413 32.0345H121.316C121.473 33.0719 122.51 34.4889 124.967 34.4889C127.265 34.4889 128.777 33.041 128.777 30.8368V28.6017H128.62C127.771 29.5155 126.196 30.3336 124.181 30.3336C120.089 30.3336 116.941 27.1847 116.941 22.6527C116.941 18.1206 120.089 15.0056 124.181 15.0056C126.289 15.0056 127.832 15.8547 128.809 17.0522H128.965L129.28 15.3204H132.618V30.8368C132.618 35.054 129.784 37.857 124.967 37.857C119.587 37.857 117.509 34.3314 117.413 32.0345ZM128.777 22.6555C128.777 20.1702 127.015 18.4384 124.779 18.4384C122.544 18.4384 120.812 20.1702 120.812 22.6555C120.812 25.1408 122.575 26.9037 124.779 26.9037C126.984 26.9037 128.777 25.1717 128.777 22.6555Z" fill="#FDFAF9"/>
<path d="M135.285 23.2862C135.285 18.4702 138.746 15.0093 143.374 15.0093C148.001 15.0093 151.462 18.4702 151.462 23.2862C151.462 28.1021 148.001 31.563 143.374 31.563C138.746 31.563 135.285 28.0684 135.285 23.2862ZM147.591 23.2862C147.591 20.4522 145.701 18.5658 143.374 18.5658C141.046 18.5658 139.126 20.455 139.126 23.2862C139.126 26.1173 141.046 27.9757 143.374 27.9757C145.701 27.9757 147.591 26.1201 147.591 23.2862Z" fill="#FDFAF9"/>
<path d="M154.14 31.2473V15.3204H157.443L157.758 16.8302H157.915C158.545 16.1076 160.12 15.0056 162.51 15.0056C166.162 15.0056 168.804 17.6483 168.804 21.6771V31.2444H164.964V22.1803C164.964 20.1336 163.516 18.6548 161.534 18.6548C159.551 18.6548 157.978 20.1983 157.978 22.1803V31.2444H154.137L154.14 31.2473Z" fill="#FDFAF9"/>
<path d="M35.3104 29.3879L44.7511 23.9365C45.2516 23.6469 45.5609 23.1099 45.5609 22.5335V11.6307C45.5609 11.0544 45.2516 10.5174 44.7511 10.2278L35.3104 4.77643C34.8099 4.48686 34.1886 4.48967 33.691 4.77643L24.2501 10.2278C23.7497 10.5174 23.4404 11.0544 23.4404 11.6307V31.1141L16.8194 34.9348L10.1985 31.1141V23.4698L16.8194 19.649L21.1857 22.1709V17.0428L17.6292 14.9876C17.3845 14.847 17.1034 14.7711 16.8194 14.7711C16.5355 14.7711 16.2543 14.847 16.0098 14.9876L6.56891 20.439C6.06847 20.7286 5.75922 21.2656 5.75922 21.8419V32.7448C5.75922 33.3211 6.06847 33.8581 6.56891 34.1476L16.0098 39.599C16.5102 39.8859 17.1287 39.8859 17.6292 39.599L27.07 34.1476C27.5704 33.8581 27.8797 33.3211 27.8797 32.7448V13.2586L27.9978 13.1911L34.4979 9.43782L41.1188 13.2586V20.9029L34.4979 24.7237L30.1373 22.2074V27.3355L33.6881 29.385C34.1886 29.6718 34.8099 29.6718 35.3075 29.385L35.3104 29.3879Z" fill="#FDFAF9"/>
</g>
<defs>
<clipPath id="clip0_2_48048">
<rect width="169.275" height="42.585" fill="white" transform="translate(0 0.915283)"/>
</clipPath>
</defs>
</svg>
