<svg width="28" height="28" viewBox="0 0 28 28" fill="none" xmlns="http://www.w3.org/2000/svg">
<g clip-path="url(#clip0_93_10971)">
<g opacity="0.6">
<path fill-rule="evenodd" clip-rule="evenodd" d="M10.3133 4.85274C10.4764 4.68971 10.7407 4.68971 10.9038 4.85274L12.1387 6.08773C12.6917 5.84148 13.3041 5.70462 13.9485 5.70462C14.5929 5.70462 15.2053 5.84148 15.7583 6.08773L16.9932 4.85274C17.1563 4.68971 17.4206 4.68971 17.5837 4.85274C17.7467 5.01579 17.7467 5.28014 17.5837 5.44318L16.5114 6.51552C17.6549 7.32159 18.4018 8.65252 18.4018 10.1579H9.49523C9.49523 8.65252 10.2422 7.32159 11.3857 6.51552L10.3133 5.44318C10.1503 5.28014 10.1503 5.01579 10.3133 4.85274ZM6.15527 12.4541C6.15527 11.7996 6.68363 11.2712 7.33818 11.2712C7.99272 11.2712 8.52108 11.7996 8.52108 12.4541V16.861C8.52108 17.5156 7.99272 18.0439 7.33818 18.0439C6.68363 18.0439 6.15527 17.5156 6.15527 16.861V12.4541ZM19.5151 12.3845C19.5151 11.7685 20.0124 11.2712 20.6284 11.2712C21.2444 11.2712 21.7418 11.7685 21.7418 12.3845V16.8378C21.7418 17.4538 21.2444 17.9511 20.6284 17.9511C20.0124 17.9511 19.5151 17.4538 19.5151 16.8378V12.3845ZM10.6086 19.0645V22.4044C10.6086 23.0204 11.1058 23.5177 11.7219 23.5177C12.3379 23.5177 12.8352 23.0204 12.8352 22.4044V19.0645H15.0618V22.4044C15.0618 23.0204 15.5592 23.5177 16.1752 23.5177C16.7912 23.5177 17.2885 23.0204 17.2885 22.4044V19.0645C17.9034 19.0645 18.4018 18.566 18.4018 17.9511V11.2712H9.49523V17.9511C9.49523 18.566 9.99369 19.0645 10.6086 19.0645ZM12.8352 7.93126H11.7219V9.04458H12.8352V7.93126ZM15.0618 7.93126H16.1752V9.04458H15.0618V7.93126Z" fill="white"/>
</g>
</g>
<defs>
<clipPath id="clip0_93_10971">
<rect width="26.7197" height="26.7197" fill="white" transform="translate(0.588867 0.694336)"/>
</clipPath>
</defs>
</svg>
