<svg width="30" height="30" viewBox="0 0 30 30" fill="none" xmlns="http://www.w3.org/2000/svg">
<g clip-path="url(#clip0_1_47907)">
<rect width="30" height="30" rx="10" fill="url(#paint0_linear_1_47907)"/>
<rect width="30" height="30" rx="10" fill="url(#paint1_linear_1_47907)" fill-opacity="0.6"/>
<rect width="30" height="30" rx="10" fill="#F4663E"/>
<rect x="0.5" y="0.5" width="29" height="29" rx="9.5" stroke="white" stroke-opacity="0.12"/>
<path d="M24.1869 19.3999C23.8813 21.8628 21.8628 23.8813 19.3998 24.1869C17.9091 24.3721 16.5202 23.9647 15.4369 23.1684C14.8165 22.7147 14.9646 21.7517 15.7054 21.5295C18.4924 20.6869 20.6869 18.4832 21.5387 15.6962C21.7609 14.9647 22.7239 14.8165 23.1776 15.4276C23.9646 16.5202 24.3721 17.9091 24.1869 19.3999Z" fill="white"/>
<path d="M13.1407 5.74268C9.05737 5.74268 5.74255 9.05749 5.74255 13.1408C5.74255 17.2242 9.05737 20.539 13.1407 20.539C17.224 20.539 20.5388 17.2242 20.5388 13.1408C20.5296 9.05749 17.224 5.74268 13.1407 5.74268ZM12.2703 12.1038L14.5018 12.8816C15.3074 13.1686 15.6963 13.7334 15.6963 14.6038C15.6963 15.6038 14.9 16.4279 13.9277 16.4279H13.8444V16.4742C13.8444 16.8538 13.5296 17.1686 13.15 17.1686C12.7703 17.1686 12.4555 16.8538 12.4555 16.4742V16.4186C11.4277 16.3723 10.6037 15.5112 10.6037 14.4371C10.6037 14.0575 10.9185 13.7427 11.2981 13.7427C11.6777 13.7427 11.9926 14.0575 11.9926 14.4371C11.9926 14.7705 12.2333 15.039 12.5296 15.039H13.9185C14.1314 15.039 14.2981 14.8445 14.2981 14.6038C14.2981 14.2797 14.2426 14.2612 14.0296 14.1871L11.7981 13.4093C11.0018 13.1316 10.6037 12.5667 10.6037 11.6871C10.6037 10.6871 11.4 9.86305 12.3722 9.86305H12.4555V9.82601C12.4555 9.44638 12.7703 9.13156 13.15 9.13156C13.5296 9.13156 13.8444 9.44638 13.8444 9.82601V9.88156C14.8722 9.92786 15.6963 10.789 15.6963 11.863C15.6963 12.2427 15.3814 12.5575 15.0018 12.5575C14.6222 12.5575 14.3074 12.2427 14.3074 11.863C14.3074 11.5297 14.0666 11.2612 13.7703 11.2612H12.3814C12.1685 11.2612 12.0018 11.4556 12.0018 11.6964C11.9926 12.0112 12.0481 12.0297 12.2703 12.1038Z" fill="white"/>
<rect x="9.44617" y="8.89062" width="7.22222" height="8.88889" fill="white"/>
</g>
<defs>
<linearGradient id="paint0_linear_1_47907" x1="-5.10902e-07" y1="1.66667" x2="15.5212" y2="36.7688" gradientUnits="userSpaceOnUse">
<stop stop-color="#FFB633"/>
<stop offset="1" stop-color="#E8C774"/>
</linearGradient>
<linearGradient id="paint1_linear_1_47907" x1="15" y1="0" x2="15" y2="30" gradientUnits="userSpaceOnUse">
<stop stop-color="#E5FF47" stop-opacity="0"/>
<stop offset="1" stop-color="#FFAA47"/>
</linearGradient>
<clipPath id="clip0_1_47907">
<rect width="30" height="30" fill="white"/>
</clipPath>
</defs>
</svg>
