<svg width="30" height="30" viewBox="0 0 30 30" fill="none" xmlns="http://www.w3.org/2000/svg">
<g clip-path="url(#clip0_219_2969)">
<rect width="30" height="30" rx="10.1852" fill="url(#paint0_linear_219_2969)"/>
<rect width="30" height="30" rx="10.1852" fill="#F4663E" fill-opacity="0.5" style="mix-blend-mode:overlay"/>
<rect x="0.509259" y="0.509259" width="28.9815" height="28.9815" rx="9.67593" stroke="white" stroke-opacity="0.12" stroke-width="1.01852"/>
<path d="M9.28335 17.292C8.47826 17.292 7.73312 17.5746 7.14214 18.0457C6.35418 18.6709 5.85742 19.6388 5.85742 20.7179C5.85742 21.3603 6.03728 21.9684 6.35418 22.4823C6.94515 23.4758 8.03288 24.1438 9.28335 24.1438C10.1484 24.1438 10.9364 23.8269 11.5359 23.2874C11.8014 23.0647 12.0327 22.7906 12.2125 22.4823C12.5294 21.9684 12.7093 21.3603 12.7093 20.7179C12.7093 18.8251 11.1762 17.292 9.28335 17.292ZM11.0563 20.3496L9.23196 22.0369C9.11205 22.1482 8.94932 22.2082 8.79515 22.2082C8.63242 22.2082 8.46969 22.1482 8.34122 22.0198L7.4933 21.1719C7.24492 20.9235 7.24492 20.5124 7.4933 20.264C7.74168 20.0156 8.15279 20.0156 8.40117 20.264L8.81228 20.6751L10.1827 19.4075C10.4396 19.1677 10.8507 19.1848 11.0905 19.4418C11.3303 19.6987 11.3132 20.1098 11.0563 20.3496Z" fill="white"/>
<path d="M17.7196 7.82751V11.0821H16.4349V7.82751C16.4349 7.59626 16.2294 7.48492 16.0923 7.48492C16.0495 7.48492 16.0067 7.49348 15.9639 7.51061L9.17195 10.0715C8.71802 10.2428 8.42681 10.671 8.42681 11.1592V11.7331C7.64741 12.3155 7.14209 13.249 7.14209 14.3025V11.1592C7.14209 10.14 7.76732 9.23214 8.71802 8.87242L15.5185 6.30297C15.7069 6.23445 15.9039 6.2002 16.0923 6.2002C16.9488 6.2002 17.7196 6.89395 17.7196 7.82751Z" fill="white"/>
<path d="M23.4159 16.8638V17.7203C23.4159 17.9515 23.236 18.1399 22.9962 18.1485H21.7458C21.2918 18.1485 20.8807 17.8145 20.8464 17.3691C20.8208 17.1036 20.9235 16.8552 21.0948 16.6839C21.249 16.5212 21.4631 16.4355 21.6944 16.4355H22.9877C23.236 16.4441 23.4159 16.6325 23.4159 16.8638Z" fill="white"/>
<path d="M21.6851 15.5357H22.5588C23.0298 15.5357 23.4152 15.1503 23.4152 14.6793V14.3024C23.4152 12.5295 21.9678 11.082 20.1949 11.082H10.3625C9.63445 11.082 8.9664 11.3218 8.42681 11.733C7.64741 12.3154 7.14209 13.2489 7.14209 14.3024V15.8269C7.14209 16.1524 7.48468 16.358 7.79302 16.2552C8.27265 16.0924 8.77797 16.0068 9.28329 16.0068C11.8784 16.0068 13.9939 18.1223 13.9939 20.7174C13.9939 21.3341 13.8312 22.0107 13.5743 22.6103C13.4372 22.9186 13.6513 23.2869 13.9854 23.2869H20.1949C21.9678 23.2869 23.4152 21.8394 23.4152 20.0665V19.9038C23.4152 19.4327 23.0298 19.0473 22.5588 19.0473H21.8136C20.9914 19.0473 20.2034 18.542 19.9893 17.7455C19.818 17.0945 20.0236 16.4607 20.4518 16.0496C20.7687 15.7242 21.2055 15.5357 21.6851 15.5357ZM16.9916 15.3644H12.7092C12.3581 15.3644 12.0669 15.0732 12.0669 14.7221C12.0669 14.3709 12.3581 14.0797 12.7092 14.0797H16.9916C17.3428 14.0797 17.634 14.3709 17.634 14.7221C17.634 15.0732 17.3428 15.3644 16.9916 15.3644Z" fill="white"/>
</g>
<defs>
<linearGradient id="paint0_linear_219_2969" x1="30" y1="15" x2="1.11775e-09" y2="15" gradientUnits="userSpaceOnUse">
<stop stop-color="#BFBFBF"/>
<stop offset="1" stop-color="#767676"/>
</linearGradient>
<clipPath id="clip0_219_2969">
<rect width="30" height="30" fill="white"/>
</clipPath>
</defs>
</svg>
