<svg width="200" height="35" viewBox="0 0 200 35" fill="none" xmlns="http://www.w3.org/2000/svg">
<g clip-path="url(#clip0_2_48050)">
<g clip-path="url(#clip1_2_48050)">
<path d="M8.50902 24.0634H0.489258V3.73158H8.23247C14.2335 3.73158 18.4093 7.90785 18.4093 13.9525C18.4093 19.8872 14.3441 24.0634 8.50902 24.0634ZM7.79 7.8529H4.96926V19.9421H8.06655C11.6063 19.9421 13.6804 17.7166 13.6804 13.9525C13.6804 10.1059 11.4957 7.8529 7.79 7.8529Z" fill="#FDFAF9"/>
<path d="M27.4175 24.4206C23.2417 24.4206 20.255 21.3983 20.255 17.1671C20.255 12.8809 23.1587 9.88609 27.3345 9.88609C31.6762 9.88609 34.3864 12.7161 34.3864 17.1946V18.2661L24.3478 18.3211C24.5967 20.1344 25.6199 20.9862 27.5004 20.9862C29.1044 20.9862 30.2382 20.4092 30.5424 19.4201H34.4417C33.9439 22.4699 31.2061 24.4206 27.4175 24.4206ZM27.3621 13.3205C25.6752 13.3205 24.735 14.0624 24.4031 15.7109H30.1552C30.1552 14.2547 29.0767 13.3205 27.3621 13.3205Z" fill="#FDFAF9"/>
<path d="M49.1039 16.123H41.9137V24.0634H37.4337V3.73158H50.4589V7.8529H41.9137V12.1116H49.1039V16.123Z" fill="#FDFAF9"/>
<path d="M55.1057 8.18261C53.7507 8.18261 52.6721 7.11106 52.6721 5.76477C52.6721 4.41847 53.7507 3.3744 55.1057 3.3744C56.4331 3.3744 57.5116 4.41847 57.5116 5.76477C57.5116 7.11106 56.4331 8.18261 55.1057 8.18261ZM53.004 24.0634V10.3257H57.2628V24.0634H53.004Z" fill="#FDFAF9"/>
<path d="M72.7818 3.73158V13.4579L80.1655 3.73158H85.4475L78.7551 12.4138L85.5028 24.0634H80.3314L75.8238 16.2054L72.7818 20.1619V24.0634H68.3018V3.73158H72.7818Z" fill="#FDFAF9"/>
<path d="M89.4846 8.18261C88.1295 8.18261 87.051 7.11106 87.051 5.76477C87.051 4.41847 88.1295 3.3744 89.4846 3.3744C90.812 3.3744 91.8905 4.41847 91.8905 5.76477C91.8905 7.11106 90.812 8.18261 89.4846 8.18261ZM87.3829 24.0634V10.3257H91.6416V24.0634H87.3829Z" fill="#FDFAF9"/>
<path d="M99.0953 24.0634H94.8366V10.3257H98.8465L99.123 11.7544C99.9803 10.573 101.557 9.88609 103.354 9.88609C106.645 9.88609 108.553 11.9742 108.553 15.5735V24.0634H104.294V16.5901C104.294 14.8591 103.326 13.7327 101.861 13.7327C100.174 13.7327 99.0953 14.8317 99.0953 16.5352V24.0634Z" fill="#FDFAF9"/>
<path d="M110.916 16.9473C110.916 12.771 113.654 9.85861 117.553 9.85861C119.434 9.85861 120.927 10.573 121.674 11.6995L121.895 10.3257H125.905V23.1842C125.905 28.1023 123.056 31.0697 118.327 31.0697C114.096 31.0697 111.248 28.6793 110.861 24.7778H115.175C115.258 26.3164 116.419 27.2231 118.3 27.2231C120.346 27.2231 121.646 26.0142 121.646 24.0634V22.2775C120.816 23.2666 119.268 23.8986 117.47 23.8986C113.599 23.8986 110.916 21.0686 110.916 16.9473ZM115.202 16.8374C115.202 18.8156 116.53 20.2169 118.41 20.2169C120.346 20.2169 121.646 18.8706 121.646 16.8374C121.646 14.8317 120.346 13.5403 118.383 13.5403C116.502 13.5403 115.202 14.8866 115.202 16.8374Z" fill="#FDFAF9"/>
<path d="M134.915 24.4206C130.933 24.4206 128.361 21.6181 128.361 17.277C128.361 12.9084 130.988 9.88609 135.191 9.88609C136.906 9.88609 138.538 10.573 139.34 11.5896V3.34692H143.598V24.0634H139.588L139.367 22.305C138.621 23.5689 136.906 24.4206 134.915 24.4206ZM135.938 20.5466C137.929 20.5466 139.312 19.1728 139.312 17.1121C139.312 15.0515 137.929 13.6777 135.938 13.6777C133.919 13.6777 132.647 15.079 132.647 17.1121C132.647 19.1453 133.919 20.5466 135.938 20.5466Z" fill="#FDFAF9"/>
<path d="M146.05 17.1671C146.05 12.826 149.258 9.91356 153.682 9.91356C158.079 9.91356 161.287 12.826 161.287 17.1671C161.287 21.5082 158.079 24.3931 153.682 24.3931C149.258 24.3931 146.05 21.5082 146.05 17.1671ZM150.336 17.1396C150.336 19.2277 151.691 20.6015 153.682 20.6015C155.646 20.6015 157.001 19.2277 157.001 17.1396C157.001 15.079 155.646 13.7052 153.682 13.7052C151.691 13.7052 150.336 15.079 150.336 17.1396Z" fill="#FDFAF9"/>
<path d="M168.015 24.0634H163.756V10.3257H167.739L168.015 11.7544C168.707 10.7928 170.062 9.88609 172.053 9.88609C174.127 9.88609 175.454 10.8477 176.256 12.3039C176.975 10.8477 178.607 9.88609 180.598 9.88609C184.165 9.88609 185.935 11.9467 185.935 15.079V24.0634H181.676V16.2604C181.676 14.5294 180.764 13.7052 179.409 13.7052C178.192 13.7052 176.975 14.3646 176.975 16.7V24.0634H172.716V16.2604C172.716 14.5569 171.831 13.7327 170.476 13.7327C169.26 13.7327 168.015 14.3921 168.015 16.7V24.0634Z" fill="#FDFAF9"/>
<path d="M187.823 19.7223H191.86C191.915 20.684 192.634 21.2609 193.934 21.2609C195.262 21.2609 195.87 20.7939 195.87 20.0795C195.87 19.6674 195.649 19.2278 194.626 19.0079L192.081 18.4584C189.537 17.9089 188.293 16.8099 188.293 14.3921C188.293 11.5346 190.754 9.88609 194.072 9.88609C197.28 9.88609 199.52 11.7544 199.52 14.5294H195.483C195.483 13.5953 194.902 12.9633 193.879 12.9633C192.911 12.9633 192.303 13.4579 192.303 14.1997C192.303 14.8317 192.828 15.1889 193.796 15.4087L196.368 15.9582C198.635 16.4527 199.88 17.4968 199.88 19.6948C199.88 22.6347 197.363 24.4206 193.768 24.4206C190.118 24.4206 187.823 22.4973 187.823 19.7223Z" fill="#FDFAF9"/>
</g>
</g>
<defs>
<clipPath id="clip0_2_48050">
<rect width="199.391" height="34.1203" fill="white" transform="translate(0.489258 0.147705)"/>
</clipPath>
<clipPath id="clip1_2_48050">
<rect width="199.391" height="34.1203" fill="white" transform="translate(0.489258 0.147705)"/>
</clipPath>
</defs>
</svg>
