<svg width="15" height="15" viewBox="0 0 15 15" fill="none" xmlns="http://www.w3.org/2000/svg">
<g clip-path="url(#clip0_74_2706)">
<rect x="0.163635" y="0.373047" width="14.0026" height="14.0026" rx="7.00131" fill="#003399"/>
<path d="M13.0228 1.51367H1.30817V13.2283H13.0228V1.51367Z" fill="#003399"/>
<path d="M7.16448 2.29883L7.42749 3.10829H8.27861L7.59004 3.60856L7.85305 4.41802L7.16448 3.91775L6.47591 4.41802L6.73892 3.60856L6.05035 3.10829H6.90147L7.16448 2.29883Z" fill="#FFCC33"/>
<path d="M9.1137 2.82227L9.37671 3.63173H10.2278L9.53926 4.132L9.80227 4.94146L9.1137 4.44118L8.42513 4.94146L8.68814 4.132L7.99957 3.63173H8.85069L9.1137 2.82227Z" fill="#FFCC33"/>
<path d="M10.5473 4.25195L10.8103 5.06141H11.6614L10.9729 5.56169L11.2359 6.37115L10.5473 5.87087L9.85872 6.37115L10.1217 5.56169L9.43317 5.06141H10.2843L10.5473 4.25195Z" fill="#FFCC33"/>
<path d="M11.0707 6.20117L11.3337 7.01063H12.1849L11.4963 7.51091L11.7593 8.32036L11.0707 7.82009L10.3822 8.32036L10.6452 7.51091L9.9566 7.01063H10.8077L11.0707 6.20117Z" fill="#FFCC33"/>
<path d="M10.5473 8.1582L10.8103 8.96766H11.6614L10.9729 9.46794L11.2359 10.2774L10.5473 9.77712L9.85872 10.2774L10.1217 9.46794L9.43317 8.96766H10.2843L10.5473 8.1582Z" fill="#FFCC33"/>
<path d="M9.1137 9.58398L9.37671 10.3934H10.2278L9.53926 10.8937L9.80227 11.7032L9.1137 11.2029L8.42513 11.7032L8.68814 10.8937L7.99957 10.3934H8.85069L9.1137 9.58398Z" fill="#FFCC33"/>
<path d="M7.16448 10.1074L7.42749 10.9169H8.27861L7.59004 11.4172L7.85305 12.2266L7.16448 11.7263L6.47591 12.2266L6.73892 11.4172L6.05035 10.9169H6.90147L7.16448 10.1074Z" fill="#FFCC33"/>
<path d="M5.21135 9.58398L5.47436 10.3934H6.32548L5.63691 10.8937L5.89992 11.7032L5.21135 11.2029L4.52279 11.7032L4.7858 10.8937L4.09723 10.3934H4.94835L5.21135 9.58398Z" fill="#FFCC33"/>
<path d="M3.78167 8.1582L4.04468 8.96766H4.89579L4.20723 9.46794L4.47023 10.2774L3.78167 9.77712L3.0931 10.2774L3.35611 9.46794L2.66754 8.96766H3.51866L3.78167 8.1582Z" fill="#FFCC33"/>
<path d="M3.25823 6.20117L3.52124 7.01063H4.37236L3.68379 7.51091L3.9468 8.32036L3.25823 7.82009L2.56966 8.32036L2.83267 7.51091L2.1441 7.01063H2.99522L3.25823 6.20117Z" fill="#FFCC33"/>
<path d="M3.78167 4.25195L4.04468 5.06141H4.89579L4.20723 5.56169L4.47023 6.37115L3.78167 5.87087L3.0931 6.37115L3.35611 5.56169L2.66754 5.06141H3.51866L3.78167 4.25195Z" fill="#FFCC33"/>
<path d="M5.21135 2.82227L5.47436 3.63173H6.32548L5.63691 4.132L5.89992 4.94146L5.21135 4.44118L4.52279 4.94146L4.7858 4.132L4.09723 3.63173H4.94835L5.21135 2.82227Z" fill="#FFCC33"/>
</g>
<defs>
<clipPath id="clip0_74_2706">
<rect width="14.0026" height="14.0026" fill="white" transform="translate(0.163635 0.373047)"/>
</clipPath>
</defs>
</svg>
