<svg width="77" height="26" viewBox="0 0 77 26" fill="none" xmlns="http://www.w3.org/2000/svg">
<g clip-path="url(#clip0_2_48054)">
<g opacity="0.8">
<path d="M44.7735 19.0378C43.734 20.2408 42.7639 21.3607 41.8075 22.4945C41.3224 23.0752 40.7265 23.4624 39.9364 23.338C39.1742 23.2273 38.6198 22.8125 38.3287 22.0797C38.0515 21.3883 38.2455 20.78 38.7167 20.2408C39.7424 19.0655 40.7819 17.904 41.8075 16.7287C41.9738 16.5351 42.1263 16.3416 42.3204 16.1065C41.1699 14.8068 40.0612 13.5347 38.9524 12.2764C38.0237 11.2256 38.0099 10.1886 38.9247 9.40046C39.8117 8.61234 40.9759 8.76444 41.8768 9.80143C42.8193 10.9076 43.7617 12.0137 44.7874 13.2166C45.1893 12.7604 45.5497 12.3456 45.9101 11.9307C46.5199 11.2118 47.1297 10.479 47.7534 9.77382C48.6266 8.77826 49.7769 8.62616 50.6503 9.37281C51.565 10.1609 51.579 11.2118 50.6642 12.2626C49.5552 13.5209 48.4326 14.793 47.2544 16.1203C48.0722 17.0605 48.876 17.9731 49.6799 18.8857C50.0819 19.342 50.5117 19.7982 50.8995 20.2684C51.5924 21.1118 51.5371 22.0797 50.7749 22.7987C50.0265 23.5177 48.8899 23.5868 48.1415 22.8401C47.1851 21.8585 46.312 20.78 45.411 19.743C45.2032 19.5217 45.023 19.3144 44.7735 19.0378ZM55.2518 13.3688C55.2518 15.9959 55.2518 18.6229 55.2657 21.2501C55.2657 22.1627 55.7228 22.8125 56.5268 23.1858C57.3169 23.5454 58.0791 23.4485 58.772 22.9231C59.4235 22.4392 59.6314 21.7478 59.6314 20.9735C59.6314 18.3188 59.6453 15.664 59.6174 13.0093C59.6174 12.4838 59.77 12.2626 60.3103 12.3041C60.74 12.3456 61.1836 12.3318 61.6133 12.2764C62.5141 12.152 63.0963 11.4607 63.0824 10.6034C63.0684 9.73227 62.4727 9.06861 61.5719 8.97182C61.239 8.93036 60.9065 8.91654 60.574 8.94418C60.2136 8.97182 59.756 9.01333 59.7285 8.88886C59.6593 8.51555 59.6593 7.90718 59.8253 7.5615C60.1303 6.89781 60.7958 6.88398 61.4194 6.96694C61.9184 7.03608 62.4309 7.202 62.9298 7.202C64.205 7.21582 64.9397 5.97141 64.2607 4.90674C63.9556 4.4228 63.4288 3.99417 62.9024 3.75912C61.7659 3.23369 60.5322 3.16456 59.2988 3.35814C56.6793 3.78677 55.4043 5.34921 55.2792 8.00397C55.2378 8.8059 55.321 8.958 54.3645 8.98564C53.3805 8.99951 52.7982 9.67704 52.7847 10.6034C52.7708 11.5298 53.353 12.1658 54.3231 12.2903C54.6002 12.3318 54.8774 12.3318 55.2792 12.3594C55.2518 12.7604 55.2518 13.0646 55.2518 13.3688ZM66.1869 21.0841C66.2009 22.4254 67.102 23.3794 68.3353 23.3932C69.5139 23.4071 70.5249 22.4945 70.5532 21.2086C70.5942 17.8487 70.5942 14.4888 70.5532 11.1289C70.5394 9.78763 69.5548 8.88886 68.3079 8.91654C67.0742 8.94418 66.2009 9.87059 66.1869 11.2256C66.1734 12.8572 66.1869 14.4888 66.1869 16.1203C66.1869 17.7657 66.1734 19.4249 66.1869 21.0841ZM31.2463 20.9874C31.2601 22.3977 32.1472 23.3656 33.3945 23.3794C34.6696 23.3932 35.6121 22.3977 35.626 20.9735C35.6398 17.7519 35.6398 14.5441 35.626 11.3224C35.626 9.87059 34.7113 8.90268 33.4223 8.90268C32.1195 8.90268 31.2601 9.85679 31.2463 11.3362C31.2324 12.9125 31.2463 14.5026 31.2463 16.0788C31.2463 17.7242 31.2324 19.3558 31.2463 20.9874ZM70.5803 5.48747C70.5803 4.3675 69.5693 3.38579 68.3906 3.37196C67.1713 3.35814 66.1594 4.31219 66.1594 5.5013C66.1594 6.64892 67.1295 7.60298 68.3214 7.60298C69.5409 7.6168 70.5803 6.6351 70.5803 5.48747ZM35.5705 5.48747C35.5705 4.3675 34.5588 3.38579 33.3807 3.37196C32.161 3.35814 31.1493 4.31219 31.1493 5.5013C31.1493 6.64892 32.1195 7.60298 33.3114 7.60298C34.5311 7.6168 35.5705 6.6351 35.5705 5.48747ZM11.981 7.29879C12.2859 7.38175 12.577 7.39558 12.8403 7.34027C13.1868 7.28497 13.5472 7.39558 13.7967 7.64448L14.3511 8.19753C14.6144 8.46023 14.7391 8.8474 14.656 9.22071C14.5867 9.55253 14.5867 9.92588 14.7253 10.313C14.9609 10.9767 15.543 11.5022 16.236 11.6266C17.525 11.8616 18.6476 10.88 18.6476 9.6355C18.6476 9.48343 18.6337 9.33135 18.5922 9.19307C18.509 8.83358 18.6337 8.44641 18.8971 8.18371L19.4376 7.64448C19.701 7.38175 20.0613 7.27113 20.4217 7.34027C20.7404 7.39558 21.087 7.38175 21.4612 7.25731C22.1403 7.00842 22.667 6.40004 22.7779 5.68105C22.9996 4.28454 21.7799 3.09543 20.3663 3.37196C19.6733 3.4964 19.0634 4.06331 18.8555 4.7823C18.7447 5.16945 18.7585 5.54278 18.8555 5.88845C18.9664 6.2756 18.8555 6.69041 18.5644 6.96694L18.1486 7.38175C17.8853 7.64447 17.4972 7.78272 17.1231 7.68594C16.9706 7.64448 16.8043 7.6168 16.6379 7.6168C16.4577 7.6168 16.2915 7.64448 16.1389 7.68594C15.7786 7.78272 15.3767 7.6583 15.1133 7.38175L14.7391 7.00842C14.4481 6.71806 14.3511 6.30325 14.4619 5.9161C14.5589 5.57043 14.5728 5.19711 14.4758 4.80995C14.2818 4.09096 13.6858 3.52406 12.9512 3.38579C11.5236 3.06777 10.2901 4.2707 10.5257 5.68105C10.6505 6.45535 11.2326 7.09138 11.981 7.29879ZM21.4889 19.6323C21.1285 19.5079 20.7682 19.4802 20.4494 19.5493C20.089 19.6185 19.7287 19.4941 19.4654 19.2452L18.9248 18.7059C18.6615 18.4432 18.5367 18.0561 18.6199 17.6965C18.6476 17.5583 18.6754 17.4062 18.6754 17.2541C18.6754 16.0097 17.5527 15.028 16.2637 15.2631C15.5708 15.3875 14.9886 15.9129 14.753 16.5766C14.6144 16.9638 14.6006 17.3233 14.6837 17.6689C14.7669 18.0423 14.656 18.4156 14.3788 18.6921L13.8244 19.2452C13.5749 19.4941 13.2146 19.6185 12.868 19.5493C12.5908 19.5079 12.2998 19.5079 12.0087 19.5909C11.2603 19.7982 10.6643 20.4343 10.5396 21.1948C10.304 22.6051 11.5513 23.8081 12.965 23.5177C13.6858 23.3656 14.2956 22.7987 14.4896 22.0935C14.5867 21.7064 14.5867 21.3192 14.4758 20.9874C14.3649 20.6002 14.4758 20.1854 14.753 19.895L15.1272 19.5217C15.3905 19.259 15.7786 19.1208 16.1528 19.2175C16.3192 19.259 16.4855 19.2866 16.6518 19.2866C16.8181 19.2866 16.9844 19.259 17.1369 19.2175C17.4972 19.1208 17.8853 19.2452 18.1625 19.5217L18.5783 19.9366C18.8555 20.2131 18.9664 20.6279 18.8694 21.015C18.7724 21.3469 18.7724 21.734 18.8694 22.1212C19.0634 22.8401 19.6871 23.3932 20.4078 23.5315C21.8215 23.8081 23.0412 22.619 22.8195 21.2225C22.6947 20.4896 22.168 19.8812 21.4889 19.6323ZM10.5396 17.2403C10.4841 16.8946 10.595 16.5351 10.8445 16.2863L11.3989 15.7332C11.6622 15.4705 12.0503 15.346 12.4245 15.429C12.7572 15.4981 13.1314 15.4981 13.5194 15.3599C14.1847 15.1248 14.7114 14.5441 14.8362 13.8527C15.0717 12.5668 14.0877 11.4469 12.8403 11.4469C12.6878 11.4469 12.5354 11.4607 12.3968 11.5022C12.0364 11.5851 11.6484 11.4607 11.385 11.198L10.8445 10.6587C10.5812 10.396 10.4703 10.0365 10.5396 9.67704C10.595 9.35899 10.5812 9.01333 10.4564 8.63998C10.2069 7.96246 9.5971 7.43705 8.87638 7.32644C7.47653 7.09138 6.28458 8.30813 6.56178 9.70466C6.70038 10.4375 7.26863 11.0459 7.97549 11.2394C8.36357 11.35 8.73778 11.3362 9.08428 11.2394C9.47236 11.1289 9.88816 11.2394 10.1654 11.5298L10.5812 11.9446C10.8445 12.2073 10.9831 12.5945 10.8861 12.9678C10.8445 13.1199 10.8168 13.2858 10.8168 13.4517C10.8168 13.6315 10.8445 13.7974 10.8861 13.9495C10.9831 14.309 10.8584 14.71 10.5812 14.9727L10.2069 15.346C9.91588 15.6364 9.50008 15.7332 9.112 15.6226C8.76551 15.5257 8.39128 15.5119 8.00321 15.6087C7.2825 15.8023 6.71424 16.3969 6.57564 17.1297C6.28458 18.5538 7.49039 19.7844 8.9041 19.5493C9.6664 19.4249 10.3178 18.8304 10.5119 18.0837C10.5812 17.8072 10.595 17.5168 10.5396 17.2403ZM26.7556 17.1435C26.6032 16.4245 26.035 15.8161 25.3281 15.6226C24.94 15.5257 24.5519 15.5257 24.2193 15.6364C23.8313 15.747 23.4154 15.6364 23.1244 15.3599L22.7501 14.9865C22.4868 14.7238 22.3482 14.3366 22.4452 13.9633C22.4868 13.7974 22.5145 13.6315 22.5145 13.4655C22.5145 13.2996 22.4868 13.1337 22.4452 12.9817C22.3482 12.6221 22.473 12.235 22.7501 11.9585L23.1659 11.5436C23.4432 11.2671 23.859 11.1565 24.247 11.2533C24.5797 11.35 24.9677 11.35 25.3558 11.2533C26.0765 11.0597 26.6309 10.4375 26.7695 9.71846C27.0467 8.30813 25.8547 7.09138 24.4549 7.31262C23.7342 7.42323 23.1244 7.94864 22.8749 8.62616C22.7501 8.98564 22.7224 9.34517 22.7918 9.66317C22.8611 10.0227 22.7363 10.3821 22.4868 10.6449L21.9463 11.1841C21.6829 11.4469 21.2949 11.5713 20.9345 11.4884C20.7959 11.4607 20.6434 11.433 20.491 11.433C19.2436 11.433 18.2595 12.553 18.4952 13.8389C18.6199 14.5303 19.1466 15.111 19.8119 15.346C20.1999 15.4843 20.5603 15.4981 20.9068 15.4151C21.281 15.3322 21.6552 15.4428 21.9324 15.7194L22.4868 16.2725C22.7363 16.5213 22.8611 16.8808 22.7918 17.2265C22.7501 17.503 22.7501 17.7934 22.8333 18.0837C23.0412 18.8304 23.6788 19.4249 24.4411 19.5493C25.8547 19.7982 27.0606 18.5677 26.7556 17.1435Z" fill="#FDFAF9"/>
</g>
</g>
<defs>
<clipPath id="clip0_2_48054">
<rect width="75.7812" height="25" fill="white" transform="translate(0.797852 0.915527)"/>
</clipPath>
</defs>
</svg>
