<svg width="58" height="48" viewBox="0 0 58 48" fill="none" xmlns="http://www.w3.org/2000/svg">
<g clip-path="url(#clip0_42_28958)">
<path d="M10.5977 15.4509C9.91792 16.2291 8.83031 16.843 7.74267 16.7552C7.60672 15.703 8.13919 14.585 8.76234 13.8944C9.44211 13.0943 10.6317 12.5243 11.5947 12.4805C11.708 13.5766 11.2661 14.6507 10.5977 15.4509ZM11.5834 16.9635C10.0085 16.8758 8.66036 17.8294 7.91262 17.8294C7.15357 17.8294 6.00926 17.0073 4.76305 17.0293C3.14293 17.0512 1.63612 17.939 0.809075 19.353C-0.890342 22.181 0.367226 26.3681 2.00999 28.6699C2.81438 29.8098 3.77738 31.0593 5.04629 31.0155C6.24718 30.9717 6.72303 30.2592 8.1732 30.2592C9.63468 30.2592 10.0539 31.0155 11.3228 30.9936C12.637 30.9717 13.4641 29.8536 14.2684 28.7137C15.1861 27.4203 15.56 26.1598 15.5826 26.094C15.56 26.0721 13.0449 25.1404 13.0222 22.3344C12.9996 19.9888 15.0049 18.8707 15.0955 18.805C13.9625 17.1828 12.1951 17.0073 11.5834 16.9635ZM20.6809 13.7848V30.873H23.4226V25.0308H27.2179C30.6848 25.0308 33.1206 22.729 33.1206 19.3969C33.1206 16.0647 30.7301 13.7848 27.3086 13.7848H20.6809ZM23.4226 16.0209H26.5835C28.9627 16.0209 30.3222 17.2485 30.3222 19.4078C30.3222 21.5671 28.9627 22.8057 26.5722 22.8057H23.4226V16.0209ZM38.1282 31.0046C39.8503 31.0046 41.4477 30.1605 42.1727 28.8233H42.2294V30.873H44.7672V22.3673C44.7672 19.901 42.7281 18.3117 39.5897 18.3117C36.678 18.3117 34.5254 19.923 34.4461 22.1371H36.916C37.1199 21.0848 38.1282 20.3943 39.5104 20.3943C41.1871 20.3943 42.1276 21.1506 42.1276 22.5427V23.4853L38.706 23.6826C35.5224 23.8689 33.8004 25.1294 33.8004 27.3216C33.8004 29.5357 35.5791 31.0046 38.1282 31.0046ZM38.8646 28.9767C37.4031 28.9767 36.4741 28.2972 36.4741 27.2559C36.4741 26.1817 37.3691 25.5569 39.0799 25.4583L42.1276 25.2719V26.2365C42.1276 27.8368 40.7226 28.9767 38.8646 28.9767ZM48.1546 35.5205C50.8284 35.5205 52.0861 34.534 53.1852 31.5416L58 18.4761H55.2131L51.9843 28.5712H51.9275L48.6987 18.4761H45.8321L50.4771 30.9168L50.228 31.6732C49.8086 32.9556 49.1289 33.4489 47.9168 33.4489C47.7015 33.4489 47.2825 33.4269 47.1123 33.405V35.4547C47.2708 35.4985 47.951 35.5205 48.1546 35.5205Z" fill="white"/>
</g>
<defs>
<clipPath id="clip0_42_28958">
<rect width="58" height="48" fill="white"/>
</clipPath>
</defs>
</svg>
