<svg width="196" height="37" viewBox="0 0 196 37" fill="none" xmlns="http://www.w3.org/2000/svg">
<g clip-path="url(#clip0_2_48051)">
<g clip-path="url(#clip1_2_48051)">
<path d="M34.8511 25.5633H28.6255C30.2054 23.5258 31.1569 20.9795 31.1569 18.2057C31.1569 15.4321 30.2023 12.8799 28.6195 10.8423H34.8482C35.9024 13.0774 36.4975 15.5727 36.4975 18.2057C36.4975 20.8389 35.9054 23.3283 34.8511 25.5633ZM19.0107 25.5633C14.9177 25.5633 11.601 22.2691 11.601 18.2028C11.601 14.1366 14.9177 10.8423 19.0107 10.8423C23.1037 10.8423 26.4204 14.1395 26.4204 18.2028C26.4204 22.2661 23.1037 25.5633 19.0107 25.5633ZM6.85851 18.2057C6.85851 24.8721 12.2957 30.2788 19.0077 30.2788C20.808 30.2788 22.5117 29.8779 24.0493 29.1808V34.8418C22.4544 35.3175 20.7627 35.5779 19.0107 35.5779C9.35661 35.5779 1.53003 27.8013 1.53003 18.2057C1.53003 8.61017 9.35661 0.83374 19.0138 0.83374C20.7657 0.83374 22.4544 1.09405 24.0522 1.5698V7.23082C22.5147 6.53367 20.811 6.13272 19.0107 6.13272C12.3018 6.13272 6.86153 11.5364 6.86153 18.2057H6.85851Z" fill="white"/>
<path d="M54.2311 22.1987C55.684 22.1987 56.8651 21.6152 57.5719 20.8552V25.0801C56.551 25.5469 55.3516 25.7803 54.1525 25.7803C49.8299 25.7803 46.3501 22.3722 46.3501 18.2073C46.3501 14.0423 49.8299 10.6343 54.1525 10.6343C55.3516 10.6343 56.551 10.8886 57.5719 11.3344V15.5593C56.8651 14.7993 55.684 14.2158 54.2311 14.2158C51.8931 14.2158 50.2014 15.9093 50.2014 18.2073C50.2014 20.5052 51.8931 22.1987 54.2311 22.1987ZM67.3378 10.6343C71.603 10.6343 75.0012 14.0423 75.0012 18.2073C75.0012 22.3722 71.6 25.7803 67.3378 25.7803C63.0756 25.7803 59.6743 22.3722 59.6743 18.2073C59.6743 14.0423 63.0938 10.6343 67.3378 10.6343ZM67.3378 14.1769C65.2354 14.1769 63.5256 15.8315 63.5256 18.2073C63.5256 20.583 65.2354 22.2376 67.3378 22.2376C69.4402 22.2376 71.1499 20.583 71.1499 18.2073C71.1499 15.8315 69.4402 14.1769 67.3378 14.1769ZM81.0146 10.8677L87.3037 19.4339V10.8677H90.998V25.5469H87.7146L81.208 16.8459V25.5469H77.5137V10.8677H81.0117H81.0146ZM101.592 22.1987C103.045 22.1987 104.226 21.6152 104.932 20.8552V25.0801C103.911 25.5469 102.712 25.7803 101.513 25.7803C97.1904 25.7803 93.7106 22.3722 93.7106 18.2073C93.7106 14.0423 97.1904 10.6343 101.513 10.6343C102.712 10.6343 103.911 10.8886 104.932 11.3344V15.5593C104.226 14.7993 103.045 14.2158 101.592 14.2158C99.2536 14.2158 97.5619 15.9093 97.5619 18.2073C97.5619 20.5052 99.2536 22.1987 101.592 22.1987ZM114.698 10.6343C118.963 10.6343 122.362 14.0423 122.362 18.2073C122.362 22.3722 118.961 25.7803 114.698 25.7803C110.436 25.7803 107.035 22.3722 107.035 18.2073C107.035 14.0423 110.454 10.6343 114.698 10.6343ZM114.698 14.1769C112.596 14.1769 110.886 15.8315 110.886 18.2073C110.886 20.583 112.596 22.2376 114.698 22.2376C116.801 22.2376 118.51 20.583 118.51 18.2073C118.51 15.8315 116.801 14.1769 114.698 14.1769ZM128.887 20.2897V25.5469H125.074V10.8677H129.967C133.487 10.8677 135.903 12.5821 135.903 15.5801C135.903 17.546 134.704 18.9882 132.859 19.7272L137.577 25.5469H132.937L128.889 20.2897H128.887ZM128.887 17.4473H129.946C131.224 17.4473 131.992 16.7651 131.992 15.6939C131.992 14.6228 131.224 13.9615 129.946 13.9615H128.887V17.4473ZM144.648 10.8677C148.892 10.8677 152.312 14.0213 152.312 18.2073C152.312 22.3932 148.892 25.5469 144.648 25.5469H139.284V10.8677H144.648ZM144.391 14.0034H143.135V22.4141H144.353C146.848 22.4141 148.46 20.4663 148.46 18.2103C148.46 15.9542 146.848 14.0064 144.391 14.0064V14.0034ZM158.876 25.5469H155.024V10.8677H158.876V25.5469ZM170.747 19.6494V10.8707H174.599V19.6314C174.599 23.5451 171.907 25.7832 168.366 25.7832C164.826 25.7832 162.135 23.5451 162.135 19.6314V10.8707H165.986V19.6494C165.986 21.4986 166.929 22.4141 168.364 22.4141C169.798 22.4141 170.741 21.4986 170.741 19.6494H170.747Z" fill="white"/>
<path d="M181.634 15.7353H181.522V25.5464H177.972V10.8672H183.627L186.427 19.2001L189.521 10.8672H194.767V25.5464H191.218V15.7353H191.107L187.532 25.5464H185.207L181.634 15.7353Z" fill="white"/>
</g>
</g>
<defs>
<clipPath id="clip0_2_48051">
<rect width="195" height="36.0191" fill="white" transform="translate(0.879883 0.198242)"/>
</clipPath>
<clipPath id="clip1_2_48051">
<rect width="195" height="36.0191" fill="white" transform="translate(0.879883 0.198242)"/>
</clipPath>
</defs>
</svg>
