<svg width="284" height="171" viewBox="0 0 284 171" fill="none" xmlns="http://www.w3.org/2000/svg">
<g clip-path="url(#clip0_61_15724)">
<g filter="url(#filter0_b_61_15724)">
<g clip-path="url(#clip1_61_15724)">
<rect width="272.693" height="410.403" transform="translate(5.36719 -200)" fill="url(#paint0_linear_61_15724)" fill-opacity="0.8"/>
<g opacity="0.4">
<path opacity="0.3" d="M31.2621 -4.87698H27.9462V-6.79674H33.3128V8.97583H31.2621V-4.87698ZM35.6658 -6.79674H46.6826V-4.83335L40.7051 8.97583H38.4799L44.5228 -4.83335H35.6658V-6.79674ZM49.3258 -1.801L53.0126 -6.79674H55.4996L51.551 -1.56103C52.0964 -1.77918 52.6636 -1.88826 53.209 -1.88826C56.4813 -1.88826 58.6846 0.467806 58.6846 3.58741C58.6846 6.88155 56.1977 9.23762 52.9472 9.23762C49.6749 9.23762 47.1443 6.77247 47.1443 3.58741C47.1443 1.71129 47.7115 0.40236 49.3258 -1.801ZM49.3258 3.60923C49.3258 5.76896 50.8093 7.31786 52.9472 7.31786C55.0415 7.31786 56.5249 5.76896 56.5249 3.60923C56.5249 1.4495 55.0415 -0.07758 52.9472 -0.07758C50.8093 -0.07758 49.3258 1.4495 49.3258 3.60923ZM72.4137 5.79077H70.5376V8.97583H68.4869V5.79077H60.3279V3.89283L67.767 -6.79674H70.5376V3.89283H72.4137V5.79077ZM62.6404 3.89283H68.4869V-4.52793L62.6404 3.89283ZM86.0484 5.79077H84.1722V8.97583H82.1216V5.79077H73.9626V3.89283L81.4017 -6.79674H84.1722V3.89283H86.0484V5.79077ZM76.275 3.89283H82.1216V-4.52793L76.275 3.89283ZM88.1588 1.10045C88.1588 -3.78621 90.6894 -7.10215 94.6598 -7.10215C98.6084 -7.10215 101.139 -3.78621 101.139 1.10045C101.139 6.00893 98.7175 9.25943 94.6598 9.25943C90.5803 9.25943 88.1588 6.00893 88.1588 1.10045ZM90.2749 1.10045C90.2749 4.9836 91.8893 7.33967 94.6598 7.33967C97.4304 7.33967 99.0229 4.9836 99.0229 1.10045C99.0229 -2.82633 97.4304 -5.18239 94.6598 -5.18239C91.8893 -5.18239 90.2749 -2.82633 90.2749 1.10045ZM105.292 -1.801L108.979 -6.79674H111.466L107.517 -1.56103C108.062 -1.77918 108.63 -1.88826 109.175 -1.88826C112.447 -1.88826 114.651 0.467806 114.651 3.58741C114.651 6.88155 112.164 9.23762 108.913 9.23762C105.641 9.23762 103.11 6.77247 103.11 3.58741C103.11 1.71129 103.677 0.40236 105.292 -1.801ZM105.292 3.60923C105.292 5.76896 106.775 7.31786 108.913 7.31786C111.007 7.31786 112.491 5.76896 112.491 3.60923C112.491 1.4495 111.007 -0.07758 108.913 -0.07758C106.775 -0.07758 105.292 1.4495 105.292 3.60923ZM125.379 3.98009L121.693 8.97583H119.206L123.154 3.74012C122.609 3.95828 122.042 4.06735 121.496 4.06735C118.224 4.06735 116.021 1.71129 116.021 -1.43014C116.021 -4.70245 118.508 -7.08034 121.758 -7.08034C125.03 -7.08034 127.561 -4.61519 127.561 -1.40832C127.561 0.44599 126.994 1.77673 125.379 3.98009ZM125.379 -1.43014C125.379 -3.58987 123.896 -5.16058 121.758 -5.16058C119.664 -5.16058 118.18 -3.58987 118.18 -1.43014C118.18 0.729591 119.664 2.25667 121.758 2.25667C123.896 2.25667 125.379 0.729591 125.379 -1.43014ZM133.706 0.816853H132.136V-0.60115L136.608 -4.89879H129.518V-6.79674H139.313V-5.07332L134.994 -0.950198C137.677 -0.622966 139.706 1.18772 139.706 4.02372C139.706 7.20878 137.306 9.23762 134.099 9.23762C131.001 9.23762 128.776 7.33967 128.776 4.06735H130.892C130.892 6.11801 132.158 7.31786 134.143 7.31786C136.193 7.31786 137.524 6.00893 137.524 3.98009C137.524 2.08215 136.215 0.816853 133.706 0.816853ZM146.848 9.23762C143.619 9.23762 141.525 7.18696 141.525 4.04554H143.641C143.641 6.07438 144.885 7.31786 146.892 7.31786C149.03 7.31786 150.404 5.89985 150.404 3.76194C150.404 1.7331 149.117 0.227836 146.914 0.227836C145.583 0.227836 144.361 0.860484 143.641 1.75492L141.831 1.29679L143.75 -6.79674H151.648V-4.83335H145.299L144.252 -0.644781C145.081 -1.27743 146.128 -1.60466 147.306 -1.60466C150.513 -1.60466 152.586 0.642329 152.586 3.67468C152.586 6.94699 150.251 9.23762 146.848 9.23762Z" fill="white"/>
<g opacity="0.3">
<rect x="176.979" y="-16.2051" width="79.2655" height="33.3616" rx="16.3616" fill="black" fill-opacity="0.04"/>
<path d="M201.275 2.45469C200.183 6.8373 195.744 9.50447 191.361 8.41159C186.979 7.31898 184.312 2.87983 185.405 -1.50242C186.497 -5.88551 190.936 -8.55288 195.318 -7.46028C199.701 -6.36768 202.368 -1.92804 201.275 2.45477L201.275 2.45469H201.275Z" fill="url(#paint1_linear_61_15724)"/>
<path fill-rule="evenodd" clip-rule="evenodd" d="M191.665 -2.2275C191.646 -2.20679 191.613 -2.17304 191.544 -2.10394C191.48 -2.04 191.356 -1.91512 191.296 -1.85593C191.274 -1.83372 191.232 -1.79236 191.204 -1.76401C191.176 -1.73569 191.134 -1.69427 191.112 -1.67196C191.013 -1.57206 190.889 -1.44835 190.865 -1.42539C190.855 -1.41472 190.828 -1.38769 190.805 -1.36532C190.759 -1.31883 190.75 -1.30938 190.651 -1.21028C190.611 -1.17048 190.569 -1.12921 190.559 -1.11857C190.548 -1.10789 190.521 -1.08086 190.499 -1.05849C190.451 -1.01096 190.445 -1.00489 190.346 -0.906028C190.305 -0.864821 190.263 -0.822387 190.252 -0.81174C190.241 -0.801062 190.214 -0.774031 190.192 -0.751663C190.169 -0.729265 190.143 -0.702663 190.133 -0.692537C190.123 -0.682412 190.081 -0.63961 190.04 -0.597421C190 -0.555232 189.961 -0.520714 189.954 -0.520714C189.948 -0.520714 189.934 -0.501507 189.925 -0.478004C189.915 -0.454501 189.892 -0.425659 189.873 -0.413877C189.855 -0.402125 189.799 -0.352297 189.75 -0.303173C189.7 -0.254081 189.655 -0.213887 189.648 -0.213887C189.641 -0.213887 189.628 -0.194679 189.618 -0.171176C189.608 -0.147673 189.585 -0.118832 189.566 -0.107049C189.501 -0.0653209 189.16 0.275687 189.118 0.341409C189.106 0.359942 189.077 0.383138 189.054 0.392957C189.03 0.402744 189.011 0.416091 189.011 0.422534C189.011 0.432506 188.889 0.565884 188.786 0.668365C188.77 0.684473 188.701 0.752865 188.634 0.820367C188.566 0.887869 188.497 0.956905 188.48 0.973781C188.463 0.990656 188.394 1.05969 188.327 1.12719C188.168 1.28604 188.152 1.30233 188.079 1.37548C188.045 1.40923 188.002 1.45206 187.983 1.47066C187.965 1.48925 187.94 1.5141 187.928 1.52589C187.916 1.53767 187.891 1.56264 187.873 1.58136C187.854 1.60011 187.81 1.64429 187.775 1.67955C187.462 1.99196 187.402 2.05292 187.373 2.08502C187.351 2.10959 187.342 2.1335 187.342 2.16786V2.21619H188.379H189.416V2.1855C189.416 2.16096 189.422 2.15482 189.447 2.15482C189.471 2.15482 189.477 2.14868 189.477 2.12414C189.477 2.09959 189.483 2.09346 189.508 2.09346C189.533 2.09346 189.539 2.08732 189.539 2.06277C189.539 2.03823 189.545 2.03209 189.569 2.03209C189.594 2.03209 189.6 2.02595 189.6 2.00141C189.6 1.97686 189.606 1.97072 189.631 1.97072C189.655 1.97072 189.661 1.96459 189.661 1.94004C189.661 1.9155 189.668 1.90936 189.692 1.90936C189.717 1.90936 189.723 1.90322 189.723 1.87868C189.723 1.85413 189.729 1.84799 189.753 1.84799C189.778 1.84799 189.784 1.84186 189.784 1.81731C189.784 1.79276 189.79 1.78663 189.815 1.78663C189.839 1.78663 189.846 1.78049 189.846 1.75595C189.846 1.7314 189.852 1.72526 189.876 1.72526C189.901 1.72526 189.907 1.71913 189.907 1.69458C189.907 1.67003 189.913 1.6639 189.938 1.6639C189.962 1.6639 189.968 1.65776 189.968 1.63321C189.968 1.60867 189.974 1.60253 189.999 1.60253C190.023 1.60253 190.03 1.59639 190.03 1.57185C190.03 1.5473 190.036 1.54117 190.06 1.54117C190.085 1.54117 190.091 1.53503 190.091 1.51048C190.091 1.48594 190.097 1.4798 190.122 1.4798C190.146 1.4798 190.152 1.47366 190.152 1.44912C190.152 1.42457 190.158 1.41844 190.183 1.41844C190.208 1.41844 190.214 1.4123 190.214 1.38775C190.214 1.36321 190.22 1.35707 190.244 1.35707C190.269 1.35707 190.275 1.35093 190.275 1.32639C190.275 1.30184 190.281 1.2957 190.306 1.2957C190.33 1.2957 190.336 1.28957 190.336 1.26502C190.336 1.24048 190.343 1.23434 190.367 1.23434C190.392 1.23434 190.398 1.2282 190.398 1.20366C190.398 1.17911 190.404 1.17297 190.428 1.17297C190.453 1.17297 190.459 1.16684 190.459 1.14229C190.459 1.11774 190.465 1.11161 190.49 1.11161C190.514 1.11161 190.521 1.10547 190.521 1.08093C190.521 1.05638 190.527 1.05024 190.551 1.05024C190.576 1.05024 190.582 1.04411 190.582 1.01956C190.582 0.995013 190.588 0.988877 190.613 0.988877C190.637 0.988877 190.643 0.98274 190.643 0.958194C190.643 0.933648 190.649 0.927511 190.674 0.927511C190.698 0.927511 190.705 0.921375 190.705 0.896829C190.705 0.872282 190.711 0.866146 190.735 0.866146C190.76 0.866146 190.766 0.860009 190.766 0.835463C190.766 0.810917 190.772 0.80478 190.797 0.80478C190.821 0.80478 190.827 0.798644 190.827 0.774097C190.827 0.749551 190.833 0.743415 190.858 0.743415C190.883 0.743415 190.889 0.737278 190.889 0.712732C190.889 0.688186 190.895 0.682049 190.919 0.682049C190.944 0.682049 190.95 0.675913 190.95 0.651367C190.95 0.62682 190.956 0.620684 190.981 0.620684C191.005 0.620684 191.011 0.614547 191.011 0.590001C191.011 0.565455 191.018 0.559318 191.042 0.559318C191.067 0.559318 191.073 0.553182 191.073 0.528636C191.073 0.504089 191.079 0.497953 191.104 0.497953C191.128 0.497953 191.134 0.491816 191.134 0.46727C191.134 0.442724 191.14 0.436587 191.165 0.436587C191.189 0.436587 191.196 0.430451 191.196 0.405905C191.196 0.381359 191.202 0.375222 191.226 0.375222C191.251 0.375222 191.257 0.369085 191.257 0.344539C191.257 0.319993 191.263 0.313856 191.288 0.313856C191.312 0.313856 191.318 0.30772 191.318 0.283174C191.318 0.258627 191.324 0.252491 191.349 0.252491C191.374 0.252491 191.38 0.246355 191.38 0.221808C191.38 0.197262 191.386 0.191126 191.41 0.191126C191.435 0.191126 191.441 0.184989 191.441 0.160443C191.441 0.135897 191.447 0.12976 191.472 0.12976C191.496 0.12976 191.502 0.123624 191.502 0.0990774C191.502 0.0745312 191.509 0.0683946 191.533 0.0683946C191.558 0.0683946 191.564 0.062258 191.564 0.0377118C191.564 0.0131656 191.57 0.00702913 191.594 0.00702913C191.619 0.00702913 191.625 0.000892537 191.625 -0.0236537C191.625 -0.0481998 191.631 -0.0543364 191.656 -0.0543364C191.68 -0.0543364 191.686 -0.0604729 191.686 -0.0850191C191.686 -0.109565 191.693 -0.115702 191.717 -0.115702C191.742 -0.115702 191.748 -0.121838 191.748 -0.146385C191.748 -0.170931 191.754 -0.177067 191.779 -0.177067C191.803 -0.177067 191.809 -0.183204 191.809 -0.20775C191.809 -0.232296 191.815 -0.238433 191.84 -0.238433C191.864 -0.238433 191.871 -0.244569 191.871 -0.269116C191.871 -0.293662 191.877 -0.299798 191.901 -0.299798C191.926 -0.299798 191.932 -0.305935 191.932 -0.330481C191.932 -0.355027 191.938 -0.361164 191.963 -0.361164C191.987 -0.361164 191.993 -0.3673 191.993 -0.391847C191.993 -0.416393 191.999 -0.422529 192.024 -0.422529C192.049 -0.422529 192.055 -0.428666 192.055 -0.453212C192.055 -0.477758 192.061 -0.483895 192.085 -0.483895C192.11 -0.483895 192.116 -0.490031 192.116 -0.514578C192.116 -0.539124 192.122 -0.54526 192.147 -0.54526C192.171 -0.54526 192.177 -0.551397 192.177 -0.575943C192.177 -0.600489 192.184 -0.606626 192.208 -0.606626C192.233 -0.606626 192.239 -0.612762 192.239 -0.637308C192.239 -0.661855 192.245 -0.667991 192.269 -0.667991C192.294 -0.667991 192.3 -0.674128 192.3 -0.698674C192.3 -0.72322 192.306 -0.729357 192.331 -0.729357C192.355 -0.729357 192.361 -0.735493 192.361 -0.760039C192.361 -0.784586 192.368 -0.790722 192.392 -0.790722C192.417 -0.790722 192.423 -0.796859 192.423 -0.821405C192.423 -0.845951 192.429 -0.852088 192.454 -0.852088C192.478 -0.852088 192.484 -0.858224 192.484 -0.88277C192.484 -0.907316 192.49 -0.913453 192.515 -0.913453C192.539 -0.913453 192.546 -0.91959 192.546 -0.944136C192.546 -0.968682 192.552 -0.974819 192.576 -0.974819C192.601 -0.974819 192.607 -0.980955 192.607 -1.0055C192.607 -1.03005 192.613 -1.03618 192.638 -1.03618C192.662 -1.03618 192.668 -1.04232 192.668 -1.06687C192.668 -1.09276 192.674 -1.09755 192.705 -1.09755C192.736 -1.09755 192.742 -1.09276 192.742 -1.06687C192.742 -1.04232 192.748 -1.03618 192.773 -1.03618C192.797 -1.03618 192.803 -1.03005 192.803 -1.0055C192.803 -0.980955 192.809 -0.974819 192.834 -0.974819C192.859 -0.974819 192.865 -0.968682 192.865 -0.944136C192.865 -0.91959 192.871 -0.913453 192.895 -0.913453C192.92 -0.913453 192.926 -0.907316 192.926 -0.88277C192.926 -0.858224 192.932 -0.852088 192.957 -0.852088C192.981 -0.852088 192.987 -0.845951 192.987 -0.821405C192.987 -0.796859 192.994 -0.790722 193.018 -0.790722C193.043 -0.790722 193.049 -0.784586 193.049 -0.760039C193.049 -0.735493 193.055 -0.729357 193.079 -0.729357C193.104 -0.729357 193.11 -0.72322 193.11 -0.698674C193.11 -0.674128 193.116 -0.667991 193.141 -0.667991C193.165 -0.667991 193.172 -0.661855 193.172 -0.637308C193.172 -0.612762 193.178 -0.606626 193.202 -0.606626C193.227 -0.606626 193.233 -0.600489 193.233 -0.575943C193.233 -0.551397 193.239 -0.54526 193.264 -0.54526C193.288 -0.54526 193.294 -0.539124 193.294 -0.514578C193.294 -0.490031 193.3 -0.483895 193.325 -0.483895C193.349 -0.483895 193.356 -0.477758 193.356 -0.453212C193.356 -0.428666 193.362 -0.422529 193.386 -0.422529C193.411 -0.422529 193.417 -0.416393 193.417 -0.391847C193.417 -0.3673 193.423 -0.361164 193.448 -0.361164C193.472 -0.361164 193.478 -0.355027 193.478 -0.330481C193.478 -0.305935 193.484 -0.299798 193.509 -0.299798C193.534 -0.299798 193.54 -0.293662 193.54 -0.269116C193.54 -0.244569 193.546 -0.238433 193.57 -0.238433C193.595 -0.238433 193.601 -0.232296 193.601 -0.20775C193.601 -0.183204 193.607 -0.177067 193.632 -0.177067C193.656 -0.177067 193.662 -0.170931 193.662 -0.146385C193.662 -0.121838 193.669 -0.115702 193.693 -0.115702C193.718 -0.115702 193.724 -0.109565 193.724 -0.0850191C193.724 -0.0604729 193.73 -0.0543364 193.754 -0.0543364C193.779 -0.0543364 193.785 -0.0481998 193.785 -0.0236537C193.785 0.000892537 193.791 0.00702913 193.816 0.00702913C193.84 0.00702913 193.847 0.0131656 193.847 0.0377118C193.847 0.062258 193.853 0.0683946 193.877 0.0683946C193.902 0.0683946 193.908 0.0745312 193.908 0.0990774C193.908 0.123624 193.914 0.12976 193.939 0.12976C193.963 0.12976 193.969 0.135897 193.969 0.160443C193.969 0.184989 193.975 0.191126 194 0.191126C194.024 0.191126 194.031 0.197262 194.031 0.221808C194.031 0.246355 194.037 0.252491 194.061 0.252491C194.086 0.252491 194.092 0.258627 194.092 0.283174C194.092 0.30772 194.098 0.313856 194.123 0.313856C194.147 0.313856 194.153 0.319993 194.153 0.344539C194.153 0.374056 194.156 0.375222 194.231 0.375222H194.31L194.796 -0.111529C195.341 -0.657191 195.317 -0.623624 195.23 -0.719999C195.166 -0.791121 195.125 -0.840398 195.111 -0.863625C195.105 -0.873351 195.082 -0.88995 195.059 -0.900536C195.034 -0.912379 195.01 -0.937386 194.997 -0.965706C194.985 -0.990958 194.97 -1.01164 194.964 -1.01164C194.95 -1.01164 194.804 -1.15747 194.804 -1.17208C194.804 -1.17825 194.783 -1.193 194.758 -1.20491C194.728 -1.21905 194.705 -1.24216 194.691 -1.27158C194.679 -1.29634 194.658 -1.32015 194.645 -1.32448C194.631 -1.32884 194.62 -1.33749 194.62 -1.34369C194.62 -1.34988 194.597 -1.36918 194.57 -1.38652C194.541 -1.40493 194.514 -1.43334 194.507 -1.45476C194.499 -1.47838 194.478 -1.49888 194.45 -1.51238C194.421 -1.52588 194.398 -1.54944 194.384 -1.57841C194.372 -1.60317 194.351 -1.62698 194.338 -1.63131C194.324 -1.63566 194.313 -1.64432 194.313 -1.65051C194.313 -1.65671 194.291 -1.6757 194.264 -1.6927C194.236 -1.71038 194.208 -1.74127 194.198 -1.76484C194.187 -1.79187 194.168 -1.81056 194.143 -1.81905C194.123 -1.82617 194.096 -1.84765 194.084 -1.86674C194.056 -1.91089 193.985 -1.98186 193.942 -2.00947C193.923 -2.02119 193.9 -2.05 193.89 -2.07351C193.88 -2.09701 193.867 -2.11622 193.861 -2.11622C193.854 -2.11622 193.818 -2.14659 193.781 -2.18372L193.712 -2.25122H192.699C191.714 -2.25122 191.686 -2.25058 191.665 -2.2275ZM197.414 -1.26118C197.409 -1.2567 197.406 -1.24289 197.406 -1.2305C197.406 -1.2147 197.397 -1.20801 197.375 -1.20801C197.351 -1.20801 197.344 -1.20187 197.344 -1.17732C197.344 -1.15278 197.338 -1.14664 197.314 -1.14664C197.289 -1.14664 197.283 -1.14051 197.283 -1.11596C197.283 -1.09141 197.277 -1.08528 197.252 -1.08528C197.228 -1.08528 197.222 -1.07914 197.222 -1.05459C197.222 -1.03005 197.216 -1.02391 197.191 -1.02391C197.166 -1.02391 197.16 -1.01777 197.16 -0.993228C197.16 -0.968682 197.154 -0.962546 197.13 -0.962546C197.105 -0.962546 197.099 -0.956409 197.099 -0.931863C197.099 -0.907317 197.093 -0.90118 197.068 -0.90118C197.044 -0.90118 197.038 -0.895044 197.038 -0.870497C197.038 -0.845951 197.031 -0.839815 197.007 -0.839815C196.982 -0.839815 196.976 -0.833678 196.976 -0.809132C196.976 -0.784586 196.97 -0.778449 196.945 -0.778449C196.921 -0.778449 196.915 -0.772313 196.915 -0.747767C196.915 -0.72322 196.909 -0.717084 196.884 -0.717084C196.86 -0.717084 196.853 -0.710947 196.853 -0.686401C196.853 -0.661855 196.847 -0.655718 196.823 -0.655718C196.798 -0.655718 196.792 -0.649582 196.792 -0.625036C196.792 -0.600489 196.786 -0.594353 196.761 -0.594353C196.737 -0.594353 196.731 -0.588216 196.731 -0.56367C196.731 -0.539124 196.725 -0.532987 196.7 -0.532987C196.675 -0.532987 196.669 -0.526851 196.669 -0.502305C196.669 -0.477758 196.663 -0.471622 196.639 -0.471622C196.614 -0.471622 196.608 -0.465485 196.608 -0.440939C196.608 -0.416393 196.602 -0.410256 196.577 -0.410256C196.553 -0.410256 196.547 -0.40412 196.547 -0.379574C196.547 -0.355027 196.54 -0.348891 196.516 -0.348891C196.491 -0.348891 196.485 -0.342754 196.485 -0.318208C196.485 -0.293662 196.479 -0.287525 196.455 -0.287525C196.43 -0.287525 196.424 -0.281389 196.424 -0.256843C196.424 -0.232296 196.418 -0.22616 196.393 -0.22616C196.369 -0.22616 196.363 -0.220023 196.363 -0.195477C196.363 -0.170931 196.356 -0.164794 196.332 -0.164794C196.307 -0.164794 196.301 -0.158658 196.301 -0.134112C196.301 -0.109566 196.295 -0.103429 196.27 -0.103429C196.246 -0.103429 196.24 -0.0972924 196.24 -0.0727462C196.24 -0.0482 196.234 -0.0420635 196.209 -0.0420635C196.185 -0.0420635 196.178 -0.0359269 196.178 -0.0113807C196.178 0.0131654 196.172 0.019302 196.148 0.019302C196.123 0.019302 196.117 0.0254385 196.117 0.0499847C196.117 0.0745309 196.111 0.0806675 196.086 0.0806675C196.062 0.0806675 196.056 0.0868041 196.056 0.11135C196.056 0.135896 196.05 0.142033 196.025 0.142033C196 0.142033 195.994 0.14817 195.994 0.172716C195.994 0.197262 195.988 0.203398 195.964 0.203398C195.939 0.203398 195.933 0.209535 195.933 0.234081C195.933 0.258627 195.927 0.264764 195.902 0.264764C195.878 0.264764 195.872 0.270901 195.872 0.295447C195.872 0.319993 195.865 0.326129 195.841 0.326129C195.816 0.326129 195.81 0.332266 195.81 0.356812C195.81 0.381358 195.804 0.387495 195.78 0.387495C195.755 0.387495 195.749 0.393631 195.749 0.418178C195.749 0.442724 195.743 0.44886 195.718 0.44886C195.694 0.44886 195.688 0.454997 195.688 0.479543C195.688 0.504089 195.681 0.510226 195.657 0.510226C195.632 0.510226 195.626 0.516362 195.626 0.540908C195.626 0.565455 195.62 0.571591 195.595 0.571591C195.571 0.571591 195.565 0.577728 195.565 0.602274C195.565 0.62682 195.559 0.632957 195.534 0.632957C195.51 0.632957 195.503 0.639093 195.503 0.66364C195.503 0.688186 195.497 0.694322 195.473 0.694322C195.448 0.694322 195.442 0.700459 195.442 0.725005C195.442 0.749551 195.436 0.755688 195.411 0.755688C195.387 0.755688 195.381 0.761824 195.381 0.78637C195.381 0.810917 195.375 0.817053 195.35 0.817053C195.325 0.817053 195.319 0.82319 195.319 0.847736C195.319 0.872282 195.313 0.878419 195.289 0.878419C195.264 0.878419 195.258 0.884555 195.258 0.909101C195.258 0.933648 195.252 0.939784 195.227 0.939784C195.203 0.939784 195.197 0.945921 195.197 0.970467C195.197 0.995013 195.19 1.00115 195.166 1.00115C195.141 1.00115 195.135 1.00729 195.135 1.03183C195.135 1.05638 195.129 1.06251 195.105 1.06251C195.08 1.06251 195.074 1.06865 195.074 1.0932C195.074 1.11774 195.068 1.12388 195.043 1.12388C195.019 1.12388 195.012 1.13002 195.012 1.15456C195.012 1.17911 195.006 1.18525 194.982 1.18525C194.957 1.18525 194.951 1.19138 194.951 1.21593C194.951 1.24048 194.945 1.24661 194.92 1.24661C194.896 1.24661 194.89 1.25275 194.89 1.27729C194.89 1.30184 194.884 1.30798 194.859 1.30798C194.835 1.30798 194.828 1.31411 194.828 1.33866C194.828 1.36321 194.822 1.36934 194.798 1.36934C194.773 1.36934 194.767 1.37548 194.767 1.40003C194.767 1.42457 194.761 1.43071 194.736 1.43071C194.712 1.43071 194.706 1.43684 194.706 1.46139C194.706 1.48594 194.7 1.49207 194.675 1.49207C194.65 1.49207 194.644 1.49821 194.644 1.52276C194.644 1.5473 194.638 1.55344 194.614 1.55344C194.589 1.55344 194.583 1.55958 194.583 1.58412C194.583 1.60867 194.577 1.6148 194.552 1.6148C194.528 1.6148 194.522 1.62094 194.522 1.64549C194.522 1.67003 194.515 1.67617 194.491 1.67617C194.466 1.67617 194.46 1.68231 194.46 1.70685C194.46 1.7314 194.454 1.73754 194.43 1.73754C194.405 1.73754 194.399 1.74367 194.399 1.76822C194.399 1.79276 194.393 1.7989 194.368 1.7989C194.344 1.7989 194.337 1.80504 194.337 1.82958C194.337 1.85413 194.331 1.86027 194.307 1.86027C194.282 1.86027 194.276 1.8664 194.276 1.89095C194.276 1.9155 194.27 1.92163 194.245 1.92163C194.221 1.92163 194.215 1.92777 194.215 1.95231C194.215 1.97686 194.209 1.983 194.184 1.983C194.16 1.983 194.153 1.98913 194.153 2.01368C194.153 2.03801 194.147 2.04436 194.124 2.04436C194.1 2.04436 194.092 2.05194 194.089 2.07811L194.083 2.11186L194.082 2.07811C194.08 2.05078 194.074 2.04436 194.049 2.04436C194.024 2.04436 194.018 2.03823 194.018 2.01368C194.018 1.98913 194.012 1.983 193.988 1.983C193.963 1.983 193.957 1.97686 193.957 1.95231C193.957 1.92777 193.951 1.92163 193.926 1.92163C193.902 1.92163 193.896 1.9155 193.896 1.89095C193.896 1.8664 193.889 1.86027 193.865 1.86027C193.84 1.86027 193.834 1.85413 193.834 1.82958C193.834 1.80504 193.828 1.7989 193.804 1.7989C193.779 1.7989 193.773 1.79276 193.773 1.76822C193.773 1.74367 193.767 1.73754 193.742 1.73754C193.718 1.73754 193.712 1.7314 193.712 1.70685C193.712 1.68231 193.705 1.67617 193.681 1.67617C193.656 1.67617 193.65 1.67003 193.65 1.64549C193.65 1.62094 193.644 1.6148 193.619 1.6148C193.595 1.6148 193.589 1.60867 193.589 1.58412C193.589 1.55958 193.583 1.55344 193.558 1.55344C193.534 1.55344 193.527 1.5473 193.527 1.52276C193.527 1.49821 193.521 1.49207 193.497 1.49207C193.472 1.49207 193.466 1.48594 193.466 1.46139C193.466 1.43684 193.46 1.43071 193.435 1.43071C193.411 1.43071 193.405 1.42457 193.405 1.40003C193.405 1.37572 193.399 1.36934 193.375 1.36934C193.353 1.36934 193.344 1.3617 193.341 1.34173C193.339 1.32424 193.327 1.3127 193.31 1.31028C193.294 1.30792 193.282 1.29635 193.28 1.2796C193.277 1.26287 193.266 1.25131 193.249 1.24891C193.232 1.24655 193.221 1.23498 193.218 1.21823C193.216 1.20151 193.204 1.18994 193.188 1.18755C193.171 1.18518 193.159 1.17362 193.157 1.15686C193.155 1.14014 193.143 1.12857 193.126 1.12618C193.11 1.12382 193.098 1.11225 193.096 1.0955C193.093 1.07878 193.082 1.06721 193.065 1.06482C193.048 1.06245 193.037 1.05089 193.034 1.03413C193.032 1.01741 193.02 1.00584 193.004 1.00345C192.987 1.00109 192.975 0.989521 192.973 0.972768C192.97 0.956046 192.959 0.944479 192.942 0.942085C192.925 0.939723 192.914 0.928155 192.911 0.911403C192.909 0.894681 192.898 0.883113 192.881 0.88072C192.864 0.878357 192.852 0.86679 192.85 0.850037C192.848 0.833315 192.836 0.821747 192.819 0.819354C192.803 0.816992 192.791 0.805424 192.789 0.788671C192.786 0.771949 192.775 0.760382 192.758 0.757989C192.741 0.755626 192.73 0.744059 192.727 0.727306C192.725 0.710584 192.713 0.699017 192.697 0.696623C192.68 0.694261 192.668 0.682693 192.666 0.665941C192.662 0.641026 192.655 0.638848 192.557 0.635565L192.451 0.632067L192.237 0.847276C192.119 0.96565 192.016 1.06251 192.008 1.06251C192.001 1.06251 191.886 1.17046 191.755 1.30239L191.515 1.54224V1.63377C191.515 1.72318 191.515 1.72526 191.545 1.72526C191.57 1.72526 191.576 1.7314 191.576 1.75595C191.576 1.78049 191.582 1.78663 191.607 1.78663C191.631 1.78663 191.637 1.79276 191.637 1.81731C191.637 1.84186 191.644 1.84799 191.668 1.84799C191.693 1.84799 191.699 1.85413 191.699 1.87868C191.699 1.90322 191.705 1.90936 191.729 1.90936C191.754 1.90936 191.76 1.9155 191.76 1.94004C191.76 1.96459 191.766 1.97072 191.791 1.97072C191.815 1.97072 191.821 1.97686 191.821 2.00141C191.821 2.02595 191.828 2.03209 191.852 2.03209C191.877 2.03209 191.883 2.03823 191.883 2.06277C191.883 2.08732 191.889 2.09346 191.914 2.09346C191.938 2.09346 191.944 2.09959 191.944 2.12414C191.944 2.14868 191.95 2.15482 191.975 2.15482C191.999 2.15482 192.006 2.16096 192.006 2.1855C192.006 2.21005 192.012 2.21619 192.036 2.21619C192.061 2.21619 192.067 2.22232 192.067 2.24687C192.067 2.27141 192.073 2.27755 192.098 2.27755C192.122 2.27755 192.128 2.28369 192.128 2.30823C192.128 2.33278 192.134 2.33892 192.159 2.33892C192.184 2.33892 192.19 2.34505 192.19 2.3696C192.19 2.39415 192.196 2.40028 192.22 2.40028C192.245 2.40028 192.251 2.40642 192.251 2.43097C192.251 2.45527 192.257 2.46165 192.281 2.46165C192.302 2.46165 192.312 2.46929 192.315 2.48926C192.317 2.50675 192.328 2.51829 192.345 2.52071C192.362 2.52308 192.374 2.53464 192.376 2.5514C192.378 2.56839 192.39 2.57968 192.408 2.58217C192.427 2.58499 192.435 2.59432 192.435 2.61592C192.435 2.63933 192.442 2.64574 192.465 2.64574C192.487 2.64574 192.496 2.65339 192.499 2.67336C192.501 2.69109 192.513 2.70238 192.53 2.7049C192.55 2.70772 192.558 2.71705 192.558 2.73865C192.558 2.76206 192.564 2.76848 192.588 2.76848C192.609 2.76848 192.619 2.77612 192.621 2.79609C192.624 2.81358 192.635 2.82512 192.652 2.82754C192.669 2.8299 192.681 2.84147 192.683 2.85822C192.685 2.87522 192.697 2.88651 192.714 2.889C192.734 2.89182 192.742 2.90115 192.742 2.92275C192.742 2.94616 192.748 2.95257 192.772 2.95257C192.793 2.95257 192.803 2.96021 192.806 2.98019C192.808 2.99792 192.819 3.00921 192.837 3.01173C192.857 3.01455 192.865 3.02388 192.865 3.04548C192.865 3.06911 192.871 3.0753 192.895 3.0753C192.92 3.0753 192.926 3.08144 192.926 3.10598C192.926 3.13029 192.932 3.13667 192.956 3.13667C192.977 3.13667 192.987 3.14431 192.99 3.16428C192.992 3.18177 193.003 3.19331 193.02 3.19573C193.037 3.1981 193.049 3.20966 193.051 3.22642L193.055 3.25326H194.08H195.105L195.117 3.22553C195.123 3.21028 195.138 3.19481 195.15 3.19116C195.161 3.18751 195.174 3.17401 195.178 3.16121C195.182 3.14842 195.196 3.13461 195.209 3.13053C195.222 3.12645 195.235 3.11298 195.239 3.10055C195.243 3.08813 195.257 3.07512 195.271 3.07165C195.284 3.06818 195.298 3.05518 195.303 3.04272C195.314 3.01357 195.368 2.95975 195.397 2.94874C195.41 2.94401 195.423 2.92935 195.426 2.91609C195.43 2.90287 195.443 2.88878 195.455 2.88485C195.467 2.8809 195.481 2.86718 195.485 2.85439C195.489 2.84159 195.503 2.82779 195.516 2.8237C195.528 2.81962 195.542 2.80615 195.546 2.79373C195.55 2.7813 195.564 2.76829 195.577 2.76482C195.591 2.76136 195.605 2.74835 195.61 2.73589C195.621 2.70674 195.675 2.65292 195.704 2.64191C195.716 2.63718 195.729 2.62252 195.733 2.60926C195.736 2.59604 195.749 2.58195 195.762 2.57803C195.774 2.57407 195.788 2.56035 195.792 2.54756C195.796 2.53477 195.81 2.52096 195.823 2.51688C195.835 2.5128 195.849 2.49933 195.853 2.4869C195.857 2.47447 195.871 2.46146 195.884 2.458C195.897 2.45453 195.912 2.44152 195.917 2.42906C195.921 2.41661 195.943 2.38985 195.965 2.3696C196.024 2.31627 196.036 2.3051 196.052 2.28734C196.061 2.27859 196.073 2.26589 196.08 2.25914C196.087 2.25239 196.11 2.22714 196.132 2.20299C196.154 2.17888 196.182 2.15553 196.194 2.15111C196.206 2.14672 196.219 2.13331 196.224 2.12135C196.228 2.10938 196.25 2.08302 196.272 2.06277C196.331 2.00945 196.342 1.99828 196.359 1.98051C196.367 1.97177 196.38 1.95906 196.387 1.95231C196.393 1.94556 196.417 1.92031 196.439 1.89616C196.461 1.87205 196.489 1.8487 196.501 1.84428C196.513 1.83989 196.526 1.82648 196.531 1.81452C196.535 1.80255 196.557 1.7762 196.579 1.75595C196.637 1.70262 196.649 1.69145 196.666 1.67368C196.674 1.66494 196.687 1.65224 196.693 1.64549C196.7 1.63874 196.724 1.61348 196.746 1.58934C196.768 1.56522 196.796 1.54187 196.808 1.53745C196.82 1.53307 196.833 1.51966 196.837 1.50769C196.842 1.49572 196.864 1.46937 196.886 1.44912C196.944 1.39579 196.956 1.38462 196.973 1.36686C196.993 1.34538 197.007 1.3312 197.065 1.27361C197.092 1.24661 197.12 1.21811 197.128 1.21028C197.146 1.19178 197.294 1.04398 197.31 1.02809C197.326 1.01226 197.413 0.925026 197.429 0.909101C197.445 0.893146 197.601 0.737155 197.617 0.721262C197.633 0.70543 197.724 0.614517 197.74 0.598531C197.755 0.582515 197.903 0.434685 197.922 0.416337C197.93 0.408574 197.957 0.379579 197.984 0.351903C198.01 0.324227 198.037 0.301583 198.043 0.301583C198.049 0.301583 198.058 0.290813 198.062 0.277651C198.066 0.264518 198.08 0.250435 198.093 0.246354C198.106 0.242274 198.12 0.228037 198.124 0.214659C198.134 0.183117 198.184 0.133841 198.215 0.123746C198.229 0.119389 198.24 0.110583 198.24 0.104171C198.24 0.0889214 198.396 -0.0666098 198.411 -0.0666098C198.417 -0.0666098 198.426 -0.0778393 198.431 -0.0915545C198.441 -0.123618 198.49 -0.172894 198.522 -0.183081C198.536 -0.187438 198.547 -0.196244 198.547 -0.202657C198.547 -0.217906 198.703 -0.373437 198.718 -0.373437C198.724 -0.373437 198.733 -0.384667 198.737 -0.398382C198.748 -0.430445 198.797 -0.479722 198.829 -0.489909C198.843 -0.494266 198.854 -0.503071 198.854 -0.509484C198.854 -0.524733 199.009 -0.680265 199.025 -0.680265C199.031 -0.680265 199.04 -0.691494 199.044 -0.705209C199.055 -0.737273 199.104 -0.786549 199.136 -0.796736C199.15 -0.801093 199.161 -0.809623 199.161 -0.815667C199.161 -0.821743 199.176 -0.842975 199.195 -0.862888C199.213 -0.882801 199.243 -0.91557 199.261 -0.935698C199.278 -0.955826 199.304 -0.975893 199.318 -0.980311C199.332 -0.984729 199.347 -0.999273 199.351 -1.01265C199.356 -1.02603 199.372 -1.05036 199.389 -1.06671C199.415 -1.09255 199.419 -1.10777 199.419 -1.18291V-1.26937H198.42C197.871 -1.26937 197.418 -1.26569 197.414 -1.26118Z" fill="white"/>
<path d="M207.139 -3.88694V-4.78683H214.134V-3.88694H211.121V4.97559H210.139V-3.88694H207.139ZM216.467 -4.78683V4.97559H215.485V-4.78683H216.467ZM223.817 0.68067H219.822V4.97559H218.841V-4.78683H224.594V-3.88694H219.822V-0.205583H223.817V0.68067ZM227.225 -4.78683V4.97559H226.244V-4.78683H227.225Z" fill="white"/>
<g clip-path="url(#clip2_61_15724)">
<path d="M243.855 -1.46143L241.247 1.14052L238.639 -1.46143L237.838 -0.66039L241.247 2.74827L244.656 -0.66039L243.855 -1.46143Z" fill="white"/>
</g>
</g>
<rect x="27.1826" y="25.3374" width="229.062" height="0.681733" fill="#E7EBF0" fill-opacity="0.1"/>
<rect x="27.1826" y="42.3804" width="229.062" height="29.9962" rx="5.45386" fill="white" fill-opacity="0.05"/>
<path d="M39.8109 57.6312H37.1003V60.5613H36.165V53.6608H40.3263V54.5198H37.1003V56.7818H39.8109V57.6312ZM42.9567 60.6758C41.5823 60.6758 40.6375 59.6832 40.6375 58.2325C40.6375 56.7722 41.5632 55.7605 42.9185 55.7605C44.2452 55.7605 45.1137 56.6768 45.1137 58.0607V58.3947L41.506 58.4043C41.5728 59.3873 42.0882 59.9314 42.9758 59.9314C43.6725 59.9314 44.1307 59.645 44.2834 59.1106H45.1233C44.8942 60.1127 44.1116 60.6758 42.9567 60.6758ZM42.9185 56.5145C42.1359 56.5145 41.6396 56.9822 41.5251 57.803H44.2165C44.2165 57.0299 43.7107 56.5145 42.9185 56.5145ZM48.1296 60.6758C46.7552 60.6758 45.8104 59.6832 45.8104 58.2325C45.8104 56.7722 46.7362 55.7605 48.0914 55.7605C49.4181 55.7605 50.2866 56.6768 50.2866 58.0607V58.3947L46.6789 58.4043C46.7457 59.3873 47.2611 59.9314 48.1487 59.9314C48.8454 59.9314 49.3036 59.645 49.4563 59.1106H50.2962C50.0671 60.1127 49.2845 60.6758 48.1296 60.6758ZM48.0914 56.5145C47.3088 56.5145 46.8125 56.9822 46.698 57.803H49.3895C49.3895 57.0299 48.8836 56.5145 48.0914 56.5145ZM55.2633 60.6758C54.2611 60.6758 53.6694 60.1127 53.6694 59.2633C53.6694 58.4043 54.3089 57.8698 55.4064 57.7839L56.8763 57.6694V57.5357C56.8763 56.7531 56.4086 56.4763 55.7787 56.4763C55.0247 56.4763 54.5952 56.8104 54.5952 57.3735H53.8126C53.8126 56.4 54.6143 55.7605 55.8168 55.7605C56.9717 55.7605 57.7543 56.3714 57.7543 57.6312V60.5613H56.9908L56.8953 59.8073C56.6567 60.3418 56.0173 60.6758 55.2633 60.6758ZM55.521 59.9791C56.3704 59.9791 56.8858 59.4255 56.8858 58.5474V58.2993L55.6928 58.3947C54.9006 58.4711 54.5761 58.7765 54.5761 59.2346C54.5761 59.7309 54.9388 59.9791 55.521 59.9791ZM58.615 59.206H59.474C59.474 59.6832 59.8367 59.9695 60.4284 59.9695C61.0584 59.9695 61.421 59.7118 61.421 59.2823C61.421 58.9674 61.2683 58.7765 60.7816 58.6524L59.9608 58.4615C59.1304 58.2611 58.7391 57.8507 58.7391 57.1635C58.7391 56.3045 59.4645 55.7605 60.4952 55.7605C61.5165 55.7605 62.1846 56.3332 62.2037 57.2208H61.3447C61.3256 56.7531 61.0106 56.4572 60.4666 56.4572C59.9035 56.4572 59.5885 56.7054 59.5885 57.1349C59.5885 57.4499 59.8176 57.6598 60.2757 57.7744L61.0965 57.9748C61.8887 58.1657 62.28 58.5284 62.28 59.2251C62.28 60.1127 61.5165 60.6758 60.4093 60.6758C59.3118 60.6758 58.615 60.0936 58.615 59.206ZM66.8009 60.5613H65.9038V53.5367H66.8009V60.5613ZM67.8162 58.2229C67.8162 56.7818 68.847 55.7701 70.25 55.7701C71.6435 55.7701 72.6742 56.7818 72.6742 58.2229C72.6742 59.6641 71.6435 60.6758 70.25 60.6758C68.847 60.6758 67.8162 59.6641 67.8162 58.2229ZM68.7229 58.2229C68.7229 59.1965 69.3433 59.8741 70.25 59.8741C71.1472 59.8741 71.7771 59.1965 71.7771 58.2229C71.7771 57.2494 71.1472 56.5718 70.25 56.5718C69.3433 56.5718 68.7229 57.2494 68.7229 58.2229ZM74.4551 60.5613L72.9281 55.8941H73.8539L74.6269 58.3184C74.7319 58.662 74.8274 59.0151 74.9133 59.4255C74.9896 59.0151 75.1137 58.6238 75.2187 58.3184L76.0013 55.8941H76.9176L77.6906 58.3184C77.767 58.5474 77.9197 59.0915 77.9961 59.4255C78.0724 59.0533 78.1583 58.7288 78.2919 58.3184L79.0746 55.8941H80.0099L78.416 60.5613H77.5666L76.7553 58.0607C76.6026 57.593 76.5072 57.2303 76.4594 56.9726C76.4117 57.2017 76.3258 57.5071 76.154 58.0702L75.3428 60.5613H74.4551ZM84.7535 60.6758C83.7514 60.6758 83.1597 60.1127 83.1597 59.2633C83.1597 58.4043 83.7991 57.8698 84.8967 57.7839L86.3665 57.6694V57.5357C86.3665 56.7531 85.8989 56.4763 85.2689 56.4763C84.5149 56.4763 84.0854 56.8104 84.0854 57.3735H83.3028C83.3028 56.4 84.1045 55.7605 85.3071 55.7605C86.462 55.7605 87.2446 56.3714 87.2446 57.6312V60.5613H86.4811L86.3856 59.8073C86.147 60.3418 85.5075 60.6758 84.7535 60.6758ZM85.0112 59.9791C85.8607 59.9791 86.3761 59.4255 86.3761 58.5474V58.2993L85.183 58.3947C84.3909 58.4711 84.0664 58.7765 84.0664 59.2346C84.0664 59.7309 84.429 59.9791 85.0112 59.9791ZM88.1053 59.206H88.9643C88.9643 59.6832 89.327 59.9695 89.9187 59.9695C90.5486 59.9695 90.9113 59.7118 90.9113 59.2823C90.9113 58.9674 90.7586 58.7765 90.2718 58.6524L89.451 58.4615C88.6207 58.2611 88.2294 57.8507 88.2294 57.1635C88.2294 56.3045 88.9547 55.7605 89.9855 55.7605C91.0067 55.7605 91.6748 56.3332 91.6939 57.2208H90.835C90.8159 56.7531 90.5009 56.4572 89.9569 56.4572C89.3938 56.4572 89.0788 56.7054 89.0788 57.1349C89.0788 57.4499 89.3079 57.6598 89.766 57.7744L90.5868 57.9748C91.379 58.1657 91.7703 58.5284 91.7703 59.2251C91.7703 60.1127 91.0067 60.6758 89.8996 60.6758C88.802 60.6758 88.1053 60.0936 88.1053 59.206ZM95.1936 57.1158C95.1936 54.9779 96.3008 53.5272 98.0378 53.5272C99.7653 53.5272 100.872 54.9779 100.872 57.1158C100.872 59.2633 99.813 60.6854 98.0378 60.6854C96.253 60.6854 95.1936 59.2633 95.1936 57.1158ZM96.1194 57.1158C96.1194 58.8147 96.8257 59.8455 98.0378 59.8455C99.2499 59.8455 99.9467 58.8147 99.9467 57.1158C99.9467 55.3978 99.2499 54.3671 98.0378 54.3671C96.8257 54.3671 96.1194 55.3978 96.1194 57.1158ZM102.269 60.6758C101.897 60.6758 101.582 60.3704 101.582 60.0077C101.582 59.6355 101.897 59.3301 102.269 59.3301C102.632 59.3301 102.947 59.6355 102.947 60.0077C102.947 60.3704 102.632 60.6758 102.269 60.6758ZM107.824 58.3756L106.211 60.5613H105.123L106.85 58.2707C106.612 58.3661 106.364 58.4138 106.125 58.4138C104.693 58.4138 103.729 57.383 103.729 56.0087C103.729 54.577 104.818 53.5367 106.24 53.5367C107.671 53.5367 108.778 54.6152 108.778 56.0182C108.778 56.8295 108.53 57.4117 107.824 58.3756ZM107.824 56.0087C107.824 55.0638 107.175 54.3766 106.24 54.3766C105.323 54.3766 104.674 55.0638 104.674 56.0087C104.674 56.9535 105.323 57.6216 106.24 57.6216C107.175 57.6216 107.824 56.9535 107.824 56.0087ZM113.057 55.2928C113.057 56.3141 112.332 57.049 111.311 57.049C110.299 57.049 109.574 56.3141 109.574 55.2928C109.574 54.2621 110.299 53.5272 111.311 53.5272C112.332 53.5272 113.057 54.2621 113.057 55.2928ZM116.694 53.6703L111.454 60.5613H110.538L115.777 53.6703H116.694ZM112.322 55.2928C112.322 54.6725 111.912 54.243 111.311 54.243C110.719 54.243 110.309 54.6725 110.309 55.2928C110.309 55.9037 110.719 56.3332 111.311 56.3332C111.902 56.3332 112.322 55.9037 112.322 55.2928ZM117.677 58.9292C117.677 59.9504 116.942 60.6854 115.93 60.6854C114.918 60.6854 114.184 59.9504 114.184 58.9292C114.184 57.8984 114.918 57.1731 115.93 57.1731C116.942 57.1731 117.677 57.8984 117.677 58.9292ZM116.932 58.9292C116.932 58.3088 116.531 57.8793 115.93 57.8793C115.338 57.8793 114.928 58.3088 114.928 58.9292C114.928 59.54 115.338 59.9695 115.93 59.9695C116.522 59.9695 116.932 59.54 116.932 58.9292Z" fill="white"/>
<g clip-path="url(#clip3_61_15724)">
<path d="M243.854 55.4414L241.247 58.0434L238.639 55.4414L237.838 56.2424L241.247 59.6511L244.655 56.2424L243.854 55.4414Z" fill="white"/>
</g>
</g>
<g clip-path="url(#clip4_61_15724)">
<rect x="27.1826" y="84.9668" width="229.062" height="44.2693" rx="5.45386" fill="#F4663E"/>
<path d="M117.766 111.757C115.007 111.757 113.219 109.84 113.219 106.874C113.219 103.933 115.071 101.978 117.843 101.978C120.084 101.978 121.755 103.286 122.079 105.319H120.33C120.006 104.218 119.061 103.571 117.804 103.571C116.056 103.571 114.955 104.84 114.955 106.861C114.955 108.868 116.069 110.164 117.804 110.164C119.087 110.164 120.071 109.49 120.382 108.441H122.105C121.742 110.436 120.006 111.757 117.766 111.757ZM124.875 111.602H123.295V101.965H124.888V106.032C125.29 105.41 126.041 105.009 126.961 105.009C128.541 105.009 129.37 106.006 129.37 107.664V111.602H127.79V108.04C127.79 106.964 127.259 106.446 126.456 106.446C125.458 106.446 124.875 107.146 124.875 108.104V111.602ZM133.785 111.77C131.881 111.77 130.547 110.384 130.547 108.402C130.547 106.394 131.855 105.009 133.734 105.009C135.651 105.009 136.868 106.291 136.868 108.286V108.765L132.05 108.778C132.166 109.905 132.762 110.475 133.811 110.475C134.679 110.475 135.249 110.138 135.43 109.529H136.894C136.622 110.928 135.456 111.77 133.785 111.77ZM133.746 106.304C132.814 106.304 132.244 106.809 132.089 107.767H135.301C135.301 106.887 134.692 106.304 133.746 106.304ZM137.757 108.389C137.757 106.407 139.065 105.009 140.957 105.009C142.705 105.009 143.897 105.98 144.065 107.521H142.485C142.304 106.796 141.773 106.42 141.021 106.42C140.011 106.42 139.337 107.185 139.337 108.389C139.337 109.594 139.959 110.345 140.97 110.345C141.76 110.345 142.317 109.957 142.485 109.257H144.078C143.884 110.747 142.64 111.77 140.97 111.77C139.027 111.77 137.757 110.423 137.757 108.389ZM146.848 111.602H145.28V101.965H146.848V107.884L149.335 105.203H151.316L148.881 107.742L151.265 111.602H149.451L147.78 108.907L146.848 109.879V111.602ZM151.558 108.389C151.558 106.394 152.995 105.021 154.977 105.021C156.959 105.021 158.397 106.394 158.397 108.389C158.397 110.384 156.959 111.757 154.977 111.757C152.995 111.757 151.558 110.384 151.558 108.389ZM153.138 108.389C153.138 109.555 153.889 110.345 154.977 110.345C156.065 110.345 156.817 109.555 156.817 108.389C156.817 107.223 156.065 106.433 154.977 106.433C153.889 106.433 153.138 107.223 153.138 108.389ZM163.837 105.203H165.417V111.602H163.953L163.837 110.747C163.448 111.355 162.619 111.77 161.764 111.77C160.288 111.77 159.42 110.773 159.42 109.205V105.203H161V108.648C161 109.866 161.479 110.358 162.36 110.358C163.358 110.358 163.837 109.775 163.837 108.558V105.203ZM169.225 111.602H167.645V106.524H166.415V105.203H167.645V103.208H169.225V105.203H170.469V106.524H169.225V111.602Z" fill="#F2EFEE"/>
</g>
<path d="M89.6559 145.306H88.1588V147.417H87.3571V141.502H89.6559C90.8176 141.502 91.562 142.263 91.562 143.4C91.562 144.505 90.8094 145.306 89.6559 145.306ZM89.5168 142.222H88.1588V144.586H89.4841C90.2777 144.586 90.7194 144.12 90.7194 143.392C90.7194 142.648 90.2695 142.222 89.5168 142.222ZM91.8937 145.413C91.8937 144.177 92.7772 143.31 93.9798 143.31C95.1742 143.31 96.0577 144.177 96.0577 145.413C96.0577 146.648 95.1742 147.515 93.9798 147.515C92.7772 147.515 91.8937 146.648 91.8937 145.413ZM92.6709 145.413C92.6709 146.247 93.2026 146.828 93.9798 146.828C94.7488 146.828 95.2887 146.247 95.2887 145.413C95.2887 144.578 94.7488 143.997 93.9798 143.997C93.2026 143.997 92.6709 144.578 92.6709 145.413ZM97.5842 147.417L96.2753 143.417H97.0688L97.7314 145.495C97.8214 145.789 97.9032 146.092 97.9769 146.443C98.0423 146.092 98.1487 145.756 98.2386 145.495L98.9095 143.417H99.6948L100.357 145.495C100.423 145.691 100.554 146.157 100.619 146.443C100.685 146.124 100.758 145.846 100.873 145.495L101.544 143.417H102.345L100.979 147.417H100.251L99.5558 145.274C99.4249 144.873 99.3431 144.562 99.3022 144.341C99.2612 144.537 99.1876 144.799 99.0404 145.282L98.345 147.417H97.5842ZM104.547 147.515C103.369 147.515 102.559 146.664 102.559 145.421C102.559 144.169 103.353 143.302 104.514 143.302C105.651 143.302 106.396 144.087 106.396 145.274V145.56L103.304 145.568C103.361 146.411 103.803 146.877 104.563 146.877C105.161 146.877 105.553 146.632 105.684 146.174H106.404C106.208 147.032 105.537 147.515 104.547 147.515ZM104.514 143.948C103.843 143.948 103.418 144.349 103.32 145.053H105.627C105.627 144.39 105.193 143.948 104.514 143.948ZM109.545 143.384V144.087H109.202C108.474 144.087 108.024 144.529 108.024 145.298V147.417H107.255V143.425H107.975L108.024 144.03C108.187 143.613 108.588 143.335 109.136 143.335C109.275 143.335 109.39 143.351 109.545 143.384ZM111.849 147.515C110.671 147.515 109.861 146.664 109.861 145.421C109.861 144.169 110.655 143.302 111.816 143.302C112.953 143.302 113.698 144.087 113.698 145.274V145.56L110.606 145.568C110.663 146.411 111.105 146.877 111.865 146.877C112.463 146.877 112.855 146.632 112.986 146.174H113.706C113.51 147.032 112.839 147.515 111.849 147.515ZM111.816 143.948C111.145 143.948 110.72 144.349 110.622 145.053H112.929C112.929 144.39 112.495 143.948 111.816 143.948ZM116.16 147.515C114.999 147.515 114.295 146.648 114.295 145.429C114.295 144.202 115.007 143.302 116.193 143.302C116.806 143.302 117.322 143.572 117.592 144.063V141.396H118.353V147.417H117.665L117.6 146.689C117.338 147.237 116.798 147.515 116.16 147.515ZM116.316 146.82C117.101 146.82 117.584 146.239 117.584 145.405C117.584 144.586 117.101 143.997 116.316 143.997C115.53 143.997 115.072 144.586 115.072 145.405C115.072 146.231 115.53 146.82 116.316 146.82ZM122.394 147.417H121.699V141.396H122.468V144.104C122.73 143.58 123.27 143.302 123.924 143.302C125.069 143.302 125.757 144.202 125.757 145.437C125.757 146.648 125.037 147.515 123.875 147.515C123.245 147.515 122.713 147.237 122.452 146.689L122.394 147.417ZM122.476 145.405C122.476 146.239 122.951 146.82 123.736 146.82C124.521 146.82 124.988 146.231 124.988 145.405C124.988 144.586 124.521 143.997 123.736 143.997C122.951 143.997 122.476 144.586 122.476 145.405ZM126.084 149.209V148.579H126.599C126.967 148.579 127.262 148.521 127.45 148.014L127.589 147.63L125.978 143.417H126.788L127.949 146.64L129.135 143.417H129.929L128.039 148.317C127.769 149.004 127.368 149.29 126.755 149.29C126.501 149.29 126.288 149.258 126.084 149.209Z" fill="white" fill-opacity="0.6"/>
<path d="M135.934 147.586H133.396V141.153H135.846C137.745 141.153 139.066 142.475 139.066 144.387C139.066 146.264 137.78 147.586 135.934 147.586ZM135.706 142.457H134.814V146.282H135.794C136.914 146.282 137.57 145.578 137.57 144.387C137.57 143.17 136.879 142.457 135.706 142.457Z" fill="#A6A6A9"/>
<path d="M141.916 147.699C140.595 147.699 139.65 146.743 139.65 145.404C139.65 144.048 140.568 143.1 141.889 143.1C143.263 143.1 144.12 143.996 144.12 145.413V145.752L140.944 145.769C141.023 146.343 141.347 146.612 141.942 146.612C142.449 146.612 142.808 146.43 142.904 146.117H144.138C143.98 147.082 143.114 147.699 141.916 147.699ZM141.898 144.187C141.364 144.187 141.067 144.422 140.962 144.943H142.782C142.782 144.483 142.441 144.187 141.898 144.187Z" fill="#A6A6A9"/>
<path d="M148.776 145.074H146.502V147.586H145.084V141.153H149.205V142.457H146.502V143.805H148.776V145.074Z" fill="#A6A6A9"/>
<path d="M150.675 142.562C150.247 142.562 149.905 142.223 149.905 141.797C149.905 141.371 150.247 141.04 150.675 141.04C151.095 141.04 151.436 141.371 151.436 141.797C151.436 142.223 151.095 142.562 150.675 142.562ZM150.01 147.586V143.24H151.358V147.586H150.01Z" fill="#A6A6A9"/>
<path d="M156.267 141.153V144.23L158.603 141.153H160.274L158.157 143.9L160.292 147.586H158.656L157.23 145.1L156.267 146.351V147.586H154.85V141.153H156.267Z" fill="#A6A6A9"/>
<path d="M161.551 142.562C161.123 142.562 160.782 142.223 160.782 141.797C160.782 141.371 161.123 141.04 161.551 141.04C161.971 141.04 162.313 141.371 162.313 141.797C162.313 142.223 161.971 142.562 161.551 142.562ZM160.887 147.586V143.24H162.234V147.586H160.887Z" fill="#A6A6A9"/>
<path d="M164.592 147.586H163.245V143.24H164.513L164.601 143.692C164.872 143.318 165.371 143.1 165.939 143.1C166.98 143.1 167.584 143.761 167.584 144.9V147.586H166.237V145.221C166.237 144.674 165.931 144.317 165.467 144.317C164.933 144.317 164.592 144.665 164.592 145.204V147.586Z" fill="#A6A6A9"/>
<path d="M168.332 145.334C168.332 144.013 169.198 143.092 170.431 143.092C171.026 143.092 171.499 143.318 171.735 143.674L171.805 143.24H173.074V147.308C173.074 148.863 172.172 149.802 170.676 149.802C169.338 149.802 168.437 149.046 168.314 147.812H169.679C169.705 148.298 170.073 148.585 170.668 148.585C171.315 148.585 171.726 148.203 171.726 147.586V147.021C171.464 147.334 170.974 147.534 170.405 147.534C169.18 147.534 168.332 146.638 168.332 145.334ZM169.688 145.3C169.688 145.925 170.108 146.369 170.703 146.369C171.315 146.369 171.726 145.943 171.726 145.3C171.726 144.665 171.315 144.257 170.694 144.257C170.099 144.257 169.688 144.682 169.688 145.3Z" fill="#A6A6A9"/>
<path d="M175.924 147.699C174.664 147.699 173.851 146.812 173.851 145.439C173.851 144.057 174.682 143.1 176.012 143.1C176.554 143.1 177.07 143.318 177.324 143.639V141.032H178.671V147.586H177.403L177.333 147.029C177.096 147.429 176.554 147.699 175.924 147.699ZM176.248 146.473C176.878 146.473 177.315 146.038 177.315 145.387C177.315 144.735 176.878 144.3 176.248 144.3C175.609 144.3 175.207 144.743 175.207 145.387C175.207 146.03 175.609 146.473 176.248 146.473Z" fill="#A6A6A9"/>
<path d="M179.447 145.404C179.447 144.031 180.462 143.109 181.861 143.109C183.252 143.109 184.267 144.031 184.267 145.404C184.267 146.777 183.252 147.69 181.861 147.69C180.462 147.69 179.447 146.777 179.447 145.404ZM180.803 145.395C180.803 146.056 181.232 146.49 181.861 146.49C182.483 146.49 182.911 146.056 182.911 145.395C182.911 144.743 182.483 144.309 181.861 144.309C181.232 144.309 180.803 144.743 180.803 145.395Z" fill="#A6A6A9"/>
<path d="M186.396 147.586H185.048V143.24H186.308L186.396 143.692C186.615 143.387 187.043 143.1 187.673 143.1C188.329 143.1 188.749 143.405 189.003 143.865C189.23 143.405 189.747 143.1 190.377 143.1C191.505 143.1 192.065 143.752 192.065 144.743V147.586H190.718V145.117C190.718 144.569 190.429 144.309 190 144.309C189.615 144.309 189.23 144.517 189.23 145.256V147.586H187.883V145.117C187.883 144.578 187.603 144.317 187.174 144.317C186.789 144.317 186.396 144.526 186.396 145.256V147.586Z" fill="#A6A6A9"/>
<path d="M192.662 146.212H193.94C193.957 146.517 194.184 146.699 194.596 146.699C195.016 146.699 195.208 146.551 195.208 146.325C195.208 146.195 195.138 146.056 194.814 145.986L194.009 145.812C193.205 145.639 192.811 145.291 192.811 144.526C192.811 143.622 193.59 143.1 194.639 143.1C195.654 143.1 196.363 143.692 196.363 144.569H195.086C195.086 144.274 194.902 144.074 194.578 144.074C194.272 144.074 194.079 144.23 194.079 144.465C194.079 144.665 194.246 144.778 194.552 144.848L195.366 145.021C196.083 145.178 196.477 145.508 196.477 146.204C196.477 147.134 195.681 147.699 194.543 147.699C193.388 147.699 192.662 147.09 192.662 146.212Z" fill="#A6A6A9"/>
</g>
<rect x="5.73371" y="-199.633" width="271.96" height="361.267" rx="11.3622" stroke="white" stroke-opacity="0.06" stroke-width="0.733046"/>
</g>
</g>
<defs>
<filter id="filter0_b_61_15724" x="-14.425" y="-219.792" width="312.277" height="401.584" filterUnits="userSpaceOnUse" color-interpolation-filters="sRGB">
<feFlood flood-opacity="0" result="BackgroundImageFix"/>
<feGaussianBlur in="BackgroundImageFix" stdDeviation="9.89612"/>
<feComposite in2="SourceAlpha" operator="in" result="effect1_backgroundBlur_61_15724"/>
<feBlend mode="normal" in="SourceGraphic" in2="effect1_backgroundBlur_61_15724" result="shape"/>
</filter>
<linearGradient id="paint0_linear_61_15724" x1="136.347" y1="0" x2="136.347" y2="360.999" gradientUnits="userSpaceOnUse">
<stop offset="0.5" stop-color="#24262E" stop-opacity="0.16"/>
<stop offset="1" stop-color="#24262E"/>
</linearGradient>
<linearGradient id="paint1_linear_61_15724" x1="187.069" y1="-4.77363" x2="198.931" y2="7.08852" gradientUnits="userSpaceOnUse">
<stop stop-color="#00ACEC"/>
<stop offset="1" stop-color="#007AED"/>
</linearGradient>
<clipPath id="clip0_61_15724">
<rect width="284" height="171" rx="7.97205" fill="white"/>
</clipPath>
<clipPath id="clip1_61_15724">
<rect x="5.36719" y="-200" width="272.693" height="362" rx="11.7287" fill="white"/>
</clipPath>
<clipPath id="clip2_61_15724">
<rect width="13.6347" height="13.6347" fill="white" transform="translate(234.43 -6.34155)"/>
</clipPath>
<clipPath id="clip3_61_15724">
<rect width="13.6347" height="13.6347" fill="white" transform="translate(234.429 50.5613)"/>
</clipPath>
<clipPath id="clip4_61_15724">
<rect x="27.1826" y="84.9668" width="229.062" height="44.2693" rx="5.45386" fill="white"/>
</clipPath>
</defs>
</svg>
