<svg width="31" height="31" viewBox="0 0 31 31" fill="none" xmlns="http://www.w3.org/2000/svg">
<rect x="0.727295" y="0.727295" width="30" height="30" rx="10.1852" fill="url(#paint0_linear_238_3406)"/>
<rect x="0.727295" y="0.727295" width="30" height="30" rx="10.1852" fill="#F4663E" fill-opacity="0.5" style="mix-blend-mode:overlay"/>
<rect x="1.23655" y="1.23655" width="28.9815" height="28.9815" rx="9.67593" stroke="white" stroke-opacity="0.12" stroke-width="1.01852"/>
<path d="M10.0106 18.0186C9.20555 18.0186 8.46041 18.3012 7.86944 18.7723C7.08148 19.3975 6.58472 20.3653 6.58472 21.4445C6.58472 22.0868 6.76458 22.6949 7.08148 23.2088C7.67245 24.2024 8.76018 24.8704 10.0106 24.8704C10.8757 24.8704 11.6637 24.5535 12.2632 24.0139C12.5287 23.7912 12.7599 23.5172 12.9398 23.2088C13.2567 22.6949 13.4366 22.0868 13.4366 21.4445C13.4366 19.5517 11.9035 18.0186 10.0106 18.0186ZM11.7836 21.0762L9.95925 22.7635C9.83935 22.8748 9.67661 22.9348 9.52245 22.9348C9.35972 22.9348 9.19699 22.8748 9.06851 22.7463L8.2206 21.8984C7.97222 21.65 7.97222 21.2389 8.2206 20.9905C8.46898 20.7422 8.88009 20.7422 9.12847 20.9905L9.53958 21.4017L10.9099 20.1341C11.1669 19.8942 11.578 19.9114 11.8178 20.1683C12.0576 20.4253 12.0405 20.8364 11.7836 21.0762Z" fill="white"/>
<path d="M18.4472 8.55432V11.8089H17.1625V8.55432C17.1625 8.32307 16.9569 8.21172 16.8199 8.21172C16.777 8.21172 16.7342 8.22029 16.6914 8.23742L9.89949 10.7983C9.44555 10.9696 9.15435 11.3978 9.15435 11.886V12.4599C8.37495 13.0423 7.86963 13.9758 7.86963 15.0293V11.886C7.86963 10.8668 8.49486 9.95895 9.44556 9.59922L16.246 7.02978C16.4344 6.96126 16.6314 6.927 16.8199 6.927C17.6763 6.927 18.4472 7.62075 18.4472 8.55432Z" fill="white"/>
<path d="M24.1432 17.5903V18.4468C24.1432 18.6781 23.9633 18.8665 23.7235 18.8751H22.473C22.0191 18.8751 21.608 18.541 21.5737 18.0957C21.548 17.8302 21.6508 17.5818 21.8221 17.4105C21.9763 17.2478 22.1904 17.1621 22.4217 17.1621H23.7149C23.9633 17.1707 24.1432 17.3591 24.1432 17.5903Z" fill="white"/>
<path d="M22.4127 16.2628H23.2863C23.7574 16.2628 24.1428 15.8774 24.1428 15.4063V15.0295C24.1428 13.2565 22.6953 11.8091 20.9224 11.8091H11.09C10.362 11.8091 9.69393 12.0489 9.15435 12.46C8.37495 13.0424 7.86963 13.976 7.86963 15.0295V16.554C7.86963 16.8795 8.21222 17.085 8.52055 16.9822C9.00018 16.8195 9.50551 16.7339 10.0108 16.7339C12.606 16.7339 14.7215 18.8494 14.7215 21.4445C14.7215 22.0612 14.5588 22.7378 14.3018 23.3373C14.1648 23.6457 14.3789 24.0139 14.7129 24.0139H20.9224C22.6953 24.0139 24.1428 22.5665 24.1428 20.7936V20.6308C24.1428 20.1598 23.7574 19.7744 23.2863 19.7744H22.5412C21.7189 19.7744 20.931 19.269 20.7169 18.4725C20.5456 17.8216 20.7511 17.1878 21.1794 16.7767C21.4963 16.4512 21.9331 16.2628 22.4127 16.2628ZM17.7192 16.0915H13.4368C13.0856 16.0915 12.7944 15.8003 12.7944 15.4491C12.7944 15.098 13.0856 14.8068 13.4368 14.8068H17.7192C18.0703 14.8068 18.3615 15.098 18.3615 15.4491C18.3615 15.8003 18.0703 16.0915 17.7192 16.0915Z" fill="white"/>
<defs>
<linearGradient id="paint0_linear_238_3406" x1="30.7273" y1="15.7273" x2="0.727295" y2="15.7273" gradientUnits="userSpaceOnUse">
<stop stop-color="#BFBFBF"/>
<stop offset="1" stop-color="#767676"/>
</linearGradient>
</defs>
</svg>
